<svg width="264" height="234" viewBox="0 0 264 234" fill="none" xmlns="http://www.w3.org/2000/svg">
    <path d="M263.866 231.392C264.045 231.376 264.045 230.632 263.866 230.616L259.496 230.244L250.754 229.567L242.013 228.942L233.271 228.369L215.789 228.399H128.379L58.4514 228L23.4875 228.399L14.746 228.981L9.08114 229.603L0.339689 230.269L0.251998 230.277C-0.0839992 230.305 -0.0839992 231.707 0.251998 231.735L0.339689 231.743L9.08114 232.409L14.746 233.031L23.4875 233.613H215.79L233.272 233.642L242.014 234L250.755 233.375L259.497 232.433L263.867 231.396L263.866 231.392Z" fill="#ECEDF1"/>
    <path d="M7.34616 100.61C-11.1233 212.774 28.3115 231.802 144.12 231.802C267.952 231.802 260.927 167.601 260.927 80.7053C260.927 20.0694 182.09 72.5068 144.12 43.0253C99.5342 8.40655 19.7681 25.172 7.34616 100.61Z" fill="#F6F7F8" fill-opacity="0.6"/>
    <path d="M66.0442 122.949C65.4728 123.199 64.6641 123.145 63.5752 122.699C59.7154 116.971 54.0012 110.231 51.7047 102.025C50.7559 98.6113 52.5995 94.0894 55.8987 92.9589C55.8987 92.9589 56.1359 92.9589 56.4594 92.9806C57.71 93.035 58.8529 93.7415 59.489 94.8394C59.9418 95.6112 60.4162 96.5025 60.6426 97.1873C62.0119 101.242 63.8771 106.764 65.5267 111.536C65.7531 112.199 65.9471 112.819 66.1089 113.351C66.1304 113.405 66.1412 113.471 66.1628 113.525C67.2733 117.558 68.0711 122.091 66.0442 122.949Z" fill="#A7B6C9"/>
    <path d="M66.0442 122.949C65.4727 123.199 64.6641 123.145 63.5752 122.699C59.7154 116.971 54.0011 110.231 51.7047 102.024C50.7559 98.6113 52.5995 94.0893 55.8987 92.9588C55.8987 92.9588 55.9957 92.9262 56.1143 92.8828L56.5887 93.9915C56.2329 96.2307 60.8906 115.46 63.7046 120.221C64.6318 121.797 65.4727 122.667 66.0442 122.949Z" fill="#88A1BC"/>
    <path d="M83.3163 114.34C83.3163 114.34 71.1763 121.775 68.5025 123.373C68.2545 123.525 68.0928 123.612 68.0281 123.656C67.6184 123.884 64.8583 123.612 64.4162 123.373C64.1575 123.232 63.5321 122.58 63.0254 121.851C63.0254 121.851 63.0254 121.58 63.0362 121.21C64.1467 119.688 65.3866 118.449 66.5186 117.482C68.5456 115.753 70.2383 114.905 70.2383 114.905L80.2436 108.818C80.2436 108.818 80.2759 109.047 80.3945 109.438C80.6749 110.449 81.4511 112.514 83.3163 114.329V114.34Z" fill="#A7B6C9"/>
    <path d="M66.6631 123.075C66.6631 123.075 66.134 122.987 65.573 122.603C64.8863 122.254 64.5364 121.975 64.05 121.006C63.6717 120.251 63.6813 120.127 63.3367 119.52C62.7976 120.096 63.5431 120.536 63.0364 121.232C63.0256 121.601 63.0148 121.819 63.0256 121.862C63.4569 122.603 63.8737 123.179 64.4164 123.384C64.8692 123.623 67.6291 123.884 68.028 123.666C68.0927 123.623 68.2652 123.536 68.5024 123.384L67.641 123.259L66.6631 123.075Z" fill="#88A1BC"/>
    <path d="M80.3836 109.449C80.3836 109.449 70.2926 116.253 66.5084 117.503C68.5353 115.775 70.2279 114.927 70.2279 114.927L80.2327 108.84C80.2327 108.84 80.265 109.068 80.3836 109.46V109.449Z" fill="#88A1BC"/>
    <path d="M72.4079 122.784C72.3272 123.377 72.7913 123.91 73.3967 123.92H74.2846L80.0255 124.001C80.5401 124.001 80.9739 123.629 81.0345 123.126L83.4862 104.242C83.5669 103.658 83.1129 103.125 82.5277 103.105L75.8989 102.854C75.3743 102.834 74.9303 103.216 74.8597 103.729L72.418 122.784H72.4079Z" fill="#243539"/>
    <path d="M73.4169 122.794C73.3362 123.387 73.8003 123.92 74.4057 123.93L81.0244 124.011C81.5389 124.011 81.9728 123.639 82.0333 123.136L84.4851 104.061C84.5658 103.467 84.1017 102.934 83.4963 102.924L76.8776 102.844C76.363 102.844 75.9292 103.216 75.8686 103.719L73.4169 122.794Z" fill="#3A4C51"/>
    <path d="M80.9877 118.623L79.791 118.992C79.5322 119.079 79.2627 118.873 79.2735 118.601L79.3058 116.916C79.3382 114.97 80.4594 113.21 82.2059 112.373C82.0226 111.297 82.6156 110.242 83.6182 109.851C84.1681 109.633 84.7826 109.927 84.9659 110.492L84.9874 110.568C85.1384 111.036 84.9874 111.547 84.5885 111.829L83.9093 112.329L83.1762 116.503L80.9984 118.623H80.9877Z" fill="url(#paint0_linear_14729_26724)"/>
    <path d="M48.848 218.269L47.662 221.258L52.341 225.78L56.4917 227.66L57.5698 226.986C57.5698 226.986 54.4864 219.454 54.1091 216.323C53.7318 213.193 50.0878 215.356 50.0878 215.356L48.848 218.269Z" fill="url(#paint1_linear_14729_26724)"/>
    <path d="M48.0505 219.943C48.0505 219.943 49.0855 224.454 54.0232 226.595L57.5702 226.986L64.6641 231.802L52.3737 231.399C52.3737 231.399 49.8941 226.813 49.064 226.921C48.2446 227.03 48.0182 230.693 48.0182 230.693L47.1988 230.66C47.1988 230.66 44.9779 222.193 48.0613 219.932L48.0505 219.943Z" fill="#2C2C2F"/>
    <path d="M29.7861 218.269L28.6002 221.258L33.2792 224.606L37.4299 226.486L38.508 225.813C38.508 225.813 35.4246 219.443 35.0473 216.323C34.6699 213.193 31.026 215.356 31.026 215.356L29.7861 218.269Z" fill="url(#paint2_linear_14729_26724)"/>
    <path d="M28.9887 219.943C28.9887 219.943 30.0021 223.541 34.9614 225.421L38.5084 225.813L45.6023 230.628L33.3119 230.226C33.3119 230.226 30.8323 226.802 30.0021 226.921C29.1828 227.03 28.9564 230.226 28.9564 230.226L28.137 230.193C28.137 230.193 25.9161 222.193 28.9995 219.932L28.9887 219.943Z" fill="#2C2C2F"/>
    <path d="M46.605 91.0239L57.4944 93.4479L56.1359 131.874L37.5484 131.319C37.5484 131.319 30.7237 104.275 25.5593 96.7959L38.3355 90.7739L46.6158 91.0347L46.605 91.0239Z" fill="#F4AEAE"/>
    <path d="M56.7827 129.189C56.7827 129.189 61.5378 140.639 62.1847 144.052L49.1386 148.516L31.4352 143.744C31.4352 143.744 32.0714 135.472 37.1603 130.667L56.7827 129.189Z" fill="#2C2C2F"/>
    <path d="M33.915 95.2399L42.3786 96.1847L48.2006 92.5566L56.6426 116.769L56.2221 135.036L40.5349 137.026L33.915 95.2399Z" fill="white"/>
    <path d="M31.5424 144.053C29.0087 161.233 28.3841 219.095 28.3841 219.095L36.9878 219.606L47.1067 149.87L47.6184 220.128L55.9634 220.9L59.7528 187.2C59.7528 187.2 63.7825 144.053 58.2622 132.645C54.2191 124.938 34.3693 130.581 34.3693 130.581L31.5424 144.053Z" fill="#2C2C2F"/>
    <path d="M36.6535 91.6L42.5618 127.069L37.5053 161.506C37.5053 161.506 29.5691 161.084 27.1648 160.051L28.1376 147.446C28.6228 143.446 28.9124 139.189 30.066 135.33L32.19 128.221L24.88 96.2524C24.88 96.2524 30.756 93.6545 36.6535 91.5892V91.6Z" fill="#A7B6C9"/>
    <path d="M29.246 116.265L29.5649 113.659L30.1387 116.265L33.8371 120.65L37.661 123.208L32.179 128.224L29.246 116.265Z" fill="#88A1BC"/>
    <path d="M46.5402 91.1761L50.5114 128.539L53.4297 159.566C53.4297 159.566 58.6076 158.936 63.1575 157.142V149.385C62.6711 142.598 62.1847 138.72 60.2392 132.417L57.3208 125.63L57.0954 116.014C57.0954 116.014 57.3434 99.307 58.1089 93.2632C58.1089 93.2632 51.5968 91.5566 46.5295 91.1761H46.5402Z" fill="#A7B6C9"/>
    <path d="M36.5781 91.4696C36.826 91.3718 42.5618 127.069 42.5618 127.069L36.1037 114.601L36.8584 109.971L31.0363 93.5893C31.0363 93.5893 34.2492 92.3501 36.5673 91.4696H36.5781Z" fill="#88A1BC"/>
    <path d="M46.1629 90.9587L50.3169 126.599L53.7532 113.579L51.2842 108.503L52.4594 91.9588L46.1629 90.9587Z" fill="#88A1BC"/>
    <path d="M36.0068 143.276L32.2765 142.776C30.6378 142.559 29.4843 141.026 29.6999 139.363L39.3705 140.668C39.1548 142.331 37.6455 143.505 36.0068 143.276Z" fill="#88A1BC"/>
    <path d="M58.4859 141.272L55.769 141.804C54.2705 142.098 52.8258 141.109 52.5347 139.587L52.4916 139.359L60.6313 137.75L60.6744 137.978C60.9655 139.5 59.9844 140.967 58.4859 141.272Z" fill="#88A1BC"/>
    <path d="M32.8869 73.9469C32.9689 75.0846 33.2152 76.2741 33.6768 77.4945C33.7794 77.7738 33.9025 78.0634 34.0256 78.3427L37.606 82.9143C37.606 82.9143 38.3446 84.3624 38.8986 84.9209C39.1961 85.2208 45.2078 89.2443 46.5415 89.2754C46.7261 89.2754 46.8903 89.2754 47.0544 89.2754C48.029 89.2236 48.4804 88.9133 48.7164 88.6134C48.8189 88.4893 49.4242 87.5584 50.3578 86.1931C52.2865 83.3694 52.4403 80.8457 52.3993 78.9322C52.389 78.322 52.3468 77.0545 52.3058 76.7442C52.3058 76.7442 52.3685 75.6263 52.3993 74.9333L52.3672 73.8461C52.3672 73.6496 52.3192 72.3073 52.0172 70.9806C51.4119 67.7432 49.691 63.521 42.8072 62.5281C38.2215 61.8661 32.4047 67.0377 32.8869 73.9469Z" fill="url(#paint3_linear_14729_26724)"/>
    <path d="M48.6446 83.3073C49.1473 83.266 49.6089 83.3073 49.6705 83.4314C49.732 83.5452 49.6397 84.114 49.4448 84.2485C49.2191 84.4036 48.9113 84.445 48.9113 84.445C48.7677 84.383 48.5626 84.4036 48.5626 84.4036C48.5626 84.4036 46.3365 84.3933 45.7107 84.3416C45.085 84.2899 44.5208 84.083 44.5208 84.083C44.5208 84.083 45.3517 83.9072 45.762 83.7831C46.8802 83.4521 48.142 83.359 48.6446 83.3177V83.3073Z" fill="url(#paint4_linear_14729_26724)"/>
    <path d="M48.5625 84.4036C48.5625 84.4036 48.7677 84.3829 48.9113 84.445C49.4037 84.9518 49.2806 85.3345 49.1165 85.6447C48.9626 85.9654 48.542 86.4204 47.7008 86.3274C46.8597 86.2343 45.9056 85.5103 45.3209 85.0345C44.7362 84.5588 44.5207 84.083 44.5207 84.083C44.5207 84.083 45.0747 84.2899 45.7005 84.3416C46.3262 84.3933 48.5625 84.4036 48.5625 84.4036Z" fill="url(#paint5_linear_14729_26724)"/>
    <path d="M48.449 84.7244C48.449 84.7244 48.5106 84.4244 48.5414 84.3623C48.5722 84.2899 49.0959 84.4037 49.0959 84.4037L48.9111 84.4451C48.9111 84.4451 48.6236 84.3933 48.5825 84.4968C48.5414 84.6003 48.4901 84.7348 48.449 84.7244Z" fill="#811945"/>
    <path d="M48.665 84.3424C48.665 84.3424 48.6342 84.3424 48.665 84.2176C48.665 84.2176 48.6342 84.1864 48.6342 84.2072C48.6342 84.228 48.5622 84.3424 48.5622 84.3424L48.6136 84.3944L48.665 84.3424Z" fill="#811945"/>
    <path d="M46.1816 84.3935C46.1816 84.3935 46.8692 84.1658 47.6594 84.1037C48.234 84.0624 48.6343 84.2072 48.6343 84.2072L48.4495 84.7245C48.4495 84.7245 48.2443 84.9522 47.5054 84.9004C46.7665 84.8487 46.1816 84.3831 46.1816 84.3831V84.3935Z" fill="white"/>
    <path d="M52.4347 74.8382C51.5512 71.8468 50.9789 70.2902 50.8558 69.9282C50.1993 68.0458 48.8068 67.5079 46.8475 67.4562C45.1856 67.4149 43.4354 68.1028 42.1018 69.3128C39.8245 71.371 38.7027 73.8934 37.6768 79.7886L37.2271 71.8468L39.1967 64.1829L44.408 62.5901L48.2344 63.7175L50.1117 65.4447C50.9323 67.234 50.8092 67.4305 51.158 68.0097C51.5991 68.7233 52.2328 71.9811 52.2328 71.9811L52.4347 74.8382Z" fill="white"/>
    <path d="M47.9264 92.5437C44.2745 95.8947 40.5609 97.2082 36.2421 93.1849C36.2421 93.1849 38.4785 96.4946 41.6278 96.4635C44.7669 96.4325 47.0545 93.7124 47.9264 92.5437Z" fill="url(#paint6_linear_14729_26724)"/>
    <path d="M20.1008 114.996C19.4545 104.084 21.7662 98.3047 21.7662 98.3047C23.5307 92.8022 27.1521 92.7505 29.2347 92.3161C29.6245 91.9644 30.8658 90.6095 31.7891 90.0096C31.9533 89.9061 32.3534 89.9889 32.3534 89.9889C32.3534 89.9889 32.0559 89.5751 32.0456 89.389C32.0251 88.6443 32.22 86.9583 32.5688 86.3584C32.7022 86.1826 32.8048 86.0481 32.8458 85.9964C33.4613 85.2103 33.7896 85.2724 33.8204 85.2724L32.8971 84.0416L32.497 80.9904L32.5175 79.9871L32.5586 78.0633C32.5586 78.0633 31.8507 76.9876 31.9841 74.8983C32.1482 72.3125 32.456 62.7348 40.4887 61.8659C42.0173 61.7005 43.8228 61.8453 45.9567 62.4141C48.3983 63.0657 50.05 64.6379 50.8399 66.51C51.2605 67.5133 51.8966 69.6646 51.9787 70.7403C51.9069 70.3887 50.6963 65.0309 47.5879 63.9552C43.9972 62.7141 40.8375 64.069 39.3294 67.234C37.8214 70.399 37.2879 74.3604 37.647 78.1046C37.5649 82.8521 38.2215 84.1243 40.2322 85.8206C41.371 86.4826 42.0378 86.9894 42.9611 87.5272C43.8844 88.065 44.9718 88.5719 45.495 88.8822C48.1111 90.4129 50.1321 86.3171 51.0246 84.7139C51.6914 83.8761 52.2351 82.1384 52.2351 79.563C52.2351 77.2255 52.1325 78.3115 52.2967 76.7393C52.2967 76.7393 52.4608 78.7459 52.4916 80.918C52.3685 82.004 51.9376 83.452 51.7837 84.4553C51.2708 85.8102 50.7271 86.8135 50.4193 87.672C50.1115 88.5305 50.368 89.2338 50.8091 90.1544C51.2503 91.0646 50.1423 91.2818 50.5322 93.2469C50.645 93.8055 51.558 95.1294 51.7632 96.4326C51.9787 97.8083 51.8248 101.718 47.8238 102.556C38.4472 102.37 38.7652 101.552 34.1795 99.308C31.3378 97.3221 30.1272 96.3085 29.2039 95.4707C28.5371 94.8605 26.6597 95.2639 25.6646 95.9258C22.0432 98.3151 22.0842 100.042 24.2694 105.721C26.4545 111.389 28.773 114.14 28.773 114.14C29.645 127.472 26.4648 136.802 26.4648 136.802C24.7823 136.636 24.1668 135.488 23.2948 134.03C22.5459 132.871 22.5151 132.727 21.3866 132.282C20.3402 132.137 18.0449 132.282 18.0449 132.282C19.2657 130.575 19.8135 130.285 20.1008 126.955C20.1008 126.955 20.2854 122.652 20.1008 117.429V114.996Z" fill="#2C2C2F"/>
    <path d="M50.8503 96.2362C50.0501 99.2666 49.1371 101.656 45.2287 101.18C41.3202 100.694 38.7761 99.1942 38.7761 99.1942C38.7761 99.1942 45.0953 101.356 47.506 100.363C49.9167 99.37 51.6504 93.2058 50.8503 96.2362Z" fill="#232328"/>
    <path d="M32.5691 78.0634C32.5691 78.0634 34.9285 81.5282 36.3852 81.673C36.3852 81.673 34.1899 81.2076 32.5691 79.1597V78.0634Z" fill="#232328"/>
    <path d="M33.831 85.2622C33.831 85.2622 36.7854 87.9823 39.1141 88.4167C39.1141 88.4167 33.8823 87.6617 32.5692 86.3482C32.5692 86.3482 33.4617 85.1691 33.831 85.2725V85.2622Z" fill="#232328"/>
    <path d="M30.3433 91.0646C30.3433 91.0646 38.1397 98.8423 44.264 94.5811C44.264 94.5811 40.1914 101.356 30.3433 91.0646Z" fill="#232328"/>
    <path d="M34.5621 116.949C34.5621 116.949 36.0607 117.101 36.9663 119.036C37.8719 120.982 37.4191 122.971 37.4191 122.971L35.8019 123.493L34.2171 120.014L33.9153 118.416L34.5621 116.949Z" fill="#88A1BC"/>
    <path d="M36.8799 121.243C36.6427 121.515 34.853 122.83 34.3678 123.536C33.818 124.341 32.7075 124.797 32.1253 125.689C31.349 126.895 30.6913 127.95 30.508 128.254C30.066 128.993 27.252 132.656 25.5485 132.319C24.9232 132.189 24.2331 131.743 23.597 131.167C23.5755 131.145 23.5539 131.135 23.5323 131.113C22.4757 130.124 21.5916 128.776 21.4407 127.95C21.1927 126.613 21.9259 125.113 22.0876 123.569C22.3464 120.993 21.9582 118.851 21.9798 116.558C21.9906 114.819 22.2601 111.177 22.3895 109.481C25.2574 110.438 26.3894 110.666 28.0714 110.873C28.4811 113.014 28.2547 112.025 28.632 113.819C28.7075 114.808 29.2789 118.677 29.1495 119.732V119.754C29.1495 119.808 29.1388 119.873 29.128 119.917C29.128 119.993 29.1064 120.058 29.1064 120.112C29.1064 120.167 29.0956 120.221 29.0848 120.265C29.0741 120.395 29.0633 120.482 29.0525 120.493C29.0525 120.493 29.1495 120.438 29.2574 120.373C29.3652 120.308 29.4945 120.243 29.5485 120.199C29.915 119.938 31.6185 119.536 32.1576 119.297C32.9986 118.938 35.5754 118.069 35.5754 118.069L36.8584 121.254L36.8799 121.243Z" fill="url(#paint7_linear_14729_26724)"/>
    <path d="M29.2789 120.362C29.2681 120.449 29.2681 120.504 29.2681 120.504C29.2681 120.504 27.899 121.188 26.5082 121.862C25.2468 122.471 24.0393 123.656 23.6512 124.188C23.9531 123.732 24.9557 122.341 26.2602 121.634C27.4893 120.971 28.6752 120.21 29.1388 119.906C29.1388 119.982 29.1172 120.047 29.1172 120.112C29.1172 120.167 29.1064 120.221 29.0957 120.264C29.0849 120.395 29.0741 120.482 29.0633 120.493C29.0633 120.493 29.1603 120.438 29.2681 120.373L29.2789 120.362Z" fill="#DD7A68"/>
    <path d="M35.3059 120.96C35.004 120.395 34.7021 119.221 34.6697 118.688C34.6374 118.167 34.4757 117.232 34.5619 116.949L30.2062 118.873L29.3329 120.069L29.2466 120.188C29.3329 118.797 29.4191 117.145 29.4946 115.34V115.145C29.5161 114.623 29.5269 114.101 29.5485 113.558C29.6779 109.307 30.9393 104.438 30.5512 100.046C30.4541 98.9591 29.9905 97.3286 29.2358 96.4264C28.7075 95.7851 27.3059 95.622 26.4973 95.7198C25.9798 95.7851 25.5054 95.9916 25.0741 96.1655C24.0714 96.5786 23.1011 97.7743 23.1011 97.7743C20.8909 100.84 21.775 104.253 21.279 113.786C20.9879 119.351 21.0418 127.787 21.182 128.504C21.3868 129.591 24.686 133.993 26.9717 132.515C27.8666 131.939 29.0418 130.58 30.1307 129.145C30.5512 128.591 30.9609 128.026 31.3382 127.493C31.4676 127.308 31.5862 127.134 31.7048 126.96C32.6428 125.602 37.4083 122.971 37.4083 122.971C36.039 122.623 35.8449 122.015 35.2843 120.96H35.3059Z" fill="#A7B6C9"/>
    <path d="M29.0633 105.394C28.9232 105.035 28.783 104.688 28.6321 104.351C27.5216 101.796 26.3572 100.111 25.3437 99.0134C25.0418 98.6764 24.7399 98.3938 24.4704 98.1655C24.4704 98.1655 26.7884 101.263 27.597 105.264C27.7696 106.133 27.8882 107.644 27.9528 109.481C28.0607 112.655 28.0391 116.797 27.9852 120.243C27.3922 120.667 26.7345 121.145 26.1954 121.558C24.9987 122.46 23.9313 123.743 23.6294 124.199C24.0176 123.667 25.2359 122.482 26.4865 121.873C27.1766 121.536 27.8666 121.123 28.3733 120.786C28.8801 120.449 29.2251 120.21 29.2251 120.21L29.2574 119.677V119.558C29.3329 118.308 29.4084 116.895 29.4623 115.362V115.166C29.4838 114.645 29.4946 114.123 29.5162 113.579C29.0849 112.394 28.9987 111.362 29.1065 110.742C29.6132 107.862 29.7641 107.34 29.031 105.427L29.0633 105.394Z" fill="#88A1BC"/>
    <path d="M35.5976 118.079L41.6134 114.079L47.737 117.449L48.4055 119.775L47.9742 120.199L46.4325 119.145L46.8638 120.645L42.3897 121.645L39.4896 120.373L36.8805 121.253L35.5976 118.068V118.079Z" fill="url(#paint8_linear_14729_26724)"/>
    <path d="M44.6645 116.08L41.5922 114.085L45.6671 115.134L47.737 117.46L44.6645 116.08Z" fill="url(#paint9_linear_14729_26724)"/>
    <path d="M36.9878 219.606L28.3846 219.095L28.2768 216.802L37.2897 217.084L36.9878 219.606Z" fill="#565656"/>
    <path d="M55.985 220.889L47.6297 220.117L47.662 217.487L56.3731 217.889L55.9742 220.889H55.985Z" fill="#565656"/>
    <path d="M50.5219 87.1342C49.7013 88.7787 48.0804 90.5059 45.1363 90.3508C45.1363 90.3508 47.783 91.1368 49.0345 90.0715C50.286 89.0062 50.645 86.8963 50.5322 87.1342H50.5219Z" fill="#232328"/>
    <path d="M249.502 37.1726L248.728 196.237C248.691 203.872 241.543 210.035 232.765 210H160.152C151.378 209.965 143.963 203.458 144 195.827L144.287 136.759L144.44 105.341L144.773 36.7633C144.81 29.1276 151.958 22.9646 160.737 23.0002L233.685 23.2927C242.458 23.3283 249.539 29.5411 249.502 37.1719V37.1726Z" fill="#3A4C51"/>
    <path d="M233.578 29.9641L160.776 29.6715C154.628 29.6473 149.622 33.9624 149.596 39.3104L148.842 194.568C148.815 199.913 153.775 204.264 159.919 204.289L232.721 204.581C238.869 204.606 243.874 200.29 243.901 194.943L244.655 39.6841C244.681 34.3397 239.722 29.989 233.578 29.9641Z" fill="white"/>
    <rect x="157.8" y="57.0464" width="79.3519" height="47.306" rx="4" fill="#EFEFEF"/>
    <path d="M224.109 88.2146C222.604 88.9296 220.327 89.0202 220.327 89.0202C220.327 89.0202 220.286 89.0202 220.209 89.0194C220.327 88.5547 220.388 88.0659 220.384 87.5608C220.357 84.4816 217.93 82.0259 214.948 82.0577C212.002 82.0887 209.624 84.5637 209.624 87.6119C209.624 88.0628 209.677 88.5004 209.776 88.9203C201.72 88.8405 190.683 88.7243 182.692 88.6089C182.749 88.2851 182.781 87.9528 182.781 87.6119C182.781 85.0533 181.105 82.8982 178.825 82.2537C178.693 82.2165 178.558 82.184 178.422 82.1569C178.309 82.1344 178.194 82.1158 178.078 82.1003C177.961 82.0848 177.843 82.074 177.724 82.067C177.696 82.0654 177.669 82.0639 177.641 82.0623C177.63 82.0623 177.619 82.0616 177.608 82.0608C177.586 82.06 177.564 82.0592 177.542 82.0585C177.52 82.0577 177.5 82.0577 177.481 82.0569C177.473 82.0569 177.465 82.0569 177.457 82.0569C177.439 82.0569 177.42 82.0569 177.402 82.0569C176.868 82.0569 176.352 82.1375 175.865 82.287C175.823 82.3002 175.78 82.3133 175.739 82.3273C175.718 82.3342 175.696 82.3412 175.676 82.349C175.634 82.3637 175.592 82.3784 175.552 82.3939C175.449 82.4326 175.348 82.4752 175.247 82.5202C175.207 82.538 175.167 82.5566 175.128 82.5759C175.088 82.5953 175.049 82.6147 175.01 82.6348C174.971 82.6549 174.932 82.6751 174.894 82.696C174.74 82.7797 174.591 82.8711 174.446 82.9687C174.41 82.9935 174.375 83.0183 174.34 83.0438C174.304 83.0694 174.269 83.0949 174.234 83.1213C174.199 83.1476 174.165 83.174 174.13 83.2011C174.096 83.2282 174.062 83.2553 174.029 83.2832C173.995 83.3111 173.962 83.3397 173.929 83.3684C173.847 83.4404 173.767 83.5148 173.689 83.5907C173.658 83.6217 173.627 83.6527 173.597 83.6837C173.551 83.7309 173.506 83.779 173.462 83.8278C173.433 83.8603 173.404 83.8928 173.375 83.9261C172.904 84.4746 172.536 85.1199 172.304 85.8302C172.293 85.8628 172.282 85.8961 172.272 85.9286C172.266 85.9495 172.26 85.9697 172.254 85.9906C172.244 86.0239 172.235 86.0572 172.225 86.0913C172.213 86.1354 172.201 86.1796 172.191 86.2237C172.179 86.2679 172.169 86.3128 172.159 86.3578C172.154 86.3802 172.149 86.4027 172.145 86.4252C172.129 86.4972 172.115 86.5692 172.103 86.6421C172.094 86.6909 172.087 86.7389 172.08 86.7885C172.077 86.8133 172.073 86.8373 172.07 86.8621C172.038 87.1076 172.021 87.3586 172.021 87.6127C172.021 87.6352 172.021 87.6506 172.019 87.6654C172.018 87.6754 172.017 87.6855 172.015 87.6948C172.013 87.7095 172.01 87.7242 172.007 87.7382C171.986 87.8203 171.944 87.8916 171.888 87.9466C171.886 87.9489 171.883 87.952 171.881 87.9543C171.863 87.9714 171.844 87.9868 171.823 88.0008C171.805 88.0124 171.787 88.0233 171.768 88.0325C171.704 88.0643 171.631 88.079 171.557 88.0744C171.549 88.0744 171.54 88.0728 171.53 88.0721C171.516 88.0705 171.503 88.0674 171.49 88.0651C171.481 88.0628 171.473 88.0604 171.463 88.0573C171.46 88.0558 171.456 88.055 171.452 88.0535C171.44 88.0496 171.429 88.0449 171.417 88.0395C171.402 88.0325 171.386 88.0248 171.371 88.0163C171.361 88.0101 171.351 88.0047 171.341 87.9985C171.331 87.9923 171.321 87.9861 171.312 87.9799C171.307 87.9768 171.303 87.9737 171.297 87.9706C171.283 87.9613 171.269 87.9528 171.254 87.9427C171.229 87.9264 171.205 87.9102 171.181 87.8923C171.16 87.8776 171.145 87.8668 171.13 87.8552C171.124 87.8505 171.117 87.8459 171.111 87.8404C171.088 87.8234 171.065 87.8048 171.043 87.787C170.811 87.6011 170.608 87.3795 170.442 87.1293C170.2 86.7644 170.059 86.3461 170.02 85.9162C169.989 85.5761 170.021 85.2291 170.119 84.8952C170.481 83.6542 171.293 80.8128 171.293 80.2644C171.293 80.2644 171.854 78.4548 172.429 76.598C172.483 76.4245 172.537 76.2502 172.591 76.0767C173.04 74.6273 173.468 73.25 173.612 72.7929C173.613 72.7898 173.615 72.7867 173.615 72.7836C173.705 72.6194 173.801 72.449 173.904 72.2716C173.953 72.1933 174.002 72.1151 174.049 72.0369C174.056 72.026 174.062 72.0152 174.069 72.0043C174.09 71.9687 174.112 71.9331 174.132 71.8974C174.163 71.8455 174.194 71.7936 174.224 71.741C174.252 71.6945 174.279 71.6472 174.306 71.6007C174.32 71.5775 174.333 71.5535 174.346 71.5302C174.355 71.5163 174.363 71.5024 174.372 71.4884C174.376 71.4814 174.38 71.4745 174.385 71.4667C174.39 71.4574 174.396 71.4489 174.402 71.4396C174.406 71.4326 174.41 71.4264 174.415 71.4195C174.426 71.4024 174.436 71.3885 174.445 71.3745C174.454 71.3606 174.463 71.3474 174.473 71.3335C174.481 71.3219 174.49 71.311 174.498 71.2994C174.503 71.2924 174.509 71.2855 174.513 71.2785C174.53 71.256 174.548 71.2336 174.566 71.2119C174.573 71.2033 174.58 71.194 174.587 71.1855C174.591 71.1801 174.596 71.1755 174.6 71.1708C174.606 71.1638 174.611 71.1569 174.617 71.1507C174.634 71.1297 174.65 71.1127 174.665 71.0957C174.672 71.0887 174.678 71.0809 174.685 71.074C174.693 71.0655 174.7 71.0569 174.708 71.0484C174.716 71.0407 174.723 71.0322 174.731 71.0244C174.734 71.0213 174.737 71.0174 174.741 71.0143C174.744 71.0105 174.747 71.0074 174.751 71.0043C174.754 71.0012 174.757 70.9981 174.76 70.9942C174.774 70.9802 174.787 70.9671 174.801 70.9539C174.814 70.9407 174.828 70.9276 174.841 70.9144C174.855 70.9012 174.869 70.8888 174.883 70.8757C174.897 70.8625 174.911 70.8501 174.924 70.8377C174.938 70.8253 174.952 70.8137 174.967 70.8013C174.984 70.7866 175.001 70.7726 175.018 70.7579C175.03 70.7486 175.041 70.7386 175.054 70.7293C175.065 70.7207 175.076 70.7122 175.087 70.7037C175.098 70.6952 175.109 70.6867 175.12 70.6781C175.131 70.6696 175.142 70.6619 175.153 70.6533C175.175 70.6371 175.198 70.6208 175.221 70.6053C175.238 70.5929 175.256 70.5813 175.274 70.5689C175.727 70.2676 176.251 70.0855 176.79 70.0205C188.476 68.6191 194.743 69.4302 197.363 70.1661C198.418 70.462 199.343 70.8067 200.188 71.215C202.125 72.1507 204.872 73.9409 206.459 75.1021C206.668 75.2555 206.867 75.4012 207.053 75.539C207.371 75.7745 207.985 76.0573 208.682 76.3346C210.084 76.8916 220.344 78.4904 223.028 80.0831C223.039 80.0893 223.05 80.0955 223.06 80.1017C223.139 80.1497 223.212 80.1908 223.282 80.2311C223.567 80.393 223.681 80.6269 224.046 81.07C224.129 81.1707 224.525 82.3939 224.533 82.4559C224.754 84.219 224.624 87.0402 224.731 87.3725C224.733 87.3795 224.735 87.3857 224.737 87.3927C224.857 87.7521 224.443 88.0566 224.108 88.2154L224.109 88.2146Z" fill="url(#paint10_linear_14729_26724)"/>
    <path d="M178.102 82.1208C177.983 82.1053 177.862 82.0929 177.741 82.086C177.713 82.0844 177.686 82.0829 177.658 82.0813C177.647 82.0813 177.636 82.0805 177.625 82.0798C177.603 82.079 177.58 82.0782 177.559 82.0774C177.537 82.0767 177.517 82.0767 177.498 82.0759C177.49 82.0759 177.482 82.0759 177.474 82.0759C177.456 82.0759 177.437 82.0759 177.419 82.0759C176.885 82.0759 176.369 82.1565 175.883 82.306C175.84 82.3191 175.798 82.3323 175.756 82.3462C175.736 82.3532 175.715 82.3602 175.694 82.3679C175.653 82.3827 175.611 82.3974 175.57 82.4129C175.467 82.4516 175.365 82.4942 175.265 82.5391C175.225 82.557 175.185 82.5756 175.146 82.5949C175.107 82.6143 175.068 82.6336 175.028 82.6538C174.989 82.6739 174.951 82.6941 174.912 82.715C174.758 82.7986 174.61 82.8901 174.465 82.9877C174.429 83.0124 174.393 83.0372 174.358 83.0628C174.323 83.0884 174.287 83.1139 174.253 83.1403C174.218 83.1666 174.183 83.1929 174.149 83.2201C174.115 83.2472 174.08 83.2743 174.047 83.3022C174.013 83.3301 173.98 83.3587 173.948 83.3874C173.865 83.4594 173.785 83.533 173.708 83.6097C173.677 83.6407 173.646 83.6717 173.615 83.7027C173.57 83.7499 173.524 83.7979 173.481 83.8467C173.451 83.8793 173.422 83.9118 173.394 83.9451C172.923 84.4936 172.555 85.1388 172.322 85.8492C172.312 85.8817 172.301 85.915 172.291 85.9476C172.285 85.9685 172.278 85.9886 172.272 86.0096C172.262 86.0429 172.253 86.0762 172.244 86.1103C172.232 86.1544 172.22 86.1986 172.209 86.2427C172.198 86.2877 172.188 86.3318 172.178 86.3767C172.172 86.3992 172.168 86.4217 172.163 86.4441C172.148 86.5162 172.134 86.5882 172.121 86.661C172.113 86.7098 172.105 86.7579 172.098 86.8074C172.095 86.8322 172.091 86.8562 172.088 86.881C172.056 87.1266 172.04 87.3768 172.04 87.6317C172.04 87.6541 172.04 87.6696 172.038 87.6843C172.037 87.6944 172.035 87.7045 172.034 87.7138C172.031 87.7285 172.028 87.7432 172.025 87.7572C172.004 87.8393 171.962 87.9105 171.907 87.9655C171.904 87.9679 171.901 87.971 171.899 87.9733C171.881 87.9903 171.862 88.0058 171.841 88.0198C171.824 88.0314 171.805 88.0422 171.787 88.0515C171.722 88.0833 171.65 88.098 171.576 88.0934C171.567 88.0934 171.558 88.0918 171.549 88.091C171.535 88.0895 171.522 88.0864 171.509 88.0833C171.5 88.081 171.491 88.0786 171.482 88.0763C171.478 88.0748 171.474 88.074 171.47 88.0724C171.459 88.0686 171.447 88.0639 171.436 88.0585C171.42 88.0515 171.405 88.0438 171.39 88.0345C171.38 88.0283 171.37 88.0229 171.36 88.0167C171.35 88.0105 171.339 88.0043 171.33 87.9981C171.311 87.9857 171.292 87.9741 171.273 87.9617C171.249 87.9454 171.224 87.9291 171.2 87.9113C171.179 87.8966 171.164 87.8857 171.149 87.8741C171.143 87.8695 171.136 87.8648 171.13 87.8602C170.519 87.3969 170.133 86.6951 170.039 85.936C169.999 85.6137 170.011 85.2806 170.08 84.9514C170.23 84.2387 170.521 82.897 170.888 81.3454C171.181 80.1098 171.523 78.7418 171.884 77.4528C171.898 77.4001 171.913 77.3475 171.928 77.2956C171.941 77.2514 171.954 77.2065 171.966 77.1623C171.978 77.1205 171.989 77.081 172.001 77.0415C172.009 77.0113 172.018 76.981 172.026 76.9516C172.252 76.1677 172.483 75.424 172.713 74.7725C172.866 74.3697 173.045 73.956 173.272 73.4975C173.387 73.2496 173.499 73.0342 173.609 72.8514C173.618 72.8359 173.626 72.8204 173.635 72.8042C173.725 72.6399 173.82 72.4695 173.923 72.2921C173.973 72.2139 174.021 72.1356 174.068 72.0574C174.075 72.0465 174.082 72.0357 174.088 72.0249C174.109 71.9892 174.131 71.9536 174.152 71.918C174.183 71.866 174.213 71.8141 174.243 71.7615C174.271 71.715 174.298 71.6677 174.325 71.6213C174.339 71.598 174.352 71.574 174.366 71.5508C174.374 71.5368 174.382 71.5229 174.391 71.5089C174.395 71.502 174.4 71.495 174.404 71.4873C174.41 71.478 174.416 71.4694 174.421 71.4601C174.425 71.4532 174.43 71.447 174.434 71.44C174.445 71.423 174.455 71.409 174.464 71.3951C174.473 71.3811 174.483 71.3679 174.493 71.354C174.5 71.3424 174.509 71.3315 174.517 71.3199C174.523 71.313 174.528 71.306 174.533 71.299C174.55 71.2765 174.567 71.2541 174.585 71.2324C174.592 71.2239 174.6 71.2146 174.607 71.2061C174.61 71.2006 174.615 71.196 174.619 71.1913C174.624 71.1844 174.63 71.1774 174.636 71.1712C174.654 71.1503 174.669 71.1332 174.684 71.1162C174.691 71.1092 174.697 71.1015 174.704 71.0945C174.712 71.086 174.72 71.0775 174.728 71.0689C174.736 71.0612 174.743 71.0527 174.751 71.0449C174.754 71.0418 174.757 71.0379 174.761 71.0349C174.764 71.0318 174.767 71.0279 174.771 71.0248C174.774 71.0217 174.777 71.0186 174.78 71.0147C174.794 71.0008 174.807 70.9876 174.821 70.9744C174.834 70.9613 174.848 70.9481 174.861 70.9349C174.875 70.9218 174.889 70.9094 174.903 70.8962C174.917 70.883 174.931 70.8706 174.944 70.8582C174.958 70.8458 174.972 70.8342 174.986 70.8218C175.003 70.8071 175.02 70.7932 175.038 70.7784C175.049 70.7692 175.061 70.7591 175.073 70.7498C175.084 70.7413 175.095 70.7327 175.106 70.7242C175.117 70.7157 175.128 70.7072 175.139 70.6987C175.151 70.6901 175.162 70.6824 175.172 70.6739C175.195 70.6576 175.218 70.6413 175.24 70.6258C175.258 70.6135 175.275 70.6018 175.294 70.5894C175.542 70.4252 175.81 70.2966 176.09 70.2029C176.112 70.2927 170.618 80.7311 178.095 82.1216C178.098 82.1216 178.1 82.1224 178.102 82.1231V82.1208Z" fill="url(#paint11_linear_14729_26724)"/>
    <path d="M224.935 85.4884C224.965 86.2352 224.913 87.4281 224.914 87.4351C224.945 87.8007 224.106 88.257 223.772 88.4158C222.267 89.1308 220.346 89.0386 220.346 89.0386C220.346 89.0386 220.304 89.0386 220.227 89.0378C220.341 88.5885 220.402 88.1168 220.402 87.6311C220.402 86.7317 220.194 85.8835 219.826 85.1321C221.871 85.4226 224.912 84.94 224.935 85.4884Z" fill="url(#paint12_linear_14729_26724)"/>
    <path d="M214.995 92.1443C217.348 92.1443 219.255 90.2243 219.255 87.8558C219.255 85.4874 217.348 83.5674 214.995 83.5674C212.642 83.5674 210.734 85.4874 210.734 87.8558C210.734 90.2243 212.642 92.1443 214.995 92.1443Z" fill="#324347"/>
    <path d="M215.005 85.2796C213.591 85.2757 212.436 86.4299 212.435 87.8506C212.433 89.269 213.578 90.4302 214.982 90.4325C216.399 90.4348 217.552 89.2829 217.554 87.8622C217.555 86.4439 216.41 85.2842 215.005 85.2803V85.2796Z" fill="white"/>
    <path d="M177.409 92.1443C179.763 92.1443 181.67 90.2243 181.67 87.8558C181.67 85.4874 179.763 83.5674 177.409 83.5674C175.056 83.5674 173.149 85.4874 173.149 87.8558C173.149 90.2243 175.056 92.1443 177.409 92.1443Z" fill="#324347"/>
    <path d="M177.421 85.2796C176.006 85.2757 174.852 86.4299 174.85 87.8506C174.848 89.269 175.994 90.4302 177.398 90.4325C178.815 90.4348 179.968 89.2829 179.969 87.8622C179.971 86.4439 178.826 85.2842 177.421 85.2803V85.2796Z" fill="white"/>
    <path d="M205.831 78.2578C205.654 76.8038 203.396 75.4466 203.288 75.3823C200.963 73.6479 197.358 71.2852 193.884 71.1373C189.103 70.9336 182.863 70.8429 178.258 71.4464C177.902 71.4928 177.554 71.6121 177.246 71.8244C176.477 72.3543 176.177 73.0925 176.31 73.84C176.422 74.4745 176.839 75.0245 177.429 75.3459L178.993 76.1996C179.751 76.4196 179.821 76.724 181.333 76.9983C187.313 78.082 205.064 79.0673 205.064 79.0673C205.249 79.0712 205.481 78.9341 205.615 78.8102C205.769 78.6676 205.855 78.4639 205.831 78.2578Z" fill="white"/>
    <path d="M188.325 70.2012L189.443 80.2452H190.77H191.259L189.792 70.2012H188.325Z" fill="url(#paint13_linear_14729_26724)"/>
    <circle cx="197.476" cy="80.6992" r="8.62522" fill="black" fill-opacity="0.6"/>
    <path d="M200.001 79.8332C200.668 80.2181 200.668 81.1803 200.001 81.5652L196.101 83.817C195.435 84.2019 194.601 83.7207 194.601 82.9509L194.601 78.4474C194.601 77.6776 195.435 77.1965 196.101 77.5814L200.001 79.8332Z" fill="white"/>
    <path d="M250.001 49.2144H248.522C247.996 49.2144 247.571 49.6398 247.571 50.1646V66.9815C247.571 67.5064 247.996 67.9318 248.522 67.9318H250.001C250.527 67.9318 250.953 67.5064 250.953 66.9815V50.1646C250.953 49.6398 250.527 49.2144 250.001 49.2144Z" fill="#3A4C51"/>
    <path d="M250.001 74.0132H248.522C247.996 74.0132 247.571 74.4386 247.571 74.9635V91.7804C247.571 92.3052 247.996 92.7307 248.522 92.7307H250.001C250.527 92.7307 250.953 92.3052 250.953 91.7804V74.9635C250.953 74.4386 250.527 74.0132 250.001 74.0132Z" fill="#3A4C51"/>
    <path d="M202.821 27.7404H190.352C189.646 27.7404 189.069 27.1895 189.069 26.5168C189.069 25.8441 189.646 25.2932 190.352 25.2932H202.821C203.526 25.2932 204.104 25.8441 204.104 26.5168C204.104 27.1895 203.527 27.7404 202.821 27.7404Z" fill="#403D40"/>
    <path d="M167.3 40.8929H158.944C158.706 40.8929 158.514 40.7007 158.514 40.4637C158.514 40.2266 158.706 40.0344 158.944 40.0344H167.3C167.537 40.0344 167.729 40.2266 167.729 40.4637C167.729 40.7007 167.537 40.8929 167.3 40.8929Z" fill="#A3A3A3"/>
    <path d="M167.3 44.0584H158.944C158.706 44.0584 158.514 43.8662 158.514 43.6292C158.514 43.3921 158.706 43.2 158.944 43.2H167.3C167.537 43.2 167.729 43.3921 167.729 43.6292C167.729 43.8662 167.537 44.0584 167.3 44.0584Z" fill="#A3A3A3"/>
    <path d="M167.3 47.223H158.944C158.706 47.223 158.514 47.0308 158.514 46.7937C158.514 46.5567 158.706 46.3645 158.944 46.3645H167.3C167.537 46.3645 167.729 46.5567 167.729 46.7937C167.729 47.0308 167.537 47.223 167.3 47.223Z" fill="#A3A3A3"/>
    <g opacity="0.72">
        <path d="M232.055 49.378H191.127C188.681 49.378 186.691 47.3899 186.691 44.9462V42.3117C186.691 39.868 188.681 37.8799 191.127 37.8799H232.055C234.501 37.8799 236.491 39.868 236.491 42.3117V44.9462C236.491 47.3899 234.501 49.378 232.055 49.378ZM191.127 38.5341C189.042 38.5341 187.346 40.2289 187.346 42.3117V44.9462C187.346 47.029 189.042 48.7238 191.127 48.7238H232.055C234.14 48.7238 235.836 47.029 235.836 44.9462V42.3117C235.836 40.2289 234.14 38.5341 232.055 38.5341H191.127Z" fill="#B2B2B2"/>
    </g>
    <path d="M230.984 45.0795C231.478 45.5593 231.971 46.0206 232.44 46.5046C232.566 46.6342 232.686 46.8335 232.687 47.0015C232.688 47.1431 232.542 47.3439 232.406 47.4101C232.299 47.4627 232.07 47.3965 231.967 47.3033C231.524 46.899 231.09 46.4804 230.687 46.0362C230.436 45.7586 230.242 45.7123 229.895 45.9081C228.536 46.6747 226.898 46.3587 225.9 45.1785C224.89 43.9862 224.857 42.3141 225.819 41.067C226.742 39.8697 228.426 39.4853 229.8 40.1573C231.463 40.9709 232.253 43.2067 230.984 45.0802V45.0795ZM228.41 40.6456C227.108 40.6249 225.966 41.7183 225.941 43.0088C225.915 44.3399 227.043 45.5045 228.369 45.5166C229.708 45.5287 230.799 44.4439 230.809 43.0907C230.818 41.8123 229.693 40.6662 228.41 40.6463V40.6456Z" fill="#B2B2B2"/>
    <path opacity="0.78" d="M172.678 113.051H160.074C158.836 113.051 157.832 114.054 157.832 115.291V125.958C157.832 127.195 158.836 128.198 160.074 128.198H172.678C173.916 128.198 174.92 127.195 174.92 125.958V115.291C174.92 114.054 173.916 113.051 172.678 113.051Z" fill="#EBEBEB"/>
    <path d="M171.332 122.421C171.058 122.55 170.643 122.567 170.643 122.567C170.643 122.567 170.635 122.567 170.621 122.566C170.642 122.482 170.654 122.394 170.653 122.302C170.648 121.745 170.205 121.3 169.661 121.306C169.124 121.312 168.69 121.76 168.69 122.312C168.69 122.393 168.7 122.472 168.718 122.548C167.249 122.534 165.236 122.513 163.779 122.492C163.789 122.433 163.795 122.373 163.795 122.312C163.795 121.848 163.489 121.458 163.073 121.342C163.049 121.335 163.025 121.329 163 121.324C162.979 121.32 162.958 121.317 162.937 121.314C162.916 121.311 162.894 121.309 162.872 121.308C162.867 121.307 162.862 121.307 162.857 121.307C162.855 121.307 162.853 121.307 162.851 121.307C162.847 121.307 162.843 121.306 162.839 121.306C162.835 121.306 162.832 121.306 162.828 121.306C162.827 121.306 162.825 121.306 162.824 121.306C162.82 121.306 162.817 121.306 162.814 121.306C162.716 121.306 162.622 121.321 162.533 121.348C162.526 121.35 162.518 121.353 162.51 121.355C162.506 121.356 162.503 121.358 162.499 121.359C162.491 121.362 162.484 121.364 162.476 121.367C162.457 121.374 162.439 121.382 162.421 121.39C162.413 121.393 162.406 121.397 162.399 121.4C162.392 121.403 162.385 121.407 162.377 121.411C162.37 121.414 162.363 121.418 162.356 121.422C162.328 121.437 162.301 121.453 162.275 121.471C162.268 121.476 162.262 121.48 162.255 121.485C162.249 121.489 162.242 121.494 162.236 121.499C162.23 121.503 162.223 121.508 162.217 121.513C162.211 121.518 162.205 121.523 162.199 121.528C162.193 121.533 162.186 121.538 162.18 121.543C162.165 121.556 162.151 121.57 162.137 121.584C162.131 121.589 162.125 121.595 162.12 121.601C162.111 121.609 162.103 121.618 162.095 121.627C162.09 121.633 162.085 121.639 162.079 121.645C161.993 121.744 161.926 121.861 161.884 121.989C161.882 121.995 161.88 122.001 161.878 122.007C161.877 122.011 161.876 122.015 161.875 122.018C161.873 122.025 161.871 122.03 161.87 122.037C161.868 122.045 161.865 122.053 161.863 122.061C161.861 122.069 161.859 122.077 161.858 122.085C161.857 122.089 161.856 122.093 161.855 122.097C161.852 122.11 161.85 122.123 161.847 122.136C161.846 122.145 161.845 122.154 161.843 122.163C161.843 122.167 161.842 122.172 161.841 122.176C161.836 122.22 161.832 122.266 161.832 122.312C161.832 122.316 161.832 122.319 161.832 122.321C161.832 122.323 161.832 122.325 161.831 122.327C161.831 122.329 161.83 122.332 161.83 122.335C161.826 122.349 161.818 122.362 161.808 122.372C161.808 122.373 161.807 122.373 161.807 122.374C161.804 122.377 161.8 122.38 161.796 122.382C161.793 122.384 161.79 122.386 161.786 122.388C161.774 122.393 161.761 122.396 161.748 122.395C161.746 122.395 161.744 122.395 161.743 122.395C161.74 122.395 161.738 122.394 161.736 122.393C161.734 122.393 161.732 122.393 161.731 122.392C161.73 122.392 161.729 122.392 161.729 122.391C161.726 122.391 161.724 122.39 161.722 122.389C161.719 122.388 161.716 122.386 161.714 122.385C161.712 122.384 161.71 122.382 161.708 122.381C161.707 122.38 161.705 122.379 161.703 122.378C161.702 122.377 161.701 122.377 161.7 122.376C161.698 122.375 161.695 122.373 161.692 122.371C161.688 122.368 161.684 122.365 161.679 122.362C161.675 122.36 161.673 122.358 161.67 122.356C161.669 122.355 161.668 122.354 161.667 122.353C161.662 122.35 161.658 122.347 161.654 122.343C161.612 122.31 161.575 122.27 161.545 122.224C161.501 122.158 161.475 122.083 161.467 122.005C161.462 121.943 161.468 121.88 161.486 121.82C161.552 121.595 162.097 119.712 162.123 119.629C162.123 119.628 162.123 119.628 162.123 119.627C162.14 119.597 162.157 119.567 162.176 119.534C162.185 119.52 162.194 119.506 162.202 119.492C162.203 119.49 162.205 119.488 162.206 119.486C162.21 119.479 162.214 119.473 162.218 119.466C162.223 119.457 162.229 119.448 162.234 119.438C162.239 119.43 162.244 119.421 162.249 119.413C162.252 119.409 162.254 119.404 162.257 119.4C162.258 119.397 162.26 119.395 162.261 119.392C162.262 119.391 162.263 119.39 162.264 119.389C162.265 119.387 162.266 119.385 162.267 119.384C162.268 119.382 162.268 119.381 162.269 119.38C162.271 119.377 162.273 119.374 162.275 119.372C162.276 119.369 162.278 119.367 162.28 119.364C162.281 119.362 162.283 119.36 162.284 119.358C162.285 119.357 162.286 119.356 162.287 119.354C162.29 119.35 162.293 119.346 162.297 119.342C162.298 119.34 162.299 119.339 162.301 119.337C162.301 119.336 162.302 119.335 162.303 119.335C162.304 119.333 162.305 119.332 162.306 119.331C162.309 119.327 162.312 119.324 162.315 119.321C162.316 119.32 162.317 119.318 162.318 119.317C162.32 119.316 162.321 119.314 162.323 119.312C162.324 119.311 162.325 119.31 162.327 119.308C162.327 119.307 162.328 119.307 162.329 119.306C162.329 119.306 162.33 119.305 162.33 119.305C162.331 119.304 162.332 119.303 162.332 119.303C162.335 119.3 162.337 119.298 162.34 119.296C162.342 119.293 162.345 119.291 162.347 119.288C162.35 119.286 162.352 119.284 162.355 119.281C162.357 119.279 162.36 119.277 162.362 119.275C162.365 119.272 162.367 119.27 162.37 119.268C162.373 119.266 162.376 119.263 162.379 119.26C162.382 119.259 162.384 119.257 162.386 119.255C162.388 119.254 162.39 119.252 162.392 119.25C162.394 119.249 162.396 119.247 162.398 119.246C162.4 119.244 162.402 119.243 162.404 119.241C162.408 119.238 162.412 119.235 162.416 119.233C162.42 119.23 162.423 119.228 162.426 119.226C162.509 119.172 162.604 119.139 162.703 119.127C164.834 118.873 165.977 119.02 166.455 119.153C166.647 119.207 166.816 119.269 166.97 119.343C167.323 119.512 167.824 119.836 168.114 120.047C168.152 120.074 168.188 120.101 168.222 120.126C168.28 120.168 168.392 120.22 168.519 120.27C168.775 120.371 170.646 120.66 171.135 120.949C171.137 120.95 171.139 120.951 171.141 120.952C171.155 120.961 171.169 120.968 171.181 120.975C171.233 121.005 171.254 121.047 171.321 121.127C171.336 121.145 171.408 121.367 171.41 121.378C171.45 121.697 171.426 122.208 171.446 122.268C171.446 122.269 171.446 122.27 171.447 122.272C171.469 122.337 171.393 122.392 171.332 122.421V122.421Z" fill="#4B5E63"/>
    <path d="M170.219 122.905C170.523 122.602 170.523 122.11 170.219 121.807C169.916 121.503 169.424 121.503 169.12 121.807C168.817 122.11 168.817 122.602 169.12 122.905C169.424 123.208 169.916 123.208 170.219 122.905Z" fill="#324347"/>
    <path d="M169.672 121.889C169.414 121.889 169.203 122.097 169.203 122.355C169.203 122.611 169.412 122.822 169.668 122.822C169.926 122.822 170.136 122.614 170.137 122.357C170.137 122.1 169.928 121.89 169.672 121.889V121.889Z" fill="white"/>
    <path d="M163.533 122.653C163.698 122.257 163.509 121.802 163.113 121.638C162.716 121.474 162.262 121.662 162.097 122.058C161.933 122.455 162.121 122.909 162.518 123.073C162.915 123.237 163.369 123.049 163.533 122.653Z" fill="#324347"/>
    <path d="M162.817 121.889C162.559 121.889 162.349 122.097 162.349 122.355C162.348 122.611 162.557 122.822 162.813 122.822C163.072 122.822 163.282 122.614 163.282 122.357C163.282 122.1 163.074 121.89 162.817 121.889V121.889Z" fill="white"/>
    <path d="M167.999 120.618C167.966 120.355 167.555 120.109 167.535 120.098C167.111 119.784 166.453 119.356 165.82 119.329C164.948 119.292 163.81 119.276 162.97 119.385C162.905 119.393 162.842 119.415 162.786 119.454C162.645 119.549 162.591 119.683 162.615 119.819C162.635 119.933 162.712 120.033 162.819 120.091L163.104 120.246C163.242 120.286 163.255 120.341 163.531 120.39C164.622 120.586 167.859 120.765 167.859 120.765C167.893 120.765 167.935 120.741 167.959 120.718C167.988 120.692 168.003 120.656 167.999 120.618Z" fill="white"/>
    <path d="M164.806 119.16L165.01 120.978H165.252H165.341L165.074 119.16H164.806Z" fill="#41545B"/>
    <g opacity="0.52">
        <path d="M236.26 121.329H178.646C178.483 121.329 178.351 121.197 178.351 121.034C178.351 120.871 178.483 120.739 178.646 120.739H236.26C236.423 120.739 236.556 120.871 236.556 121.034C236.556 121.197 236.423 121.329 236.26 121.329Z" fill="#41545B"/>
        <path d="M212.11 125.37H178.646C178.483 125.37 178.351 125.238 178.351 125.075C178.351 124.912 178.483 124.779 178.646 124.779H212.11C212.273 124.779 212.405 124.912 212.405 125.075C212.405 125.238 212.273 125.37 212.11 125.37Z" fill="#41545B"/>
        <path d="M236.291 117.288H178.646C178.483 117.288 178.351 117.156 178.351 116.993C178.351 116.83 178.483 116.698 178.646 116.698H236.291C236.454 116.698 236.587 116.83 236.587 116.993C236.587 117.156 236.454 117.288 236.291 117.288Z" fill="#41545B"/>
    </g>
    <path opacity="0.78" d="M172.678 132.798H160.074C158.836 132.798 157.832 133.801 157.832 135.038V145.705C157.832 146.942 158.836 147.945 160.074 147.945H172.678C173.916 147.945 174.92 146.942 174.92 145.705V135.038C174.92 133.801 173.916 132.798 172.678 132.798Z" fill="#EBEBEB"/>
    <path d="M171.332 142.168C171.058 142.297 170.643 142.314 170.643 142.314C170.643 142.314 170.635 142.314 170.621 142.313C170.642 142.229 170.654 142.141 170.653 142.049C170.648 141.492 170.205 141.047 169.661 141.053C169.124 141.059 168.69 141.507 168.69 142.059C168.69 142.14 168.7 142.219 168.718 142.296C167.249 142.281 165.236 142.26 163.779 142.239C163.789 142.181 163.795 142.12 163.795 142.059C163.795 141.595 163.489 141.205 163.073 141.089C163.049 141.082 163.025 141.076 163 141.071C162.979 141.067 162.958 141.064 162.937 141.061C162.916 141.058 162.894 141.056 162.872 141.055C162.867 141.054 162.862 141.054 162.857 141.054C162.855 141.054 162.853 141.054 162.851 141.054C162.847 141.054 162.843 141.054 162.839 141.053C162.835 141.053 162.832 141.053 162.828 141.053C162.827 141.053 162.825 141.053 162.824 141.053C162.82 141.053 162.817 141.053 162.814 141.053C162.716 141.053 162.622 141.068 162.533 141.095C162.526 141.097 162.518 141.1 162.51 141.102C162.506 141.103 162.503 141.105 162.499 141.106C162.491 141.109 162.484 141.111 162.476 141.114C162.457 141.121 162.439 141.129 162.421 141.137C162.413 141.14 162.406 141.144 162.399 141.147C162.392 141.151 162.385 141.154 162.377 141.158C162.37 141.161 162.363 141.165 162.356 141.169C162.328 141.184 162.301 141.2 162.275 141.218C162.268 141.223 162.262 141.227 162.255 141.232C162.249 141.236 162.242 141.241 162.236 141.246C162.23 141.251 162.223 141.255 162.217 141.26C162.211 141.265 162.205 141.27 162.199 141.275C162.193 141.28 162.186 141.285 162.18 141.291C162.165 141.304 162.151 141.317 162.137 141.331C162.131 141.336 162.125 141.342 162.12 141.348C162.111 141.356 162.103 141.365 162.095 141.374C162.09 141.38 162.085 141.386 162.079 141.392C161.993 141.491 161.926 141.608 161.884 141.736C161.882 141.742 161.88 141.748 161.878 141.754C161.877 141.758 161.876 141.762 161.875 141.766C161.873 141.772 161.871 141.778 161.87 141.784C161.868 141.792 161.865 141.8 161.863 141.808C161.861 141.816 161.859 141.824 161.858 141.832C161.857 141.836 161.856 141.84 161.855 141.844C161.852 141.857 161.85 141.87 161.847 141.883C161.846 141.892 161.845 141.901 161.843 141.91C161.843 141.914 161.842 141.919 161.841 141.923C161.836 141.967 161.832 142.013 161.832 142.059C161.832 142.063 161.832 142.066 161.832 142.068C161.832 142.07 161.832 142.072 161.831 142.074C161.831 142.077 161.83 142.079 161.83 142.082C161.826 142.097 161.818 142.109 161.808 142.119C161.808 142.12 161.807 142.12 161.807 142.121C161.804 142.124 161.8 142.127 161.796 142.129C161.793 142.131 161.79 142.133 161.786 142.135C161.774 142.14 161.761 142.143 161.748 142.142C161.746 142.142 161.744 142.142 161.743 142.142C161.74 142.142 161.738 142.141 161.736 142.14C161.734 142.14 161.732 142.14 161.731 142.139C161.73 142.139 161.729 142.139 161.729 142.138C161.726 142.138 161.724 142.137 161.722 142.136C161.719 142.135 161.716 142.133 161.714 142.132C161.712 142.131 161.71 142.13 161.708 142.128C161.707 142.127 161.705 142.126 161.703 142.125C161.702 142.125 161.701 142.124 161.7 142.123C161.698 142.122 161.695 142.12 161.692 142.118C161.688 142.115 161.684 142.112 161.679 142.109C161.675 142.107 161.673 142.105 161.67 142.103C161.669 142.102 161.668 142.101 161.667 142.1C161.662 142.097 161.658 142.094 161.654 142.09C161.612 142.057 161.575 142.017 161.545 141.971C161.501 141.905 161.475 141.83 161.467 141.752C161.462 141.69 161.468 141.627 161.486 141.567C161.552 141.342 162.097 139.459 162.123 139.376C162.123 139.375 162.123 139.375 162.123 139.374C162.14 139.344 162.157 139.314 162.176 139.281C162.185 139.267 162.194 139.253 162.202 139.239C162.203 139.237 162.205 139.235 162.206 139.233C162.21 139.226 162.214 139.22 162.218 139.214C162.223 139.204 162.229 139.195 162.234 139.185C162.239 139.177 162.244 139.168 162.249 139.16C162.252 139.156 162.254 139.151 162.257 139.147C162.258 139.145 162.26 139.142 162.261 139.14C162.262 139.138 162.263 139.137 162.264 139.136C162.265 139.134 162.266 139.132 162.267 139.131C162.268 139.13 162.268 139.128 162.269 139.127C162.271 139.124 162.273 139.121 162.275 139.119C162.276 139.116 162.278 139.114 162.28 139.111C162.281 139.109 162.283 139.107 162.284 139.105C162.285 139.104 162.286 139.103 162.287 139.101C162.29 139.097 162.293 139.093 162.297 139.089C162.298 139.088 162.299 139.086 162.301 139.084C162.301 139.084 162.302 139.083 162.303 139.082C162.304 139.081 162.305 139.079 162.306 139.078C162.309 139.074 162.312 139.071 162.315 139.068C162.316 139.067 162.317 139.065 162.318 139.064C162.32 139.063 162.321 139.061 162.323 139.06C162.324 139.058 162.325 139.057 162.327 139.055C162.327 139.055 162.328 139.054 162.329 139.053C162.329 139.053 162.33 139.052 162.33 139.052C162.331 139.051 162.332 139.051 162.332 139.05C162.335 139.048 162.337 139.045 162.34 139.043C162.342 139.04 162.345 139.038 162.347 139.035C162.35 139.033 162.352 139.031 162.355 139.028C162.357 139.026 162.36 139.024 162.362 139.022C162.365 139.02 162.367 139.017 162.37 139.015C162.373 139.013 162.376 139.01 162.379 139.007C162.382 139.006 162.384 139.004 162.386 139.002C162.388 139.001 162.39 138.999 162.392 138.997C162.394 138.996 162.396 138.994 162.398 138.993C162.4 138.991 162.402 138.99 162.404 138.988C162.408 138.985 162.412 138.982 162.416 138.98C162.42 138.977 162.423 138.975 162.426 138.973C162.509 138.919 162.604 138.886 162.703 138.874C164.834 138.62 165.977 138.767 166.455 138.9C166.647 138.954 166.816 139.016 166.97 139.09C167.323 139.259 167.824 139.583 168.114 139.794C168.152 139.821 168.188 139.848 168.222 139.873C168.28 139.915 168.392 139.967 168.519 140.017C168.775 140.118 170.646 140.407 171.135 140.696C171.137 140.697 171.139 140.698 171.141 140.699C171.155 140.708 171.169 140.715 171.181 140.722C171.233 140.752 171.254 140.794 171.321 140.874C171.336 140.892 171.408 141.114 171.41 141.125C171.45 141.444 171.426 141.955 171.446 142.015C171.446 142.016 171.446 142.018 171.447 142.019C171.469 142.084 171.393 142.139 171.332 142.168V142.168Z" fill="#4B5E63"/>
    <path d="M170.219 142.652C170.523 142.349 170.523 141.857 170.219 141.554C169.916 141.251 169.424 141.251 169.12 141.554C168.817 141.857 168.817 142.349 169.12 142.652C169.424 142.955 169.916 142.955 170.219 142.652Z" fill="#324347"/>
    <path d="M169.672 141.636C169.414 141.636 169.203 141.845 169.203 142.102C169.203 142.358 169.412 142.569 169.668 142.569C169.926 142.57 170.136 142.361 170.137 142.104C170.137 141.847 169.928 141.637 169.672 141.636V141.636Z" fill="white"/>
    <path d="M163.533 142.4C163.698 142.004 163.509 141.55 163.113 141.386C162.716 141.221 162.262 141.41 162.097 141.806C161.933 142.202 162.121 142.656 162.518 142.82C162.915 142.984 163.369 142.796 163.533 142.4Z" fill="#324347"/>
    <path d="M162.817 141.636C162.559 141.636 162.349 141.845 162.349 142.102C162.348 142.358 162.557 142.569 162.813 142.569C163.072 142.57 163.282 142.361 163.282 142.104C163.282 141.847 163.074 141.637 162.817 141.636V141.636Z" fill="white"/>
    <path d="M167.999 140.365C167.966 140.102 167.555 139.856 167.535 139.845C167.111 139.531 166.453 139.103 165.82 139.076C164.948 139.039 163.81 139.023 162.97 139.132C162.905 139.141 162.842 139.162 162.786 139.201C162.645 139.297 162.591 139.43 162.615 139.566C162.635 139.68 162.712 139.78 162.819 139.838L163.104 139.993C163.242 140.033 163.255 140.088 163.531 140.137C164.622 140.333 167.859 140.512 167.859 140.512C167.893 140.513 167.935 140.488 167.959 140.465C167.988 140.439 168.003 140.403 167.999 140.365Z" fill="white"/>
    <path d="M164.806 138.907L165.01 140.725H165.252H165.341L165.074 138.907H164.806Z" fill="#41545B"/>
    <g opacity="0.52">
        <path d="M236.26 141.076H178.646C178.483 141.076 178.351 140.944 178.351 140.781C178.351 140.618 178.483 140.485 178.646 140.485H236.26C236.423 140.485 236.556 140.618 236.556 140.781C236.556 140.944 236.423 141.076 236.26 141.076Z" fill="#41545B"/>
        <path d="M212.11 145.117H178.646C178.483 145.117 178.351 144.985 178.351 144.822C178.351 144.659 178.483 144.527 178.646 144.527H212.11C212.273 144.527 212.405 144.659 212.405 144.822C212.405 144.985 212.273 145.117 212.11 145.117Z" fill="#41545B"/>
        <path d="M236.291 137.036H178.646C178.483 137.036 178.351 136.903 178.351 136.74C178.351 136.577 178.483 136.445 178.646 136.445H236.291C236.454 136.445 236.587 136.577 236.587 136.74C236.587 136.903 236.454 137.036 236.291 137.036Z" fill="#41545B"/>
    </g>
    <path d="M193.759 195.591H160.296C160.133 195.591 160 195.458 160 195.295C160 195.132 160.133 195 160.296 195H193.759C193.922 195 194.055 195.132 194.055 195.295C194.055 195.458 193.922 195.591 193.759 195.591Z" fill="#9CA6AA"/>
    <path d="M189.759 199.591H164.296C164.133 199.591 164 199.458 164 199.295C164 199.132 164.133 199 164.296 199H189.759C189.922 199 190.055 199.132 190.055 199.295C190.055 199.458 189.922 199.591 189.759 199.591Z" fill="#9CA6AA"/>
    <path d="M233.759 195.591H200.296C200.133 195.591 200 195.458 200 195.295C200 195.132 200.133 195 200.296 195H233.759C233.922 195 234.055 195.132 234.055 195.295C234.055 195.458 233.922 195.591 233.759 195.591Z" fill="#9CA6AA"/>
    <path d="M229.759 199.591H204.296C204.133 199.591 204 199.458 204 199.295C204 199.132 204.133 199 204.296 199H229.759C229.922 199 230.055 199.132 230.055 199.295C230.055 199.458 229.922 199.591 229.759 199.591Z" fill="#9CA6AA"/>
    <rect x="158" y="158" width="38" height="33" rx="4" fill="#F0F0F0"/>
    <path d="M184.89 172.151C184.878 172.135 184.866 172.12 184.853 172.105L184.221 171.434C184.745 171.303 185.308 170.819 185.308 170.32C185.308 169.742 184.581 169.537 183.961 169.537C183.312 169.537 183.237 170.027 183.229 170.372L181.601 168.645C181.205 168.254 180.7 168.026 180.169 168H173.831C173.303 168.027 172.799 168.255 172.404 168.645L170.778 170.376C170.77 170.03 170.694 169.54 170.046 169.54C169.424 169.54 168.699 169.746 168.699 170.323C168.699 170.819 169.263 171.303 169.786 171.438L169.154 172.109C169.14 172.124 169.13 172.139 169.117 172.154C168.443 172.849 168.042 173.807 168 174.824V177.369C168 177.963 168.207 178.534 168.577 178.965V179.952C168.581 180.234 168.687 180.502 168.87 180.699C169.053 180.895 169.299 181.003 169.554 181H170.733C170.988 181.004 171.234 180.895 171.417 180.699C171.6 180.503 171.705 180.234 171.709 179.952V179.7H182.291V179.952C182.295 180.234 182.4 180.503 182.583 180.699C182.766 180.895 183.012 181.004 183.267 181H184.446C184.701 181.003 184.947 180.895 185.13 180.699C185.313 180.502 185.419 180.234 185.423 179.952V178.965C185.793 178.534 186 177.963 186 177.369V174.824C185.961 173.807 185.562 172.848 184.89 172.151ZM173.002 169.414C173.241 169.208 173.528 169.079 173.831 169.043H180.174C180.476 169.079 180.763 169.208 181.002 169.414L183.137 171.697H170.868L173.002 169.414ZM168.732 174.441C168.73 174.295 168.754 174.149 168.802 174.013C168.851 173.876 168.923 173.752 169.015 173.646C169.108 173.541 169.218 173.456 169.34 173.398C169.462 173.34 169.593 173.308 169.726 173.306C170.275 173.306 172.068 174.467 172.068 175.093C172.068 175.72 170.275 175.575 169.726 175.575C169.593 175.573 169.462 175.542 169.34 175.483C169.218 175.425 169.108 175.341 169.016 175.235C168.924 175.13 168.851 175.006 168.803 174.87C168.754 174.733 168.73 174.588 168.732 174.441ZM171.712 178.587H171.334H170.211C169.964 178.511 169.731 178.387 169.524 178.221C169.453 178.161 169.391 178.091 169.338 178.013C169.294 177.949 169.258 177.877 169.233 177.802C169.198 177.659 169.193 177.51 169.219 177.365C169.245 177.22 169.301 177.083 169.382 176.966H171.299L172.576 178.583L171.712 178.587ZM179.758 178.587H174.248C173.972 178.586 173.708 178.465 173.513 178.25C173.317 178.035 173.208 177.743 173.208 177.439H180.796C180.795 177.742 180.686 178.033 180.491 178.248C180.297 178.463 180.033 178.584 179.758 178.585V178.587ZM179.999 176.656H174.006C173.382 176.656 172.874 175.806 172.874 174.759H181.133C181.133 175.805 180.627 176.654 179.999 176.654V176.656ZM184.772 177.804C184.746 177.879 184.711 177.95 184.667 178.014C184.614 178.092 184.552 178.162 184.481 178.222C184.274 178.388 184.042 178.512 183.794 178.587H182.671H181.429L182.707 176.967H184.623C184.705 177.084 184.761 177.22 184.787 177.365C184.813 177.51 184.808 177.659 184.773 177.802L184.772 177.804ZM184.279 175.575C183.731 175.575 181.938 175.719 181.938 175.093C181.938 174.467 183.731 173.306 184.279 173.306C184.545 173.318 184.796 173.442 184.98 173.654C185.164 173.865 185.267 174.147 185.267 174.441C185.267 174.734 185.164 175.016 184.98 175.227C184.796 175.439 184.545 175.563 184.279 175.575Z" fill="#8399C3"/>
    <rect width="38" height="33" rx="4" transform="matrix(-1 0 0 1 236 158)" fill="#F0F0F0"/>
    <path d="M224.89 172.151C224.878 172.135 224.866 172.12 224.853 172.105L224.221 171.434C224.745 171.303 225.308 170.819 225.308 170.32C225.308 169.742 224.581 169.537 223.961 169.537C223.312 169.537 223.237 170.027 223.229 170.372L221.601 168.645C221.205 168.254 220.7 168.026 220.169 168H213.831C213.303 168.027 212.799 168.255 212.404 168.645L210.778 170.376C210.77 170.03 210.694 169.54 210.046 169.54C209.424 169.54 208.699 169.746 208.699 170.323C208.699 170.819 209.263 171.303 209.786 171.438L209.154 172.109C209.14 172.124 209.13 172.139 209.117 172.154C208.443 172.849 208.042 173.807 208 174.824V177.369C208 177.963 208.207 178.534 208.577 178.965V179.952C208.581 180.234 208.687 180.502 208.87 180.699C209.053 180.895 209.299 181.003 209.554 181H210.733C210.988 181.004 211.234 180.895 211.417 180.699C211.6 180.503 211.705 180.234 211.709 179.952V179.7H222.291V179.952C222.295 180.234 222.4 180.503 222.583 180.699C222.766 180.895 223.012 181.004 223.267 181H224.446C224.701 181.003 224.947 180.895 225.13 180.699C225.313 180.502 225.419 180.234 225.423 179.952V178.965C225.793 178.534 226 177.963 226 177.369V174.824C225.961 173.807 225.562 172.848 224.89 172.151ZM213.002 169.414C213.241 169.208 213.528 169.079 213.831 169.043H220.174C220.476 169.079 220.763 169.208 221.002 169.414L223.137 171.697H210.868L213.002 169.414ZM208.732 174.441C208.73 174.295 208.754 174.149 208.802 174.013C208.851 173.876 208.923 173.752 209.015 173.646C209.108 173.541 209.218 173.456 209.34 173.398C209.462 173.34 209.593 173.308 209.726 173.306C210.275 173.306 212.068 174.467 212.068 175.093C212.068 175.72 210.275 175.575 209.726 175.575C209.593 175.573 209.462 175.542 209.34 175.483C209.218 175.425 209.108 175.341 209.016 175.235C208.924 175.13 208.851 175.006 208.803 174.87C208.754 174.733 208.73 174.588 208.732 174.441ZM211.712 178.587H211.334H210.211C209.964 178.511 209.731 178.387 209.524 178.221C209.453 178.161 209.391 178.091 209.338 178.013C209.294 177.949 209.258 177.877 209.233 177.802C209.198 177.659 209.193 177.51 209.219 177.365C209.245 177.22 209.301 177.083 209.382 176.966H211.299L212.576 178.583L211.712 178.587ZM219.758 178.587H214.248C213.972 178.586 213.708 178.465 213.513 178.25C213.317 178.035 213.208 177.743 213.208 177.439H220.796C220.795 177.742 220.686 178.033 220.491 178.248C220.297 178.463 220.033 178.584 219.758 178.585V178.587ZM219.999 176.656H214.006C213.382 176.656 212.874 175.806 212.874 174.759H221.133C221.133 175.805 220.627 176.654 219.999 176.654V176.656ZM224.772 177.804C224.746 177.879 224.711 177.95 224.667 178.014C224.614 178.092 224.552 178.162 224.481 178.222C224.274 178.388 224.042 178.512 223.794 178.587H222.671H221.429L222.707 176.967H224.623C224.705 177.084 224.761 177.22 224.787 177.365C224.813 177.51 224.808 177.659 224.773 177.802L224.772 177.804ZM224.279 175.575C223.731 175.575 221.938 175.719 221.938 175.093C221.938 174.467 223.731 173.306 224.279 173.306C224.545 173.318 224.796 173.442 224.98 173.654C225.164 173.865 225.267 174.147 225.267 174.441C225.267 174.734 225.164 175.016 224.98 175.227C224.796 175.439 224.545 175.563 224.279 175.575Z" fill="#79AD79"/>
    <circle cx="197" cy="174" r="5" fill="#0B1837"/>
    <path d="M195.79 175.617H195.211L194.083 172.383H194.773L195.514 174.822L196.242 172.383H196.936L195.79 175.617Z" fill="#ECEDF1"/>
    <path d="M199.8 173.359H199.157C199.135 173.03 198.902 172.866 198.458 172.866C198.28 172.866 198.139 172.901 198.033 172.97C197.931 173.039 197.88 173.133 197.88 173.25C197.88 173.365 197.923 173.451 198.01 173.508C198.097 173.565 198.265 173.616 198.514 173.661L199.036 173.756C199.343 173.813 199.567 173.911 199.707 174.05C199.847 174.188 199.917 174.384 199.917 174.637C199.917 174.983 199.78 175.247 199.506 175.427C199.27 175.587 198.952 175.667 198.551 175.667C198.094 175.667 197.746 175.564 197.507 175.36C197.298 175.182 197.185 174.935 197.166 174.619H197.833C197.858 174.962 198.108 175.134 198.583 175.134C198.795 175.134 198.959 175.098 199.078 175.025C199.199 174.95 199.259 174.848 199.259 174.718C199.259 174.592 199.211 174.494 199.115 174.425C199.022 174.355 198.86 174.3 198.63 174.257L198.164 174.172C197.825 174.111 197.583 174.017 197.437 173.887C197.294 173.755 197.222 173.565 197.222 173.318C197.222 172.984 197.348 172.731 197.6 172.559C197.817 172.409 198.113 172.333 198.486 172.333C198.936 172.333 199.275 172.433 199.502 172.631C199.698 172.806 199.797 173.049 199.8 173.359Z" fill="#ECEDF1"/>
    <path d="M122.375 86.4559L121.917 86.2542L121.921 86.2455L121.925 86.2369L122.375 86.4559ZM112.691 72.3894L112.469 71.9414L112.52 71.9159L112.576 71.9027L112.691 72.3894ZM107.941 85.2141L107.482 85.4119L107.474 85.394L107.468 85.3757L107.941 85.2141ZM141.15 88.4152L137.943 93.2162L135.389 88.0385L141.15 88.4152ZM137.185 90.7192C136.212 91.0807 135.239 91.3949 134.272 91.6646L134.004 90.7014C134.944 90.4391 135.89 90.1334 136.837 89.7818L137.185 90.7192ZM131.29 92.3622C130.267 92.5559 129.255 92.7016 128.258 92.8024L128.157 91.8075C129.126 91.7095 130.109 91.568 131.104 91.3797L131.29 92.3622ZM125.199 92.9753C124.152 92.9875 123.128 92.9504 122.135 92.8685L122.217 91.8719C123.179 91.9512 124.172 91.9872 125.188 91.9754L125.199 92.9753ZM119.091 92.4629C118.046 92.2679 117.046 92.021 116.102 91.728L116.398 90.7729C117.304 91.0539 118.266 91.2917 119.275 91.4799L119.091 92.4629ZM113.221 90.613C112.228 90.1417 111.33 89.6102 110.544 89.0286L111.139 88.2249C111.867 88.7635 112.708 89.2626 113.65 89.7097L113.221 90.613ZM108.289 86.8128C107.961 86.3633 107.69 85.8954 107.482 85.4119L108.4 85.0164C108.576 85.425 108.809 85.8285 109.097 86.2235L108.289 86.8128ZM107.468 85.3757C107.32 84.9428 107.185 84.5234 107.063 84.1166L108.021 83.8296C108.139 84.2227 108.27 84.63 108.414 85.0525L107.468 85.3757ZM106.447 81.5184C106.291 80.5405 106.25 79.6345 106.347 78.7867L107.34 78.9007C107.256 79.6369 107.289 80.4488 107.435 81.3605L106.447 81.5184ZM107.232 76.1351C107.679 75.3885 108.287 74.7067 109.061 74.0656L109.699 74.8357C108.995 75.4186 108.468 76.017 108.09 76.6488L107.232 76.1351ZM111.292 72.5623C111.662 72.3536 112.054 72.1469 112.469 71.9414L112.913 72.8374C112.512 73.0359 112.136 73.2343 111.783 73.4333L111.292 72.5623ZM112.576 71.9027C113.052 71.7907 113.513 71.7085 113.958 71.6544L114.079 72.6471C113.672 72.6965 113.248 72.7721 112.805 72.8761L112.576 71.9027ZM116.777 71.7056C117.78 71.8819 118.67 72.2307 119.451 72.7138L118.924 73.564C118.253 73.1481 117.482 72.8449 116.604 72.6905L116.777 71.7056ZM121.553 74.6406C122.121 75.3855 122.572 76.2233 122.916 77.1062L121.984 77.4686C121.67 76.6611 121.262 75.9081 120.758 75.2475L121.553 74.6406ZM123.628 79.8033C123.771 80.7355 123.817 81.6756 123.775 82.5806L122.776 82.5336C122.815 81.6942 122.772 80.8207 122.639 79.9548L123.628 79.8033ZM123.331 85.3447C123.193 85.8175 123.024 86.2645 122.824 86.6748L121.925 86.2369C122.097 85.8833 122.247 85.4899 122.371 85.0645L123.331 85.3447ZM122.832 86.6575C122.624 87.1299 122.408 87.594 122.183 88.0499L121.286 87.6082C121.504 87.165 121.715 86.7137 121.917 86.2542L122.832 86.6575ZM120.71 90.7449C120.173 91.6335 119.605 92.4858 119.009 93.3025L118.201 92.7131C118.78 91.9196 119.332 91.0914 119.854 90.2279L120.71 90.7449ZM117.094 95.7025C116.413 96.4829 115.707 97.2245 114.979 97.928L114.284 97.2088C114.992 96.5247 115.679 95.8038 116.34 95.0454L117.094 95.7025ZM112.682 99.9662C111.88 100.62 111.059 101.232 110.224 101.805L109.658 100.981C110.471 100.423 111.27 99.8267 112.05 99.191L112.682 99.9662ZM107.624 103.437C106.726 103.951 105.817 104.423 104.903 104.853L104.477 103.949C105.367 103.53 106.252 103.07 107.127 102.569L107.624 103.437ZM102.077 106.048C101.103 106.414 100.129 106.735 99.1619 107.01L98.8878 106.049C99.8285 105.781 100.776 105.469 101.725 105.112L102.077 106.048ZM96.1771 107.725C95.1433 107.926 94.1256 108.074 93.1325 108.17L93.0356 107.175C93.9965 107.081 94.983 106.938 95.9867 106.744L96.1771 107.725ZM90.0528 108.307C89.5283 108.3 89.0142 108.278 88.512 108.241L88.587 107.243C89.0673 107.28 89.5604 107.301 90.0646 107.307L90.0528 108.307Z" fill="#B4BAC8"/>
    <g clip-path="url(#clip0_14729_26724)">
        <path d="M92.7464 230.799C88.849 213.57 96.4245 199.609 112.976 196C115.896 220.103 100.668 228.974 92.7503 230.799H92.7464Z" fill="#CDD0DF"/>
        <g style="mix-blend-mode:multiply">
            <path d="M93.1619 230.246C93.085 230.258 93.0003 230.242 92.9272 230.197C92.7579 230.095 92.7002 229.871 92.8041 229.701L111.499 197.981C111.599 197.81 111.818 197.753 111.987 197.86C112.156 197.962 112.214 198.185 112.11 198.356L93.4158 230.076C93.3581 230.174 93.262 230.231 93.1619 230.246Z" fill="#BDC1D7"/>
        </g>
        <path d="M96.4934 230.966C95.7163 222.111 89.7682 216.577 81 217.376C83.3431 229.375 92.2844 231.299 96.4934 230.966Z" fill="#DCDEE8"/>
        <g style="mix-blend-mode:multiply">
            <path d="M96.201 230.765C96.2433 230.757 96.2818 230.738 96.3088 230.704C96.378 230.629 96.3703 230.515 96.2934 230.447L82.0426 218.103C81.9657 218.035 81.8503 218.043 81.781 218.119C81.7118 218.194 81.7195 218.308 81.7964 218.376L96.0471 230.72C96.0895 230.757 96.1472 230.773 96.201 230.761V230.765Z" fill="#D4D8E9"/>
        </g>
        <path d="M96 230.786C97.8737 220.48 105.268 214.549 115.164 216.306C111.155 230.153 100.759 231.574 96 230.786Z" fill="#DCDEE8"/>
        <g style="mix-blend-mode:multiply">
            <path d="M96.354 230.577C96.3078 230.566 96.2655 230.54 96.2385 230.498C96.1693 230.403 96.1924 230.267 96.2847 230.199L113.894 217.06C113.99 216.988 114.121 217.007 114.19 217.105C114.26 217.204 114.237 217.336 114.144 217.405L96.5348 230.543C96.4809 230.585 96.4155 230.596 96.354 230.581V230.577Z" fill="#D4D8E9"/>
        </g>
    </g>
    <defs>
        <linearGradient id="paint0_linear_14729_26724" x1="85.0305" y1="114.405" x2="79.2627" y2="114.405" gradientUnits="userSpaceOnUse">
            <stop stop-color="#FFB886"/>
            <stop offset="1" stop-color="#FFA486"/>
        </linearGradient>
        <linearGradient id="paint1_linear_14729_26724" x1="57.5698" y1="221.149" x2="47.662" y2="221.149" gradientUnits="userSpaceOnUse">
            <stop stop-color="#FFB886"/>
            <stop offset="1" stop-color="#FFA486"/>
        </linearGradient>
        <linearGradient id="paint2_linear_14729_26724" x1="38.508" y1="220.563" x2="28.6002" y2="220.563" gradientUnits="userSpaceOnUse">
            <stop stop-color="#FFB886"/>
            <stop offset="1" stop-color="#FFA486"/>
        </linearGradient>
        <linearGradient id="paint3_linear_14729_26724" x1="52.5737" y1="75.6638" x2="32.8969" y2="76.1624" gradientUnits="userSpaceOnUse">
            <stop stop-color="#FFB886"/>
            <stop offset="1" stop-color="#FFA486"/>
        </linearGradient>
        <linearGradient id="paint4_linear_14729_26724" x1="49.6602" y1="83.9382" x2="44.5308" y2="83.6737" gradientUnits="userSpaceOnUse">
            <stop stop-color="#F29A81"/>
            <stop offset="1" stop-color="#FF9766"/>
        </linearGradient>
        <linearGradient id="paint5_linear_14729_26724" x1="48.9318" y1="83.8244" x2="44.7514" y2="86.0815" gradientUnits="userSpaceOnUse">
            <stop stop-color="#F29A81"/>
            <stop offset="1" stop-color="#FF9766"/>
        </linearGradient>
        <linearGradient id="paint6_linear_14729_26724" x1="36.2421" y1="94.5088" x2="47.9264" y2="94.5088" gradientUnits="userSpaceOnUse">
            <stop stop-color="#BE6888"/>
            <stop offset="1" stop-color="#8E81F4"/>
        </linearGradient>
        <linearGradient id="paint7_linear_14729_26724" x1="20.2655" y1="121.656" x2="36.3824" y2="118.606" gradientUnits="userSpaceOnUse">
            <stop stop-color="#FFB886"/>
            <stop offset="1" stop-color="#FFA486"/>
        </linearGradient>
        <linearGradient id="paint8_linear_14729_26724" x1="48.3947" y1="117.873" x2="35.5976" y2="117.873" gradientUnits="userSpaceOnUse">
            <stop stop-color="#FFB886"/>
            <stop offset="1" stop-color="#FFA486"/>
        </linearGradient>
        <linearGradient id="paint9_linear_14729_26724" x1="47.7263" y1="115.666" x2="42.9071" y2="115.666" gradientUnits="userSpaceOnUse">
            <stop stop-color="#FFB886"/>
            <stop offset="1" stop-color="#FFA486"/>
        </linearGradient>
        <linearGradient id="paint10_linear_14729_26724" x1="310.536" y1="-141.664" x2="269.037" y2="-60.0427" gradientUnits="userSpaceOnUse">
            <stop stop-color="#650E3D"/>
            <stop offset="1" stop-color="#F48279"/>
        </linearGradient>
        <linearGradient id="paint11_linear_14729_26724" x1="238.338" y1="117.853" x2="228.455" y2="112.003" gradientUnits="userSpaceOnUse">
            <stop stop-color="#650E3D"/>
            <stop offset="1" stop-color="#F48279"/>
        </linearGradient>
        <linearGradient id="paint12_linear_14729_26724" x1="247.591" y1="102.22" x2="237.708" y2="96.3705" gradientUnits="userSpaceOnUse">
            <stop stop-color="#650E3D"/>
            <stop offset="1" stop-color="#F48279"/>
        </linearGradient>
        <linearGradient id="paint13_linear_14729_26724" x1="223.608" y1="7.84439" x2="211.208" y2="32.2329" gradientUnits="userSpaceOnUse">
            <stop stop-color="#650E3D"/>
            <stop offset="1" stop-color="#F48279"/>
        </linearGradient>
        <clipPath id="clip0_14729_26724">
            <rect width="36" height="35" fill="white" transform="translate(81 196)"/>
        </clipPath>
    </defs>
</svg>
