<svg width="264" height="234" viewBox="0 0 264 234" fill="none" xmlns="http://www.w3.org/2000/svg">
    <path d="M263.867 231.392C264.044 231.376 264.044 230.632 263.867 230.616L259.513 230.244L250.804 229.567L242.096 228.942L233.388 228.37L215.972 228.399H128.893L59.2301 228L24.3986 228.399L15.6902 228.981L10.0468 229.603L1.33846 230.269L1.2511 230.277C0.91638 230.305 0.91638 231.707 1.2511 231.735L1.33846 231.743L10.0468 232.409L15.6902 233.031L24.3986 233.613H215.973L233.389 233.642L242.097 234L250.805 233.375L259.514 232.433L263.868 231.396L263.867 231.392Z" fill="#ECEDF1"/>
    <path d="M58.6563 25.0602C-9.93003 42.5449 -9.65037 158.787 35.5458 209.627C51.3501 227.406 126.561 215.115 153.672 222.338C218.23 239.532 238.503 215.475 252.795 178.341C271.798 128.967 266.475 66.3756 187.569 61.9936C129.895 58.7887 120.095 9.39845 58.6563 25.0602Z" fill="#F6F7F8" fill-opacity="0.6"/>
    <g clip-path="url(#clip0_14729_26596)">
        <path d="M228.504 85.3552L228.127 89.5715L240 89.1962V85.7501C240 85.7501 238.54 84.6837 233.775 84.6837C229.01 84.6837 228.504 85.3749 228.504 85.3749V85.3552Z" fill="#DCDEE0"/>
        <path d="M238.401 92.2967L229.447 92.1091L229.775 78.0087L238.729 78.1963L238.401 92.2967Z" fill="#F2AD6D"/>
        <path d="M233.219 87.172C239.404 87.5571 242.988 88.0311 242.988 88.0311L231.095 102.477L225.655 87.5275C225.655 87.5275 230.479 86.9943 233.209 87.172H233.219Z" fill="#F2AD6D"/>
        <path d="M227.174 223.436H221.177V214.905H227.174V223.436Z" fill="#F2AD6D"/>
        <path d="M242.988 223.436H237.597V214.905H242.988V223.436Z" fill="#F2AD6D"/>
        <path d="M220.244 216.84C220.244 203.846 219.093 189.913 218.815 179.506C218.199 156.114 218.696 140.799 218.696 140.552L231.581 140.286C231.581 140.523 229.914 156.696 228.692 179.98C228.067 191.799 229.646 197.339 228.107 216.831H220.244V216.84Z" fill="#2A3F51"/>
        <path d="M243.961 216.831H236.406C236.406 216.831 232.783 198.139 232.187 178.548C231.591 158.958 230.728 140.029 230.728 139.821L243.474 139.663C243.653 142.843 244.586 157.299 243.703 176.396C242.998 191.701 244.179 199.008 243.971 216.831H243.961Z" fill="#2A3F51"/>
        <path d="M218.586 135.309L218.944 146.131L243.216 146.753L243.633 135.309L218.586 134.628" fill="#2A3F51"/>
        <path d="M231.214 144.561L230.976 154.129L228.583 182.932L230.241 149.587L231.214 144.561Z" fill="#1C2C38"/>
        <path d="M231.214 144.551L231.7 134.914H231.472L230.996 144.067L230.251 143.406C229.824 143.021 229.586 142.527 229.586 142.023V134.924H229.358V142.023C229.358 142.606 229.616 143.159 230.102 143.584L231.204 144.571L231.214 144.551Z" fill="#1C2C38"/>
        <path d="M216.919 124.22C213.643 126.866 194.483 114.78 194.483 114.78C194.483 114.78 196.19 111.917 196.289 110.495C196.786 110.12 210.277 117.022 210.486 116.271C212.729 108.155 216.363 92.8694 216.452 92.6324C217.554 89.7294 220.83 88.268 223.739 89.3641C226.647 90.4601 228.127 93.6989 227.035 96.5821L221.823 112.371L216.919 124.2V124.22Z" fill="#547B9E"/>
        <path d="M211.661 124.46L211.046 124.588H194.974L190.264 100.241L206.951 99.9846L211.661 124.471V124.46Z" fill="#231F20"/>
        <path d="M206.123 100.337C206.123 100.337 207.099 99.9739 206.961 99.9739H190.264C190.126 99.9739 189.649 100.091 189.649 100.23C189.649 100.369 206.123 100.337 206.123 100.337Z" fill="#BCBEC0"/>
        <path d="M200.416 100.732H194.646L194.391 99.3975H195.887L195.515 97.9565H197.86L198.231 99.3975H200.162L200.416 100.732ZM196.428 98.7998C196.417 99.0132 196.619 99.1947 196.894 99.216C197.17 99.2374 197.404 99.0879 197.425 98.8745C197.435 98.661 197.234 98.4795 196.958 98.4582C196.682 98.4369 196.449 98.5863 196.428 98.7998Z" fill="#BCBEC0"/>
        <path d="M197.945 97.9459L198.316 99.3868L198.157 99.4295L197.786 97.9886L197.945 97.9459Z" fill="#808285"/>
        <path d="M200.247 99.3868L200.544 100.721L200.385 100.753L200.088 99.4189L200.257 99.3868H200.247Z" fill="#808285"/>
        <path d="M211.046 124.599H194.359L189.649 100.241H206.336L211.046 124.599Z" fill="#3A4C51"/>
        <path d="M216.909 124.21C217.643 112.648 217.643 96.4044 217.643 96.4044C217.643 96.4044 219.152 111.976 219.589 118.029C218.666 118.947 218.209 121.347 216.909 124.21Z" fill="#27537B"/>
        <path d="M254.732 97.0561C254.732 97.0561 247.594 110.87 246.601 117.308C245.817 122.472 245.053 128.989 245.033 132.791C245.41 133.443 245.807 134.213 245.758 134.47C245.678 134.943 245.321 135.546 244.646 136.277C226.23 139.199 218.497 135.2 218.497 135.2C218.497 135.2 217.415 133.867 217.872 133.196C218.1 132.86 218.447 132.001 218.696 131.705C219.093 123.529 219.4 120.616 218.725 113.961C218.09 107.671 217.852 103 217.802 99.6333C214.983 97.5399 215.628 96.0983 215.628 96.0983C216.005 92.9188 218.775 89.601 218.775 89.601C221.485 87.8829 225.903 87.488 228.474 87.1621L228.752 88.031C229.973 91.7832 234.738 92.9287 237.548 90.154L240.159 87.567C245.936 88.347 249.51 89.5912 249.51 89.5912C249.51 89.5912 254.057 93.9753 254.752 97.0561L254.732 97.0363V97.0561Z" fill="#547B9E"/>
        <path d="M218.745 130.836L218.705 131.715C218.705 131.715 221.753 133.186 225.317 133.186C225.317 133.186 220.284 131.922 218.745 130.836Z" fill="#355C7E"/>
        <path d="M245.033 132.169V132.801C245.033 132.801 242.69 132.909 240.407 131.942C240.407 131.942 243.752 132.445 245.033 132.169Z" fill="#355C7E"/>
        <path d="M238.6 79.3629V84.2112L229.576 86.9068L229.685 83.9347L238.6 79.3629Z" fill="#DE925B"/>
        <path d="M229.377 137.303C229.377 137.303 224.771 136.671 223.232 136.533C221.525 136.375 218.497 135.21 218.497 135.21L228.017 139.999C228.186 140.088 228.385 139.999 228.444 139.831L229.368 137.313L229.377 137.303Z" fill="white"/>
        <path d="M231.71 137.343C231.71 137.343 236.346 137.224 237.895 137.096C239.444 136.978 244.08 136.365 244.08 136.365L232.812 140.157C232.644 140.206 232.465 140.118 232.415 139.95L231.71 137.343Z" fill="white"/>
        <path d="M220.105 215.636C223.332 216.87 228.395 215.27 228.395 215.27C228.782 215.586 228.395 216.11 228.544 216.554C228.871 217.62 228.345 217.848 228.345 217.848C223.729 219.427 220.612 218.351 220.205 218.065C219.798 217.778 220.145 217.206 219.946 216.465C219.758 215.715 220.095 215.626 220.095 215.626L220.105 215.636Z" fill="#1C2C38"/>
        <path d="M244.278 214.954C244.676 215.261 244.318 215.804 244.467 216.238C244.834 217.295 244.308 217.532 244.308 217.532C239.752 219.26 236.605 218.292 236.178 218.015C235.761 217.749 236.088 217.166 235.87 216.426C235.652 215.695 235.989 215.586 235.989 215.586C239.265 216.712 244.269 214.945 244.269 214.945L244.278 214.954Z" fill="#1C2C38"/>
        <path d="M229.238 231H206.733V229.312H229.238V231Z" fill="#8099A8"/>
        <path d="M206.872 229.312H229.288C229.487 225.085 228.305 221.866 227.591 221.777C226.876 221.679 226.826 222.923 224.791 223.189C222.756 223.456 221.078 221.886 220.622 221.452C220.145 221.017 219.649 221.452 219.649 221.452L213.295 225.905C205.82 225.283 206.862 229.321 206.862 229.321L206.872 229.312Z" fill="#CCDDE5"/>
        <path d="M213.92 229.312H206.862C206.862 229.312 205.82 225.293 213.295 225.905C213.295 225.905 213.92 226.774 213.92 229.312Z" fill="#B2C8D1"/>
        <path d="M216.005 226.33C216.005 226.33 216.105 226.31 216.144 226.29C216.273 226.211 216.313 226.043 216.234 225.925C215.678 225.036 214.943 224.611 214.903 224.592C214.774 224.513 214.605 224.552 214.536 224.69C214.457 224.819 214.496 224.987 214.635 225.056C214.635 225.056 215.281 225.441 215.777 226.211C215.827 226.29 215.916 226.33 216.005 226.33Z" fill="#395C7C"/>
        <path d="M217.097 225.569C217.097 225.569 217.197 225.549 217.236 225.53C217.365 225.451 217.405 225.283 217.326 225.164C216.77 224.276 216.035 223.851 215.995 223.831C215.866 223.752 215.697 223.792 215.628 223.93C215.549 224.058 215.588 224.226 215.727 224.295C215.727 224.295 216.373 224.68 216.869 225.451C216.919 225.53 217.008 225.569 217.097 225.569Z" fill="#395C7C"/>
        <path d="M218.179 224.799C218.179 224.799 218.279 224.779 218.318 224.76C218.437 224.681 218.487 224.513 218.408 224.394C217.852 223.505 217.117 223.081 217.077 223.061C216.948 222.982 216.78 223.022 216.71 223.16C216.631 223.288 216.67 223.456 216.809 223.525C216.809 223.525 217.455 223.91 217.951 224.681C218.001 224.76 218.09 224.799 218.179 224.799Z" fill="#395C7C"/>
        <path d="M219.281 224.039C219.281 224.039 219.381 224.019 219.42 223.999C219.539 223.92 219.589 223.752 219.51 223.634C218.954 222.745 218.219 222.321 218.179 222.301C218.05 222.222 217.882 222.261 217.812 222.4C217.733 222.528 217.772 222.696 217.911 222.765C217.911 222.765 218.557 223.15 219.053 223.92C219.103 223.999 219.192 224.039 219.281 224.039Z" fill="#395C7C"/>
        <path d="M245.41 231H226.945V229.312H245.41V231Z" fill="#A3B6C4"/>
        <path d="M226.965 229.321H245.44C245.609 224.671 243.951 221.699 243.355 221.59C242.76 221.491 242.73 222.745 241.042 223.012C239.374 223.278 239.235 221.748 238.312 221.225C237.081 220.514 236.138 221.225 236.138 221.225L230.906 225.796C226.588 225.885 226.975 229.302 226.975 229.302L226.965 229.321Z" fill="#CCDDE5"/>
        <path d="M234.232 229.321H226.975C226.975 229.321 226.578 225.915 230.906 225.836C230.906 225.836 234.232 225.944 234.232 229.321Z" fill="#B2C8D1"/>
        <path d="M234.222 226.339C234.282 226.339 234.351 226.32 234.411 226.27C234.52 226.162 234.52 226.004 234.411 225.885C233.289 224.71 231.77 224.671 231.71 224.671C231.561 224.671 231.432 224.789 231.432 224.937C231.432 225.085 231.552 225.214 231.7 225.214C231.72 225.214 233.061 225.243 234.014 226.251C234.063 226.31 234.143 226.339 234.212 226.339H234.222Z" fill="#395C7C"/>
        <path d="M235.294 225.411C235.354 225.411 235.423 225.411 235.483 225.362C235.592 225.253 235.592 225.105 235.483 224.996C234.361 223.812 232.842 223.831 232.783 223.831C232.634 223.831 232.515 223.91 232.515 224.058C232.515 224.207 232.634 224.286 232.783 224.286C232.802 224.286 234.143 224.315 235.096 225.322C235.145 225.382 235.225 225.411 235.294 225.411Z" fill="#395C7C"/>
        <path d="M236.386 224.453C236.446 224.453 236.515 224.424 236.575 224.374C236.684 224.266 236.684 224.098 236.575 223.979C235.453 222.795 233.934 222.765 233.875 222.765C233.726 222.765 233.607 222.893 233.607 223.041C233.607 223.189 233.726 223.318 233.875 223.318C233.894 223.318 235.235 223.347 236.188 224.355C236.237 224.414 236.317 224.444 236.386 224.444V224.453Z" fill="#395C7C"/>
        <path d="M237.667 223.446C237.776 223.347 237.776 223.199 237.667 223.091C236.545 221.906 235.026 221.926 234.967 221.926C234.818 221.926 234.699 222.005 234.699 222.153C234.699 222.301 234.818 222.38 234.967 222.38C234.986 222.38 236.327 222.409 237.28 223.417C237.329 223.476 237.409 223.505 237.478 223.505C237.538 223.505 237.607 223.505 237.667 223.456V223.446Z" fill="#395C7C"/>
        <path d="M232.594 89.0679L230.033 93.2842C226.856 89.8479 226.508 87.409 226.508 87.409L228.504 85.3552C231.125 89.0383 232.594 89.058 232.594 89.058V89.0679Z" fill="white"/>
        <path d="M232.604 89.058L231.363 91.1019C231.998 91.4475 232.802 91.5957 232.802 91.5957L232.604 89.058Z" fill="#DCDEE0"/>
        <path d="M240 85.7501C236.734 88.8704 235.006 89.1962 235.006 89.1962L236.734 93.8174C240.506 91.0229 241.548 87.4386 241.548 87.4386L240.01 85.7402L240 85.7501Z" fill="white"/>
        <path d="M235.006 89.1962L235.8 91.329C235.106 91.6845 234.321 91.6845 234.321 91.6845L235.006 89.1863V89.1962Z" fill="#DCDEE0"/>
        <path d="M222.178 60.1073L224.611 57.8439L225.335 57.4267C226.352 56.8426 227.474 56.4671 228.638 56.3524L232.151 55.9873C233.724 55.8204 235.307 56.1125 236.723 56.8113L237.121 57.0095C240.446 58.6679 242.459 62.1516 242.218 65.8335L241.61 74.887C241.421 77.797 240.246 79.0486 237.3 81.9378L231.731 85.9639C231.375 86.1829 229.823 86.6106 229.414 86.5897L227.694 86.694C226.908 86.6627 226.268 86.0265 225.576 85.3589L224.15 83.4815C223.458 82.1569 223.017 80.7175 222.849 79.2364C222.514 76.295 221.969 71.0382 221.581 67.325C221.308 64.5714 220.847 62.4958 222.178 60.076V60.0968V60.1073Z" fill="#F2AD6D"/>
        <path d="M222.786 58.0004C218.844 59.1685 218.959 65.0304 221.727 70.2976C223.772 64.3107 226.352 56.9469 222.786 58.0004Z" fill="#231F20"/>
        <path d="M231.574 79.4762L234.196 76.8895L225.23 78.0994L225.964 80.0812C226.247 80.8322 227.107 81.2911 228.03 81.1659H228.103C229.445 80.9678 230.683 80.3837 231.595 79.4762H231.574Z" fill="white"/>
        <path d="M223.657 77.1503C223.646 76.8478 223.888 76.5975 224.192 76.5766C225.786 76.4411 227.327 75.8674 229.11 75.5962C231.469 75.2311 233.399 75.2729 235.181 74.9704C235.517 74.9182 235.821 75.1686 235.821 75.5128C235.821 76.3159 235.8 77.7866 235.716 79.2989C235.548 82.3759 234.311 84.0969 234.311 84.0969L232.874 85.2546C232.644 85.4215 231.627 86.0056 231.354 86.1203C229.498 86.8505 227.715 86.6836 227.715 86.6836C226.625 86.5688 226.32 86.1099 225.45 85.1608L224.863 84.3993C223.877 80.9574 223.678 78.2664 223.657 77.1399H223.667L223.657 77.1503ZM234.584 76.7331C234.615 76.5975 234.51 76.4515 234.363 76.4723C229.561 76.973 224.8 77.3798 224.884 77.9952C224.968 78.6105 225.597 82.1047 226.446 83.1373C227.149 84.0343 228.69 83.8883 228.69 83.8883C230.043 83.6692 231.239 83.106 231.239 83.106C233.514 81.6875 233.65 80.8531 234.584 76.7331Z" fill="#231F20"/>
        <path d="M228.344 84.3472L229.875 84.222C230.033 84.2012 230.158 84.076 230.169 83.9091L230.242 81.6353C229.624 81.7813 228.334 82.4072 227.285 82.0212L227.998 84.0969C228.03 84.2637 228.187 84.368 228.344 84.3472Z" fill="#231F20"/>
        <path d="M240.949 68.0343C241.41 67.9404 241.893 67.9717 242.344 68.1177L242.837 68.2741C242.837 68.2741 243.204 67.1998 244.022 63.7161C245.427 57.7709 243.057 54.7774 239.827 55.4658C239.827 55.4658 239.638 54.3289 237.541 52.8269C235.8 51.5857 231.899 50.8765 228.229 52.4932C226.352 53.3171 227.212 51.2937 225.565 52.0446C220.742 54.2246 220.249 60.8374 223.762 62.9339C226.121 64.3419 229.823 62.8191 233.21 61.192C236.608 59.5649 239.04 59.7735 238.642 61.6196C238.212 63.591 237.646 64.6653 238.715 65.1764C239.785 65.6666 240.194 64.9156 240.163 68.1803L240.949 68.0238V68.0343Z" fill="#231F20"/>
        <path d="M243.371 70.1412C243.287 68.9522 243.067 67.8883 241.872 67.9717L241.337 67.9404C240.435 68.003 240.54 74.0526 241.043 74.0108C242.365 73.9378 243.518 72.2794 243.371 70.1412Z" fill="#F2AD6D"/>
        <path opacity="0.2" d="M242.144 63.81L242.302 65.6457L241.631 74.8869C241.442 77.797 240.225 79.0591 237.321 81.9378L231.752 85.9639C231.396 86.1829 229.844 86.6106 229.435 86.5897L227.715 86.694C226.855 86.5689 226.32 86.1203 225.45 85.1712L224.16 83.5024C223.542 82.209 223.458 81.9795 223.101 80.6236C222.881 79.81 222.713 77.8491 222.713 77.8491L222.587 76.7644C224.192 76.7853 230.494 75.0956 236.555 74.9391C237.656 74.7826 237.939 74.5845 238.369 74.3029C239.124 73.7918 239.366 73.2181 239.691 71.9665C240.257 69.9639 240.173 68.9626 240.183 67.5127V64.1438L242.155 63.8204L242.144 63.81ZM230.158 83.6379C230.609 83.4606 230.955 83.2729 230.955 83.2729C232.885 81.9587 235.003 80.1334 235.192 76.2012C230.284 76.7122 224.328 77.265 224.412 77.9013C224.496 78.5271 225.156 82.3863 225.995 83.4085C226.247 83.8465 226.803 84.1386 227.086 84.2638L227.589 84.2429L229.099 83.9926C229.676 83.857 229.77 83.7944 230.158 83.6379Z" fill="black"/>
        <g opacity="0.7">
            <path d="M251.744 104.886C251.744 104.886 247.068 111.65 246.284 119.461C245.996 122.304 245.033 130.846 245.033 130.846L221.704 108.382L236.992 119.935C238.63 121.169 240.983 120.655 241.946 118.849L249.083 104.886H251.744Z" fill="#27537B"/>
            <path d="M235.135 109.132L237.707 110.495L244.874 96.3945L235.125 109.132H235.135Z" fill="#27537B"/>
        </g>
        <path d="M218.809 97.3411L209.801 108.588L209.15 110.495L210.749 109.358L219.757 98.1108L218.809 97.3411Z" fill="#2C2C2F"/>
        <path d="M223.479 105.624L217.108 101.396L210.623 104.958L209.915 107.416L210.372 107.864L212.005 106.75L211.548 108.335L216.286 109.392L219.357 108.048L222.12 108.979L223.479 105.613V105.624Z" fill="#F2AD6D"/>
        <path d="M213.877 103.51L215.727 101.178L212.815 102.511L210.623 104.969L213.877 103.51Z" fill="#F2AD6D"/>
        <path d="M219.564 97.9614L218.981 97.4904L219.495 96.8585L220.078 97.3295L219.564 97.9614Z" fill="#DB3535"/>
        <path d="M209.801 108.588L210.749 109.358L210.452 109.634L210.064 109.841L209.527 109.393L209.607 109.013L209.801 108.588Z" fill="#DB3535"/>
        <path d="M223.838 105.084L222.18 104.304C222.21 105.508 220.205 108.51 220.205 108.51L221.565 109.142C222.686 108.056 223.848 105.084 223.848 105.084H223.838Z" fill="white"/>
        <path d="M241.568 87.7348L245.39 95.0121L238.044 109.014L223.481 104.788L221.356 109.241L236.972 120.428L238.014 121.228C239.881 122.67 242.611 122.087 243.713 120.004L254.315 100.028C255.884 95.8613 254.96 90.9834 249.332 89.5912L241.568 87.7348Z" fill="#547B9E"/>
        <path d="M195.098 117.476L196.587 117.506C196.915 117.506 197.153 117.2 197.054 116.893L196.488 115.027C195.833 112.865 193.996 111.255 191.743 110.88C191.614 109.626 190.611 108.629 189.34 108.51C188.645 108.441 188.03 108.964 188 109.656V109.754C187.97 110.327 188.318 110.841 188.854 111.038L189.797 111.374L191.951 115.807L195.098 117.486V117.476Z" fill="#F2AD6D"/>
    </g>
    <path d="M165.5 51.9632L165.077 51.6968L165.041 51.7541L165.021 51.8189L165.5 51.9632ZM182.5 51.9632L182.997 51.908L182.984 51.794L182.923 51.6968L182.5 51.9632ZM174.5 62.4633L174.418 61.9701L174.387 61.9753L174.356 61.9843L174.5 62.4633ZM153.5 55.4633L153.836 55.0933L153.807 55.0666L153.774 55.0449L153.5 55.4633ZM118 72.4633L121.983 68.2839L116.372 66.924L118 72.4633ZM119.67 68.2308C119.986 67.2446 120.323 66.3108 120.677 65.4273L119.749 65.0551C119.385 65.9617 119.041 66.9177 118.718 67.9253L119.67 68.2308ZM121.903 62.7024C122.369 61.7791 122.857 60.9234 123.365 60.1314L122.524 59.5914C121.996 60.4138 121.491 61.2996 121.01 62.252L121.903 62.7024ZM125.113 57.7405C125.773 56.9507 126.456 56.2465 127.159 55.6211L126.495 54.874C125.754 55.5332 125.036 56.2731 124.346 57.0995L125.113 57.7405ZM129.504 53.8584C130.355 53.3249 131.227 52.8853 132.112 52.5298L131.739 51.6019C130.8 51.9791 129.875 52.4455 128.973 53.0109L129.504 53.8584ZM134.916 51.681C135.883 51.4775 136.858 51.3584 137.833 51.3127L137.786 50.3138C136.761 50.3619 135.733 50.4873 134.71 50.7025L134.916 51.681ZM140.781 51.3876C141.768 51.4811 142.745 51.6397 143.703 51.8512L143.918 50.8747C142.924 50.655 141.906 50.4897 140.875 50.3921L140.781 51.3876ZM146.561 52.651C147.519 52.975 148.443 53.344 149.322 53.7432L149.736 52.8326C148.828 52.4204 147.873 52.039 146.882 51.7037L146.561 52.651ZM151.967 55.1056C152.407 55.3607 152.827 55.6203 153.226 55.8816L153.774 55.0449C153.36 54.7737 152.924 54.5047 152.469 54.2408L151.967 55.1056ZM153.164 55.8332C153.531 56.1669 153.898 56.4869 154.265 56.7938L154.906 56.0266C154.55 55.7286 154.193 55.4177 153.836 55.0933L153.164 55.8332ZM156.582 58.5649C157.414 59.1436 158.241 59.6591 159.058 60.1171L159.547 59.2449C158.758 58.8026 157.959 58.3042 157.153 57.7439L156.582 58.5649ZM161.682 61.4152C162.623 61.8201 163.542 62.1521 164.431 62.4212L164.721 61.4641C163.867 61.2057 162.983 60.8865 162.077 60.4966L161.682 61.4152ZM167.286 63.1003C168.331 63.2811 169.312 63.3763 170.214 63.4066L170.248 62.4071C169.392 62.3784 168.456 62.2879 167.457 62.1149L167.286 63.1003ZM173.17 63.2587C173.729 63.1771 174.224 63.0682 174.644 62.9422L174.356 61.9843C173.99 62.0944 173.543 62.1936 173.026 62.2693L173.17 63.2587ZM174.582 62.9565C175.246 62.8458 175.863 62.6929 176.436 62.5031L176.122 61.5538C175.6 61.7266 175.033 61.8675 174.418 61.9701L174.582 62.9565ZM179.781 60.6224C180.821 59.7099 181.557 58.6332 182.063 57.5295L181.154 57.1125C180.699 58.1059 180.042 59.0629 179.121 59.8707L179.781 60.6224ZM183.014 53.8311C183.073 53.1211 183.059 52.465 182.997 51.908L182.003 52.0185C182.058 52.5084 182.071 53.1002 182.018 53.7496L183.014 53.8311ZM182.923 51.6968C182.667 51.2898 182.409 50.9058 182.151 50.544L181.337 51.1255C181.584 51.4705 181.831 51.8382 182.077 52.2296L182.923 51.6968ZM180.37 48.4079C179.641 47.6703 178.905 47.0875 178.168 46.6433L177.652 47.4998C178.309 47.8962 178.981 48.4252 179.659 49.1112L180.37 48.4079ZM175.489 45.6103C174.493 45.432 173.525 45.4781 172.603 45.6892L172.826 46.664C173.628 46.4803 174.46 46.4421 175.312 46.5946L175.489 45.6103ZM169.966 46.7723C169.156 47.2543 168.407 47.8408 167.731 48.4743L168.415 49.2037C169.047 48.611 169.74 48.0707 170.478 47.6317L169.966 46.7723ZM165.87 50.5512C165.578 50.9377 165.312 51.3229 165.077 51.6968L165.923 52.2296C166.143 51.88 166.392 51.5183 166.668 51.1544L165.87 50.5512ZM165.021 51.8189C164.875 52.303 164.736 52.7843 164.604 53.2628L165.568 53.5289C165.698 53.058 165.835 52.5843 165.979 52.1076L165.021 51.8189ZM163.881 56.1585C163.659 57.1499 163.468 58.1284 163.307 59.0938L164.293 59.259C164.452 58.3116 164.639 57.3507 164.857 56.3764L163.881 56.1585ZM162.897 62.0623C162.787 63.0716 162.711 64.0656 162.666 65.0441L163.665 65.0897C163.709 64.1324 163.784 63.1591 163.891 62.17L162.897 62.0623ZM162.628 68.0441C162.65 69.0601 162.707 70.0577 162.797 71.0367L163.793 70.9445C163.705 69.9894 163.649 69.0154 163.628 68.0229L162.628 68.0441ZM163.186 74.0145C163.355 75.0147 163.561 75.9933 163.802 76.9502L164.771 76.7062C164.537 75.775 164.337 74.8221 164.172 73.8477L163.186 74.0145ZM164.654 79.8346C164.98 80.7931 165.343 81.7271 165.741 82.636L166.657 82.2353C166.271 81.352 165.918 80.4442 165.6 79.5121L164.654 79.8346ZM167.06 85.3352C167.542 86.2226 168.058 87.0827 168.606 87.915L169.441 87.3648C168.908 86.556 168.407 85.7204 167.939 84.8582L167.06 85.3352ZM170.365 90.3528C170.987 91.1424 171.64 91.9029 172.321 92.6337L173.053 91.9517C172.39 91.2409 171.755 90.5016 171.151 89.734L170.365 90.3528ZM174.458 94.7454C175.199 95.4205 175.966 96.065 176.757 96.6787L177.37 95.8887C176.6 95.2909 175.853 94.6633 175.132 94.0063L174.458 94.7454ZM179.198 98.4265C180.032 98.9771 180.888 99.4966 181.763 99.9845L182.25 99.1112C181.397 98.6352 180.562 98.1286 179.749 97.5918L179.198 98.4265ZM184.434 101.35C184.887 101.561 185.344 101.765 185.805 101.96L186.195 101.04C185.745 100.849 185.299 100.65 184.857 100.444L184.434 101.35Z" fill="#B4BAC8"/>
    <path d="M20.0261 202.605V203.066L20.0283 205.566L20.0462 226.982L20.0476 228.498L78.6464 228.45L78.6399 220.629L78.6342 213.853L78.6248 203.162V202.557H78.2039H77.5053L75.6364 202.559L74.6847 202.56L72.7964 202.561L71.1598 202.562L64.1903 202.568L61.9721 202.57L58.6279 202.573L51.0467 202.58L49.9753 202.58L48.3214 202.582L46.4217 202.583L40.8672 202.588L37.9461 202.59H37.7231L33.2379 202.595L30.5227 202.597L28.1668 202.598L24.9653 202.6L20.0261 202.605Z" fill="#75CB68"/>
    <path d="M24.4582 205.015L30.0937 205.009H30.4437L32.6282 205.008L35.5127 205.005H36.0018L37.7001 205.003L39.3395 205.002L42.409 204.999H42.8924L48.0754 204.995H48.5982L51.4927 204.992H52.3992L54.2194 204.989H54.6239L55.1768 204.988H55.3274H55.8502H56.4197L59.0524 204.985H59.8865L61.3689 204.983H62.6275L65.4259 204.98H65.4596L68.0235 204.978H68.5607H68.8346L70.099 204.976L73.6225 204.974L74.5756 204.972H75.1788L75.4025 204.971V205.924L75.4061 208.441V208.597L75.4075 210.156V211.813L75.409 212.232L75.4104 214.581V215.105V215.362L75.414 219.197V219.813L75.4161 221.982V223.103L75.4176 223.45L75.419 225.199V226.038H75.0002H73.9352L71.5786 226.041L68.5772 226.043L61.9433 226.048L30.1117 226.075L25.298 226.079L23.2698 226.081L23.2641 219.24L23.2576 211.856L23.2533 206.982L23.2519 205.014H24.4575L24.4582 205.015ZM25.4995 212.37L25.5045 218.723C27.2164 218.721 28.7325 219.561 29.662 220.85C30.268 221.69 30.6244 222.72 30.6259 223.835L61.5317 223.809H62.1886L66.293 223.805H67.4347L68.0587 223.804C68.0587 223.407 68.1039 223.021 68.1892 222.651C68.2674 222.303 68.3828 221.97 68.5299 221.653C68.6238 221.451 68.7307 221.256 68.8483 221.07C69.128 220.626 69.4736 220.23 69.8724 219.894C70.0933 219.706 70.3314 219.536 70.5824 219.389C70.7086 219.314 70.8377 219.245 70.9704 219.181C71.6366 218.862 72.3839 218.683 73.1714 218.683V218.163L73.1692 216.057V215.626L73.1671 213.734V213.154L73.1657 212.33C72.8702 212.33 72.5812 212.305 72.3 212.258C72.0132 212.209 71.7342 212.137 71.4652 212.043C71.1891 211.946 70.9231 211.825 70.6706 211.684C70.3658 211.514 70.0797 211.313 69.8172 211.086C69.5504 210.855 69.308 210.597 69.0935 210.317C68.7902 209.92 68.5435 209.478 68.3663 209.002C68.3606 208.985 68.3549 208.97 68.3491 208.953C68.1526 208.413 68.0458 207.828 68.045 207.219H67.1414H66.7412H66.663L63.9428 207.222L61.3431 207.224L59.9281 207.225H59.051L58.1395 207.227H56.9138L55.7455 207.228H54.6891L53.1917 207.23L52.0908 207.232L49.7328 207.233L46.5514 207.236L41.8432 207.24H41.0908L41.0198 207.241L39.6558 207.242L36.7713 207.245H35.5328L30.6122 207.25C30.6122 207.405 30.6051 207.559 30.5914 207.711C30.5219 208.505 30.2702 209.247 29.8779 209.895C28.9828 211.377 27.3577 212.369 25.4995 212.37Z" fill="#339A33"/>
    <path d="M49.3361 222.831C45.6351 222.831 42.6348 219.561 42.6348 215.527C42.6348 211.493 45.6351 208.223 49.3361 208.223C53.0371 208.223 56.0374 211.493 56.0374 215.527C56.0374 219.561 53.0371 222.831 49.3361 222.831Z" fill="#339A33"/>
    <path d="M64.053 218.083C62.7523 218.083 61.6978 216.933 61.6978 215.515C61.6978 214.098 62.7523 212.948 64.053 212.948C65.3537 212.948 66.4082 214.098 66.4082 215.515C66.4082 216.933 65.3537 218.083 64.053 218.083Z" fill="#339A33"/>
    <path d="M34.6185 218.107C33.3178 218.107 32.2633 216.957 32.2633 215.54C32.2633 214.122 33.3178 212.972 34.6185 212.972C35.9192 212.972 36.9737 214.122 36.9737 215.54C36.9737 216.957 35.9192 218.107 34.6185 218.107Z" fill="#339A33"/>
    <path opacity="0.3" d="M12.7985 199.889L20.0262 203.066L20.0283 205.565L23.2549 206.984L29.8787 209.895L42.635 215.503L45.711 216.855L48.0762 217.894L48.7941 218.21L51.495 219.397L54.1779 220.577L61.5325 223.81L65.5214 225.564L66.2938 223.806L68.6691 218.404L71.3965 212.201L71.4661 212.043L74.575 204.973L75.6364 202.558L75.7002 202.413L75.9434 201.86L75.559 201.691L75.1459 201.509L74.9192 201.409L70.6083 199.515L60.6992 195.159L57.6383 193.813L50.6982 190.761L48.2031 189.666L38.7049 185.489L34.3947 183.595L29.7525 181.555L22.3003 178.278L12.7985 199.889Z" fill="black"/>
    <path d="M12 199.538L12.7982 199.889L20.0259 203.066L24.458 205.015L30.5913 207.711L42.9941 213.162L46.8517 214.858L49.8818 216.19L52.5131 217.347L52.9125 217.523L55.4083 218.62L65.6431 223.119L68.7915 215.96L70.6712 211.684L71.5189 209.757L73.6216 204.974L74.6845 202.559L75.1456 201.509L75.8226 199.97L76.0657 199.415L75.6806 199.246L75.0416 198.965L72.4576 197.829L70.7307 197.07L69.2325 196.411L62.8518 193.607L60.8208 192.714L57.7606 191.368L50.8198 188.317L49.8387 187.886L48.3255 187.221L46.5864 186.457L41.5023 184.221L38.8266 183.045L38.6236 182.956L34.5171 181.151L32.0314 180.058L29.8748 179.11L26.943 177.821L22.422 175.834L22.2362 176.257L21.2128 178.585L12.6103 198.15L12 199.538Z" fill="#75CB68"/>
    <path d="M18.6768 192.365L21.6494 185.605L23.593 181.185L24.4034 179.342L25.5064 179.827L30.6657 182.095L30.9856 182.235L32.9858 183.115L35.6264 184.275L36.0746 184.472L37.628 185.155L39.1276 185.814L41.9389 187.05L42.3814 187.245L47.1248 189.331L47.6039 189.541L50.2538 190.706L51.0843 191.071L52.7503 191.804L53.1211 191.966L53.6267 192.189L53.7658 192.25L54.2442 192.46L54.7649 192.689L57.1753 193.749L57.9391 194.085L59.2959 194.682L60.4477 195.189L63.0102 196.315L63.0403 196.327L65.389 197.359L65.8796 197.576L66.1306 197.686L67.2888 198.195L70.5147 199.613L71.939 200.239L72.1434 200.329L71.7597 201.201L71.1608 202.564L70.747 203.506L70.6839 203.649L70.0987 204.979L70.0564 205.075L69.3894 206.592L69.2209 206.976L68.3502 208.956L68.2757 209.127L68.0648 209.607L67.9615 209.841L66.4182 213.352L66.17 213.917L66.0596 214.168L65.2972 215.901L64.8461 216.928L64.7063 217.246L64.3463 218.065L64.0027 218.846L63.665 219.615L63.2806 219.446L62.3052 219.017L60.1479 218.069L57.4005 216.861L56.0063 216.248L52.2727 214.606L51.3282 214.192L50.2388 213.714L48.121 212.782L46.3933 212.023L44.0768 211.004L35.5346 207.249L30.4455 205.012L24.9671 202.603L22.1887 201.382L17.7824 199.445L15.9257 198.629L18.6796 192.366L18.6768 192.365ZM23.882 196.417C24.0979 197.43 24.0089 198.517 23.56 199.537L30.5216 202.596L36 205.004L41.0891 207.242L45.8067 209.316L48.7578 210.613L51.7585 211.932L51.9916 212.035L52.4541 212.238L55.34 213.506L55.8299 213.722L57.257 214.35L57.8286 214.601C57.9878 214.238 58.1851 213.904 58.4131 213.599C58.6254 213.313 58.8649 213.054 59.1267 212.824C59.2938 212.676 59.4695 212.541 59.6538 212.418C60.0877 212.126 60.5639 211.901 61.0645 211.754C61.3428 211.672 61.6282 211.613 61.9186 211.579C62.0635 211.562 62.2098 211.551 62.3568 211.546C63.0955 211.524 63.8507 211.661 64.5722 211.977L64.7816 211.502L65.6293 209.574L65.8028 209.179L66.5638 207.447L66.6627 207.222L66.7976 206.916L67.1289 206.163C66.8585 206.043 66.6039 205.904 66.3658 205.747C66.0302 205.526 65.7261 205.268 65.4579 204.983C65.3324 204.849 65.2148 204.709 65.105 204.564C64.8942 204.285 64.7135 203.987 64.5657 203.673C64.4151 203.354 64.2968 203.021 64.2136 202.678C64.205 202.642 64.1971 202.606 64.1892 202.571C64.0902 202.119 64.0508 201.651 64.0788 201.181C64.0788 201.164 64.0809 201.147 64.0824 201.13C64.1211 200.556 64.2588 199.978 64.5033 199.42L63.6772 199.056L63.3107 198.895L63.2397 198.863L60.7489 197.768L58.3686 196.722L57.0734 196.153L56.2709 195.8L55.4361 195.433L54.3145 194.941L53.2452 194.47L52.277 194.045L50.9072 193.442L49.8988 192.999L47.7402 192.05L44.8284 190.77L40.5182 188.875L39.829 188.574L39.7645 188.545L38.5159 187.996L35.8753 186.835L34.74 186.335L30.2369 184.356C30.1745 184.498 30.1056 184.636 30.0325 184.769C29.6416 185.481 29.0987 186.067 28.4647 186.505C27.0519 187.48 25.1808 187.722 23.4933 186.98L20.9366 192.796C22.5036 193.485 23.5521 194.864 23.8827 196.419L23.882 196.417Z" fill="#339A33"/>
    <path d="M41.0939 206.17C37.7058 204.681 36.2754 200.48 37.899 196.786C39.5226 193.093 43.5853 191.307 46.9734 192.796C50.3615 194.285 51.7919 198.486 50.1683 202.179C48.5447 205.872 44.482 207.659 41.0939 206.17Z" fill="#339A33"/>
    <path d="M56.4729 207.753C55.2821 207.229 54.7794 205.753 55.35 204.455C55.9206 203.157 57.3485 202.529 58.5393 203.052C59.7301 203.576 60.2328 205.052 59.6621 206.35C59.0915 207.648 57.6636 208.276 56.4729 207.753Z" fill="#339A33"/>
    <path d="M29.5273 195.911C28.3365 195.387 27.8338 193.911 28.4045 192.613C28.9751 191.315 30.403 190.687 31.5937 191.21C32.7845 191.734 33.2872 193.21 32.7166 194.508C32.146 195.806 30.7181 196.434 29.5273 195.911Z" fill="#339A33"/>
    <path opacity="0.3" d="M22.2364 176.257L21.213 178.585L23.5933 181.185L28.465 186.503L37.8923 196.794L40.1614 199.271L41.9959 201.274L42.2971 201.603L42.2986 201.604L44.3963 203.894L46.3886 206.069L51.7595 211.933L54.1778 214.572L55.3403 213.507L55.8947 213L61.6629 207.717L65.1061 204.562L66.6595 203.14L70.5135 199.611L72.4578 197.829L73.2747 197.082L72.9907 196.772L72.5188 196.257L69.3381 192.785L62.0265 184.803L59.7681 182.338L54.6475 176.748L52.8066 174.738L45.7984 167.088L42.6184 163.617L39.1932 159.877L33.6946 153.875L17.4335 168.767L16.3147 169.792L22.2364 176.257Z" fill="black"/>
    <path d="M16.3148 169.792L22.2365 176.256L25.5068 179.826L30.0322 184.767L39.1826 194.755L42.029 197.863L44.2652 200.304L46.2044 202.421L46.502 202.745L48.343 204.755L55.8948 212.999L61.663 207.716L65.1062 204.562L66.6596 203.14L70.5137 199.61L72.4579 197.829L73.2748 197.082L74.5449 195.919L74.991 195.51L74.7077 195.199L74.2358 194.684L72.3295 192.603L71.0544 191.212L69.9492 190.005L65.2417 184.866L63.7428 183.231L61.4852 180.766L56.3646 175.175L55.6402 174.385L54.5236 173.166L53.2406 171.765L49.4883 167.669L47.5154 165.516L47.3648 165.352L44.3354 162.044L42.5016 160.042L40.9095 158.305L38.7472 155.943L35.4109 152.302L35.071 152.614L33.6948 153.874L33.3512 154.188L17.4336 168.767L16.3148 169.792Z" fill="#75CB68"/>
    <path d="M25.3182 165.919L30.7637 160.931L34.4808 157.527L35.809 156.311L36.623 157.199L40.4297 161.355L40.6657 161.612L42.1416 163.223L44.0894 165.35L44.4208 165.712L45.5675 166.963L46.6741 168.171L48.7482 170.435L49.0745 170.792L52.5743 174.612L52.9279 174.998L54.8829 177.132L55.4961 177.801L56.7246 179.144L56.9978 179.441L57.3715 179.85L57.4726 179.96L57.8254 180.346L58.2106 180.766L59.9899 182.707L60.5521 183.322L61.554 184.415L62.4039 185.343L64.2936 187.407L64.3166 187.431L66.0493 189.322L66.4107 189.718L66.5957 189.92L67.4499 190.853L69.8295 193.451L70.8808 194.599L71.0322 194.764L70.3293 195.407L69.2313 196.413L68.4733 197.108L68.3578 197.213L67.2864 198.194L67.2082 198.265L65.9861 199.384L65.677 199.668L64.0813 201.129L63.9444 201.254L63.5578 201.608L63.3685 201.781L60.5399 204.371L60.0852 204.787L59.8823 204.972L58.4859 206.251L57.6591 207.009L57.403 207.243L56.7425 207.848L56.1135 208.424L55.4939 208.991L55.2106 208.682L54.4913 207.896L52.8999 206.158L50.8725 203.945L49.844 202.823L47.0887 199.815L46.3916 199.055L45.5876 198.177L44.0249 196.471L42.7498 195.079L41.04 193.213L34.7361 186.331L30.9824 182.232L26.9397 177.819L24.89 175.582L21.6391 172.032L20.2693 170.537L25.3146 165.916L25.3182 165.919ZM32.0316 180.058L36.0743 184.471L39.8287 188.57L43.3092 192.37L45.4865 194.747L47.8718 197.351L48.0253 197.519L48.2132 197.724L50.3425 200.049L50.7039 200.443L51.7574 201.592L52.1784 202.052C52.471 201.785 52.7859 201.558 53.1172 201.371C53.427 201.195 53.7512 201.055 54.0832 200.949C54.2955 200.881 54.5114 200.83 54.7294 200.79C55.245 200.698 55.7707 200.685 56.2878 200.752C56.5761 200.788 56.8608 200.85 57.1398 200.936C57.2797 200.979 57.4181 201.027 57.5543 201.083C58.2392 201.359 58.8747 201.789 59.4075 202.371L59.7912 202.019L61.3439 200.596L61.6616 200.305L63.0565 199.027L63.2379 198.861L63.4846 198.635L64.0921 198.079C63.8927 197.861 63.7163 197.632 63.5614 197.392C63.3434 197.053 63.1684 196.695 63.0386 196.326C62.9776 196.154 62.9267 195.979 62.8858 195.802C62.8055 195.462 62.761 195.116 62.7517 194.769C62.7417 194.416 62.7682 194.063 62.8306 193.716C62.837 193.68 62.8435 193.644 62.8514 193.608C62.9425 193.154 63.0952 192.711 63.3111 192.291L63.3348 192.247C63.6015 191.736 63.9601 191.262 64.4098 190.851L63.8002 190.184L63.5298 189.889L63.4775 189.831L61.6401 187.826L59.8837 185.908L58.9277 184.865L58.3353 184.218L57.7193 183.546L56.8917 182.642L56.1021 181.78L55.3885 181.002L54.3773 179.897L53.6336 179.086L52.0414 177.347L49.8928 175.002L46.7121 171.53L46.2037 170.975L46.1556 170.922L45.2348 169.917L43.2862 167.79L42.4485 166.876L39.1259 163.248C39.0111 163.353 38.8935 163.452 38.7723 163.545C38.1814 163.996 37.5187 164.3 36.8295 164.46C35.0896 164.863 33.1891 164.343 31.8968 162.932L27.2122 167.223C28.3683 168.485 28.7721 170.17 28.4472 171.727C28.2363 172.74 27.7164 173.699 26.8952 174.451L32.0316 180.058Z" fill="#339A33"/>
    <path d="M40.265 187.589C37.7652 184.86 38.1503 180.439 41.1254 177.714C44.1004 174.989 48.5387 174.993 51.0386 177.721C53.5384 180.45 53.1533 184.871 50.1782 187.596C47.2032 190.321 42.7649 190.318 40.265 187.589Z" fill="#339A33"/>
    <path d="M53.6989 195.242C52.8203 194.283 52.9557 192.729 54.0013 191.771C55.0469 190.813 56.6068 190.815 57.4854 191.774C58.364 192.733 58.2286 194.286 57.183 195.244C56.1374 196.202 54.5775 196.201 53.6989 195.242Z" fill="#339A33"/>
    <path d="M33.8178 173.535C32.9392 172.576 33.0746 171.023 34.1202 170.065C35.1658 169.107 36.7257 169.108 37.6043 170.067C38.4829 171.026 38.3475 172.58 37.3019 173.538C36.2563 174.496 34.6964 174.494 33.8178 173.535Z" fill="#339A33"/>
    <path opacity="0.3" d="M33.6948 153.874L33.3512 154.189L34.4815 157.527L36.8302 164.46L41.2724 177.579L42.3539 180.771L43.1119 183.01L43.5867 184.411L44.4337 186.911L45.3531 189.627L48.026 197.519L49.0329 200.492L50.3432 200.049L51.0539 199.808L58.463 197.299L62.8865 195.801L64.8817 195.126L69.8309 193.45L72.3295 192.604L73.5616 192.186L73.4261 191.788L73.2031 191.127L71.692 186.667L68.2201 176.416L67.1473 173.249L64.716 166.069L63.8418 163.488L60.5134 153.661L59.0031 149.202L57.3772 144.399L54.7653 136.689L33.6955 143.824L32.259 144.311L35.071 152.614L33.6948 153.874Z" fill="black"/>
    <path d="M32.259 144.311L35.0711 152.614L36.6238 157.199L38.7731 163.545L43.1178 176.375L44.4696 180.366L45.5317 183.501L46.4526 186.22L46.5939 186.637L47.4681 189.219L51.054 199.808L58.4631 197.299L62.8866 195.801L64.8818 195.126L69.831 193.45L72.3296 192.604L73.5617 192.186L75.009 191.696L75.5827 191.502L75.4479 191.103L75.2241 190.442L73.7138 185.983L70.2412 175.731L69.169 172.564L66.7371 165.384L65.8629 162.803L62.5352 152.977L61.0241 148.518L59.3983 143.715L56.7871 136.005L54.7653 136.689L33.6955 143.824L32.259 144.311Z" fill="#75CB68"/>
    <path d="M42.0599 144.398L49.0552 142.029L55.5348 139.835L57.7301 146.314L58.5426 148.714L59.4678 151.445L60.1699 153.516L61.6803 157.976L61.8345 158.433L63.6647 163.837L64.5927 166.578L64.8839 167.437L65.4677 169.161L65.5975 169.543L65.8227 170.21L65.9898 170.704L66.1726 171.244L67.0175 173.737L67.7605 175.931L68.1635 177.124L69.0614 179.774L69.8948 182.235L70.0669 182.742L70.1551 183.002L72.1904 189.011L72.2621 189.222L71.3592 189.528L69.9493 190.006L68.9761 190.336L68.8276 190.386L67.4513 190.852L67.3517 190.886L65.7825 191.417L65.3852 191.551L63.3362 192.245L63.1605 192.305L62.6635 192.473L62.4197 192.554L58.7872 193.785L58.2034 193.982L57.9431 194.07L56.1502 194.678L55.0873 195.038L54.7588 195.149L53.9104 195.436L53.1022 195.71L52.3075 195.979L52.1727 195.582L51.8313 194.573L51.0754 192.341L50.113 189.5L49.6246 188.057L48.3165 184.194L47.9859 183.217L47.6043 182.091L46.8621 179.9L46.256 178.111L45.4442 175.715L42.4507 166.877L40.6678 161.612L38.748 155.943L37.7748 153.07L36.2314 148.512L35.5802 146.591L42.0606 144.396L42.0599 144.398ZM51.8686 187.703L52.0687 188.293C52.4438 188.166 52.8246 188.085 53.2026 188.047C53.5576 188.011 53.9111 188.014 54.2575 188.051C54.4791 188.075 54.6979 188.114 54.9123 188.167C55.4208 188.29 55.9077 188.49 56.3538 188.76C56.6027 188.91 56.8386 189.081 57.0602 189.272C57.1714 189.368 57.2775 189.468 57.3801 189.573C57.8958 190.103 58.3045 190.753 58.5577 191.499L59.0497 191.332L61.0441 190.656L61.4536 190.518L63.2459 189.91L63.4782 189.832L63.7952 189.724L64.5755 189.46C64.4808 189.18 64.4113 188.899 64.3668 188.617C64.3037 188.219 64.2886 187.822 64.3187 187.431C64.3596 186.898 64.4837 186.378 64.6831 185.89C64.8165 185.563 64.9836 185.251 65.1801 184.958C65.2009 184.928 65.2217 184.897 65.2432 184.867C65.51 184.488 65.8291 184.144 66.1942 183.848C66.6539 183.475 67.1867 183.175 67.7805 182.973L67.4908 182.117L67.3624 181.737L66.4645 179.087L65.6304 176.624L65.1765 175.284L64.6027 173.59L64.2097 172.43L63.4962 170.322L63.0156 168.905L62.6621 167.862L61.9055 165.629L60.8856 162.616L59.3753 158.157L59.1114 157.377L58.6739 156.086L57.7487 153.354L55.7736 147.521C53.0964 148.428 50.1926 146.993 49.2854 144.317L43.2683 146.354C43.8169 147.975 43.5071 149.68 42.5827 150.973C41.981 151.815 41.1189 152.483 40.0633 152.84L42.5024 160.043L44.4222 165.711L46.2051 170.975L47.8582 175.856L48.8924 178.909L50.0248 182.254L50.1869 182.732L51.3688 186.225L51.8694 187.701L51.8686 187.703Z" fill="#339A33"/>
    <path d="M46.9997 170.252C45.8125 166.747 47.9479 162.856 51.7692 161.562C55.5905 160.268 59.6507 162.061 60.8379 165.566C62.0251 169.071 59.8897 172.961 56.0684 174.255C52.2471 175.549 48.1869 173.757 46.9997 170.252Z" fill="#339A33"/>
    <path d="M56.2079 182.672C55.7906 181.44 56.5411 180.073 57.8842 179.618C59.2272 179.163 60.6542 179.793 61.0715 181.025C61.4887 182.257 60.7382 183.624 59.3952 184.079C58.0521 184.534 56.6251 183.904 56.2079 182.672Z" fill="#339A33"/>
    <path d="M46.7661 154.794C46.3489 153.562 47.0994 152.194 48.4424 151.74C49.7854 151.285 51.2124 151.915 51.6297 153.147C52.0469 154.378 51.2964 155.746 49.9534 156.201C48.6104 156.655 47.1834 156.025 46.7661 154.794Z" fill="#339A33"/>
    <path d="M150.626 85H59.4609C54.6914 85 50.825 88.8749 50.825 93.6548V219.636C50.825 224.416 54.6914 228.291 59.4609 228.291H150.626C155.395 228.291 159.262 224.416 159.262 219.636V93.6548C159.262 88.8749 155.395 85 150.626 85Z" fill="#3A4C51"/>
    <path d="M150.548 96.6182H59.5386V220.546H150.548V96.6182Z" fill="#FAFBFF"/>
    <circle cx="85.591" cy="123.703" r="11.6803" transform="rotate(-19.0594 85.591 123.703)" stroke="#339A33"/>
    <circle cx="85.5911" cy="123.703" r="8.78025" transform="rotate(-19.0594 85.5911 123.703)" stroke="#339A33"/>
    <rect x="70.0992" y="125.289" width="30.3209" height="7.12022" rx="1.5" transform="rotate(-19.0594 70.0992 125.289)" fill="white" stroke="#339A33"/>
    <path d="M76.0496 128.791L75.5387 128.116L74.2979 128.544L74.3126 129.391L73.5348 129.66L73.6287 126.035L74.5116 125.73L76.8275 128.522L76.0496 128.791ZM74.6657 126.95C74.6323 126.904 74.5894 126.847 74.5372 126.779C74.4849 126.71 74.4322 126.639 74.3789 126.568C74.3256 126.496 74.2807 126.433 74.2442 126.379C74.2489 126.444 74.2524 126.526 74.2547 126.626C74.2591 126.721 74.2625 126.813 74.2649 126.903C74.2694 126.988 74.271 127.049 74.2696 127.086L74.2829 127.913L75.1705 127.607L74.6657 126.95Z" fill="#339A33"/>
    <path d="M77.2431 124.802C77.6821 124.65 78.0328 124.629 78.2951 124.739C78.5595 124.844 78.7453 125.052 78.8525 125.363C78.9009 125.503 78.9251 125.645 78.9248 125.789C78.9236 125.929 78.888 126.069 78.8181 126.206C78.7503 126.34 78.6419 126.464 78.4928 126.579C78.3438 126.694 78.1452 126.794 77.8971 126.88L77.5869 126.987L77.9796 128.124L77.259 128.373L76.1551 125.178L77.2431 124.802ZM77.3967 125.37L77.0674 125.484L77.3952 126.432L77.6338 126.35C77.7706 126.303 77.8826 126.246 77.9699 126.179C78.0572 126.112 78.1155 126.033 78.1448 125.943C78.1742 125.853 78.1693 125.751 78.1301 125.637C78.0755 125.479 77.9891 125.379 77.8711 125.336C77.7521 125.29 77.5939 125.302 77.3967 125.37Z" fill="#339A33"/>
    <path d="M80.2396 123.766C80.6787 123.615 81.0293 123.594 81.2916 123.704C81.556 123.809 81.7418 124.017 81.849 124.328C81.8975 124.468 81.9216 124.61 81.9214 124.753C81.9201 124.894 81.8845 125.033 81.8146 125.171C81.7468 125.305 81.6384 125.429 81.4893 125.544C81.3403 125.659 81.1417 125.759 80.8936 125.845L80.5834 125.952L80.9761 127.089L80.2555 127.338L79.1516 124.142L80.2396 123.766ZM80.3932 124.335L80.0639 124.448L80.3917 125.397L80.6303 125.315C80.7671 125.267 80.8791 125.21 80.9664 125.143C81.0537 125.077 81.112 124.998 81.1413 124.908C81.1707 124.817 81.1658 124.716 81.1266 124.602C81.072 124.444 80.9857 124.344 80.8676 124.301C80.7486 124.255 80.5904 124.266 80.3932 124.335Z" fill="#339A33"/>
    <path d="M83.1407 122.764C83.4493 122.658 83.7162 122.605 83.9413 122.608C84.1655 122.607 84.3516 122.661 84.4997 122.771C84.6467 122.877 84.7574 123.037 84.8316 123.252C84.8821 123.398 84.8962 123.537 84.8739 123.668C84.8537 123.795 84.8078 123.915 84.7359 124.026C84.6663 124.134 84.584 124.231 84.4891 124.317L85.9721 125.363L85.1704 125.64L83.9355 124.694L83.549 124.827L83.9726 126.053L83.2521 126.302L82.1481 123.107L83.1407 122.764ZM83.2799 123.337L83.0604 123.413L83.3588 124.277L83.5926 124.196C83.7517 124.141 83.8749 124.08 83.9622 124.013C84.0495 123.946 84.104 123.872 84.1259 123.791C84.1467 123.707 84.1407 123.618 84.1077 123.522C84.0726 123.421 84.0193 123.349 83.9478 123.307C83.8785 123.261 83.7882 123.242 83.6772 123.25C83.5682 123.254 83.4358 123.283 83.2799 123.337Z" fill="#339A33"/>
    <path d="M88.9411 122.544C89.0267 122.791 89.0711 123.028 89.0744 123.254C89.0798 123.476 89.041 123.683 88.9579 123.875C88.8779 124.067 88.748 124.237 88.568 124.386C88.3912 124.534 88.1644 124.655 87.8876 124.751C87.6108 124.847 87.3557 124.891 87.1221 124.885C86.8906 124.875 86.6834 124.821 86.5003 124.724C86.3193 124.623 86.1604 124.483 86.0235 124.303C85.8898 124.122 85.7801 123.908 85.6946 123.66C85.5802 123.329 85.538 123.021 85.568 122.737C85.6012 122.452 85.7139 122.201 85.9061 121.984C86.1005 121.763 86.3837 121.589 86.756 121.46C87.125 121.332 87.4525 121.296 87.7386 121.351C88.0235 121.403 88.2661 121.533 88.4662 121.741C88.6684 121.945 88.8267 122.212 88.9411 122.544ZM86.4549 123.402C86.5322 123.626 86.6289 123.808 86.745 123.948C86.8611 124.089 86.9977 124.18 87.1549 124.223C87.312 124.265 87.4908 124.252 87.6913 124.183C87.898 124.111 88.0485 124.011 88.1427 123.881C88.2401 123.751 88.2896 123.595 88.2912 123.414C88.2959 123.232 88.2597 123.029 88.1824 122.806C88.0659 122.469 87.9079 122.228 87.7083 122.083C87.5087 121.938 87.2562 121.918 86.9508 122.024C86.7472 122.094 86.5967 122.195 86.4993 122.325C86.402 122.456 86.3509 122.612 86.3461 122.794C86.3413 122.976 86.3776 123.179 86.4549 123.402Z" fill="#339A33"/>
    <path d="M91.7222 119.799L91.6666 123.395L90.8792 123.667L88.6204 120.871L89.3505 120.619L90.6471 122.3C90.6712 122.328 90.7098 122.383 90.763 122.465C90.8183 122.543 90.8757 122.627 90.9352 122.716C90.9936 122.803 91.0389 122.877 91.0712 122.94C91.058 122.871 91.0461 122.785 91.0354 122.682C91.0268 122.574 91.0203 122.473 91.0159 122.378C91.0104 122.279 91.0068 122.212 91.005 122.176L90.9921 120.052L91.7222 119.799Z" fill="#339A33"/>
    <path d="M95.2188 122.168L93.2575 122.846L92.1536 119.65L94.1149 118.973L94.3066 119.528L93.0659 119.956L93.3086 120.659L94.4635 120.26L94.6552 120.815L93.5003 121.214L93.7848 122.037L95.0256 121.609L95.2188 122.168Z" fill="#339A33"/>
    <path d="M98.1901 119.318C98.3138 119.676 98.3442 120.001 98.2813 120.293C98.2185 120.586 98.0682 120.841 97.8305 121.06C97.596 121.278 97.2831 121.455 96.8918 121.59L95.9278 121.923L94.8239 118.728L95.8928 118.358C96.2491 118.235 96.5783 118.188 96.8804 118.218C97.1857 118.246 97.4501 118.351 97.6737 118.535C97.8994 118.714 98.0715 118.975 98.1901 119.318ZM97.4471 119.595C97.3656 119.359 97.262 119.178 97.1363 119.051C97.0106 118.924 96.8621 118.85 96.6911 118.829C96.5221 118.804 96.3327 118.828 96.1227 118.9L95.7362 119.034L96.4551 121.115L96.7653 121.008C97.1185 120.886 97.3505 120.707 97.4615 120.471C97.5725 120.236 97.5677 119.944 97.4471 119.595Z" fill="#339A33"/>
    <path d="M122.786 92.7702H118.199C118.199 90.2846 116.162 88.252 113.674 88.252H96.413C93.9233 88.252 91.8874 90.2861 91.8874 92.7702H87.3006C84.8109 92.7702 82.775 94.8043 82.775 97.2884C82.775 99.774 84.8124 101.807 87.3006 101.807H122.786C125.276 101.807 127.312 99.7725 127.312 97.2884C127.312 94.8028 125.274 92.7702 122.786 92.7702Z" fill="#DFE2ED"/>
    <path d="M140.926 204.864H70.1351C69.0157 204.864 68.1083 205.771 68.1083 206.891V206.892C68.1083 208.011 69.0157 208.919 70.1351 208.919H140.926C142.045 208.919 142.953 208.011 142.953 206.892V206.891C142.953 205.771 142.045 204.864 140.926 204.864Z" fill="#DFE2ED"/>
    <path d="M142.258 146H68.1794V195.533H142.258V146Z" fill="#DFE2ED"/>
    <path d="M81.3455 158.292H76.208C74.9486 158.292 73.9284 157.272 73.9284 156.013C73.9284 154.754 74.9486 153.734 76.208 153.734H81.3455C82.6049 153.734 83.6251 154.754 83.6251 156.013C83.6251 157.272 82.6049 158.292 81.3455 158.292Z" fill="#EFF1F7"/>
    <path d="M133.92 158.292H94.2617C93.0023 158.292 91.9821 157.272 91.9821 156.013C91.9821 154.754 93.0023 153.734 94.2617 153.734H133.92C135.18 153.734 136.2 154.754 136.2 156.013C136.2 157.272 135.18 158.292 133.92 158.292Z" fill="#EFF1F7"/>
    <path d="M81.3455 171.78H76.208C74.9486 171.78 73.9284 170.76 73.9284 169.5C73.9284 168.241 74.9486 167.221 76.208 167.221H81.3455C82.6049 167.221 83.6251 168.241 83.6251 169.5C83.6251 170.76 82.6049 171.78 81.3455 171.78Z" fill="#EFF1F7"/>
    <path d="M133.92 171.78H94.2617C93.0023 171.78 91.9821 170.76 91.9821 169.5C91.9821 168.241 93.0023 167.221 94.2617 167.221H133.92C135.18 167.221 136.2 168.241 136.2 169.5C136.2 170.76 135.18 171.78 133.92 171.78Z" fill="#EFF1F7"/>
    <path d="M81.344 181.905H76.208C74.949 181.905 73.9284 182.925 73.9284 184.184C73.9284 185.442 74.949 186.463 76.208 186.463H81.344C82.603 186.463 83.6236 185.442 83.6236 184.184C83.6236 182.925 82.603 181.905 81.344 181.905Z" fill="#EFF1F7"/>
    <path d="M94.2617 181.905H115.584C116.841 181.905 117.863 182.927 117.863 184.185C117.863 185.442 116.841 186.464 115.584 186.464H94.2617C93.0039 186.464 91.9821 185.442 91.9821 184.185C91.9821 182.927 93.0039 181.905 94.2617 181.905Z" fill="#EFF1F7"/>
    <path d="M140.614 114.526H115.945C114.737 114.526 113.757 115.56 113.757 116.836V117.056C113.757 118.332 114.737 119.367 115.945 119.367H140.614C141.823 119.367 142.802 118.332 142.802 117.056V116.836C142.802 115.56 141.823 114.526 140.614 114.526Z" fill="#DFE2ED"/>
    <path d="M140.614 128.08H115.945C114.737 128.08 113.757 129.115 113.757 130.391V130.611C113.757 131.887 114.737 132.921 115.945 132.921H140.614C141.823 132.921 142.802 131.887 142.802 130.611V130.391C142.802 129.115 141.823 128.08 140.614 128.08Z" fill="#DFE2ED"/>
    <path d="M180.747 231.39C176.849 214.363 184.425 200.567 200.976 197C203.896 220.82 188.668 229.586 180.75 231.39H180.747Z" fill="#CDD0DF"/>
    <g style="mix-blend-mode:multiply">
        <path d="M181.162 230.843C181.085 230.854 181.001 230.84 180.927 230.795C180.758 230.694 180.7 230.473 180.804 230.304L199.499 198.958C199.599 198.789 199.818 198.733 199.987 198.838C200.157 198.939 200.214 199.16 200.111 199.328L181.416 230.675C181.358 230.772 181.262 230.828 181.162 230.843Z" fill="#BDC1D7"/>
    </g>
    <path d="M184.494 231.554C183.716 222.803 177.768 217.335 169 218.125C171.343 229.982 180.285 231.884 184.494 231.554Z" fill="#DCDEE8"/>
    <g style="mix-blend-mode:multiply">
        <path d="M184.201 231.356C184.244 231.348 184.282 231.33 184.309 231.296C184.378 231.221 184.37 231.109 184.294 231.042L170.043 218.843C169.966 218.776 169.85 218.784 169.781 218.858C169.712 218.933 169.72 219.046 169.797 219.113L184.047 231.311C184.09 231.348 184.147 231.363 184.201 231.352V231.356Z" fill="#D4D8E9"/>
    </g>
    <path d="M184 231.377C185.874 221.192 193.269 215.331 203.164 217.067C199.155 230.751 188.759 232.155 184 231.377Z" fill="#DCDEE8"/>
    <g style="mix-blend-mode:multiply">
        <path d="M184.354 231.171C184.308 231.159 184.266 231.133 184.239 231.092C184.169 230.998 184.193 230.864 184.285 230.796L201.894 217.812C201.991 217.741 202.121 217.76 202.191 217.857C202.26 217.954 202.237 218.085 202.144 218.153L184.535 231.137C184.481 231.178 184.416 231.189 184.354 231.174V231.171Z" fill="#D4D8E9"/>
    </g>
    <defs>
        <clipPath id="clip0_14729_26596">
            <rect width="67" height="179" fill="white" transform="matrix(-1 0 0 1 255 52)"/>
        </clipPath>
    </defs>
</svg>