<svg width="264" height="234" viewBox="0 0 264 234" fill="none" xmlns="http://www.w3.org/2000/svg">
    <path d="M263.866 231.392C264.045 231.376 264.045 230.632 263.866 230.616L259.496 230.244L250.754 229.567L242.013 228.942L233.271 228.37L215.789 228.399H128.379L58.4515 228L23.4875 228.399L14.7461 228.981L9.0812 229.603L0.33975 230.269L0.252059 230.277C-0.0839382 230.305 -0.0839382 231.707 0.252059 231.735L0.33975 231.743L9.0812 232.409L14.7461 233.031L23.4875 233.613H215.79L233.272 233.642L242.014 234L250.755 233.375L259.497 232.433L263.867 231.396L263.866 231.392Z" fill="#ECEDF1"/>
    <path opacity="0.6" d="M4.53497 94.4785C0.156036 135.701 4.53499 179.845 25.6477 204.455C52.1637 235.364 146.653 232.054 178.91 225.989C232.083 215.991 249.249 202.788 254.76 180.614C263.361 146.006 264.839 86.9767 247.722 65.2539C223.482 34.4913 89.7678 16.8026 53.016 26.8007C30.8376 32.8342 10.0086 42.9511 4.53497 94.4785Z" fill="#F6F7F8"/>
    <path d="M214.889 67.2684C219.365 66.5176 230.193 69.9825 230.617 79.1664C231.041 88.3482 230.905 97.008 229.599 98.3272C228.292 99.6465 209.022 97.9363 208.598 97.5899C208.174 97.2434 206.904 89.5053 207.328 86.6757C207.752 83.8461 209.809 72.1724 210.355 71.4217C210.899 70.671 214.889 67.2728 214.889 67.2728V67.2684Z" fill="url(#paint0_linear_14729_26408)"/>
    <path d="M165.54 129.838C165.54 129.838 163.845 129.977 162.179 130.147C160.41 130.327 158.838 130.324 158.937 131.075C158.997 131.532 160.327 131.632 161.795 131.627C168.073 131.608 169.931 131.107 169.931 131.107L165.54 129.838Z" fill="url(#paint1_linear_14729_26408)"/>
    <path d="M164.598 130.145C164.598 130.145 162.712 130.649 161.048 130.952C159.365 131.256 157.937 131.396 158.14 132.089C158.281 132.576 159.817 132.474 161.49 132.278C164.73 131.9 169.11 130.847 169.11 130.847L164.6 130.145L164.598 130.145Z" fill="url(#paint2_linear_14729_26408)"/>
    <path d="M174.412 127.055C173.649 126.205 171.951 126.412 171.57 126.415C171.421 126.417 170.176 126.625 169.863 126.644C169.067 126.69 167.11 126.43 166.8 126.453C166.489 126.476 165.567 126.786 165.479 127.379C165.41 127.842 166.176 127.72 166.634 127.755C166.911 127.774 168.471 128.007 168.602 128.025L168.608 128.025L168.584 128.043L168.586 128.043C167.5 128.74 164.886 130.002 164.886 130.002C162.397 130.342 160.373 130.499 159.673 130.745C159.036 130.971 158.509 131.76 160.091 131.756C160.384 131.755 162.03 131.718 162.311 131.698C165.326 131.487 167.56 130.741 167.56 130.741L172.333 127.841L177.988 130.333C177.988 130.333 175.307 128.074 174.41 127.055L174.412 127.055Z" fill="url(#paint3_linear_14729_26408)"/>
    <path d="M160.399 130.577C160.399 130.577 162.65 131.341 164.825 131.391C164.825 131.391 166.179 131.148 166.245 131.111L162.46 130.266L160.399 130.575L160.399 130.577Z" fill="#EE9A7C"/>
    <path d="M180.086 130.541C180.086 130.541 175.838 130.944 173.285 130.823C172.017 130.763 167.791 131.547 167.449 131.478C166.93 131.373 161.916 130.776 161.504 130.611C161.053 130.432 161.321 129.328 164.408 129.994C165.935 129.769 166.533 129.807 166.728 129.788C168.629 129.594 169.572 129.265 170.19 128.571C170.634 128.075 173.392 126.7 175.064 127.263C176.949 127.899 176.696 127.165 179.845 127.006L180.087 130.545L180.086 130.541Z" fill="url(#paint4_linear_14729_26408)"/>
    <path d="M166.614 127.765C166.432 127.739 165.972 127.764 165.836 127.724C165.836 127.724 166.33 127.517 166.509 127.529C166.688 127.54 168.934 127.823 168.934 127.823L168.612 128.026C168.612 128.026 167.437 127.881 166.613 127.763L166.614 127.765Z" fill="#EE9A7C"/>
    <path d="M171.836 126.403C170.696 126.454 169.788 126.647 169.669 126.64C169.551 126.632 167.291 126.409 166.8 126.451C167.143 126.589 169.466 126.959 169.723 127.013C169.979 127.064 171.298 126.495 171.836 126.403Z" fill="#EE9A7C"/>
    <path d="M208.504 95.4499C208.504 95.4499 203.808 97.0554 202.431 97.7261C201.71 98.0765 196.532 100.845 195.412 123.612C195.337 123.916 183.545 126.393 181.787 126.487C181.548 126.499 181.353 126.689 181.33 126.932L180.856 131.784C180.856 131.784 184.13 131.989 185.563 132.166C192.365 131.784 200.011 130.002 201.114 129.396C201.647 129.102 204.114 116.562 204.114 116.562C204.114 116.562 204.209 110.022 204.114 108.94C204.019 107.857 206.454 96.6707 206.454 96.6707L208.504 95.4499Z" fill="#CBDFF2"/>
    <path d="M202.749 110.338C203.793 106.968 204.919 101.095 204.57 101.758C201.363 107.049 202.227 112.332 201.363 116.624C200.622 120.308 199.453 127.825 198.7 128.231C196.419 129.464 188.457 131.78 188.457 131.78C188.457 131.78 192.165 131.753 195.308 130.861C196.368 130.561 198.7 130.136 200.65 129.359C202.244 128.344 203.253 118.911 204.57 116.624C204.57 115.061 201.126 115.575 202.749 110.34V110.338Z" fill="#BBD0E4"/>
    <path d="M207.846 95.1117C207.846 95.1117 208.253 108.197 212.947 108.534C217.642 108.87 224.501 101.93 228.319 96.294C228.319 96.294 222.628 95.2245 222.269 94.1006C221.675 92.2274 223.656 84.7244 223.718 84.5491L214.441 88.3523C214.441 88.3523 214.031 93.9576 213.782 94.2819C213.405 94.7733 207.846 95.1117 207.846 95.1117Z" fill="url(#paint5_linear_14729_26408)"/>
    <path d="M213.926 93.391C213.926 93.391 218.329 94.744 222.774 89.8751L224.187 84.7979L213.811 86.561C213.811 86.561 213.98 90.543 213.926 93.391Z" fill="#EE9A7C"/>
    <path d="M210.898 94.8609L212.033 94.7286C212.033 94.7286 212.065 94.7612 212.347 97.1641C212.543 98.8297 214.097 101.428 214.552 104.151C214.552 104.151 217.733 102.054 219.677 99.7099C221.435 97.589 222.37 97.8489 224.106 95.0976C224.106 95.0976 224.788 95.2929 225.266 95.4661C225.266 95.4661 217.654 102.358 217.426 102.721C217.198 103.084 213.383 106.306 213.383 106.306C213.383 106.306 211.336 101.791 211.524 99.9798C211.713 98.1691 211.083 95.9725 211.083 95.9725L210.898 94.8609Z" fill="#EE9A7C"/>
    <path d="M230.174 142.895C227.426 134.288 225.388 129.032 225.107 128.107C224.711 126.798 224.935 122.703 225.6 121.13C226.32 119.428 226.361 113.517 226.361 113.517L230.684 108.733C231.672 103.424 231.767 97.2466 234.714 97.3775C233.01 96.582 224.861 95.1237 224.861 95.1237C218.343 102.59 214.376 104.693 214.376 104.693L211.001 94.5356L205.143 95.7199C203.586 98.4148 205.314 99.867 203.891 103.609C202.694 106.757 201.844 108.937 201.754 111.873C201.677 114.425 204.866 117.702 205.008 123.831C205.135 129.322 204.937 134.951 202.88 143.02L229.217 143.245C229.538 143.132 229.857 143.016 230.174 142.893V142.895Z" fill="#CBDFF2"/>
    <path d="M217.149 98.4248C217.612 98.1046 218.344 96.9545 218.344 96.9545C218.026 97.029 217.16 97.6736 216.988 97.5406C216.816 97.4057 216.195 96.1267 216.17 96.3865C216.144 96.6484 216.685 98.7451 217.149 98.4268V98.4248Z" fill="#EE9A7C"/>
    <path d="M203.223 105.637C203.223 105.637 201.792 112.723 209.628 113.178C216.784 113.593 224.404 114.355 229.657 105.216C229.657 105.216 223.205 120.909 223.559 121.734C223.914 122.56 226.054 129.861 226.054 129.861C226.054 129.861 223.985 133.267 223.417 133.191C221.855 132.985 217.775 131.275 215.555 130.848C213.566 130.466 208.704 131.974 204.977 129.324C205.048 128.46 205.548 122.065 203.554 117.877C200.474 111.41 203.221 105.637 203.221 105.637H203.223Z" fill="#BBD0E4"/>
    <path d="M213.546 102.199L214.271 113.301L219.174 129.831L221.728 129.966C221.728 129.966 216.168 120.494 214.604 110.171C214.489 109.412 214.374 104.693 214.374 104.693L213.546 102.197V102.199Z" fill="#9BB3CF"/>
    <path d="M209.419 95.1256L211.622 94.6686C211.622 94.6686 212.107 95.9113 213.546 102.199C213.564 102.276 213.79 106.091 213.805 106.167C214.107 107.595 214.142 118.425 221.728 129.966C220.226 129.966 219.624 132.353 219.14 131.392C218.401 129.926 214.988 124.308 211.622 108.28C211.142 105.998 210.325 101.518 209.419 95.1256Z" fill="#BBD0E4"/>
    <path d="M229.657 105.214C229.657 105.214 229.457 109.895 231.56 110.665C231.56 110.665 229.243 113.366 226.199 120.653C225.892 121.388 225.347 125.261 225.719 126.524C226.092 127.787 227.57 131.37 230.166 139.469C229.36 137.781 223.948 125.307 223.078 123.537C222.414 122.188 223.577 118.036 225.327 115.005C227.079 111.972 228.315 107.569 229.655 105.214H229.657Z" fill="#B0C5DA"/>
    <path d="M202.892 110.483C202.694 108.208 204.483 101.66 204.261 100.912C204.261 100.912 202.3 108.115 202.181 108.693C202.046 109.348 200.938 111.06 202.524 115.346C203.814 118.834 202.914 125.34 204.9 127.453C205.137 127.704 205.314 127.968 205.447 128.236C205.532 128.218 205.619 128.21 205.706 128.21C206.431 125.751 207.143 122.989 207.244 121.322C207.403 118.719 203.649 119.176 202.894 110.483H202.892Z" fill="#B0C5DA"/>
    <path d="M231.541 225.273V230.794H230.828V225.597L231.541 225.273Z" fill="#21151E"/>
    <path d="M230.828 230.794L230.069 230.578V225.597H230.828V230.794Z" fill="#23252C"/>
    <path d="M221.375 227.561C222.483 224.749 224.213 222.9 224.923 221.607C225.357 220.819 225.248 216.523 225.248 216.523H230.325C230.325 216.523 229.588 219.875 230.208 220.282C230.208 220.282 230.398 220.241 230.493 220.473C230.588 220.705 231.207 222.324 231.207 222.324L226.514 228.888L223.322 229.585L221.377 227.561H221.375Z" fill="url(#paint6_linear_14729_26408)"/>
    <path d="M230.86 226.348C229.39 227.347 227.749 228.864 227.618 229.446C227.545 229.772 227.283 230.387 226.843 230.892H226.841C226.498 231.291 226.05 231.617 225.503 231.69C223.938 231.901 218.944 232.368 218.827 231.464C218.71 230.562 218.649 229.355 221.023 227.659C221.239 227.506 221.441 227.498 223.292 227.899C225.141 228.302 227.235 228.793 228.145 226.606C229.774 222.741 230.279 221.895 230.424 221.152C230.567 220.409 230.208 220.284 230.208 220.284C230.361 220.231 230.48 220.193 230.848 220.717C231.486 221.625 231.839 222.697 231.894 223.798C231.944 224.765 231.801 225.714 230.862 226.348H230.86Z" fill="#23252C"/>
    <path d="M212.35 222.999V228.739H211.61V223.337L212.35 222.999Z" fill="#21151E"/>
    <path d="M211.61 228.739L210.821 228.514V223.337H211.61V228.739Z" fill="#23252C"/>
    <path d="M201.784 225.466C202.936 222.544 204.733 220.533 205.472 219.188C205.922 218.368 205.809 213.905 205.809 213.905H211.086C211.086 213.905 210.32 217.389 210.966 217.812C210.966 217.812 211.164 217.77 211.261 218.012C211.36 218.253 212.004 219.935 212.004 219.935L208.027 227.103L203.808 227.571L201.786 225.466H201.784Z" fill="url(#paint7_linear_14729_26408)"/>
    <path d="M201.414 225.569C198.948 227.329 199.01 228.584 199.133 229.525C199.256 230.465 204.446 229.976 206.073 229.76C207.373 229.587 208.138 228.03 208.272 227.428C208.407 226.826 210.113 225.158 211.641 224.121C212.618 223.458 212.767 222.473 212.717 221.468C212.66 220.322 212.291 219.208 211.627 218.264C211.245 217.722 211.122 217.76 210.964 217.814C210.964 217.814 211.334 217.947 211.185 218.719C211.037 219.49 210.51 221.073 208.817 225.093C207.125 229.114 205.694 226.238 203.772 225.821C201.85 225.404 201.64 225.41 201.414 225.571V225.569Z" fill="#23252C"/>
    <path d="M232.796 210.06C232.445 214.165 232.445 220.944 232.445 220.944C232.445 220.944 231.835 221.565 230.761 221.937C230.682 221.963 230.602 221.99 230.519 222.014C228.636 222.562 222.987 221.835 222.987 221.835V217.196C222.987 215.768 223.337 211.665 223.337 209.166C223.337 206.666 222.987 200.779 222.636 198.459C222.285 196.138 222.039 192.952 221.76 192.213C220.884 189.893 219.657 183.826 218.958 180.08C218.256 176.333 215.347 151.531 215.347 151.531C215.347 151.531 214.753 169.195 214.402 172.408C214.051 175.62 214.227 188.11 214.402 192.394C214.576 196.676 213.877 199.353 213.7 202.209C213.526 205.065 212.65 218.983 212.65 218.983C212.266 219.178 211.641 219.313 210.898 219.406C208.897 219.653 206.035 219.593 204.743 219.547C204.319 219.532 204.065 219.518 204.065 219.518C204.065 217.377 204.24 209.347 204.065 203.993C203.891 198.64 203.891 195.607 204.065 190.076C204.24 184.545 203.548 181.701 202.488 175.443C200.736 165.093 200.736 154.387 200.91 151.531C201.085 148.675 201.961 140.824 202.488 137.791C203.013 134.758 204.678 128.78 204.678 128.78C204.874 129.245 205.318 129.66 206.003 130.006C207.872 130.949 211.538 131.382 216.873 130.949C218.809 130.794 220.965 130.522 223.335 130.119C226.488 129.583 226.476 128.143 226.476 128.143C226.476 128.143 227.616 129.334 227.975 130.333C228.137 130.786 228.321 131.312 228.512 131.888C228.894 133.028 229.304 134.351 229.641 135.65C230.517 139.04 231.393 147.606 230.868 153.137C230.343 158.667 229.818 166.162 229.641 169.91C229.467 173.657 231.042 183.471 231.042 185.612C231.042 187.754 232.443 193.464 232.794 196.676C233.145 199.889 233.145 205.955 232.794 210.06H232.796Z" fill="#23252C"/>
    <g style="mix-blend-mode:multiply" opacity="0.2">
    <path d="M232.796 210.06C232.445 214.165 232.445 220.944 232.445 220.944C232.445 220.944 231.835 221.565 230.761 221.937C230.733 220.429 230.751 218.723 230.87 217.017C231.221 212.02 231.044 204.348 230.87 198.994C230.696 193.641 229.293 190.608 229.293 187.395C229.293 184.182 227.366 181.864 227.016 177.224C226.665 172.585 227.016 173.119 227.366 168.301C227.717 163.483 228.767 157.594 228.242 148.138C228.104 145.654 227.858 143.404 227.568 141.435C226.802 136.2 225.733 132.963 225.624 132.639C225.618 132.621 225.616 132.613 225.616 132.613V131.007L227.979 130.329C228.141 130.782 228.325 131.308 228.516 131.884C228.898 133.024 229.308 134.347 229.645 135.646C230.521 139.036 231.397 147.602 230.872 153.133C230.347 158.663 229.822 166.158 229.645 169.906C229.471 173.653 231.046 183.467 231.046 185.608C231.046 187.75 232.447 193.46 232.798 196.672C233.149 199.885 233.149 205.951 232.798 210.056L232.796 210.06Z" fill="#3E517A"/>
    </g>
    <path d="M212.622 134.494L212.61 134.317H212.527C212.497 134.317 212.468 134.317 212.438 134.317L212.448 134.494L213.088 144.913C212.648 146.087 211.734 146.373 211.479 146.432C211.372 146.168 210.987 145.189 210.987 144.748C210.987 144.254 210.411 135.976 210.304 134.442C210.298 134.375 210.294 134.323 210.292 134.282L210.343 134.266C210.298 134.266 210.256 134.262 210.213 134.258C210.179 134.258 210.145 134.254 210.111 134.25C210.111 134.282 210.117 134.343 210.123 134.432C210.224 135.858 210.811 144.264 210.811 144.748C210.811 145.296 211.322 146.514 211.344 146.565L211.37 146.627L211.437 146.617C211.489 146.609 212.721 146.416 213.258 144.955L213.264 144.939L212.624 134.49L212.622 134.494Z" fill="url(#paint8_linear_14729_26408)"/>
    <path d="M222.459 133.153C222.459 133.153 224.386 138.15 228.767 142.788L222.459 133.153Z" fill="url(#paint9_linear_14729_26408)"/>
    <path d="M232.007 221.303H231.833C231.833 219.081 231.906 214.362 232.184 210.767C232.808 202.666 231.611 195.627 230.739 190.487C230.632 189.852 230.527 189.244 230.432 188.662C229.481 182.853 227.99 172.112 228.68 165.441C229.356 158.905 230.18 149.838 229.558 146.553C228.519 141.088 226.254 132.726 226.231 132.641L226.399 132.595C226.421 132.679 228.69 141.048 229.728 146.52C230.357 149.828 229.53 158.915 228.854 165.461C228.167 172.112 229.657 182.835 230.606 188.634C230.701 189.214 230.804 189.822 230.911 190.457C231.785 195.605 232.984 202.658 232.358 210.781C232.083 214.37 232.007 219.083 232.007 221.303Z" fill="url(#paint10_linear_14729_26408)"/>
    <path d="M228.535 131.974C227.741 132.19 226.692 132.47 225.644 132.732C224.512 133.014 223.502 133.241 222.555 133.43C220.603 133.825 218.694 134.101 216.724 134.274C215.45 134.387 214.176 134.458 212.828 134.492H212.727C212.694 134.496 212.658 134.496 212.622 134.496C212.59 134.496 212.561 134.496 212.529 134.496C212.501 134.496 212.476 134.496 212.448 134.496C212.305 134.5 212.164 134.5 212.024 134.5C211.431 134.5 210.856 134.484 210.302 134.448C210.268 134.448 210.234 134.444 210.201 134.442L210.121 134.436C208.32 134.307 206.75 133.986 205.452 133.487C204.19 132.999 203.675 132.524 203.655 132.504L203.772 132.375C203.772 132.375 204.289 132.848 205.514 133.322C206.788 133.813 208.336 134.129 210.109 134.256C210.143 134.26 210.177 134.262 210.21 134.264C210.254 134.268 210.296 134.27 210.341 134.272C211.009 134.317 211.713 134.333 212.436 134.323C212.466 134.323 212.495 134.323 212.525 134.323H212.608C212.646 134.323 212.684 134.323 212.721 134.323H212.822C214.166 134.286 215.436 134.214 216.708 134.105C218.672 133.932 220.573 133.656 222.519 133.263C223.464 133.076 224.471 132.846 225.6 132.566C226.649 132.307 227.695 132.025 228.49 131.809L228.535 131.982V131.974Z" fill="url(#paint11_linear_14729_26408)"/>
    <g style="mix-blend-mode:multiply" opacity="0.2">
    <path d="M214.402 192.396C214.576 196.678 213.877 199.355 213.7 202.211C213.526 205.067 212.65 218.985 212.65 218.985C212.266 219.18 211.641 219.315 210.898 219.408V219.341C210.898 219.341 212.125 208.99 212.299 207.029L210.898 209.17C210.898 209.17 212.299 201.319 212.824 197.75C213.35 194.181 212.65 192.04 211.774 191.147C210.898 190.255 212.299 186.15 212.824 185.616C213.35 185.081 212.299 172.948 212.824 170.807C212.824 170.807 210.371 172.77 210.898 171.878C211.423 170.986 212.824 165.455 213.352 161.707C213.877 157.958 214.404 149.934 214.404 149.934C214.404 149.934 214.704 150.067 215.229 153.28C215.754 156.492 214.836 164.637 214.836 164.637C214.836 164.637 214.755 169.201 214.404 172.414C214.053 175.626 214.229 188.116 214.404 192.4L214.402 192.396Z" fill="#3E517A"/>
    </g>
    <g style="mix-blend-mode:multiply" opacity="0.2">
    <path d="M206.869 192.573C208.447 191.861 210.373 192.394 210.898 193.109C211.057 193.322 209.848 192.752 208.621 192.752C207.394 192.752 205.668 193.117 206.869 192.573Z" fill="#3E517A"/>
    </g>
    <g style="mix-blend-mode:multiply" opacity="0.2">
    <path d="M207.92 189.897C207.395 188.825 205.817 188.291 205.292 188.825C204.767 189.361 203.714 190.253 204.416 190.074C205.118 189.895 205.466 189.361 205.993 189.538C206.519 189.717 208.239 190.543 207.92 189.895V189.897Z" fill="#3E517A"/>
    </g>
    <g style="mix-blend-mode:multiply" opacity="0.2">
    <path d="M221.934 189.184C224.211 190.076 225.789 191.504 226.314 193.109C226.457 193.546 224.913 192.217 224.037 191.145C223.161 190.074 222.636 191.145 222.285 190.789C221.934 190.432 220.89 188.773 221.934 189.184Z" fill="#3E517A"/>
    </g>
    <path d="M212.274 113.299L214.834 113.392C214.834 113.392 217.773 124.766 221.483 129.449L217.983 129.271C217.983 129.271 215.23 125.283 212.274 113.297V113.299Z" fill="#BBD0E4"/>
    <path d="M226.469 128.19C226.469 128.19 226.808 128.832 227.709 131.811C227.709 131.811 212.969 134.756 204.436 130.794C204.436 130.794 204.771 129.326 204.854 127.44C204.854 127.44 211.487 129.281 226.469 128.19Z" fill="#23252C"/>
    <path d="M176.874 127.126L181.341 126.802L181.222 131.824L176.988 131.179C176.988 131.179 176.893 130.506 176.874 127.126Z" fill="#CBDFF2"/>
    <path d="M176.875 127.127L176.882 128.146L181.325 128.652L181.342 126.802L176.875 127.127Z" fill="#BBD0E4"/>
    <path d="M229.998 157.205C230.032 157.29 230.091 157.362 230.191 157.423C230.603 157.677 231.201 156.849 231.459 156.416C231.716 155.983 231.889 154.434 231.847 153.914L232.111 153.981C232.111 153.981 232.232 155.056 232.343 155.39C232.343 155.39 232.242 156.267 232.271 156.837C232.271 156.837 232.174 157.354 231.931 157.689C231.893 157.741 231.853 157.787 231.808 157.828C231.756 157.874 231.709 157.928 231.669 157.989C231.649 158.019 231.629 158.049 231.613 158.081C231.605 158.097 231.598 158.114 231.59 158.13C231.582 158.146 231.574 158.164 231.568 158.18C231.56 158.198 231.554 158.214 231.548 158.23C231.522 158.299 231.502 158.367 231.491 158.436C231.491 158.452 231.487 158.47 231.485 158.486C231.481 158.52 231.477 158.553 231.477 158.587C231.477 158.603 231.477 158.619 231.477 158.635C231.477 158.649 231.477 158.663 231.479 158.678C231.479 158.682 231.479 158.686 231.479 158.69C231.479 158.702 231.479 158.712 231.483 158.722C231.498 158.827 231.54 158.915 231.609 158.972C231.865 159.177 232.422 158.891 232.909 158.442C233.397 157.993 233.603 157.527 233.603 157.527C233.603 157.527 233.629 157.602 233.768 157.63C233.779 157.632 233.791 157.634 233.805 157.636C233.815 157.636 233.827 157.638 233.839 157.638C233.849 157.638 233.861 157.638 233.873 157.638C233.888 157.638 233.902 157.638 233.918 157.638C233.926 157.638 233.936 157.638 233.944 157.638C233.97 157.638 233.997 157.634 234.029 157.63C234.398 157.578 234.741 157.497 234.885 157.332C235.03 157.169 235.07 156.929 235.07 156.929C235.07 156.929 235.143 156.923 235.242 156.909C235.254 156.909 235.266 156.907 235.28 156.903C235.291 156.903 235.305 156.899 235.319 156.897C235.331 156.897 235.347 156.893 235.359 156.891C235.387 156.887 235.414 156.881 235.444 156.875C235.458 156.873 235.47 156.869 235.486 156.867C235.573 156.847 235.652 156.825 235.7 156.798C235.761 156.764 235.829 156.655 235.894 156.506C235.991 156.285 236.084 155.979 236.144 155.707C236.144 155.707 236.217 155.711 236.31 155.697C236.431 155.678 236.59 155.632 236.665 155.515C236.736 155.407 237.045 153.096 236.99 152.762C236.936 152.428 236.372 150.679 235.751 148.706C235.591 148.192 235.666 147.59 235.775 147.211C235.886 146.832 235.678 146.168 235.634 145.761L231.98 145.388C231.98 145.388 232.004 145.98 231.978 146.323C231.907 147.261 231.728 147.954 231.528 148.468C231.528 148.468 231.512 148.506 231.487 148.575C231.382 148.826 231.273 149.034 231.173 149.203C230.864 149.725 230.567 150.351 230.43 151.042C230.294 151.731 230.161 152.192 230.074 152.549C230.056 152.619 230.226 153.759 230.212 153.968C230.198 154.178 230.151 155.517 230.093 156.112C230.05 156.561 229.887 156.939 229.992 157.205H229.998Z" fill="url(#paint12_linear_14729_26408)"/>
    <path d="M236.994 152.764C237.047 153.098 236.74 155.409 236.669 155.517C236.627 155.58 236.564 155.622 236.494 155.65C236.508 155.608 236.52 155.568 236.524 155.542C236.657 154.512 236.778 153.314 236.73 153.052C236.599 152.333 235.757 149.858 235.456 148.909C235.006 147.602 235.684 146.401 235.145 145.711L235.642 145.761C235.686 146.168 235.894 146.832 235.783 147.211C235.672 147.59 235.597 148.192 235.757 148.706C236.378 150.679 236.94 152.426 236.994 152.762V152.764Z" fill="#EE9A7C"/>
    <path d="M231.607 157.527C231.607 157.527 231.631 157.598 231.762 157.63C231.762 157.63 231.994 157.344 232.03 157.086C232.062 156.835 232.197 155.241 232.204 155.143C232.097 155.606 231.994 156.903 231.899 157.086C231.802 157.272 231.609 157.527 231.609 157.527H231.607Z" fill="#EE9A7C"/>
    <path d="M233.244 156.911L233.425 154.992L233.072 156.931C233.072 156.931 233.145 156.925 233.244 156.911Z" fill="#EE9A7C"/>
    <path d="M234.316 155.699L234.291 154.907L234.15 155.709C234.15 155.709 234.223 155.713 234.316 155.699Z" fill="#EE9A7C"/>
    <path d="M229.615 158.972C229.871 159.177 230.428 158.891 230.915 158.442C231.403 157.993 231.609 157.528 231.609 157.528C231.609 157.528 231.635 157.602 231.774 157.63C231.785 157.632 231.797 157.634 231.811 157.636C231.821 157.636 231.833 157.638 231.845 157.638C231.855 157.638 231.867 157.638 231.879 157.638C231.894 157.638 231.908 157.638 231.924 157.638C231.932 157.638 231.942 157.638 231.95 157.638C231.976 157.638 232.003 157.634 232.035 157.63C232.404 157.578 232.747 157.497 232.891 157.332C233.036 157.169 233.076 156.929 233.076 156.929C233.076 156.929 233.149 156.923 233.248 156.909C233.26 156.907 233.272 156.905 233.286 156.903C233.297 156.903 233.311 156.899 233.325 156.897C233.337 156.897 233.351 156.893 233.365 156.891C233.393 156.887 233.42 156.881 233.45 156.875C233.464 156.873 233.478 156.869 233.492 156.867C233.579 156.847 233.658 156.825 233.706 156.798C233.767 156.764 233.835 156.655 233.9 156.506C233.9 156.506 233.464 156.73 233.208 156.587C233.216 156.595 233.266 156.647 233.054 156.851C232.824 157.072 232.025 157.409 231.815 157.225L231.898 157.084C231.672 157.282 230.971 156.972 230.971 156.972C230.971 156.972 230.9 157.096 230.802 157.203C230.941 154.41 229.653 153.04 229.653 153.04L229.853 153.912L230.117 153.979C230.117 153.979 230.238 155.054 230.349 155.389C230.349 155.389 230.248 156.265 230.277 156.835C230.277 156.835 230.18 157.352 229.936 157.687C229.899 157.739 229.859 157.785 229.814 157.826C229.762 157.872 229.715 157.926 229.675 157.987C229.655 158.017 229.637 158.047 229.619 158.079C229.611 158.095 229.604 158.112 229.596 158.128C229.588 158.144 229.58 158.162 229.574 158.178C229.566 158.196 229.56 158.212 229.554 158.228C229.528 158.297 229.51 158.365 229.497 158.434C229.497 158.45 229.493 158.468 229.491 158.484C229.487 158.518 229.483 158.551 229.483 158.585C229.483 158.601 229.483 158.617 229.483 158.633C229.483 158.647 229.483 158.661 229.485 158.676C229.485 158.68 229.485 158.684 229.485 158.688C229.485 158.7 229.485 158.71 229.489 158.72C229.504 158.825 229.546 158.913 229.615 158.97V158.972Z" fill="#F8A67C"/>
    <path d="M229.651 153.042L230.02 153.957L229.852 153.914L229.651 153.042Z" fill="#EE9A7C"/>
    <path d="M229.998 157.205C230.058 157.022 230.708 155.205 230.49 153.858C230.274 152.51 230.42 152.23 230.508 151.753C230.726 150.567 231.326 148.996 231.491 148.577C231.385 148.828 231.276 149.036 231.177 149.205C230.868 149.727 230.571 150.353 230.434 151.044C230.298 151.733 230.165 152.194 230.078 152.551C230.06 152.621 230.23 153.761 230.216 153.97C230.202 154.18 230.155 155.519 230.097 156.114C230.054 156.563 229.891 156.941 229.996 157.207L229.998 157.205Z" fill="#F5AD93"/>
    <path d="M236.879 147.449C236.879 147.449 236.689 147.88 235.898 148.202C235.05 148.546 233.512 148.768 230.777 148.198C230.777 148.198 229.721 131.96 229.576 129.414C229.431 126.866 229.289 124.701 229.289 124.701L228.875 123.936L229.146 122.786L228.894 119.885C228.894 119.885 228.75 118.586 228.756 118.256L228.33 113.323L228.193 110.828C228.153 107.567 228.189 105.267 228.274 103.009C228.274 103.009 229.007 101.359 230.472 99.8025C231.467 98.7431 232.806 97.728 234.481 97.301C234.481 97.301 235.878 98.2778 236.046 100.757C236.102 101.559 236.12 103.76 236.12 106.365C236.12 108.185 236.112 110.205 236.098 112.089L236.124 114.776L236.171 119.744L236.203 123.019L236.538 123.769L236.417 124.218L236.371 124.393C236.371 124.393 237.008 135.457 236.875 147.451L236.879 147.449Z" fill="#CBDFF2"/>
    <g style="mix-blend-mode:multiply" opacity="0.2">
    <path d="M236.544 123.767L236.377 124.391C234.598 125.016 232.388 124.942 232.388 124.942C234.766 124.767 236.544 123.769 236.544 123.769V123.767Z" fill="#3E517A"/>
    </g>
    <path d="M236.879 147.449C236.879 147.449 236.689 147.88 235.898 148.202C235.876 134.961 235.062 124.729 235.062 124.729L235.799 124.29L236.421 124.216L236.376 124.389C236.376 124.389 237.012 135.453 236.879 147.447V147.449Z" fill="#BBD0E4"/>
    <g style="mix-blend-mode:multiply" opacity="0.2">
    <path d="M232.38 124.236C232.271 124.264 230.391 124.749 229.289 124.701L228.875 123.936C228.952 123.97 230.533 124.67 232.382 124.236H232.38Z" fill="#3E517A"/>
    </g>
    <path d="M236.207 123.017L235.014 123.334L234.631 111.777L234.685 111.766C234.584 107.706 234.485 103.204 234.485 101.144C234.485 97.0129 230.615 99.7018 230.476 99.8025C231.471 98.7431 232.81 97.728 234.485 97.301C234.485 97.301 235.882 98.2778 236.05 100.757C236.106 101.559 236.124 103.76 236.124 106.365C236.124 108.185 236.116 110.205 236.102 112.089L236.128 114.776L236.175 119.744L236.207 123.019V123.017Z" fill="#BBD0E4"/>
    <path d="M207.947 79.6963V80.415C207.947 80.415 207.432 81.9244 207.422 83.9348C207.409 86.2914 211.802 87.2236 211.174 92.7907L203.644 94.9078C203.644 94.9078 203.791 89.0445 204.136 86.8882C204.481 84.7319 207.947 79.6985 207.947 79.6985V79.6963Z" fill="url(#paint13_linear_14729_26408)"/>
    <path d="M227.463 82.7086C227.463 82.7086 226.006 85.6489 225.642 86.4722C225.277 87.2955 224.63 89.3712 224.75 91.1746C224.87 92.9759 225.961 95.4523 225.961 95.4523H231.252C231.252 95.4523 230.965 84.6862 227.461 82.7107L227.463 82.7086Z" fill="url(#paint14_linear_14729_26408)"/>
    <path d="M211.566 92.379C209.492 90.042 207.449 89.3799 208.547 86.25C209.365 83.913 210.966 81.1795 212.033 77.8166C213.351 73.6674 209.584 79.9751 209.584 79.9751C209.584 79.9751 206.717 82.5735 205.219 87.021C203.367 92.5206 204.651 93.9254 205.219 95.437C205.639 96.5544 209.88 97.2992 207.677 98.3186C211.75 99.0352 213.516 94.5767 211.566 92.379Z" fill="url(#paint15_linear_14729_26408)"/>
    <path d="M232.181 92.627C234.232 95.2559 234.187 97.3816 230.831 97.2009C232.453 97.2009 233.739 95.9245 232.181 92.627Z" fill="url(#paint16_linear_14729_26408)"/>
    <path d="M207.195 69.4573C205.815 72.9836 206.187 74.4124 206.187 75.9958C206.187 77.5792 206.837 78.7184 204.803 82.543C203.637 84.7385 204.415 86.8599 205.035 88.9879C204.351 90.1553 205.101 86.8338 207.947 81.6783C209.593 79.1061 210.508 78.4875 210.831 75.3359C211.569 68.1679 216.51 66.2207 216.51 66.2207L216.341 64.1516C213.238 61.771 208.577 65.931 207.195 69.4573Z" fill="url(#paint17_linear_14729_26408)"/>
    <path d="M204.329 81.3734C203.528 82.4625 202.735 83.6822 202.658 85.0826C202.583 86.4396 203.084 87.6876 203.746 88.842C203.875 89.0663 204.01 89.2863 204.147 89.5041C204.244 89.3146 204.411 89.1599 204.608 89.0946C204.376 88.5414 204.145 87.9882 203.959 87.4175C203.761 86.812 203.613 86.1804 203.622 85.5379C203.631 84.9215 203.783 84.3356 204.031 83.7758C204.563 82.5866 205.39 81.539 206.108 80.4652C206.826 79.3914 207.914 77.4072 208.073 73.9746C207.329 78.0236 205.15 80.2583 204.331 81.3713L204.329 81.3734Z" fill="#411A12"/>
    <path d="M218.118 66.2207C218.118 66.2207 220.957 65.6892 223.147 68.8648C223.147 68.8648 221.392 64.9182 218.118 66.2207Z" fill="url(#paint18_linear_14729_26408)"/>
    <path d="M211.018 78.8098C211.08 78.8773 211.174 80.9008 211.356 81.8634C211.356 81.8634 211.489 79.546 211.909 77.9604L211.018 78.8098Z" fill="url(#paint19_linear_14729_26408)"/>
    <path d="M216.502 66.2207C216.502 66.2207 211.337 66.6607 210.921 73.2232C210.7 76.732 211.15 79.1017 208.247 83.0984C206.789 85.1022 205.982 86.0562 205.36 88.2669C204.344 91.8694 209.412 93.0543 209.772 95.6701C210.073 97.8438 209.091 100.131 204.764 100.312C206.222 100.068 206.357 98.3252 205.932 97.2971C205.684 96.6938 204.741 96.1711 203.701 95.1365C198.571 90.029 205.624 84.9868 206.899 82.3274C208.176 79.6658 208.133 79.3217 208.517 76.4358C208.705 75.0092 208.714 71.0146 209.768 69.294C210.82 67.5733 212.621 65.5499 216.504 66.2207H216.502Z" fill="url(#paint20_linear_14729_26408)"/>
    <path d="M210.308 68.0612C210.308 68.0612 208.767 69.5597 208.638 71.5591C208.51 73.5586 208.306 74.787 208.167 76.4336C208.064 77.6446 206.778 82.2664 205.362 84.1461C205.362 84.1461 208.906 80.2757 208.861 75.8194C208.816 71.3653 209.311 69.7819 210.308 68.059V68.0612Z" fill="#411A12"/>
    <path d="M210.795 76.1352C210.546 81.6064 208.647 80.916 207.666 86.3764C207.047 89.8177 210.293 92.7755 205.855 94.0366C209.322 93.1436 206.076 88.5305 206.324 86.0736C206.744 81.8918 209.875 81.8983 210.795 76.1352Z" fill="#411A12"/>
    <path d="M227.421 77.373C227.326 78.4819 227.062 79.6346 226.598 80.8115C226.49 81.0838 226.371 81.3583 226.241 81.6349L222.685 86.0242C222.685 86.0242 221.942 87.4163 221.398 87.9542C221.106 88.2419 215.189 92.0471 213.893 92.0537C213.713 92.0537 213.549 92.0493 213.396 92.0383C212.452 91.9659 212.017 91.665 211.791 91.3664C211.696 91.2435 211.423 90.3564 210.542 89.0148C208.716 86.2372 208.492 83.2005 208.563 81.3407C208.587 80.7413 208.639 80.2648 208.68 79.9596C208.68 79.9596 208.286 78.3787 208.273 77.7002C208.273 77.6694 208.273 77.6387 208.273 77.6123C208.282 77.4235 208.289 76.4003 208.567 75.0324C209.205 71.8968 211.261 66.9564 217.965 66.1045C222.431 65.538 227.998 70.6738 227.421 77.3774V77.373Z" fill="url(#paint21_linear_14729_26408)"/>
    <path d="M212.818 85.3796C212.302 85.3369 211.829 85.3796 211.766 85.5075C211.702 85.6248 211.797 86.2113 211.997 86.3499C212.229 86.5098 212.545 86.5525 212.545 86.5525C212.692 86.4885 212.903 86.5098 212.903 86.5098C212.903 86.5098 215.187 86.4991 215.829 86.4458C216.471 86.3925 217.05 86.1793 217.05 86.1793C217.05 86.1793 216.198 85.998 215.776 85.8701C214.629 85.5289 213.334 85.4329 212.818 85.3902V85.3796Z" fill="url(#paint22_linear_14729_26408)"/>
    <path d="M212.903 86.5106C212.903 86.5106 212.692 86.4893 212.545 86.5533C212.039 87.0762 212.166 87.471 212.334 87.7911C212.492 88.1218 212.924 88.5913 213.787 88.4953C214.65 88.3993 215.629 87.6524 216.229 87.1615C216.829 86.6707 217.05 86.1799 217.05 86.1799C217.05 86.1799 216.482 86.3933 215.84 86.4466C215.197 86.5 212.903 86.5106 212.903 86.5106Z" fill="url(#paint23_linear_14729_26408)"/>
    <path d="M213.02 86.8414C213.02 86.8414 212.957 86.532 212.925 86.468C212.893 86.3933 212.355 86.5107 212.355 86.5107L212.545 86.5533C212.545 86.5533 212.841 86.5 212.883 86.6067C212.925 86.7134 212.978 86.8521 213.02 86.8414Z" fill="#811945"/>
    <path d="M212.797 86.4478C212.797 86.4478 212.829 86.4478 212.797 86.3189C212.797 86.3189 212.829 86.2866 212.829 86.3081C212.829 86.3296 212.904 86.4478 212.904 86.4478L212.851 86.5015L212.797 86.4478Z" fill="#811945"/>
    <path d="M215.345 86.4998C215.345 86.4998 214.639 86.2652 213.829 86.2013C213.239 86.1586 212.829 86.3079 212.829 86.3079L213.018 86.841C213.018 86.841 213.229 87.0756 213.987 87.0223C214.745 86.969 215.345 86.4892 215.345 86.4892V86.4998Z" fill="white"/>
    <path d="M206.25 92.2332C206.214 97.7981 207.497 99.1899 211.01 99.7801C205.856 100.331 204.607 97.1839 206.25 92.2332Z" fill="#411A12"/>
    <path d="M207.889 91.1528C207.889 91.1528 209.094 92.4161 210.643 93.8122C211.26 94.3698 212.227 95.7137 211.73 97.3886C211.235 99.0635 209.904 100.314 206.722 100.314C206.722 100.314 210.66 99.6799 210.896 97.2993C211.132 94.9187 209.379 93.3243 207.892 91.155L207.889 91.1528Z" fill="#411A12"/>
    <path d="M205.414 85.9429C204.561 87.7856 203.084 90.6519 204.027 92.6295C204.842 94.3393 209.796 95.5002 206.91 98.2075C207.973 95.4065 204.957 95.4545 203.734 93.8688C201.37 90.8043 204.325 88.7243 205.414 85.9451V85.9429Z" fill="#411A12"/>
    <path d="M210.918 93.2568C212.227 94.2892 212.626 97.2448 210.541 97.7327C211.571 96.6742 211.629 94.2718 210.918 93.2568Z" fill="url(#paint24_linear_14729_26408)"/>
    <path d="M231.796 82.384C232.098 83.2704 232.557 84.4422 232.928 85.3026C233.352 86.2849 233.768 87.2868 233.941 88.3518C234.134 89.5323 233.971 90.6736 233.577 91.7931C233.382 92.3464 233.155 92.8887 232.906 93.418C232.662 93.9385 232.371 94.4329 232.122 94.9535C231.841 95.5437 231.725 96.1514 231.781 96.8048C231.839 97.4757 231.406 98.0463 231.571 98.6954C231.046 98.0136 231.239 97.2426 231.117 96.3801C230.948 95.2018 231.505 94.1824 231.953 93.137C232.403 92.0872 232.898 90.9829 233.061 89.8416C233.217 88.7352 233.02 87.6244 232.754 86.5506C232.439 85.2742 231.938 83.6973 231.796 82.384Z" fill="#411A12"/>
    <path d="M216.999 64.1275C217.747 62.5376 223.848 60.9803 229.364 67.6385C232.521 71.448 232.383 76.6077 231.558 79.8835C231.036 81.9679 234.297 88.0033 232.098 92.0152C232.098 92.0152 233.918 102.47 225.496 100.433C225.496 100.433 229.24 100.054 225.496 95.0362C224.874 94.202 223.691 93.1086 223.878 91.3705C224.127 89.0444 229.088 85.59 228.378 79.9576C228.134 78.0213 223.531 73.6042 222.44 69.7665C221.075 64.9639 217.048 66.1705 217.048 66.1705C217.048 66.1705 217.061 65.4518 216.999 64.1232V64.1275Z" fill="url(#paint25_linear_14729_26408)"/>
    <path d="M217.05 66.1728C222.08 66.4734 218.657 71.7247 219.862 73.9768C221.066 76.2267 225.249 79.5221 224.609 81.8635C223.736 85.0391 222.054 89.6064 221.85 91.1528C221.518 93.6837 222.796 94.6508 223.807 96.0382C225.693 98.6213 227.049 100.621 224.48 101.821C224.48 101.821 234.908 101.647 232.64 94.8664C231.25 90.7041 226.822 91.4251 227.326 87.5198C227.523 85.993 233.125 79.3936 228.817 76.3987C223.886 72.9705 222.444 62.7271 217.052 66.175L217.05 66.1728Z" fill="url(#paint26_linear_14729_26408)"/>
    <path d="M223.541 85.3636C223.541 85.3636 225.187 78.1979 218.222 73.7917C218.222 73.7917 215.653 75.1246 219.292 77.5836C219.292 77.5836 219.017 77.5314 218.576 77.3114C217.412 76.7255 215.089 74.9569 213.6 69.8211C213.6 69.8211 213.013 72.5807 215.889 75.765C215.889 75.765 212.22 74.7108 210.958 70.7925C210.958 70.7925 211.729 74.7217 215.25 76.1527C215.25 76.1527 211.331 75.2793 210.032 71.9795C210.032 71.9795 209.886 73.881 211.778 75.643C211.778 75.643 209.62 74.236 209.224 71.631C209.224 71.631 208.622 73.5717 210.338 75.545C210.293 75.521 208.868 74.7326 208.607 73.4105C208.607 73.4105 207.874 74.6389 208.688 75.4731C207.807 75.1573 207.456 72.707 207.874 70.6204C208.292 68.5339 209.678 65.5979 211.11 64.4587C211.29 64.315 211.478 64.1821 211.673 64.0601C211.967 63.875 212.273 63.7117 212.586 63.5679C213.726 63.043 214.946 62.7577 215.842 62.5595C215.842 62.5595 218.303 62.1078 219.257 62.0098C219.257 62.0098 224.132 61.7253 226.539 64.2257C227.537 64.9719 232.274 70.4396 231.792 73.7917C230.941 79.7029 223.719 84.39 223.537 85.3636H223.541Z" fill="url(#paint27_linear_14729_26408)"/>
    <g style="mix-blend-mode:multiply" opacity="0.2">
    <path d="M228.913 66.9912C227.415 65.0506 222.198 62.7053 222.198 62.7053C225.087 65.0293 226.719 69.7731 226.775 69.9386C224.163 63.5134 219.292 62.7053 219.292 62.7053C221.615 63.4937 223.254 66.2098 223.306 66.2947C220.863 63.0298 217.875 63.5155 217.875 63.5155C221.896 67.0265 223.284 74.6584 223.308 74.7913C221.501 67.0984 216.594 64.0491 216.594 64.0491C217.342 65.5368 218.113 69.6533 218.113 69.6533C217.277 67.057 215.186 64.243 215.186 64.243C213.733 67.5907 215.846 71.9097 215.846 71.9097C213.403 69.026 214.219 64.0252 214.219 64.0252C212.274 64.9792 212.578 67.4382 212.589 67.5166C211.909 64.7439 213.797 63.57 214.172 63.3696C214.541 63.1714 212.646 63.5591 212.591 63.57C213.731 63.0451 214.95 62.7597 215.846 62.5615C215.846 62.5615 218.226 62.1658 219.18 62.0678C219.18 62.0678 222.051 61.744 224.752 62.9971C226.143 63.6428 227.475 65.0849 228.288 66.1315L228.913 66.9912Z" fill="#3D1710"/>
    </g>
    <g style="mix-blend-mode:multiply" opacity="0.2">
    <path d="M223.944 82.3143C223.944 82.3143 222.667 74.0748 217.256 71.9948C217.387 72.0383 221.551 73.4976 222.785 77.1306C224.039 80.8202 223.944 82.3143 223.944 82.3143Z" fill="#3E517A"/>
    </g>
    <g style="mix-blend-mode:multiply" opacity="0.2">
    <path d="M221.038 65.2101C223.728 67.7105 225.453 71.8575 225.442 75.7889C224.673 71.1409 223.323 68.3508 221.038 65.2101Z" fill="#3E517A"/>
    </g>
    <g style="mix-blend-mode:multiply" opacity="0.2">
    <path d="M220.07 71.6157C222.373 73.356 223.79 76.2049 223.946 77.8972C223.496 76.732 222.466 74.8479 221.857 74.0203C221.861 74.0203 221.473 73.4736 221.058 72.8986C221.053 72.8921 220.168 71.7508 220.072 71.6157H220.07Z" fill="#3E517A"/>
    </g>
    <g style="mix-blend-mode:multiply" opacity="0.2">
    <path d="M227.026 73.6065C227.296 70.1804 227.02 67.6386 225.44 64.5219C227.401 66.9003 227.92 70.5681 227.026 73.6065Z" fill="#3E517A"/>
    </g>
    <path d="M228.41 66.5735C230.909 69.0304 231.318 70.7445 231.961 73.2297C232.341 74.6933 232.328 76.1809 232.107 77.6685C231.878 79.2019 231.473 80.7025 231.278 82.2424C231.063 83.9239 231.19 85.6184 231.666 87.2432C231.025 86.3001 230.667 85.1414 230.506 84.0153C230.311 82.6323 230.466 81.2318 230.697 79.864C230.939 78.433 231.267 77.0064 231.31 75.5515C231.355 74.0442 231.027 72.5719 230.478 71.1779C229.861 69.6097 229.28 68.0067 228.413 66.5735H228.41Z" fill="#411A12"/>
    <path d="M232.634 92.8496C231.597 90.6781 229.364 88.9029 228.989 86.4287C228.732 84.7342 229.771 82.4821 230.281 80.8093C228.869 82.922 227.639 85.3266 228.517 87.8335C229.362 90.2424 231.854 91.974 232.124 94.5985C232.516 98.4145 230.903 101.3 226.456 101.821C232.698 102.019 234.462 96.8376 232.634 92.8496Z" fill="#411A12"/>
    <path d="M225.297 72.3127C225.297 72.3127 227.099 74.9917 228.11 75.7671C229.214 76.6121 230.708 77.4463 230.433 79.7028C230.433 79.7028 230.15 77.9451 229.102 77.1283C228.055 76.3116 226.58 75.7061 225.297 72.3127Z" fill="#411A12"/>
    <path d="M226.79 89.3821C226.304 92.2244 228.837 93.2198 229.501 94.2674C230.313 95.5481 230.841 97.1686 229.651 98.0943C230.913 94.1607 224.491 93.6924 226.788 89.3821H226.79Z" fill="#411A12"/>
    <path d="M226.201 77.6097C229.606 81.2993 228.027 83.7082 226.199 86.5985C225.224 88.1384 224.051 89.4561 223.912 91.1702C223.799 92.5816 224.27 94.1955 226.428 95.5524C222.543 94.2913 222.412 90.2968 225.177 86.6573C227.705 83.3292 228.357 81.3625 226.201 77.6097Z" fill="#411A12"/>
    <path d="M230.348 73.6414C229.034 70.5769 227.465 68.1679 225.438 66.0618C229.349 68.3291 230.127 70.5769 230.348 73.6414Z" fill="#411A12"/>
    <path d="M220.604 67.6957C220.588 67.6845 220.582 67.6778 220.582 67.6778C220.591 67.6845 220.597 67.689 220.604 67.6957Z" fill="url(#paint28_linear_14729_26408)"/>
    <path d="M224.141 73.7568C222.208 70.5093 223.229 69.6424 220.601 67.6953C220.738 67.8042 221.497 68.4881 222.2 70.7336C222.508 71.7225 222.725 72.9422 223.634 74.225C223.852 74.5321 224.054 74.8131 224.24 75.0701C225.652 77.0195 226.199 77.6075 226.199 77.6075C225.436 76.5163 225.189 75.5188 224.139 73.7546L224.141 73.7568Z" fill="#411A12"/>
    <path d="M60.1004 145.248L62.0211 149.614C62.0211 149.614 61.6648 155.231 61.4741 155.524C61.2856 155.815 58.1547 159.31 58.1547 159.31L57.2202 158.699L59.9905 154.553L55.4051 157.512L53.3144 156.146L52.7653 154.097L55.8257 151.831L52.8275 153.037L52.6721 151.991L54.8581 150.513L55.0922 145.083L60.1004 145.245V145.248Z" fill="#FFB47A"/>
    <path d="M60.1957 154.357L59.3192 154.985L57.3528 153.099L58.0407 151.101L56.1572 149.477L55.0922 145.085L54.8581 150.512L52.6721 151.993L52.8275 153.037L55.8257 151.831L52.7653 154.097L53.3144 156.146L55.5418 157.603L60.1957 154.357Z" fill="#EB8867"/>
    <path d="M60.8754 153.916L60.2227 152.388L60.8215 150.381L60.8754 153.916Z" fill="#EB8867"/>
    <path d="M79.6137 125.958L90.9046 125.658L90.9046 125.105L79.6137 124.659L79.6137 125.958Z" fill="#D8DCE3"/>
    <path d="M93.6808 124.326C93.6808 124.326 88.2728 124.166 88.0642 124.16L80.1462 123.995L80.1462 125.311L96.582 125.654L96.582 124.849L93.6808 124.327L93.6808 124.326Z" fill="#D8DCE3"/>
    <path d="M96.582 126.003C96.582 126.003 95.8257 126.428 95.3117 126.613C95.3117 126.613 94.7402 126.64 94.6214 126.592C94.3622 126.487 94.1345 126.276 93.718 126.269C93.2785 126.262 92.8301 126.6 92.3494 126.775C92.1651 126.842 91.6401 126.86 91.5315 126.822C91.1346 126.685 90.9272 126.354 90.1403 126.405C89.4957 126.447 89.1771 126.733 88.8794 126.877C88.6906 126.968 88.2733 126.942 88.0642 126.948L82.012 127.113L82.012 125.797L96.582 125.454L96.582 126.003L96.582 126.003Z" fill="#D8DCE3"/>
    <path d="M75.7462 123.591C74.5079 123.563 73.4813 124.558 73.4529 125.814" stroke="#8D96AB" stroke-width="0.3" stroke-linecap="round" stroke-linejoin="round"/>
    <path d="M96.183 125.55L84.7007 125.55" stroke="#8D96AB" stroke-width="0.3" stroke-linecap="round" stroke-linejoin="round"/>
    <path d="M77.4834 121.176L81.6624 120.49C82.9525 120.36 84.0717 121.389 84.0717 122.704L84.0717 128.205C84.0717 129.523 82.949 130.552 81.657 130.418L77.5982 129.807C76.522 129.646 76.1675 128.759 76.1675 128.278L76.1675 122.8C76.1675 121.85 76.763 121.274 77.4834 121.176ZM77.2158 126.413C77.2158 126.84 77.5605 127.191 77.9823 127.191C78.4041 127.191 78.7488 126.841 78.7488 126.413L78.7488 124.457C78.7488 124.029 78.4041 123.679 77.9823 123.679C77.5605 123.679 77.2158 124.029 77.2158 124.457L77.2158 126.413Z" fill="#D8DCE3"/>
    <path d="M83.8107 121.806C83.956 122.103 84.038 122.438 84.038 122.795L84.038 128.295C84.038 129.613 82.9153 130.642 81.6233 130.509L77.5644 129.898C76.4882 129.737 76.1338 128.849 76.1338 128.368L76.1338 122.89C76.1338 121.94 76.7293 121.364 77.4497 121.266L81.6286 120.581" stroke="#8D96AB" stroke-width="0.3" stroke-linecap="round" stroke-linejoin="round"/>
    <path d="M74.1679 127.533C74.5555 127.899 75.0717 128.128 75.6428 128.141C76.8812 128.17 77.9077 127.175 77.9361 125.918C77.9485 125.379 77.7744 124.878 77.474 124.481" stroke="#8D96AB" stroke-width="0.3" stroke-linecap="round" stroke-linejoin="round"/>
    <path d="M82.4685 122.944L82.4685 128.248" stroke="#8D96AB" stroke-width="0.3" stroke-linecap="round" stroke-linejoin="round"/>
    <path d="M67.9283 123.542L67.421 127.739L70.5064 127.99L72.4498 129.388L75.5107 129.523C77.5032 129.61 79.2187 128.403 79.3779 126.801L79.4711 125.867C79.6255 124.34 78.4369 122.934 76.616 122.491L75.2632 122.161L72.0234 121.987L70.0604 123.54H67.9283V123.542Z" fill="#FFB47A"/>
    <path d="M67.6641 128.543L69.173 128.898L69.6333 123.108L68.4494 122.739L67.6641 128.543Z" fill="white"/>
    <path d="M48.4343 72.8323L50.613 65.5206C50.9452 64.6269 51.4002 61.4344 51.1465 60.5151C50.6045 58.5592 49.6253 55.8622 47.6015 55.8622L41.5875 57.3719L48.4343 72.4748V72.8323Z" fill="#282829"/>
    <path d="M51.8847 217.317L51.9531 224.803L47.0486 226.535C47.0486 226.535 45.1837 224.732 45.1837 224.524V217.87L51.8827 217.315L51.8847 217.317Z" fill="black"/>
    <path d="M51.8889 222.277L57.5145 226.08L59.369 225.429C61.5695 224.658 63.9213 226.101 64.2404 228.417L57.3239 228.914L43.5572 228.663L43.6194 225.234L45.2148 222.911L45.8302 223.639C46.6342 224.589 48.0142 224.793 49.0564 224.115L51.8868 222.275L51.8889 222.277Z" fill="#232324"/>
    <path d="M57.3259 228.914L65.2287 228.365L65.4131 229.552L57.5808 230.149L43.0785 229.883L43.1013 228.654L57.3259 228.914Z" fill="black"/>
    <path d="M54.5852 183.021C54.5852 185.115 54.2331 185.902 54.2331 185.902L52.3162 221.096H44.5038L43.5366 183.021L41.5556 141.593L54.9697 141.14L54.5852 183.021Z" fill="#414042"/>
    <path d="M55.6267 93.7116L60.4173 143.694H53.8593L50.7761 99.8022L55.6267 93.7116Z" fill="#353536"/>
    <path d="M33.8579 217.733L33.9262 225.219L29.0217 226.951C29.0217 226.951 27.1569 225.148 27.1569 224.94V218.286L33.8558 217.731L33.8579 217.733Z" fill="black"/>
    <path d="M33.862 222.692L39.4877 226.496L41.3421 225.845C43.5427 225.073 45.8944 226.516 46.2135 228.833L39.297 229.33L25.5303 229.078L25.5925 225.649L27.188 223.327L27.8448 224.104C28.6239 225.025 29.9645 225.223 30.9757 224.566L33.86 222.69L33.862 222.692Z" fill="#282829"/>
    <path d="M39.2991 229.33L47.2019 228.781L47.3863 229.968L39.554 230.565L25.0517 230.299L25.0745 229.07L39.2991 229.33Z" fill="black"/>
    <path d="M44.0102 141.234L40.1023 181.84L34.1117 221.906L26.4467 221.464L28.4493 180.854L27.6761 141.234H44.0102Z" fill="#414042"/>
    <path d="M47.2452 88.7498L40.1944 85.1824L31.4228 88.7498L44.6906 129.756L47.2452 88.7498Z" fill="#F5F5F5"/>
    <path d="M40.8402 93.4161C41.5377 92.2304 44.6011 89.4482 44.6011 87.5746V79.8523L34.4026 76.0331L34.4026 87.3228C34.4005 89.1943 39.0966 92.3699 40.8402 93.4161Z" fill="#FFB47A"/>
    <path d="M34.4026 79.4V84.8793C34.4026 84.8793 35.751 85.5234 39.4153 86.8633C43.0797 88.2033 44.6011 87.9258 44.6011 87.9258L44.4777 84.5668L34.4026 79.4Z" fill="#DE925B"/>
    <path d="M41.7783 57.9725L45.7143 60.9289C47.1334 61.9956 48.014 63.6342 48.12 65.4104L48.9468 79.2403C49.0423 80.8387 48.4378 82.4005 47.2897 83.5144L45.8949 84.8688C45.2662 85.4806 45.0304 85.509 44.1602 85.6083H42.1038C41.4507 85.6833 40.8501 85.5672 40.2387 85.3214L36.9867 84.2215C34.6401 83.2767 34.2249 82.4722 32.5869 80.5391C31.4145 79.155 29.9757 77.4972 29.7708 75.693L28.4576 64.0874L32.4943 58.2898L41.7749 57.9743L41.7783 57.9725Z" fill="#FFB47A"/>
    <path d="M38.3671 78.5282C43.1381 80.0851 46.9814 77.215 46.8368 79.1685C46.692 81.1205 44.678 82.5609 42.3396 82.3838C40.0012 82.2067 38.2225 80.4817 38.3671 78.5282Z" fill="white"/>
    <path d="M38.8203 94.3315C38.7105 93.1462 40.2213 92.8619 40.2213 92.8619C40.2213 92.8619 42.5556 92.4296 42.5556 94.0074C42.6136 94.6271 42.6163 95.1653 42.0942 95.6103L48.128 110.748L47.8856 127.144L39.2596 108.819L40.422 95.9617C39.7631 95.6332 38.8867 95.0634 38.8183 94.3315H38.8203Z" fill="#BE1E2D"/>
    <path d="M24.7647 90.027L32.2202 88.5465L45.3961 116.807L46.5977 88.5464C51.5876 89.825 55.6599 91.1041 55.6599 94.8283L55.0715 105.059L56.6959 143.696H26.846C26.846 143.696 25.2305 127.174 24.7647 119.802C24.299 112.429 21.2153 100.646 21.2153 100.646C21.2153 100.646 19.452 91.3225 24.7647 90.0291V90.027Z" fill="#414042"/>
    <path d="M44.9972 128.928C45.4962 128.928 45.9006 128.522 45.9006 128.022C45.9006 127.521 45.4962 127.115 44.9972 127.115C44.4983 127.115 44.0938 127.521 44.0938 128.022C44.0938 128.522 44.4983 128.928 44.9972 128.928Z" fill="#363637"/>
    <path d="M35.3601 132.807H30.0764C28.6653 132.807 27.5216 131.657 27.5216 130.243V128.96H37.9171V130.243C37.9171 131.659 36.7712 132.807 35.3622 132.807H35.3601Z" fill="#363637"/>
    <path d="M56.3687 132.804L56.1366 128.958H53.6046V130.241C53.6046 131.657 54.9555 132.804 56.3666 132.804H56.3687Z" fill="#363637"/>
    <path d="M30.3162 88.9534L31.1334 98.488L36.4521 100.297L33.3441 102.896L45.8364 118.117L50.355 101.614L48.4083 99.8205L50.355 97.8738L47.5998 88.7857L46.6153 88.5444L45.5395 98.9456L45.319 116.422L32.0523 88.5444L30.3162 88.9534Z" fill="#363637"/>
    <path d="M39.6353 123.953L23.6796 112.032L21.9686 104.139L39.6353 123.953Z" fill="#353536"/>
    <path d="M20.5446 104.669C20.93 106.636 22.0252 108.373 23.538 109.688L39.6353 123.686L68.175 128.773L69.1209 122.945L44.9783 115.822L23.7226 90.4644C23.7226 90.4644 21.0056 90.4644 19.9933 94.833C19.3673 97.5348 19.9833 101.804 20.5446 104.669Z" fill="#414042"/>
    <path d="M54.4686 143.694V144.99L60.289 145.162V143.694H54.4686Z" fill="white"/>
    <path d="M29.6556 73.4484L31.7443 73.8445L31.4222 65.2289C31.3903 64.3585 32.178 63.6888 33.0277 63.8629L39.7294 65.236C41.6871 65.6375 43.721 65.419 45.5496 64.609L48.9895 62.2466L47.848 56.8015C47.2568 55.0056 45.5146 53.3132 43.6294 53.3132L35.1525 54.1369C33.5152 54.1369 31.5392 55.3396 30.7922 56.8015L29.96 57.9226L29.5618 57.9155C27.712 57.8871 26.9049 58.7722 26.2589 60.5095V62.7925C26.2588 64.2814 26.9402 66.3121 27.4996 67.4081L29.6573 73.4484H29.6556Z" fill="#282829"/>
    <path d="M30.9311 76.4523L29.477 76.6214C28.6158 76.7215 27.8369 76.1022 27.7371 75.2379L27.4728 72.9491C27.373 72.0848 27.9902 71.3031 28.8514 71.203L28.9039 71.1969C29.6781 71.1069 30.3781 71.6634 30.4678 72.4404L30.9311 76.4523Z" fill="#FFB47A"/>
    <path d="M27.8118 144.406H41.546L41.7713 143.694H50.9167L51.3232 144.406H54.8857L54.5998 143.694H51.6814L46.4531 132.794L50.9167 143.694H27.8118V144.406Z" fill="#353536"/>
    <path d="M46.8862 144.406L47.2928 143.694L46.7089 133.733L46.5281 143.694H40.6097L40.3238 144.406H46.8862Z" fill="#353536"/>
    <path d="M44.0911 146.099L42.3238 158.614L42.7031 162.976L44.4006 146.099L44.0911 146.099Z" fill="#353536"/>
    <path d="M33.9436 92.9498L37.4627 96.2317C37.4627 96.2317 37.7511 95.6376 38.6936 94.0367C39.6361 92.4358 40.277 92.9498 40.277 92.9498C37.4627 90.8698 35.3802 89.1671 34.4576 87.5327L32.2433 88.5213L33.9436 92.9498Z" fill="white"/>
    <path d="M43.6101 95.646L43.593 95.6716C43.593 95.6716 43.6013 95.6647 43.6101 95.646L45.8192 92.3215L46.6189 88.431L44.6521 87.4584C43.8539 89.157 43.8189 90.6508 41.1674 92.9347C41.1674 92.9347 41.7682 92.3743 42.8274 93.9006C43.7085 95.1702 43.6535 95.5531 43.6101 95.646Z" fill="white"/>
    <path d="M99.0001 69.5L98.5248 69.3446V69.3446L99.0001 69.5ZM84.5001 55.4999L84.2572 55.0629L84.5001 55.4999ZM77.5001 85.4999L77.9503 85.2826L77.5001 85.4999ZM119.5 85.4999L119.177 85.1181L119.168 85.1262L119.5 85.4999ZM208 60.5L208.001 54.7265L203 57.6126L208 60.5ZM60.5464 99.9978C61.0424 99.9517 61.5326 99.9028 62.017 99.851L61.9107 98.8567C61.431 98.9079 60.9454 98.9564 60.4537 99.0021L60.5464 99.9978ZM64.9403 99.4931C65.9365 99.3547 66.9066 99.2018 67.8516 99.0334L67.6762 98.0489C66.7446 98.2149 65.7871 98.3658 64.8027 98.5027L64.9403 99.4931ZM70.7488 98.4498C71.7322 98.2272 72.6864 97.9844 73.6128 97.72L73.3383 96.7584C72.4309 97.0174 71.4946 97.2557 70.5281 97.4745L70.7488 98.4498ZM76.4316 96.8167C77.3806 96.4768 78.2979 96.1092 79.185 95.7121L78.7765 94.7994C77.914 95.1855 77.0205 95.5435 76.0944 95.8753L76.4316 96.8167ZM81.8442 94.3822C82.719 93.8949 83.5615 93.3725 84.3736 92.8129L83.8061 91.9895C83.0208 92.5307 82.2054 93.0364 81.3576 93.5086L81.8442 94.3822ZM86.7395 91.0034C87.493 90.3654 88.2174 89.6883 88.9147 88.9699L88.1971 88.2734C87.5222 88.9687 86.8216 89.6236 86.0933 90.2402L86.7395 91.0034ZM90.8853 86.741C91.4961 85.9838 92.0842 85.1882 92.6514 84.3527L91.824 83.7911C91.2716 84.6048 90.6998 85.3782 90.107 86.1132L90.8853 86.741ZM94.2241 81.8419C94.7064 81.0085 95.1727 80.1405 95.6242 79.2367L94.7297 78.7897C94.2867 79.6764 93.8301 80.5263 93.3586 81.3411L94.2241 81.8419ZM96.8752 76.5568C97.2591 75.6774 97.6321 74.7677 97.9952 73.8268L97.0622 73.4668C96.704 74.3951 96.3365 75.2914 95.9588 76.1567L96.8752 76.5568ZM99.0044 71.0582C99.1632 70.5974 99.3202 70.1299 99.4753 69.6553L98.5248 69.3446C98.3713 69.8142 98.216 70.2768 98.059 70.7323L99.0044 71.0582ZM99.4753 69.6553C99.6227 69.2045 99.7492 68.7539 99.8553 68.3048L98.8821 68.0748C98.7824 68.4966 98.6635 68.9202 98.5248 69.3446L99.4753 69.6553ZM100.26 65.5315C100.313 64.5703 100.274 63.6297 100.15 62.7237L99.1592 62.8597C99.2747 63.7011 99.311 64.5777 99.2612 65.4762L100.26 65.5315ZM99.4773 59.9857C99.1456 59.0759 98.7159 58.2268 98.1967 57.4589L97.3683 58.019C97.8393 58.7158 98.2326 59.4912 98.5378 60.3282L99.4773 59.9857ZM96.2859 55.3416C95.548 54.7323 94.7209 54.2396 93.8166 53.8885L93.4547 54.8207C94.2556 55.1316 94.9905 55.5689 95.6492 56.1127L96.2859 55.3416ZM91.0154 53.292C90.1116 53.2432 89.1636 53.3201 88.18 53.5354L88.3938 54.5123C89.2944 54.3151 90.1524 54.2469 90.9616 54.2905L91.0154 53.292ZM85.5132 54.431C85.0988 54.6176 84.68 54.828 84.2572 55.0629L84.7429 55.937C85.1422 55.7152 85.536 55.5175 85.9238 55.3428L85.5132 54.431ZM84.2572 55.0629C83.8287 55.3009 83.4089 55.5513 82.9986 55.8138L83.5377 56.6561C83.9302 56.4049 84.3322 56.1652 84.7429 55.937L84.2572 55.0629ZM80.6371 57.552C79.8866 58.186 79.1828 58.8695 78.533 59.6013L79.2807 60.2653C79.8978 59.5704 80.5672 58.9202 81.2825 58.3159L80.6371 57.552ZM76.7513 61.9417C76.2225 62.7598 75.7538 63.6236 75.3522 64.5315L76.2667 64.936C76.6468 64.0769 77.0903 63.2593 77.5911 62.4846L76.7513 61.9417ZM74.3765 67.308C74.1297 68.2348 73.9476 69.1983 73.8353 70.1972L74.8291 70.3088C74.9359 69.3585 75.109 68.4438 75.3429 67.5653L74.3765 67.308ZM73.7091 73.1307C73.7313 74.0752 73.8125 75.0461 73.9561 76.0427L74.9459 75.9C74.8077 74.9416 74.73 74.0105 74.7088 73.1072L73.7091 73.1307ZM74.5267 78.9071C74.757 79.8185 75.0375 80.7488 75.3705 81.6975L76.3141 81.3663C75.9906 80.4448 75.7189 79.5432 75.4962 78.6621L74.5267 78.9071ZM76.4409 84.3988C76.633 84.8348 76.8359 85.2743 77.0498 85.7173L77.9503 85.2826C77.7414 84.8498 77.5434 84.4208 77.356 83.9956L76.4409 84.3988ZM77.0498 85.7173C77.2623 86.1574 77.4794 86.5894 77.7013 87.0128L78.587 86.5485C78.3704 86.1353 78.1582 85.7132 77.9503 85.2826L77.0498 85.7173ZM79.1453 89.5327C79.6746 90.3755 80.2284 91.1738 80.8085 91.9233L81.5993 91.3112C81.041 90.5899 80.5057 89.8185 79.9921 89.0008L79.1453 89.5327ZM82.7333 94.1266C83.4385 94.8365 84.1781 95.4809 84.9542 96.0532L85.5477 95.2484C84.816 94.7088 84.1149 94.0984 83.4428 93.4218L82.7333 94.1266ZM87.4748 97.5872C88.3588 98.0186 89.2825 98.3645 90.2479 98.6183L90.5021 97.6512C89.6017 97.4144 88.7395 97.0917 87.9134 96.6885L87.4748 97.5872ZM93.1631 99.0896C94.1104 99.1524 95.0909 99.1342 96.1057 99.0312L96.0047 98.0363C95.0427 98.134 94.1181 98.1507 93.2292 98.0918L93.1631 99.0896ZM98.9923 98.5287C99.8983 98.3084 100.829 98.0257 101.786 97.6783L101.444 96.7384C100.52 97.0741 99.624 97.346 98.756 97.5571L98.9923 98.5287ZM104.475 96.5615C105.314 96.1705 106.172 95.7327 107.05 95.2468L106.566 94.372C105.707 94.8474 104.87 95.2744 104.052 95.6549L104.475 96.5615ZM109.541 93.7692C110.329 93.2718 111.132 92.7373 111.951 92.1649L111.377 91.3456C110.571 91.9094 109.782 92.435 109.008 92.9236L109.541 93.7692ZM114.273 90.4685C115.015 89.9046 115.768 89.3108 116.534 88.6865L115.902 87.9115C115.144 88.529 114.4 89.1158 113.668 89.6726L114.273 90.4685ZM118.737 86.8342C119.1 86.5206 119.465 86.2005 119.832 85.8736L119.168 85.1262C118.803 85.4502 118.442 85.7674 118.083 86.078L118.737 86.8342ZM119.5 85.4999C119.823 85.8816 119.823 85.8816 119.823 85.8816C119.823 85.8816 119.823 85.8816 119.823 85.8816C119.823 85.8816 119.823 85.8816 119.823 85.8816C119.823 85.8816 119.823 85.8815 119.823 85.8814C119.823 85.8813 119.824 85.881 119.824 85.8807C119.825 85.8801 119.826 85.8791 119.828 85.8778C119.831 85.8753 119.835 85.8714 119.841 85.8662C119.853 85.8559 119.872 85.8404 119.896 85.8199C119.945 85.7788 120.018 85.7175 120.114 85.6371C120.306 85.4761 120.59 85.2383 120.959 84.9313L120.32 84.1623C119.949 84.4703 119.664 84.7091 119.471 84.8709C119.375 84.9519 119.301 85.0136 119.252 85.0551C119.227 85.0759 119.209 85.0916 119.196 85.1022C119.19 85.1075 119.185 85.1115 119.182 85.1141C119.18 85.1155 119.179 85.1165 119.178 85.1172C119.178 85.1175 119.178 85.1178 119.177 85.118C119.177 85.118 119.177 85.1181 119.177 85.1182C119.177 85.1182 119.177 85.1182 119.177 85.1182C119.177 85.1182 119.177 85.1182 119.177 85.1182C119.177 85.1182 119.177 85.1182 119.5 85.4999ZM123.287 83.0136C123.977 82.4493 124.76 81.8134 125.623 81.1166L124.996 80.3382C124.13 81.0365 123.346 81.6738 122.654 82.2394L123.287 83.0136ZM127.986 79.2228C128.732 78.6289 129.518 78.006 130.342 77.3584L129.723 76.5725C128.898 77.2213 128.11 77.8456 127.363 78.4406L127.986 79.2228ZM132.72 75.4989C133.493 74.8979 134.291 74.2814 135.111 73.6523L134.503 72.8589C133.681 73.4893 132.881 74.1071 132.106 74.7093L132.72 75.4989ZM137.51 71.8242C138.297 71.2285 139.1 70.6246 139.917 70.0149L139.319 69.2135C138.5 69.8246 137.695 70.4298 136.907 71.0269L137.51 71.8242ZM142.338 68.2212C143.139 67.6318 143.951 67.039 144.772 66.445L144.185 65.6349C143.363 66.2305 142.549 66.8247 141.745 67.4156L142.338 68.2212ZM147.22 64.6879C148.035 64.108 148.857 63.5287 149.683 62.9519L149.111 62.1319C148.282 62.7105 147.458 63.2915 146.64 63.8731L147.22 64.6879ZM152.162 61.239C152.992 60.6716 153.824 60.1086 154.657 59.5517L154.102 58.7202C153.265 59.2792 152.43 59.8443 151.597 60.4135L152.162 61.239ZM157.172 57.893C158.018 57.3422 158.863 56.7995 159.706 56.2668L159.172 55.4215C158.325 55.9567 157.476 56.5018 156.626 57.055L157.172 57.893ZM162.263 54.6776C163.129 54.1486 163.991 53.6325 164.845 53.1315L164.339 52.2688C163.479 52.7731 162.613 53.2923 161.742 53.8241L162.263 54.6776ZM167.456 51.6365C168.348 51.1385 169.229 50.6601 170.098 50.2037L169.633 49.3184C168.756 49.7791 167.867 50.2616 166.968 50.7633L167.456 51.6365ZM172.774 48.849C173.698 48.4002 174.603 47.9814 175.486 47.5958L175.086 46.6794C174.189 47.0709 173.272 47.4955 172.337 47.9495L172.774 48.849ZM178.267 46.4663C178.739 46.2902 179.203 46.126 179.658 45.9744L179.342 45.0257C178.875 45.1813 178.4 45.3494 177.918 45.5293L178.267 46.4663ZM179.658 45.9744C180.163 45.806 180.656 45.6489 181.138 45.5026L180.848 44.5457C180.357 44.6947 179.855 44.8546 179.342 45.0257L179.658 45.9744ZM184.112 44.7022C185.177 44.4552 186.178 44.2694 187.121 44.14L186.985 43.1493C186.009 43.2833 184.978 43.4749 183.886 43.728L184.112 44.7022ZM190.154 43.9096C191.245 43.9017 192.239 43.9851 193.151 44.1475L193.327 43.1629C192.349 42.9889 191.293 42.9014 190.147 42.9097L190.154 43.9096ZM196.004 45.0093C196.941 45.4265 197.776 45.9516 198.536 46.5657L199.165 45.7881C198.342 45.1228 197.432 44.5507 196.411 44.0959L196.004 45.0093ZM200.644 48.6985C201.266 49.4665 201.839 50.3039 202.384 51.1936L203.237 50.671C202.675 49.7547 202.078 48.8793 201.421 48.0687L200.644 48.6985ZM203.895 53.8754C204.371 54.7756 204.837 55.697 205.319 56.6343L206.209 56.177C205.73 55.247 205.258 54.315 204.779 53.4083L203.895 53.8754Z" fill="#B4BAC8"/>
    <path d="M164.496 14.261L164.045 106.978C164.023 111.428 159.857 115.02 154.74 115H112.415C107.301 114.98 102.979 111.187 103 106.739L103.167 72.3085L103.256 53.9954L103.451 14.0225C103.472 9.57168 107.639 5.97934 112.756 6.00009L155.276 6.17062C160.39 6.19137 164.517 9.81274 164.496 14.2606V14.261Z" fill="#3A4C51"/>
    <path d="M155.214 10.0593L112.779 9.88873C109.195 9.87462 106.277 12.3898 106.262 15.5071L105.822 106.005C105.807 109.121 108.698 111.657 112.279 111.671L154.714 111.841C158.298 111.856 161.216 109.34 161.231 106.223L161.671 15.7249C161.686 12.6097 158.795 10.0738 155.214 10.0593Z" fill="white"/>
    <path d="M164.787 21.2802H163.925C163.618 21.2802 163.37 21.5281 163.37 21.8341V31.6364C163.37 31.9423 163.618 32.1903 163.925 32.1903H164.787C165.093 32.1903 165.341 31.9423 165.341 31.6364V21.8341C165.341 21.5281 165.093 21.2802 164.787 21.2802Z" fill="#3A4C51"/>
    <path d="M164.787 35.735H163.925C163.618 35.735 163.37 35.983 163.37 36.2889V46.0913C163.37 46.3972 163.618 46.6452 163.925 46.6452H164.787C165.093 46.6452 165.341 46.3972 165.341 46.0913V36.2889C165.341 35.983 165.093 35.735 164.787 35.735Z" fill="#3A4C51"/>
    <path d="M137.286 8.76309H130.018C129.607 8.76309 129.27 8.44194 129.27 8.04985C129.27 7.65775 129.606 7.33661 130.018 7.33661H137.286C137.697 7.33661 138.034 7.65775 138.034 8.04985C138.034 8.44194 137.698 8.76309 137.286 8.76309Z" fill="#403D40"/>
    <path d="M116.581 16.4294H111.71C111.572 16.4294 111.46 16.3174 111.46 16.1792C111.46 16.041 111.572 15.929 111.71 15.929H116.581C116.719 15.929 116.832 16.041 116.832 16.1792C116.832 16.3174 116.719 16.4294 116.581 16.4294Z" fill="#A3A3A3"/>
    <path d="M116.581 18.2745H111.71C111.572 18.2745 111.46 18.1625 111.46 18.0243C111.46 17.8861 111.572 17.7741 111.71 17.7741H116.581C116.719 17.7741 116.832 17.8861 116.832 18.0243C116.832 18.1625 116.719 18.2745 116.581 18.2745Z" fill="#A3A3A3"/>
    <path d="M116.581 20.1192H111.71C111.572 20.1192 111.46 20.0072 111.46 19.869C111.46 19.7309 111.572 19.6188 111.71 19.6188H116.581C116.719 19.6188 116.832 19.7309 116.832 19.869C116.832 20.0072 116.719 20.1192 116.581 20.1192Z" fill="#A3A3A3"/>
    <g opacity="0.72">
    <path d="M154.326 21.3752H130.47C129.044 21.3752 127.884 20.2164 127.884 18.792V17.2564C127.884 15.832 129.044 14.6731 130.47 14.6731H154.326C155.752 14.6731 156.912 15.832 156.912 17.2564V18.792C156.912 20.2164 155.752 21.3752 154.326 21.3752ZM130.47 15.0544C129.255 15.0544 128.266 16.0423 128.266 17.2564V18.792C128.266 20.006 129.255 20.9939 130.47 20.9939H154.326C155.541 20.9939 156.53 20.006 156.53 18.792V17.2564C156.53 16.0423 155.541 15.0544 154.326 15.0544H130.47Z" fill="#B2B2B2"/>
    </g>
    <path d="M153.702 18.8698C153.99 19.1495 154.277 19.4183 154.55 19.7005C154.624 19.776 154.694 19.8921 154.695 19.9901C154.695 20.0726 154.61 20.1896 154.531 20.2282C154.469 20.2589 154.335 20.2203 154.275 20.166C154.017 19.9303 153.764 19.6864 153.529 19.4274C153.382 19.2656 153.269 19.2387 153.067 19.3528C152.275 19.7996 151.32 19.6154 150.738 18.9275C150.15 18.2325 150.131 17.2579 150.691 16.5309C151.23 15.833 152.211 15.609 153.011 16.0007C153.981 16.4749 154.442 17.7782 153.702 18.8702V18.8698ZM152.201 16.2853C151.443 16.2733 150.777 16.9106 150.762 17.6628C150.747 18.4387 151.405 19.1175 152.178 19.1246C152.958 19.1316 153.594 18.4993 153.6 17.7105C153.605 16.9653 152.95 16.2973 152.201 16.2857V16.2853Z" fill="#B2B2B2"/>
    <path opacity="0.78" d="M114.377 25.9953H153.292C155.29 25.9953 156.912 27.616 156.912 29.6117V46.8336C156.912 48.8297 155.29 50.45 153.292 50.45H114.377C112.379 50.45 110.757 48.8293 110.757 46.8336V29.6117C110.757 27.6155 112.38 25.9953 114.377 25.9953Z" fill="#EBEBEB"/>
    <path d="M148.698 42.0422C147.856 42.4392 146.583 42.4894 146.583 42.4894C146.583 42.4894 146.559 42.4894 146.516 42.4886C146.582 42.2305 146.616 41.9588 146.614 41.6787C146.599 39.9688 145.241 38.6054 143.573 38.6233C141.926 38.6407 140.595 40.0149 140.595 41.7073C140.595 41.9575 140.625 42.2007 140.68 42.4338C136.174 42.3899 130 42.3251 125.53 42.2608C125.562 42.0812 125.58 41.8965 125.58 41.7073C125.58 40.2862 124.642 39.09 123.367 38.7324C123.292 38.7116 123.217 38.6934 123.141 38.6784C123.077 38.666 123.013 38.6556 122.949 38.6473C122.883 38.639 122.817 38.6324 122.75 38.6287C122.735 38.6274 122.719 38.6266 122.704 38.6262C122.698 38.6262 122.692 38.6257 122.686 38.6253C122.673 38.6249 122.661 38.6245 122.648 38.6241C122.636 38.6241 122.625 38.6237 122.614 38.6233C122.61 38.6233 122.605 38.6233 122.601 38.6233C122.59 38.6233 122.58 38.6233 122.57 38.6233C122.271 38.6233 121.983 38.6681 121.71 38.7511C121.687 38.7581 121.663 38.766 121.64 38.7735C121.628 38.7772 121.616 38.7813 121.604 38.7855C121.581 38.7934 121.558 38.8021 121.535 38.8104C121.477 38.832 121.421 38.8556 121.365 38.8805C121.342 38.8905 121.32 38.9008 121.298 38.9116C121.276 38.922 121.254 38.9332 121.232 38.944C121.21 38.9548 121.189 38.9664 121.167 38.978C121.081 39.0245 120.998 39.0751 120.917 39.1295C120.898 39.1431 120.877 39.1568 120.858 39.1709C120.838 39.1851 120.818 39.1992 120.799 39.2141C120.779 39.2286 120.76 39.2436 120.741 39.2585C120.721 39.2734 120.702 39.2888 120.684 39.3041C120.665 39.3195 120.646 39.3353 120.628 39.3514C120.582 39.3913 120.537 39.4323 120.493 39.4751C120.476 39.4921 120.459 39.5095 120.442 39.5269C120.416 39.5531 120.391 39.5796 120.367 39.607C120.35 39.6249 120.334 39.6431 120.318 39.6618C120.055 39.9663 119.849 40.3248 119.719 40.719C119.713 40.7372 119.707 40.7555 119.702 40.7738C119.698 40.7854 119.694 40.7966 119.691 40.8082C119.686 40.8269 119.68 40.8451 119.675 40.8638C119.668 40.8883 119.662 40.9128 119.655 40.9372C119.649 40.9621 119.643 40.9866 119.638 41.0115C119.635 41.024 119.632 41.0364 119.63 41.0493C119.621 41.0891 119.614 41.1293 119.606 41.1696C119.602 41.1966 119.598 41.2235 119.594 41.2505C119.591 41.2642 119.59 41.2779 119.588 41.2912C119.57 41.4277 119.561 41.5667 119.561 41.7081C119.561 41.7206 119.561 41.7293 119.56 41.7372C119.559 41.7426 119.558 41.7484 119.557 41.7538C119.556 41.7621 119.555 41.77 119.552 41.7779C119.541 41.8235 119.517 41.8629 119.486 41.8936C119.485 41.8953 119.484 41.8965 119.482 41.8978C119.472 41.9073 119.461 41.916 119.449 41.9235C119.44 41.9301 119.43 41.9359 119.419 41.9409C119.383 41.9583 119.342 41.9671 119.301 41.9642C119.296 41.9642 119.291 41.9633 119.286 41.9625C119.278 41.9617 119.271 41.96 119.263 41.9583C119.258 41.9571 119.253 41.9559 119.248 41.9542C119.246 41.9534 119.244 41.9529 119.242 41.9521C119.235 41.95 119.229 41.9476 119.222 41.9447C119.214 41.9409 119.205 41.9364 119.197 41.9314C119.191 41.9281 119.185 41.9247 119.18 41.9214C119.175 41.9181 119.169 41.9148 119.163 41.911C119.161 41.9094 119.158 41.9077 119.155 41.9061C119.148 41.9011 119.139 41.8961 119.131 41.8907C119.118 41.8816 119.104 41.8725 119.091 41.8629C119.079 41.8546 119.071 41.8484 119.062 41.8422C119.058 41.8397 119.055 41.8372 119.052 41.8343C119.039 41.8247 119.026 41.8148 119.014 41.8048C118.884 41.7015 118.771 41.5783 118.678 41.4397C118.543 41.2372 118.464 41.0049 118.441 40.7659C118.424 40.5771 118.442 40.3842 118.497 40.1987C118.699 39.5095 120.371 33.7327 120.451 33.4787C120.452 33.4771 120.452 33.475 120.453 33.4733C120.503 33.3821 120.557 33.2879 120.614 33.1887C120.642 33.1451 120.669 33.102 120.695 33.0584C120.699 33.0522 120.702 33.0464 120.706 33.0402C120.718 33.0207 120.73 33.0007 120.742 32.9808C120.759 32.9522 120.776 32.9232 120.793 32.8941C120.809 32.868 120.824 32.8422 120.839 32.8161C120.846 32.8032 120.854 32.79 120.862 32.7771C120.866 32.7692 120.871 32.7613 120.876 32.7539C120.878 32.7497 120.881 32.746 120.883 32.7418C120.886 32.7369 120.89 32.7319 120.893 32.7269C120.895 32.7232 120.898 32.7194 120.9 32.7157C120.906 32.7062 120.912 32.6983 120.917 32.6904C120.922 32.6829 120.927 32.675 120.933 32.6676C120.937 32.6613 120.942 32.6547 120.947 32.6485C120.949 32.6447 120.952 32.6406 120.955 32.6369C120.965 32.624 120.974 32.612 120.984 32.5995C120.988 32.5945 120.992 32.5896 120.996 32.585C120.998 32.5821 121.001 32.5792 121.003 32.5767C121.007 32.573 121.01 32.5692 121.013 32.5655C121.023 32.5539 121.031 32.5443 121.04 32.5348C121.044 32.5306 121.047 32.5265 121.051 32.5228C121.055 32.5182 121.06 32.5132 121.064 32.5087C121.069 32.5041 121.073 32.4995 121.077 32.4954C121.079 32.4933 121.081 32.4916 121.083 32.49C121.084 32.4879 121.086 32.4862 121.088 32.4846C121.09 32.4829 121.091 32.4809 121.094 32.4792C121.101 32.4717 121.108 32.4638 121.116 32.4568C121.124 32.4493 121.132 32.4419 121.139 32.4348C121.147 32.4277 121.155 32.4203 121.162 32.4132C121.17 32.4062 121.178 32.3991 121.186 32.3925C121.194 32.3858 121.202 32.3788 121.209 32.3726C121.219 32.3647 121.229 32.3564 121.238 32.3485C121.245 32.3431 121.251 32.3381 121.258 32.3327C121.264 32.3278 121.27 32.3232 121.276 32.3182C121.282 32.3136 121.289 32.3087 121.295 32.3041C121.301 32.2995 121.307 32.295 121.314 32.2904C121.326 32.2813 121.339 32.2722 121.352 32.2634C121.362 32.2568 121.372 32.2497 121.382 32.2435C121.635 32.0763 121.928 31.9751 122.23 31.939C128.767 31.1606 132.272 31.6112 133.738 32.0199C134.327 32.1842 134.845 32.3755 135.317 32.602C136.401 33.1215 137.938 34.1156 138.826 34.7604C138.942 34.8455 139.054 34.9264 139.158 35.0031C139.335 35.1338 139.679 35.2911 140.069 35.445C140.853 35.7541 146.592 36.642 148.093 37.5266C148.099 37.53 148.105 37.5337 148.111 37.537C148.156 37.5636 148.196 37.5868 148.235 37.6088C148.395 37.6984 148.458 37.8283 148.663 38.0743C148.709 38.1303 148.931 38.8096 148.935 38.8436C149.059 39.8224 148.986 41.3891 149.046 41.5737C149.047 41.5775 149.048 41.5812 149.049 41.5849C149.116 41.7845 148.885 41.9534 148.698 42.0417V42.0422Z" fill="#4B5E63"/>
    <path d="M145.285 43.5273C146.216 42.5972 146.216 41.0893 145.285 40.1592C144.354 39.2291 142.845 39.2291 141.914 40.1592C140.983 41.0893 140.983 42.5972 141.914 43.5273C142.845 44.4574 144.354 44.4574 145.285 43.5273Z" fill="#324347"/>
    <path d="M143.605 40.4129C142.814 40.4108 142.169 41.0514 142.167 41.8402C142.166 42.6277 142.807 43.2725 143.592 43.2737C144.385 43.275 145.03 42.6352 145.031 41.8464C145.031 41.0589 144.391 40.415 143.605 40.4125V40.4129Z" fill="white"/>
    <path d="M124.778 42.7548C125.281 41.5396 124.704 40.1464 123.488 39.6431C122.271 39.1397 120.877 39.7168 120.373 40.932C119.869 42.1472 120.447 43.5404 121.663 44.0437C122.88 44.5471 124.274 43.97 124.778 42.7548Z" fill="#324347"/>
    <path d="M122.582 40.4129C121.79 40.4108 121.145 41.0514 121.144 41.8402C121.143 42.6277 121.783 43.2725 122.569 43.2737C123.361 43.275 124.006 42.6352 124.007 41.8464C124.008 41.0589 123.368 40.415 122.582 40.4125V40.4129Z" fill="white"/>
    <path d="M138.474 36.5139C138.375 35.7065 137.112 34.953 137.051 34.9173C135.751 33.9543 133.734 32.6424 131.791 32.5598C129.117 32.4465 125.627 32.3967 123.051 32.7316C122.851 32.7573 122.657 32.8237 122.485 32.9415C122.054 33.2357 121.887 33.6456 121.961 34.061C122.023 34.4132 122.257 34.7186 122.586 34.897L123.462 35.3709C123.885 35.4933 123.924 35.6621 124.771 35.8144C128.116 36.416 138.045 36.9633 138.045 36.9633C138.148 36.9654 138.278 36.8894 138.353 36.8206C138.439 36.7413 138.488 36.6285 138.474 36.5139Z" fill="white"/>
    <path d="M128.681 32.0403L129.307 37.6172H130.049H130.323L129.502 32.0403H128.681Z" fill="#41545B"/>
    <g opacity="0.52">
    <path d="M121.234 56.4418H113.795C113.7 56.4418 113.622 56.3647 113.622 56.2697C113.622 56.1746 113.7 56.0975 113.795 56.0975H121.234C121.329 56.0975 121.406 56.1746 121.406 56.2697C121.406 56.3647 121.329 56.4418 121.234 56.4418Z" fill="#41545B"/>
    <path d="M121.234 58.1441H113.795C113.7 58.1441 113.622 58.0669 113.622 57.9719C113.622 57.8769 113.7 57.7997 113.795 57.7997H121.234C121.329 57.7997 121.406 57.8769 121.406 57.9719C121.406 58.0669 121.329 58.1441 121.234 58.1441Z" fill="#41545B"/>
    <path d="M124.603 54.7124H113.795C113.7 54.7124 113.622 54.6352 113.622 54.5402C113.622 54.4452 113.7 54.368 113.795 54.368H124.603C124.698 54.368 124.776 54.4452 124.776 54.5402C124.776 54.6352 124.698 54.7124 124.603 54.7124Z" fill="#41545B"/>
    </g>
    <path opacity="0.78" d="M111.46 54.1319H110.757V58.435H111.46V54.1319Z" fill="#EBEBEB"/>
    <g opacity="0.52">
    <path d="M145.519 56.4418H138.08C137.985 56.4418 137.907 56.3647 137.907 56.2697C137.907 56.1746 137.985 56.0975 138.08 56.0975H145.519C145.614 56.0975 145.691 56.1746 145.691 56.2697C145.691 56.3647 145.614 56.4418 145.519 56.4418Z" fill="#41545B"/>
    <path d="M145.519 58.1441H138.08C137.985 58.1441 137.907 58.0669 137.907 57.9719C137.907 57.8769 137.985 57.7997 138.08 57.7997H145.519C145.614 57.7997 145.691 57.8769 145.691 57.9719C145.691 58.0669 145.614 58.1441 145.519 58.1441Z" fill="#41545B"/>
    <path d="M148.889 54.7124H138.08C137.985 54.7124 137.907 54.6352 137.907 54.5402C137.907 54.4452 137.985 54.368 138.08 54.368H148.889C148.984 54.368 149.061 54.4452 149.061 54.5402C149.061 54.6352 148.984 54.7124 148.889 54.7124Z" fill="#41545B"/>
    </g>
    <path opacity="0.78" d="M135.745 54.1319H135.042V58.435H135.745V54.1319Z" fill="#EBEBEB"/>
    <path opacity="0.78" d="M154.737 61.202H136.914C135.885 61.202 135.043 62.0099 135.043 62.9974V65.9333C135.043 66.9208 135.885 67.7286 136.914 67.7286H154.737C155.766 67.7286 156.609 66.9208 156.609 65.9333V62.9974C156.609 62.0099 155.766 61.202 154.737 61.202Z" fill="#EBEBEB"/>
    <path opacity="0.78" d="M130.318 61.202H112.495C111.465 61.202 110.623 62.0099 110.623 62.9974V65.9333C110.623 66.9208 111.465 67.7286 112.495 67.7286H130.318C131.347 67.7286 132.189 66.9208 132.189 65.9333V62.9974C132.189 62.0099 131.347 61.202 130.318 61.202Z" fill="#EBEBEB"/>
    <path opacity="0.78" d="M153.015 73.9948H114.099C112.1 73.9948 110.48 75.6139 110.48 77.6112V94.833C110.48 96.8303 112.1 98.4494 114.099 98.4494H153.015C155.014 98.4494 156.634 96.8303 156.634 94.833V77.6112C156.634 75.6139 155.014 73.9948 153.015 73.9948Z" fill="#EBEBEB"/>
    <path d="M149.135 90.2474C148.323 90.6304 147.095 90.6789 147.095 90.6789C147.095 90.6789 147.073 90.6789 147.031 90.6785C147.095 90.4296 147.127 90.1677 147.125 89.8972C147.111 88.2479 145.801 86.9326 144.192 86.9497C142.603 86.9663 141.32 88.2919 141.32 89.9246C141.32 90.1661 141.348 90.4005 141.402 90.6254C137.055 90.5827 131.1 90.5204 126.788 90.4586C126.819 90.2852 126.836 90.1072 126.836 89.9246C126.836 88.5541 125.932 87.3998 124.701 87.0546C124.63 87.0347 124.557 87.0173 124.484 87.0028C124.423 86.9907 124.361 86.9808 124.299 86.9725C124.235 86.9642 124.172 86.9584 124.107 86.9546C124.092 86.9538 124.078 86.953 124.063 86.9522C124.057 86.9522 124.051 86.9517 124.045 86.9513C124.033 86.9509 124.021 86.9505 124.009 86.9501C123.998 86.9497 123.987 86.9497 123.976 86.9492C123.972 86.9492 123.968 86.9492 123.963 86.9492C123.954 86.9492 123.944 86.9492 123.934 86.9492C123.645 86.9492 123.367 86.9924 123.104 87.0725C123.081 87.0795 123.059 87.0866 123.036 87.0941C123.025 87.0978 123.013 87.1015 123.002 87.1057C122.98 87.1136 122.957 87.1214 122.935 87.1297C122.88 87.1505 122.825 87.1733 122.771 87.1974C122.749 87.2069 122.728 87.2169 122.706 87.2272C122.685 87.2376 122.664 87.248 122.643 87.2588C122.622 87.2696 122.601 87.2803 122.58 87.2916C122.497 87.3364 122.417 87.3853 122.339 87.4376C122.319 87.4509 122.3 87.4642 122.281 87.4778C122.262 87.4915 122.243 87.5052 122.224 87.5193C122.206 87.5334 122.187 87.5476 122.168 87.5621C122.15 87.5766 122.131 87.5911 122.113 87.6061C122.095 87.621 122.077 87.6363 122.06 87.6517C122.015 87.6903 121.972 87.7301 121.93 87.7708C121.914 87.7874 121.897 87.804 121.88 87.8206C121.856 87.8459 121.831 87.8716 121.808 87.8977C121.792 87.9152 121.776 87.9326 121.761 87.9504C121.507 88.2442 121.308 88.5898 121.183 88.9703C121.177 88.9877 121.171 89.0056 121.166 89.023C121.162 89.0342 121.159 89.045 121.156 89.0562C121.15 89.074 121.145 89.0919 121.14 89.1101C121.134 89.1338 121.128 89.1574 121.122 89.1811C121.116 89.2047 121.11 89.2288 121.105 89.2529C121.102 89.2649 121.099 89.2769 121.097 89.289C121.089 89.3275 121.081 89.3661 121.074 89.4051C121.07 89.4313 121.066 89.457 121.062 89.4836C121.06 89.4968 121.058 89.5097 121.057 89.523C121.039 89.6545 121.03 89.7889 121.03 89.925C121.03 89.937 121.03 89.9453 121.029 89.9532C121.029 89.9586 121.028 89.964 121.027 89.969C121.026 89.9769 121.024 89.9848 121.023 89.9922C121.011 90.0362 120.988 90.0744 120.959 90.1038C120.957 90.1051 120.956 90.1067 120.954 90.108C120.945 90.1171 120.934 90.1254 120.923 90.1329C120.914 90.1391 120.904 90.1449 120.894 90.1499C120.859 90.1669 120.82 90.1748 120.78 90.1723C120.775 90.1723 120.77 90.1715 120.765 90.1711C120.758 90.1702 120.751 90.1686 120.744 90.1673C120.739 90.1661 120.734 90.1648 120.729 90.1632C120.727 90.1623 120.725 90.1619 120.723 90.1611C120.717 90.159 120.711 90.1565 120.704 90.1536C120.696 90.1499 120.688 90.1458 120.679 90.1412C120.674 90.1379 120.669 90.135 120.663 90.1316C120.658 90.1283 120.653 90.125 120.648 90.1217C120.645 90.12 120.643 90.1184 120.64 90.1167C120.632 90.1117 120.624 90.1072 120.616 90.1018C120.603 90.0931 120.59 90.0843 120.577 90.0748C120.566 90.0669 120.557 90.0611 120.55 90.0549C120.546 90.0524 120.542 90.0499 120.539 90.047C120.527 90.0379 120.515 90.0279 120.503 90.0184C120.377 89.9188 120.268 89.8001 120.178 89.6661C120.048 89.4707 119.971 89.2466 119.95 89.0164C119.934 88.8342 119.951 88.6483 120.004 88.4695C120.199 87.8048 120.637 86.2829 120.637 85.9891C120.637 85.9891 120.94 85.0199 121.25 84.0253C121.28 83.9324 121.309 83.839 121.338 83.7461C121.58 82.9698 121.811 82.2321 121.889 81.9873C121.889 81.9856 121.89 81.984 121.89 81.9823C121.939 81.8943 121.991 81.8031 122.046 81.708C122.073 81.6661 122.099 81.6242 122.124 81.5823C122.128 81.5765 122.132 81.5707 122.135 81.5649C122.147 81.5458 122.158 81.5267 122.169 81.5076C122.186 81.4798 122.203 81.452 122.219 81.4238C122.234 81.3989 122.248 81.3736 122.263 81.3487C122.27 81.3363 122.277 81.3234 122.285 81.311C122.29 81.3035 122.294 81.296 122.299 81.2886C122.301 81.2848 122.303 81.2811 122.306 81.2769C122.309 81.272 122.312 81.2674 122.315 81.2624C122.317 81.2587 122.319 81.2554 122.322 81.2516C122.328 81.2425 122.333 81.235 122.338 81.2276C122.343 81.2201 122.348 81.213 122.353 81.2056C122.358 81.1994 122.362 81.1935 122.367 81.1873C122.37 81.1836 122.373 81.1799 122.375 81.1761C122.384 81.1641 122.394 81.1521 122.403 81.1404C122.407 81.1359 122.411 81.1309 122.415 81.1263C122.417 81.1234 122.419 81.1209 122.422 81.1184C122.425 81.1147 122.428 81.111 122.431 81.1077C122.44 81.0965 122.449 81.0873 122.457 81.0782C122.461 81.0745 122.464 81.0703 122.468 81.0666C122.472 81.062 122.476 81.0575 122.48 81.0529C122.484 81.0487 122.488 81.0442 122.493 81.04C122.494 81.0384 122.496 81.0363 122.498 81.0346C122.499 81.0326 122.501 81.0309 122.503 81.0292C122.505 81.0276 122.506 81.0259 122.508 81.0238C122.515 81.0164 122.522 81.0093 122.53 81.0023C122.537 80.9952 122.545 80.9882 122.552 80.9811C122.559 80.9741 122.567 80.9674 122.574 80.9604C122.582 80.9533 122.589 80.9467 122.597 80.94C122.604 80.9334 122.612 80.9272 122.62 80.9205C122.629 80.9127 122.638 80.9052 122.647 80.8973C122.654 80.8923 122.66 80.8869 122.667 80.8819C122.672 80.8774 122.679 80.8728 122.684 80.8683C122.691 80.8637 122.696 80.8591 122.702 80.8546C122.708 80.85 122.714 80.8458 122.72 80.8413C122.732 80.8326 122.745 80.8239 122.757 80.8156C122.766 80.8089 122.776 80.8027 122.785 80.7961C123.03 80.6347 123.312 80.5371 123.603 80.5023C129.909 79.7517 133.291 80.1861 134.704 80.5803C135.273 80.7388 135.773 80.9234 136.228 81.1421C137.273 81.6433 138.756 82.6022 139.612 83.2241C139.725 83.3063 139.832 83.3843 139.932 83.4582C140.104 83.5843 140.435 83.7357 140.812 83.8843C141.568 84.1826 147.104 85.039 148.552 85.892C148.558 85.8954 148.564 85.8987 148.569 85.902C148.612 85.9277 148.651 85.9497 148.689 85.9713C148.843 86.058 148.904 86.1833 149.101 86.4206C149.146 86.4746 149.36 87.1297 149.364 87.1629C149.484 88.1073 149.413 89.6184 149.471 89.7964C149.472 89.8001 149.473 89.8034 149.474 89.8072C149.539 89.9997 149.315 90.1628 149.135 90.2478L149.135 90.2474Z" fill="url(#paint29_linear_14729_26408)"/>
    <path d="M124.311 86.9835C124.247 86.9752 124.182 86.9686 124.116 86.9648C124.101 86.964 124.087 86.9632 124.072 86.9623C124.066 86.9623 124.06 86.9619 124.054 86.9615C124.042 86.9611 124.03 86.9607 124.018 86.9603C124.007 86.9599 123.996 86.9599 123.985 86.9594C123.981 86.9594 123.977 86.9594 123.973 86.9594C123.963 86.9594 123.953 86.9594 123.943 86.9594C123.654 86.9594 123.376 87.0026 123.114 87.0827C123.091 87.0897 123.068 87.0968 123.046 87.1042C123.034 87.108 123.023 87.1117 123.012 87.1159C122.99 87.1237 122.967 87.1316 122.945 87.1399C122.89 87.1607 122.835 87.1835 122.781 87.2076C122.759 87.2171 122.738 87.2271 122.716 87.2374C122.695 87.2478 122.674 87.2582 122.653 87.269C122.632 87.2798 122.611 87.2905 122.59 87.3017C122.507 87.3466 122.427 87.3955 122.349 87.4478C122.329 87.4611 122.31 87.4743 122.291 87.488C122.272 87.5017 122.253 87.5154 122.234 87.5295C122.216 87.5436 122.197 87.5577 122.178 87.5723C122.16 87.5868 122.141 87.6013 122.123 87.6163C122.105 87.6312 122.087 87.6465 122.07 87.6619C122.025 87.7005 121.982 87.7399 121.94 87.781C121.924 87.7976 121.907 87.8142 121.89 87.8308C121.866 87.8561 121.841 87.8818 121.818 87.9079C121.802 87.9254 121.786 87.9428 121.771 87.9606C121.517 88.2544 121.318 88.6 121.193 88.9805C121.187 88.9979 121.181 89.0158 121.176 89.0332C121.172 89.0444 121.169 89.0552 121.166 89.0664C121.16 89.0842 121.155 89.1021 121.15 89.1203C121.144 89.144 121.137 89.1676 121.132 89.1913C121.126 89.2153 121.12 89.239 121.115 89.263C121.112 89.2751 121.109 89.2871 121.107 89.2991C121.098 89.3377 121.091 89.3763 121.084 89.4153C121.08 89.4415 121.076 89.4672 121.072 89.4937C121.07 89.507 121.068 89.5199 121.066 89.5332C121.049 89.6647 121.04 89.7987 121.04 89.9352C121.04 89.9472 121.04 89.9555 121.039 89.9634C121.039 89.9688 121.038 89.9742 121.037 89.9792C121.036 89.9871 121.034 89.995 121.032 90.0024C121.021 90.0464 120.998 90.0846 120.968 90.114C120.967 90.1153 120.966 90.1169 120.964 90.1182C120.955 90.1273 120.944 90.1356 120.933 90.1431C120.924 90.1493 120.914 90.1551 120.904 90.1601C120.869 90.1771 120.83 90.185 120.79 90.1825C120.785 90.1825 120.78 90.1817 120.775 90.1813C120.768 90.1804 120.761 90.1788 120.754 90.1771C120.749 90.1759 120.744 90.1746 120.739 90.1734C120.737 90.1725 120.735 90.1721 120.733 90.1713C120.727 90.1692 120.721 90.1667 120.714 90.1638C120.706 90.1601 120.698 90.1559 120.689 90.151C120.684 90.1476 120.679 90.1447 120.673 90.1414C120.668 90.1381 120.662 90.1348 120.657 90.1315C120.647 90.1248 120.637 90.1186 120.627 90.112C120.613 90.1032 120.6 90.0945 120.587 90.085C120.576 90.0771 120.568 90.0713 120.56 90.0651C120.557 90.0626 120.553 90.0601 120.549 90.0576C120.22 89.8095 120.012 89.4336 119.961 89.027C119.939 88.8544 119.946 88.6759 119.983 88.4996C120.064 88.1179 120.221 87.3993 120.419 86.5682C120.577 85.9064 120.762 85.1736 120.956 84.4832C120.964 84.455 120.972 84.4268 120.98 84.399C120.987 84.3754 120.994 84.3513 121 84.3276C121.007 84.3052 121.013 84.2841 121.019 84.2629C121.024 84.2467 121.028 84.2305 121.033 84.2148C121.155 83.7949 121.28 83.3966 121.404 83.0476C121.486 82.8319 121.583 82.6103 121.705 82.3647C121.767 82.2319 121.828 82.1166 121.887 82.0186C121.892 82.0103 121.896 82.002 121.901 81.9933C121.949 81.9054 122.001 81.8141 122.056 81.7191C122.083 81.6772 122.109 81.6353 122.135 81.5933C122.138 81.5875 122.142 81.5817 122.145 81.5759C122.157 81.5568 122.169 81.5377 122.18 81.5187C122.196 81.4909 122.213 81.4631 122.229 81.4348C122.244 81.41 122.259 81.3846 122.273 81.3597C122.281 81.3473 122.288 81.3344 122.295 81.322C122.3 81.3145 122.304 81.3071 122.309 81.2996C122.311 81.2958 122.314 81.2921 122.316 81.288C122.319 81.283 122.322 81.2784 122.325 81.2734C122.327 81.2697 122.33 81.2664 122.332 81.2627C122.338 81.2535 122.343 81.2461 122.348 81.2386C122.353 81.2311 122.358 81.2241 122.364 81.2166C122.368 81.2104 122.373 81.2046 122.377 81.1983C122.38 81.1946 122.383 81.1909 122.385 81.1871C122.395 81.1751 122.404 81.1631 122.414 81.1515C122.417 81.1469 122.422 81.1419 122.425 81.1374C122.427 81.1345 122.43 81.132 122.432 81.1295C122.435 81.1257 122.438 81.122 122.441 81.1187C122.451 81.1075 122.459 81.0984 122.467 81.0892C122.471 81.0855 122.474 81.0813 122.478 81.0776C122.482 81.073 122.486 81.0685 122.491 81.0639C122.495 81.0598 122.499 81.0552 122.503 81.051C122.505 81.0494 122.507 81.0473 122.508 81.0457C122.51 81.044 122.512 81.0419 122.514 81.0403C122.515 81.0386 122.517 81.0369 122.519 81.0349C122.526 81.0274 122.533 81.0203 122.541 81.0133C122.548 81.0062 122.556 80.9992 122.563 80.9921C122.57 80.9851 122.578 80.9784 122.585 80.9714C122.593 80.9643 122.6 80.9577 122.608 80.9511C122.615 80.9444 122.623 80.9382 122.63 80.9316C122.639 80.9237 122.648 80.9162 122.658 80.9083C122.664 80.9033 122.671 80.8979 122.677 80.893C122.683 80.8884 122.689 80.8838 122.695 80.8793C122.701 80.8747 122.707 80.8701 122.713 80.8656C122.719 80.861 122.725 80.8569 122.73 80.8523C122.743 80.8436 122.755 80.8349 122.767 80.8266C122.777 80.8199 122.786 80.8137 122.796 80.8071C122.93 80.7191 123.075 80.6502 123.226 80.6C123.238 80.6482 120.273 86.2391 124.308 86.9839C124.309 86.9839 124.31 86.9843 124.311 86.9847V86.9835Z" fill="url(#paint30_linear_14729_26408)"/>
    <path d="M149.581 88.7872C149.597 89.1872 149.569 89.8261 149.57 89.8299C149.586 90.0257 149.134 90.2701 148.953 90.3551C148.142 90.7381 147.105 90.6887 147.105 90.6887C147.105 90.6887 147.083 90.6887 147.041 90.6883C147.103 90.4477 147.135 90.195 147.135 89.9348C147.135 89.4531 147.023 88.9988 146.825 88.5963C147.928 88.7519 149.569 88.4934 149.581 88.7872Z" fill="url(#paint31_linear_14729_26408)"/>
    <path d="M144.218 92.3522C145.487 92.3522 146.516 91.3238 146.516 90.0552C146.516 88.7866 145.487 87.7582 144.218 87.7582C142.948 87.7582 141.919 88.7866 141.919 90.0552C141.919 91.3238 142.948 92.3522 144.218 92.3522Z" fill="#324347"/>
    <path d="M144.223 88.6756C143.46 88.6735 142.837 89.2918 142.836 90.0527C142.835 90.8124 143.454 91.4344 144.211 91.4356C144.975 91.4369 145.598 90.8199 145.598 90.0589C145.599 89.2992 144.981 88.6781 144.223 88.676V88.6756Z" fill="white"/>
    <path d="M123.938 92.3522C125.207 92.3522 126.237 91.3238 126.237 90.0552C126.237 88.7866 125.207 87.7582 123.938 87.7582C122.668 87.7582 121.639 88.7866 121.639 90.0552C121.639 91.3238 122.668 92.3522 123.938 92.3522Z" fill="#324347"/>
    <path d="M123.944 88.6756C123.181 88.6735 122.558 89.2918 122.557 90.0527C122.556 90.8124 123.174 91.4344 123.931 91.4356C124.696 91.4369 125.318 90.8199 125.319 90.0589C125.32 89.2992 124.702 88.6781 123.944 88.676V88.6756Z" fill="white"/>
    <path d="M139.273 84.9144C139.178 84.1357 137.959 83.4087 137.901 83.3743C136.646 82.4453 134.701 81.1798 132.827 81.1006C130.247 80.9914 126.88 80.9429 124.396 81.2661C124.203 81.291 124.016 81.3549 123.85 81.4686C123.435 81.7524 123.273 82.1478 123.344 82.5482C123.405 82.888 123.63 83.1826 123.948 83.3548L124.792 83.812C125.201 83.9299 125.239 84.0929 126.055 84.2398C129.281 84.8203 138.859 85.348 138.859 85.348C138.959 85.3501 139.084 85.2767 139.157 85.2103C139.24 85.1339 139.286 85.0248 139.273 84.9144Z" fill="white"/>
    <path d="M129.828 80.5992L130.43 85.979H131.147H131.411L130.619 80.5992H129.828Z" fill="url(#paint32_linear_14729_26408)"/>
    <g opacity="0.52">
    <path d="M120.957 104.441H113.517C113.422 104.441 113.345 104.364 113.345 104.269C113.345 104.174 113.422 104.097 113.517 104.097H120.957C121.052 104.097 121.129 104.174 121.129 104.269C121.129 104.364 121.052 104.441 120.957 104.441Z" fill="#41545B"/>
    <path d="M120.957 106.144H113.517C113.422 106.144 113.345 106.067 113.345 105.972C113.345 105.876 113.422 105.799 113.517 105.799H120.957C121.052 105.799 121.129 105.876 121.129 105.972C121.129 106.067 121.052 106.144 120.957 106.144Z" fill="#41545B"/>
    <path d="M124.326 102.712H113.517C113.422 102.712 113.345 102.635 113.345 102.54C113.345 102.445 113.422 102.367 113.517 102.367H124.326C124.421 102.367 124.498 102.445 124.498 102.54C124.498 102.635 124.421 102.712 124.326 102.712Z" fill="#41545B"/>
    </g>
    <path opacity="0.78" d="M111.182 102.131H110.48V106.434H111.182V102.131Z" fill="#EBEBEB"/>
    <g opacity="0.52">
    <path d="M145.242 104.441H137.803C137.707 104.441 137.63 104.364 137.63 104.269C137.63 104.174 137.707 104.097 137.803 104.097H145.242C145.337 104.097 145.414 104.174 145.414 104.269C145.414 104.364 145.337 104.441 145.242 104.441Z" fill="#41545B"/>
    <path d="M145.242 106.144H137.803C137.707 106.144 137.63 106.067 137.63 105.972C137.63 105.876 137.707 105.799 137.803 105.799H145.242C145.337 105.799 145.414 105.876 145.414 105.972C145.414 106.067 145.337 106.144 145.242 106.144Z" fill="#41545B"/>
    <path d="M148.611 102.712H137.803C137.707 102.712 137.63 102.635 137.63 102.54C137.63 102.445 137.707 102.367 137.803 102.367H148.611C148.706 102.367 148.784 102.445 148.784 102.54C148.784 102.635 148.706 102.712 148.611 102.712Z" fill="#41545B"/>
    </g>
    <path opacity="0.78" d="M135.467 102.131H134.765V106.434H135.467V102.131Z" fill="#EBEBEB"/>
    <path d="M81.7465 230.325C77.8491 213.299 85.4246 199.503 101.976 195.936C104.896 219.755 89.6682 228.521 81.7503 230.325H81.7465Z" fill="#CDD0DF"/>
    <g style="mix-blend-mode:multiply">
    <path d="M82.162 229.779C82.0851 229.79 82.0004 229.775 81.9273 229.73C81.758 229.629 81.7003 229.408 81.8042 229.24L100.499 197.893C100.599 197.725 100.818 197.669 100.987 197.773C101.157 197.875 101.214 198.095 101.11 198.264L82.4159 229.61C82.3582 229.708 82.262 229.764 82.162 229.779Z" fill="#BDC1D7"/>
    </g>
    <path d="M85.4935 230.49C84.7163 221.739 78.7683 216.271 70.0001 217.06C72.3431 228.918 81.2844 230.819 85.4935 230.49Z" fill="#DCDEE8"/>
    <g style="mix-blend-mode:multiply">
    <path d="M85.2011 230.292C85.2434 230.284 85.2819 230.265 85.3088 230.232C85.378 230.157 85.3703 230.045 85.2934 229.977L71.0427 217.779C70.9657 217.712 70.8503 217.719 70.7811 217.794C70.7118 217.869 70.7195 217.981 70.7964 218.049L85.0472 230.247C85.0895 230.284 85.1472 230.299 85.2011 230.288V230.292Z" fill="#D4D8E9"/>
    </g>
    <path d="M85.0001 230.312C86.8737 220.128 94.2684 214.266 104.164 216.003C100.155 229.687 89.7593 231.091 85.0001 230.312Z" fill="#DCDEE8"/>
    <g style="mix-blend-mode:multiply">
    <path d="M85.354 230.106C85.3078 230.095 85.2655 230.069 85.2386 230.028C85.1693 229.934 85.1924 229.799 85.2847 229.732L102.894 216.748C102.99 216.677 103.121 216.696 103.19 216.793C103.26 216.89 103.237 217.021 103.144 217.089L85.5348 230.073C85.481 230.114 85.4155 230.125 85.354 230.11V230.106Z" fill="#D4D8E9"/>
    </g>
    <defs>
    <linearGradient id="paint0_linear_14729_26408" x1="218.781" y1="82.1559" x2="220.23" y2="100.156" gradientUnits="userSpaceOnUse">
    <stop offset="0.23" stop-color="#492219"/>
    <stop offset="0.59" stop-color="#56281E"/>
    <stop offset="1" stop-color="#652F23"/>
    </linearGradient>
    <linearGradient id="paint1_linear_14729_26408" x1="158.972" y1="131.405" x2="169.841" y2="130.254" gradientUnits="userSpaceOnUse">
    <stop stop-color="#FFB886"/>
    <stop offset="1" stop-color="#FFA486"/>
    </linearGradient>
    <linearGradient id="paint2_linear_14729_26408" x1="158.095" y1="131.74" x2="169.082" y2="130.574" gradientUnits="userSpaceOnUse">
    <stop stop-color="#FFB886"/>
    <stop offset="1" stop-color="#FFA486"/>
    </linearGradient>
    <linearGradient id="paint3_linear_14729_26408" x1="158.887" y1="129.831" x2="177.723" y2="127.837" gradientUnits="userSpaceOnUse">
    <stop stop-color="#FFB886"/>
    <stop offset="1" stop-color="#FFA486"/>
    </linearGradient>
    <linearGradient id="paint4_linear_14729_26408" x1="161.346" y1="130.506" x2="180.007" y2="128.529" gradientUnits="userSpaceOnUse">
    <stop stop-color="#FFB886"/>
    <stop offset="1" stop-color="#FFA486"/>
    </linearGradient>
    <linearGradient id="paint5_linear_14729_26408" x1="207.846" y1="97.9146" x2="228.319" y2="97.9146" gradientUnits="userSpaceOnUse">
    <stop stop-color="#FFB886"/>
    <stop offset="1" stop-color="#FFA486"/>
    </linearGradient>
    <linearGradient id="paint6_linear_14729_26408" x1="221.375" y1="223.06" x2="231.207" y2="223.06" gradientUnits="userSpaceOnUse">
    <stop stop-color="#FFB886"/>
    <stop offset="1" stop-color="#FFA486"/>
    </linearGradient>
    <linearGradient id="paint7_linear_14729_26408" x1="201.784" y1="220.744" x2="212.004" y2="220.744" gradientUnits="userSpaceOnUse">
    <stop stop-color="#FFB886"/>
    <stop offset="1" stop-color="#FFA486"/>
    </linearGradient>
    <linearGradient id="paint8_linear_14729_26408" x1="210.111" y1="140.444" x2="213.264" y2="140.444" gradientUnits="userSpaceOnUse">
    <stop stop-color="#23252C"/>
    <stop offset="1" stop-color="#171921"/>
    </linearGradient>
    <linearGradient id="paint9_linear_14729_26408" x1="222.459" y1="137.97" x2="228.767" y2="137.97" gradientUnits="userSpaceOnUse">
    <stop stop-color="#23252C"/>
    <stop offset="1" stop-color="#171921"/>
    </linearGradient>
    <linearGradient id="paint10_linear_14729_26408" x1="226.231" y1="176.948" x2="232.532" y2="176.948" gradientUnits="userSpaceOnUse">
    <stop stop-color="#23252C"/>
    <stop offset="1" stop-color="#171921"/>
    </linearGradient>
    <linearGradient id="paint11_linear_14729_26408" x1="203.657" y1="133.15" x2="228.535" y2="133.15" gradientUnits="userSpaceOnUse">
    <stop stop-color="#23252C"/>
    <stop offset="1" stop-color="#171921"/>
    </linearGradient>
    <linearGradient id="paint12_linear_14729_26408" x1="229.958" y1="152.22" x2="236.996" y2="152.22" gradientUnits="userSpaceOnUse">
    <stop stop-color="#FFB886"/>
    <stop offset="1" stop-color="#FFA486"/>
    </linearGradient>
    <linearGradient id="paint13_linear_14729_26408" x1="211.543" y1="70.7903" x2="206.878" y2="92.9065" gradientUnits="userSpaceOnUse">
    <stop offset="0.23" stop-color="#2F150F"/>
    <stop offset="0.59" stop-color="#3A1912"/>
    <stop offset="1" stop-color="#57271C"/>
    </linearGradient>
    <linearGradient id="paint14_linear_14729_26408" x1="230.12" y1="78.1259" x2="227.866" y2="93.1635" gradientUnits="userSpaceOnUse">
    <stop offset="0.23" stop-color="#492219"/>
    <stop offset="0.59" stop-color="#56281E"/>
    <stop offset="1" stop-color="#652F23"/>
    </linearGradient>
    <linearGradient id="paint15_linear_14729_26408" x1="212.689" y1="63.5272" x2="203.871" y2="94.4067" gradientUnits="userSpaceOnUse">
    <stop offset="0.23" stop-color="#2F150F"/>
    <stop offset="0.59" stop-color="#3A1912"/>
    <stop offset="1" stop-color="#57271C"/>
    </linearGradient>
    <linearGradient id="paint16_linear_14729_26408" x1="233.278" y1="93.3065" x2="228.216" y2="105.188" gradientUnits="userSpaceOnUse">
    <stop stop-color="#673024"/>
    <stop offset="0.38" stop-color="#6B3227"/>
    <stop offset="0.8" stop-color="#783B30"/>
    <stop offset="1" stop-color="#824137"/>
    </linearGradient>
    <linearGradient id="paint17_linear_14729_26408" x1="217.008" y1="48.3616" x2="208.783" y2="85.6853" gradientUnits="userSpaceOnUse">
    <stop offset="0.23" stop-color="#2F150F"/>
    <stop offset="0.59" stop-color="#3A1912"/>
    <stop offset="1" stop-color="#57271C"/>
    </linearGradient>
    <linearGradient id="paint18_linear_14729_26408" x1="218.118" y1="67.4099" x2="223.147" y2="67.4099" gradientUnits="userSpaceOnUse">
    <stop stop-color="#824137"/>
    <stop offset="0.2" stop-color="#783B30"/>
    <stop offset="0.62" stop-color="#6B3227"/>
    <stop offset="1" stop-color="#673024"/>
    </linearGradient>
    <linearGradient id="paint19_linear_14729_26408" x1="210.881" y1="76.1395" x2="211.909" y2="81.1229" gradientUnits="userSpaceOnUse">
    <stop stop-color="#824137"/>
    <stop offset="0.2" stop-color="#783B30"/>
    <stop offset="0.62" stop-color="#6B3227"/>
    <stop offset="1" stop-color="#673024"/>
    </linearGradient>
    <linearGradient id="paint20_linear_14729_26408" x1="217.096" y1="46.0523" x2="205.045" y2="95.0589" gradientUnits="userSpaceOnUse">
    <stop offset="0.23" stop-color="#2F150F"/>
    <stop offset="0.59" stop-color="#3A1912"/>
    <stop offset="1" stop-color="#57271C"/>
    </linearGradient>
    <linearGradient id="paint21_linear_14729_26408" x1="208.273" y1="79.0694" x2="227.462" y2="79.0694" gradientUnits="userSpaceOnUse">
    <stop stop-color="#FFB886"/>
    <stop offset="1" stop-color="#FFA486"/>
    </linearGradient>
    <linearGradient id="paint22_linear_14729_26408" x1="211.776" y1="86.03" x2="217.04" y2="85.7597" gradientUnits="userSpaceOnUse">
    <stop stop-color="#F29A81"/>
    <stop offset="1" stop-color="#FF9766"/>
    </linearGradient>
    <linearGradient id="paint23_linear_14729_26408" x1="212.524" y1="85.9131" x2="216.824" y2="88.2225" gradientUnits="userSpaceOnUse">
    <stop stop-color="#F29A81"/>
    <stop offset="1" stop-color="#FF9766"/>
    </linearGradient>
    <linearGradient id="paint24_linear_14729_26408" x1="210.474" y1="88.4368" x2="211.289" y2="96.5453" gradientUnits="userSpaceOnUse">
    <stop offset="0.23" stop-color="#492219"/>
    <stop offset="0.59" stop-color="#56281E"/>
    <stop offset="1" stop-color="#652F23"/>
    </linearGradient>
    <linearGradient id="paint25_linear_14729_26408" x1="233.511" y1="40.5246" x2="219.867" y2="94.7235" gradientUnits="userSpaceOnUse">
    <stop offset="0.23" stop-color="#2F150F"/>
    <stop offset="0.59" stop-color="#3A1912"/>
    <stop offset="1" stop-color="#57271C"/>
    </linearGradient>
    <linearGradient id="paint26_linear_14729_26408" x1="233.607" y1="44.1962" x2="221.062" y2="96.3739" gradientUnits="userSpaceOnUse">
    <stop offset="0.23" stop-color="#2F150F"/>
    <stop offset="0.59" stop-color="#3A1912"/>
    <stop offset="1" stop-color="#57271C"/>
    </linearGradient>
    <linearGradient id="paint27_linear_14729_26408" x1="232.798" y1="47.8476" x2="229.127" y2="83.4019" gradientUnits="userSpaceOnUse">
    <stop offset="0.23" stop-color="#2F150F"/>
    <stop offset="0.59" stop-color="#3A1912"/>
    <stop offset="1" stop-color="#57271C"/>
    </linearGradient>
    <linearGradient id="paint28_linear_14729_26408" x1="220.599" y1="67.7229" x2="220.591" y2="67.6812" gradientUnits="userSpaceOnUse">
    <stop stop-color="#CB8076"/>
    <stop offset="0.31" stop-color="#B76F65"/>
    <stop offset="0.95" stop-color="#86443A"/>
    <stop offset="1" stop-color="#824137"/>
    </linearGradient>
    <linearGradient id="paint29_linear_14729_26408" x1="195.769" y1="-32.8799" x2="173.638" y2="10.9696" gradientUnits="userSpaceOnUse">
    <stop stop-color="#650E3D"/>
    <stop offset="1" stop-color="#F48279"/>
    </linearGradient>
    <linearGradient id="paint30_linear_14729_26408" x1="156.813" y1="106.122" x2="151.501" y2="102.955" gradientUnits="userSpaceOnUse">
    <stop stop-color="#650E3D"/>
    <stop offset="1" stop-color="#F48279"/>
    </linearGradient>
    <linearGradient id="paint31_linear_14729_26408" x1="161.806" y1="97.7489" x2="156.493" y2="94.5816" gradientUnits="userSpaceOnUse">
    <stop stop-color="#650E3D"/>
    <stop offset="1" stop-color="#F48279"/>
    </linearGradient>
    <linearGradient id="paint32_linear_14729_26408" x1="148.865" y1="47.1998" x2="142.252" y2="60.302" gradientUnits="userSpaceOnUse">
    <stop stop-color="#650E3D"/>
    <stop offset="1" stop-color="#F48279"/>
    </linearGradient>
    </defs>
</svg>
