<svg width="264" height="234" viewBox="0 0 264 234" fill="none" xmlns="http://www.w3.org/2000/svg">
<path d="M263.866 231.392C264.045 231.376 264.045 230.632 263.866 230.616L259.496 230.243L250.754 229.567L242.013 228.942L233.271 228.369L215.789 228.399H128.379L58.4514 228L23.4875 228.399L14.746 228.981L9.08114 229.603L0.339689 230.269L0.251998 230.277C-0.0839992 230.305 -0.0839992 231.707 0.251998 231.735L0.339689 231.743L9.08114 232.409L14.746 233.031L23.4875 233.613H215.79L233.272 233.642L242.014 234L250.755 233.375L259.497 232.433L263.867 231.396L263.866 231.392Z" fill="#ECEDF1"/>
<path d="M252.591 60.4669C291.283 230.964 187.299 228.999 126.801 228.999C28.1147 228.999 3 212.115 3 127.096C3 44.7894 75.6987 79.8289 113.517 50.9841C157.926 17.1131 240.473 7.07084 252.591 60.4669Z" fill="#F6F7F8" fill-opacity="0.6"/>
<path d="M129.634 85.1861L130.111 85.337L130.114 85.3279L130.116 85.3187L129.634 85.1861ZM149.989 80.0705L150.452 79.8809L150.43 79.8276L150.397 79.7807L149.989 80.0705ZM143.959 95.7593L144.174 96.2111L144.191 96.2028L144.208 96.1932L143.959 95.7593ZM110.721 71.7499L109.94 77.4703L115.285 75.2863L110.721 71.7499ZM112.236 76.3324C112.735 77.2994 113.261 78.2344 113.811 79.137L114.665 78.6167C114.127 77.7342 113.613 76.8199 113.125 75.8743L112.236 76.3324ZM115.582 81.8212C116.214 82.7079 116.869 83.5577 117.543 84.3702L118.313 83.7318C117.654 82.9379 117.014 82.1074 116.396 81.2407L115.582 81.8212ZM119.689 86.7697C120.448 87.5567 121.223 88.3004 122.01 89.0003L122.675 88.253C121.907 87.5701 121.15 86.8442 120.409 86.0756L119.689 86.7697ZM124.501 91.0431C125.381 91.7068 126.268 92.3177 127.157 92.8749L127.688 92.0277C126.824 91.4861 125.96 90.8915 125.103 90.2448L124.501 91.0431ZM129.97 94.4611C130.968 94.9611 131.959 95.3918 132.933 95.7519L133.279 94.8139C132.342 94.4673 131.385 94.0514 130.419 93.5671L129.97 94.4611ZM136.05 96.6766C137.174 96.9243 138.261 97.0664 139.293 97.0988L139.325 96.0993C138.361 96.069 137.336 95.936 136.266 95.7001L136.05 96.6766ZM142.586 96.7754C143.146 96.6341 143.677 96.4465 144.174 96.2111L143.745 95.3074C143.312 95.5128 142.843 95.6791 142.341 95.8058L142.586 96.7754ZM144.208 96.1932C144.695 95.9144 145.159 95.638 145.6 95.3625L145.07 94.5142C144.641 94.7822 144.188 95.0521 143.711 95.3254L144.208 96.1932ZM148.265 93.4739C149.197 92.7035 149.963 91.9087 150.554 91.0581L149.733 90.4873C149.206 91.2457 148.509 91.9753 147.628 92.703L148.265 93.4739ZM151.872 87.9378C152.063 86.9012 152.056 85.7916 151.865 84.5821L150.877 84.7388C151.054 85.8582 151.056 86.8516 150.889 87.7567L151.872 87.9378ZM151.031 81.4033C150.86 80.9125 150.667 80.4054 150.452 79.8809L149.527 80.2601C149.736 80.7701 149.923 81.2604 150.087 81.7326L151.031 81.4033ZM150.397 79.7807C150.051 79.2942 149.695 78.8477 149.331 78.4395L148.585 79.1051C148.923 79.4844 149.256 79.902 149.582 80.3602L150.397 79.7807ZM146.715 76.2199C145.659 75.5757 144.568 75.1797 143.47 74.9943L143.304 75.9803C144.276 76.1445 145.246 76.4954 146.195 77.0737L146.715 76.2199ZM140.008 75.0649C138.89 75.2879 137.804 75.6908 136.779 76.2223L137.239 77.1101C138.193 76.6158 139.19 76.2478 140.204 76.0455L140.008 75.0649ZM133.953 78.1186C133.07 78.8578 132.269 79.6818 131.578 80.5456L132.359 81.1701C133.009 80.3577 133.763 79.5814 134.595 78.8854L133.953 78.1186ZM129.758 83.4329C129.504 83.9761 129.299 84.5196 129.152 85.0535L130.116 85.3187C130.247 84.8456 130.43 84.3551 130.663 83.8567L129.758 83.4329ZM129.158 85.0352C128.997 85.5418 128.846 86.0421 128.703 86.5363L129.663 86.8142C129.804 86.3282 129.953 85.8358 130.111 85.337L129.158 85.0352ZM127.915 89.5643C127.673 90.6157 127.472 91.6381 127.31 92.633L128.296 92.7941C128.455 91.8211 128.652 90.8199 128.889 89.7885L127.915 89.5643ZM126.918 95.7419C126.823 96.8208 126.777 97.8658 126.774 98.8796L127.774 98.8818C127.776 97.8972 127.822 96.8806 127.914 95.8291L126.918 95.7419ZM126.914 102.023C127.014 103.097 127.166 104.134 127.365 105.138L128.346 104.944C128.154 103.973 128.007 102.97 127.91 101.93L126.914 102.023ZM128.137 108.19C128.453 109.209 128.817 110.193 129.222 111.146L130.142 110.755C129.75 109.831 129.398 108.88 129.092 107.894L128.137 108.19ZM130.587 113.978C131.085 114.904 131.62 115.802 132.183 116.678L133.025 116.137C132.474 115.28 131.952 114.404 131.467 113.504L130.587 113.978ZM133.958 119.254C134.573 120.094 135.209 120.917 135.858 121.729L136.64 121.105C135.997 120.301 135.37 119.489 134.765 118.664L133.958 119.254ZM137.834 124.132C138.167 124.528 138.502 124.923 138.837 125.317L139.599 124.67C139.265 124.276 138.931 123.883 138.6 123.489L137.834 124.132Z" fill="#B4BAC8"/>
<g clip-path="url(#clip0_572_12996)">
<path d="M107.494 172.306H112.691V227.99H107.494V172.306Z" fill="#CC9966"/>
<path d="M107.494 164.387H112.691V172.87H107.494V164.387Z" fill="#CC9966"/>
<path d="M111.197 229.569H108.988V227.99H111.197V229.569Z" fill="#2D2D2E"/>
<path d="M111.197 164.389H108.988V162.222H111.197V164.389Z" fill="#2D2D2E"/>
<path d="M148.676 172.306H153.874V227.99H148.676V172.306Z" fill="#CC9966"/>
<path d="M148.676 164.387H153.874V172.87H148.676V164.387Z" fill="#CC9966"/>
<path d="M152.378 229.569H150.169V227.99H152.378V229.569Z" fill="#2D2D2E"/>
<path d="M152.378 164.389H150.169V162.222H152.378V164.389Z" fill="#2D2D2E"/>
<path d="M159.262 152.068C159.262 152.068 151.594 150.947 151.407 150.947C151.22 150.947 150.784 155.923 150.784 155.923L159.262 155.433V152.068Z" fill="#E89141"/>
<path d="M198.069 224.386H193.495V219.973C193.495 219.758 193.484 219.567 193.467 219.401H188.92V214.83H194.77C196.773 214.83 198.069 216.848 198.069 219.973V224.386Z" fill="#6E7073"/>
<path d="M186.221 205.864H190.381V210.227H186.221V205.864Z" fill="#A7A9AC"/>
<path d="M165.782 226.727C165.505 225.028 166.66 223.427 168.361 223.152C170.062 222.876 171.664 224.03 171.94 225.729C172.216 227.428 171.061 229.029 169.361 229.304C167.66 229.58 166.058 228.426 165.782 226.727Z" fill="#414042"/>
<path d="M184.144 210.086H192.461V216.804H184.144V210.086Z" fill="#6E7073"/>
<path d="M184.144 192.859H192.461V205.864H184.144V192.859Z" fill="#6E7073"/>
<path d="M184.144 186.336H192.461V192.859H184.144V186.336Z" fill="#58595B"/>
<path d="M229.177 141.188L228.433 124.258C228.433 123.94 228.399 123.63 228.336 123.331C227.909 121.309 226.114 119.792 223.963 119.792H192.98C190.83 119.792 189.034 121.309 188.608 123.331C188.544 123.63 188.511 123.94 188.511 124.258L189.339 141.188L192.146 140.489L186.949 183.13C184.144 186.344 186.145 188.343 188.613 188.343H217.516C219.985 188.343 221.986 186.344 221.986 183.877L229.185 141.365L229.177 141.188Z" fill="#414042"/>
<path d="M217.621 188.655H156.281C154.386 188.655 152.851 187.121 152.851 185.228C152.851 183.335 154.386 181.801 156.281 181.801H217.621C219.515 181.801 221.051 183.335 221.051 185.228C221.051 187.121 219.515 188.655 217.621 188.655Z" fill="#414042"/>
<path d="M217.621 188.655H189.109C187.215 188.655 185.679 187.121 185.679 185.228C185.679 183.335 187.215 181.801 189.109 181.801H217.621C219.515 181.801 221.051 183.335 221.051 185.228C221.051 187.121 219.515 188.655 217.621 188.655Z" fill="#231F20"/>
<path d="M218.455 188.586C218.266 188.586 218.074 188.571 217.881 188.537C216.013 188.221 214.754 186.454 215.068 184.587L222.405 141.169L221.678 123.471C221.599 121.58 223.071 119.983 224.965 119.906C226.854 119.827 228.457 121.298 228.534 123.191L229.291 141.605L221.835 185.731C221.552 187.405 220.099 188.588 218.455 188.588V188.586Z" fill="#231F20"/>
<path d="M171.188 224.386H166.614V219.973C166.614 217.138 168.922 214.83 171.761 214.83H188.92V219.401H171.761C171.445 219.401 171.188 219.657 171.188 219.973V224.386Z" fill="#A7A9AC"/>
<path d="M209.99 224.386H205.416V219.973C205.416 219.657 205.16 219.401 204.843 219.401H188.918V214.83H204.843C207.681 214.83 209.99 217.136 209.99 219.973V224.386Z" fill="#909194"/>
<path d="M171.529 226.256H166.331C165.297 226.256 164.459 225.419 164.459 224.386C164.459 223.353 165.297 222.516 166.331 222.516H171.529C172.563 222.516 173.401 223.353 173.401 224.386C173.401 225.419 172.563 226.256 171.529 226.256Z" fill="#A7A9AC"/>
<path d="M204.667 226.931C204.271 225.255 205.309 223.577 206.986 223.181C208.663 222.786 210.343 223.823 210.739 225.499C211.135 227.174 210.096 228.853 208.419 229.248C206.742 229.643 205.062 228.606 204.667 226.931Z" fill="#414042"/>
<path d="M210.368 226.256H205.171C204.136 226.256 203.299 225.419 203.299 224.386C203.299 223.353 204.136 222.516 205.171 222.516H210.368C211.402 222.516 212.24 223.353 212.24 224.386C212.24 225.419 211.402 226.256 210.368 226.256Z" fill="#A7A9AC"/>
<path d="M179.024 226.93C178.628 225.255 179.667 223.576 181.344 223.181C183.02 222.785 184.701 223.823 185.096 225.498C185.492 227.173 184.454 228.852 182.777 229.247C181.1 229.643 179.42 228.605 179.024 226.93Z" fill="#414042"/>
<path d="M184.723 226.256H179.526C178.492 226.256 177.654 225.419 177.654 224.386C177.654 223.353 178.492 222.516 179.526 222.516H184.723C185.758 222.516 186.596 223.353 186.596 224.386C186.596 225.419 185.758 226.256 184.723 226.256Z" fill="#6E7073"/>
<path d="M192.702 226.727C192.426 225.028 193.581 223.427 195.281 223.152C196.982 222.876 198.585 224.03 198.861 225.729C199.137 227.428 197.982 229.029 196.281 229.304C194.581 229.58 192.978 228.426 192.702 226.727Z" fill="#414042"/>
<path d="M198.447 226.256H193.25C192.216 226.256 191.378 225.419 191.378 224.386C191.378 223.353 192.216 222.516 193.25 222.516H198.447C199.481 222.516 200.319 223.353 200.319 224.386C200.319 225.419 199.481 226.256 198.447 226.256Z" fill="#6E7073"/>
<path d="M184.346 224.386H179.771V219.973C179.771 216.848 181.065 214.83 183.07 214.83H188.92V219.401H184.374C184.357 219.565 184.346 219.758 184.346 219.973V224.386Z" fill="#6E7073"/>
<path d="M192.184 195.372H205.171V196.826H192.184V195.372Z" fill="#414042"/>
<path d="M205.171 197.553H199.809C199.005 197.553 198.354 196.902 198.354 196.099C198.354 195.295 199.005 194.645 199.809 194.645H205.171C205.975 194.645 206.626 195.295 206.626 196.099C206.626 196.902 205.975 197.553 205.171 197.553Z" fill="#414042"/>
<path d="M183.762 92.3832C182.997 99.6591 183.717 129.185 190.379 133.688C201.634 135.166 218.479 130.738 217.57 124.598C215.279 109.125 211.917 96.4864 208.782 89.5991C205.648 82.7119 186.433 79.3281 183.76 92.3832H183.762Z" fill="#AFB7C0"/>
<path d="M148.338 225.128L133.447 230.858L133.449 232L156.331 231.961L156.372 216.127L148.431 216.14L148.338 225.128Z" fill="#F2AD6D"/>
<path d="M133.447 230.858L133.449 232L156.331 231.961L156.372 224.664L152.978 230.75L147.764 230.757L145.05 226.165L141.285 227.727L142.585 230.462L133.447 230.858Z" fill="#231F20"/>
<path d="M163.399 225.128L148.508 230.858L148.51 232L171.39 231.961L171.433 216.127L163.492 216.14L163.399 225.128Z" fill="#F2AD6D"/>
<path d="M148.508 230.858L148.51 232L171.39 231.961L171.433 224.664L168.039 230.75L162.825 230.757L160.109 226.165L156.346 227.727L157.646 230.462L148.508 230.858Z" fill="#231F20"/>
<path d="M144.418 172.536C145.424 170.654 147.384 169.481 149.518 169.481H171.619L180.472 169.411L183.493 127.72C183.742 124.661 186.65 122.901 189.231 121.976C189.242 121.973 189.253 121.969 189.264 121.965C193.089 120.579 197.162 120.003 201.221 120.296L203.358 120.45C206.454 120.672 209.493 121.395 212.358 122.584C213.405 123.019 214.395 123.422 214.99 123.652C218.12 124.859 220.019 127.182 219.768 130.257L215.625 134.148L210.134 175.107L209.231 180.049C208.232 181.108 206.815 181.771 205.242 181.771H182.238C179.646 181.771 177.551 183.881 177.572 186.471L177.867 223.199L144.453 223.336L143.739 175.344C143.724 174.365 143.96 173.399 144.42 172.536H144.418Z" fill="#E6E7E8"/>
<path d="M158.701 155.433V152.068L177.323 150.207C178.482 150.091 179.432 149.236 179.668 148.094L183.063 131.608C184.529 126.502 186.857 122.638 192.072 121.597L201.11 119.79L185.823 156.227C185.215 157.644 183.192 158.871 181.658 158.705L158.699 155.431L158.701 155.433Z" fill="#D1D3D4"/>
<path d="M178.673 156.994C178.673 157.913 178.103 158.242 177.398 158.242H131.423C130.718 158.242 130.148 157.913 130.148 156.994C130.148 156.074 130.718 155.745 131.423 155.745H177.398C178.103 155.745 178.673 156.074 178.673 156.994Z" fill="#E6E7E8"/>
<path d="M178.673 156.994H130.15C130.15 156.074 130.72 155.745 131.425 155.745H177.4C178.105 155.745 178.675 156.074 178.675 156.994H178.673Z" fill="#BCBEC0"/>
<path d="M178.673 156.994C178.673 157.913 178.103 158.242 177.398 158.242H158.003C157.3 158.242 156.728 157.913 156.728 156.994C156.728 156.074 157.298 155.745 158.003 155.745H177.398C178.103 155.745 178.673 156.074 178.673 156.994Z" fill="#909194"/>
<path d="M157.726 155.183C157.726 155.622 157.371 155.977 156.932 155.977H130.054C129.617 155.977 129.259 155.622 129.259 155.183L122.644 129.318C122.644 128.88 123 128.523 123.439 128.523H150.318C150.756 128.523 151.111 128.878 151.111 129.318L157.726 155.183Z" fill="#E6E7E8"/>
<path d="M156.971 155.923C156.645 155.923 156.35 155.704 156.266 155.374L149.735 129.613C149.636 129.224 149.871 128.828 150.262 128.729C150.653 128.63 151.048 128.865 151.147 129.256L157.678 155.017C157.777 155.405 157.541 155.801 157.15 155.901C157.091 155.915 157.031 155.923 156.971 155.923Z" fill="#909194"/>
<path d="M162.621 156.937C162.621 157.289 162.359 157.575 162.037 157.575H160.444C160.122 157.575 159.86 157.289 159.86 156.937C159.86 156.586 160.122 156.3 160.444 156.3H162.037C162.359 156.3 162.621 156.586 162.621 156.937Z" fill="#414042"/>
<path d="M167.347 156.936C167.347 156.614 167.085 156.353 166.763 156.353C166.442 156.353 166.18 156.614 166.18 156.936C166.18 157.257 166.442 157.519 166.763 157.519C167.085 157.519 167.347 157.257 167.347 156.936Z" fill="#6D6E71"/>
<path d="M137.386 140.491C138.454 139.966 139.843 140.53 140.488 141.75C141.134 142.971 140.791 144.385 139.724 144.91C138.656 145.435 137.266 144.871 136.621 143.651C135.976 142.431 136.318 141.016 137.386 140.491Z" fill="white"/>
<path d="M163.012 156.936C163.012 157.257 162.75 157.519 162.428 157.519H160.835C160.513 157.519 160.251 157.257 160.251 156.936C160.251 156.614 160.513 156.353 160.835 156.353H162.428C162.75 156.353 163.012 156.614 163.012 156.936Z" fill="#BABCBD"/>
<path d="M164.128 156.936C164.128 157.257 163.866 157.519 163.545 157.519H162.367C162.045 157.519 161.783 157.257 161.783 156.936C161.783 156.614 162.045 156.353 162.367 156.353H163.545C163.866 156.353 164.128 156.614 164.128 156.936Z" fill="#F1F2F2"/>
<path d="M166.582 156.384C166.814 156.461 166.984 156.678 166.984 156.936C166.984 157.193 166.816 157.41 166.582 157.487C166.35 157.41 166.18 157.193 166.18 156.936C166.18 156.678 166.348 156.461 166.582 156.384Z" fill="#414042"/>
<path d="M182.058 155.745L199.455 158.242H212.302C213.879 158.242 215.233 157.121 215.524 155.572L219.615 133.845C220.591 128.662 217.339 123.621 212.21 122.367L201.673 119.792L207.703 130.207L206.731 148.935C206.671 150.074 205.752 150.981 204.61 151.024L182.124 152.255L182.058 155.745Z" fill="#E6E7E8"/>
<path d="M187.734 167.005C192.865 167.638 203.865 170.379 206.626 174.738C205.646 169.88 200.684 165.622 187.734 167.005Z" fill="#D1D3D4"/>
<path d="M206.229 120.599H195.584V106.77H206.229V120.599Z" fill="#F2AD6D"/>
<path d="M187.183 86.4115C185.649 89.1413 184.98 92.2711 185.264 95.3877C185.645 99.5918 186.195 105.541 186.536 108.88C186.708 110.562 187.185 112.198 187.944 113.708L189.528 115.84C190.297 116.595 191.019 117.331 191.9 117.37L193.845 117.269C194.314 117.29 196.057 116.827 196.463 116.587L202.788 112.111C206.149 108.886 207.477 107.479 207.731 104.19L209.057 87.0655L200.793 77.5511L191.512 78.7059L187.181 86.4134L187.183 86.4115Z" fill="#F2AD6D"/>
<path d="M192.477 110.287L192.399 110.296C191.453 110.414 190.568 109.93 190.289 109.144L189.562 107.09L198.814 105.939L196.091 108.59C195.144 109.512 193.861 110.113 192.477 110.285V110.287Z" fill="white"/>
<path d="M210.626 87.8633L207.731 104.19C207.477 107.479 205.829 109.611 202.788 112.111L196.463 116.588C196.057 116.827 194.316 117.29 193.845 117.27L191.899 117.37C191.019 117.333 190.364 116.997 189.436 115.892L187.944 113.708C187.254 112.335 186.784 110.859 186.511 109.347C186.5 109.282 186.59 109.252 186.618 109.312C187.089 110.367 187.847 111.883 188.443 112.548C188.363 112.331 188.282 112.099 188.202 111.853C187.426 109.448 187.248 105.939 187.706 105.578C188.165 105.218 200.785 103.648 201.178 103.781C201.542 103.904 201.63 108.161 199.96 111.307C204.004 108.927 205.419 107.017 205.489 105.649C206.295 89.9093 205.65 82.7119 205.65 82.7119L210.626 87.8652V87.8633ZM195.662 113.57C195.638 113.561 195.623 113.555 195.623 113.555C197.815 112.098 200.097 109.229 200.359 104.779C194.832 105.3 188.116 105.851 188.204 106.559C188.292 107.266 189.84 114.308 190.71 114.712C190.888 114.755 191.071 114.783 191.26 114.798C191.125 113.256 191.191 112.374 191.191 112.374L193.48 112.09C193.48 112.09 193.457 113.32 193.512 114.456C194.265 114.216 195.006 113.888 195.664 113.57H195.662Z" fill="#231F20"/>
<path d="M207.032 104.175C206.461 104.231 206.155 97.3944 207.164 97.2954L207.774 97.3141C209.115 97.1833 209.398 98.381 209.53 99.7207C209.766 102.139 208.511 104.054 207.032 104.175Z" fill="#F2AD6D"/>
<path d="M183.715 93.5192C184.43 91.8562 185.969 91.5031 188.202 92.2524C190.435 93.0035 194.578 92.4598 196.721 90.879C198.864 89.2983 202.38 89.5132 203.843 90.6529C205.618 92.0319 207.305 93.4856 207.75 99.0032C208.053 102.774 208.025 105.212 209.209 111.929C210.869 121.35 217.067 122.236 217.499 124.002C216.143 108.157 213.284 99.1265 211.386 89.6683C209.955 82.5363 206.237 76.0321 196.996 77.1195C187.757 78.207 183.422 85.5725 183.715 93.5192Z" fill="#E6E7E8"/>
<path d="M184.19 89.743C184.241 89.743 184.291 89.7393 184.342 89.7337L210.501 86.4807C211.167 86.3985 211.64 85.7912 211.558 85.126C211.475 84.4608 210.867 83.9881 210.202 84.0703L184.043 87.3234C183.377 87.4056 182.904 88.0128 182.986 88.678C183.063 89.2927 183.586 89.743 184.19 89.743Z" fill="#231F20"/>
<path d="M184.488 87.6335C184.538 87.6335 184.589 87.6298 184.639 87.6242L209.695 84.5075C210.361 84.4253 210.834 83.8181 210.752 83.1529C210.669 82.4877 210.061 82.0131 209.396 82.0972L184.34 85.2138C183.674 85.296 183.201 85.9033 183.283 86.5685C183.36 87.1832 183.884 87.6335 184.488 87.6335Z" fill="#231F20"/>
<path d="M201.623 120.225C199.023 120.736 196.629 120.267 194.149 120.638C190.327 121.212 187.138 122.942 185.533 124.241C183.283 126.061 183.313 128.258 183.435 132.587C185.002 139.039 186.39 159.71 186.39 159.71L201.623 120.225Z" fill="#E6E7E8"/>
<path d="M196.555 172.306H201.752V227.99H196.555V172.306Z" fill="#CC9966"/>
<path d="M196.555 164.387H201.752V172.87H196.555V164.387Z" fill="#CC9966"/>
<path d="M200.256 229.569H198.047V227.99H200.256V229.569Z" fill="#2D2D2E"/>
<path d="M200.256 164.387H198.047V162.468H200.256V164.387Z" fill="#2D2D2E"/>
<path d="M233.208 172.306H238.405V227.99H233.208V172.306Z" fill="#CC9966"/>
<path d="M233.208 164.387H238.405V172.87H233.208V164.387Z" fill="#CC9966"/>
<path d="M236.909 229.569H234.7V227.99H236.909V229.569Z" fill="#967059"/>
<path d="M236.909 164.387H234.7V162.468H236.909V164.387Z" fill="#2D2D2E"/>
<path d="M192.036 162.81H105.678C104.75 162.81 104 161.786 104 160.525C104 159.264 104.752 158.24 105.678 158.24H192.036V162.81Z" fill="#CC9966"/>
<path d="M243.978 162.808H191.647C190.53 162.808 189.625 161.784 189.625 160.523C189.625 159.262 190.53 158.238 191.647 158.238H243.978C245.095 158.238 246 159.262 246 160.523C246 161.784 245.095 162.808 243.978 162.808Z" fill="#967059"/>
<path d="M196.564 121.844H205.292C205.868 121.844 206.336 121.75 206.336 121.175V117.049L195.52 117.796V120.801C195.52 121.376 195.988 121.844 196.564 121.844Z" fill="#F1F2F2"/>
<path d="M200.57 121.844C198.741 124.147 196.386 131.311 196.184 137.511C195.562 137.539 192.88 137.511 192.88 137.511C193.067 132.931 194.563 125.02 196.682 121.844C197.991 119.975 200.568 121.844 200.568 121.844H200.57Z" fill="#F1F2F2"/>
<path d="M197.245 122.98C197.284 122.726 197.51 122.55 197.75 122.587C197.989 122.625 198.152 122.86 198.112 123.112C198.073 123.366 197.847 123.542 197.608 123.505C197.368 123.467 197.205 123.232 197.245 122.98Z" fill="#D1D3D4"/>
<path d="M198.466 119.45C198.505 119.196 198.732 119.02 198.971 119.058C199.21 119.095 199.373 119.331 199.334 119.583C199.294 119.837 199.068 120.013 198.829 119.975C198.589 119.938 198.427 119.702 198.466 119.45Z" fill="#D1D3D4"/>
<path d="M195.952 126.509C195.992 126.255 196.218 126.079 196.457 126.117C196.697 126.154 196.859 126.39 196.82 126.642C196.781 126.896 196.555 127.072 196.315 127.034C196.076 126.997 195.913 126.761 195.952 126.509Z" fill="#D1D3D4"/>
<path d="M195.258 131.212C195.018 131.175 194.856 130.939 194.895 130.686C194.934 130.432 195.16 130.256 195.4 130.292C195.64 130.329 195.803 130.565 195.763 130.819C195.724 131.073 195.498 131.249 195.258 131.212Z" fill="#D1D3D4"/>
<path d="M194.206 134.848C194.245 134.594 194.471 134.419 194.711 134.456C194.95 134.493 195.113 134.729 195.073 134.981C195.034 135.235 194.808 135.411 194.568 135.373C194.329 135.336 194.166 135.101 194.206 134.848Z" fill="#D1D3D4"/>
<path d="M182.124 152.361L174.834 150.727L169.664 149.172L165.565 151.625L164.42 154.277L165.927 154.432L167.624 152.361L169.664 151.054L171.422 151.136L169.358 151.818L167.463 154.277L166.576 155.745H182.068L182.124 152.361Z" fill="#F09C4F"/>
<path d="M182.432 152.255C182.432 152.255 183.152 152.246 184.411 152.229C185.67 152.212 187.467 152.19 189.623 152.145C190.703 152.124 191.87 152.1 193.106 152.063C194.342 152.029 195.644 151.993 196.992 151.937C198.341 151.881 199.732 151.836 201.15 151.747C201.859 151.704 202.571 151.661 203.293 151.595C203.473 151.582 203.654 151.562 203.839 151.539L204.114 151.506C204.221 151.493 204.295 151.476 204.389 151.461C204.776 151.388 205.158 151.274 205.522 151.074C205.883 150.872 206.196 150.586 206.439 150.269C206.684 149.951 206.865 149.609 207.019 149.264C207.32 148.572 207.52 147.868 207.69 147.171C208.023 145.773 208.232 144.391 208.429 143.055C208.625 141.721 208.773 140.42 208.917 139.198C209.068 137.969 209.233 136.829 209.424 135.771C209.624 134.717 209.83 133.755 210.041 132.909C210.258 132.064 210.469 131.334 210.664 130.736C211.047 129.542 211.356 128.89 211.356 128.89C211.356 128.89 211.266 129.045 211.118 129.349C210.97 129.652 210.759 130.1 210.529 130.689C210.299 131.276 210.033 131.995 209.775 132.836C209.519 133.677 209.255 134.633 209.016 135.689C208.782 136.743 208.558 137.905 208.378 139.123C208.199 140.351 207.997 141.631 207.785 142.957C207.57 144.282 207.323 145.648 206.992 147.001C206.824 147.675 206.628 148.346 206.351 148.967C206.078 149.587 205.698 150.131 205.161 150.422C204.894 150.568 204.58 150.669 204.264 150.73C204.18 150.743 204.079 150.766 204.007 150.773L203.749 150.805C203.579 150.828 203.405 150.848 203.228 150.863C202.523 150.93 201.812 150.981 201.109 151.026C199.7 151.113 198.311 151.203 196.966 151.278C195.621 151.356 194.32 151.431 193.087 151.502C191.855 151.577 190.688 151.648 189.612 151.713C187.46 151.848 185.666 151.978 184.411 152.078C183.783 152.126 183.291 152.173 182.956 152.205C182.619 152.236 182.442 152.253 182.442 152.253L182.432 152.255Z" fill="white"/>
</g>
<g clip-path="url(#clip1_572_12996)">
<path d="M96.2536 230.799C100.151 213.57 92.5755 199.609 76.024 196C73.1039 220.103 88.3318 228.974 96.2497 230.799H96.2536Z" fill="#CDD0DF"/>
<g style="mix-blend-mode:multiply">
<path d="M95.8381 230.246C95.915 230.258 95.9997 230.242 96.0728 230.197C96.2421 230.095 96.2998 229.871 96.1959 229.701L77.5014 197.981C77.4014 197.81 77.1821 197.753 77.0128 197.86C76.8435 197.962 76.7858 198.185 76.8897 198.356L95.5842 230.076C95.6419 230.174 95.738 230.231 95.8381 230.246Z" fill="#BDC1D7"/>
</g>
<path d="M92.5066 230.966C93.2837 222.111 99.2318 216.577 108 217.376C105.657 229.375 96.7156 231.299 92.5066 230.966Z" fill="#DCDEE8"/>
<g style="mix-blend-mode:multiply">
<path d="M92.799 230.765C92.7567 230.757 92.7182 230.738 92.6912 230.704C92.622 230.629 92.6297 230.515 92.7066 230.447L106.957 218.103C107.034 218.035 107.15 218.043 107.219 218.119C107.288 218.194 107.281 218.308 107.204 218.376L92.9529 230.72C92.9105 230.757 92.8528 230.773 92.799 230.761V230.765Z" fill="#D4D8E9"/>
</g>
<path d="M93 230.786C91.1263 220.48 83.7316 214.549 73.8362 216.306C77.8451 230.153 88.2408 231.574 93 230.786Z" fill="#DCDEE8"/>
<g style="mix-blend-mode:multiply">
<path d="M92.646 230.577C92.6922 230.566 92.7345 230.54 92.7615 230.498C92.8307 230.403 92.8076 230.267 92.7153 230.199L75.1058 217.06C75.0096 216.988 74.8788 217.007 74.8096 217.105C74.7403 217.204 74.7634 217.336 74.8557 217.405L92.4652 230.543C92.5191 230.585 92.5845 230.596 92.646 230.581V230.577Z" fill="#D4D8E9"/>
</g>
</g>
<rect x="10.5" y="39.5" width="94" height="94" rx="3.5" fill="white" stroke="#E2E6EF"/>
<path d="M96.2549 63.2588H84.9058C84.7607 63.2588 84.6429 63.1448 84.6429 63.0043C84.6429 62.8639 84.7607 62.7499 84.9058 62.7499H96.2549C96.4 62.7499 96.5179 62.8639 96.5179 63.0043C96.5179 63.1448 96.4 63.2588 96.2549 63.2588Z" fill="#41545B"/>
<path opacity="0.78" d="M94.976 64.4463H64.1311C62.3503 64.4463 60.8929 65.7062 60.8929 67.2462V71.8249C60.8929 73.365 62.3503 74.6249 64.1311 74.6249H94.976C96.7568 74.6249 98.2143 73.365 98.2143 71.8249V67.2462C98.2143 65.7062 96.7568 64.4463 94.976 64.4463Z" fill="#EBEBEB"/>
<path d="M96.2549 80.223H84.9058C84.7607 80.223 84.6429 80.109 84.6429 79.9686C84.6429 79.8282 84.7607 79.7141 84.9058 79.7141H96.2549C96.4 79.7141 96.5179 79.8282 96.5179 79.9686C96.5179 80.109 96.4 80.223 96.2549 80.223Z" fill="#41545B"/>
<path opacity="0.78" d="M94.976 81.4105H64.1311C62.3503 81.4105 60.8929 82.6704 60.8929 84.2104V88.7892C60.8929 90.3292 62.3503 91.5891 64.1311 91.5891H94.976C96.7568 91.5891 98.2143 90.3292 98.2143 88.7892V84.2104C98.2143 82.6704 96.7568 81.4105 94.976 81.4105Z" fill="#EBEBEB"/>
<path d="M96.2549 97.1874H84.9058C84.7607 97.1874 84.6429 97.0733 84.6429 96.9329C84.6429 96.7925 84.7607 96.6785 84.9058 96.6785H96.2549C96.4 96.6785 96.5179 96.7925 96.5179 96.9329C96.5179 97.0733 96.4 97.1874 96.2549 97.1874Z" fill="#41545B"/>
<path opacity="0.78" d="M94.976 98.3749H64.1311C62.3503 98.3749 60.8929 99.6347 60.8929 101.175V105.754C60.8929 107.294 62.3503 108.553 64.1311 108.553H94.976C96.7568 108.553 98.2143 107.294 98.2143 105.754V101.175C98.2143 99.6347 96.7568 98.3749 94.976 98.3749Z" fill="#EBEBEB"/>
<path d="M52.1478 63.2588H40.7986C40.6535 63.2588 40.5357 63.1448 40.5357 63.0043C40.5357 62.8639 40.6535 62.7499 40.7986 62.7499H52.1478C52.2929 62.7499 52.4107 62.8639 52.4107 63.0043C52.4107 63.1448 52.2929 63.2588 52.1478 63.2588Z" fill="#41545B"/>
<path opacity="0.78" d="M50.8689 64.4463H20.024C18.2431 64.4463 16.7857 65.7062 16.7857 67.2462V71.8249C16.7857 73.365 18.2431 74.6249 20.024 74.6249H50.8689C52.6497 74.6249 54.1071 73.365 54.1071 71.8249V67.2462C54.1071 65.7062 52.6497 64.4463 50.8689 64.4463Z" fill="#EBEBEB"/>
<path d="M52.1478 80.223H40.7986C40.6535 80.223 40.5357 80.109 40.5357 79.9686C40.5357 79.8282 40.6535 79.7141 40.7986 79.7141H52.1478C52.2929 79.7141 52.4107 79.8282 52.4107 79.9686C52.4107 80.109 52.2929 80.223 52.1478 80.223Z" fill="#41545B"/>
<path opacity="0.78" d="M50.8689 81.4105H20.024C18.2431 81.4105 16.7857 82.6704 16.7857 84.2104V88.7892C16.7857 90.3292 18.2431 91.5891 20.024 91.5891H50.8689C52.6497 91.5891 54.1071 90.3292 54.1071 88.7892V84.2104C54.1071 82.6704 52.6497 81.4105 50.8689 81.4105Z" fill="#EBEBEB"/>
<path d="M52.1478 97.1874H40.7986C40.6535 97.1874 40.5357 97.0733 40.5357 96.9329C40.5357 96.7925 40.6535 96.6785 40.7986 96.6785H52.1478C52.2929 96.6785 52.4107 96.7925 52.4107 96.9329C52.4107 97.0733 52.2929 97.1874 52.1478 97.1874Z" fill="#41545B"/>
<path opacity="0.78" d="M50.8689 98.3749H20.024C18.2431 98.3749 16.7857 99.6347 16.7857 101.175V105.754C16.7857 107.294 18.2431 108.553 20.024 108.553H50.8689C52.6497 108.553 54.1071 107.294 54.1071 105.754V101.175C54.1071 99.6347 52.6497 98.3749 50.8689 98.3749Z" fill="#EBEBEB"/>
<path opacity="0.78" d="M73.0831 117.036H42.2383C40.4574 117.036 39 118.295 39 119.835V121.021C39 122.561 40.4574 123.821 42.2383 123.821H73.0831C74.864 123.821 76.3214 122.561 76.3214 121.021V119.835C76.3214 118.295 74.864 117.036 73.0831 117.036Z" fill="#0083F9"/>
<path d="M95.8589 52.6966H83.2388C83.0774 52.6966 82.9464 52.5657 82.9464 52.4045C82.9464 52.2433 83.0774 52.1124 83.2388 52.1124H95.8589C96.0202 52.1124 96.1512 52.2433 96.1512 52.4045C96.1512 52.5657 96.0202 52.6966 95.8589 52.6966Z" fill="#41545B"/>
<path d="M96.4858 49.7627H78.1495C77.9882 49.7627 77.8571 49.6318 77.8571 49.4706C77.8571 49.3094 77.9882 49.1785 78.1495 49.1785H96.4858C96.6471 49.1785 96.7781 49.3094 96.7781 49.4706C96.7781 49.6318 96.6471 49.7627 96.4858 49.7627Z" fill="#41545B"/>
<defs>
<clipPath id="clip0_572_12996">
<rect width="142" height="155" fill="white" transform="matrix(-1 0 0 1 246 77)"/>
</clipPath>
<clipPath id="clip1_572_12996">
<rect width="36" height="35" fill="white" transform="matrix(-1 0 0 1 108 196)"/>
</clipPath>
</defs>
</svg>
