<svg width="130" height="40" viewBox="0 0 130 40" fill="none" xmlns="http://www.w3.org/2000/svg">
<path d="M50.8475 17.8759H51.8843V16.0615H53.0026C53.2779 16.0615 53.489 16.2887 53.489 16.5639V17.892H54.948V19.0904H53.489V22.1528C53.489 23.076 53.684 23.3192 54.3641 23.3192C54.5097 23.3192 54.6073 23.3031 54.8184 23.2377V24.4361C54.4777 24.5016 54.2024 24.5337 53.8617 24.5337C53.0521 24.5337 52.5003 24.3226 52.1769 23.9177C51.9177 23.5931 51.8696 23.3178 51.8696 22.3131V19.0717H50.8328V17.8733H50.8489L50.8475 17.8759Z" fill="#6A7791"/>
<path d="M11.942 23.1909C12.2012 23.2069 12.3468 23.239 12.5579 23.239C14.0329 23.239 14.8105 22.5095 14.8105 21.0678C14.8105 19.7718 14.1305 19.0263 12.9467 19.0263C12.606 19.0263 12.3468 19.0584 11.942 19.2214V23.1909ZM10.3213 14.2792H11.4396C11.7309 14.2792 11.942 14.5223 11.942 14.7655V17.9735C12.4764 17.7784 12.8986 17.6982 13.401 17.6982C15.2809 17.6982 16.4473 18.9622 16.4473 20.9556C16.4473 23.2564 14.9722 24.5043 12.2666 24.5043C11.6347 24.5043 11.1644 24.4562 10.3226 24.2932V14.2778L10.3213 14.2792Z" fill="#6A7791"/>
<path d="M21.9079 19.1559C21.6166 19.0744 21.3574 19.0263 21.0167 19.0263C19.7367 19.0263 18.9912 19.8199 18.9912 21.1654C18.9912 22.5108 19.6886 23.239 20.9686 23.239C21.3253 23.239 21.5845 23.1909 21.9252 23.0934V19.1559H21.9092H21.9079ZM21.9079 14.2778H23.0262C23.3174 14.2778 23.5285 14.505 23.5285 14.7802V24.2598C22.5398 24.4709 21.7622 24.551 21.0007 24.551C18.6024 24.551 17.3384 23.4167 17.3384 21.2455C17.3384 19.0744 18.7159 17.745 20.855 17.745C21.2599 17.745 21.5351 17.7771 21.9079 17.8746V14.2778Z" fill="#6A7791"/>
<path d="M26.3957 17.8921V21.7814C26.3957 22.8022 26.7364 23.1429 27.7732 23.1429C28.146 23.1429 28.4533 23.1109 28.8421 23.0454V17.8921H30.4628V24.2278C29.2643 24.455 28.5028 24.5351 27.6436 24.5351C26.5908 24.5351 25.8773 24.324 25.4231 23.9192C24.9528 23.4823 24.8071 22.9465 24.8071 21.8456V17.8921H26.3957Z" fill="#6A7791"/>
<path d="M31.7108 14.2778H32.8291C33.1203 14.2778 33.3314 14.505 33.3314 14.7642V24.4375H31.7108V14.2778Z" fill="#6A7791"/>
<path d="M101.631 14.2778H102.749C103.041 14.2778 103.252 14.505 103.252 14.7642V24.4375H101.647V14.2778H101.631Z" fill="#6A7791"/>
<path d="M37.3824 14.2778H38.5983C38.8896 14.2778 39.1007 14.505 39.1007 14.7642V22.9143H43.0862V24.4535H37.3824V14.2778Z" fill="#6A7791"/>
<path d="M55.9367 17.8922H57.5574V24.455H55.9367V17.8922ZM55.9367 15.542H57.5574V16.7405H55.9367V15.542Z" fill="#6A7791"/>
<path d="M68.1539 14.2782C68.4292 14.2782 68.6403 14.5053 68.6403 14.7806V21.5051C68.6403 22.9641 68.4626 25.4746 65.9828 26.5929C65.7236 26.1226 65.3508 25.4907 65.1397 25.1179C65.8037 24.7611 66.2259 24.3884 66.4851 23.902C66.8259 23.2701 66.9221 22.5245 66.9221 20.5645V14.2769H68.1539V14.2782Z" fill="#6A7791"/>
<path d="M77.099 17.8919C78.2814 17.8919 80.3404 17.4377 81.782 18.0376C82.0572 17.9561 82.9978 17.7129 84.0186 17.7129C86.4009 17.7129 86.6761 18.9608 86.6761 20.1593V24.4374H85.0714V20.2568C85.0714 19.1064 84.1482 18.7497 82.7547 19.0744C82.7547 19.4311 82.7386 24.4214 82.7386 24.4214H81.134V20.2568C81.134 19.3496 80.5835 18.6856 78.7197 19.0744V24.4214H77.099V17.8906V17.8919Z" fill="#6A7791"/>
<path d="M6.04447 15.2987C5.9309 15.0234 5.76923 14.7803 5.2829 14.7803H3.93746C2.36621 18.3944 1.29601 20.9704 0 24.4536H1.81441C2.64145 22.1034 3.79182 19.0745 4.82863 16.449C5.23346 17.5834 5.8013 19.3016 6.01107 20.0137H4.50396L4.00159 21.3912H6.48137C6.74057 22.1528 7.21087 23.5945 7.50214 24.4536H9.43012C8.16618 20.8394 6.87017 17.3082 6.04313 15.2987" fill="#6A7791"/>
<path d="M92.1528 20.404C92.0873 19.4808 91.6184 18.9784 90.7432 18.9784C89.82 18.9784 89.2842 19.5783 89.1546 20.404H92.1528ZM89.1706 21.5063C89.4298 23.9046 92.4601 23.3702 93.3833 22.5271V23.8725C92.5897 24.3428 91.9083 24.5205 90.9851 24.5205C88.878 24.5205 87.6315 23.2726 87.6315 21.1669C87.6315 19.0613 88.8954 17.7158 90.8394 17.7158C93.7561 17.7158 93.724 20.551 93.7401 21.5076H89.1706" fill="#6A7791"/>
<path d="M99.0871 20.404C99.0216 19.4808 98.5526 18.9784 97.6775 18.9784C96.7382 18.9784 96.2185 19.5783 96.0889 20.404H99.0871ZM96.1049 21.5063C96.3641 23.9046 99.3944 23.3702 100.318 22.5271V23.8725C99.524 24.3428 98.8426 24.5205 97.9193 24.5205C95.8123 24.5205 94.5657 23.2726 94.5657 21.1669C94.5657 19.0613 95.8297 17.7158 97.7737 17.7158C100.69 17.7158 100.674 20.551 100.674 21.5076H96.1049" fill="#6A7791"/>
<path d="M48.2235 19.1077C47.8508 19.0422 45.2908 18.5078 45.2908 21.1172C45.2908 23.7265 47.9002 23.2081 48.2235 23.0946V19.109V19.1077ZM49.8282 17.8758V24.2276C48.4186 24.5188 43.6381 25.4261 43.6381 21.0998C43.6381 18.9607 45.0156 17.6968 47.1546 17.6968C48.3211 17.7128 49.0185 17.8745 49.8282 17.8745" fill="#6A7791"/>
<path d="M74.2465 19.1078C73.8737 19.0423 71.3138 18.5079 71.3138 21.1172C71.3138 23.7266 73.9232 23.2082 74.2465 23.0773V19.1078ZM75.8672 17.8919V24.2437C74.4576 24.535 69.6771 25.4595 69.6771 21.1159C69.6771 18.9768 71.0546 17.7129 73.1937 17.7129C74.3601 17.7289 75.0415 17.8906 75.8672 17.8906" fill="#6A7791"/>
<path d="M58.5287 17.8761H59.5655C59.5655 16.3529 59.8087 15.5259 60.4567 14.9434C60.9751 14.4731 61.6886 14.2139 62.4982 14.2139C62.7414 14.2139 62.887 14.2299 63.1783 14.2793V15.5593C62.9672 15.5272 62.8376 15.5112 62.6759 15.5112C62.1575 15.5112 61.7527 15.6889 61.5095 16.0136C61.2503 16.3382 61.1688 16.7912 61.1688 17.8774H62.7895V19.0759H61.1688V24.439H59.5482V19.0919H58.5114V17.8761H58.5274H58.5287Z" fill="#6A7791"/>
<path d="M118.419 5.47998C118.305 5.47998 118.208 5.52808 118.062 5.62561L116.782 6.56488C116.75 6.58092 116.669 6.66242 116.701 6.77599C116.733 6.88955 116.846 6.92162 116.896 6.92162H119.942C120.024 6.92162 120.104 6.85615 120.137 6.77599C120.153 6.71052 120.137 6.61432 120.056 6.56488C119.974 6.49942 118.808 5.65768 118.808 5.65768C118.63 5.52808 118.532 5.47998 118.419 5.47998Z" fill="#6A7791"/>
<path d="M118.435 4.16774C118.613 4.16774 118.76 4.24924 118.953 4.39488C119.213 4.57258 122.129 6.71166 122.145 6.71166C122.177 6.72769 122.193 6.79316 122.161 6.82522C122.161 6.84126 121.529 7.68433 121.529 7.68433C121.302 7.99163 121.027 7.99163 120.768 7.99163H114.691C114.61 7.99163 114.514 8.0571 114.48 8.13726C114.448 8.18536 114.432 8.2829 114.512 8.39647C114.674 8.6236 117.979 13.177 118.418 13.7595C118.758 13.2892 120.848 10.422 120.88 10.3725C120.912 10.3231 120.896 10.291 120.88 10.275C120.864 10.2429 120.832 10.2429 120.815 10.2429H119.762C119.68 10.2429 119.632 10.291 119.616 10.3244C119.584 10.3725 118.418 11.9772 118.418 11.9772L116.311 9.07654H121.221C121.545 9.07654 121.885 9.01107 122.177 8.60623C122.502 8.15196 123.36 6.98556 123.505 6.79182C123.619 6.63016 123.587 6.43509 123.44 6.32152C123.44 6.32152 119.551 3.50237 119.373 3.37277C119.032 3.11357 118.725 3 118.434 3C118.142 3 117.85 3.11357 117.494 3.35674C117.317 3.48634 113.232 6.46849 113.232 6.46849C113.2 6.50055 113.184 6.54999 113.2 6.58206L113.719 7.31156C113.751 7.34363 113.8 7.35966 113.848 7.32759L117.818 4.44298C118.077 4.24791 118.255 4.16774 118.434 4.16774" fill="#6A7791"/>
<path d="M109.619 11.8637C109.587 11.9612 109.603 12.0908 109.652 12.2525L110.138 13.7596C110.154 13.7917 110.186 13.9053 110.316 13.8892C110.429 13.8892 110.493 13.8077 110.511 13.7436L111.45 10.8429C111.482 10.7614 111.45 10.6652 111.368 10.6158C111.32 10.5837 111.223 10.5677 111.141 10.6158C111.06 10.6813 109.893 11.523 109.893 11.523C109.748 11.6686 109.65 11.7662 109.618 11.8637" fill="#6A7791"/>
<path d="M108.389 11.4426C108.437 11.281 108.567 11.1674 108.762 11.0218C109.021 10.8441 111.938 8.72102 111.954 8.70499C111.986 8.68896 112.035 8.67292 112.067 8.72102C112.083 8.73706 112.699 9.58013 112.699 9.58013C112.926 9.88743 112.845 10.1466 112.765 10.4072C112.683 10.6664 110.95 15.9813 110.885 16.1764C110.853 16.2579 110.885 16.3541 110.95 16.4196C110.982 16.4516 111.08 16.5171 111.209 16.4677C111.469 16.3862 116.816 14.6372 117.529 14.4101C117.188 13.9398 115.099 11.0725 115.067 11.0231C115.035 10.9737 115.001 10.975 114.985 10.991C114.953 11.0071 114.937 11.0231 114.937 11.0391C114.921 11.0712 114.646 11.9463 114.612 12.0439C114.58 12.1254 114.612 12.1895 114.644 12.2055C114.677 12.2536 115.843 13.8583 115.843 13.8583L112.424 14.9766C112.424 14.9766 113.833 10.6343 113.947 10.3096C114.045 10.0023 114.093 9.66163 113.801 9.25679C113.477 8.80252 112.619 7.62008 112.489 7.44239C112.376 7.28072 112.182 7.24732 112.019 7.36088C112.019 7.36088 108.13 10.18 107.952 10.3096C107.611 10.5528 107.402 10.812 107.304 11.0872C107.206 11.3625 107.239 11.6871 107.369 12.092C107.435 12.3031 109.006 17.1157 109.006 17.1157C109.022 17.1638 109.072 17.1811 109.12 17.1811L109.979 16.9059C110.027 16.8899 110.044 16.8404 110.027 16.7923L108.504 12.1254C108.358 11.8181 108.342 11.607 108.39 11.4453" fill="#6A7791"/>
<path d="M112.99 22.2021C113.072 22.2676 113.201 22.2997 113.363 22.2836H114.952C114.984 22.2836 115.097 22.2676 115.147 22.154C115.179 22.0405 115.115 21.959 115.081 21.9269L112.619 20.1285C112.553 20.0804 112.457 20.0804 112.376 20.1446C112.328 20.1766 112.278 20.2742 112.31 20.3557C112.342 20.4532 112.781 21.8147 112.781 21.8307C112.846 22.0418 112.91 22.138 112.992 22.2035" fill="#6A7791"/>
<path d="M112.213 23.2392C112.067 23.1416 112.002 22.98 111.921 22.7528C111.824 22.4616 110.706 19.0091 110.706 18.9931C110.69 18.961 110.706 18.8955 110.754 18.8795C110.77 18.8795 111.758 18.5548 111.758 18.5548C112.131 18.4413 112.342 18.5869 112.552 18.7499C112.779 18.9116 117.299 22.201 117.462 22.3146C117.528 22.3627 117.64 22.3801 117.721 22.3306C117.77 22.2986 117.851 22.2491 117.851 22.1035V15.4604C117.301 15.6381 113.93 16.7404 113.865 16.7565C113.8 16.7725 113.8 16.8046 113.8 16.8219C113.8 16.854 113.816 16.87 113.832 16.8874C113.864 16.9034 114.61 17.4539 114.675 17.5033C114.741 17.5528 114.805 17.5354 114.837 17.5354C114.902 17.5194 116.781 16.9034 116.781 16.9034V20.5002C116.781 20.5002 113.087 17.8106 112.811 17.6156C112.552 17.4205 112.245 17.2749 111.758 17.4379C111.224 17.6156 109.847 18.0538 109.619 18.1353C109.424 18.2008 109.344 18.3785 109.408 18.5562C109.408 18.5562 110.899 23.1256 110.964 23.3367C111.093 23.7415 111.271 24.0168 111.498 24.1958C111.741 24.3735 112.048 24.455 112.471 24.455H117.754C117.802 24.455 117.835 24.4229 117.851 24.3735V23.4823C117.851 23.4342 117.803 23.4008 117.754 23.4008H112.843C112.552 23.3848 112.357 23.3354 112.211 23.2392" fill="#6A7791"/>
<path d="M123.863 22.1863C123.945 22.1209 124.009 22.0247 124.059 21.8456L124.545 20.3385C124.561 20.3065 124.577 20.1929 124.479 20.1274C124.382 20.062 124.284 20.0954 124.236 20.1274L121.774 21.9258C121.708 21.9739 121.676 22.0714 121.708 22.1529C121.724 22.2184 121.806 22.2825 121.903 22.2825H123.459C123.654 22.2825 123.766 22.2665 123.863 22.185" fill="#6A7791"/>
<path d="M124.609 23.2553C124.479 23.3528 124.302 23.3688 124.059 23.3688H120.105C120.073 23.3688 120.024 23.3368 120.024 23.2873V22.2185C120.024 21.8297 120.251 21.668 120.46 21.521C120.688 21.3594 125.208 18.0699 125.371 17.9563C125.436 17.9082 125.484 17.8107 125.468 17.7132C125.452 17.6651 125.42 17.5675 125.29 17.5181C125.031 17.4366 119.668 15.7037 118.971 15.4766V19.6732C118.971 19.7387 119.003 19.7547 119.019 19.7547C119.051 19.7708 119.067 19.7547 119.1 19.7387C119.134 19.7227 119.878 19.1882 119.943 19.1228C120.009 19.0747 120.025 19.0092 120.025 18.9771V16.9356L123.444 18.0378C123.444 18.0378 119.75 20.7274 119.474 20.9225C119.215 21.1175 118.972 21.3594 118.972 21.8617V24.1144C118.972 24.3095 119.118 24.4551 119.297 24.4551H124.32C124.741 24.4551 125.066 24.3736 125.293 24.1959C125.536 24.0182 125.698 23.759 125.828 23.3528C125.893 23.1417 127.464 18.3291 127.464 18.3291C127.48 18.281 127.448 18.2316 127.416 18.2155L126.557 17.9403C126.509 17.9243 126.459 17.9563 126.443 18.0058L124.92 22.6727C124.856 22.98 124.759 23.1591 124.613 23.2566" fill="#6A7791"/>
<path d="M127.217 11.8477C127.185 11.7502 127.103 11.6527 126.958 11.5565L125.678 10.6172C125.646 10.6012 125.548 10.5357 125.451 10.6172C125.353 10.6827 125.353 10.7949 125.369 10.8443L126.309 13.745C126.341 13.8265 126.422 13.8746 126.504 13.8746C126.569 13.8746 126.649 13.8265 126.681 13.729C126.713 13.6314 127.152 12.2699 127.168 12.2539C127.233 12.0762 127.249 11.9626 127.216 11.8491" fill="#6A7791"/>
<path d="M128.449 11.4747C128.497 11.6363 128.465 11.7993 128.401 12.0251C128.303 12.3164 127.185 15.7515 127.169 15.7849C127.153 15.8183 127.121 15.8504 127.055 15.8504C127.039 15.8504 126.051 15.5257 126.051 15.5257C125.678 15.4121 125.596 15.1529 125.516 14.8937C125.436 14.6345 123.702 9.31956 123.636 9.12449C123.604 9.04299 123.523 8.97885 123.441 8.96282C123.393 8.94679 123.28 8.96282 123.198 9.07639C123.036 9.30352 119.731 13.8569 119.293 14.4555C119.843 14.6332 123.214 15.7355 123.278 15.7515C123.326 15.7675 123.36 15.7515 123.376 15.7355C123.392 15.7034 123.392 15.6874 123.392 15.654C123.376 15.6219 123.101 14.7468 123.067 14.6492C123.035 14.5677 122.986 14.5356 122.954 14.5356C122.888 14.5196 121.01 13.9037 121.01 13.9037L123.117 11.003C123.117 11.003 124.526 15.3453 124.624 15.67C124.721 15.9773 124.883 16.2859 125.369 16.4316C125.904 16.6093 127.281 17.0635 127.508 17.129C127.703 17.1945 127.865 17.0969 127.929 16.9179C127.929 16.9179 129.42 12.3485 129.484 12.1374C129.614 11.7325 129.63 11.4079 129.55 11.1326C129.452 10.8574 129.259 10.6142 128.918 10.355C128.74 10.2254 124.64 7.26064 124.64 7.26064C124.608 7.22858 124.542 7.24461 124.51 7.27668L123.992 8.00618C123.96 8.03825 123.976 8.10372 124.008 8.13578L127.977 11.0204C128.269 11.15 128.398 11.3117 128.448 11.4747" fill="#6A7791"/>
<path d="M46.9461 29.8637H44.9527V28.875H50.0085V29.8637H48.015V34.8607H46.9448V29.8637H46.9461Z" fill="#6A7791"/>
<path fill-rule="evenodd" clip-rule="evenodd" d="M44.9026 28.8247H50.0586V29.9136H48.0652V34.9106H46.8948V29.9136H44.9026V28.8247ZM46.9462 29.8134V29.8635H46.995V34.8104H47.965V29.8134H49.9584V28.9249H45.0029V29.8134H46.9462Z" fill="#6A7791"/>
<path d="M50.8956 28.8734H54.7195V29.8621H51.9592V31.2864H54.4617V32.2898H51.9592V33.869H54.7342V34.8577H50.8956V28.8721V28.8734Z" fill="#6A7791"/>
<path fill-rule="evenodd" clip-rule="evenodd" d="M50.8455 28.872H50.8956V28.8232H54.7696V29.9122H52.0093V31.2362H54.5117V32.3398H52.0093V33.8189H54.7843V34.9078H50.8455V28.872ZM54.6694 28.9234H50.9457V34.8076H54.6841V33.9191H51.909V32.2396H54.4115V31.3364H51.909V29.8119H54.6694V28.9234Z" fill="#6A7791"/>
<path d="M58.7639 29.7741C58.4926 29.7741 58.2361 29.8155 57.9929 29.8997C57.7498 29.9839 57.536 30.1108 57.3503 30.2832C57.1659 30.4555 57.0189 30.672 56.9107 30.9325C56.8025 31.193 56.7477 31.5003 56.7477 31.8557C56.7477 32.2111 56.8025 32.5171 56.9107 32.779C57.0189 33.0395 57.1659 33.2573 57.3503 33.4323C57.5347 33.6074 57.7484 33.7356 57.9929 33.8198C58.2361 33.904 58.494 33.9454 58.7639 33.9454C59.0591 33.9454 59.333 33.9053 59.5869 33.8238C59.8408 33.7423 60.0746 33.6327 60.2924 33.4951L60.7052 34.4397C60.4487 34.5974 60.1494 34.7217 59.8047 34.8125C59.46 34.9034 59.0979 34.9488 58.7198 34.9488C58.2468 34.9488 57.8193 34.8713 57.4358 34.7163C57.0523 34.5613 56.7263 34.3449 56.4578 34.067C56.1892 33.7891 55.9835 33.4617 55.8378 33.0849C55.6922 32.7082 55.6201 32.2993 55.6201 31.8557C55.6201 31.4122 55.6922 31.0033 55.8378 30.6265C55.9835 30.2498 56.1892 29.9224 56.4578 29.6445C56.7263 29.3666 57.0523 29.1502 57.4358 28.9952C57.8193 28.8402 58.2481 28.7627 58.7198 28.7627C59.0979 28.7627 59.46 28.8095 59.8047 28.903C60.1494 28.9965 60.45 29.1221 60.7052 29.2798L60.2924 30.2177C60.0759 30.0854 59.8408 29.9785 59.5869 29.897C59.333 29.8155 59.0591 29.7755 58.7639 29.7755V29.7741Z" fill="#6A7791"/>
<path fill-rule="evenodd" clip-rule="evenodd" d="M58.7198 28.8126C58.2537 28.8126 57.8313 28.8892 57.4546 29.0414C57.0772 29.194 56.7571 29.4066 56.4938 29.6791C56.2302 29.9519 56.0279 30.2735 55.8846 30.6444C55.7414 31.0149 55.6702 31.4175 55.6702 31.8556C55.6702 32.2936 55.7414 32.6962 55.8846 33.0667C56.0279 33.4376 56.2302 33.7592 56.4938 34.032C56.7571 34.3045 57.0772 34.5171 57.4546 34.6697C57.8313 34.8219 58.2523 34.8985 58.7198 34.8985C59.0938 34.8985 59.4516 34.8536 59.7919 34.7639C60.116 34.6785 60.3983 34.5635 60.6417 34.4194L60.2696 33.5679C60.0624 33.6935 59.8409 33.7947 59.6022 33.8713C59.3428 33.9546 59.0637 33.9953 58.7639 33.9953C58.4888 33.9953 58.2253 33.9531 57.9766 33.867C57.7255 33.7805 57.5055 33.6486 57.3158 33.4685C57.1258 33.2882 56.9751 33.0644 56.8644 32.798C56.7532 32.5288 56.6976 32.216 56.6976 31.8556C56.6976 31.4951 56.7532 31.181 56.8644 30.9131C56.9751 30.6467 57.1259 30.4241 57.3161 30.2464L57.3162 30.2463C57.5072 30.069 57.727 29.9385 57.9766 29.8522C58.2253 29.7661 58.4874 29.7238 58.7639 29.7238H58.814V29.7255C59.0949 29.7298 59.3573 29.7705 59.6022 29.8491C59.8406 29.9257 60.0631 30.0244 60.2694 30.1454L60.6416 29.2996C60.3993 29.1554 60.1157 29.0391 59.7916 28.9512C59.4514 28.8589 59.0937 28.8126 58.7198 28.8126ZM58.7138 29.8245V29.8254H58.7639C59.0546 29.8254 59.3232 29.8648 59.5716 29.9446C59.8218 30.0249 60.0533 30.1302 60.2662 30.2603L60.3151 30.2901L60.7686 29.2599L60.7315 29.2369C60.4715 29.0763 60.1663 28.949 59.8178 28.8544C59.4686 28.7597 59.1021 28.7124 58.7198 28.7124C58.2426 28.7124 57.8072 28.7908 57.417 28.9485C57.0275 29.106 56.6955 29.3262 56.4217 29.6095C56.1483 29.8925 55.939 30.2256 55.7911 30.6083C55.643 30.9914 55.5699 31.4064 55.5699 31.8556C55.5699 32.3047 55.643 32.7197 55.7911 33.1028C55.939 33.4855 56.1483 33.8186 56.4217 34.1016C56.6955 34.3849 57.0275 34.6051 57.417 34.7626C57.8072 34.9203 58.2413 34.9987 58.7198 34.9987C59.1019 34.9987 59.4683 34.9528 59.8174 34.8608C60.1661 34.7689 60.4701 34.6429 60.7314 34.4822L60.7686 34.4594L60.3149 33.4214L60.2656 33.4526C60.0514 33.5879 59.8214 33.6957 59.5716 33.7759C59.3232 33.8556 59.0546 33.8951 58.7639 33.8951C58.4992 33.8951 58.2469 33.8545 58.0093 33.7723C57.7714 33.6903 57.5638 33.5657 57.3848 33.3958C57.206 33.2261 57.0628 33.0143 56.957 32.7596C56.8518 32.5051 56.7978 32.2058 56.7978 31.8556C56.7978 31.5052 56.8518 31.2047 56.957 30.9515C57.0628 30.6969 57.2058 30.4866 57.3844 30.3196C57.5649 30.1522 57.7726 30.0288 58.0093 29.9469C58.2319 29.8698 58.4663 29.8293 58.7138 29.8245Z" fill="#6A7791"/>
<path d="M61.738 34.8607V28.875H62.8015V31.2893H65.6728V28.875H66.743V34.8607H65.6728V32.2914H62.8015V34.8607H61.738Z" fill="#6A7791"/>
<path fill-rule="evenodd" clip-rule="evenodd" d="M61.6879 28.8247H62.8517V31.239H65.6227V28.8247H66.7931V34.9106H65.6227V32.3413H62.8517V34.9106H61.6879V28.8247ZM61.7881 28.9249V34.8104H62.7515V32.2411H65.7229V34.8104H66.6929V28.9249H65.7229V31.3392H62.7515V28.9249H61.7881Z" fill="#6A7791"/>
<path d="M69.2668 29.8704V34.8607H68.2194V28.875H69.8574L72.0419 33.8653V28.875H73.0827V34.8607H71.4514L69.2668 29.8704Z" fill="#6A7791"/>
<path fill-rule="evenodd" clip-rule="evenodd" d="M68.1693 28.8247H69.8902L71.9918 33.6257V28.8247H73.1328V34.9106H71.4186L69.3169 30.1096V34.9106H68.1693V28.8247ZM69.2668 29.8702L69.3127 29.8501L71.4841 34.8104H73.0326V28.9249H72.092V34.1045L69.8246 28.9249H68.2695V34.8104H69.2167V29.8702H69.2668Z" fill="#6A7791"/>
<path d="M80.3684 31.8557C80.3684 32.294 80.2923 32.7015 80.14 33.0769C79.9877 33.4524 79.7739 33.781 79.4973 34.059C79.2221 34.3369 78.8947 34.5546 78.5153 34.7123C78.1358 34.87 77.7176 34.9488 77.2607 34.9488C76.8038 34.9488 76.3842 34.87 76.0061 34.7123C75.6267 34.5546 75.2993 34.3369 75.0241 34.059C74.7489 33.781 74.5337 33.4537 74.3814 33.0769C74.2291 32.7001 74.153 32.294 74.153 31.8557C74.153 31.4175 74.2291 31.0167 74.3814 30.6372C74.5337 30.2578 74.7475 29.9304 75.0241 29.6552C75.2993 29.38 75.6267 29.1622 76.0061 29.0019C76.3856 28.8415 76.8038 28.7627 77.2607 28.7627C77.7176 28.7627 78.1358 28.8429 78.5153 29.0019C78.8947 29.1622 79.2207 29.38 79.4973 29.6552C79.7725 29.9304 79.9863 30.2578 80.14 30.6372C80.2936 31.0167 80.3684 31.4228 80.3684 31.8557ZM79.0951 32.7122C79.1954 32.4556 79.2461 32.1711 79.2461 31.8557C79.2461 31.5404 79.1954 31.2558 79.0951 30.9993C78.9936 30.7428 78.8547 30.525 78.6783 30.342C78.5006 30.1602 78.2922 30.02 78.0503 29.9211C77.8098 29.8222 77.5453 29.7741 77.2607 29.7741C76.9761 29.7741 76.7196 29.8235 76.4778 29.9211C76.2373 30.02 76.0275 30.1602 75.8498 30.342C75.6721 30.5237 75.5331 30.7428 75.4329 30.9993C75.3314 31.2558 75.282 31.5404 75.282 31.8557C75.282 32.1711 75.3327 32.4556 75.4329 32.7122C75.5331 32.9687 75.6721 33.1865 75.8498 33.3695C76.0275 33.5526 76.2359 33.6915 76.4778 33.7904C76.7182 33.8893 76.9801 33.9387 77.2607 33.9387C77.5413 33.9387 77.8098 33.8893 78.0503 33.7904C78.2908 33.6915 78.5006 33.5512 78.6783 33.3695C78.856 33.1878 78.9949 32.9687 79.0951 32.7122Z" fill="#6A7791"/>
<path fill-rule="evenodd" clip-rule="evenodd" d="M77.2607 28.8126C76.8096 28.8126 76.3981 28.8904 76.0256 29.0478C75.6518 29.2058 75.3299 29.42 75.0595 29.6904L75.0594 29.6905C74.7879 29.9607 74.5778 30.2822 74.4279 30.6557C74.2781 31.0289 74.2031 31.4234 74.2031 31.8556C74.2031 32.2878 74.2781 32.6876 74.4279 33.058C74.5778 33.4287 74.7892 33.7504 75.0597 34.0235C75.33 34.2965 75.6517 34.5106 76.0253 34.6658L76.0254 34.6659C76.3967 34.8207 76.8096 34.8985 77.2607 34.8985C77.7118 34.8985 78.1233 34.8207 78.4961 34.6658C78.8697 34.5106 79.1914 34.2965 79.4617 34.0235L79.4618 34.0234C79.7334 33.7505 79.9436 33.4275 80.0935 33.0579C80.2432 32.6889 80.3183 32.2879 80.3183 31.8556C80.3183 31.4286 80.2446 31.0288 80.0935 30.6558C79.9423 30.2823 79.7321 29.9607 79.462 29.6905C79.1901 29.42 78.8696 29.2058 78.4959 29.0478C78.1232 28.8917 77.7116 28.8126 77.2607 28.8126ZM75.9866 28.9555C76.373 28.7923 76.7979 28.7124 77.2607 28.7124C77.7236 28.7124 78.1485 28.7936 78.5346 28.9555L78.5348 28.9555C78.9199 29.1182 79.2513 29.3396 79.5326 29.6195L79.5327 29.6196C79.813 29.8998 80.0304 30.2329 80.1864 30.6182C80.3427 31.0041 80.4185 31.4168 80.4185 31.8556C80.4185 32.2997 80.3413 32.7137 80.1864 33.0956C80.0317 33.4768 79.8143 33.8112 79.5328 34.0941C79.2527 34.3769 78.9197 34.5983 78.5345 34.7584C78.1483 34.9188 77.7235 34.9987 77.2607 34.9987C76.7979 34.9987 76.3717 34.9189 75.9868 34.7584C75.6016 34.5983 75.2686 34.3769 74.9885 34.094C74.7085 33.8113 74.4897 33.4783 74.335 33.0955C74.1801 32.7123 74.1028 32.2997 74.1028 31.8556C74.1028 31.4113 74.1801 31.0041 74.3349 30.6184C74.4896 30.233 74.7071 29.8998 74.9887 29.6195C75.2688 29.3395 75.6016 29.1182 75.9866 28.9555ZM76.459 29.8744C76.7071 29.7744 76.97 29.7238 77.2607 29.7238C77.551 29.7238 77.8221 29.7729 78.0693 29.8745C78.3174 29.976 78.5316 30.1201 78.7141 30.3067L78.7144 30.307C78.8955 30.495 79.0379 30.7185 79.1417 30.9807L79.1418 30.9809C79.2446 31.2439 79.2962 31.5348 79.2962 31.8556C79.2962 32.1763 79.2446 32.4672 79.1418 32.7302C79.0394 32.9925 78.8969 33.2175 78.7141 33.4044C78.5315 33.5911 78.316 33.7352 78.0694 33.8366C77.8222 33.9382 77.5471 33.9886 77.2607 33.9886C76.9742 33.9886 76.7058 33.9381 76.4588 33.8366C76.2108 33.7352 75.9965 33.5925 75.8138 33.4042C75.6312 33.2161 75.4887 32.9926 75.3863 32.7302C75.2835 32.4672 75.2318 32.1763 75.2318 31.8556C75.2318 31.535 75.2821 31.244 75.3863 30.9808C75.4887 30.7186 75.6312 30.4936 75.814 30.3067C75.9966 30.12 76.2121 29.9759 76.4587 29.8746L76.459 29.8744ZM76.4966 29.9673C76.2623 30.0637 76.0584 30.2001 75.8856 30.3768C75.713 30.5533 75.5776 30.7666 75.4796 31.0174L75.4795 31.0176C75.3806 31.2673 75.332 31.5455 75.332 31.8556C75.332 32.1654 75.3819 32.4437 75.4796 32.6938C75.5775 32.9444 75.7129 33.1565 75.8857 33.3344C76.0584 33.5123 76.261 33.6475 76.4967 33.7438L76.4968 33.7439C76.7308 33.8401 76.9861 33.8884 77.2607 33.8884C77.5355 33.8884 77.7974 33.84 78.0313 33.7439C78.2657 33.6475 78.4697 33.511 78.6425 33.3343C78.8151 33.1578 78.9505 32.9445 79.0485 32.6938C79.1461 32.4437 79.196 32.1654 79.196 31.8556C79.196 31.5457 79.1462 31.2675 79.0485 31.0175C78.9493 30.7667 78.8138 30.5547 78.6423 30.3767C78.4695 30.2 78.2669 30.0636 78.0314 29.9673L78.0313 29.9672C77.7976 29.8712 77.5396 29.824 77.2607 29.824C76.9822 29.824 76.7322 29.8723 76.4966 29.9673Z" fill="#6A7791"/>
<path d="M82.5089 33.8705H85.2626V34.8592H81.4387V28.8735H82.5089V33.8705Z" fill="#6A7791"/>
<path fill-rule="evenodd" clip-rule="evenodd" d="M81.3885 28.8232H82.559V33.8202H85.3127V34.9091H81.3885V28.8232ZM81.4888 28.9234V34.8089H85.2124V33.9204H82.4588V28.9234H81.4888Z" fill="#6A7791"/>
<path d="M91.6611 31.8557C91.6611 32.294 91.5849 32.7015 91.4326 33.0769C91.2803 33.4524 91.0665 33.781 90.79 34.059C90.5147 34.3369 90.1874 34.5546 89.8079 34.7123C89.4285 34.87 89.0103 34.9488 88.5534 34.9488C88.0964 34.9488 87.6769 34.87 87.2988 34.7123C86.9193 34.5546 86.592 34.3369 86.3167 34.059C86.0415 33.781 85.8264 33.4537 85.6741 33.0769C85.5218 32.7001 85.4456 32.294 85.4456 31.8557C85.4456 31.4175 85.5218 31.0167 85.6741 30.6372C85.8264 30.2578 86.0402 29.9304 86.3167 29.6552C86.592 29.38 86.9193 29.1622 87.2988 29.0019C87.6782 28.8415 88.0964 28.7627 88.5534 28.7627C89.0103 28.7627 89.4285 28.8429 89.8079 29.0019C90.1874 29.1622 90.5134 29.38 90.79 29.6552C91.0652 29.9304 91.279 30.2578 91.4326 30.6372C91.5863 31.0167 91.6611 31.4228 91.6611 31.8557ZM90.3878 32.7122C90.488 32.4556 90.5388 32.1711 90.5388 31.8557C90.5388 31.5404 90.488 31.2558 90.3878 30.9993C90.2863 30.7428 90.1473 30.525 89.971 30.342C89.7933 30.1602 89.5848 30.02 89.343 29.9211C89.1025 29.8222 88.8379 29.7741 88.5534 29.7741C88.2688 29.7741 88.0122 29.8235 87.7704 29.9211C87.5299 30.02 87.3201 30.1602 87.1424 30.342C86.9647 30.5237 86.8258 30.7428 86.7256 30.9993C86.624 31.2558 86.5746 31.5404 86.5746 31.8557C86.5746 32.1711 86.6254 32.4556 86.7256 32.7122C86.8258 32.9687 86.9647 33.1865 87.1424 33.3695C87.3201 33.5526 87.5286 33.6915 87.7704 33.7904C88.0109 33.8893 88.2728 33.9387 88.5534 33.9387C88.8339 33.9387 89.1025 33.8893 89.343 33.7904C89.5835 33.6915 89.7933 33.5512 89.971 33.3695C90.1487 33.1878 90.2876 32.9687 90.3878 32.7122Z" fill="#6A7791"/>
<path fill-rule="evenodd" clip-rule="evenodd" d="M88.5533 28.8126C88.1022 28.8126 87.6908 28.8904 87.3182 29.0478C86.9444 29.2058 86.6225 29.42 86.3521 29.6904L86.352 29.6905C86.0805 29.9607 85.8704 30.2822 85.7205 30.6557C85.5707 31.0289 85.4957 31.4234 85.4957 31.8556C85.4957 32.2878 85.5707 32.6876 85.7205 33.058C85.8704 33.4287 86.0818 33.7504 86.3523 34.0235C86.6226 34.2965 86.9443 34.5106 87.3179 34.6658L87.318 34.6659C87.6893 34.8207 88.1022 34.8985 88.5533 34.8985C89.0044 34.8985 89.4159 34.8207 89.7887 34.6658C90.1623 34.5106 90.484 34.2965 90.7543 34.0235L90.7544 34.0234C91.026 33.7505 91.2362 33.4275 91.3861 33.0579C91.5358 32.6889 91.6109 32.2879 91.6109 31.8556C91.6109 31.4286 91.5372 31.0288 91.3861 30.6558C91.2349 30.2823 91.0247 29.9607 90.7546 29.6905C90.4827 29.42 90.1622 29.2058 89.7884 29.0478C89.4157 28.8917 89.0042 28.8126 88.5533 28.8126ZM87.2792 28.9555C87.6656 28.7923 88.0905 28.7124 88.5533 28.7124C89.0162 28.7124 89.4411 28.7936 89.8272 28.9555L89.8274 28.9555C90.2125 29.1182 90.5439 29.3396 90.8253 29.6195L90.8253 29.6196C91.1056 29.8998 91.323 30.2329 91.479 30.6182C91.6353 31.0041 91.7111 31.4168 91.7111 31.8556C91.7111 32.2997 91.6339 32.7137 91.479 33.0956C91.3243 33.4768 91.1069 33.8112 90.8254 34.0941C90.5453 34.3769 90.2123 34.5983 89.8271 34.7584C89.4409 34.9188 89.0161 34.9987 88.5533 34.9987C88.0905 34.9987 87.6643 34.9189 87.2794 34.7584C86.8942 34.5983 86.5612 34.3769 86.2811 34.094C86.0011 33.8113 85.7823 33.4783 85.6276 33.0955C85.4727 32.7123 85.3954 32.2997 85.3954 31.8556C85.3954 31.4113 85.4727 31.0041 85.6275 30.6184C85.7822 30.233 85.9997 29.8998 86.2813 29.6195C86.5613 29.3395 86.8942 29.1182 87.2792 28.9555ZM87.7516 29.8744C87.9997 29.7744 88.2626 29.7238 88.5533 29.7238C88.8435 29.7238 89.1147 29.7729 89.3619 29.8745C89.61 29.976 89.8242 30.1201 90.0067 30.3067L90.007 30.307C90.1881 30.495 90.3305 30.7185 90.4343 30.9807L90.4344 30.9809C90.5372 31.2439 90.5888 31.5348 90.5888 31.8556C90.5888 32.1763 90.5372 32.4672 90.4344 32.7302C90.332 32.9925 90.1895 33.2175 90.0067 33.4044C89.8241 33.5911 89.6086 33.7352 89.362 33.8366C89.1148 33.9382 88.8397 33.9886 88.5533 33.9886C88.2668 33.9886 87.9984 33.9381 87.7514 33.8366C87.5034 33.7352 87.2891 33.5925 87.1064 33.4042C86.9238 33.2161 86.7813 32.9926 86.6788 32.7302C86.5761 32.4672 86.5244 32.1763 86.5244 31.8556C86.5244 31.535 86.5747 31.244 86.6789 30.9808C86.7813 30.7186 86.9238 30.4936 87.1066 30.3067C87.2892 30.12 87.5047 29.9759 87.7513 29.8746L87.7516 29.8744ZM87.7892 29.9673C87.5549 30.0637 87.351 30.2001 87.1782 30.3768C87.0056 30.5533 86.8702 30.7666 86.7722 31.0174L86.7721 31.0176C86.6732 31.2673 86.6246 31.5455 86.6246 31.8556C86.6246 32.1654 86.6745 32.4437 86.7722 32.6938C86.8701 32.9444 87.0055 33.1565 87.1783 33.3344C87.351 33.5123 87.5536 33.6475 87.7893 33.7438L87.7894 33.7439C88.0234 33.8401 88.2787 33.8884 88.5533 33.8884C88.828 33.8884 89.09 33.84 89.3239 33.7439C89.5583 33.6475 89.7623 33.511 89.9351 33.3343C90.1077 33.1578 90.2431 32.9445 90.3411 32.6938C90.4387 32.4437 90.4886 32.1654 90.4886 31.8556C90.4886 31.5457 90.4388 31.2675 90.3411 31.0175C90.2419 30.7667 90.1064 30.5547 89.9349 30.3767C89.7621 30.2 89.5595 30.0636 89.324 29.9673L89.3239 29.9672C89.0902 29.8712 88.8322 29.824 88.5533 29.824C88.2748 29.824 88.0248 29.8723 87.7892 29.9673Z" fill="#6A7791"/>
<path d="M95.6105 34.9488C95.1375 34.9488 94.71 34.8713 94.3265 34.7163C93.9431 34.5613 93.6171 34.3449 93.3485 34.067C93.08 33.7891 92.8742 33.4617 92.7286 33.0849C92.5829 32.7082 92.5108 32.2993 92.5108 31.8557C92.5108 31.4122 92.5829 31.0033 92.7286 30.6265C92.8729 30.2498 93.08 29.9224 93.3485 29.6445C93.6171 29.3666 93.9431 29.1502 94.3265 28.9952C94.71 28.8402 95.1389 28.7627 95.6105 28.7627C96.0434 28.7627 96.4523 28.8095 96.8357 28.903C97.2192 28.9965 97.5398 29.1221 97.795 29.2798L97.3889 30.2177C97.1724 30.0854 96.9159 29.9785 96.6206 29.897C96.3253 29.8155 96.0033 29.7755 95.6533 29.7755C95.3821 29.7755 95.1255 29.8169 94.8824 29.901C94.6392 29.9852 94.4254 30.1121 94.2397 30.2845C94.0553 30.4569 93.9083 30.6733 93.8001 30.9338C93.6919 31.1944 93.6371 31.5017 93.6371 31.8571C93.6371 32.2125 93.6919 32.5184 93.8001 32.7803C93.9083 33.0409 94.0553 33.2586 94.2397 33.4337C94.4241 33.6087 94.6379 33.737 94.8824 33.8211C95.1269 33.9053 95.3834 33.9467 95.6533 33.9467C95.8644 33.9467 96.0768 33.924 96.2879 33.8799C96.499 33.8358 96.6968 33.7717 96.8785 33.6875V32.6093H95.5424V31.6059H97.942V34.4037C97.799 34.4918 97.6334 34.5693 97.4436 34.6361C97.2539 34.703 97.0562 34.7591 96.8491 34.8058C96.642 34.8526 96.4322 34.8887 96.2185 34.9127C96.0047 34.9368 95.8016 34.9501 95.6092 34.9501L95.6105 34.9488Z" fill="#6A7791"/>
<path fill-rule="evenodd" clip-rule="evenodd" d="M95.6105 28.8126C95.1444 28.8126 94.722 28.8892 94.3453 29.0414C93.9679 29.194 93.6479 29.4066 93.3845 29.6791C93.1209 29.952 92.9173 30.2736 92.7754 30.6443L92.7753 30.6444C92.6321 31.0149 92.5609 31.4175 92.5609 31.8556C92.5609 32.2936 92.6321 32.6962 92.7753 33.0667C92.9187 33.4376 93.1209 33.7592 93.3845 34.032C93.6479 34.3045 93.9679 34.5171 94.3453 34.6697C94.722 34.8219 95.1431 34.8985 95.6105 34.8985H95.7157C95.874 34.8946 96.0397 34.8822 96.2128 34.8627C96.4247 34.8389 96.6326 34.8031 96.838 34.7568C97.0434 34.7104 97.2393 34.6548 97.427 34.5887C97.6034 34.5266 97.7579 34.4554 97.8919 34.3753V31.6558H95.5925V32.559H96.9286V33.7193L96.8995 33.7328C96.7141 33.8187 96.5126 33.884 96.2982 33.9288C96.0838 33.9735 95.868 33.9966 95.6533 33.9966C95.3782 33.9966 95.1161 33.9544 94.866 33.8683C94.615 33.7819 94.395 33.6499 94.2052 33.4698C94.0153 33.2895 93.8645 33.0657 93.7538 32.7993C93.6426 32.5302 93.587 32.2174 93.587 31.8569C93.587 31.4965 93.6426 31.1824 93.7538 30.9144C93.8645 30.648 94.0154 30.4254 94.2055 30.2477L94.2056 30.2476C94.3966 30.0704 94.6164 29.9399 94.866 29.8535C95.1148 29.7674 95.3768 29.7252 95.6533 29.7252C96.0071 29.7252 96.3337 29.7657 96.6339 29.8485C96.9108 29.925 97.1552 30.0238 97.3655 30.1453L97.7317 29.2998C97.4882 29.156 97.1852 29.0396 96.8238 28.9515C96.4446 28.859 96.0398 28.8126 95.6105 28.8126ZM95.4916 34.9971C95.0598 34.9851 94.6654 34.9071 94.3078 34.7626C93.9183 34.6051 93.5863 34.3849 93.3125 34.1016C93.039 33.8186 92.8297 33.4855 92.6818 33.1028C92.5338 32.7197 92.4607 32.3047 92.4607 31.8556C92.4607 31.4065 92.5337 30.9915 92.6818 30.6084C92.8284 30.2256 93.0391 29.8924 93.3125 29.6095C93.5863 29.3262 93.9183 29.106 94.3078 28.9485C94.698 28.7908 95.1334 28.7124 95.6105 28.7124C96.047 28.7124 96.4599 28.7596 96.8476 28.8541C97.2346 28.9485 97.5605 29.0758 97.8214 29.2369L97.8582 29.2597L97.4119 30.2903L97.3627 30.2603C97.151 30.1309 96.899 30.0257 96.6073 29.9451C96.317 29.865 95.9995 29.8254 95.6533 29.8254C95.3872 29.8254 95.1363 29.866 94.8987 29.9482C94.662 30.0302 94.4543 30.1535 94.2738 30.321C94.0952 30.488 93.9522 30.6982 93.8464 30.9529C93.7412 31.206 93.6872 31.5065 93.6872 31.8569C93.6872 32.2072 93.7412 32.5064 93.8464 32.761C93.9522 33.0157 94.0954 33.2274 94.2742 33.3971C94.4532 33.5671 94.6607 33.6916 94.8987 33.7736C95.1376 33.8558 95.3886 33.8964 95.6533 33.8964C95.8608 33.8964 96.0698 33.8741 96.2777 33.8307C96.4742 33.7896 96.6584 33.7311 96.8284 33.6551V32.6592H95.4923V31.5556H97.9921V34.4314L97.9683 34.4461C97.8218 34.5365 97.6528 34.6154 97.4603 34.6832C97.2686 34.7507 97.0689 34.8074 96.8601 34.8545C96.6513 34.9017 96.4397 34.938 96.224 34.9623C96.0089 34.9865 95.8039 35 95.6092 35H95.4886L95.4916 34.9971Z" fill="#6A7791"/>
<path d="M102.578 28.8735H103.811L101.694 32.6159V34.8592H100.624V32.6159L98.4979 28.8735H99.7311L101.155 31.5684L102.58 28.8735H102.578Z" fill="#6A7791"/>
<path fill-rule="evenodd" clip-rule="evenodd" d="M98.4117 28.8232H99.7612L101.155 31.461L102.535 28.8499L102.578 28.8726V28.8232H103.897L101.744 32.6289V34.9091H100.573V32.629L98.4117 28.8232ZM102.61 28.9234H103.726L101.644 32.6025V34.8089H100.674V32.6025L98.5839 28.9234H99.7008L101.155 31.6755L102.61 28.9234Z" fill="#6A7791"/>
</svg>
