<svg width="145" height="40" viewBox="0 0 145 40" fill="none" xmlns="http://www.w3.org/2000/svg">
<g clip-path="url(#clip0_507_10155)">
<path d="M130.886 3.1311C130.759 3.1311 130.614 3.18593 130.431 3.3316L128.815 4.51576C128.779 4.53456 128.67 4.64264 128.725 4.78831C128.779 4.93398 128.906 4.97 128.96 4.97H132.809C132.918 4.97 133.009 4.89638 133.045 4.78831C133.064 4.71469 133.045 4.58781 132.954 4.51576C132.845 4.44214 131.393 3.36762 131.374 3.36762C131.174 3.20316 131.029 3.1311 130.884 3.1311" fill="#6A7791"/>
<path d="M130.904 1.49274C131.123 1.49274 131.304 1.60238 131.558 1.78408C131.868 2.0206 135.571 4.71629 135.59 4.73509C135.626 4.77112 135.663 4.82594 135.626 4.88076C135.626 4.89956 134.845 5.97408 134.845 5.97408C134.555 6.37506 134.21 6.37506 133.883 6.37506H126.222C126.112 6.37506 126.003 6.44868 125.95 6.55676C125.914 6.61158 125.877 6.73846 125.986 6.88413C126.186 7.17547 130.362 12.9318 130.925 13.679C131.36 13.0775 133.993 9.45295 134.03 9.3809C134.066 9.32608 134.049 9.29005 134.03 9.25402C134.011 9.218 133.975 9.1992 133.939 9.1992H132.614C132.505 9.1992 132.45 9.25402 132.414 9.29005C132.359 9.34487 130.907 11.3843 130.907 11.3843L128.239 7.7049H134.43C134.829 7.7049 135.265 7.63128 135.646 7.10342C136.063 6.53953 137.136 5.04523 137.317 4.80871C137.462 4.60822 137.426 4.3529 137.226 4.20723C137.226 4.20723 132.323 0.637506 132.088 0.473039C131.652 0.145671 131.271 0 130.907 0C130.544 0 130.163 0.145671 129.727 0.455809C129.508 0.620277 124.334 4.39049 124.334 4.39049C124.298 4.42652 124.279 4.50014 124.298 4.53616L124.97 5.44622C125.006 5.50104 125.079 5.50104 125.134 5.46501L130.145 1.80444C130.472 1.58515 130.708 1.4943 130.907 1.4943" fill="#6A7791"/>
<path d="M119.792 11.237C119.756 11.3639 119.756 11.5095 119.828 11.7288L120.445 13.6413C120.464 13.6774 120.518 13.823 120.681 13.823C120.826 13.823 120.916 13.7134 120.935 13.6413L122.134 9.96197C122.17 9.85233 122.115 9.74269 122.025 9.67063C121.952 9.61581 121.825 9.61581 121.734 9.67063C121.625 9.74425 120.173 10.8188 120.154 10.8188C119.936 10.9832 119.828 11.1101 119.791 11.237" fill="#6A7791"/>
<path d="M118.231 10.7091C118.304 10.5086 118.449 10.3629 118.702 10.1812C119.029 9.94473 122.715 7.26626 122.734 7.24903C122.77 7.213 122.843 7.213 122.879 7.26783C122.898 7.28662 123.678 8.36114 123.678 8.36114C123.969 8.76213 123.859 9.0895 123.752 9.39963C123.642 9.727 121.464 16.467 121.391 16.7223C121.355 16.832 121.391 16.9589 121.482 17.0325C121.536 17.0873 121.627 17.1594 121.808 17.1061C122.134 16.9965 128.889 14.7926 129.779 14.5013C129.343 13.8998 126.71 10.2752 126.673 10.2032C126.637 10.1484 126.582 10.1484 126.564 10.1671C126.528 10.1859 126.509 10.2032 126.49 10.2408C126.472 10.2768 126.109 11.3889 126.073 11.497C126.038 11.6066 126.073 11.6787 126.109 11.7163C126.164 11.7711 127.616 13.8105 127.616 13.8105L123.294 15.2124C123.294 15.2124 125.074 9.71134 125.201 9.31035C125.327 8.92816 125.382 8.49115 125.02 7.98052C124.603 7.39783 123.53 5.92233 123.349 5.68581C123.204 5.48531 122.968 5.44929 122.768 5.59496C122.768 5.59496 117.865 9.18348 117.63 9.34795C117.194 9.65808 116.94 9.98545 116.813 10.3316C116.704 10.6778 116.723 11.0788 116.887 11.5878C116.977 11.8431 118.957 17.9441 118.957 17.9441C118.976 17.9989 119.03 18.0349 119.083 18.0177L120.154 17.6716C120.209 17.6528 120.245 17.5807 120.228 17.5259L118.303 11.6066C118.193 11.1696 118.176 10.9143 118.229 10.7138" fill="#6A7791"/>
<path d="M124.041 24.3145C124.15 24.3881 124.295 24.4242 124.512 24.4242H126.509C126.545 24.4242 126.69 24.4054 126.745 24.2597C126.781 24.114 126.709 24.0044 126.654 23.9684L123.567 21.7097C123.477 21.6549 123.349 21.6549 123.258 21.7285C123.185 21.7833 123.149 21.8929 123.185 22.001C123.221 22.1279 123.785 23.8415 123.785 23.8587C123.858 24.114 123.93 24.2409 124.039 24.3145" fill="#6A7791"/>
<path d="M123.06 25.6444C122.879 25.5175 122.788 25.317 122.696 25.0257C122.57 24.6435 121.171 20.2906 121.154 20.2718C121.135 20.2169 121.154 20.1621 121.227 20.1261C121.246 20.1261 122.498 19.7079 122.498 19.7079C122.97 19.5622 123.243 19.7627 123.514 19.9632C123.786 20.1637 129.507 24.3161 129.724 24.4806C129.814 24.5542 129.942 24.5542 130.05 24.4994C130.105 24.4633 130.214 24.3897 130.214 24.208V15.792C129.524 16.0113 125.257 17.4132 125.185 17.432C125.113 17.4508 125.112 17.5056 125.112 17.5228C125.112 17.5588 125.13 17.5964 125.148 17.6137C125.183 17.6325 126.128 18.3248 126.219 18.3968C126.309 18.4517 126.383 18.4517 126.437 18.4329C126.511 18.4141 128.889 17.6309 128.889 17.6309V22.1843C128.889 22.1843 124.222 18.7775 123.877 18.5409C123.55 18.3044 123.151 18.1039 122.551 18.3044C121.88 18.5237 120.136 19.0876 119.845 19.1785C119.61 19.2521 119.5 19.4698 119.574 19.7063C119.574 19.7063 121.444 25.4987 121.535 25.7712C121.699 26.2819 121.916 26.628 122.225 26.8458C122.534 27.0635 122.915 27.1731 123.441 27.1731H130.105C130.159 27.1731 130.214 27.1371 130.214 27.0635V25.9341C130.214 25.8793 130.159 25.8245 130.105 25.8245H123.914C123.479 25.8245 123.224 25.7697 123.06 25.6428" fill="#6A7791"/>
<path d="M137.768 24.3145C137.877 24.2409 137.949 24.0952 138.022 23.8963L138.639 21.965C138.658 21.929 138.694 21.7833 138.549 21.6924C138.422 21.6016 138.294 21.6564 138.239 21.6924L135.134 23.9699C135.043 24.0247 135.007 24.1516 135.043 24.2613C135.079 24.3349 135.17 24.4257 135.279 24.4257H137.24C137.495 24.4257 137.657 24.3897 137.766 24.3161" fill="#6A7791"/>
<path d="M138.711 25.6631C138.53 25.79 138.33 25.8088 138.021 25.8088H133.028C132.973 25.8088 132.918 25.7728 132.918 25.6991V24.3505C132.918 23.8587 133.19 23.6582 133.463 23.4577C133.735 23.2572 139.456 19.086 139.673 18.9403C139.763 18.8667 139.818 18.7586 139.782 18.6302C139.763 18.5566 139.727 18.4485 139.563 18.3937C139.237 18.284 132.483 16.0802 131.593 15.8076V21.127C131.593 21.2006 131.629 21.2178 131.647 21.2366C131.683 21.2554 131.721 21.2366 131.738 21.2178C131.774 21.199 132.718 20.5067 132.809 20.4346C132.9 20.361 132.9 20.289 132.9 20.2341V17.6481L137.221 19.05C137.221 19.05 132.555 22.4568 132.21 22.6933C131.883 22.9298 131.574 23.24 131.574 23.8775V26.7188C131.574 26.9742 131.755 27.1371 131.991 27.1371H138.346C138.89 27.1371 139.271 27.0274 139.581 26.8097C139.89 26.5904 140.09 26.2458 140.252 25.7352C140.343 25.4799 142.304 19.3789 142.304 19.3789C142.322 19.3241 142.285 19.2693 142.249 19.2332L141.178 18.8871C141.123 18.8683 141.051 18.9059 141.033 18.9607L139.126 24.8799C139.017 25.317 138.89 25.5362 138.709 25.6631" fill="#6A7791"/>
<path d="M141.998 11.2183C141.962 11.0914 141.852 10.9818 141.671 10.8533L140.055 9.66915C140.019 9.65035 139.891 9.55951 139.765 9.66915C139.638 9.76 139.638 9.88844 139.674 9.96049L140.855 13.6399C140.891 13.7495 141 13.8043 141.109 13.8043C141.2 13.8043 141.29 13.7307 141.345 13.6226C141.381 13.4958 141.944 11.7822 141.944 11.7649C142.018 11.5096 142.035 11.3467 141.999 11.2183" fill="#6A7791"/>
<path d="M143.559 10.7264C143.632 10.9269 143.578 11.1446 143.485 11.4375C143.359 11.8197 141.943 16.1726 141.943 16.1914C141.924 16.2463 141.869 16.2823 141.816 16.2651C141.798 16.2651 140.545 15.8468 140.545 15.8468C140.074 15.7012 139.983 15.3738 139.874 15.0449C139.765 14.7175 137.587 7.97747 137.496 7.72215C137.46 7.61251 137.351 7.54046 137.242 7.52166C137.168 7.50286 137.042 7.52166 136.951 7.64853C136.751 7.93988 132.575 13.6962 132.031 14.4606C132.722 14.6799 136.989 16.0818 137.061 16.1006C137.132 16.1194 137.17 16.1006 137.17 16.0646C137.189 16.0285 137.206 15.9909 137.189 15.9737C137.17 15.9377 136.825 14.8256 136.772 14.7175C136.736 14.6078 136.662 14.5718 136.627 14.5718C136.553 14.553 134.175 13.7698 134.175 13.7698L136.844 10.0905C136.844 10.0905 138.623 15.5915 138.75 15.9925C138.876 16.3747 139.076 16.7569 139.676 16.9574C140.347 17.1767 142.091 17.7406 142.363 17.8314C142.599 17.905 142.817 17.7954 142.889 17.5589C142.889 17.5589 144.76 11.7665 144.85 11.4939C145.014 10.9833 145.05 10.5651 144.923 10.2189C144.814 9.87276 144.56 9.56262 144.124 9.23525C143.905 9.07078 138.731 5.30057 138.731 5.30057C138.677 5.26454 138.622 5.28177 138.586 5.31936L137.932 6.22942C137.896 6.28424 137.913 6.35629 137.968 6.39388L142.98 10.0545C143.325 10.327 143.506 10.5275 143.56 10.728" fill="#6A7791"/>
<path d="M83.2428 14.4794H81.8813V27.029H83.8611V15.0981C83.8611 14.7707 83.6066 14.4794 83.2443 14.4794" fill="#6A7791"/>
<path d="M49.5444 16.0458H47.5475V17.5213H49.5444V16.0458Z" fill="#6A7791"/>
<path d="M101.854 28.1771H99.857V29.6526H101.854V28.1771Z" fill="#6A7791"/>
<path d="M28.3929 29.6698H30.3899V28.1943H28.3929V29.6698Z" fill="#6A7791"/>
<path d="M9.65533 29.6698H11.6523V28.1943H9.65533V29.6698Z" fill="#6A7791"/>
<path d="M12.397 29.6698H14.394V28.1943H12.397V29.6698Z" fill="#6A7791"/>
<path d="M53.7382 29.6698H55.7351V28.1943H53.7382V29.6698Z" fill="#6A7791"/>
<path d="M56.4799 29.6698H58.4768V28.1943H56.4799V29.6698Z" fill="#6A7791"/>
<path d="M109.86 25.4079C108.209 25.4079 107.192 24.479 107.192 22.8939C107.192 21.3087 108.227 20.3078 109.879 20.3078C110.588 20.3078 111.114 20.4535 111.75 20.8717V19.1597C110.988 18.8323 110.388 18.6866 109.589 18.6866C106.956 18.6866 105.141 20.4535 105.141 23.0395C105.141 23.9684 105.359 24.7516 105.776 25.3891H103.453C102.182 25.3891 101.765 24.9709 101.765 23.7131V18.9044H99.7852V23.7131C99.7852 24.9693 99.3683 25.3891 98.0974 25.3891H95.4649V23.0583C95.4649 20.4723 93.6678 18.7054 91.0167 18.7054C90.2173 18.7054 89.6365 18.8323 88.8558 19.1785V20.8905C89.4913 20.4723 90.0174 20.3266 90.7263 20.3266C92.3782 20.3266 93.4133 21.3103 93.4133 22.9127V25.4267H88.2032V27.1575H98.2441C99.3699 27.1575 100.186 26.957 100.75 26.5748C101.312 26.957 102.13 27.1575 103.256 27.1575H112.371V25.4267H109.865V25.4079H109.86Z" fill="#6A7791"/>
<path d="M64.36 20.3078C66.0118 20.3078 67.047 21.2914 67.047 22.8938V25.4078H62.4895V20.8716C63.1249 20.4534 63.6339 20.3078 64.36 20.3078ZM49.6537 20.4346V25.353C49.254 25.4987 46.0579 26.1174 46.0579 22.9298C46.0392 19.6875 49.1994 20.3438 49.6537 20.4346ZM78.4682 14.4778H77.1067V25.4062H74.0746V15.0981C74.0746 14.7707 73.8201 14.4966 73.4579 14.4966H72.0964V25.425H69.1002V23.0567C69.1002 20.4707 67.3031 18.7038 64.6519 18.7038C63.8525 18.7038 63.2717 18.8307 62.491 19.1768V15.0965C62.491 14.7691 62.2365 14.495 61.8743 14.495H60.5128V25.4235H58.7157C57.4448 25.4235 57.0279 25.0053 57.0279 23.7475V18.9388H55.0481V23.7475C55.0481 25.0037 54.6313 25.4235 53.3603 25.4235H51.635V18.9388C50.6186 18.9388 49.7833 18.7383 48.3484 18.7383C45.716 18.7383 44.0266 20.3046 44.0266 22.9283C44.0266 24.0028 44.2624 24.8048 44.6621 25.4235H42.0297C40.3778 25.4235 39.3614 24.4946 39.3614 22.9095V18.9388H37.3285V23.0551C37.3285 25.5864 38.9804 27.1167 41.5956 27.1167H53.5243C54.65 27.1167 55.4666 26.9162 56.0302 26.534C56.5751 26.899 57.3745 27.0979 58.4456 27.1167H79.0896V15.0808C79.0896 14.7707 78.8351 14.4793 78.4729 14.4793" fill="#6A7791"/>
<path d="M18.8594 22.9126C18.8594 19.6891 22.018 20.3438 22.4552 20.4346V23.0395V25.353C22.0742 25.4987 18.8594 26.1001 18.8594 22.9126ZM28.8098 18.7054C28.0104 18.7054 27.4296 18.8323 26.6489 19.1784V20.8904C27.2844 20.4722 27.7934 20.3266 28.5194 20.3266C30.1713 20.3266 31.2065 21.3102 31.2065 22.9126V25.4266H26.1228C24.9424 25.4266 24.488 25.0616 24.435 23.9871V18.9419C23.4185 18.9419 22.5832 18.7414 21.1483 18.7414C18.5331 18.7414 16.864 20.2717 16.8265 22.8578V23.7506C16.8265 25.0068 16.4097 25.4266 15.1387 25.4266H14.6297C13.3588 25.4266 12.9419 25.0084 12.9419 23.7506V18.9419H10.945V23.7506C10.945 25.0068 10.5281 25.4266 9.25718 25.4266H8.64045C7.36952 25.4266 6.95264 25.0084 6.95264 23.7506V15.1169C6.95264 14.7895 6.69814 14.5154 6.33591 14.5154H4.97443V27.867C4.5029 27.9406 4.12037 27.9766 3.66759 27.9766C2.39666 27.9766 1.97978 27.5584 1.97978 26.3006V21.4919H0V26.3743C0 27.7229 0.199851 28.3964 0.761933 28.9243C1.32402 29.4161 2.21398 29.6714 3.50364 29.6714C4.57472 29.6714 5.5006 29.5806 6.97138 29.2892V26.9757C7.33517 27.0666 7.77078 27.1214 8.26104 27.1402H9.46015C10.5859 27.1402 11.4025 26.9397 11.9661 26.5575C12.4923 26.9225 13.237 27.1042 14.2535 27.1214H15.4338C16.6689 27.1026 17.5213 26.8661 18.0663 26.3743C18.1209 26.3194 18.1755 26.2646 18.2115 26.2098C19.8821 27.5036 22.641 27.1198 24.0571 26.8473C24.5661 27.029 25.1828 27.1198 25.9635 27.1198H33.244V23.0583C33.244 20.4722 31.4469 18.7054 28.8145 18.7054" fill="#6A7791"/>
<path d="M70.5991 38.1032C70.2244 38.1032 69.8621 38.0578 69.5124 37.9685C69.1611 37.8792 68.8504 37.7367 68.5803 37.5393C68.3102 37.3435 68.0931 37.0929 67.9292 36.7859C67.7652 36.4804 67.6825 36.1171 67.6825 35.6957C67.6825 35.3558 67.7496 35.0378 67.8855 34.7434C68.0197 34.4489 68.218 34.1936 68.4757 33.9774C68.7348 33.7613 69.0424 33.5921 69.3984 33.4715C69.7544 33.3509 70.1541 33.2898 70.5975 33.2898H71.0035V32.8575H71.6155V37.4876H72.7709V38.1016H70.5991V38.1032ZM71.005 37.4907V33.9069H70.3586C70.0995 33.9069 69.8449 33.9524 69.5951 34.0416C69.3453 34.1309 69.1236 34.2515 68.9316 34.405C68.7395 34.5585 68.585 34.7449 68.4694 34.9674C68.3539 35.1898 68.2977 35.4326 68.2977 35.6988C68.2977 35.9823 68.3508 36.2345 68.4569 36.4554C68.5631 36.6762 68.7083 36.8642 68.8925 37.013C69.0768 37.1634 69.2954 37.2793 69.5483 37.3639C69.8012 37.4469 70.0713 37.4892 70.3586 37.4892H71.005V37.4907ZM70.0557 31.9271C69.9636 32.0195 69.8543 32.0649 69.7279 32.0649C69.6014 32.0649 69.4921 32.0195 69.4 31.9271C69.3078 31.8346 69.2626 31.725 69.2626 31.5981C69.2626 31.4712 69.3078 31.3616 69.4 31.2692C69.4921 31.1768 69.6014 31.1313 69.7279 31.1313C69.8543 31.1313 69.9636 31.1768 70.0557 31.2692C70.1479 31.3616 70.1931 31.4712 70.1931 31.5981C70.1931 31.725 70.1463 31.8346 70.0557 31.9271ZM71.5999 31.9271C71.5078 32.0195 71.3985 32.0649 71.272 32.0649C71.1455 32.0649 71.0363 32.0195 70.9441 31.9271C70.852 31.8346 70.8067 31.725 70.8067 31.5981C70.8067 31.4712 70.852 31.3616 70.9441 31.2692C71.0363 31.1768 71.1455 31.1313 71.272 31.1313C71.3985 31.1313 71.5078 31.1768 71.5999 31.2692C71.692 31.3616 71.7373 31.4712 71.7373 31.5981C71.7373 31.725 71.6905 31.8346 71.5999 31.9271Z" fill="#6A7791"/>
<path d="M70.5991 38.2098C70.2181 38.2098 69.845 38.1628 69.4858 38.0719C69.1221 37.9795 68.7957 37.8291 68.5178 37.6255C68.2352 37.4203 68.0057 37.1556 67.8355 36.8361C67.6638 36.515 67.5763 36.1312 67.5763 35.6958C67.5763 35.3402 67.6481 35.005 67.7887 34.698C67.9276 34.3925 68.1368 34.1216 68.407 33.8944C68.6771 33.6705 68.9987 33.4935 69.3641 33.3697C69.731 33.246 70.1463 33.1818 70.5975 33.1818H70.8973V32.7494H71.7232V37.3796H72.8786V38.2082H70.6006L70.5991 38.2098ZM70.482 37.9952H72.6632V37.5957H71.5078V32.9656H71.1096V33.3979H70.596C70.1681 33.3979 69.7763 33.4574 69.4312 33.5733C69.0908 33.6893 68.791 33.8522 68.5428 34.0605C68.2961 34.2672 68.1072 34.5116 67.9823 34.7888C67.8542 35.0676 67.7887 35.3715 67.7887 35.6958C67.7887 36.0967 67.8667 36.446 68.0229 36.7358C68.1774 37.0256 68.3867 37.2668 68.6427 37.4532C68.9003 37.6412 69.2017 37.779 69.5389 37.8652C69.8434 37.9435 70.1603 37.9858 70.482 37.9952ZM71.005 37.5957H70.3586C70.062 37.5957 69.7794 37.5519 69.5155 37.4657C69.2485 37.3765 69.0174 37.2527 68.8254 37.0961C68.6318 36.9394 68.4757 36.7389 68.3601 36.5024C68.2477 36.2675 68.1899 35.9981 68.1899 35.6989C68.1899 35.3997 68.2524 35.1522 68.3742 34.9173C68.4944 34.6855 68.6599 34.4834 68.8644 34.3205C69.0627 34.1623 69.2969 34.0338 69.5592 33.9399C69.8215 33.8459 70.0901 33.7989 70.3586 33.7989H71.1128V37.4892H71.005V37.5942V37.5957ZM70.3586 34.0135C70.1151 34.0135 69.8699 34.0573 69.631 34.1419C69.3906 34.2281 69.1783 34.344 68.9987 34.4881C68.8176 34.6322 68.6708 34.8108 68.5647 35.016C68.4569 35.2227 68.4054 35.4451 68.4054 35.6973C68.4054 35.9636 68.4554 36.2017 68.5537 36.4069C68.6536 36.6152 68.791 36.7906 68.9597 36.9269C69.1314 37.0663 69.3406 37.1791 69.5826 37.259C69.8247 37.3389 70.0854 37.378 70.3586 37.378H70.8989V34.0104H70.3586V34.0135ZM71.272 32.1699C71.1159 32.1699 70.98 32.1135 70.8692 32.0007C70.7568 31.8879 70.7006 31.7517 70.7006 31.5966C70.7006 31.4415 70.7568 31.3037 70.8692 31.1925C70.9816 31.0797 71.1174 31.0233 71.272 31.0233C71.4266 31.0233 71.564 31.0797 71.6748 31.1925C71.7857 31.3053 71.8435 31.4415 71.8435 31.5966C71.8435 31.7517 71.7873 31.8864 71.6748 32.0007C71.5624 32.1135 71.4266 32.1699 71.272 32.1699ZM71.272 31.2363C71.1737 31.2363 71.0909 31.2708 71.0191 31.3429C70.9473 31.4149 70.9129 31.4979 70.9129 31.5966C70.9129 31.6953 70.9473 31.7783 71.0191 31.8504C71.0909 31.9224 71.1737 31.9569 71.272 31.9569C71.3704 31.9569 71.4531 31.9224 71.5234 31.8504C71.5952 31.7767 71.6296 31.6937 71.6296 31.5966C71.6296 31.4995 71.5952 31.4149 71.5234 31.3429C71.4516 31.2708 71.3688 31.2363 71.2705 31.2363H71.272ZM69.7278 32.1699C69.5717 32.1699 69.4359 32.1135 69.325 32.0007C69.2126 31.8879 69.1564 31.7517 69.1564 31.5966C69.1564 31.4415 69.2126 31.3037 69.325 31.1925C69.4374 31.0797 69.5733 31.0233 69.7278 31.0233C69.8824 31.0233 70.0198 31.0797 70.1307 31.1925C70.2415 31.3053 70.2993 31.4415 70.2993 31.5966C70.2993 31.7517 70.2431 31.8864 70.1307 32.0007C70.0183 32.1135 69.8824 32.1699 69.7278 32.1699ZM69.7278 31.2363C69.6295 31.2363 69.5467 31.2708 69.4749 31.3429C69.4031 31.4149 69.3687 31.4979 69.3687 31.5966C69.3687 31.6953 69.4031 31.7783 69.4749 31.8504C69.5467 31.9224 69.6295 31.9569 69.7278 31.9569C69.8262 31.9569 69.909 31.9224 69.9792 31.8504C70.051 31.7767 70.0854 31.6937 70.0854 31.5966C70.0854 31.4995 70.051 31.4149 69.9792 31.3429C69.9074 31.2708 69.8247 31.2363 69.7263 31.2363H69.7278Z" fill="#6A7791"/>
<path d="M72.3759 37.4875H74.5836V38.1016H72.3759V37.4875Z" fill="#6A7791"/>
<path d="M74.6898 38.2081H72.2682V37.3795H74.6898V38.2081ZM72.4821 37.9935H74.4759V37.5941H72.4821V37.9935Z" fill="#6A7791"/>
<path d="M74.1886 37.4875H76.3979V38.1016H74.1886V37.4875Z" fill="#6A7791"/>
<path d="M76.5041 38.2081H74.0809V37.3795H76.5041V38.2081ZM74.2948 37.9935H76.2902V37.5941H74.2948V37.9935Z" fill="#6A7791"/>
<path d="M75.9997 37.4875H77.9498V33.2897H78.5619V37.4875H80.4074V38.1015H75.9982V37.4875H75.9997ZM77.7344 39.7556C77.6423 39.848 77.533 39.8934 77.4065 39.8934C77.28 39.8934 77.1707 39.848 77.0786 39.7556C76.9865 39.6632 76.9412 39.5535 76.9412 39.4267C76.9412 39.2998 76.9865 39.1901 77.0786 39.0977C77.1707 39.0053 77.28 38.9599 77.4065 38.9599C77.533 38.9599 77.6423 39.0053 77.7344 39.0977C77.8265 39.1901 77.8718 39.2998 77.8718 39.4267C77.8718 39.5535 77.8249 39.6632 77.7344 39.7556ZM79.2785 39.7556C79.1864 39.848 79.0771 39.8934 78.9507 39.8934C78.8242 39.8934 78.7149 39.848 78.6228 39.7556C78.5307 39.6632 78.4854 39.5535 78.4854 39.4267C78.4854 39.2998 78.5307 39.1901 78.6228 39.0977C78.7149 39.0053 78.8242 38.9599 78.9507 38.9599C79.0771 38.9599 79.1864 39.0053 79.2785 39.0977C79.3707 39.1901 79.4159 39.2998 79.4159 39.4267C79.4159 39.5535 79.3691 39.6632 79.2785 39.7556Z" fill="#6A7791"/>
<path d="M78.9507 40C78.7945 40 78.6587 39.9436 78.5478 39.8308C78.437 39.718 78.3792 39.5818 78.3792 39.4267C78.3792 39.2716 78.4354 39.1338 78.5478 39.0226C78.6603 38.9114 78.7961 38.8534 78.9507 38.8534C79.1052 38.8534 79.2426 38.9098 79.3535 39.0226C79.4643 39.1354 79.5221 39.2716 79.5221 39.4267C79.5221 39.5818 79.4659 39.7165 79.3535 39.8308C79.2411 39.9436 79.1052 40 78.9507 40ZM78.9507 39.0664C78.8523 39.0664 78.7696 39.1009 78.6977 39.1729C78.6259 39.245 78.5916 39.328 78.5916 39.4267C78.5916 39.5254 78.6259 39.6084 78.6977 39.6804C78.7696 39.7525 78.8523 39.787 78.9507 39.787C79.049 39.787 79.1318 39.7525 79.202 39.6804C79.2739 39.6068 79.3082 39.5238 79.3082 39.4267C79.3082 39.3296 79.2739 39.245 79.202 39.1729C79.1302 39.1009 79.0475 39.0664 78.9491 39.0664H78.9507ZM77.4065 40C77.2504 40 77.1145 39.9436 77.0037 39.8308C76.8928 39.718 76.8351 39.5818 76.8351 39.4267C76.8351 39.2716 76.8913 39.1338 77.0037 39.0226C77.1161 38.9098 77.2519 38.8534 77.4065 38.8534C77.5611 38.8534 77.6985 38.9098 77.8093 39.0226C77.9217 39.1354 77.978 39.2716 77.978 39.4267C77.978 39.5818 77.9217 39.7165 77.8093 39.8308C77.6969 39.9436 77.5611 40 77.4065 40ZM77.4065 39.0664C77.3081 39.0664 77.2254 39.1009 77.1536 39.1729C77.0817 39.245 77.0474 39.3265 77.0474 39.4267C77.0474 39.5269 77.0817 39.6084 77.1536 39.6804C77.2254 39.7525 77.3081 39.787 77.4065 39.787C77.5049 39.787 77.5876 39.7525 77.6579 39.6804C77.7297 39.6068 77.764 39.5238 77.764 39.4267C77.764 39.3296 77.7297 39.245 77.6579 39.1729C77.5861 39.1009 77.5033 39.0664 77.4049 39.0664H77.4065ZM80.5136 38.2081H75.8904V37.3795H77.8421V33.1816H78.6681V37.3795H80.5136V38.2081ZM76.1043 37.9935H80.2997V37.5941H78.4542V33.3962H78.056V37.5941H76.1043V37.9935Z" fill="#6A7791"/>
<path d="M80.0108 37.4875H82.2201V38.1016H80.0108V37.4875Z" fill="#6A7791"/>
<path d="M82.3263 38.2081H79.9031V37.3795H82.3263V38.2081ZM80.117 37.9935H82.1124V37.5941H80.117V37.9935Z" fill="#6A7791"/>
<path d="M81.8235 37.4875H84.0328V38.1016H81.8235V37.4875Z" fill="#6A7791"/>
<path d="M84.139 38.2081H81.7158V37.3795H84.139V38.2081ZM81.9297 37.9935H83.9251V37.5941H81.9297V37.9935Z" fill="#6A7791"/>
<path d="M83.6347 37.4876H84.7214V33.2898H85.3334V37.4876H86.4888V38.1016H83.6331V37.4876H83.6347ZM85.3256 32.2607C85.2335 32.3531 85.1242 32.3985 84.9978 32.3985C84.8713 32.3985 84.762 32.3531 84.6699 32.2607C84.5778 32.1683 84.5325 32.0586 84.5325 31.9317C84.5325 31.8049 84.5778 31.6952 84.6699 31.6028C84.762 31.5104 84.8713 31.465 84.9978 31.465C85.1242 31.465 85.2335 31.5104 85.3256 31.6028C85.4178 31.6952 85.463 31.8049 85.463 31.9317C85.463 32.0586 85.4162 32.1683 85.3256 32.2607Z" fill="#6A7791"/>
<path d="M86.595 38.2081H83.5254V37.3795H84.6137V33.1816H85.4396V37.3795H86.595V38.2081ZM83.7393 37.9935H86.3811V37.5941H85.2257V33.3962H84.8276V37.5941H83.7393V37.9935ZM84.9978 32.505C84.8416 32.505 84.7058 32.4486 84.5949 32.3358C84.4825 32.223 84.4263 32.0868 84.4263 31.9317C84.4263 31.7766 84.4825 31.6388 84.5949 31.5276C84.7074 31.4164 84.8432 31.3584 84.9978 31.3584C85.1523 31.3584 85.2897 31.4148 85.4006 31.5276C85.513 31.6403 85.5692 31.7766 85.5692 31.9317C85.5692 32.0868 85.513 32.2215 85.4006 32.3358C85.2882 32.4486 85.1523 32.505 84.9978 32.505ZM84.9978 31.5714C84.8994 31.5714 84.8166 31.6059 84.7448 31.6779C84.673 31.75 84.6387 31.833 84.6387 31.9317C84.6387 32.0304 84.673 32.1134 84.7448 32.1854C84.8166 32.2575 84.8994 32.2919 84.9978 32.2919C85.0961 32.2919 85.1789 32.2575 85.2491 32.1854C85.321 32.1118 85.3553 32.0288 85.3553 31.9317C85.3553 31.8346 85.321 31.75 85.2491 31.6779C85.1773 31.6059 85.0946 31.5714 84.9962 31.5714H84.9978Z" fill="#6A7791"/>
<path d="M86.0938 37.4875H88.3031V38.1016H86.0938V37.4875Z" fill="#6A7791"/>
<path d="M88.4093 38.2081H85.9861V37.3795H88.4093V38.2081ZM86.2 37.9935H88.1954V37.5941H86.2V37.9935Z" fill="#6A7791"/>
<path d="M87.905 37.4875H90.1143V38.1016H87.905V37.4875Z" fill="#6A7791"/>
<path d="M90.2204 38.2081H87.7972V37.3795H90.2204V38.2081ZM88.0111 37.9935H90.0065V37.5941H88.0111V37.9935Z" fill="#6A7791"/>
<path d="M89.7161 37.4875H91.5273C91.3945 37.4014 91.2946 37.3231 91.2259 37.2541C91.1572 37.1852 91.0713 37.0662 90.9667 36.8986C90.8621 36.731 90.7825 36.5477 90.7247 36.3488C90.667 36.1499 90.6389 35.929 90.6389 35.6862C90.6389 35.3338 90.7029 35.0095 90.8325 34.7119C90.9621 34.4143 91.151 34.1606 91.4023 33.9507C91.6537 33.7408 91.9551 33.5779 92.3079 33.462C92.6624 33.3461 93.0652 33.2881 93.5195 33.2881H94.7015V37.486H95.8569V38.1H89.7145V37.486L89.7161 37.4875ZM91.2525 35.6893C91.2525 35.9024 91.2853 36.0997 91.3524 36.283C91.418 36.4647 91.5054 36.6307 91.6147 36.7811C91.724 36.9315 91.8551 37.0662 92.0066 37.1883C92.1596 37.309 92.3157 37.4108 92.4765 37.4907H94.0894V33.9068H93.2791C93.0199 33.9068 92.767 33.9476 92.5203 34.0274C92.2736 34.1073 92.0566 34.2232 91.8692 34.3736C91.6818 34.524 91.5335 34.7104 91.4211 34.9312C91.3087 35.1537 91.2525 35.4058 91.2525 35.6878V35.6893ZM92.9168 32.2637C92.8247 32.3561 92.7154 32.4016 92.589 32.4016C92.4625 32.4016 92.3532 32.3561 92.2611 32.2637C92.169 32.1713 92.1237 32.0617 92.1237 31.9348C92.1237 31.8079 92.169 31.6983 92.2611 31.6059C92.3532 31.5134 92.4625 31.468 92.589 31.468C92.7154 31.468 92.8247 31.5134 92.9168 31.6059C93.009 31.6983 93.0542 31.8079 93.0542 31.9348C93.0542 32.0617 93.009 32.1713 92.9168 32.2637ZM94.461 32.2637C94.3689 32.3561 94.2596 32.4016 94.1331 32.4016C94.0067 32.4016 93.8974 32.3561 93.8052 32.2637C93.7131 32.1713 93.6679 32.0617 93.6679 31.9348C93.6679 31.8079 93.7131 31.6983 93.8052 31.6059C93.8974 31.5134 94.0067 31.468 94.1331 31.468C94.2596 31.468 94.3689 31.5134 94.461 31.6059C94.5531 31.6983 94.5984 31.8079 94.5984 31.9348C94.5984 32.0617 94.5531 32.1713 94.461 32.2637Z" fill="#6A7791"/>
<path d="M95.963 38.2065H89.6068V37.226L89.7598 37.3795H91.2025C91.1838 37.3622 91.165 37.345 91.1494 37.3293C91.0776 37.2573 90.987 37.1335 90.8746 36.955C90.7669 36.7827 90.681 36.5885 90.6201 36.3786C90.5608 36.1734 90.5296 35.94 90.5296 35.6862C90.5296 35.3197 90.5983 34.9782 90.7325 34.6697C90.8684 34.3564 91.0714 34.087 91.3321 33.8693C91.5928 33.6515 91.9098 33.4808 92.2736 33.3602C92.6374 33.2412 93.0558 33.1816 93.518 33.1816H94.8061V37.3795H95.9615V38.2081L95.963 38.2065ZM89.8207 37.9919H95.7491V37.5925H94.5937V33.3947H93.518C93.0777 33.3947 92.6811 33.451 92.3392 33.5638C92.0019 33.675 91.7084 33.8317 91.4695 34.0337C91.2337 34.2311 91.0526 34.4739 90.9293 34.7558C90.8059 35.0378 90.745 35.351 90.745 35.6878C90.745 35.9212 90.7731 36.1342 90.8262 36.3206C90.8824 36.5117 90.9589 36.6887 91.0557 36.8438C91.1572 37.0067 91.24 37.1195 91.2993 37.1805C91.3649 37.2463 91.4601 37.3199 91.5835 37.3998L91.8879 37.5972H89.8192V37.995L89.8207 37.9919ZM94.1956 37.5956H92.4516L92.4297 37.5847C92.2673 37.5048 92.1034 37.3983 91.941 37.2714C91.7786 37.1398 91.6412 36.9973 91.5288 36.8422C91.4148 36.684 91.3212 36.5086 91.2525 36.3175C91.1822 36.1248 91.1463 35.9134 91.1463 35.6878C91.1463 35.3886 91.2072 35.1177 91.3258 34.8811C91.4461 34.6446 91.6069 34.4457 91.8021 34.2875C92.0003 34.1293 92.2299 34.0055 92.4875 33.9225C92.7451 33.8395 93.0121 33.7972 93.2791 33.7972H94.1972V37.5956H94.1956ZM92.5015 37.381H93.9817V34.0118H93.2775C93.0324 34.0118 92.7873 34.051 92.5515 34.1277C92.3189 34.2029 92.1112 34.3125 91.9348 34.4551C91.763 34.5929 91.6209 34.7684 91.5148 34.9782C91.4102 35.185 91.3571 35.4231 91.3571 35.6862C91.3571 35.8914 91.3883 36.0731 91.4508 36.2439C91.5132 36.4162 91.596 36.5744 91.699 36.7153C91.8005 36.8563 91.9223 36.9816 92.0722 37.1022C92.2143 37.215 92.3595 37.309 92.5 37.381H92.5015ZM94.1331 32.505C93.977 32.505 93.8412 32.4486 93.7303 32.3358C93.6195 32.223 93.5617 32.0868 93.5617 31.9317C93.5617 31.7766 93.6179 31.6388 93.7303 31.5276C93.8427 31.4148 93.9786 31.3584 94.1331 31.3584C94.2877 31.3584 94.4251 31.4148 94.536 31.5276C94.6484 31.6403 94.7046 31.7766 94.7046 31.9317C94.7046 32.0868 94.6484 32.2246 94.536 32.3358C94.4235 32.4486 94.2877 32.505 94.1331 32.505ZM94.1331 31.5714C94.0348 31.5714 93.952 31.6059 93.8802 31.6779C93.8084 31.75 93.774 31.833 93.774 31.9317C93.774 32.0304 93.8084 32.1134 93.8802 32.1854C93.952 32.2575 94.0348 32.2919 94.1331 32.2919C94.2315 32.2919 94.3143 32.2575 94.3861 32.1854C94.4579 32.1134 94.4922 32.0304 94.4922 31.9317C94.4922 31.833 94.4579 31.75 94.3861 31.6779C94.3143 31.6059 94.2315 31.5714 94.1331 31.5714ZM92.589 32.505C92.4328 32.505 92.297 32.4486 92.1861 32.3358C92.0737 32.223 92.0175 32.0868 92.0175 31.9317C92.0175 31.7766 92.0737 31.6388 92.1861 31.5276C92.2986 31.4148 92.4344 31.3584 92.589 31.3584C92.7435 31.3584 92.8809 31.4148 92.9918 31.5276C93.1042 31.6403 93.1604 31.7766 93.1604 31.9317C93.1604 32.0868 93.1042 32.2246 92.9918 32.3358C92.8794 32.447 92.7435 32.505 92.589 32.505ZM92.589 31.5714C92.4906 31.5714 92.4079 31.6059 92.336 31.6779C92.2642 31.75 92.2299 31.833 92.2299 31.9317C92.2299 32.0304 92.2642 32.1134 92.336 32.1854C92.4079 32.2575 92.4906 32.2919 92.589 32.2919C92.6873 32.2919 92.7701 32.2575 92.8419 32.1854C92.9137 32.1134 92.9481 32.0304 92.9481 31.9317C92.9481 31.833 92.9137 31.75 92.8419 31.6779C92.7701 31.6059 92.6873 31.5714 92.589 31.5714Z" fill="#6A7791"/>
<path d="M95.4618 37.4875H97.6711V38.1016H95.4618V37.4875Z" fill="#6A7791"/>
<path d="M97.7773 38.2081H95.3541V37.3795H97.7773V38.2081ZM95.568 37.9935H97.5634V37.5941H95.568V37.9935Z" fill="#6A7791"/>
<path d="M97.2745 37.4875H99.4838V38.1016H97.2745V37.4875Z" fill="#6A7791"/>
<path d="M99.59 38.2081H97.1668V37.3795H99.59V38.2081ZM97.3807 37.9935H99.3761V37.5941H97.3807V37.9935Z" fill="#6A7791"/>
<path d="M99.0857 37.4876H101.036V33.2898H101.648V37.4876H103.493V38.1016H99.0841V37.4876H99.0857ZM100.828 32.2607C100.736 32.3531 100.627 32.3985 100.5 32.3985C100.374 32.3985 100.265 32.3531 100.172 32.2607C100.08 32.1683 100.035 32.0586 100.035 31.9317C100.035 31.8049 100.08 31.6952 100.172 31.6028C100.265 31.5104 100.374 31.465 100.5 31.465C100.627 31.465 100.736 31.5104 100.828 31.6028C100.92 31.6952 100.966 31.8049 100.966 31.9317C100.966 32.0586 100.92 32.1683 100.828 32.2607ZM102.372 32.2607C102.28 32.3531 102.171 32.3985 102.044 32.3985C101.918 32.3985 101.809 32.3531 101.717 32.2607C101.624 32.1683 101.579 32.0586 101.579 31.9317C101.579 31.8049 101.624 31.6952 101.717 31.6028C101.809 31.5104 101.918 31.465 102.044 31.465C102.171 31.465 102.28 31.5104 102.372 31.6028C102.464 31.6952 102.51 31.8049 102.51 31.9317C102.51 32.0586 102.464 32.1683 102.372 32.2607Z" fill="#6A7791"/>
<path d="M103.6 38.2081H98.9764V37.3795H100.928V33.1816H101.754V37.3795H103.6V38.2081ZM99.1903 37.9935H103.386V37.5941H101.54V33.3962H101.142V37.5941H99.1903V37.9935ZM102.044 32.505C101.888 32.505 101.752 32.4486 101.642 32.3358C101.531 32.223 101.473 32.0868 101.473 31.9317C101.473 31.7766 101.529 31.6388 101.642 31.5276C101.754 31.4148 101.89 31.3584 102.044 31.3584C102.199 31.3584 102.336 31.4148 102.447 31.5276C102.56 31.6403 102.616 31.7766 102.616 31.9317C102.616 32.0868 102.56 32.2246 102.447 32.3358C102.335 32.4486 102.199 32.505 102.044 32.505ZM102.044 31.5714C101.946 31.5714 101.863 31.6059 101.792 31.6779C101.72 31.75 101.685 31.833 101.685 31.9317C101.685 32.0304 101.72 32.1134 101.792 32.1854C101.863 32.2575 101.946 32.2919 102.044 32.2919C102.143 32.2919 102.226 32.2575 102.297 32.1854C102.369 32.1134 102.404 32.0304 102.404 31.9317C102.404 31.833 102.369 31.75 102.297 31.6779C102.226 31.6059 102.143 31.5714 102.044 31.5714ZM100.5 32.505C100.344 32.505 100.208 32.4486 100.097 32.3358C99.985 32.223 99.9288 32.0868 99.9288 31.9317C99.9288 31.7766 99.985 31.6388 100.097 31.5276C100.21 31.4148 100.346 31.3584 100.5 31.3584C100.655 31.3584 100.792 31.4148 100.903 31.5276C101.016 31.6403 101.072 31.7766 101.072 31.9317C101.072 32.0868 101.016 32.2246 100.903 32.3358C100.791 32.447 100.655 32.505 100.5 32.505ZM100.5 31.5714C100.402 31.5714 100.319 31.6059 100.247 31.6779C100.176 31.75 100.141 31.833 100.141 31.9317C100.141 32.0304 100.176 32.1134 100.247 32.1854C100.319 32.2575 100.402 32.2919 100.5 32.2919C100.599 32.2919 100.681 32.2575 100.753 32.1854C100.825 32.1134 100.859 32.0304 100.859 31.9317C100.859 31.833 100.825 31.75 100.753 31.6779C100.681 31.6059 100.599 31.5714 100.5 31.5714Z" fill="#6A7791"/>
<path d="M103.097 37.4875H105.306V38.1016H103.097V37.4875Z" fill="#6A7791"/>
<path d="M105.412 38.2081H102.989V37.3795H105.412V38.2081ZM103.203 37.9935H105.198V37.5941H103.203V37.9935Z" fill="#6A7791"/>
<path d="M104.908 37.4875H107.117V38.1016H104.908V37.4875Z" fill="#6A7791"/>
<path d="M107.223 38.2081H104.8V37.3795H107.223V38.2081ZM105.014 37.9935H107.01V37.5941H105.014V37.9935Z" fill="#6A7791"/>
<path d="M106.721 37.4876H107.893V30.8572H108.505V37.4876H109.851V38.1016H106.719V37.4876H106.721Z" fill="#6A7791"/>
<path d="M109.957 38.2081H106.611V37.3795H107.785V30.7491H108.611V37.3795H109.957V38.2081ZM106.825 37.9935H109.743V37.5941H108.398V30.9637H107.999V37.5941H106.825V37.9935Z" fill="#6A7791"/>
<path d="M109.455 37.4876H110.8V30.8572H112.267V31.4712H111.412V38.1016H109.455V37.4876Z" fill="#6A7791"/>
<path d="M111.519 38.2081H109.347V37.3795H110.693V30.7491H112.373V31.5777H111.519V38.2081ZM109.561 37.9935H111.305V31.3632H112.159V30.9637H110.907V37.5941H109.561V37.9935Z" fill="#6A7791"/>
</g>
<defs>
<clipPath id="clip0_507_10155">
<rect width="145" height="40" fill="white"/>
</clipPath>
</defs>
</svg>
