<svg width="264" height="234" viewBox="0 0 264 234" fill="none" xmlns="http://www.w3.org/2000/svg">
<path d="M263.866 231.392C264.045 231.376 264.045 230.632 263.866 230.616L259.496 230.244L250.754 229.567L242.013 228.942L233.271 228.369L215.789 228.399H128.379L58.4514 228L23.4875 228.399L14.746 228.981L9.08114 229.603L0.339689 230.269L0.251998 230.277C-0.0839992 230.305 -0.0839992 231.707 0.251998 231.735L0.339689 231.743L9.08114 232.409L14.746 233.031L23.4875 233.613H215.79L233.272 233.642L242.014 234L250.755 233.375L259.497 232.433L263.867 231.396L263.866 231.392Z" fill="#ECEDF1"/>
<path d="M7.34616 100.61C-11.1233 212.774 28.3115 231.802 144.12 231.802C267.952 231.802 260.927 167.601 260.927 80.7053C260.927 20.0694 182.09 72.5068 144.12 43.0253C99.5342 8.40655 19.7681 25.172 7.34616 100.61Z" fill="#F6F7F8" fill-opacity="0.6"/>
<g clip-path="url(#clip0_572_13430)">
<path d="M52.435 66.4391C52.4105 73.5073 48.6274 101.794 41.7291 105.428C30.7169 105.678 14.9308 99.6707 16.4505 93.8666C20.2786 79.2424 24.8461 67.4511 28.5904 61.1612C32.3347 54.8714 51.2237 53.6195 52.435 66.4391Z" fill="#BCBEC0"/>
<path d="M45.6614 223.609L59.0779 228.75V229.775L38.4608 229.74L38.422 215.532L45.5776 215.545L45.6614 223.609Z" fill="#F2AD6D"/>
<path d="M59.0779 228.75V229.775L38.4608 229.74L38.4628 228.716L38.5057 223.597V223.192L41.482 228.653L46.1802 228.661L48.6254 224.54L52.0163 225.94L50.8458 228.395L59.0779 228.75Z" fill="#231F20"/>
<path d="M17.9826 217.299L16.7059 229.734H30.6985V228.21L24.9789 222.824L24.9952 217.162L17.9826 217.299Z" fill="#F2AD6D"/>
<path d="M30.6985 229.734V228.21H20.2806C20.2806 228.21 20.6381 226.838 23.0894 226.432C24.6234 226.178 28.1573 225.907 30.2818 227.769L27.6405 225.413C26.1126 223.802 20.0947 223.19 17.9846 228.108L17.3759 223.231L16.7079 229.734H30.6985Z" fill="#231F20"/>
<path d="M52.004 223.432L50.3841 145.856L49.9347 98.9228C49.9061 95.9273 47.6448 93.4174 44.6543 93.0618L41.4084 92.6045L34.4489 90.0682L27.7815 92.826L21.0242 94.2283C18.2747 94.6856 19.2164 105.528 19.2164 105.528L19.6065 146.151L15.2045 223.428H52.004V223.432Z" fill="#E6E7E8"/>
<path d="M49.5916 96.9943L57.7726 119.335L70.0828 115.102L71 119.335L55.8504 128.805C54.4389 129.291 52.8905 128.606 52.3063 127.239L46.3416 113.254L49.5916 96.9963V96.9943Z" fill="#E6E7E8"/>
<path d="M69.1286 121.885C69.0601 122.479 69.5243 123 70.122 123H71H76.6876C77.1951 123 77.6222 122.62 77.6809 122.116L79.8732 103.305C79.9413 102.721 79.4931 102.204 78.9053 102.19L72.3361 102.023C71.8186 102.01 71.3767 102.394 71.3174 102.908L69.1286 121.885Z" fill="#243539"/>
<path d="M70.1286 121.885C70.0601 122.479 70.5243 123 71.122 123H77.6866C78.1945 123 78.6218 122.619 78.68 122.115L80.8714 103.115C80.9399 102.521 80.4757 102 79.878 102H73.3134C72.8055 102 72.3782 102.381 72.32 102.885L70.1286 121.885Z" fill="#3A4C51"/>
<path d="M75.1031 119.574L73.6054 119.622C73.2788 119.634 73.0365 119.323 73.1261 119.012L73.6709 117.113C74.3031 114.911 76.1329 113.26 78.3951 112.852C78.5106 111.576 79.5102 110.561 80.7889 110.422C81.488 110.346 82.11 110.866 82.153 111.566L82.1584 111.664C82.1945 112.239 81.8494 112.77 81.3083 112.974L80.3675 113.328L78.2533 117.84L75.1021 119.577L75.1031 119.574Z" fill="#F2AD6D"/>
<path d="M50.1553 122.2V107.353L52.3043 127.236L50.1553 122.2Z" fill="#D1D3D4"/>
<path d="M45.1936 110.503L51.9631 106.074L58.8594 109.812L59.609 112.389L59.127 112.854L57.3947 111.69L57.8748 113.356L52.8395 114.46L49.5752 113.051L46.6357 114.029L45.1936 110.503Z" fill="#F2AD6D"/>
<path d="M27.7794 92.826L20.0825 94.6714C14.5038 96.0614 13.5805 100.919 15.1391 105.075L25.2281 123.782L30.3553 123.977L48.1229 114.273L45.7063 109.812L31.2725 114.025L23.1261 100.845L27.7774 92.826H27.7794Z" fill="#E6E7E8"/>
<path d="M18.8834 112.019L25.7898 125.096C26.8296 127.066 29.3993 127.631 31.1765 126.279L47.8103 113.639L19.5738 143.086L18.8855 112.019H18.8834Z" fill="#D1D3D4"/>
<path d="M23.9902 100.075L31.7934 115.496L34.5919 114.002L23.9902 100.075Z" fill="#D1D3D4"/>
<path d="M29.1256 90.8994H39.4536V77.5372H29.1256V90.8994Z" fill="#DE925B"/>
<path d="M49.7611 60.3463C50.9541 63.1285 51.2727 66.2033 50.6742 69.1684C49.8653 73.1679 48.7132 78.8258 48.035 81.9961C47.6939 83.5935 47.0627 85.1157 46.1721 86.4874L44.4214 88.3693C43.6003 89.0136 42.8281 89.6476 41.9743 89.5928L40.1072 89.294C39.6517 89.2656 38.0196 88.6376 37.6539 88.3673L32.0201 83.4086C29.1154 79.9598 27.9817 78.4722 28.0797 75.2856L28.5924 58.6982L37.56 50.4187L46.3906 52.4936L49.7611 60.3463Z" fill="#F2AD6D"/>
<path d="M38.5834 92.6553H30.1143C29.5546 92.6553 29.1011 92.5659 29.1011 92.009V88.0217L39.5965 88.7432V91.6473C39.5965 92.2041 39.1431 92.6553 38.5834 92.6553Z" fill="#F5F5F5"/>
<path d="M34.6961 92.6553C36.4712 94.8827 38.755 101.803 38.9511 107.792C39.5557 107.82 42.1561 107.792 42.1561 107.792C41.9743 103.365 40.5219 95.7241 38.4669 92.6553C37.1964 90.8507 34.6961 92.6553 34.6961 92.6553Z" fill="#F5F5F5"/>
<path d="M37.9215 93.7527C37.8827 93.5068 37.6641 93.3381 37.4313 93.3726C37.1984 93.4072 37.0411 93.6348 37.0779 93.8807C37.1167 94.1266 37.3353 94.2953 37.5681 94.2608C37.801 94.2262 37.9583 93.9986 37.9215 93.7527Z" fill="#D1D3D4"/>
<path d="M36.7367 90.3425C36.6979 90.0966 36.4794 89.9279 36.2465 89.9625C36.0136 89.9991 35.8563 90.2247 35.8931 90.4706C35.9319 90.7165 36.1505 90.8851 36.3834 90.8506C36.6162 90.814 36.7735 90.5884 36.7367 90.3425Z" fill="#D1D3D4"/>
<path d="M39.1757 97.1628C39.1369 96.9169 38.9184 96.7483 38.6855 96.7828C38.4526 96.8194 38.2953 97.045 38.3321 97.2909C38.3709 97.5368 38.5895 97.7055 38.8224 97.6709C39.0552 97.6343 39.2125 97.4087 39.1757 97.1628Z" fill="#D1D3D4"/>
<path d="M40.1991 101.203C40.1603 100.957 39.9418 100.788 39.7089 100.823C39.476 100.858 39.3187 101.085 39.3555 101.331C39.3923 101.577 39.6129 101.746 39.8458 101.711C40.0786 101.677 40.2359 101.449 40.1991 101.203Z" fill="#D1D3D4"/>
<path d="M40.8712 105.219C40.8324 104.973 40.6138 104.804 40.381 104.839C40.1481 104.873 39.9908 105.101 40.0276 105.347C40.0643 105.593 40.2849 105.761 40.5178 105.727C40.7507 105.692 40.908 105.465 40.8712 105.219Z" fill="#D1D3D4"/>
<path d="M35.1189 52.6724L29.7731 57.6088C28.6374 60.5414 28.4352 64.8701 29.6056 71.0502C34.7839 67.7254 45.0853 67.4612 49.8898 73.0256C50.1676 71.666 50.4352 70.345 50.6722 69.1663C51.2727 66.2012 50.9541 63.1244 49.7591 60.3442L47.0688 54.0767C42.822 52.5708 38.4935 51.7437 35.1169 52.6724H35.1189Z" fill="url(#paint0_linear_572_13430)"/>
<path d="M42.3072 82.9249L42.3889 82.9432C43.3715 83.1748 44.3602 82.7663 44.7442 81.9738L45.7451 79.9029L36.1301 77.645L38.6957 80.7361C39.5863 81.8091 40.8692 82.5875 42.3093 82.9249H42.3072Z" fill="white"/>
<path d="M26.995 59.3016L28.0797 75.2855C27.9817 78.47 29.3462 80.6913 32.0201 83.4084L37.6539 88.3672C38.0196 88.6395 39.6517 89.2654 40.1072 89.2939L41.9743 89.5926C42.8281 89.6475 43.4941 89.3935 44.5052 88.4302L46.1721 86.4873C46.981 85.2395 47.5897 83.8718 48.0105 82.4472C48.0289 82.3862 47.9451 82.3476 47.9124 82.4025C47.3466 83.3678 46.458 84.7436 45.8125 85.3208C45.9126 85.1216 46.0148 84.9083 46.1169 84.6786C47.1178 82.4492 47.6551 79.096 47.2526 78.7017C46.8482 78.3074 34.8391 75.4866 34.4469 75.574C34.0812 75.6553 33.5522 79.7341 34.8329 82.9288C31.1826 80.2218 30.0162 78.2404 30.0918 76.9194C30.962 61.716 32.3367 54.8693 32.3367 54.8693L26.9971 59.3016H26.995ZM38.7407 85.5505C38.7652 85.5444 38.7795 85.5403 38.7795 85.5403C36.8185 83.9124 34.9167 80.9209 35.1312 76.6166C40.4075 77.6917 46.8278 78.9192 46.6684 79.5918C46.5091 80.2625 44.2785 86.8653 43.398 87.162C43.2224 87.1864 43.0426 87.1946 42.8588 87.1864C43.1488 85.7191 43.1795 84.8656 43.1795 84.8656L41.0019 84.3534C41.0019 84.3534 40.8957 85.5362 40.7241 86.6235C40.0235 86.3146 39.3412 85.9224 38.7407 85.5484V85.5505Z" fill="#231F20"/>
<path d="M28.811 74.4014C29.3585 74.4929 30.1081 67.9225 29.1358 67.76L28.5434 67.7376C27.2545 67.5242 26.9011 68.6603 26.6845 69.9426C26.2964 72.2574 27.3852 74.186 28.809 74.4014H28.811Z" fill="#F2AD6D"/>
<path d="M52.3615 67.5344C51.8467 65.8619 50.3984 65.3619 48.1657 65.8517C45.9331 66.3415 41.9947 65.3884 40.0929 63.6467C38.1912 61.9051 34.7778 61.7465 33.2458 62.6875C31.391 63.8276 29.5219 67.3698 28.5148 72.6253C27.8285 76.2163 27.6875 76.2366 25.8429 82.5671C23.2548 91.4441 17.1839 91.6494 16.5833 93.3016C19.5493 78.2222 23.2528 69.8472 26.0738 60.958C28.2002 54.2556 32.4695 48.3945 41.2675 50.3983C50.0655 52.4042 53.4768 59.9317 52.3615 67.5324V67.5344Z" fill="#E6E7E8"/>
<path d="M52.4268 64.0105C52.3247 64.0105 52.2226 63.9983 52.1204 63.9739L27.2279 58.127C26.515 57.9604 26.0717 57.2471 26.2413 56.5378C26.4088 55.8285 27.1258 55.3875 27.8387 55.5562L52.7312 61.4031C53.4441 61.5697 53.8874 62.283 53.7178 62.9923C53.5728 63.6 53.0274 64.0105 52.4268 64.0105Z" fill="#231F20"/>
<path d="M52.3594 61.9538C52.2573 61.9538 52.1552 61.9416 52.053 61.9172L28.2125 56.3183C27.4996 56.1517 27.0563 55.4384 27.2259 54.7291C27.3934 54.0198 28.1104 53.5788 28.8233 53.7475L52.6658 59.3484C53.3788 59.5151 53.822 60.2284 53.6525 60.9377C53.5074 61.5453 52.962 61.9559 52.3615 61.9559L52.3594 61.9538Z" fill="#231F20"/>
</g>
<path d="M249.502 37.1726L248.728 196.237C248.691 203.872 241.543 210.035 232.765 210H160.152C151.378 209.965 143.963 203.458 144 195.827L144.287 136.759L144.44 105.341L144.773 36.7633C144.81 29.1276 151.958 22.9646 160.737 23.0002L233.685 23.2927C242.458 23.3283 249.539 29.5411 249.502 37.1719V37.1726Z" fill="#3A4C51"/>
<path d="M233.578 29.964L160.776 29.6715C154.628 29.6473 149.622 33.9624 149.596 39.3103L148.842 194.568C148.815 199.913 153.775 204.264 159.919 204.289L232.721 204.581C238.869 204.606 243.874 200.29 243.901 194.943L244.655 39.684C244.681 34.3396 239.722 29.989 233.578 29.964Z" fill="white"/>
<rect x="157.8" y="57.0464" width="79.3519" height="47.306" rx="4" fill="#EFEFEF"/>
<path d="M224.109 88.2145C222.604 88.9295 220.327 89.0201 220.327 89.0201C220.327 89.0201 220.286 89.0201 220.209 89.0193C220.327 88.5545 220.388 88.0657 220.384 87.5607C220.357 84.4814 217.93 82.0258 214.948 82.0576C212.002 82.0886 209.624 84.5636 209.624 87.6118C209.624 88.0626 209.677 88.5003 209.776 88.9202C201.72 88.8404 190.683 88.7242 182.692 88.6088C182.749 88.285 182.781 87.9526 182.781 87.6118C182.781 85.0531 181.105 82.8981 178.825 82.2536C178.693 82.2164 178.558 82.1838 178.422 82.1567C178.309 82.1343 178.194 82.1157 178.078 82.1002C177.961 82.0847 177.843 82.0738 177.724 82.0669C177.696 82.0653 177.669 82.0638 177.641 82.0622C177.63 82.0622 177.619 82.0615 177.608 82.0607C177.586 82.0599 177.564 82.0591 177.542 82.0583C177.52 82.0576 177.5 82.0576 177.481 82.0568C177.473 82.0568 177.465 82.0568 177.457 82.0568C177.439 82.0568 177.42 82.0568 177.402 82.0568C176.868 82.0568 176.352 82.1374 175.865 82.2869C175.823 82.3 175.78 82.3132 175.739 82.3271C175.718 82.3341 175.696 82.3411 175.676 82.3488C175.634 82.3636 175.592 82.3783 175.552 82.3938C175.449 82.4325 175.348 82.4751 175.247 82.52C175.207 82.5379 175.167 82.5565 175.128 82.5758C175.088 82.5952 175.049 82.6145 175.01 82.6347C174.971 82.6548 174.932 82.675 174.894 82.6959C174.74 82.7795 174.591 82.871 174.446 82.9686C174.41 82.9933 174.375 83.0181 174.34 83.0437C174.304 83.0693 174.269 83.0948 174.234 83.1212C174.199 83.1475 174.165 83.1738 174.13 83.201C174.096 83.2281 174.062 83.2552 174.029 83.2831C173.995 83.311 173.962 83.3396 173.929 83.3683C173.847 83.4403 173.767 83.5147 173.689 83.5906C173.658 83.6216 173.627 83.6526 173.597 83.6836C173.551 83.7308 173.506 83.7788 173.462 83.8276C173.433 83.8602 173.404 83.8927 173.375 83.926C172.904 84.4745 172.536 85.1198 172.304 85.8301C172.293 85.8626 172.282 85.8959 172.272 85.9285C172.266 85.9494 172.26 85.9695 172.254 85.9905C172.244 86.0238 172.235 86.0571 172.225 86.0912C172.213 86.1353 172.201 86.1795 172.191 86.2236C172.179 86.2678 172.169 86.3127 172.159 86.3576C172.154 86.3801 172.149 86.4026 172.145 86.425C172.129 86.4971 172.115 86.5691 172.103 86.6419C172.094 86.6907 172.087 86.7388 172.08 86.7883C172.077 86.8131 172.073 86.8371 172.07 86.8619C172.038 87.1075 172.021 87.3585 172.021 87.6126C172.021 87.635 172.021 87.6505 172.019 87.6652C172.018 87.6753 172.017 87.6854 172.015 87.6947C172.013 87.7094 172.01 87.7241 172.007 87.7381C171.986 87.8202 171.944 87.8914 171.888 87.9464C171.886 87.9488 171.883 87.9519 171.881 87.9542C171.863 87.9712 171.844 87.9867 171.823 88.0007C171.805 88.0123 171.787 88.0231 171.768 88.0324C171.704 88.0642 171.631 88.0789 171.557 88.0743C171.549 88.0743 171.54 88.0727 171.53 88.0719C171.516 88.0704 171.503 88.0673 171.49 88.065C171.481 88.0626 171.473 88.0603 171.463 88.0572C171.46 88.0557 171.456 88.0549 171.452 88.0533C171.44 88.0495 171.429 88.0448 171.417 88.0394C171.402 88.0324 171.386 88.0247 171.371 88.0162C171.361 88.01 171.351 88.0045 171.341 87.9983C171.331 87.9921 171.321 87.9859 171.312 87.9797C171.307 87.9766 171.303 87.9735 171.297 87.9705C171.283 87.9612 171.269 87.9526 171.254 87.9426C171.229 87.9263 171.205 87.91 171.181 87.8922C171.16 87.8775 171.145 87.8666 171.13 87.855C171.124 87.8504 171.117 87.8457 171.111 87.8403C171.088 87.8233 171.065 87.8047 171.043 87.7869C170.811 87.6009 170.608 87.3794 170.442 87.1292C170.2 86.7643 170.059 86.346 170.02 85.9161C169.989 85.576 170.021 85.229 170.119 84.8951C170.481 83.6541 171.293 80.8127 171.293 80.2643C171.293 80.2643 171.854 78.4547 172.429 76.5979C172.483 76.4243 172.537 76.25 172.591 76.0765C173.04 74.6272 173.468 73.2498 173.612 72.7928C173.613 72.7897 173.615 72.7866 173.615 72.7835C173.705 72.6193 173.801 72.4489 173.904 72.2715C173.953 72.1932 174.002 72.115 174.049 72.0367C174.056 72.0259 174.062 72.015 174.069 72.0042C174.09 71.9686 174.112 71.9329 174.132 71.8973C174.163 71.8454 174.194 71.7935 174.224 71.7408C174.252 71.6944 174.279 71.6471 174.306 71.6006C174.32 71.5774 174.333 71.5534 174.346 71.5301C174.355 71.5162 174.363 71.5022 174.372 71.4883C174.376 71.4813 174.38 71.4743 174.385 71.4666C174.39 71.4573 174.396 71.4488 174.402 71.4395C174.406 71.4325 174.41 71.4263 174.415 71.4194C174.426 71.4023 174.436 71.3884 174.445 71.3744C174.454 71.3605 174.463 71.3473 174.473 71.3334C174.481 71.3217 174.49 71.3109 174.498 71.2993C174.503 71.2923 174.509 71.2853 174.513 71.2784C174.53 71.2559 174.548 71.2334 174.566 71.2117C174.573 71.2032 174.58 71.1939 174.587 71.1854C174.591 71.18 174.596 71.1753 174.6 71.1707C174.606 71.1637 174.611 71.1567 174.617 71.1505C174.634 71.1296 174.65 71.1126 174.665 71.0955C174.672 71.0886 174.678 71.0808 174.685 71.0739C174.693 71.0653 174.7 71.0568 174.708 71.0483C174.716 71.0405 174.723 71.032 174.731 71.0243C174.734 71.0212 174.737 71.0173 174.741 71.0142C174.744 71.0103 174.747 71.0072 174.751 71.0041C174.754 71.001 174.757 70.9979 174.76 70.9941C174.774 70.9801 174.787 70.967 174.801 70.9538C174.814 70.9406 174.828 70.9274 174.841 70.9143C174.855 70.9011 174.869 70.8887 174.883 70.8755C174.897 70.8624 174.911 70.85 174.924 70.8376C174.938 70.8252 174.952 70.8136 174.967 70.8012C174.984 70.7865 175.001 70.7725 175.018 70.7578C175.03 70.7485 175.041 70.7384 175.054 70.7291C175.065 70.7206 175.076 70.7121 175.087 70.7036C175.098 70.6951 175.109 70.6865 175.12 70.678C175.131 70.6695 175.142 70.6617 175.153 70.6532C175.175 70.637 175.198 70.6207 175.221 70.6052C175.238 70.5928 175.256 70.5812 175.274 70.5688C175.727 70.2675 176.251 70.0854 176.79 70.0203C188.476 68.619 194.743 69.4301 197.363 70.166C198.418 70.4619 199.343 70.8066 200.188 71.2148C202.125 72.1506 204.872 73.9408 206.459 75.102C206.668 75.2554 206.867 75.401 207.053 75.5389C207.371 75.7744 207.985 76.0572 208.682 76.3345C210.084 76.8915 220.344 78.4903 223.028 80.083C223.039 80.0892 223.05 80.0954 223.06 80.1016C223.139 80.1496 223.212 80.1907 223.282 80.231C223.567 80.3929 223.681 80.6268 224.046 81.0699C224.129 81.1706 224.525 82.3938 224.533 82.4557C224.754 84.2188 224.624 87.0401 224.731 87.3724C224.733 87.3794 224.735 87.3856 224.737 87.3926C224.857 87.752 224.443 88.0564 224.108 88.2152L224.109 88.2145Z" fill="url(#paint1_linear_572_13430)"/>
<path d="M178.102 82.1208C177.983 82.1053 177.862 82.0929 177.741 82.086C177.713 82.0844 177.686 82.0829 177.658 82.0813C177.647 82.0813 177.636 82.0805 177.625 82.0798C177.603 82.079 177.58 82.0782 177.559 82.0774C177.537 82.0767 177.517 82.0767 177.498 82.0759C177.49 82.0759 177.482 82.0759 177.474 82.0759C177.456 82.0759 177.437 82.0759 177.419 82.0759C176.885 82.0759 176.369 82.1565 175.883 82.306C175.84 82.3191 175.798 82.3323 175.756 82.3462C175.736 82.3532 175.715 82.3602 175.694 82.3679C175.653 82.3827 175.611 82.3974 175.57 82.4129C175.467 82.4516 175.365 82.4942 175.265 82.5391C175.225 82.557 175.185 82.5756 175.146 82.5949C175.107 82.6143 175.068 82.6336 175.028 82.6538C174.989 82.6739 174.951 82.6941 174.912 82.715C174.758 82.7986 174.61 82.8901 174.465 82.9877C174.429 83.0124 174.393 83.0372 174.358 83.0628C174.323 83.0884 174.287 83.1139 174.253 83.1403C174.218 83.1666 174.183 83.1929 174.149 83.2201C174.115 83.2472 174.08 83.2743 174.047 83.3022C174.013 83.3301 173.98 83.3587 173.948 83.3874C173.865 83.4594 173.785 83.533 173.708 83.6097C173.677 83.6407 173.646 83.6717 173.615 83.7027C173.57 83.7499 173.524 83.7979 173.481 83.8467C173.451 83.8793 173.422 83.9118 173.394 83.9451C172.923 84.4936 172.555 85.1388 172.322 85.8492C172.312 85.8817 172.301 85.915 172.291 85.9476C172.285 85.9685 172.278 85.9886 172.272 86.0096C172.262 86.0429 172.253 86.0762 172.244 86.1103C172.231 86.1544 172.22 86.1986 172.209 86.2427C172.198 86.2877 172.188 86.3318 172.178 86.3767C172.172 86.3992 172.168 86.4217 172.163 86.4441C172.148 86.5162 172.134 86.5882 172.121 86.661C172.113 86.7098 172.105 86.7579 172.098 86.8074C172.094 86.8322 172.091 86.8562 172.088 86.881C172.056 87.1266 172.04 87.3768 172.04 87.6317C172.04 87.6541 172.04 87.6696 172.038 87.6843C172.037 87.6944 172.035 87.7045 172.034 87.7138C172.031 87.7285 172.028 87.7432 172.025 87.7572C172.004 87.8393 171.962 87.9105 171.907 87.9655C171.904 87.9679 171.901 87.971 171.899 87.9733C171.881 87.9903 171.862 88.0058 171.841 88.0198C171.824 88.0314 171.805 88.0422 171.787 88.0515C171.722 88.0833 171.65 88.098 171.576 88.0934C171.567 88.0934 171.558 88.0918 171.549 88.091C171.535 88.0895 171.522 88.0864 171.509 88.0833C171.5 88.081 171.491 88.0786 171.482 88.0763C171.478 88.0748 171.474 88.074 171.47 88.0724C171.459 88.0686 171.447 88.0639 171.436 88.0585C171.42 88.0515 171.405 88.0438 171.39 88.0345C171.38 88.0283 171.369 88.0229 171.359 88.0167C171.349 88.0105 171.339 88.0043 171.33 87.9981C171.311 87.9857 171.292 87.9741 171.273 87.9617C171.249 87.9454 171.224 87.9291 171.2 87.9113C171.179 87.8966 171.164 87.8857 171.149 87.8741C171.143 87.8695 171.136 87.8648 171.13 87.8602C170.519 87.3969 170.133 86.6951 170.039 85.936C169.999 85.6137 170.011 85.2806 170.08 84.9514C170.23 84.2387 170.521 82.897 170.888 81.3454C171.181 80.1098 171.523 78.7418 171.884 77.4528C171.898 77.4001 171.913 77.3475 171.928 77.2956C171.941 77.2514 171.954 77.2065 171.966 77.1623C171.978 77.1205 171.989 77.081 172.001 77.0415C172.009 77.0113 172.018 76.981 172.026 76.9516C172.252 76.1677 172.483 75.424 172.713 74.7725C172.866 74.3697 173.045 73.956 173.272 73.4975C173.387 73.2496 173.499 73.0342 173.609 72.8514C173.618 72.8359 173.626 72.8204 173.635 72.8042C173.725 72.6399 173.82 72.4695 173.923 72.2921C173.973 72.2139 174.021 72.1356 174.068 72.0574C174.075 72.0465 174.082 72.0357 174.088 72.0249C174.109 71.9892 174.131 71.9536 174.152 71.918C174.183 71.866 174.213 71.8141 174.243 71.7615C174.271 71.715 174.298 71.6677 174.325 71.6213C174.339 71.598 174.352 71.574 174.366 71.5508C174.374 71.5368 174.382 71.5229 174.391 71.5089C174.395 71.502 174.4 71.495 174.404 71.4873C174.41 71.478 174.416 71.4694 174.421 71.4601C174.425 71.4532 174.43 71.447 174.434 71.44C174.445 71.423 174.455 71.409 174.464 71.3951C174.473 71.3811 174.483 71.3679 174.493 71.354C174.5 71.3424 174.509 71.3315 174.517 71.3199C174.523 71.313 174.528 71.306 174.533 71.299C174.55 71.2765 174.567 71.2541 174.585 71.2324C174.592 71.2239 174.6 71.2146 174.607 71.2061C174.61 71.2006 174.615 71.196 174.619 71.1913C174.624 71.1844 174.63 71.1774 174.636 71.1712C174.654 71.1503 174.669 71.1332 174.684 71.1162C174.691 71.1092 174.697 71.1015 174.704 71.0945C174.712 71.086 174.72 71.0775 174.728 71.0689C174.736 71.0612 174.743 71.0527 174.751 71.0449C174.754 71.0418 174.757 71.0379 174.761 71.0349C174.764 71.0318 174.767 71.0279 174.771 71.0248C174.774 71.0217 174.777 71.0186 174.78 71.0147C174.794 71.0008 174.807 70.9876 174.821 70.9744C174.834 70.9613 174.848 70.9481 174.861 70.9349C174.875 70.9218 174.889 70.9094 174.903 70.8962C174.917 70.883 174.931 70.8706 174.944 70.8582C174.958 70.8458 174.972 70.8342 174.986 70.8218C175.003 70.8071 175.02 70.7932 175.038 70.7784C175.049 70.7692 175.061 70.7591 175.073 70.7498C175.084 70.7413 175.095 70.7327 175.106 70.7242C175.117 70.7157 175.128 70.7072 175.139 70.6987C175.151 70.6901 175.161 70.6824 175.172 70.6739C175.195 70.6576 175.218 70.6413 175.24 70.6258C175.258 70.6135 175.275 70.6018 175.294 70.5894C175.542 70.4252 175.81 70.2966 176.09 70.2029C176.112 70.2927 170.618 80.7311 178.095 82.1216C178.098 82.1216 178.1 82.1224 178.102 82.1231V82.1208Z" fill="url(#paint2_linear_572_13430)"/>
<path d="M224.935 85.4883C224.965 86.2351 224.913 87.428 224.914 87.435C224.945 87.8006 224.106 88.2569 223.772 88.4157C222.267 89.1307 220.346 89.0385 220.346 89.0385C220.346 89.0385 220.304 89.0385 220.227 89.0377C220.341 88.5884 220.402 88.1167 220.402 87.631C220.402 86.7316 220.194 85.8834 219.826 85.132C221.871 85.4225 224.912 84.9398 224.935 85.4883Z" fill="url(#paint3_linear_572_13430)"/>
<path d="M214.995 92.1443C217.348 92.1443 219.255 90.2243 219.255 87.8558C219.255 85.4874 217.348 83.5674 214.995 83.5674C212.642 83.5674 210.734 85.4874 210.734 87.8558C210.734 90.2243 212.642 92.1443 214.995 92.1443Z" fill="#324347"/>
<path d="M215.005 85.2797C213.591 85.2758 212.436 86.43 212.435 87.8507C212.433 89.2691 213.578 90.4303 214.982 90.4326C216.399 90.435 217.552 89.2831 217.554 87.8624C217.555 86.444 216.41 85.2843 215.005 85.2804V85.2797Z" fill="white"/>
<path d="M177.409 92.1443C179.763 92.1443 181.67 90.2243 181.67 87.8558C181.67 85.4874 179.763 83.5674 177.409 83.5674C175.056 83.5674 173.149 85.4874 173.149 87.8558C173.149 90.2243 175.056 92.1443 177.409 92.1443Z" fill="#324347"/>
<path d="M177.421 85.2797C176.006 85.2758 174.852 86.43 174.85 87.8507C174.848 89.2691 175.994 90.4303 177.398 90.4326C178.815 90.435 179.968 89.2831 179.969 87.8624C179.971 86.444 178.826 85.2843 177.421 85.2804V85.2797Z" fill="white"/>
<path d="M205.831 78.2578C205.654 76.8038 203.396 75.4466 203.288 75.3823C200.963 73.6479 197.358 71.2852 193.884 71.1373C189.103 70.9336 182.863 70.8429 178.258 71.4464C177.902 71.4928 177.554 71.6121 177.246 71.8244C176.477 72.3543 176.177 73.0925 176.31 73.84C176.422 74.4745 176.839 75.0245 177.429 75.3459L178.993 76.1996C179.751 76.4196 179.821 76.724 181.333 76.9983C187.313 78.082 205.064 79.0673 205.064 79.0673C205.249 79.0712 205.481 78.9341 205.615 78.8102C205.769 78.6676 205.855 78.4639 205.831 78.2578Z" fill="white"/>
<path d="M188.325 70.2012L189.443 80.2452H190.77H191.259L189.792 70.2012H188.325Z" fill="url(#paint4_linear_572_13430)"/>
<circle cx="197.476" cy="80.6992" r="8.62522" fill="black" fill-opacity="0.6"/>
<path d="M200.001 79.8331C200.668 80.218 200.668 81.1802 200.001 81.5651L196.101 83.8169C195.435 84.2018 194.601 83.7207 194.601 82.9509L194.601 78.4473C194.601 77.6775 195.435 77.1964 196.101 77.5813L200.001 79.8331Z" fill="white"/>
<path d="M250.001 49.2145H248.522C247.996 49.2145 247.571 49.6399 247.571 50.1648V66.9817C247.571 67.5065 247.996 67.932 248.522 67.932H250.001C250.527 67.932 250.953 67.5065 250.953 66.9817V50.1648C250.953 49.6399 250.527 49.2145 250.001 49.2145Z" fill="#3A4C51"/>
<path d="M250.001 74.0133H248.522C247.996 74.0133 247.571 74.4388 247.571 74.9636V91.7805C247.571 92.3053 247.996 92.7308 248.522 92.7308H250.001C250.527 92.7308 250.953 92.3053 250.953 91.7805V74.9636C250.953 74.4388 250.527 74.0133 250.001 74.0133Z" fill="#3A4C51"/>
<path d="M202.821 27.7404H190.352C189.646 27.7404 189.069 27.1895 189.069 26.5168C189.069 25.8441 189.646 25.2932 190.352 25.2932H202.821C203.526 25.2932 204.104 25.8441 204.104 26.5168C204.104 27.1895 203.527 27.7404 202.821 27.7404Z" fill="#403D40"/>
<path d="M167.3 40.8929H158.944C158.706 40.8929 158.514 40.7007 158.514 40.4637C158.514 40.2266 158.706 40.0344 158.944 40.0344H167.3C167.537 40.0344 167.729 40.2266 167.729 40.4637C167.729 40.7007 167.537 40.8929 167.3 40.8929Z" fill="#A3A3A3"/>
<path d="M167.3 44.0584H158.944C158.706 44.0584 158.514 43.8662 158.514 43.6292C158.514 43.3921 158.706 43.2 158.944 43.2H167.3C167.537 43.2 167.729 43.3921 167.729 43.6292C167.729 43.8662 167.537 44.0584 167.3 44.0584Z" fill="#A3A3A3"/>
<path d="M167.3 47.2231H158.944C158.706 47.2231 158.514 47.0309 158.514 46.7939C158.514 46.5568 158.706 46.3646 158.944 46.3646H167.3C167.537 46.3646 167.729 46.5568 167.729 46.7939C167.729 47.0309 167.537 47.2231 167.3 47.2231Z" fill="#A3A3A3"/>
<g opacity="0.72">
<path d="M232.055 49.3779H191.127C188.681 49.3779 186.691 47.3898 186.691 44.9461V42.3116C186.691 39.8679 188.681 37.8798 191.127 37.8798H232.055C234.501 37.8798 236.491 39.8679 236.491 42.3116V44.9461C236.491 47.3898 234.501 49.3779 232.055 49.3779ZM191.127 38.5339C189.042 38.5339 187.346 40.2288 187.346 42.3116V44.9461C187.346 47.0289 189.042 48.7237 191.127 48.7237H232.055C234.14 48.7237 235.836 47.0289 235.836 44.9461V42.3116C235.836 40.2288 234.14 38.5339 232.055 38.5339H191.127Z" fill="#B2B2B2"/>
</g>
<path d="M230.984 45.0795C231.478 45.5593 231.971 46.0206 232.44 46.5046C232.566 46.6342 232.686 46.8335 232.687 47.0015C232.688 47.1431 232.542 47.3439 232.406 47.4101C232.299 47.4627 232.07 47.3965 231.967 47.3033C231.524 46.899 231.09 46.4804 230.687 46.0362C230.436 45.7586 230.242 45.7123 229.895 45.9081C228.536 46.6747 226.898 46.3587 225.9 45.1785C224.89 43.9862 224.857 42.3141 225.819 41.067C226.742 39.8697 228.426 39.4853 229.8 40.1573C231.463 40.9709 232.253 43.2067 230.984 45.0802V45.0795ZM228.41 40.6456C227.108 40.6249 225.966 41.7183 225.941 43.0088C225.915 44.3399 227.043 45.5045 228.369 45.5166C229.708 45.5287 230.799 44.4439 230.809 43.0907C230.818 41.8123 229.693 40.6662 228.41 40.6463V40.6456Z" fill="#B2B2B2"/>
<path opacity="0.78" d="M172.678 113.051H160.074C158.836 113.051 157.832 114.054 157.832 115.291V125.958C157.832 127.195 158.836 128.198 160.074 128.198H172.678C173.916 128.198 174.92 127.195 174.92 125.958V115.291C174.92 114.054 173.916 113.051 172.678 113.051Z" fill="#EBEBEB"/>
<path d="M171.332 122.421C171.058 122.55 170.643 122.567 170.643 122.567C170.643 122.567 170.635 122.567 170.621 122.566C170.642 122.482 170.654 122.394 170.653 122.302C170.648 121.745 170.205 121.3 169.661 121.306C169.124 121.312 168.69 121.76 168.69 122.312C168.69 122.393 168.7 122.472 168.718 122.548C167.249 122.534 165.236 122.513 163.779 122.492C163.789 122.433 163.795 122.373 163.795 122.312C163.795 121.848 163.489 121.458 163.073 121.342C163.049 121.335 163.025 121.329 163 121.324C162.979 121.32 162.958 121.317 162.937 121.314C162.916 121.311 162.894 121.309 162.872 121.308C162.867 121.307 162.862 121.307 162.857 121.307C162.855 121.307 162.853 121.307 162.851 121.307C162.847 121.307 162.843 121.306 162.839 121.306C162.835 121.306 162.832 121.306 162.828 121.306C162.827 121.306 162.825 121.306 162.824 121.306C162.82 121.306 162.817 121.306 162.814 121.306C162.716 121.306 162.622 121.321 162.533 121.348C162.526 121.35 162.518 121.353 162.51 121.355C162.506 121.356 162.503 121.358 162.499 121.359C162.491 121.362 162.484 121.364 162.476 121.367C162.457 121.374 162.439 121.382 162.421 121.39C162.413 121.393 162.406 121.397 162.399 121.4C162.392 121.403 162.385 121.407 162.377 121.411C162.37 121.414 162.363 121.418 162.356 121.422C162.328 121.437 162.301 121.453 162.275 121.471C162.268 121.476 162.262 121.48 162.255 121.485C162.249 121.489 162.242 121.494 162.236 121.499C162.23 121.503 162.223 121.508 162.217 121.513C162.211 121.518 162.205 121.523 162.199 121.528C162.193 121.533 162.186 121.538 162.18 121.543C162.165 121.556 162.151 121.57 162.137 121.584C162.131 121.589 162.125 121.595 162.12 121.601C162.111 121.609 162.103 121.618 162.095 121.627C162.09 121.633 162.085 121.639 162.079 121.645C161.993 121.744 161.926 121.861 161.884 121.989C161.882 121.995 161.88 122.001 161.878 122.007C161.877 122.011 161.876 122.015 161.875 122.018C161.873 122.025 161.871 122.03 161.87 122.037C161.868 122.045 161.865 122.053 161.863 122.061C161.861 122.069 161.859 122.077 161.858 122.085C161.857 122.089 161.856 122.093 161.855 122.097C161.852 122.11 161.85 122.123 161.847 122.136C161.846 122.145 161.845 122.154 161.843 122.163C161.843 122.167 161.842 122.172 161.841 122.176C161.836 122.22 161.832 122.266 161.832 122.312C161.832 122.316 161.832 122.319 161.832 122.321C161.832 122.323 161.832 122.325 161.831 122.327C161.831 122.329 161.83 122.332 161.83 122.335C161.826 122.349 161.818 122.362 161.808 122.372C161.808 122.373 161.807 122.373 161.807 122.374C161.804 122.377 161.8 122.38 161.796 122.382C161.793 122.384 161.79 122.386 161.786 122.388C161.774 122.393 161.761 122.396 161.748 122.395C161.746 122.395 161.744 122.395 161.743 122.395C161.74 122.395 161.738 122.394 161.736 122.393C161.734 122.393 161.732 122.393 161.731 122.392C161.73 122.392 161.729 122.392 161.729 122.391C161.726 122.391 161.724 122.39 161.722 122.389C161.719 122.388 161.716 122.386 161.714 122.385C161.712 122.384 161.71 122.382 161.708 122.381C161.707 122.38 161.705 122.379 161.703 122.378C161.702 122.377 161.701 122.377 161.7 122.376C161.698 122.375 161.695 122.373 161.692 122.371C161.688 122.368 161.684 122.365 161.679 122.362C161.675 122.36 161.673 122.358 161.67 122.356C161.669 122.355 161.668 122.354 161.667 122.353C161.662 122.35 161.658 122.347 161.654 122.343C161.612 122.31 161.575 122.27 161.545 122.224C161.501 122.158 161.475 122.083 161.467 122.005C161.462 121.943 161.468 121.88 161.486 121.82C161.552 121.595 162.097 119.712 162.123 119.629C162.123 119.628 162.123 119.628 162.123 119.627C162.14 119.597 162.157 119.567 162.176 119.534C162.185 119.52 162.194 119.506 162.202 119.492C162.203 119.49 162.205 119.488 162.206 119.486C162.21 119.479 162.214 119.473 162.218 119.466C162.223 119.457 162.229 119.448 162.234 119.438C162.239 119.43 162.244 119.421 162.249 119.413C162.252 119.409 162.254 119.404 162.257 119.4C162.258 119.397 162.26 119.395 162.261 119.392C162.262 119.391 162.263 119.39 162.264 119.389C162.265 119.387 162.266 119.385 162.267 119.384C162.268 119.382 162.268 119.381 162.269 119.38C162.271 119.377 162.273 119.374 162.275 119.372C162.276 119.369 162.278 119.367 162.28 119.364C162.281 119.362 162.283 119.36 162.284 119.358C162.285 119.357 162.286 119.356 162.287 119.354C162.29 119.35 162.293 119.346 162.297 119.342C162.298 119.34 162.299 119.339 162.301 119.337C162.301 119.336 162.302 119.335 162.303 119.335C162.304 119.333 162.305 119.332 162.306 119.331C162.309 119.327 162.312 119.324 162.315 119.321C162.316 119.32 162.317 119.318 162.318 119.317C162.32 119.316 162.321 119.314 162.323 119.312C162.324 119.311 162.325 119.31 162.327 119.308C162.327 119.307 162.328 119.307 162.329 119.306C162.329 119.306 162.33 119.305 162.33 119.305C162.331 119.304 162.332 119.303 162.332 119.303C162.335 119.3 162.337 119.298 162.34 119.296C162.342 119.293 162.345 119.291 162.347 119.288C162.35 119.286 162.352 119.284 162.355 119.281C162.357 119.279 162.36 119.277 162.362 119.275C162.365 119.272 162.367 119.27 162.37 119.268C162.373 119.266 162.376 119.263 162.379 119.26C162.382 119.259 162.384 119.257 162.386 119.255C162.388 119.254 162.39 119.252 162.392 119.25C162.394 119.249 162.396 119.247 162.398 119.246C162.4 119.244 162.402 119.243 162.404 119.241C162.408 119.238 162.412 119.235 162.416 119.233C162.42 119.23 162.423 119.228 162.426 119.226C162.509 119.172 162.604 119.139 162.703 119.127C164.834 118.873 165.977 119.02 166.455 119.153C166.647 119.207 166.816 119.269 166.97 119.343C167.323 119.512 167.824 119.836 168.114 120.047C168.152 120.074 168.188 120.101 168.222 120.126C168.28 120.168 168.392 120.22 168.519 120.27C168.775 120.371 170.646 120.66 171.135 120.949C171.137 120.95 171.139 120.951 171.141 120.952C171.155 120.961 171.169 120.968 171.181 120.975C171.233 121.005 171.254 121.047 171.321 121.127C171.336 121.145 171.408 121.367 171.41 121.378C171.45 121.697 171.426 122.208 171.446 122.268C171.446 122.269 171.446 122.27 171.447 122.272C171.469 122.337 171.393 122.392 171.332 122.421V122.421Z" fill="#4B5E63"/>
<path d="M170.219 122.905C170.523 122.602 170.523 122.11 170.219 121.807C169.916 121.503 169.424 121.503 169.12 121.807C168.817 122.11 168.817 122.602 169.12 122.905C169.424 123.208 169.916 123.208 170.219 122.905Z" fill="#324347"/>
<path d="M169.672 121.889C169.414 121.889 169.203 122.097 169.203 122.355C169.203 122.611 169.412 122.822 169.668 122.822C169.926 122.822 170.136 122.614 170.137 122.357C170.137 122.1 169.928 121.89 169.672 121.889V121.889Z" fill="white"/>
<path d="M163.533 122.653C163.698 122.257 163.509 121.802 163.113 121.638C162.716 121.474 162.262 121.662 162.097 122.058C161.933 122.455 162.121 122.909 162.518 123.073C162.915 123.237 163.369 123.049 163.533 122.653Z" fill="#324347"/>
<path d="M162.817 121.889C162.559 121.889 162.349 122.097 162.349 122.355C162.348 122.611 162.557 122.822 162.813 122.822C163.072 122.822 163.282 122.614 163.282 122.357C163.282 122.1 163.074 121.89 162.817 121.889V121.889Z" fill="white"/>
<path d="M167.999 120.618C167.966 120.355 167.555 120.109 167.535 120.098C167.111 119.784 166.453 119.356 165.82 119.329C164.948 119.292 163.81 119.276 162.97 119.385C162.905 119.393 162.842 119.415 162.786 119.454C162.645 119.549 162.591 119.683 162.615 119.819C162.635 119.933 162.712 120.033 162.819 120.091L163.104 120.246C163.242 120.286 163.255 120.341 163.531 120.39C164.622 120.586 167.859 120.765 167.859 120.765C167.893 120.765 167.935 120.741 167.959 120.718C167.988 120.692 168.003 120.656 167.999 120.618Z" fill="white"/>
<path d="M164.806 119.16L165.01 120.978H165.252H165.341L165.074 119.16H164.806Z" fill="#41545B"/>
<g opacity="0.52">
<path d="M236.26 121.329H178.646C178.483 121.329 178.351 121.197 178.351 121.034C178.351 120.871 178.483 120.739 178.646 120.739H236.26C236.423 120.739 236.556 120.871 236.556 121.034C236.556 121.197 236.423 121.329 236.26 121.329Z" fill="#41545B"/>
<path d="M212.11 125.37H178.646C178.483 125.37 178.351 125.238 178.351 125.075C178.351 124.912 178.483 124.779 178.646 124.779H212.11C212.273 124.779 212.405 124.912 212.405 125.075C212.405 125.238 212.273 125.37 212.11 125.37Z" fill="#41545B"/>
<path d="M236.291 117.288H178.646C178.483 117.288 178.351 117.156 178.351 116.993C178.351 116.83 178.483 116.698 178.646 116.698H236.291C236.454 116.698 236.587 116.83 236.587 116.993C236.587 117.156 236.454 117.288 236.291 117.288Z" fill="#41545B"/>
</g>
<path opacity="0.78" d="M172.678 132.798H160.074C158.836 132.798 157.832 133.801 157.832 135.038V145.705C157.832 146.942 158.836 147.945 160.074 147.945H172.678C173.916 147.945 174.92 146.942 174.92 145.705V135.038C174.92 133.801 173.916 132.798 172.678 132.798Z" fill="#EBEBEB"/>
<path d="M171.332 142.168C171.058 142.297 170.643 142.314 170.643 142.314C170.643 142.314 170.635 142.314 170.621 142.313C170.642 142.229 170.654 142.141 170.653 142.049C170.648 141.492 170.205 141.047 169.661 141.053C169.124 141.059 168.69 141.507 168.69 142.059C168.69 142.14 168.7 142.219 168.718 142.295C167.249 142.281 165.236 142.26 163.779 142.239C163.789 142.18 163.795 142.12 163.795 142.059C163.795 141.595 163.489 141.205 163.073 141.089C163.049 141.082 163.025 141.076 163 141.071C162.979 141.067 162.958 141.064 162.937 141.061C162.916 141.058 162.894 141.056 162.872 141.055C162.867 141.054 162.862 141.054 162.857 141.054C162.855 141.054 162.853 141.054 162.851 141.054C162.847 141.054 162.843 141.053 162.839 141.053C162.835 141.053 162.832 141.053 162.828 141.053C162.827 141.053 162.825 141.053 162.824 141.053C162.82 141.053 162.817 141.053 162.814 141.053C162.716 141.053 162.622 141.068 162.533 141.095C162.526 141.097 162.518 141.1 162.51 141.102C162.506 141.103 162.503 141.105 162.499 141.106C162.491 141.108 162.484 141.111 162.476 141.114C162.457 141.121 162.439 141.129 162.421 141.137C162.413 141.14 162.406 141.144 162.399 141.147C162.392 141.15 162.385 141.154 162.377 141.158C162.37 141.161 162.363 141.165 162.356 141.169C162.328 141.184 162.301 141.2 162.275 141.218C162.268 141.223 162.262 141.227 162.255 141.232C162.249 141.236 162.242 141.241 162.236 141.246C162.23 141.25 162.223 141.255 162.217 141.26C162.211 141.265 162.205 141.27 162.199 141.275C162.193 141.28 162.186 141.285 162.18 141.29C162.165 141.303 162.151 141.317 162.137 141.331C162.131 141.336 162.125 141.342 162.12 141.348C162.111 141.356 162.103 141.365 162.095 141.374C162.09 141.38 162.085 141.386 162.079 141.392C161.993 141.491 161.926 141.608 161.884 141.736C161.882 141.742 161.88 141.748 161.878 141.754C161.877 141.758 161.876 141.762 161.875 141.765C161.873 141.771 161.871 141.777 161.87 141.784C161.868 141.791 161.865 141.799 161.863 141.807C161.861 141.816 161.859 141.824 161.858 141.832C161.857 141.836 161.856 141.84 161.855 141.844C161.852 141.857 161.85 141.87 161.847 141.883C161.846 141.892 161.845 141.901 161.843 141.91C161.843 141.914 161.842 141.919 161.841 141.923C161.836 141.967 161.832 142.013 161.832 142.059C161.832 142.063 161.832 142.066 161.832 142.068C161.832 142.07 161.832 142.072 161.831 142.074C161.831 142.076 161.83 142.079 161.83 142.082C161.826 142.096 161.818 142.109 161.808 142.119C161.808 142.12 161.807 142.12 161.807 142.121C161.804 142.124 161.8 142.127 161.796 142.129C161.793 142.131 161.79 142.133 161.786 142.135C161.774 142.14 161.761 142.143 161.748 142.142C161.746 142.142 161.744 142.142 161.743 142.142C161.74 142.141 161.738 142.141 161.736 142.14C161.734 142.14 161.732 142.14 161.731 142.139C161.73 142.139 161.729 142.139 161.729 142.138C161.726 142.138 161.724 142.137 161.722 142.136C161.719 142.135 161.716 142.133 161.714 142.132C161.712 142.13 161.71 142.129 161.708 142.128C161.707 142.127 161.705 142.126 161.703 142.125C161.702 142.124 161.701 142.124 161.7 142.123C161.698 142.122 161.695 142.12 161.692 142.118C161.688 142.115 161.684 142.112 161.679 142.109C161.675 142.107 161.673 142.105 161.67 142.102C161.669 142.102 161.668 142.101 161.667 142.1C161.662 142.097 161.658 142.094 161.654 142.09C161.612 142.057 161.575 142.016 161.545 141.971C161.501 141.905 161.475 141.83 161.467 141.752C161.462 141.69 161.468 141.627 161.486 141.567C161.552 141.342 162.097 139.459 162.123 139.376C162.123 139.375 162.123 139.375 162.123 139.374C162.14 139.344 162.157 139.313 162.176 139.281C162.185 139.267 162.194 139.253 162.202 139.239C162.203 139.237 162.205 139.235 162.206 139.233C162.21 139.226 162.214 139.22 162.218 139.213C162.223 139.204 162.229 139.195 162.234 139.185C162.239 139.177 162.244 139.168 162.249 139.16C162.252 139.155 162.254 139.151 162.257 139.147C162.258 139.144 162.26 139.142 162.261 139.139C162.262 139.138 162.263 139.137 162.264 139.135C162.265 139.134 162.266 139.132 162.267 139.131C162.268 139.129 162.268 139.128 162.269 139.127C162.271 139.124 162.273 139.121 162.275 139.119C162.276 139.116 162.278 139.114 162.28 139.111C162.281 139.109 162.283 139.107 162.284 139.105C162.285 139.104 162.286 139.102 162.287 139.101C162.29 139.097 162.293 139.093 162.297 139.089C162.298 139.087 162.299 139.086 162.301 139.084C162.301 139.083 162.302 139.082 162.303 139.082C162.304 139.08 162.305 139.079 162.306 139.078C162.309 139.074 162.312 139.071 162.315 139.068C162.316 139.067 162.317 139.065 162.318 139.064C162.32 139.063 162.321 139.061 162.323 139.059C162.324 139.058 162.325 139.056 162.327 139.055C162.327 139.054 162.328 139.054 162.329 139.053C162.329 139.053 162.33 139.052 162.33 139.052C162.331 139.051 162.332 139.05 162.332 139.05C162.335 139.047 162.337 139.045 162.34 139.043C162.342 139.04 162.345 139.038 162.347 139.035C162.35 139.033 162.352 139.031 162.355 139.028C162.357 139.026 162.36 139.024 162.362 139.022C162.365 139.019 162.367 139.017 162.37 139.015C162.373 139.013 162.376 139.01 162.379 139.007C162.382 139.005 162.384 139.004 162.386 139.002C162.388 139 162.39 138.999 162.392 138.997C162.394 138.996 162.396 138.994 162.398 138.993C162.4 138.991 162.402 138.99 162.404 138.988C162.408 138.985 162.412 138.982 162.416 138.979C162.42 138.977 162.423 138.975 162.426 138.973C162.509 138.918 162.604 138.885 162.703 138.874C164.834 138.62 165.977 138.767 166.455 138.9C166.647 138.954 166.816 139.016 166.97 139.09C167.323 139.259 167.824 139.583 168.114 139.794C168.152 139.821 168.188 139.848 168.222 139.873C168.28 139.915 168.392 139.967 168.519 140.017C168.775 140.118 170.646 140.407 171.135 140.695C171.137 140.697 171.139 140.698 171.141 140.699C171.155 140.708 171.169 140.715 171.181 140.722C171.233 140.751 171.254 140.794 171.321 140.874C171.336 140.892 171.408 141.114 171.41 141.125C171.45 141.444 171.426 141.955 171.446 142.015C171.446 142.016 171.446 142.017 171.447 142.019C171.469 142.084 171.393 142.139 171.332 142.168V142.168Z" fill="#4B5E63"/>
<path d="M170.219 142.652C170.523 142.349 170.523 141.857 170.219 141.554C169.916 141.251 169.424 141.251 169.12 141.554C168.817 141.857 168.817 142.349 169.12 142.652C169.424 142.955 169.916 142.955 170.219 142.652Z" fill="#324347"/>
<path d="M169.672 141.636C169.414 141.636 169.203 141.845 169.203 142.102C169.203 142.358 169.412 142.569 169.668 142.569C169.926 142.57 170.136 142.361 170.137 142.104C170.137 141.847 169.928 141.637 169.672 141.636V141.636Z" fill="white"/>
<path d="M163.533 142.4C163.698 142.004 163.509 141.55 163.113 141.385C162.716 141.221 162.262 141.409 162.097 141.806C161.933 142.202 162.121 142.656 162.518 142.82C162.915 142.984 163.369 142.796 163.533 142.4Z" fill="#324347"/>
<path d="M162.817 141.636C162.559 141.636 162.349 141.845 162.349 142.102C162.348 142.358 162.557 142.569 162.813 142.569C163.072 142.57 163.282 142.361 163.282 142.104C163.282 141.847 163.074 141.637 162.817 141.636V141.636Z" fill="white"/>
<path d="M167.999 140.365C167.966 140.102 167.555 139.856 167.535 139.845C167.111 139.531 166.453 139.103 165.82 139.076C164.948 139.039 163.81 139.023 162.97 139.132C162.905 139.14 162.842 139.162 162.786 139.201C162.645 139.296 162.591 139.43 162.615 139.565C162.635 139.68 162.712 139.78 162.819 139.838L163.104 139.993C163.242 140.032 163.255 140.088 163.531 140.137C164.622 140.333 167.859 140.512 167.859 140.512C167.893 140.512 167.935 140.488 167.959 140.465C167.988 140.439 168.003 140.403 167.999 140.365Z" fill="white"/>
<path d="M164.806 138.907L165.01 140.725H165.252H165.341L165.074 138.907H164.806Z" fill="#41545B"/>
<g opacity="0.52">
<path d="M236.26 141.076H178.646C178.483 141.076 178.351 140.944 178.351 140.781C178.351 140.618 178.483 140.485 178.646 140.485H236.26C236.423 140.485 236.556 140.618 236.556 140.781C236.556 140.944 236.423 141.076 236.26 141.076Z" fill="#41545B"/>
<path d="M212.11 145.117H178.646C178.483 145.117 178.351 144.985 178.351 144.822C178.351 144.659 178.483 144.527 178.646 144.527H212.11C212.273 144.527 212.405 144.659 212.405 144.822C212.405 144.985 212.273 145.117 212.11 145.117Z" fill="#41545B"/>
<path d="M236.291 137.036H178.646C178.483 137.036 178.351 136.903 178.351 136.74C178.351 136.577 178.483 136.445 178.646 136.445H236.291C236.454 136.445 236.587 136.577 236.587 136.74C236.587 136.903 236.454 137.036 236.291 137.036Z" fill="#41545B"/>
</g>
<path d="M193.759 195.591H160.296C160.133 195.591 160 195.458 160 195.295C160 195.132 160.133 195 160.296 195H193.759C193.922 195 194.055 195.132 194.055 195.295C194.055 195.458 193.922 195.591 193.759 195.591Z" fill="#9CA6AA"/>
<path d="M189.759 199.591H164.296C164.133 199.591 164 199.458 164 199.295C164 199.132 164.133 199 164.296 199H189.759C189.922 199 190.055 199.132 190.055 199.295C190.055 199.458 189.922 199.591 189.759 199.591Z" fill="#9CA6AA"/>
<path d="M233.759 195.591H200.296C200.133 195.591 200 195.458 200 195.295C200 195.132 200.133 195 200.296 195H233.759C233.922 195 234.055 195.132 234.055 195.295C234.055 195.458 233.922 195.591 233.759 195.591Z" fill="#9CA6AA"/>
<path d="M229.759 199.591H204.296C204.133 199.591 204 199.458 204 199.295C204 199.132 204.133 199 204.296 199H229.759C229.922 199 230.055 199.132 230.055 199.295C230.055 199.458 229.922 199.591 229.759 199.591Z" fill="#9CA6AA"/>
<rect x="158" y="158" width="38" height="33" rx="4" fill="#F0F0F0"/>
<path d="M184.89 172.151C184.878 172.135 184.866 172.12 184.853 172.105L184.221 171.434C184.745 171.303 185.308 170.819 185.308 170.32C185.308 169.742 184.581 169.537 183.961 169.537C183.312 169.537 183.237 170.027 183.229 170.372L181.601 168.645C181.205 168.254 180.7 168.026 180.169 168H173.831C173.303 168.027 172.799 168.255 172.404 168.645L170.778 170.376C170.77 170.03 170.694 169.54 170.046 169.54C169.424 169.54 168.699 169.746 168.699 170.323C168.699 170.819 169.263 171.303 169.786 171.438L169.154 172.109C169.14 172.124 169.13 172.139 169.117 172.154C168.443 172.849 168.042 173.807 168 174.824V177.369C168 177.963 168.207 178.534 168.577 178.965V179.952C168.581 180.234 168.687 180.502 168.87 180.699C169.053 180.895 169.299 181.003 169.554 181H170.733C170.988 181.004 171.234 180.895 171.417 180.699C171.6 180.503 171.705 180.234 171.709 179.952V179.7H182.291V179.952C182.295 180.234 182.4 180.503 182.583 180.699C182.766 180.895 183.012 181.004 183.267 181H184.446C184.701 181.003 184.947 180.895 185.13 180.699C185.313 180.502 185.419 180.234 185.423 179.952V178.965C185.793 178.534 186 177.963 186 177.369V174.824C185.961 173.807 185.562 172.848 184.89 172.151ZM173.002 169.414C173.241 169.208 173.528 169.079 173.831 169.043H180.174C180.476 169.079 180.763 169.208 181.002 169.414L183.137 171.697H170.868L173.002 169.414ZM168.732 174.441C168.73 174.295 168.754 174.149 168.802 174.013C168.851 173.876 168.923 173.752 169.015 173.646C169.108 173.541 169.218 173.456 169.34 173.398C169.462 173.34 169.593 173.308 169.726 173.306C170.275 173.306 172.068 174.467 172.068 175.093C172.068 175.72 170.275 175.575 169.726 175.575C169.593 175.573 169.462 175.542 169.34 175.483C169.218 175.425 169.108 175.341 169.016 175.235C168.924 175.13 168.851 175.006 168.803 174.87C168.754 174.733 168.73 174.588 168.732 174.441ZM171.712 178.587H171.334H170.211C169.964 178.511 169.731 178.387 169.524 178.221C169.453 178.161 169.391 178.091 169.338 178.013C169.294 177.949 169.258 177.877 169.233 177.802C169.198 177.659 169.193 177.51 169.219 177.365C169.245 177.22 169.301 177.083 169.382 176.966H171.299L172.576 178.583L171.712 178.587ZM179.758 178.587H174.248C173.972 178.586 173.708 178.465 173.513 178.25C173.317 178.035 173.208 177.743 173.208 177.439H180.796C180.795 177.742 180.686 178.033 180.491 178.248C180.297 178.463 180.033 178.584 179.758 178.585V178.587ZM179.999 176.656H174.006C173.382 176.656 172.874 175.806 172.874 174.759H181.133C181.133 175.805 180.627 176.654 179.999 176.654V176.656ZM184.772 177.804C184.746 177.879 184.711 177.95 184.667 178.014C184.614 178.092 184.552 178.162 184.481 178.222C184.274 178.388 184.042 178.512 183.794 178.587H182.671H181.429L182.707 176.967H184.623C184.705 177.084 184.761 177.22 184.787 177.365C184.813 177.51 184.808 177.659 184.773 177.802L184.772 177.804ZM184.279 175.575C183.731 175.575 181.938 175.719 181.938 175.093C181.938 174.467 183.731 173.306 184.279 173.306C184.545 173.318 184.796 173.442 184.98 173.654C185.164 173.865 185.267 174.147 185.267 174.441C185.267 174.734 185.164 175.016 184.98 175.227C184.796 175.439 184.545 175.563 184.279 175.575Z" fill="#8399C3"/>
<rect width="38" height="33" rx="4" transform="matrix(-1 0 0 1 236 158)" fill="#F0F0F0"/>
<path d="M224.89 172.151C224.878 172.135 224.866 172.12 224.853 172.105L224.221 171.434C224.745 171.303 225.308 170.819 225.308 170.32C225.308 169.742 224.581 169.537 223.961 169.537C223.312 169.537 223.237 170.027 223.229 170.372L221.601 168.645C221.205 168.254 220.7 168.026 220.169 168H213.831C213.303 168.027 212.799 168.255 212.404 168.645L210.778 170.376C210.77 170.03 210.694 169.54 210.046 169.54C209.424 169.54 208.699 169.746 208.699 170.323C208.699 170.819 209.263 171.303 209.786 171.438L209.154 172.109C209.14 172.124 209.13 172.139 209.117 172.154C208.443 172.849 208.042 173.807 208 174.824V177.369C208 177.963 208.207 178.534 208.577 178.965V179.952C208.581 180.234 208.687 180.502 208.87 180.699C209.053 180.895 209.299 181.003 209.554 181H210.733C210.988 181.004 211.234 180.895 211.417 180.699C211.6 180.503 211.705 180.234 211.709 179.952V179.7H222.291V179.952C222.295 180.234 222.4 180.503 222.583 180.699C222.766 180.895 223.012 181.004 223.267 181H224.446C224.701 181.003 224.947 180.895 225.13 180.699C225.313 180.502 225.419 180.234 225.423 179.952V178.965C225.793 178.534 226 177.963 226 177.369V174.824C225.961 173.807 225.562 172.848 224.89 172.151ZM213.002 169.414C213.241 169.208 213.528 169.079 213.831 169.043H220.174C220.476 169.079 220.763 169.208 221.002 169.414L223.137 171.697H210.868L213.002 169.414ZM208.732 174.441C208.73 174.295 208.754 174.149 208.802 174.013C208.851 173.876 208.923 173.752 209.015 173.646C209.108 173.541 209.218 173.456 209.34 173.398C209.462 173.34 209.593 173.308 209.726 173.306C210.275 173.306 212.068 174.467 212.068 175.093C212.068 175.72 210.275 175.575 209.726 175.575C209.593 175.573 209.462 175.542 209.34 175.483C209.218 175.425 209.108 175.341 209.016 175.235C208.924 175.13 208.851 175.006 208.803 174.87C208.754 174.733 208.73 174.588 208.732 174.441ZM211.712 178.587H211.334H210.211C209.964 178.511 209.731 178.387 209.524 178.221C209.453 178.161 209.391 178.091 209.338 178.013C209.294 177.949 209.258 177.877 209.233 177.802C209.198 177.659 209.193 177.51 209.219 177.365C209.245 177.22 209.301 177.083 209.382 176.966H211.299L212.576 178.583L211.712 178.587ZM219.758 178.587H214.248C213.972 178.586 213.708 178.465 213.513 178.25C213.317 178.035 213.208 177.743 213.208 177.439H220.796C220.795 177.742 220.686 178.033 220.491 178.248C220.297 178.463 220.033 178.584 219.758 178.585V178.587ZM219.999 176.656H214.006C213.382 176.656 212.874 175.806 212.874 174.759H221.133C221.133 175.805 220.627 176.654 219.999 176.654V176.656ZM224.772 177.804C224.746 177.879 224.711 177.95 224.667 178.014C224.614 178.092 224.552 178.162 224.481 178.222C224.274 178.388 224.042 178.512 223.794 178.587H222.671H221.429L222.707 176.967H224.623C224.705 177.084 224.761 177.22 224.787 177.365C224.813 177.51 224.808 177.659 224.773 177.802L224.772 177.804ZM224.279 175.575C223.731 175.575 221.938 175.719 221.938 175.093C221.938 174.467 223.731 173.306 224.279 173.306C224.545 173.318 224.796 173.442 224.98 173.654C225.164 173.865 225.267 174.147 225.267 174.441C225.267 174.734 225.164 175.016 224.98 175.227C224.796 175.439 224.545 175.563 224.279 175.575Z" fill="#79AD79"/>
<circle cx="197" cy="174" r="5" fill="#0B1837"/>
<path d="M195.79 175.617H195.211L194.083 172.383H194.773L195.514 174.822L196.242 172.383H196.936L195.79 175.617Z" fill="#ECEDF1"/>
<path d="M199.8 173.359H199.157C199.135 173.03 198.902 172.866 198.458 172.866C198.28 172.866 198.139 172.901 198.033 172.97C197.931 173.039 197.88 173.133 197.88 173.25C197.88 173.365 197.923 173.451 198.01 173.508C198.097 173.565 198.265 173.616 198.514 173.661L199.036 173.756C199.343 173.813 199.567 173.911 199.707 174.05C199.847 174.188 199.917 174.384 199.917 174.637C199.917 174.983 199.78 175.247 199.506 175.427C199.27 175.587 198.952 175.667 198.551 175.667C198.094 175.667 197.746 175.564 197.507 175.36C197.298 175.182 197.185 174.935 197.166 174.619H197.833C197.858 174.962 198.108 175.134 198.583 175.134C198.795 175.134 198.959 175.098 199.078 175.025C199.199 174.95 199.259 174.848 199.259 174.718C199.259 174.592 199.211 174.494 199.115 174.425C199.022 174.355 198.86 174.3 198.63 174.257L198.164 174.172C197.825 174.111 197.583 174.017 197.437 173.887C197.294 173.755 197.222 173.565 197.222 173.318C197.222 172.984 197.348 172.731 197.6 172.559C197.817 172.409 198.113 172.333 198.486 172.333C198.936 172.333 199.275 172.433 199.502 172.631C199.698 172.806 199.797 173.049 199.8 173.359Z" fill="#ECEDF1"/>
<path d="M120.375 86.4559L119.917 86.2542L119.921 86.2455L119.925 86.2369L120.375 86.4559ZM110.691 72.3894L110.469 71.9414L110.52 71.9159L110.576 71.9027L110.691 72.3894ZM105.941 85.2141L105.482 85.4119L105.474 85.394L105.468 85.3757L105.941 85.2141ZM139.15 88.4152L135.943 93.2162L133.389 88.0385L139.15 88.4152ZM135.185 90.7192C134.212 91.0807 133.239 91.3949 132.272 91.6646L132.004 90.7014C132.944 90.4391 133.89 90.1334 134.837 89.7818L135.185 90.7192ZM129.29 92.3622C128.267 92.5559 127.255 92.7016 126.258 92.8024L126.157 91.8075C127.126 91.7095 128.109 91.568 129.104 91.3797L129.29 92.3622ZM123.199 92.9753C122.152 92.9875 121.128 92.9504 120.135 92.8685L120.217 91.8719C121.179 91.9512 122.172 91.9872 123.188 91.9754L123.199 92.9753ZM117.091 92.4629C116.046 92.2679 115.046 92.021 114.102 91.728L114.398 90.7729C115.304 91.0539 116.266 91.2917 117.275 91.4799L117.091 92.4629ZM111.221 90.613C110.228 90.1417 109.33 89.6102 108.544 89.0286L109.139 88.2249C109.867 88.7635 110.708 89.2626 111.65 89.7097L111.221 90.613ZM106.289 86.8128C105.961 86.3633 105.69 85.8954 105.482 85.4119L106.4 85.0164C106.576 85.425 106.809 85.8285 107.097 86.2235L106.289 86.8128ZM105.468 85.3757C105.32 84.9428 105.185 84.5234 105.063 84.1166L106.021 83.8296C106.139 84.2227 106.27 84.63 106.414 85.0525L105.468 85.3757ZM104.447 81.5184C104.291 80.5405 104.25 79.6345 104.347 78.7867L105.34 78.9007C105.256 79.6369 105.289 80.4488 105.435 81.3605L104.447 81.5184ZM105.232 76.1351C105.679 75.3885 106.287 74.7067 107.061 74.0656L107.699 74.8357C106.995 75.4186 106.468 76.017 106.09 76.6488L105.232 76.1351ZM109.292 72.5623C109.662 72.3536 110.054 72.1469 110.469 71.9414L110.913 72.8374C110.512 73.0359 110.136 73.2343 109.783 73.4333L109.292 72.5623ZM110.576 71.9027C111.052 71.7907 111.513 71.7085 111.958 71.6544L112.079 72.6471C111.672 72.6965 111.248 72.7721 110.805 72.8761L110.576 71.9027ZM114.777 71.7056C115.78 71.8819 116.67 72.2307 117.451 72.7138L116.924 73.564C116.253 73.1481 115.482 72.8449 114.604 72.6905L114.777 71.7056ZM119.553 74.6406C120.121 75.3855 120.572 76.2233 120.916 77.1062L119.984 77.4686C119.67 76.6611 119.262 75.9081 118.758 75.2475L119.553 74.6406ZM121.628 79.8033C121.771 80.7355 121.817 81.6756 121.775 82.5806L120.776 82.5336C120.815 81.6942 120.772 80.8207 120.639 79.9548L121.628 79.8033ZM121.331 85.3447C121.193 85.8175 121.024 86.2645 120.824 86.6748L119.925 86.2369C120.097 85.8833 120.247 85.4899 120.371 85.0645L121.331 85.3447ZM120.832 86.6575C120.624 87.1299 120.408 87.594 120.183 88.0499L119.286 87.6082C119.504 87.165 119.715 86.7137 119.917 86.2542L120.832 86.6575ZM118.71 90.7449C118.173 91.6335 117.605 92.4858 117.009 93.3025L116.201 92.7131C116.78 91.9196 117.332 91.0914 117.854 90.2279L118.71 90.7449ZM115.094 95.7025C114.413 96.4829 113.707 97.2245 112.979 97.928L112.284 97.2088C112.992 96.5247 113.679 95.8038 114.34 95.0454L115.094 95.7025ZM110.682 99.9662C109.88 100.62 109.059 101.232 108.224 101.805L107.658 100.981C108.471 100.423 109.27 99.8267 110.05 99.191L110.682 99.9662ZM105.624 103.437C104.726 103.951 103.817 104.423 102.903 104.853L102.478 103.949C103.367 103.53 104.252 103.07 105.127 102.569L105.624 103.437ZM100.077 106.048C99.1029 106.414 98.1289 106.735 97.1619 107.01L96.8878 106.049C97.8285 105.781 98.7765 105.469 99.7255 105.112L100.077 106.048ZM94.1771 107.725C93.1433 107.926 92.1257 108.074 91.1326 108.17L91.0356 107.175C91.9965 107.081 92.983 106.938 93.9868 106.744L94.1771 107.725ZM88.0528 108.307C87.5283 108.3 87.0142 108.278 86.512 108.241L86.587 107.243C87.0674 107.28 87.5604 107.301 88.0646 107.307L88.0528 108.307Z" fill="#B4BAC8"/>
<g clip-path="url(#clip1_572_13430)">
<path d="M67.7464 230.799C63.849 213.57 71.4245 199.609 87.976 196C90.8961 220.103 75.6682 228.974 67.7503 230.799H67.7464Z" fill="#CDD0DF"/>
<g style="mix-blend-mode:multiply">
<path d="M68.1619 230.246C68.085 230.258 68.0003 230.242 67.9272 230.197C67.7579 230.095 67.7002 229.871 67.8041 229.701L86.4986 197.981C86.5986 197.81 86.8179 197.753 86.9872 197.86C87.1565 197.962 87.2142 198.185 87.1103 198.356L68.4158 230.076C68.3581 230.174 68.262 230.231 68.1619 230.246Z" fill="#BDC1D7"/>
</g>
<path d="M71.4934 230.966C70.7163 222.111 64.7682 216.577 56 217.376C58.3431 229.375 67.2844 231.299 71.4934 230.966Z" fill="#DCDEE8"/>
<g style="mix-blend-mode:multiply">
<path d="M71.201 230.765C71.2433 230.757 71.2818 230.738 71.3088 230.704C71.378 230.629 71.3703 230.515 71.2934 230.447L57.0426 218.103C56.9657 218.035 56.8503 218.043 56.781 218.119C56.7118 218.194 56.7195 218.308 56.7964 218.376L71.0471 230.72C71.0895 230.757 71.1472 230.773 71.201 230.761V230.765Z" fill="#D4D8E9"/>
</g>
<path d="M71 230.786C72.8737 220.48 80.2684 214.549 90.1638 216.306C86.1549 230.153 75.7592 231.574 71 230.786Z" fill="#DCDEE8"/>
<g style="mix-blend-mode:multiply">
<path d="M71.354 230.577C71.3078 230.566 71.2655 230.54 71.2385 230.498C71.1693 230.403 71.1924 230.267 71.2847 230.199L88.8942 217.06C88.9904 216.988 89.1212 217.007 89.1904 217.105C89.2597 217.204 89.2366 217.336 89.1443 217.405L71.5348 230.543C71.4809 230.585 71.4155 230.596 71.354 230.581V230.577Z" fill="#D4D8E9"/>
</g>
</g>
<defs>
<linearGradient id="paint0_linear_572_13430" x1="40.4545" y1="58.5579" x2="38.938" y2="75.4271" gradientUnits="userSpaceOnUse">
<stop stop-color="#D9804C"/>
<stop offset="0.57" stop-color="#E89C60"/>
<stop offset="1" stop-color="#F2AD6D"/>
</linearGradient>
<linearGradient id="paint1_linear_572_13430" x1="310.536" y1="-141.664" x2="269.037" y2="-60.0428" gradientUnits="userSpaceOnUse">
<stop stop-color="#650E3D"/>
<stop offset="1" stop-color="#F48279"/>
</linearGradient>
<linearGradient id="paint2_linear_572_13430" x1="238.338" y1="117.853" x2="228.455" y2="112.003" gradientUnits="userSpaceOnUse">
<stop stop-color="#650E3D"/>
<stop offset="1" stop-color="#F48279"/>
</linearGradient>
<linearGradient id="paint3_linear_572_13430" x1="247.591" y1="102.22" x2="237.708" y2="96.3704" gradientUnits="userSpaceOnUse">
<stop stop-color="#650E3D"/>
<stop offset="1" stop-color="#F48279"/>
</linearGradient>
<linearGradient id="paint4_linear_572_13430" x1="223.608" y1="7.84439" x2="211.208" y2="32.2329" gradientUnits="userSpaceOnUse">
<stop stop-color="#650E3D"/>
<stop offset="1" stop-color="#F48279"/>
</linearGradient>
<clipPath id="clip0_572_13430">
<rect width="79" height="182" fill="white" transform="translate(6 50)"/>
</clipPath>
<clipPath id="clip1_572_13430">
<rect width="36" height="35" fill="white" transform="translate(56 196)"/>
</clipPath>
</defs>
</svg>
