<svg width="264" height="234" viewBox="0 0 264 234" fill="none" xmlns="http://www.w3.org/2000/svg">
<path d="M263.867 231.392C264.044 231.376 264.044 230.632 263.867 230.616L259.513 230.244L250.804 229.567L242.096 228.942L233.388 228.37L215.972 228.399H128.893L59.23 228L24.3985 228.399L15.6902 228.981L10.0467 229.603L1.3384 230.269L1.25104 230.277C0.916319 230.305 0.916319 231.707 1.25104 231.735L1.3384 231.743L10.0467 232.409L15.6902 233.031L24.3985 233.613H215.973L233.389 233.642L242.097 234L250.805 233.375L259.514 232.433L263.868 231.396L263.867 231.392Z" fill="#ECEDF1"/>
<path d="M58.6562 25.0602C-9.93009 42.5449 -9.65043 158.787 35.5457 209.627C51.35 227.406 126.561 215.115 153.672 222.338C218.23 239.532 238.503 215.475 252.795 178.341C271.798 128.967 266.475 66.3756 187.569 61.9936C129.895 58.7887 120.095 9.39845 58.6562 25.0602Z" fill="#F6F7F8" fill-opacity="0.6"/>
<path d="M165.5 51.9632L165.077 51.6968L165.041 51.7541L165.021 51.8189L165.5 51.9632ZM182.5 51.9632L182.997 51.908L182.984 51.794L182.923 51.6968L182.5 51.9632ZM174.5 62.4633L174.418 61.9701L174.387 61.9753L174.356 61.9843L174.5 62.4633ZM153.5 55.4633L153.836 55.0933L153.807 55.0666L153.774 55.0449L153.5 55.4633ZM118 72.4633L121.983 68.2839L116.372 66.924L118 72.4633ZM119.67 68.2308C119.986 67.2446 120.323 66.3108 120.677 65.4273L119.749 65.0551C119.385 65.9617 119.041 66.9177 118.718 67.9253L119.67 68.2308ZM121.903 62.7024C122.369 61.7791 122.857 60.9234 123.365 60.1314L122.524 59.5914C121.996 60.4138 121.491 61.2996 121.01 62.252L121.903 62.7024ZM125.113 57.7405C125.773 56.9507 126.456 56.2465 127.159 55.6211L126.495 54.874C125.754 55.5332 125.036 56.2731 124.345 57.0995L125.113 57.7405ZM129.504 53.8584C130.355 53.3249 131.227 52.8853 132.112 52.5298L131.739 51.6019C130.8 51.9791 129.875 52.4455 128.973 53.0109L129.504 53.8584ZM134.916 51.681C135.883 51.4775 136.858 51.3584 137.833 51.3127L137.786 50.3138C136.761 50.3619 135.733 50.4873 134.71 50.7025L134.916 51.681ZM140.781 51.3876C141.768 51.4811 142.745 51.6397 143.703 51.8512L143.918 50.8747C142.924 50.655 141.906 50.4897 140.875 50.3921L140.781 51.3876ZM146.561 52.651C147.519 52.975 148.443 53.344 149.322 53.7432L149.736 52.8326C148.828 52.4204 147.873 52.039 146.881 51.7037L146.561 52.651ZM151.967 55.1056C152.407 55.3607 152.827 55.6203 153.226 55.8816L153.774 55.0449C153.359 54.7737 152.924 54.5047 152.469 54.2408L151.967 55.1056ZM153.164 55.8332C153.531 56.1669 153.898 56.4869 154.265 56.7938L154.906 56.0266C154.55 55.7286 154.193 55.4177 153.836 55.0933L153.164 55.8332ZM156.582 58.5649C157.414 59.1436 158.241 59.6591 159.058 60.1171L159.547 59.2449C158.758 58.8026 157.959 58.3042 157.153 57.7439L156.582 58.5649ZM161.682 61.4152C162.623 61.8201 163.542 62.1521 164.431 62.4212L164.721 61.4641C163.867 61.2057 162.983 60.8865 162.077 60.4966L161.682 61.4152ZM167.286 63.1003C168.331 63.2811 169.312 63.3763 170.214 63.4066L170.248 62.4071C169.392 62.3784 168.456 62.2879 167.457 62.1149L167.286 63.1003ZM173.17 63.2587C173.729 63.1771 174.224 63.0682 174.644 62.9422L174.356 61.9843C173.99 62.0944 173.543 62.1936 173.026 62.2693L173.17 63.2587ZM174.582 62.9565C175.246 62.8458 175.863 62.6929 176.436 62.5031L176.122 61.5538C175.6 61.7266 175.033 61.8675 174.418 61.9701L174.582 62.9565ZM179.781 60.6224C180.821 59.7099 181.557 58.6332 182.063 57.5295L181.154 57.1125C180.699 58.1059 180.042 59.0629 179.121 59.8707L179.781 60.6224ZM183.014 53.8311C183.072 53.1211 183.059 52.465 182.997 51.908L182.003 52.0185C182.058 52.5084 182.071 53.1002 182.018 53.7496L183.014 53.8311ZM182.923 51.6968C182.667 51.2898 182.409 50.9058 182.151 50.544L181.337 51.1255C181.584 51.4705 181.83 51.8382 182.077 52.2296L182.923 51.6968ZM180.37 48.4079C179.641 47.6703 178.905 47.0875 178.168 46.6433L177.651 47.4998C178.309 47.8962 178.981 48.4252 179.659 49.1112L180.37 48.4079ZM175.488 45.6103C174.493 45.432 173.525 45.4781 172.603 45.6892L172.826 46.664C173.628 46.4803 174.46 46.4421 175.312 46.5946L175.488 45.6103ZM169.966 46.7723C169.156 47.2543 168.407 47.8408 167.731 48.4743L168.415 49.2037C169.047 48.611 169.74 48.0707 170.478 47.6317L169.966 46.7723ZM165.87 50.5512C165.578 50.9377 165.312 51.3229 165.077 51.6968L165.923 52.2296C166.143 51.88 166.392 51.5183 166.667 51.1544L165.87 50.5512ZM165.021 51.8189C164.873 52.3116 164.73 52.8006 164.593 53.2859L165.555 53.5579C165.691 53.0782 165.832 52.5948 165.979 52.1076L165.021 51.8189ZM163.821 56.2193C163.576 57.2258 163.356 58.2159 163.161 59.1899L164.141 59.387C164.334 58.4263 164.551 57.4493 164.793 56.4556L163.821 56.2193ZM162.625 62.1864C162.466 63.2086 162.333 64.2124 162.227 65.1981L163.221 65.3055C163.326 64.3357 163.456 63.3475 163.613 62.3405L162.625 62.1864ZM161.976 68.2388C161.917 69.2739 161.888 70.288 161.886 71.2817L162.886 71.2834C162.888 70.3082 162.917 69.3123 162.974 68.2953L161.976 68.2388ZM161.969 74.3306C162.029 75.3675 162.118 76.3809 162.237 77.3715L163.23 77.2528C163.114 76.2829 163.026 75.2901 162.968 74.2738L161.969 74.3306ZM162.696 80.3881C162.886 81.4069 163.106 82.4001 163.354 83.3684L164.323 83.1202C164.08 82.1734 163.865 81.202 163.679 80.2053L162.696 80.3881ZM164.212 86.2986C164.537 87.2807 164.89 88.2355 165.268 89.1641L166.194 88.7865C165.824 87.8785 165.479 86.9451 165.162 85.985L164.212 86.2986ZM166.516 91.9516C166.968 92.8788 167.445 93.7779 167.943 94.6503L168.811 94.1549C168.324 93.3004 167.857 92.4202 167.414 91.513L166.516 91.9516ZM169.535 97.2529C170.098 98.1146 170.68 98.9483 171.275 99.7559L172.08 99.1626C171.495 98.3692 170.924 97.5508 170.372 96.7057L169.535 97.2529ZM173.144 102.16C173.467 102.555 173.793 102.943 174.12 103.325L174.88 102.675C174.557 102.298 174.236 101.915 173.918 101.526L173.144 102.16Z" fill="#B4BAC8"/>
<path d="M20.026 202.605V203.066L20.0282 205.565L20.0461 226.982L20.0475 228.498L78.6462 228.45L78.6398 220.629L78.634 213.853L78.6247 203.162V202.557H78.2037H77.5052L75.6363 202.559L74.6846 202.559L72.7963 202.561L71.1597 202.562L64.1902 202.568L61.972 202.57L58.6278 202.573L51.0466 202.579L49.9751 202.58L48.3213 202.582L46.4215 202.583L40.867 202.588L37.946 202.59H37.723L33.2378 202.595L30.5226 202.597L28.1666 202.598L24.9652 202.6L20.026 202.605Z" fill="#75CB68"/>
<path d="M24.4581 205.015L30.0936 205.009H30.4436L32.6281 205.008L35.5126 205.005H36.0017L37.6999 205.003L39.3394 205.001L42.4089 204.999H42.8923L48.0753 204.995H48.5981L51.4926 204.991H52.3991L54.2193 204.989H54.6238L55.1767 204.988H55.3273H55.8501H56.4196L59.0523 204.985H59.8864L61.3688 204.983H62.6274L65.4258 204.98H65.4595L68.0234 204.978H68.5606H68.8345L70.0989 204.976L73.6224 204.973L74.5755 204.972H75.1786L75.4024 204.971V205.924L75.406 208.441V208.597L75.4074 210.156V211.812L75.4088 212.232L75.4103 214.581V215.105V215.362L75.4139 219.197V219.813L75.416 221.982V223.103L75.4174 223.45L75.4189 225.199V226.038H75.0001H73.9351L71.5784 226.04L68.5771 226.043L61.9432 226.048L30.1115 226.075L25.2979 226.079L23.2697 226.081L23.264 219.239L23.2575 211.855L23.2532 206.982L23.2518 205.014H24.4573L24.4581 205.015ZM25.4994 212.37L25.5044 218.723C27.2163 218.721 28.7324 219.561 29.6619 220.85C30.2679 221.69 30.6243 222.72 30.6257 223.835L61.5316 223.809H62.1885L66.2929 223.805H67.4346L68.0586 223.804C68.0586 223.407 68.1037 223.021 68.1891 222.651C68.2672 222.303 68.3827 221.969 68.5297 221.653C68.6237 221.451 68.7305 221.256 68.8482 221.069C69.1279 220.626 69.4735 220.23 69.8723 219.893C70.0932 219.706 70.3313 219.536 70.5823 219.389C70.7085 219.314 70.8376 219.245 70.9703 219.181C71.6365 218.862 72.3838 218.683 73.1713 218.683V218.163L73.1691 216.057V215.626L73.167 213.734V213.153L73.1655 212.33C72.8701 212.33 72.581 212.305 72.2999 212.258C72.013 212.209 71.7341 212.137 71.4651 212.043C71.189 211.946 70.9229 211.825 70.6705 211.684C70.3657 211.514 70.0795 211.313 69.817 211.086C69.5503 210.855 69.3079 210.597 69.0934 210.317C68.7901 209.92 68.5434 209.478 68.3662 209.001C68.3605 208.985 68.3547 208.97 68.349 208.953C68.1525 208.413 68.0456 207.828 68.0449 207.219H67.1413H66.7411H66.6629L63.9427 207.222L61.3429 207.224L59.928 207.225H59.0509L58.1393 207.227H56.9137L55.7454 207.228H54.689L53.1916 207.23L52.0907 207.232L49.7326 207.233L46.5513 207.236L41.843 207.24H41.0907L41.0197 207.241L39.6557 207.242L36.7712 207.245H35.5326L30.6121 207.25C30.6121 207.404 30.6049 207.559 30.5913 207.711C30.5218 208.505 30.27 209.247 29.8777 209.895C28.9827 211.377 27.3576 212.369 25.4994 212.37Z" fill="#339A33"/>
<path d="M49.336 222.832C45.635 222.832 42.6347 219.561 42.6347 215.527C42.6347 211.493 45.635 208.223 49.336 208.223C53.037 208.223 56.0372 211.493 56.0372 215.527C56.0372 219.561 53.037 222.832 49.336 222.832Z" fill="#339A33"/>
<path d="M64.0529 218.083C62.7521 218.083 61.6977 216.933 61.6977 215.515C61.6977 214.098 62.7521 212.948 64.0529 212.948C65.3536 212.948 66.4081 214.098 66.4081 215.515C66.4081 216.933 65.3536 218.083 64.0529 218.083Z" fill="#339A33"/>
<path d="M34.6184 218.107C33.3176 218.107 32.2632 216.957 32.2632 215.539C32.2632 214.122 33.3176 212.972 34.6184 212.972C35.9191 212.972 36.9736 214.122 36.9736 215.539C36.9736 216.957 35.9191 218.107 34.6184 218.107Z" fill="#339A33"/>
<path opacity="0.3" d="M12.7984 199.888L20.026 203.066L20.0282 205.565L23.2547 206.983L29.8786 209.895L42.6349 215.503L45.7108 216.855L48.0761 217.894L48.794 218.21L51.4948 219.397L54.1778 220.577L61.5324 223.809L65.5213 225.563L66.2937 223.806L68.669 218.404L71.3964 212.201L71.4659 212.043L74.5749 204.973L75.6363 202.558L75.7001 202.413L75.9432 201.86L75.5588 201.691L75.1457 201.508L74.9191 201.409L70.6082 199.515L60.699 195.158L57.6381 193.812L50.6981 190.761L48.203 189.665L38.7048 185.489L34.3946 183.595L29.7523 181.554L22.3002 178.278L12.7984 199.888Z" fill="black"/>
<path d="M11.9999 199.538L12.7981 199.889L20.0258 203.066L24.4579 205.015L30.5912 207.711L42.9939 213.162L46.8516 214.858L49.8817 216.19L52.513 217.347L52.9124 217.523L55.4082 218.62L65.6429 223.119L68.7913 215.96L70.671 211.684L71.5187 209.757L73.6215 204.974L74.6843 202.559L75.1455 201.509L75.8225 199.97L76.0656 199.415L75.6805 199.246L75.0415 198.965L72.4575 197.829L70.7306 197.07L69.2324 196.411L62.8517 193.607L60.8207 192.714L57.7605 191.368L50.8197 188.317L49.8386 187.886L48.3254 187.221L46.5863 186.457L41.5022 184.221L38.8264 183.045L38.6235 182.956L34.517 181.151L32.0312 180.058L29.8747 179.11L26.9429 177.821L22.4218 175.834L22.2361 176.257L21.2127 178.585L12.6102 198.15L11.9999 199.538Z" fill="#75CB68"/>
<path d="M18.6766 192.365L21.6493 185.605L23.5928 181.185L24.4032 179.342L25.5063 179.827L30.6656 182.094L30.9855 182.235L32.9856 183.115L35.6263 184.275L36.0745 184.472L37.6279 185.155L39.1275 185.814L41.9388 187.05L42.3813 187.245L47.1247 189.331L47.6038 189.541L50.2537 190.706L51.0842 191.071L52.7502 191.804L53.121 191.966L53.6266 192.189L53.7657 192.25L54.2441 192.46L54.7647 192.689L57.1752 193.749L57.9389 194.085L59.2958 194.682L60.4476 195.189L63.0101 196.314L63.0402 196.327L65.3889 197.359L65.8795 197.576L66.1305 197.686L67.2887 198.195L70.5146 199.612L71.9389 200.238L72.1432 200.329L71.7596 201.201L71.1607 202.564L70.7469 203.506L70.6838 203.649L70.0986 204.978L70.0563 205.075L69.3893 206.592L69.2208 206.976L68.3501 208.956L68.2755 209.127L68.0647 209.607L67.9614 209.841L66.4181 213.352L66.1699 213.916L66.0595 214.168L65.2971 215.901L64.846 216.928L64.7062 217.246L64.3462 218.065L64.0026 218.846L63.6648 219.614L63.2804 219.446L62.3051 219.017L60.1478 218.069L57.4003 216.861L56.0062 216.248L52.2726 214.606L51.328 214.192L50.2387 213.713L48.1209 212.782L46.3932 212.023L44.0767 211.004L35.5345 207.249L30.4454 205.011L24.9669 202.603L22.1886 201.381L17.7823 199.445L15.9256 198.629L18.6795 192.366L18.6766 192.365ZM23.8819 196.417C24.0977 197.43 24.0088 198.517 23.5599 199.536L30.5214 202.596L35.9999 205.004L41.089 207.242L45.8065 209.315L48.7577 210.613L51.7583 211.932L51.9914 212.035L52.454 212.238L55.3399 213.506L55.8297 213.722L57.2569 214.35L57.8285 214.601C57.9877 214.238 58.1849 213.903 58.413 213.599C58.6253 213.313 58.8648 213.054 59.1266 212.824C59.2937 212.676 59.4694 212.541 59.6537 212.418C60.0876 212.126 60.5638 211.901 61.0644 211.754C61.3426 211.672 61.6281 211.613 61.9185 211.579C62.0634 211.562 62.2097 211.551 62.3567 211.546C63.0954 211.523 63.8506 211.66 64.5721 211.977L64.7815 211.502L65.6292 209.574L65.8027 209.179L66.5636 207.447L66.6626 207.222L66.7974 206.916L67.1288 206.162C66.8584 206.043 66.6038 205.904 66.3657 205.747C66.0301 205.526 65.726 205.268 65.4578 204.983C65.3323 204.849 65.2146 204.709 65.1049 204.564C64.8941 204.285 64.7133 203.987 64.5656 203.673C64.415 203.354 64.2967 203.021 64.2135 202.678C64.2049 202.642 64.197 202.606 64.1891 202.57C64.0901 202.119 64.0507 201.65 64.0787 201.181C64.0787 201.163 64.0808 201.147 64.0822 201.13C64.121 200.555 64.2587 199.977 64.5032 199.42L63.677 199.056L63.3106 198.895L63.2396 198.863L60.7488 197.768L58.3685 196.722L57.0733 196.152L56.2708 195.8L55.436 195.433L54.3144 194.941L53.245 194.47L52.2769 194.045L50.9071 193.442L49.8987 192.999L47.74 192.05L44.8283 190.77L40.5181 188.875L39.8289 188.573L39.7644 188.545L38.5158 187.995L35.8751 186.834L34.7398 186.335L30.2367 184.355C30.1743 184.497 30.1055 184.636 30.0323 184.769C29.6415 185.481 29.0986 186.066 28.4646 186.505C27.0518 187.48 25.1807 187.722 23.4932 186.98L20.9364 192.796C22.5035 193.485 23.552 194.864 23.8826 196.418L23.8819 196.417Z" fill="#339A33"/>
<path d="M41.0937 206.17C37.7057 204.68 36.2752 200.479 37.8988 196.786C39.5224 193.093 43.5852 191.307 46.9733 192.796C50.3614 194.285 51.7918 198.486 50.1682 202.179C48.5446 205.872 44.4818 207.659 41.0937 206.17Z" fill="#339A33"/>
<path d="M56.4727 207.753C55.282 207.229 54.7793 205.753 55.3499 204.455C55.9205 203.157 57.3484 202.529 58.5392 203.052C59.7299 203.576 60.2327 205.052 59.662 206.35C59.0914 207.648 57.6635 208.276 56.4727 207.753Z" fill="#339A33"/>
<path d="M29.5272 195.911C28.3364 195.387 27.8337 193.911 28.4043 192.613C28.975 191.315 30.4029 190.687 31.5936 191.21C32.7844 191.734 33.2871 193.21 32.7165 194.508C32.1458 195.806 30.7179 196.434 29.5272 195.911Z" fill="#339A33"/>
<path opacity="0.3" d="M22.2363 176.257L21.2128 178.585L23.5931 181.185L28.4649 186.503L37.8921 196.794L40.1613 199.271L41.9958 201.273L42.297 201.603L42.2984 201.604L44.3962 203.894L46.3885 206.069L51.7594 211.932L54.1777 214.572L55.3402 213.506L55.8946 212.999L61.6628 207.717L65.1059 204.562L66.6593 203.14L70.5134 199.611L72.4577 197.829L73.2745 197.082L72.9905 196.772L72.5186 196.257L69.338 192.785L62.0264 184.803L59.768 182.338L54.6474 176.748L52.8064 174.738L45.7982 167.088L42.6183 163.616L39.1931 159.877L33.6945 153.875L17.4334 168.767L16.3146 169.792L22.2363 176.257Z" fill="black"/>
<path d="M16.3147 169.792L22.2364 176.257L25.5067 179.826L30.032 184.767L39.1824 194.756L42.0289 197.863L44.265 200.305L46.2043 202.421L46.5019 202.746L48.3429 204.756L55.8947 212.999L61.6629 207.716L65.1061 204.562L66.6595 203.14L70.5135 199.61L72.4578 197.829L73.2747 197.082L74.5448 195.919L74.9908 195.51L74.7076 195.199L74.2357 194.685L72.3294 192.604L71.0543 191.212L69.9491 190.006L65.2416 184.866L63.7427 183.231L61.4851 180.766L56.3644 175.175L55.6401 174.385L54.5235 173.166L53.2404 171.765L49.4882 167.669L47.5153 165.516L47.3647 165.352L44.3353 162.044L42.5015 160.042L40.9094 158.305L38.7471 155.943L35.4108 152.303L35.0709 152.614L33.6946 153.874L33.3511 154.189L17.4335 168.767L16.3147 169.792Z" fill="#75CB68"/>
<path d="M25.318 165.919L30.7635 160.931L34.4806 157.527L35.8088 156.31L36.6228 157.199L40.4296 161.355L40.6655 161.612L42.1415 163.223L44.0893 165.35L44.4206 165.712L45.5674 166.963L46.674 168.171L48.7481 170.434L49.0744 170.792L52.5742 174.612L52.9277 174.998L54.8828 177.132L55.4959 177.801L56.7245 179.144L56.9977 179.441L57.3713 179.85L57.4725 179.96L57.8253 180.345L58.2104 180.766L59.9897 182.707L60.552 183.321L61.5539 184.415L62.4037 185.343L64.2935 187.407L64.3164 187.431L66.0491 189.322L66.4106 189.718L66.5956 189.92L67.4498 190.853L69.8293 193.451L70.8807 194.599L71.032 194.763L70.3292 195.407L69.2312 196.413L68.4732 197.108L68.3577 197.213L67.2863 198.194L67.2081 198.265L65.986 199.384L65.6769 199.668L64.0812 201.128L63.9442 201.254L63.5577 201.608L63.3683 201.781L60.5398 204.371L60.0851 204.787L59.8822 204.972L58.4858 206.251L57.6589 207.009L57.4029 207.243L56.7424 207.848L56.1134 208.423L55.4938 208.991L55.2105 208.682L54.4912 207.896L52.8998 206.158L50.8723 203.945L49.8439 202.823L47.0885 199.815L46.3914 199.055L45.5875 198.177L44.0248 196.471L42.7496 195.079L41.0399 193.213L34.736 186.331L30.9823 182.232L26.9396 177.819L24.8899 175.582L21.639 172.032L20.2692 170.537L25.3145 165.916L25.318 165.919ZM32.0315 180.058L36.0742 184.471L39.8286 188.57L43.309 192.37L45.4864 194.747L47.8717 197.351L48.0252 197.519L48.2131 197.724L50.3423 200.048L50.7038 200.443L51.7573 201.592L52.1783 202.052C52.4709 201.785 52.7857 201.558 53.1171 201.371C53.4269 201.194 53.7511 201.055 54.0831 200.949C54.2954 200.881 54.5113 200.829 54.7293 200.79C55.2449 200.698 55.7706 200.685 56.2877 200.752C56.576 200.788 56.8607 200.85 57.1397 200.936C57.2796 200.979 57.418 201.027 57.5542 201.083C58.2391 201.359 58.8745 201.789 59.4074 202.37L59.7911 202.019L61.3438 200.596L61.6615 200.304L63.0564 199.027L63.2378 198.861L63.4845 198.635L64.092 198.079C63.8926 197.861 63.7162 197.632 63.5613 197.392C63.3432 197.053 63.1683 196.695 63.0384 196.326C62.9775 196.154 62.9266 195.979 62.8857 195.802C62.8054 195.462 62.7609 195.116 62.7516 194.769C62.7415 194.416 62.7681 194.063 62.8305 193.716C62.8369 193.68 62.8434 193.644 62.8513 193.608C62.9423 193.154 63.0951 192.71 63.311 192.291L63.3346 192.246C63.6014 191.736 63.96 191.262 64.4097 190.851L63.8001 190.184L63.5297 189.889L63.4774 189.831L61.64 187.826L59.8836 185.908L58.9276 184.865L58.3352 184.218L57.7192 183.546L56.8916 182.642L56.1019 181.78L55.3884 181.002L54.3772 179.897L53.6334 179.085L52.0413 177.347L49.8927 175.002L46.712 171.529L46.2035 170.974L46.1555 170.922L45.2346 169.917L43.2861 167.79L42.4484 166.876L39.1258 163.248C39.011 163.353 38.8934 163.452 38.7722 163.545C38.1812 163.996 37.5186 164.3 36.8294 164.46C35.0895 164.863 33.189 164.343 31.8967 162.932L27.2121 167.223C28.3682 168.485 28.7719 170.17 28.4471 171.727C28.2362 172.74 27.7163 173.699 26.8951 174.451L32.0315 180.058Z" fill="#339A33"/>
<path d="M40.2649 187.589C37.765 184.86 38.1502 180.439 41.1252 177.714C44.1003 174.989 48.5386 174.993 51.0384 177.721C53.5383 180.45 53.1531 184.871 50.1781 187.596C47.2031 190.321 42.7648 190.318 40.2649 187.589Z" fill="#339A33"/>
<path d="M53.6988 195.242C52.8202 194.283 52.9556 192.729 54.0012 191.771C55.0468 190.814 56.6067 190.815 57.4853 191.774C58.3639 192.733 58.2285 194.287 57.1829 195.244C56.1373 196.202 54.5774 196.201 53.6988 195.242Z" fill="#339A33"/>
<path d="M33.8177 173.536C32.9391 172.576 33.0745 171.023 34.1201 170.065C35.1657 169.107 36.7256 169.108 37.6042 170.067C38.4828 171.026 38.3474 172.58 37.3018 173.538C36.2562 174.496 34.6963 174.495 33.8177 173.536Z" fill="#339A33"/>
<path opacity="0.3" d="M33.6946 153.874L33.3511 154.189L34.4814 157.527L36.8301 164.46L41.2723 177.579L42.3538 180.771L43.1118 183.01L43.5866 184.411L44.4336 186.911L45.353 189.627L48.0259 197.519L49.0328 200.492L50.3431 200.049L51.0538 199.808L58.4629 197.299L62.8864 195.801L64.8816 195.126L69.8308 193.45L72.3294 192.604L73.5615 192.186L73.426 191.788L73.2029 191.127L71.6919 186.667L68.22 176.416L67.1471 173.249L64.7159 166.069L63.8417 163.488L60.5133 153.661L59.0029 149.202L57.3771 144.399L54.7652 136.689L33.6954 143.824L32.2589 144.311L35.0709 152.614L33.6946 153.874Z" fill="black"/>
<path d="M32.2589 144.311L35.071 152.614L36.6236 157.199L38.773 163.545L43.1176 176.375L44.4695 180.366L45.5316 183.501L46.4525 186.22L46.5938 186.637L47.468 189.219L51.0539 199.808L58.463 197.299L62.8865 195.801L64.8817 195.126L69.8309 193.45L72.3295 192.604L73.5616 192.186L75.0088 191.696L75.5826 191.502L75.4478 191.103L75.224 190.442L73.7136 185.983L70.2411 175.731L69.1689 172.564L66.737 165.384L65.8627 162.803L62.5351 152.977L61.024 148.518L59.3982 143.715L56.7869 136.005L54.7652 136.689L33.6954 143.824L32.2589 144.311Z" fill="#75CB68"/>
<path d="M42.0598 144.398L49.055 142.029L55.5347 139.835L57.73 146.314L58.5425 148.714L59.4677 151.445L60.1698 153.516L61.6801 157.976L61.8343 158.433L63.6646 163.837L64.5926 166.578L64.8838 167.437L65.4675 169.16L65.5973 169.543L65.8225 170.209L65.9896 170.704L66.1725 171.244L67.0173 173.737L67.7603 175.931L68.1634 177.124L69.0613 179.774L69.8946 182.235L70.0668 182.742L70.155 183.002L72.1903 189.01L72.262 189.222L71.3591 189.527L69.9491 190.006L68.9759 190.336L68.8275 190.386L67.4512 190.852L67.3515 190.886L65.7824 191.417L65.3851 191.551L63.3361 192.245L63.1604 192.305L62.6634 192.473L62.4196 192.554L58.7871 193.785L58.2033 193.982L57.943 194.07L56.15 194.678L55.0872 195.038L54.7587 195.149L53.9103 195.436L53.102 195.71L52.3074 195.978L52.1726 195.582L51.8312 194.573L51.0753 192.341L50.1129 189.499L49.6245 188.057L48.3164 184.194L47.9857 183.217L47.6042 182.09L46.8619 179.9L46.2559 178.111L45.4441 175.715L42.4506 166.876L40.6677 161.611L38.7478 155.943L37.7746 153.069L36.2313 148.512L35.5801 146.59L42.0605 144.396L42.0598 144.398ZM51.8685 187.702L52.0686 188.293C52.4437 188.166 52.8245 188.085 53.2025 188.047C53.5575 188.011 53.911 188.014 54.2574 188.051C54.479 188.075 54.6978 188.114 54.9122 188.166C55.4207 188.29 55.9076 188.49 56.3537 188.76C56.6026 188.91 56.8385 189.081 57.0601 189.272C57.1713 189.368 57.2774 189.468 57.38 189.573C57.8956 190.103 58.3044 190.753 58.5576 191.499L59.0496 191.332L61.044 190.656L61.4535 190.518L63.2457 189.91L63.4781 189.831L63.7951 189.724L64.5754 189.46C64.4807 189.18 64.4111 188.899 64.3667 188.617C64.3036 188.219 64.2885 187.821 64.3186 187.431C64.3595 186.898 64.4836 186.378 64.6829 185.89C64.8163 185.563 64.9834 185.251 65.1799 184.958C65.2007 184.928 65.2215 184.896 65.2431 184.867C65.5098 184.488 65.829 184.144 66.194 183.848C66.6537 183.474 67.1866 183.175 67.7804 182.973L67.4907 182.117L67.3623 181.737L66.4644 179.086L65.6303 176.624L65.1764 175.284L64.6026 173.59L64.2096 172.43L63.496 170.322L63.0155 168.904L62.662 167.862L61.9053 165.629L60.8855 162.616L59.3752 158.157L59.1112 157.377L58.6738 156.086L57.7486 153.354L55.7735 147.52C53.0963 148.428 50.1925 146.993 49.2853 144.316L43.2682 146.354C43.8168 147.974 43.507 149.68 42.5826 150.973C41.9809 151.815 41.1188 152.483 40.0631 152.84L42.5022 160.042L44.4221 165.711L46.205 170.975L47.8581 175.856L48.8923 178.909L50.0247 182.254L50.1867 182.732L51.3686 186.224L51.8692 187.701L51.8685 187.702Z" fill="#339A33"/>
<path d="M46.9996 170.252C45.8124 166.747 47.9478 162.856 51.7691 161.562C55.5904 160.268 59.6505 162.06 60.8377 165.566C62.025 169.071 59.8896 172.961 56.0683 174.255C52.247 175.549 48.1868 173.757 46.9996 170.252Z" fill="#339A33"/>
<path d="M56.2078 182.672C55.7905 181.44 56.541 180.072 57.8841 179.618C59.2271 179.163 60.6541 179.793 61.0713 181.025C61.4886 182.256 60.7381 183.624 59.395 184.079C58.052 184.533 56.625 183.903 56.2078 182.672Z" fill="#339A33"/>
<path d="M46.766 154.793C46.3487 153.562 47.0992 152.194 48.4423 151.739C49.7853 151.285 51.2123 151.915 51.6296 153.146C52.0468 154.378 51.2963 155.746 49.9533 156.2C48.6102 156.655 47.1832 156.025 46.766 154.793Z" fill="#339A33"/>
<path d="M150.626 85H59.4608C54.6913 85 50.8248 88.8749 50.8248 93.6548V219.636C50.8248 224.416 54.6913 228.291 59.4608 228.291H150.626C155.395 228.291 159.261 224.416 159.261 219.636V93.6548C159.261 88.8749 155.395 85 150.626 85Z" fill="#3A4C51"/>
<path d="M150.548 96.6182H59.5385V220.546H150.548V96.6182Z" fill="#FAFBFF"/>
<circle cx="85.5909" cy="123.703" r="11.6803" transform="rotate(-19.0594 85.5909 123.703)" stroke="#339A33"/>
<circle cx="85.591" cy="123.703" r="8.78025" transform="rotate(-19.0594 85.591 123.703)" stroke="#339A33"/>
<rect x="70.0991" y="125.289" width="30.3209" height="7.12022" rx="1.5" transform="rotate(-19.0594 70.0991 125.289)" fill="white" stroke="#339A33"/>
<path d="M76.0495 128.791L75.5385 128.116L74.2978 128.544L74.3125 129.391L73.5347 129.66L73.6286 126.035L74.5115 125.73L76.8274 128.522L76.0495 128.791ZM74.6656 126.95C74.6321 126.904 74.5893 126.847 74.5371 126.779C74.4848 126.71 74.432 126.639 74.3788 126.568C74.3255 126.496 74.2806 126.433 74.244 126.379C74.2488 126.444 74.2523 126.526 74.2545 126.626C74.259 126.721 74.2624 126.813 74.2648 126.903C74.2693 126.988 74.2709 127.049 74.2695 127.086L74.2828 127.913L75.1704 127.607L74.6656 126.95Z" fill="#339A33"/>
<path d="M77.243 124.802C77.682 124.65 78.0327 124.629 78.2949 124.739C78.5594 124.844 78.7452 125.052 78.8524 125.363C78.9008 125.503 78.9249 125.645 78.9247 125.789C78.9235 125.929 78.8879 126.069 78.8179 126.206C78.7501 126.34 78.6417 126.464 78.4927 126.579C78.3437 126.694 78.1451 126.794 77.8969 126.88L77.5868 126.987L77.9795 128.124L77.2589 128.373L76.155 125.178L77.243 124.802ZM77.3965 125.37L77.0673 125.484L77.395 126.432L77.6336 126.35C77.7704 126.303 77.8825 126.246 77.9698 126.179C78.0571 126.112 78.1154 126.033 78.1447 125.943C78.1741 125.853 78.1691 125.751 78.13 125.637C78.0753 125.479 77.989 125.379 77.871 125.336C77.7519 125.29 77.5938 125.302 77.3965 125.37Z" fill="#339A33"/>
<path d="M80.2395 123.766C80.6785 123.615 81.0292 123.594 81.2915 123.704C81.5559 123.809 81.7417 124.017 81.8489 124.328C81.8973 124.468 81.9214 124.61 81.9212 124.753C81.92 124.894 81.8844 125.033 81.8145 125.171C81.7467 125.305 81.6383 125.429 81.4892 125.544C81.3402 125.659 81.1416 125.759 80.8935 125.845L80.5833 125.952L80.976 127.089L80.2554 127.338L79.1515 124.142L80.2395 123.766ZM80.393 124.335L80.0638 124.448L80.3916 125.397L80.6302 125.315C80.767 125.267 80.879 125.21 80.9663 125.143C81.0536 125.077 81.1119 124.998 81.1412 124.908C81.1706 124.817 81.1657 124.716 81.1265 124.602C81.0719 124.444 80.9855 124.344 80.8675 124.301C80.7484 124.255 80.5903 124.266 80.393 124.335Z" fill="#339A33"/>
<path d="M83.1406 122.764C83.4492 122.658 83.716 122.605 83.9412 122.608C84.1653 122.607 84.3515 122.661 84.4996 122.771C84.6466 122.877 84.7573 123.037 84.8315 123.252C84.882 123.398 84.8961 123.537 84.8738 123.668C84.8536 123.795 84.8076 123.915 84.7358 124.026C84.6661 124.134 84.5839 124.231 84.489 124.317L85.972 125.363L85.1703 125.64L83.9354 124.694L83.5489 124.827L83.9725 126.053L83.2519 126.302L82.148 123.107L83.1406 122.764ZM83.2798 123.337L83.0603 123.413L83.3587 124.277L83.5925 124.196C83.7516 124.141 83.8748 124.08 83.9621 124.013C84.0493 123.946 84.1039 123.872 84.1258 123.791C84.1466 123.707 84.1405 123.618 84.1075 123.522C84.0725 123.421 84.0192 123.349 83.9477 123.307C83.8783 123.261 83.7881 123.242 83.677 123.25C83.5681 123.254 83.4357 123.283 83.2798 123.337Z" fill="#339A33"/>
<path d="M88.941 122.544C89.0266 122.791 89.071 123.028 89.0743 123.254C89.0797 123.476 89.0409 123.683 88.9577 123.875C88.8778 124.067 88.7479 124.237 88.5679 124.386C88.3911 124.534 88.1643 124.655 87.8875 124.751C87.6107 124.847 87.3555 124.891 87.1219 124.885C86.8905 124.875 86.6832 124.821 86.5001 124.724C86.3192 124.623 86.1603 124.483 86.0234 124.303C85.8897 124.122 85.78 123.908 85.6945 123.66C85.58 123.329 85.5378 123.021 85.5679 122.737C85.601 122.452 85.7137 122.201 85.906 121.984C86.1003 121.763 86.3836 121.589 86.7558 121.46C87.1249 121.332 87.4524 121.296 87.7384 121.351C88.0234 121.403 88.266 121.533 88.466 121.741C88.6683 121.945 88.8266 122.212 88.941 122.544ZM86.4548 123.402C86.5321 123.626 86.6288 123.808 86.7449 123.948C86.861 124.089 86.9976 124.18 87.1548 124.223C87.3119 124.265 87.4907 124.252 87.6911 124.183C87.8979 124.111 88.0484 124.011 88.1426 123.881C88.2399 123.751 88.2894 123.595 88.291 123.414C88.2958 123.232 88.2596 123.029 88.1823 122.806C88.0658 122.469 87.9077 122.228 87.7082 122.083C87.5086 121.938 87.2561 121.918 86.9507 122.024C86.7471 122.094 86.5966 122.195 86.4992 122.325C86.4018 122.456 86.3508 122.612 86.346 122.794C86.3412 122.976 86.3775 123.179 86.4548 123.402Z" fill="#339A33"/>
<path d="M91.7221 119.799L91.6664 123.395L90.8791 123.667L88.6203 120.871L89.3504 120.619L90.647 122.3C90.671 122.328 90.7097 122.383 90.7628 122.465C90.8182 122.543 90.8756 122.627 90.9351 122.716C90.9935 122.803 91.0388 122.877 91.071 122.94C91.0579 122.871 91.046 122.785 91.0353 122.682C91.0267 122.574 91.0202 122.473 91.0158 122.378C91.0103 122.279 91.0067 122.212 91.0049 122.176L90.992 120.052L91.7221 119.799Z" fill="#339A33"/>
<path d="M95.2187 122.168L93.2574 122.846L92.1535 119.65L94.1148 118.973L94.3065 119.528L93.0658 119.956L93.3085 120.659L94.4633 120.26L94.6551 120.815L93.5002 121.214L93.7847 122.037L95.0254 121.609L95.2187 122.168Z" fill="#339A33"/>
<path d="M98.19 119.318C98.3137 119.676 98.3441 120.001 98.2812 120.293C98.2184 120.586 98.0681 120.841 97.8304 121.06C97.5959 121.278 97.283 121.455 96.8917 121.59L95.9277 121.923L94.8238 118.728L95.8927 118.358C96.249 118.235 96.5782 118.188 96.8803 118.218C97.1856 118.246 97.45 118.351 97.6736 118.535C97.8993 118.714 98.0714 118.975 98.19 119.318ZM97.4469 119.595C97.3655 119.359 97.2619 119.178 97.1362 119.051C97.0104 118.924 96.862 118.85 96.6909 118.829C96.522 118.804 96.3326 118.828 96.1226 118.9L95.7361 119.034L96.455 121.115L96.7652 121.008C97.1183 120.886 97.3504 120.707 97.4614 120.471C97.5723 120.236 97.5675 119.944 97.4469 119.595Z" fill="#339A33"/>
<path d="M122.786 92.7703H118.199C118.199 90.2847 116.162 88.2521 113.673 88.2521H96.4129C93.9232 88.2521 91.8873 90.2862 91.8873 92.7703H87.3004C84.8108 92.7703 82.7749 94.8044 82.7749 97.2885C82.7749 99.7741 84.8123 101.807 87.3004 101.807H122.786C125.275 101.807 127.311 99.7726 127.311 97.2885C127.311 94.8028 125.274 92.7703 122.786 92.7703Z" fill="#DFE2ED"/>
<path d="M140.926 204.864H70.135C69.0156 204.864 68.1082 205.771 68.1082 206.891V206.892C68.1082 208.011 69.0156 208.919 70.135 208.919H140.926C142.045 208.919 142.952 208.011 142.952 206.892V206.891C142.952 205.771 142.045 204.864 140.926 204.864Z" fill="#DFE2ED"/>
<path d="M142.258 146H68.1793V195.533H142.258V146Z" fill="#DFE2ED"/>
<path d="M81.3454 158.292H76.2079C74.9485 158.292 73.9283 157.272 73.9283 156.013C73.9283 154.754 74.9485 153.734 76.2079 153.734H81.3454C82.6047 153.734 83.625 154.754 83.625 156.013C83.625 157.272 82.6047 158.292 81.3454 158.292Z" fill="#EFF1F7"/>
<path d="M133.92 158.292H94.2616C93.0022 158.292 91.982 157.272 91.982 156.013C91.982 154.754 93.0022 153.734 94.2616 153.734H133.92C135.18 153.734 136.2 154.754 136.2 156.013C136.2 157.272 135.18 158.292 133.92 158.292Z" fill="#EFF1F7"/>
<path d="M81.3454 171.78H76.2079C74.9485 171.78 73.9283 170.759 73.9283 169.5C73.9283 168.241 74.9485 167.221 76.2079 167.221H81.3454C82.6047 167.221 83.625 168.241 83.625 169.5C83.625 170.759 82.6047 171.78 81.3454 171.78Z" fill="#EFF1F7"/>
<path d="M133.92 171.78H94.2616C93.0022 171.78 91.982 170.759 91.982 169.5C91.982 168.241 93.0022 167.221 94.2616 167.221H133.92C135.18 167.221 136.2 168.241 136.2 169.5C136.2 170.759 135.18 171.78 133.92 171.78Z" fill="#EFF1F7"/>
<path d="M81.3438 181.905H76.2079C74.9489 181.905 73.9283 182.925 73.9283 184.184C73.9283 185.442 74.9489 186.462 76.2079 186.462H81.3438C82.6028 186.462 83.6235 185.442 83.6235 184.184C83.6235 182.925 82.6028 181.905 81.3438 181.905Z" fill="#EFF1F7"/>
<path d="M94.2616 181.905H115.583C116.841 181.905 117.863 182.927 117.863 184.185C117.863 185.442 116.841 186.464 115.583 186.464H94.2616C93.0037 186.464 91.982 185.442 91.982 184.185C91.982 182.927 93.0037 181.905 94.2616 181.905Z" fill="#EFF1F7"/>
<path d="M140.614 114.526H115.945C114.737 114.526 113.757 115.56 113.757 116.836V117.056C113.757 118.332 114.737 119.367 115.945 119.367H140.614C141.823 119.367 142.802 118.332 142.802 117.056V116.836C142.802 115.56 141.823 114.526 140.614 114.526Z" fill="#DFE2ED"/>
<path d="M140.614 128.08H115.945C114.737 128.08 113.757 129.115 113.757 130.391V130.611C113.757 131.887 114.737 132.921 115.945 132.921H140.614C141.823 132.921 142.802 131.887 142.802 130.611V130.391C142.802 129.115 141.823 128.08 140.614 128.08Z" fill="#DFE2ED"/>
<g clip-path="url(#clip0_572_11699)">
<path d="M204.565 67.4391C204.59 74.5073 208.373 102.794 215.271 106.428C226.283 106.678 242.069 100.671 240.55 94.8666C236.722 80.2424 232.154 68.4511 228.41 62.1612C224.665 55.8714 205.776 54.6195 204.565 67.4391Z" fill="#BCBEC0"/>
<path d="M211.339 224.609L197.922 229.75V230.775L218.539 230.74L218.578 216.532L211.422 216.545L211.339 224.609Z" fill="#F2AD6D"/>
<path d="M197.922 229.75V230.775L218.539 230.74L218.537 229.716L218.494 224.597V224.192L215.518 229.653L210.82 229.661L208.375 225.54L204.984 226.94L206.154 229.395L197.922 229.75Z" fill="#231F20"/>
<path d="M239.018 218.299L240.294 230.734H226.302V229.21L232.021 223.824L232.005 218.162L239.018 218.299Z" fill="#F2AD6D"/>
<path d="M226.302 230.734V229.21H236.72C236.72 229.21 236.362 227.838 233.911 227.432C232.377 227.178 228.843 226.907 226.718 228.769L229.36 226.413C230.888 224.802 236.905 224.19 239.016 229.108L239.624 224.231L240.292 230.734H226.302Z" fill="#231F20"/>
<path d="M204.996 224.432L206.616 146.856L207.065 99.9228C207.094 96.9273 209.355 94.4174 212.346 94.0618L215.592 93.6045L222.551 91.0682L229.219 93.826L235.976 95.2283C238.725 95.6856 237.784 106.528 237.784 106.528L237.394 147.151L241.796 224.428H204.996V224.432Z" fill="#E6E7E8"/>
<path d="M207.409 97.9943L199.227 120.335L184.587 119.557L183.67 123.79L201.15 129.805C202.561 130.291 204.11 129.606 204.694 128.239L210.659 114.254L207.409 97.9963V97.9943Z" fill="#E6E7E8"/>
<path d="M199.199 135.721L198.451 135.882H178.943L173.224 106.717L193.479 106.412L199.199 135.721Z" fill="#231F20"/>
<path d="M192.466 106.843C192.466 106.843 193.649 106.412 193.479 106.412H173.224C173.054 106.412 172.474 106.548 172.474 106.717C172.474 106.885 192.464 106.843 192.464 106.843H192.466Z" fill="#BCBEC0"/>
<path d="M185.547 107.314H178.545L178.239 105.723H180.05L179.599 103.998H182.445L182.896 105.723H185.241L185.547 107.314ZM180.712 105.002C180.694 105.256 180.949 105.479 181.284 105.503C181.617 105.528 181.903 105.343 181.922 105.089C181.94 104.835 181.685 104.611 181.352 104.587C181.019 104.563 180.733 104.747 180.714 105.002H180.712Z" fill="#BCBEC0"/>
<path d="M182.545 103.972L182.997 105.696L182.799 105.748L182.347 104.023L182.545 103.972Z" fill="#808285"/>
<path d="M185.344 105.699L185.703 107.29L185.504 107.334L185.144 105.744L185.344 105.699Z" fill="#808285"/>
<path d="M198.451 135.882H178.196L172.476 106.717H192.732L198.451 135.882Z" fill="#3A4C51"/>
<path d="M206.845 123.2V108.353L204.696 128.236L206.845 123.2Z" fill="#D1D3D4"/>
<path d="M176.837 126.598L178.271 127.033C178.584 127.129 178.898 126.891 178.892 126.568L178.858 124.593C178.817 122.302 177.477 120.233 175.397 119.254C175.616 117.992 174.913 116.752 173.714 116.287C173.058 116.033 172.323 116.374 172.1 117.039L172.07 117.132C171.886 117.679 172.082 118.28 172.552 118.618L173.369 119.203L174.243 124.109L176.837 126.602V126.598Z" fill="#F2AD6D"/>
<path d="M206.839 102.815L197.256 114.612L196.56 116.61L198.259 115.419L207.842 103.622L206.839 102.815Z" fill="#241F1D"/>
<path d="M211.807 111.503L205.037 107.074L198.141 110.812L197.391 113.389L197.873 113.854L199.605 112.69L199.125 114.356L204.161 115.46L207.425 114.051L210.364 115.029L211.807 111.503Z" fill="#F2AD6D"/>
<path d="M201.597 109.286L203.566 106.843L200.474 108.237L198.141 110.812L201.597 109.286Z" fill="#F2AD6D"/>
<path d="M229.221 93.826L236.918 95.6714C242.496 97.0614 243.42 101.919 241.861 106.075L231.772 124.782L226.645 124.977L208.877 115.273L211.294 110.812L225.728 115.025L233.874 101.845L229.223 93.826H229.221Z" fill="#E6E7E8"/>
<path d="M238.117 113.019L231.21 126.096C230.171 128.066 227.601 128.631 225.824 127.279L209.19 114.639L237.426 144.086L238.115 113.019H238.117Z" fill="#D1D3D4"/>
<path d="M207.645 103.464L207.031 102.972L207.573 102.303L208.187 102.795L207.645 103.464Z" fill="white"/>
<path d="M197.256 114.612L198.259 115.419L197.939 115.712L197.528 115.933L196.962 115.46L197.054 115.059L197.256 114.612Z" fill="white"/>
<path d="M233.01 101.075L225.207 116.496L222.408 115.002L233.01 101.075Z" fill="#D1D3D4"/>
<path d="M227.875 91.8994H217.547V78.5372H227.875V91.8994Z" fill="#DE925B"/>
<path d="M207.239 61.3463C206.046 64.1285 205.727 67.2033 206.326 70.1684C207.135 74.1679 208.287 79.8258 208.965 82.9961C209.306 84.5935 209.937 86.1157 210.828 87.4874L212.579 89.3693C213.4 90.0136 214.172 90.6476 215.026 90.5928L216.893 90.294C217.348 90.2656 218.981 89.6376 219.346 89.3673L224.98 84.4086C227.885 80.9598 229.018 79.4722 228.92 76.2856L228.408 59.6982L219.44 51.4187L210.609 53.4936L207.239 61.3463Z" fill="#F2AD6D"/>
<path d="M218.417 93.6553H226.886C227.446 93.6553 227.899 93.5659 227.899 93.009V89.0217L217.404 89.7432V92.6473C217.404 93.2041 217.857 93.6553 218.417 93.6553Z" fill="#F5F5F5"/>
<path d="M222.304 93.6553C220.529 95.8827 218.245 102.803 218.049 108.792C217.444 108.82 214.844 108.792 214.844 108.792C215.026 104.365 216.478 96.7241 218.533 93.6553C219.804 91.8507 222.304 93.6553 222.304 93.6553Z" fill="#F5F5F5"/>
<path d="M219.079 94.7527C219.117 94.5068 219.336 94.3381 219.569 94.3726C219.802 94.4072 219.959 94.6348 219.922 94.8807C219.883 95.1266 219.665 95.2953 219.432 95.2608C219.199 95.2262 219.042 94.9986 219.079 94.7527Z" fill="#D1D3D4"/>
<path d="M220.263 91.3425C220.302 91.0966 220.521 90.9279 220.754 90.9625C220.987 90.9991 221.144 91.2247 221.107 91.4706C221.068 91.7165 220.85 91.8851 220.617 91.8506C220.384 91.814 220.227 91.5884 220.263 91.3425Z" fill="#D1D3D4"/>
<path d="M217.824 98.1628C217.863 97.9169 218.082 97.7483 218.315 97.7828C218.547 97.8194 218.705 98.045 218.668 98.2909C218.629 98.5368 218.411 98.7055 218.178 98.6709C217.945 98.6343 217.788 98.4087 217.824 98.1628Z" fill="#D1D3D4"/>
<path d="M216.801 102.203C216.84 101.957 217.058 101.788 217.291 101.823C217.524 101.858 217.681 102.085 217.645 102.331C217.608 102.577 217.387 102.746 217.154 102.711C216.922 102.677 216.764 102.449 216.801 102.203Z" fill="#D1D3D4"/>
<path d="M216.129 106.219C216.168 105.973 216.386 105.804 216.619 105.839C216.852 105.873 217.009 106.101 216.973 106.347C216.936 106.593 216.715 106.761 216.482 106.727C216.249 106.692 216.092 106.465 216.129 106.219Z" fill="#D1D3D4"/>
<path d="M221.881 53.6724L227.227 58.6088C228.363 61.5414 228.565 65.8701 227.394 72.0502C222.216 68.7254 211.915 68.4612 207.11 74.0256C206.832 72.666 206.565 71.345 206.328 70.1663C205.727 67.2012 206.046 64.1244 207.241 61.3442L209.931 55.0767C214.178 53.5708 218.507 52.7437 221.883 53.6724H221.881Z" fill="url(#paint0_linear_572_11699)"/>
<path d="M214.693 83.9249L214.611 83.9432C213.629 84.1748 212.64 83.7663 212.256 82.9738L211.255 80.9029L220.87 78.645L218.304 81.7361C217.414 82.8091 216.131 83.5875 214.691 83.9249H214.693Z" fill="white"/>
<path d="M230.005 60.3016L228.92 76.2855C229.018 79.47 227.654 81.6913 224.98 84.4084L219.346 89.3672C218.981 89.6395 217.348 90.2654 216.893 90.2939L215.026 90.5926C214.172 90.6475 213.506 90.3935 212.495 89.4302L210.828 87.4873C210.019 86.2395 209.41 84.8718 208.99 83.4472C208.971 83.3862 209.055 83.3476 209.088 83.4025C209.653 84.3678 210.542 85.7436 211.188 86.3208C211.087 86.1216 210.985 85.9083 210.883 85.6786C209.882 83.4492 209.345 80.096 209.747 79.7017C210.152 79.3074 222.161 76.4866 222.553 76.574C222.919 76.6553 223.448 80.7341 222.167 83.9288C225.817 81.2218 226.984 79.2404 226.908 77.9194C226.038 62.716 224.663 55.8693 224.663 55.8693L230.003 60.3016H230.005ZM218.259 86.5505C218.235 86.5444 218.221 86.5403 218.221 86.5403C220.182 84.9124 222.083 81.9209 221.869 77.6166C216.593 78.6917 210.172 79.9192 210.332 80.5918C210.491 81.2625 212.722 87.8653 213.602 88.162C213.778 88.1864 213.957 88.1946 214.141 88.1864C213.851 86.7191 213.821 85.8656 213.821 85.8656L215.998 85.3534C215.998 85.3534 216.104 86.5362 216.276 87.6235C216.977 87.3146 217.659 86.9224 218.259 86.5484V86.5505Z" fill="#231F20"/>
<path d="M228.189 75.4014C227.642 75.4929 226.892 68.9225 227.864 68.76L228.457 68.7376C229.746 68.5242 230.099 69.6603 230.316 70.9426C230.704 73.2574 229.615 75.186 228.191 75.4014H228.189Z" fill="#F2AD6D"/>
<path d="M204.639 68.5344C205.153 66.8619 206.602 66.3619 208.834 66.8517C211.067 67.3415 215.005 66.3884 216.907 64.6467C218.809 62.9051 222.222 62.7465 223.754 63.6875C225.609 64.8276 227.478 68.3698 228.485 73.6253C229.172 77.2163 229.313 77.2366 231.157 83.5671C233.745 92.4441 239.816 92.6494 240.417 94.3016C237.451 79.2222 233.747 70.8472 230.926 61.958C228.8 55.2556 224.531 49.3945 215.733 51.3983C206.935 53.4042 203.523 60.9317 204.639 68.5324V68.5344Z" fill="#E6E7E8"/>
<path d="M204.573 65.0105C204.675 65.0105 204.778 64.9983 204.88 64.9739L229.772 59.127C230.485 58.9604 230.928 58.2471 230.759 57.5378C230.591 56.8285 229.874 56.3875 229.161 56.5562L204.269 62.4031C203.556 62.5697 203.113 63.283 203.282 63.9923C203.427 64.6 203.973 65.0105 204.573 65.0105Z" fill="#231F20"/>
<path d="M204.641 62.9538C204.743 62.9538 204.845 62.9416 204.947 62.9172L228.788 57.3183C229.501 57.1517 229.944 56.4384 229.774 55.7291C229.607 55.0198 228.89 54.5788 228.177 54.7475L204.334 60.3484C203.621 60.5151 203.178 61.2284 203.348 61.9377C203.493 62.5453 204.038 62.9559 204.639 62.9559L204.641 62.9538Z" fill="#231F20"/>
<g clip-path="url(#clip1_572_11699)">
<path d="M180.747 231.799C176.849 214.57 184.425 200.609 200.976 197C203.896 221.103 188.668 229.974 180.75 231.799H180.747Z" fill="#CDD0DF"/>
<g style="mix-blend-mode:multiply">
<path d="M181.162 231.246C181.085 231.258 181 231.243 180.927 231.197C180.758 231.095 180.7 230.871 180.804 230.701L199.499 198.981C199.599 198.81 199.818 198.754 199.987 198.86C200.157 198.962 200.214 199.185 200.11 199.356L181.416 231.076C181.358 231.174 181.262 231.231 181.162 231.246Z" fill="#BDC1D7"/>
</g>
<path d="M184.494 231.966C183.716 223.111 177.768 217.577 169 218.376C171.343 230.375 180.285 232.299 184.494 231.966Z" fill="#DCDEE8"/>
<g style="mix-blend-mode:multiply">
<path d="M184.201 231.765C184.243 231.758 184.282 231.739 184.309 231.705C184.378 231.629 184.37 231.515 184.293 231.447L170.043 219.104C169.966 219.035 169.85 219.043 169.781 219.119C169.712 219.195 169.72 219.308 169.797 219.376L184.047 231.72C184.09 231.758 184.147 231.773 184.201 231.761V231.765Z" fill="#D4D8E9"/>
</g>
<path d="M184 231.786C185.874 221.48 193.268 215.549 203.164 217.306C199.155 231.153 188.759 232.574 184 231.786Z" fill="#DCDEE8"/>
<g style="mix-blend-mode:multiply">
<path d="M184.354 231.578C184.308 231.566 184.266 231.54 184.239 231.498C184.169 231.403 184.192 231.267 184.285 231.199L201.894 218.06C201.99 217.988 202.121 218.007 202.191 218.106C202.26 218.204 202.237 218.337 202.144 218.405L184.535 231.543C184.481 231.585 184.416 231.596 184.354 231.581V231.578Z" fill="#D4D8E9"/>
</g>
</g>
</g>
<defs>
<linearGradient id="paint0_linear_572_11699" x1="216.546" y1="59.5579" x2="218.062" y2="76.4271" gradientUnits="userSpaceOnUse">
<stop stop-color="#D9804C"/>
<stop offset="0.57" stop-color="#E89C60"/>
<stop offset="1" stop-color="#F2AD6D"/>
</linearGradient>
<clipPath id="clip0_572_11699">
<rect width="79" height="182" fill="white" transform="matrix(-1 0 0 1 251 51)"/>
</clipPath>
<clipPath id="clip1_572_11699">
<rect width="36" height="35" fill="white" transform="translate(169 197)"/>
</clipPath>
</defs>
</svg>
