<svg width="264" height="234" viewBox="0 0 264 234" fill="none" xmlns="http://www.w3.org/2000/svg">
<path d="M263.866 231.392C264.045 231.376 264.045 230.632 263.866 230.616L259.496 230.244L250.754 229.567L242.013 228.942L233.271 228.37L215.789 228.399H128.379L58.4514 228L23.4875 228.399L14.746 228.981L9.08114 229.603L0.339689 230.269L0.251998 230.277C-0.0839992 230.305 -0.0839992 231.707 0.251998 231.735L0.339689 231.743L9.08114 232.409L14.746 233.031L23.4875 233.613H215.79L233.272 233.642L242.014 234L250.755 233.375L259.497 232.433L263.867 231.396L263.866 231.392Z" fill="#ECEDF1"/>
<path opacity="0.6" d="M4.53491 94.4785C0.155975 135.701 4.53493 179.845 25.6476 204.455C52.1637 235.364 146.653 232.054 178.91 225.989C232.083 215.991 249.249 202.788 254.76 180.614C263.361 146.006 264.839 86.9767 247.722 65.2539C223.482 34.4913 89.7677 16.8026 53.016 26.8007C30.8375 32.8342 10.0086 42.9511 4.53491 94.4785Z" fill="#F6F7F8"/>
<path d="M94 67.5L93.5248 67.3447V67.3447L94 67.5ZM79.5 53.5L79.2572 53.0629L79.5 53.5ZM72.5 83.5L72.9503 83.2826L72.5 83.5ZM114.5 83.5L114.177 83.1182L114.168 83.1263L114.5 83.5ZM203 58.5L203.001 52.7265L198 55.6127L203 58.5ZM55.5463 97.9979C56.0424 97.9518 56.5325 97.9028 57.0169 97.8511L56.9106 96.8567C56.431 96.908 55.9454 96.9565 55.4537 97.0022L55.5463 97.9979ZM59.9403 97.4932C60.9364 97.3547 61.9065 97.2018 62.8516 97.0334L62.6761 96.0489C61.7445 96.215 60.787 96.3659 59.8026 96.5027L59.9403 97.4932ZM65.7488 96.4499C66.7321 96.2273 67.6864 95.9845 68.6127 95.72L68.3382 94.7585C67.4308 95.0175 66.4945 95.2557 65.528 95.4745L65.7488 96.4499ZM71.4315 94.8167C72.3806 94.4768 73.2979 94.1093 74.185 93.7122L73.7764 92.7994C72.9139 93.1855 72.0205 93.5436 71.0943 93.8753L71.4315 94.8167ZM76.8442 92.3822C77.719 91.895 78.5615 91.3726 79.3735 90.8129L78.806 89.9895C78.0207 90.5308 77.2053 91.0364 76.3576 91.5086L76.8442 92.3822ZM81.7394 89.0034C82.4929 88.3655 83.2173 87.6883 83.9146 86.9699L83.197 86.2734C82.5222 86.9688 81.8216 87.6236 81.0933 88.2403L81.7394 89.0034ZM85.8852 84.7411C86.4961 83.9838 87.0842 83.1883 87.6514 82.3528L86.824 81.7911C86.2716 82.6049 85.6998 83.3783 85.1069 84.1132L85.8852 84.7411ZM89.224 79.842C89.7063 79.0086 90.1726 78.1406 90.6242 77.2367L89.7296 76.7898C89.2866 77.6764 88.83 78.5264 88.3585 79.3411L89.224 79.842ZM91.8752 74.5568C92.259 73.6775 92.632 72.7678 92.9951 71.8269L92.0621 71.4669C91.7039 72.3952 91.3364 73.2915 90.9587 74.1567L91.8752 74.5568ZM94.0044 69.0583C94.1632 68.5975 94.3201 68.1299 94.4752 67.6554L93.5248 67.3447C93.3712 67.8143 93.216 68.2768 93.059 68.7324L94.0044 69.0583ZM94.4752 67.6554C94.6226 67.2046 94.7491 66.7539 94.8552 66.3049L93.8821 66.0748C93.7824 66.4966 93.6635 66.9203 93.5248 67.3447L94.4752 67.6554ZM95.2596 63.5316C95.3129 62.5704 95.2742 61.6298 95.1499 60.7238L94.1592 60.8597C94.2746 61.7011 94.311 62.5777 94.2612 63.4762L95.2596 63.5316ZM94.4772 57.9857C94.1455 57.076 93.7158 56.2269 93.1966 55.459L92.3682 56.0191C92.8393 56.7158 93.2325 57.4913 93.5377 58.3283L94.4772 57.9857ZM91.2859 53.3417C90.5479 52.7324 89.7208 52.2396 88.8165 51.8885L88.4546 52.8208C89.2556 53.1317 89.9905 53.5689 90.6491 54.1128L91.2859 53.3417ZM86.0154 51.292C85.1115 51.2433 84.1635 51.3202 83.1799 51.5355L83.3938 52.5123C84.2943 52.3152 85.1523 52.247 85.9615 52.2906L86.0154 51.292ZM80.5132 52.4311C80.0988 52.6177 79.68 52.828 79.2572 53.0629L79.7428 53.9371C80.1421 53.7153 80.5359 53.5176 80.9238 53.3429L80.5132 52.4311ZM79.2572 53.0629C78.8287 53.301 78.4089 53.5513 77.9986 53.8139L78.5376 54.6562C78.9301 54.405 79.3321 54.1652 79.7428 53.9371L79.2572 53.0629ZM75.637 55.552C74.8866 56.1861 74.1828 56.8696 73.5329 57.6013L74.2806 58.2654C74.8977 57.5705 75.5672 56.9202 76.2824 56.3159L75.637 55.552ZM71.7513 59.9418C71.2224 60.7599 70.7537 61.6236 70.3521 62.5316L71.2667 62.9361C71.6467 62.0769 72.0903 61.2594 72.5911 60.4846L71.7513 59.9418ZM69.3765 65.308C69.1297 66.2349 68.9475 67.1984 68.8352 68.1972L69.829 68.3089C69.9358 67.3586 70.1089 66.4438 70.3428 65.5653L69.3765 65.308ZM68.709 71.1308C68.7312 72.0753 68.8124 73.0462 68.9561 74.0428L69.9458 73.9C69.8077 72.9417 69.73 72.0106 69.7087 71.1073L68.709 71.1308ZM69.5266 76.9072C69.757 77.8186 70.0375 78.7489 70.3705 79.6976L71.314 79.3664C70.9906 78.4449 70.7188 77.5433 70.4961 76.6622L69.5266 76.9072ZM71.4409 82.3989C71.633 82.8349 71.8359 83.2744 72.0497 83.7174L72.9503 83.2826C72.7413 82.8498 72.5433 82.4208 72.356 81.9957L71.4409 82.3989ZM72.0497 83.7174C72.2622 84.1575 72.4793 84.5895 72.7013 85.0129L73.587 84.5486C73.3703 84.1353 73.1582 83.7132 72.9503 83.2826L72.0497 83.7174ZM74.1452 87.5327C74.6745 88.3755 75.2284 89.1739 75.8084 89.9233L76.5992 89.3113C76.0409 88.5899 75.5056 87.8186 74.9921 87.0009L74.1452 87.5327ZM77.7332 92.1266C78.4385 92.8366 79.1781 93.481 79.9541 94.0533L80.5476 93.2485C79.8159 92.7089 79.1148 92.0985 78.4427 91.4219L77.7332 92.1266ZM82.4748 95.5873C83.3587 96.0186 84.2825 96.3646 85.2478 96.6184L85.5021 95.6512C84.6016 95.4145 83.7395 95.0917 82.9134 94.6886L82.4748 95.5873ZM88.163 97.0897C89.1103 97.1524 90.0908 97.1343 91.1057 97.0312L91.0047 96.0363C90.0426 96.134 89.1181 96.1508 88.2291 96.0919L88.163 97.0897ZM93.9923 96.5288C94.8983 96.3084 95.8291 96.0257 96.7856 95.6784L96.4442 94.7384C95.5197 95.0742 94.624 95.346 93.756 95.5571L93.9923 96.5288ZM99.4745 94.5615C100.314 94.1706 101.172 93.7328 102.05 93.2468L101.565 92.372C100.707 92.8474 99.8695 93.2745 99.0523 93.655L99.4745 94.5615ZM104.541 91.7693C105.329 91.2718 106.132 90.7374 106.95 90.165L106.377 89.3456C105.571 89.9095 104.782 90.4351 104.007 90.9237L104.541 91.7693ZM109.273 88.4686C110.014 87.9047 110.768 87.3109 111.534 86.6866L110.902 85.9116C110.144 86.5291 109.4 87.1158 108.668 87.6726L109.273 88.4686ZM113.737 84.8343C114.099 84.5207 114.465 84.2005 114.832 83.8737L114.168 83.1263C113.803 83.4502 113.442 83.7675 113.083 84.0781L113.737 84.8343ZM114.5 83.5C114.823 83.8817 114.823 83.8817 114.823 83.8817C114.823 83.8817 114.823 83.8817 114.823 83.8817C114.823 83.8817 114.823 83.8817 114.823 83.8817C114.823 83.8816 114.823 83.8816 114.823 83.8815C114.823 83.8813 114.824 83.8811 114.824 83.8808C114.825 83.8802 114.826 83.8792 114.827 83.8779C114.83 83.8753 114.835 83.8715 114.841 83.8663C114.853 83.856 114.872 83.8405 114.896 83.8199C114.945 83.7788 115.018 83.7176 115.114 83.6371C115.305 83.4762 115.59 83.2384 115.959 82.9314L115.32 82.1623C114.949 82.4704 114.664 82.7091 114.471 82.871C114.374 82.9519 114.301 83.0137 114.252 83.0552C114.227 83.076 114.209 83.0917 114.196 83.1022C114.19 83.1075 114.185 83.1115 114.182 83.1142C114.18 83.1155 114.179 83.1166 114.178 83.1172C114.178 83.1176 114.178 83.1178 114.177 83.118C114.177 83.1181 114.177 83.1182 114.177 83.1182C114.177 83.1182 114.177 83.1183 114.177 83.1183C114.177 83.1183 114.177 83.1183 114.177 83.1183C114.177 83.1183 114.177 83.1183 114.5 83.5ZM118.287 81.0137C118.977 80.4493 119.76 79.8134 120.623 79.1167L119.996 78.3383C119.13 79.0365 118.346 79.6738 117.654 80.2394L118.287 81.0137ZM122.986 77.2229C123.732 76.629 124.518 76.006 125.341 75.3584L124.723 74.5725C123.898 75.2214 123.11 75.8456 122.363 76.4406L122.986 77.2229ZM127.72 73.499C128.493 72.898 129.291 72.2815 130.111 71.6524L129.503 70.859C128.681 71.4893 127.881 72.1071 127.106 72.7093L127.72 73.499ZM132.51 69.8242C133.297 69.2285 134.1 68.6247 134.917 68.0149L134.319 67.2136C133.5 67.8247 132.695 68.4299 131.907 69.0269L132.51 69.8242ZM137.337 66.2213C138.139 65.6318 138.951 65.0391 139.772 64.4451L139.185 63.635C138.363 64.2306 137.548 64.8248 136.745 65.4157L137.337 66.2213ZM142.22 62.688C143.035 62.1081 143.857 61.5288 144.683 60.9519L144.111 60.132C143.282 60.7106 142.458 61.2916 141.64 61.8732L142.22 62.688ZM147.162 59.239C147.991 58.6717 148.824 58.1087 149.657 57.5517L149.102 56.7203C148.265 57.2793 147.43 57.8443 146.597 58.4135L147.162 59.239ZM152.172 55.8931C153.018 55.3422 153.863 54.7995 154.706 54.2669L154.172 53.4215C153.325 53.9567 152.476 54.5019 151.626 55.0551L152.172 55.8931ZM157.263 52.6776C158.129 52.1487 158.991 51.6326 159.845 51.1315L159.339 50.2689C158.479 50.7732 157.613 51.2923 156.742 51.8242L157.263 52.6776ZM162.456 49.6365C163.347 49.1386 164.229 48.6602 165.098 48.2037L164.633 47.3185C163.756 47.7792 162.867 48.2617 161.968 48.7634L162.456 49.6365ZM167.774 46.8491C168.698 46.4003 169.603 45.9815 170.486 45.5959L170.085 44.6795C169.189 45.071 168.272 45.4955 167.337 45.9496L167.774 46.8491ZM173.267 44.4664C173.739 44.2902 174.203 44.1261 174.658 43.9744L174.342 43.0257C173.875 43.1813 173.4 43.3494 172.917 43.5293L173.267 44.4664ZM174.658 43.9744C175.163 43.8061 175.656 43.649 176.138 43.5027L175.848 42.5458C175.357 42.6948 174.855 42.8547 174.342 43.0257L174.658 43.9744ZM179.112 42.7022C180.177 42.4553 181.178 42.2695 182.121 42.1401L181.984 41.1494C181.009 41.2833 179.978 41.4749 178.886 41.7281L179.112 42.7022ZM185.154 41.9097C186.245 41.9018 187.239 41.9851 188.151 42.1475L188.327 41.163C187.349 40.9889 186.293 40.9014 185.147 40.9097L185.154 41.9097ZM191.004 43.0094C191.941 43.4266 192.776 43.9517 193.536 44.5657L194.164 43.7881C193.342 43.1229 192.432 42.5508 191.411 42.0959L191.004 43.0094ZM195.644 46.6986C196.266 47.4666 196.839 48.304 197.384 49.1937L198.237 48.6711C197.675 47.7547 197.078 46.8794 196.42 46.0688L195.644 46.6986ZM198.895 51.8755C199.371 52.7757 199.837 53.697 200.319 54.6344L201.209 54.1771C200.73 53.2471 200.258 52.315 199.779 51.4084L198.895 51.8755Z" fill="#B4BAC8"/>
<path d="M164.496 23.261L164.045 115.978C164.023 120.428 159.857 124.02 154.74 124H112.415C107.301 123.98 102.978 120.187 103 115.739L103.167 81.3085L103.256 62.9954L103.451 23.0225C103.472 18.5717 107.639 14.9793 112.756 15.0001L155.276 15.1706C160.39 15.1914 164.517 18.8127 164.496 23.2606V23.261Z" fill="#3A4C51"/>
<path d="M155.214 19.0593L112.778 18.8887C109.195 18.8746 106.277 21.3898 106.262 24.5071L105.822 115.005C105.807 118.121 108.698 120.657 112.279 120.671L154.714 120.841C158.298 120.856 161.216 118.34 161.231 115.223L161.671 24.7249C161.686 21.6097 158.795 19.0738 155.214 19.0593Z" fill="white"/>
<path d="M164.787 30.2802H163.924C163.618 30.2802 163.37 30.5281 163.37 30.8341V40.6364C163.37 40.9423 163.618 41.1903 163.924 41.1903H164.787C165.093 41.1903 165.341 40.9423 165.341 40.6364V30.8341C165.341 30.5281 165.093 30.2802 164.787 30.2802Z" fill="#3A4C51"/>
<path d="M164.787 44.735H163.924C163.618 44.735 163.37 44.983 163.37 45.2889V55.0913C163.37 55.3972 163.618 55.6452 163.924 55.6452H164.787C165.093 55.6452 165.341 55.3972 165.341 55.0913V45.2889C165.341 44.983 165.093 44.735 164.787 44.735Z" fill="#3A4C51"/>
<path d="M137.286 17.7631H130.018C129.607 17.7631 129.27 17.4419 129.27 17.0498C129.27 16.6578 129.606 16.3366 130.018 16.3366H137.286C137.697 16.3366 138.034 16.6578 138.034 17.0498C138.034 17.4419 137.697 17.7631 137.286 17.7631Z" fill="#403D40"/>
<path d="M116.581 25.4294H111.71C111.572 25.4294 111.46 25.3174 111.46 25.1792C111.46 25.041 111.572 24.929 111.71 24.929H116.581C116.719 24.929 116.832 25.041 116.832 25.1792C116.832 25.3174 116.719 25.4294 116.581 25.4294Z" fill="#A3A3A3"/>
<path d="M116.581 27.2745H111.71C111.572 27.2745 111.46 27.1625 111.46 27.0243C111.46 26.8861 111.572 26.7741 111.71 26.7741H116.581C116.719 26.7741 116.832 26.8861 116.832 27.0243C116.832 27.1625 116.719 27.2745 116.581 27.2745Z" fill="#A3A3A3"/>
<path d="M116.581 29.1192H111.71C111.572 29.1192 111.46 29.0071 111.46 28.869C111.46 28.7308 111.572 28.6188 111.71 28.6188H116.581C116.719 28.6188 116.832 28.7308 116.832 28.869C116.832 29.0071 116.719 29.1192 116.581 29.1192Z" fill="#A3A3A3"/>
<g opacity="0.72">
<path d="M154.326 30.3752H130.47C129.044 30.3752 127.884 29.2164 127.884 27.792V26.2564C127.884 24.832 129.044 23.6731 130.47 23.6731H154.326C155.752 23.6731 156.912 24.832 156.912 26.2564V27.792C156.912 29.2164 155.752 30.3752 154.326 30.3752ZM130.47 24.0544C129.254 24.0544 128.266 25.0423 128.266 26.2564V27.792C128.266 29.006 129.254 29.9939 130.47 29.9939H154.326C155.541 29.9939 156.53 29.006 156.53 27.792V26.2564C156.53 25.0423 155.541 24.0544 154.326 24.0544H130.47Z" fill="#B2B2B2"/>
</g>
<path d="M153.702 27.8698C153.99 28.1495 154.277 28.4183 154.55 28.7005C154.624 28.776 154.694 28.8921 154.694 28.9901C154.695 29.0726 154.61 29.1896 154.531 29.2282C154.469 29.2589 154.335 29.2203 154.275 29.166C154.017 28.9303 153.764 28.6864 153.529 28.4274C153.382 28.2656 153.269 28.2387 153.067 28.3528C152.275 28.7996 151.32 28.6154 150.738 27.9275C150.15 27.2325 150.131 26.2579 150.691 25.5309C151.229 24.833 152.211 24.609 153.011 25.0007C153.981 25.4749 154.442 26.7782 153.702 27.8702V27.8698ZM152.201 25.2853C151.442 25.2733 150.777 25.9106 150.762 26.6628C150.747 27.4387 151.405 28.1175 152.177 28.1246C152.958 28.1316 153.594 27.4993 153.6 26.7105C153.605 25.9653 152.949 25.2973 152.201 25.2857V25.2853Z" fill="#B2B2B2"/>
<path opacity="0.78" d="M114.377 34.9952H153.292C155.29 34.9952 156.912 36.6159 156.912 38.6116V55.8335C156.912 57.8297 155.29 59.4499 153.292 59.4499H114.377C112.379 59.4499 110.757 57.8293 110.757 55.8335V38.6116C110.757 36.6155 112.379 34.9952 114.377 34.9952Z" fill="#EBEBEB"/>
<path d="M148.697 51.0421C147.856 51.4392 146.582 51.4894 146.582 51.4894C146.582 51.4894 146.559 51.4894 146.516 51.4885C146.582 51.2305 146.616 50.9587 146.614 50.6786C146.599 48.9688 145.241 47.6054 143.573 47.6232C141.926 47.6406 140.595 49.0148 140.595 50.7073C140.595 50.9575 140.625 51.2006 140.68 51.4338C136.174 51.3898 130 51.3251 125.53 51.2608C125.562 51.0811 125.58 50.8965 125.58 50.7073C125.58 49.2862 124.642 48.09 123.367 47.7323C123.292 47.7116 123.217 47.6933 123.141 47.6784C123.077 47.6659 123.013 47.6556 122.948 47.6473C122.883 47.639 122.817 47.6323 122.75 47.6286C122.735 47.6273 122.719 47.6265 122.704 47.6261C122.698 47.6261 122.691 47.6257 122.686 47.6253C122.673 47.6249 122.661 47.6244 122.648 47.624C122.636 47.624 122.625 47.6236 122.614 47.6232C122.61 47.6232 122.605 47.6232 122.6 47.6232C122.59 47.6232 122.58 47.6232 122.57 47.6232C122.271 47.6232 121.983 47.668 121.71 47.751C121.686 47.758 121.663 47.7659 121.64 47.7734C121.628 47.7771 121.616 47.7813 121.604 47.7854C121.581 47.7933 121.558 47.802 121.535 47.8103C121.477 47.8319 121.421 47.8555 121.365 47.8804C121.342 47.8904 121.32 47.9008 121.298 47.9116C121.276 47.9219 121.254 47.9331 121.232 47.9439C121.21 47.9547 121.189 47.9663 121.167 47.9779C121.081 48.0244 120.998 48.075 120.917 48.1294C120.897 48.1431 120.877 48.1568 120.858 48.1709C120.838 48.185 120.818 48.1991 120.799 48.214C120.779 48.2286 120.76 48.2435 120.74 48.2584C120.721 48.2734 120.702 48.2887 120.684 48.3041C120.665 48.3194 120.646 48.3352 120.628 48.3514C120.582 48.3912 120.537 48.4323 120.493 48.475C120.476 48.492 120.458 48.5095 120.442 48.5269C120.416 48.553 120.391 48.5796 120.367 48.607C120.35 48.6248 120.334 48.6431 120.318 48.6617C120.054 48.9663 119.849 49.3248 119.719 49.7189C119.713 49.7372 119.707 49.7554 119.701 49.7737C119.698 49.7853 119.694 49.7965 119.691 49.8081C119.686 49.8268 119.68 49.8451 119.675 49.8637C119.668 49.8882 119.662 49.9127 119.655 49.9372C119.649 49.9621 119.643 49.9866 119.638 50.0114C119.635 50.0239 119.632 50.0363 119.63 50.0492C119.621 50.089 119.613 50.1293 119.606 50.1695C119.602 50.1965 119.598 50.2235 119.593 50.2504C119.591 50.2641 119.59 50.2778 119.588 50.2911C119.57 50.4276 119.561 50.5666 119.561 50.7081C119.561 50.7205 119.561 50.7292 119.559 50.7371C119.559 50.7425 119.558 50.7483 119.557 50.7537C119.556 50.762 119.554 50.7699 119.552 50.7778C119.541 50.8234 119.517 50.8629 119.486 50.8936C119.485 50.8952 119.483 50.8965 119.482 50.8977C119.472 50.9072 119.461 50.916 119.449 50.9234C119.439 50.9301 119.429 50.9359 119.419 50.9409C119.382 50.9583 119.342 50.967 119.301 50.9641C119.296 50.9641 119.291 50.9633 119.286 50.9624C119.278 50.9616 119.271 50.9599 119.263 50.9583C119.258 50.957 119.253 50.9558 119.248 50.9541C119.246 50.9533 119.244 50.9529 119.242 50.9521C119.235 50.95 119.228 50.9475 119.222 50.9446C119.213 50.9409 119.205 50.9363 119.196 50.9313C119.191 50.928 119.185 50.9247 119.18 50.9214C119.174 50.918 119.169 50.9147 119.163 50.911C119.161 50.9093 119.158 50.9077 119.155 50.906C119.147 50.901 119.139 50.896 119.131 50.8907C119.118 50.8815 119.104 50.8724 119.091 50.8629C119.079 50.8546 119.071 50.8483 119.062 50.8421C119.058 50.8396 119.055 50.8371 119.052 50.8342C119.039 50.8247 119.026 50.8147 119.014 50.8048C118.884 50.7015 118.77 50.5782 118.678 50.4396C118.542 50.2372 118.463 50.0048 118.441 49.7658C118.424 49.577 118.442 49.3841 118.497 49.1986C118.699 48.5095 120.37 42.7326 120.451 42.4787C120.452 42.477 120.452 42.4749 120.453 42.4733C120.503 42.382 120.556 42.2878 120.614 42.1886C120.642 42.1451 120.669 42.1019 120.695 42.0584C120.698 42.0521 120.702 42.0463 120.706 42.0401C120.718 42.0206 120.73 42.0007 120.742 41.9808C120.759 41.9521 120.776 41.9231 120.793 41.894C120.809 41.8679 120.824 41.8422 120.839 41.816C120.846 41.8032 120.854 41.7899 120.862 41.777C120.866 41.7692 120.871 41.7613 120.876 41.7538C120.878 41.7497 120.881 41.7459 120.883 41.7418C120.886 41.7368 120.89 41.7318 120.893 41.7268C120.895 41.7231 120.897 41.7194 120.9 41.7156C120.906 41.7061 120.912 41.6982 120.917 41.6903C120.922 41.6829 120.927 41.675 120.933 41.6675C120.937 41.6613 120.942 41.6546 120.946 41.6484C120.949 41.6447 120.952 41.6405 120.955 41.6368C120.965 41.6239 120.974 41.6119 120.984 41.5995C120.988 41.5945 120.992 41.5895 120.996 41.5849C120.998 41.582 121.001 41.5791 121.003 41.5766C121.007 41.5729 121.01 41.5692 121.013 41.5654C121.023 41.5538 121.031 41.5443 121.04 41.5347C121.044 41.5306 121.047 41.5264 121.051 41.5227C121.055 41.5181 121.06 41.5132 121.064 41.5086C121.069 41.504 121.073 41.4995 121.077 41.4953C121.079 41.4932 121.081 41.4916 121.083 41.4899C121.084 41.4878 121.086 41.4862 121.088 41.4845C121.09 41.4829 121.091 41.4808 121.093 41.4791C121.101 41.4717 121.108 41.4638 121.116 41.4567C121.124 41.4493 121.132 41.4418 121.139 41.4347C121.147 41.4277 121.154 41.4202 121.162 41.4132C121.17 41.4061 121.178 41.3991 121.186 41.3924C121.193 41.3858 121.201 41.3787 121.209 41.3725C121.219 41.3646 121.228 41.3563 121.238 41.3484C121.245 41.343 121.251 41.3381 121.258 41.3327C121.264 41.3277 121.27 41.3231 121.276 41.3181C121.282 41.3136 121.289 41.3086 121.295 41.304C121.301 41.2995 121.307 41.2949 121.314 41.2903C121.326 41.2812 121.339 41.2721 121.352 41.2634C121.362 41.2567 121.372 41.2497 121.382 41.2435C121.635 41.0763 121.928 40.975 122.23 40.9389C128.766 40.1605 132.272 40.6111 133.738 41.0198C134.327 41.1841 134.845 41.3754 135.317 41.6019C136.401 42.1214 137.938 43.1156 138.826 43.7603C138.942 43.8454 139.054 43.9263 139.157 44.0031C139.335 44.1338 139.679 44.291 140.069 44.4449C140.853 44.7541 146.592 45.642 148.093 46.5266C148.099 46.5299 148.105 46.5336 148.111 46.5369C148.156 46.5635 148.196 46.5867 148.235 46.6087C148.395 46.6983 148.458 46.8282 148.663 47.0743C148.709 47.1303 148.931 47.8095 148.935 47.8435C149.059 48.8223 148.986 50.389 149.045 50.5737C149.047 50.5774 149.048 50.5811 149.049 50.5849C149.116 50.7844 148.885 50.9533 148.697 51.0417V51.0421Z" fill="#4B5E63"/>
<path d="M145.285 52.5272C146.216 51.5971 146.216 50.0892 145.285 49.1591C144.354 48.229 142.845 48.229 141.914 49.1591C140.983 50.0892 140.983 51.5971 141.914 52.5272C142.845 53.4573 144.354 53.4573 145.285 52.5272Z" fill="#324347"/>
<path d="M143.605 49.4128C142.814 49.4107 142.168 50.0513 142.167 50.8401C142.166 51.6276 142.807 52.2724 143.592 52.2736C144.385 52.2749 145.03 51.6351 145.031 50.8463C145.031 50.0588 144.391 49.4148 143.605 49.4124V49.4128Z" fill="white"/>
<path d="M124.778 51.7547C125.281 50.5395 124.704 49.1463 123.488 48.643C122.271 48.1396 120.877 48.7167 120.373 49.9319C119.869 51.1471 120.447 52.5403 121.663 53.0436C122.879 53.547 124.274 52.9699 124.778 51.7547Z" fill="#324347"/>
<path d="M122.582 49.4128C121.79 49.4107 121.145 50.0513 121.144 50.8401C121.142 51.6276 121.783 52.2724 122.568 52.2736C123.361 52.2749 124.006 51.6351 124.007 50.8463C124.008 50.0588 123.367 49.4148 122.582 49.4124V49.4128Z" fill="white"/>
<path d="M138.473 45.5139C138.375 44.7065 137.112 43.953 137.051 43.9173C135.751 42.9543 133.734 41.6423 131.791 41.5597C129.116 41.4465 125.627 41.3967 123.051 41.7315C122.851 41.7572 122.656 41.8236 122.485 41.9415C122.054 42.2356 121.887 42.6456 121.96 43.0609C122.023 43.4132 122.257 43.7185 122.586 43.897L123.462 44.3708C123.885 44.4932 123.924 44.6621 124.771 44.8143C128.116 45.416 138.045 45.9632 138.045 45.9632C138.148 45.9653 138.278 45.8894 138.353 45.8205C138.439 45.7413 138.488 45.6284 138.473 45.5139Z" fill="white"/>
<path d="M128.681 41.0403L129.307 46.6172H130.049H130.322L129.502 41.0403H128.681Z" fill="#41545B"/>
<g opacity="0.52">
<path d="M121.234 65.4418H113.795C113.699 65.4418 113.622 65.3646 113.622 65.2696C113.622 65.1746 113.699 65.0974 113.795 65.0974H121.234C121.329 65.0974 121.406 65.1746 121.406 65.2696C121.406 65.3646 121.329 65.4418 121.234 65.4418Z" fill="#41545B"/>
<path d="M121.234 67.1441H113.795C113.699 67.1441 113.622 67.0669 113.622 66.9719C113.622 66.8769 113.699 66.7997 113.795 66.7997H121.234C121.329 66.7997 121.406 66.8769 121.406 66.9719C121.406 67.0669 121.329 67.1441 121.234 67.1441Z" fill="#41545B"/>
<path d="M124.603 63.7123H113.795C113.699 63.7123 113.622 63.6351 113.622 63.5401C113.622 63.4451 113.699 63.3679 113.795 63.3679H124.603C124.698 63.3679 124.776 63.4451 124.776 63.5401C124.776 63.6351 124.698 63.7123 124.603 63.7123Z" fill="#41545B"/>
</g>
<path opacity="0.78" d="M111.459 63.1318H110.757V67.4349H111.459V63.1318Z" fill="#EBEBEB"/>
<g opacity="0.52">
<path d="M145.519 65.4418H138.08C137.985 65.4418 137.907 65.3646 137.907 65.2696C137.907 65.1746 137.985 65.0974 138.08 65.0974H145.519C145.614 65.0974 145.691 65.1746 145.691 65.2696C145.691 65.3646 145.614 65.4418 145.519 65.4418Z" fill="#41545B"/>
<path d="M145.519 67.1441H138.08C137.985 67.1441 137.907 67.0669 137.907 66.9719C137.907 66.8769 137.985 66.7997 138.08 66.7997H145.519C145.614 66.7997 145.691 66.8769 145.691 66.9719C145.691 67.0669 145.614 67.1441 145.519 67.1441Z" fill="#41545B"/>
<path d="M148.888 63.7123H138.08C137.985 63.7123 137.907 63.6351 137.907 63.5401C137.907 63.4451 137.985 63.3679 138.08 63.3679H148.888C148.984 63.3679 149.061 63.4451 149.061 63.5401C149.061 63.6351 148.984 63.7123 148.888 63.7123Z" fill="#41545B"/>
</g>
<path opacity="0.78" d="M135.745 63.1318H135.042V67.4349H135.745V63.1318Z" fill="#EBEBEB"/>
<path opacity="0.78" d="M154.737 70.202H136.914C135.885 70.202 135.042 71.0099 135.042 71.9974V74.9333C135.042 75.9208 135.885 76.7286 136.914 76.7286H154.737C155.766 76.7286 156.608 75.9208 156.608 74.9333V71.9974C156.608 71.0099 155.766 70.202 154.737 70.202Z" fill="#EBEBEB"/>
<path opacity="0.78" d="M130.318 70.202H112.494C111.465 70.202 110.623 71.0099 110.623 71.9974V74.9333C110.623 75.9208 111.465 76.7286 112.494 76.7286H130.318C131.347 76.7286 132.189 75.9208 132.189 74.9333V71.9974C132.189 71.0099 131.347 70.202 130.318 70.202Z" fill="#EBEBEB"/>
<path opacity="0.78" d="M153.015 82.9948H114.099C112.1 82.9948 110.479 84.6139 110.479 86.6112V103.833C110.479 105.83 112.1 107.449 114.099 107.449H153.015C155.014 107.449 156.634 105.83 156.634 103.833V86.6112C156.634 84.6139 155.014 82.9948 153.015 82.9948Z" fill="#EBEBEB"/>
<path d="M149.135 99.2475C148.323 99.6304 147.095 99.679 147.095 99.679C147.095 99.679 147.072 99.679 147.031 99.6786C147.094 99.4296 147.127 99.1678 147.125 98.8973C147.111 97.248 145.801 95.9327 144.192 95.9497C142.603 95.9663 141.32 97.292 141.32 98.9247C141.32 99.1661 141.348 99.4006 141.402 99.6255C137.055 99.5827 131.099 99.5205 126.788 99.4587C126.819 99.2852 126.836 99.1072 126.836 98.9247C126.836 97.5542 125.932 96.3999 124.701 96.0547C124.63 96.0348 124.557 96.0174 124.484 96.0028C124.423 95.9908 124.361 95.9808 124.298 95.9725C124.235 95.9642 124.171 95.9584 124.107 95.9547C124.092 95.9539 124.078 95.953 124.063 95.9522C124.057 95.9522 124.051 95.9518 124.045 95.9514C124.033 95.951 124.021 95.9506 124.009 95.9501C123.997 95.9497 123.987 95.9497 123.976 95.9493C123.972 95.9493 123.968 95.9493 123.963 95.9493C123.953 95.9493 123.943 95.9493 123.933 95.9493C123.645 95.9493 123.367 95.9925 123.104 96.0725C123.081 96.0796 123.058 96.0866 123.036 96.0941C123.025 96.0978 123.013 96.1016 123.002 96.1057C122.98 96.1136 122.957 96.1215 122.935 96.1298C122.879 96.1505 122.825 96.1734 122.771 96.1974C122.749 96.207 122.727 96.2169 122.706 96.2273C122.685 96.2377 122.664 96.248 122.643 96.2588C122.622 96.2696 122.601 96.2804 122.58 96.2916C122.497 96.3364 122.417 96.3854 122.339 96.4377C122.319 96.4509 122.3 96.4642 122.281 96.4779C122.262 96.4916 122.243 96.5053 122.224 96.5194C122.206 96.5335 122.187 96.5476 122.168 96.5621C122.15 96.5767 122.131 96.5912 122.113 96.6061C122.095 96.6211 122.077 96.6364 122.06 96.6518C122.015 96.6903 121.972 96.7302 121.93 96.7708C121.914 96.7874 121.897 96.804 121.88 96.8206C121.856 96.8459 121.831 96.8717 121.808 96.8978C121.792 96.9152 121.776 96.9327 121.761 96.9505C121.507 97.2443 121.308 97.5899 121.183 97.9704C121.177 97.9878 121.171 98.0056 121.166 98.0231C121.162 98.0343 121.159 98.045 121.156 98.0562C121.15 98.0741 121.145 98.0919 121.14 98.1102C121.134 98.1338 121.127 98.1575 121.122 98.1811C121.115 98.2048 121.11 98.2289 121.105 98.2529C121.102 98.2649 121.099 98.277 121.097 98.289C121.088 98.3276 121.081 98.3662 121.074 98.4052C121.07 98.4313 121.066 98.4571 121.062 98.4836C121.06 98.4969 121.058 98.5097 121.056 98.523C121.039 98.6546 121.03 98.789 121.03 98.9251C121.03 98.9371 121.03 98.9454 121.029 98.9533C121.029 98.9587 121.028 98.9641 121.027 98.9691C121.026 98.9769 121.024 98.9848 121.022 98.9923C121.011 99.0363 120.988 99.0744 120.958 99.1039C120.957 99.1052 120.956 99.1068 120.954 99.1081C120.945 99.1172 120.934 99.1255 120.923 99.1329C120.914 99.1392 120.904 99.145 120.894 99.15C120.859 99.167 120.82 99.1749 120.78 99.1724C120.775 99.1724 120.77 99.1715 120.765 99.1711C120.758 99.1703 120.751 99.1686 120.744 99.1674C120.739 99.1661 120.734 99.1649 120.729 99.1632C120.727 99.1624 120.725 99.162 120.723 99.1612C120.717 99.1591 120.711 99.1566 120.704 99.1537C120.696 99.15 120.688 99.1458 120.679 99.1413C120.674 99.1379 120.669 99.135 120.663 99.1317C120.658 99.1284 120.652 99.1251 120.647 99.1217C120.645 99.1201 120.642 99.1184 120.64 99.1168C120.632 99.1118 120.624 99.1072 120.616 99.1018C120.603 99.0931 120.59 99.0844 120.577 99.0749C120.566 99.067 120.557 99.0612 120.549 99.0549C120.546 99.0525 120.542 99.05 120.539 99.0471C120.527 99.0379 120.515 99.028 120.502 99.0184C120.377 98.9189 120.268 98.8002 120.178 98.6662C120.048 98.4707 119.971 98.2467 119.95 98.0164C119.934 97.8343 119.951 97.6484 120.004 97.4696C120.199 96.8049 120.637 95.283 120.637 94.9892C120.637 94.9892 120.94 94.02 121.25 93.0254C121.279 92.9325 121.309 92.8391 121.338 92.7462C121.58 91.9699 121.811 91.2321 121.889 90.9873C121.889 90.9857 121.89 90.984 121.89 90.9824C121.939 90.8944 121.99 90.8031 122.046 90.7081C122.073 90.6662 122.099 90.6243 122.124 90.5824C122.128 90.5766 122.132 90.5708 122.135 90.565C122.147 90.5459 122.158 90.5268 122.169 90.5077C122.186 90.4799 122.203 90.4521 122.219 90.4239C122.234 90.399 122.248 90.3737 122.263 90.3488C122.27 90.3363 122.277 90.3235 122.285 90.311C122.289 90.3036 122.294 90.2961 122.299 90.2886C122.301 90.2849 122.303 90.2812 122.306 90.277C122.308 90.272 122.312 90.2675 122.315 90.2625C122.317 90.2588 122.319 90.2554 122.322 90.2517C122.328 90.2426 122.333 90.2351 122.338 90.2276C122.343 90.2202 122.348 90.2131 122.353 90.2056C122.357 90.1994 122.362 90.1936 122.367 90.1874C122.37 90.1836 122.372 90.1799 122.375 90.1762C122.384 90.1641 122.394 90.1521 122.403 90.1405C122.407 90.1359 122.411 90.131 122.415 90.1264C122.417 90.1235 122.419 90.121 122.421 90.1185C122.425 90.1148 122.428 90.111 122.431 90.1077C122.44 90.0965 122.448 90.0874 122.457 90.0783C122.46 90.0745 122.464 90.0704 122.468 90.0666C122.472 90.0621 122.476 90.0575 122.48 90.053C122.484 90.0488 122.488 90.0442 122.492 90.0401C122.494 90.0384 122.496 90.0364 122.497 90.0347C122.499 90.0326 122.501 90.031 122.503 90.0293C122.504 90.0276 122.506 90.026 122.508 90.0239C122.515 90.0164 122.522 90.0094 122.53 90.0023C122.537 89.9953 122.545 89.9882 122.552 89.9812C122.559 89.9741 122.567 89.9675 122.574 89.9604C122.582 89.9534 122.589 89.9467 122.597 89.9401C122.604 89.9335 122.612 89.9272 122.62 89.9206C122.629 89.9127 122.638 89.9052 122.647 89.8974C122.654 89.8924 122.66 89.887 122.666 89.882C122.672 89.8774 122.678 89.8729 122.684 89.8683C122.691 89.8638 122.696 89.8592 122.702 89.8546C122.708 89.8501 122.714 89.8459 122.72 89.8413C122.732 89.8326 122.745 89.8239 122.757 89.8156C122.766 89.809 122.776 89.8028 122.785 89.7961C123.03 89.6347 123.312 89.5372 123.603 89.5024C129.909 88.7518 133.29 89.1862 134.704 89.5804C135.273 89.7389 135.772 89.9235 136.228 90.1422C137.273 90.6434 138.756 91.6022 139.612 92.2242C139.725 92.3064 139.832 92.3844 139.932 92.4582C140.104 92.5843 140.435 92.7358 140.811 92.8843C141.568 93.1827 147.104 94.039 148.552 94.8921C148.558 94.8954 148.564 94.8987 148.569 94.9021C148.612 94.9278 148.651 94.9498 148.689 94.9714C148.843 95.0581 148.904 95.1834 149.101 95.4207C149.146 95.4746 149.36 96.1298 149.364 96.163C149.484 97.1073 149.413 98.6185 149.471 98.7965C149.472 98.8002 149.473 98.8035 149.474 98.8072C149.539 98.9998 149.315 99.1628 149.135 99.2479L149.135 99.2475Z" fill="url(#paint0_linear_566_10912)"/>
<path d="M124.311 95.9836C124.247 95.9753 124.182 95.9686 124.116 95.9649C124.101 95.9641 124.087 95.9632 124.072 95.9624C124.066 95.9624 124.06 95.962 124.054 95.9616C124.042 95.9612 124.03 95.9607 124.018 95.9603C124.007 95.9599 123.996 95.9599 123.985 95.9595C123.981 95.9595 123.977 95.9595 123.972 95.9595C123.962 95.9595 123.953 95.9595 123.943 95.9595C123.654 95.9595 123.376 96.0027 123.114 96.0827C123.091 96.0898 123.068 96.0968 123.046 96.1043C123.034 96.108 123.023 96.1118 123.012 96.1159C122.989 96.1238 122.967 96.1317 122.945 96.14C122.889 96.1607 122.835 96.1836 122.781 96.2076C122.759 96.2172 122.737 96.2271 122.716 96.2375C122.695 96.2479 122.674 96.2582 122.653 96.269C122.632 96.2798 122.611 96.2906 122.59 96.3018C122.507 96.3466 122.427 96.3956 122.349 96.4479C122.329 96.4611 122.31 96.4744 122.291 96.4881C122.272 96.5018 122.253 96.5155 122.234 96.5296C122.215 96.5437 122.197 96.5578 122.178 96.5723C122.16 96.5869 122.141 96.6014 122.123 96.6163C122.105 96.6313 122.087 96.6466 122.07 96.662C122.025 96.7005 121.982 96.74 121.94 96.781C121.923 96.7976 121.907 96.8142 121.89 96.8308C121.866 96.8561 121.841 96.8819 121.818 96.908C121.802 96.9254 121.786 96.9428 121.771 96.9607C121.517 97.2545 121.318 97.6001 121.193 97.9805C121.187 97.998 121.181 98.0158 121.176 98.0332C121.172 98.0444 121.169 98.0552 121.166 98.0664C121.16 98.0843 121.155 98.1021 121.15 98.1204C121.144 98.144 121.137 98.1677 121.132 98.1913C121.126 98.2154 121.12 98.239 121.115 98.2631C121.112 98.2751 121.109 98.2872 121.107 98.2992C121.098 98.3378 121.091 98.3764 121.084 98.4154C121.08 98.4415 121.076 98.4673 121.072 98.4938C121.07 98.5071 121.068 98.5199 121.066 98.5332C121.049 98.6647 121.04 98.7988 121.04 98.9353C121.04 98.9473 121.04 98.9556 121.039 98.9635C121.039 98.9689 121.038 98.9743 121.037 98.9793C121.036 98.9871 121.034 98.995 121.032 99.0025C121.021 99.0465 120.998 99.0846 120.968 99.1141C120.967 99.1153 120.965 99.117 120.964 99.1182C120.955 99.1274 120.944 99.1357 120.933 99.1431C120.924 99.1494 120.914 99.1552 120.904 99.1602C120.869 99.1772 120.83 99.1851 120.79 99.1826C120.785 99.1826 120.78 99.1817 120.775 99.1813C120.768 99.1805 120.761 99.1788 120.754 99.1772C120.749 99.1759 120.744 99.1747 120.739 99.1734C120.737 99.1726 120.735 99.1722 120.733 99.1714C120.727 99.1693 120.72 99.1668 120.714 99.1639C120.706 99.1602 120.698 99.156 120.689 99.151C120.684 99.1477 120.678 99.1448 120.673 99.1415C120.668 99.1382 120.662 99.1348 120.657 99.1315C120.647 99.1249 120.637 99.1187 120.627 99.112C120.613 99.1033 120.6 99.0946 120.587 99.0851C120.576 99.0772 120.568 99.0714 120.56 99.0651C120.556 99.0626 120.553 99.0602 120.549 99.0577C120.22 98.8096 120.012 98.4336 119.96 98.027C119.939 97.8544 119.946 97.676 119.983 97.4997C120.064 97.1179 120.22 96.3993 120.419 95.5682C120.577 94.9064 120.762 94.1737 120.956 93.4833C120.964 93.4551 120.972 93.4269 120.98 93.3991C120.987 93.3754 120.994 93.3513 121 93.3277C121.007 93.3053 121.013 93.2841 121.019 93.263C121.024 93.2468 121.028 93.2306 121.033 93.2148C121.155 92.7949 121.279 92.3966 121.404 92.0477C121.486 91.8319 121.583 91.6104 121.705 91.3647C121.767 91.232 121.828 91.1166 121.887 91.0187C121.892 91.0104 121.896 91.0021 121.901 90.9934C121.949 90.9054 122.001 90.8141 122.056 90.7191C122.083 90.6772 122.109 90.6353 122.134 90.5934C122.138 90.5876 122.142 90.5818 122.145 90.576C122.157 90.5569 122.168 90.5378 122.18 90.5187C122.196 90.4909 122.213 90.4631 122.229 90.4349C122.244 90.41 122.259 90.3847 122.273 90.3598C122.281 90.3474 122.288 90.3345 122.295 90.3221C122.3 90.3146 122.304 90.3071 122.309 90.2996C122.311 90.2959 122.313 90.2922 122.316 90.288C122.319 90.2831 122.322 90.2785 122.325 90.2735C122.327 90.2698 122.33 90.2665 122.332 90.2627C122.338 90.2536 122.343 90.2461 122.348 90.2387C122.353 90.2312 122.358 90.2241 122.364 90.2167C122.368 90.2104 122.372 90.2046 122.377 90.1984C122.38 90.1947 122.383 90.1909 122.385 90.1872C122.394 90.1752 122.404 90.1631 122.414 90.1515C122.417 90.147 122.421 90.142 122.425 90.1374C122.427 90.1345 122.43 90.132 122.432 90.1295C122.435 90.1258 122.438 90.1221 122.441 90.1187C122.45 90.1075 122.459 90.0984 122.467 90.0893C122.471 90.0855 122.474 90.0814 122.478 90.0777C122.482 90.0731 122.486 90.0685 122.491 90.064C122.495 90.0598 122.499 90.0553 122.503 90.0511C122.505 90.0495 122.507 90.0474 122.508 90.0457C122.51 90.0441 122.512 90.042 122.514 90.0403C122.515 90.0387 122.517 90.037 122.519 90.0349C122.526 90.0275 122.533 90.0204 122.541 90.0134C122.548 90.0063 122.556 89.9992 122.563 89.9922C122.57 89.9851 122.578 89.9785 122.585 89.9714C122.592 89.9644 122.6 89.9578 122.607 89.9511C122.615 89.9445 122.622 89.9383 122.63 89.9316C122.639 89.9237 122.648 89.9163 122.658 89.9084C122.664 89.9034 122.671 89.898 122.677 89.893C122.683 89.8885 122.688 89.8839 122.695 89.8793C122.7 89.8748 122.707 89.8702 122.713 89.8656C122.719 89.8611 122.725 89.8569 122.73 89.8524C122.742 89.8437 122.755 89.8349 122.767 89.8266C122.776 89.82 122.786 89.8138 122.796 89.8071C122.93 89.7192 123.075 89.6503 123.226 89.6001C123.237 89.6482 120.273 95.2392 124.308 95.984C124.309 95.984 124.31 95.9844 124.311 95.9848V95.9836Z" fill="url(#paint1_linear_566_10912)"/>
<path d="M149.581 97.7873C149.597 98.1873 149.569 98.8262 149.57 98.83C149.586 99.0258 149.134 99.2702 148.953 99.3553C148.141 99.7382 147.105 99.6888 147.105 99.6888C147.105 99.6888 147.082 99.6888 147.041 99.6884C147.102 99.4478 147.135 99.1951 147.135 98.9349C147.135 98.4532 147.023 97.9989 146.825 97.5964C147.928 97.752 149.569 97.4935 149.581 97.7873Z" fill="url(#paint2_linear_566_10912)"/>
<path d="M144.217 101.352C145.487 101.352 146.516 100.324 146.516 99.0553C146.516 97.7867 145.487 96.7583 144.217 96.7583C142.948 96.7583 141.918 97.7867 141.918 99.0553C141.918 100.324 142.948 101.352 144.217 101.352Z" fill="#324347"/>
<path d="M144.223 97.6757C143.46 97.6736 142.837 98.2918 142.836 99.0528C142.835 99.8125 143.453 100.434 144.211 100.436C144.975 100.437 145.597 99.8199 145.598 99.059C145.599 98.2993 144.981 97.6782 144.223 97.6761V97.6757Z" fill="white"/>
<path d="M123.938 101.352C125.207 101.352 126.237 100.324 126.237 99.0553C126.237 97.7867 125.207 96.7583 123.938 96.7583C122.668 96.7583 121.639 97.7867 121.639 99.0553C121.639 100.324 122.668 101.352 123.938 101.352Z" fill="#324347"/>
<path d="M123.944 97.6757C123.181 97.6736 122.558 98.2918 122.557 99.0528C122.556 99.8125 123.174 100.434 123.931 100.436C124.696 100.437 125.318 99.8199 125.319 99.059C125.32 98.2993 124.702 97.6782 123.944 97.6761V97.6757Z" fill="white"/>
<path d="M139.273 93.9145C139.178 93.1357 137.959 92.4088 137.901 92.3743C136.646 91.4454 134.701 90.1799 132.826 90.1006C130.247 89.9915 126.88 89.9429 124.396 90.2662C124.203 90.2911 124.016 90.355 123.849 90.4686C123.435 90.7524 123.273 91.1479 123.344 91.5483C123.405 91.8881 123.63 92.1827 123.948 92.3548L124.792 92.8121C125.201 92.9299 125.239 93.093 126.055 93.2399C129.281 93.8203 138.859 94.3481 138.859 94.3481C138.959 94.3502 139.084 94.2767 139.156 94.2103C139.24 94.134 139.286 94.0249 139.273 93.9145Z" fill="white"/>
<path d="M129.827 89.5992L130.43 94.979H131.147H131.41L130.619 89.5992H129.827Z" fill="url(#paint3_linear_566_10912)"/>
<g opacity="0.52">
<path d="M120.956 113.441H113.517C113.422 113.441 113.345 113.364 113.345 113.269C113.345 113.174 113.422 113.097 113.517 113.097H120.956C121.051 113.097 121.129 113.174 121.129 113.269C121.129 113.364 121.051 113.441 120.956 113.441Z" fill="#41545B"/>
<path d="M120.956 115.144H113.517C113.422 115.144 113.345 115.067 113.345 114.972C113.345 114.876 113.422 114.799 113.517 114.799H120.956C121.051 114.799 121.129 114.876 121.129 114.972C121.129 115.067 121.051 115.144 120.956 115.144Z" fill="#41545B"/>
<path d="M124.326 111.712H113.517C113.422 111.712 113.345 111.635 113.345 111.54C113.345 111.445 113.422 111.367 113.517 111.367H124.326C124.421 111.367 124.498 111.445 124.498 111.54C124.498 111.635 124.421 111.712 124.326 111.712Z" fill="#41545B"/>
</g>
<path opacity="0.78" d="M111.182 111.131H110.479V115.434H111.182V111.131Z" fill="#EBEBEB"/>
<g opacity="0.52">
<path d="M145.242 113.441H137.802C137.707 113.441 137.63 113.364 137.63 113.269C137.63 113.174 137.707 113.097 137.802 113.097H145.242C145.337 113.097 145.414 113.174 145.414 113.269C145.414 113.364 145.337 113.441 145.242 113.441Z" fill="#41545B"/>
<path d="M145.242 115.144H137.802C137.707 115.144 137.63 115.067 137.63 114.972C137.63 114.876 137.707 114.799 137.802 114.799H145.242C145.337 114.799 145.414 114.876 145.414 114.972C145.414 115.067 145.337 115.144 145.242 115.144Z" fill="#41545B"/>
<path d="M148.611 111.712H137.802C137.707 111.712 137.63 111.635 137.63 111.54C137.63 111.445 137.707 111.367 137.802 111.367H148.611C148.706 111.367 148.784 111.445 148.784 111.54C148.784 111.635 148.706 111.712 148.611 111.712Z" fill="#41545B"/>
</g>
<path opacity="0.78" d="M135.467 111.131H134.765V115.434H135.467V111.131Z" fill="#EBEBEB"/>
<path d="M77.6192 130.58L88.3154 130.296L88.3154 129.772L77.6192 129.35L77.6192 130.58Z" fill="#D8DCE3"/>
<path d="M90.9454 129.035C90.9454 129.035 85.8222 128.883 85.6246 128.877L78.1237 128.721L78.1237 129.968L93.6937 130.293L93.6937 129.53L90.9454 129.036L90.9454 129.035Z" fill="#D8DCE3"/>
<path d="M93.6937 130.623C93.6937 130.623 92.9773 131.026 92.4904 131.201C92.4904 131.201 91.9489 131.227 91.8365 131.181C91.5909 131.082 91.3752 130.882 90.9806 130.876C90.5643 130.869 90.1395 131.189 89.6841 131.355C89.5095 131.418 89.0121 131.435 88.9093 131.4C88.5332 131.269 88.3368 130.956 87.5914 131.004C86.9807 131.044 86.6789 131.315 86.3968 131.451C86.218 131.537 85.8227 131.513 85.6246 131.519L79.8911 131.675L79.8911 130.428L93.6937 130.103L93.6937 130.623L93.6937 130.623Z" fill="#D8DCE3"/>
<path d="M73.9554 128.339C72.7823 128.311 71.8098 129.254 71.783 130.445" stroke="#8D96AB" stroke-width="0.3" stroke-linecap="round" stroke-linejoin="round"/>
<path d="M93.3158 130.194L82.4383 130.194" stroke="#8D96AB" stroke-width="0.3" stroke-linecap="round" stroke-linejoin="round"/>
<path d="M75.6011 126.051L79.56 125.401C80.7822 125.278 81.8424 126.252 81.8424 127.498L81.8424 132.709C81.8424 133.957 80.7788 134.932 79.5549 134.806L75.7098 134.227C74.6903 134.075 74.3546 133.234 74.3546 132.778L74.3546 127.589C74.3546 126.689 74.9187 126.143 75.6011 126.051ZM75.3476 131.012C75.3476 131.417 75.6742 131.749 76.0737 131.749C76.4733 131.749 76.7999 131.417 76.7999 131.012L76.7999 129.159C76.7999 128.754 76.4733 128.422 76.0737 128.422C75.6742 128.422 75.3476 128.753 75.3476 129.159L75.3476 131.012Z" fill="#D8DCE3"/>
<path d="M81.5951 126.647C81.7328 126.928 81.8104 127.246 81.8104 127.584L81.8104 132.795C81.8104 134.043 80.7468 135.018 79.5229 134.892L75.6779 134.313C74.6584 134.16 74.3226 133.319 74.3226 132.864L74.3226 127.675C74.3226 126.774 74.8867 126.229 75.5692 126.136L79.528 125.487" stroke="#8D96AB" stroke-width="0.3" stroke-linecap="round" stroke-linejoin="round"/>
<path d="M72.4603 132.073C72.8276 132.42 73.3165 132.637 73.8576 132.649C75.0307 132.676 76.0032 131.734 76.0301 130.543C76.0418 130.032 75.8769 129.558 75.5923 129.182" stroke="#8D96AB" stroke-width="0.3" stroke-linecap="round" stroke-linejoin="round"/>
<path d="M80.3236 127.725L80.3236 132.75" stroke="#8D96AB" stroke-width="0.3" stroke-linecap="round" stroke-linejoin="round"/>
<path d="M66.5493 128.292L66.0687 132.268L68.9916 132.505L70.8327 133.83L73.7324 133.958C75.6199 134.04 77.245 132.897 77.3959 131.379L77.4841 130.494C77.6304 129.048 76.5044 127.715 74.7794 127.296L73.4979 126.984L70.4287 126.819L68.5691 128.29H66.5493V128.292Z" fill="#FFB47A"/>
<path d="M66.299 133.029L67.7284 133.365L68.1645 127.881L67.0429 127.531L66.299 133.029Z" fill="white"/>
<path d="M49.7379 76.5138L53.3378 66.828C53.6951 65.8667 53.7402 64.8167 53.4674 63.8279C52.8844 61.724 50.9765 60.2683 48.7996 60.2683H41.7174L49.7379 76.5138Z" fill="#282829"/>
<path d="M48.7543 218.181L48.8191 225.272L44.1729 226.913C44.1729 226.913 42.4062 225.205 42.4062 225.008V218.705L48.7523 218.179L48.7543 218.181Z" fill="black"/>
<path d="M48.7583 222.879L54.0876 226.482L55.8445 225.865C57.9291 225.135 60.157 226.502 60.4593 228.696L53.9071 229.167L40.8655 228.929L40.9244 225.68L42.4358 223.48L43.0188 224.169C43.7804 225.07 45.0877 225.263 46.075 224.62L48.7564 222.877L48.7583 222.879Z" fill="#232324"/>
<path d="M53.909 229.167L61.3955 228.647L61.5702 229.771L54.1504 230.337L40.412 230.085L40.4336 228.92L53.909 229.167Z" fill="black"/>
<path d="M48.1872 146.482C48.2991 146.818 50.3209 184.006 50.3209 184.006L49.412 219.14L38.9713 219.692L40.4219 184.571L38.9694 146.444L48.1892 146.482H48.1872Z" fill="#414042"/>
<path d="M52.2994 101.086L56.8376 148.436H50.625L47.7042 106.856L52.2994 101.086Z" fill="#282829"/>
<path d="M31.6772 218.575L31.7419 225.666L27.0957 227.307C27.0957 227.307 25.3291 225.599 25.3291 225.402V219.099L31.6752 218.573L31.6772 218.575Z" fill="black"/>
<path d="M31.6811 223.273L37.0104 226.876L38.7672 226.259C40.8518 225.529 43.0797 226.896 43.382 229.09L36.8298 229.561L23.7882 229.323L23.8471 226.074L25.3585 223.874L25.9808 224.611C26.7188 225.483 27.9888 225.67 28.9467 225.048L31.6791 223.271L31.6811 223.273Z" fill="#282829"/>
<path d="M36.8318 229.561L44.3184 229.041L44.4931 230.166L37.0733 230.731L23.3348 230.479L23.3564 229.315L36.8318 229.561Z" fill="black"/>
<path d="M38.0075 146.105L33.0767 218.575L22 220.086L29.1627 146.19L38.0075 146.105Z" fill="#414042"/>
<path d="M43.5037 96.1611L37.8937 92.0007L29.8988 96.6871L41.9393 135.232L43.5037 96.1611Z" fill="#F5F5F5"/>
<path d="M37.346 97.6287C39.1126 97.6287 40.5456 96.1927 40.5456 94.4178V87.1569H34.1484V94.4178C34.1465 96.1907 35.5794 97.6287 37.346 97.6287Z" fill="#EB9767"/>
<path d="M42.6478 60.9142L47.0958 64.2551C48.6995 65.4606 49.6947 67.3123 49.8144 69.3196L50.7487 84.9486C50.8567 86.755 50.1736 88.52 48.8761 89.7787L47.2999 91.3093C46.5893 92.0007 45.6687 92.4361 44.6853 92.5483L43.0306 92.7375C42.2925 92.8222 41.5446 92.7197 40.8537 92.442L38.3176 91.4196C35.6657 90.3519 33.3142 88.6519 31.4631 86.4674C30.1382 84.9033 29.3098 82.9787 29.0782 80.9399L27.5942 67.8245L32.156 61.2727L42.6439 60.9162L42.6478 60.9142Z" fill="#FFB47A"/>
<path d="M37.666 81.066C43.331 83.684 48.4954 80.6996 48.0321 83.0911C47.5689 85.4805 44.8718 86.9658 42.0099 86.4064C39.148 85.8469 37.2027 83.4575 37.666 81.066Z" fill="white"/>
<path d="M36.6178 101.775C36.5138 100.653 38.4531 99.5553 38.4531 99.5553C38.4531 99.5553 40.5613 100.276 40.6653 101.397C40.7203 101.984 40.2139 102.565 39.7192 102.987L45.4352 117.327L45.2055 132.86L37.0339 115.499L38.1351 103.32C37.5109 103.008 36.6806 102.469 36.6158 101.775H36.6178Z" fill="#BE1E2D"/>
<path d="M25.649 97.5951L31.151 96.0291L43.0463 128.01L43.0227 96.1926C47.1134 96.8485 52.3308 98.6155 52.3308 102.144L51.7734 111.835L53.3123 148.437H25.0346L22.2865 107.655C22.2865 107.655 20.6161 98.8223 25.649 97.5971V97.5951Z" fill="#414042"/>
<path d="M42.2299 134.448C42.7025 134.448 43.0857 134.063 43.0857 133.589C43.0857 133.114 42.7025 132.73 42.2299 132.73C41.7572 132.73 41.374 133.114 41.374 133.589C41.374 134.063 41.7572 134.448 42.2299 134.448Z" fill="#1C1E1F"/>
<path d="M33.1002 138.121H28.0948C26.7581 138.121 25.6745 137.032 25.6745 135.693V134.477H35.5225V135.693C35.5225 137.034 34.437 138.121 33.1022 138.121H33.1002Z" fill="#282829"/>
<path d="M53.0022 138.119L52.7823 134.475H50.3837V135.691C50.3837 137.032 51.6635 138.119 53.0002 138.119H53.0022Z" fill="#282829"/>
<path d="M29.3099 96.5847L30.2914 106.044L34.1348 107.324L31.1904 109.787L43.0484 128.008L48.256 109.393L44.8778 106.93L47.9439 105.059L44.6952 96.4192L43.0248 96.1907L42.6931 126.235L31.1531 96.0272L29.3099 96.5847Z" fill="#282829"/>
<path d="M22.4989 108.963L38.9269 128.962L66.783 133.247L67.6791 127.727L44.8081 120.979L25.816 99.6772L22.4989 108.963Z" fill="#414042"/>
<path d="M39.0635 128.692L22.8459 116.803L22.3317 108.337L39.0635 128.692Z" fill="#282829"/>
<path d="M56.5374 149.907L58.357 154.044C58.357 154.044 58.0194 159.365 57.8388 159.642C57.6602 159.918 54.6942 163.229 54.6942 163.229L53.809 162.65L56.4334 158.722L52.0894 161.526L50.1089 160.231L49.5887 158.291L52.4879 156.144L49.6476 157.286L49.5004 156.295L51.5712 154.895L51.793 149.752L56.5374 149.905V149.907Z" fill="#FFB47A"/>
<path d="M56.6277 158.537L55.7974 159.132L53.9346 157.345L54.5863 155.452L52.802 153.914L51.793 149.754L51.5712 154.895L49.5004 156.297L49.6476 157.286L52.4879 156.144L49.5887 158.291L50.1089 160.231L52.219 161.612L56.6277 158.537Z" fill="#EB8867"/>
<path d="M57.2716 158.12L56.6533 156.672L57.2206 154.771L57.2716 158.12Z" fill="#EB8867"/>
<path d="M51.2023 148.436V149.663L56.7161 149.826V148.436H51.2023Z" fill="white"/>
<path d="M28.9959 77.5479L31.3121 77.9872L30.9548 68.4333C30.9195 67.4681 31.793 66.7254 32.7352 66.9185L40.1668 68.4412C42.3378 68.8864 44.5932 68.6441 46.6208 67.7458L52.0365 65.3504L49.3905 57.3035C48.7349 55.312 46.8819 53.9666 44.7914 53.9666H35.5481C33.7324 53.9666 32.0678 54.9869 31.2395 56.6082L29.3335 60.3312L28.8918 60.3233C26.8406 60.2918 24.9935 61.5584 24.277 63.485L23.9865 64.269C23.5115 65.5474 23.5939 66.9697 24.2142 68.1851L28.9978 77.5479H28.9959Z" fill="#282829"/>
<path d="M30.2549 80.7924L28.6911 80.9742C27.7649 81.0819 26.9272 80.4159 26.8199 79.4864L26.5356 77.0248C26.4283 76.0953 27.092 75.2546 28.0182 75.1469L28.0748 75.1404C28.9073 75.0435 29.6602 75.6421 29.7567 76.4777L30.2549 80.7924Z" fill="#FFB47A"/>
<path d="M28.5129 152.899H37.5384L37.8485 148.436H39.0636L39.2461 152.899H48.5974L48.3266 148.436H46.5619L43.5037 139.057L41.372 148.436H28.9448L28.5129 152.899Z" fill="#282829"/>
<path d="M181.055 128.552L178.867 128.224L175.977 125.75L172.386 125.704L170.638 124.824L170.272 125.627L171.023 127.071L173.533 127.943L164.049 131.303L164.446 132.247L168.991 131.264L165.207 133.334L167.928 134.035L173.357 133.129L177.905 131.443L181.049 131.316L181.055 128.552Z" fill="#F2AD6D"/>
<path d="M166.826 133.751L169.054 132.85L170.545 132.257L173.403 132.438L178.073 131.44L173.357 133.129L167.928 134.035L166.826 133.751Z" fill="#D9804C"/>
<path d="M171.493 131.224L173.857 131.012L175.575 129.883L171.493 131.224Z" fill="#D9804C"/>
<path d="M206.459 101.169L194.244 120.845L179.412 127.066L181.206 132.277C181.206 132.277 193.101 130.492 201.604 127.066C205.147 124.115 207.273 115.612 208.69 113.486C207.273 106.4 206.459 101.169 206.459 101.169Z" fill="#E6E7E8"/>
<path d="M179.495 127.303L178.506 127.407L179.265 132.412L181.111 132.003L179.495 127.303Z" fill="#E6E7E8"/>
<path d="M204.439 123.406L205.147 103.566L206.503 100.847L208.69 114.903L204.439 123.406Z" fill="#D1D3D4"/>
<path d="M209.143 66.5677C207.36 73.371 202.437 99.4596 213.515 104.006C223.997 107.042 236.573 108.052 236.601 102.084C236.67 87.0468 235.307 74.5471 233.327 67.5461C231.347 60.5451 213.576 54.5463 209.143 66.5677Z" fill="#BCBEC0"/>
<path d="M209.76 224.366L196.767 229.369L196.769 230.365L216.735 230.329L216.773 216.513L209.843 216.525L209.76 224.366Z" fill="#F2AD6D"/>
<path d="M196.767 229.369L196.769 230.365L216.735 230.33L216.733 229.333L216.692 224.354L216.69 223.963L213.809 229.272L209.259 229.28L206.891 225.271L203.608 226.635L204.741 229.023L196.767 229.369Z" fill="#231F20"/>
<path d="M236.567 218.231L237.804 230.326H224.253V228.843L229.792 223.605L229.776 218.099L236.567 218.231Z" fill="#F2AD6D"/>
<path d="M224.252 230.325V228.843H234.341C234.341 228.843 233.995 227.509 231.621 227.114C230.136 226.866 226.713 226.604 224.656 228.414L227.214 226.123C228.694 224.556 234.521 223.961 236.565 228.744L237.155 224L237.801 230.325H224.25H224.252Z" fill="#231F20"/>
<path d="M234.99 149.055L235.368 109.546L238.197 103.419C238.223 100.721 236.28 98.4061 233.617 97.9613L229.099 97.4277C227.75 97.2676 226.393 97.1786 225.034 97.1549L217.05 97.0244C214.937 96.9908 212.824 97.1213 210.731 97.4178C207.835 97.7637 205.645 100.203 205.618 103.118L205.182 148.765V221.312C205.182 221.312 238.251 221.975 238.913 221.312C239.576 220.65 234.992 149.053 234.992 149.053L234.99 149.055Z" fill="#E6E7E8"/>
<path d="M237.525 100.744L246.33 126.649L245.238 150.735L238.528 150.749L233.206 104.385L237.525 100.744Z" fill="#E6E7E8"/>
<path d="M235.256 121.251L234.001 110.933L233.206 108.022L235.016 131.741L235.256 121.251Z" fill="#D1D3D4"/>
<path d="M237.146 160.834L236.014 160.832L236.01 164.323L237.142 164.324L237.146 160.834Z" fill="#ADAEB0"/>
<path d="M248.159 160.849L247.027 160.848L247.023 164.339L248.154 164.34L248.159 160.849Z" fill="#ADAEB0"/>
<path d="M236.403 161.788C236.28 161.771 236.16 161.727 236.049 161.656C235.635 161.389 235.517 160.84 235.784 160.427C236.666 159.061 239.192 158.221 242.223 158.288C244.909 158.347 247.22 159.112 248.254 160.286C248.579 160.654 248.543 161.217 248.175 161.541C247.807 161.865 247.244 161.83 246.919 161.462C246.359 160.828 244.64 160.122 242.185 160.067C239.432 160.006 237.659 160.804 237.281 161.391C237.085 161.694 236.739 161.838 236.405 161.79L236.403 161.788Z" fill="#414042"/>
<path d="M256.875 163.558L224.824 163.519C223.651 163.517 222.698 164.467 222.697 165.639L222.671 186.563C222.67 187.735 223.62 188.687 224.793 188.688L256.845 188.727C258.018 188.729 258.97 187.78 258.972 186.607L258.997 165.683C258.999 164.511 258.049 163.559 256.875 163.558Z" fill="#414042"/>
<path d="M224.805 188.681C223.631 188.681 222.68 187.729 222.682 186.555L222.706 165.631C222.706 164.459 223.659 163.508 224.834 163.51C226.007 163.51 226.959 164.463 226.957 165.637L226.933 186.561C226.933 187.733 225.98 188.683 224.805 188.681Z" fill="#231F20"/>
<path d="M226.957 166.163L222.706 166.159V165.633C222.706 164.461 223.661 163.51 224.834 163.512C226.007 163.512 226.959 164.465 226.957 165.639V166.165V166.163Z" fill="black"/>
<path d="M258.983 177.661L226.934 177.622L226.932 178.61L258.982 178.65L258.983 177.661Z" fill="#231F20"/>
<path d="M244.96 180.202L244.965 176.108L242.162 176.105L242.157 180.198L244.96 180.202Z" fill="#ADAEB0"/>
<path d="M246.15 159.503C246.482 157.209 244.887 155.078 242.591 154.748C240.294 154.416 238.161 156.009 237.831 158.304C237.803 158.491 237.79 158.677 237.788 158.861C237.788 158.861 239.06 158.399 239.39 159.146C239.871 160.233 238.229 160.778 238.229 160.778C238.824 161.968 239.974 162.856 241.39 163.059C243.687 163.391 245.819 161.798 246.15 159.503Z" fill="#F2AD6D"/>
<path d="M244.104 152.243L239.625 152.25L239.633 157.825L244.111 157.819L244.104 152.243Z" fill="#F2AD6D"/>
<path d="M244.648 150.749H238.911V152.244H244.648V150.749Z" fill="#E6E7E8"/>
<path d="M228.221 82.9256L217.991 82.6437L217.625 95.9349L227.854 96.2168L228.221 82.9256Z" fill="#DE925B"/>
<path d="M213.259 61.3872C211.406 63.759 210.316 66.6369 210.132 69.6413C209.885 73.6932 209.542 79.4272 209.382 82.649C209.301 84.2717 209.517 85.8965 210.019 87.4421L211.214 89.6974C211.835 90.5256 212.415 91.332 213.246 91.4941L215.109 91.6799C215.552 91.7668 217.275 91.5791 217.695 91.4111L224.357 88.0727C228.019 85.4932 229.485 84.3488 230.205 81.2614L233.95 65.1782L227.477 54.9357L218.49 54.6886L213.256 61.3872H213.259Z" fill="#F2AD6D"/>
<path d="M214.632 84.9971H214.549C213.548 84.9674 212.706 84.325 212.541 83.4633L212.112 81.2179L221.898 81.4867L218.652 83.8092C217.525 84.6156 216.098 85.0386 214.632 84.9971Z" fill="white"/>
<path d="M228.844 57.0941C225.356 56.0505 221.362 55.5643 217.665 55.7481L213.259 61.3852C211.406 63.7571 210.316 66.635 210.132 69.6393C210.063 70.7857 209.986 72.0646 209.906 73.3849C212.761 70.6968 220.789 70.3647 231.331 75.0966C231.443 75.063 231.556 75.0274 231.667 74.9918L233.952 65.1763L228.844 57.0941Z" fill="url(#paint4_linear_566_10912)"/>
<path d="M231.346 60.5453C231.346 60.5453 230.915 67.4791 227.865 82.323C227.6 83.6137 225.978 85.2226 221.79 86.9007C223.831 84.1533 224.367 80.0954 224.039 79.9235C223.685 79.7396 211.463 79.4036 210.975 79.6803C210.488 79.9571 210.148 83.3192 210.535 85.7167C210.575 85.9638 210.619 86.1931 210.664 86.4125C210.193 85.693 209.693 84.1434 209.398 83.0721C209.38 83.0108 209.289 83.0247 209.291 83.0899C209.333 84.5664 209.564 86.0369 210.021 87.4423L211.123 89.7351C211.845 90.9171 212.417 91.3321 213.25 91.4962L215.113 91.682C215.556 91.769 217.279 91.5812 217.699 91.4132L224.361 88.0748C227.616 86.1397 229.489 84.3509 230.209 81.2636L235.329 66.1646L231.346 60.5473V60.5453ZM215.204 88.9583C215.319 87.8692 215.519 86.705 215.519 86.705L213.301 86.6438C213.301 86.6438 213.113 87.4719 213.016 88.9563C212.838 88.9168 212.668 88.8634 212.506 88.7962C211.736 88.2863 211.287 81.3683 211.307 80.6844C211.327 79.9986 217.788 80.4472 223.117 80.7516C222.223 84.9439 219.637 87.3415 217.345 88.4068C217.345 88.4068 217.356 88.4147 217.378 88.4266C216.708 88.6341 215.956 88.8397 215.204 88.9583Z" fill="#231F20"/>
<path d="M229.734 80.2239C229.186 80.1725 230.148 73.6637 231.119 73.7546L231.691 73.8831C232.981 74.0037 233.028 75.1876 232.907 76.4763C232.688 78.8008 231.153 80.38 229.734 80.2239Z" fill="#F2AD6D"/>
<path d="M208.933 67.639C209.853 66.1625 211.368 66.0479 213.382 67.0856C215.396 68.1233 219.412 68.2063 221.677 67.0144C223.942 65.8226 227.253 66.5361 228.478 67.8307C229.964 69.3982 231.358 71.0229 230.978 76.3319C230.719 79.9609 230.339 82.2735 230.49 88.8297C230.701 98.0246 237.926 100.501 238.078 102.243C236.603 88.0608 236.814 77.253 236.381 67.9869C236.057 61.0017 232.872 54.2814 223.932 53.9751C214.994 53.6687 209.803 60.0431 208.931 67.639H208.933Z" fill="#E6E7E8"/>
<path d="M235.443 64.945C235.431 64.945 235.42 64.945 235.408 64.945L210.074 64.2492C209.364 64.2295 208.804 63.6385 208.824 62.9289C208.844 62.2193 209.432 61.6599 210.146 61.6797L235.479 62.3755C236.189 62.3952 236.749 62.9862 236.729 63.6958C236.709 64.3935 236.138 64.945 235.445 64.945H235.443Z" fill="#231F20"/>
<path d="M234.963 62.9545C234.951 62.9545 234.939 62.9545 234.927 62.9545L210.662 62.2884C209.952 62.2686 209.392 61.6776 209.412 60.9681C209.432 60.2585 210.021 59.6971 210.733 59.7189L234.998 60.385C235.709 60.4047 236.268 60.9957 236.249 61.7053C236.229 62.403 235.657 62.9545 234.965 62.9545H234.963Z" fill="#231F20"/>
<path d="M218.442 97.6963L226.83 97.9276C227.384 97.9434 227.837 97.8663 227.851 97.3109L227.96 93.3459L217.546 93.7788L217.467 96.6666C217.451 97.22 217.888 97.6825 218.442 97.6963Z" fill="#F5F5F5"/>
<path d="M222.294 97.8033C220.476 99.9696 218.023 106.791 217.665 112.744C217.066 112.756 214.49 112.657 214.49 112.657C214.791 108.259 216.439 100.697 218.559 97.7005C219.867 95.9394 222.294 97.8033 222.294 97.8033Z" fill="#F5F5F5"/>
<path d="M219.068 98.8074C219.111 98.5643 219.335 98.4022 219.564 98.4437C219.794 98.4852 219.944 98.7165 219.9 98.9596C219.857 99.2027 219.633 99.3648 219.404 99.3233C219.174 99.2818 219.024 99.0505 219.068 98.8074Z" fill="#D1D3D4"/>
<path d="M220.334 95.4472C220.377 95.2041 220.601 95.042 220.83 95.0835C221.06 95.125 221.21 95.3563 221.167 95.5994C221.123 95.8425 220.899 96.0046 220.67 95.9631C220.44 95.9216 220.29 95.6903 220.334 95.4472Z" fill="#D1D3D4"/>
<path d="M217.732 102.166C217.776 101.923 217.999 101.761 218.229 101.802C218.458 101.844 218.609 102.075 218.565 102.318C218.522 102.561 218.298 102.723 218.069 102.682C217.839 102.64 217.689 102.409 217.732 102.166Z" fill="#D1D3D4"/>
<path d="M216.609 106.156C216.652 105.913 216.876 105.751 217.105 105.793C217.335 105.834 217.485 106.065 217.442 106.309C217.398 106.552 217.174 106.714 216.945 106.672C216.716 106.631 216.565 106.399 216.609 106.156Z" fill="#D1D3D4"/>
<path d="M215.833 110.133C215.877 109.89 216.1 109.728 216.33 109.769C216.559 109.811 216.71 110.042 216.666 110.285C216.622 110.528 216.399 110.691 216.169 110.649C215.94 110.607 215.79 110.376 215.833 110.133Z" fill="#D1D3D4"/>
<g clip-path="url(#clip0_566_10912)">
<path d="M76.7464 230.799C72.849 213.57 80.4245 199.609 96.976 196C99.8961 220.103 84.6682 228.974 76.7503 230.799H76.7464Z" fill="#CDD0DF"/>
<g style="mix-blend-mode:multiply">
<path d="M77.1619 230.246C77.0849 230.258 77.0003 230.243 76.9272 230.197C76.7579 230.095 76.7002 229.871 76.8041 229.701L95.4985 197.981C95.5986 197.81 95.8179 197.754 95.9872 197.86C96.1564 197.962 96.2141 198.185 96.1103 198.356L77.4158 230.076C77.3581 230.174 77.2619 230.231 77.1619 230.246Z" fill="#BDC1D7"/>
</g>
<path d="M80.4934 230.966C79.7163 222.111 73.7682 216.577 65 217.376C67.3431 229.375 76.2844 231.299 80.4934 230.966Z" fill="#DCDEE8"/>
<g style="mix-blend-mode:multiply">
<path d="M80.201 230.765C80.2433 230.758 80.2818 230.739 80.3087 230.705C80.378 230.629 80.3703 230.515 80.2933 230.447L66.0426 218.104C65.9657 218.035 65.8502 218.043 65.781 218.119C65.7117 218.195 65.7194 218.308 65.7964 218.376L80.0471 230.72C80.0894 230.758 80.1471 230.773 80.201 230.761V230.765Z" fill="#D4D8E9"/>
</g>
<path d="M80 230.786C81.8737 220.48 89.2684 214.549 99.1638 216.306C95.1549 230.153 84.7592 231.574 80 230.786Z" fill="#DCDEE8"/>
<g style="mix-blend-mode:multiply">
<path d="M80.3539 230.578C80.3078 230.566 80.2654 230.54 80.2385 230.498C80.1693 230.403 80.1923 230.267 80.2847 230.199L97.8942 217.06C97.9904 216.988 98.1212 217.007 98.1904 217.106C98.2597 217.204 98.2366 217.337 98.1442 217.405L80.5348 230.543C80.4809 230.585 80.4155 230.596 80.3539 230.581V230.578Z" fill="#D4D8E9"/>
</g>
</g>
<defs>
<linearGradient id="paint0_linear_566_10912" x1="195.769" y1="-23.8798" x2="173.638" y2="19.9697" gradientUnits="userSpaceOnUse">
<stop stop-color="#650E3D"/>
<stop offset="1" stop-color="#F48279"/>
</linearGradient>
<linearGradient id="paint1_linear_566_10912" x1="156.813" y1="115.122" x2="151.501" y2="111.955" gradientUnits="userSpaceOnUse">
<stop stop-color="#650E3D"/>
<stop offset="1" stop-color="#F48279"/>
</linearGradient>
<linearGradient id="paint2_linear_566_10912" x1="161.806" y1="106.749" x2="156.493" y2="103.582" gradientUnits="userSpaceOnUse">
<stop stop-color="#650E3D"/>
<stop offset="1" stop-color="#F48279"/>
</linearGradient>
<linearGradient id="paint3_linear_566_10912" x1="148.865" y1="56.1998" x2="142.252" y2="69.302" gradientUnits="userSpaceOnUse">
<stop stop-color="#650E3D"/>
<stop offset="1" stop-color="#F48279"/>
</linearGradient>
<linearGradient id="paint4_linear_566_10912" x1="222.596" y1="63.035" x2="220.501" y2="79.2568" gradientUnits="userSpaceOnUse">
<stop stop-color="#D9804C"/>
<stop offset="0.57" stop-color="#E89C60"/>
<stop offset="1" stop-color="#F2AD6D"/>
</linearGradient>
<clipPath id="clip0_566_10912">
<rect width="36" height="35" fill="white" transform="translate(65 196)"/>
</clipPath>
</defs>
</svg>
