<svg width="76" height="40" viewBox="0 0 76 40" fill="none" xmlns="http://www.w3.org/2000/svg">
<path d="M28.6168 19.768H23.1582L22.2823 22.3517H18.5535L23.8466 7.72559H27.9725L33.2656 22.3517H29.4949L28.619 19.768H28.6168ZM27.7011 17.0189L25.8875 11.664L24.0959 17.0189H27.7011Z" fill="#8D96AB"/>
<path d="M38.6603 19.4349H44.9529V22.3517H34.6182V19.6423L40.8688 10.6424H34.6182V7.72559H44.9529V10.435L38.6603 19.4349Z" fill="#8D96AB"/>
<path d="M56.3907 19.768H50.9321L50.0562 22.3517H46.3274L51.6205 7.72559H55.7464L61.0395 22.3517H57.2688L56.3929 19.768H56.3907ZM55.4751 17.0189L53.6614 11.664L51.8698 17.0189H55.4751Z" fill="#8D96AB"/>
<path d="M72.1642 8.64344C73.316 9.25461 74.2095 10.1129 74.8406 11.2161C75.4716 12.3193 75.7893 13.5946 75.7893 15.0397C75.7893 16.4849 75.4738 17.7426 74.8406 18.8524C74.2073 19.9644 73.3115 20.8249 72.1532 21.436C70.9926 22.0472 69.649 22.3539 68.1221 22.3539H62.6415V7.72559H68.1221C69.6644 7.72559 71.0103 8.03227 72.1642 8.64344ZM71.039 18.164C71.7891 17.427 72.1642 16.3856 72.1642 15.0397C72.1642 13.6938 71.7891 12.6436 71.039 11.8934C70.2888 11.1433 69.2408 10.7682 67.8927 10.7682H66.2048V19.2694H67.8927C69.2408 19.2694 70.2888 18.9009 71.039 18.164Z" fill="#8D96AB"/>
<path d="M18.1961 11.2142V7L9.23819 13.6103L0.101562 7.01324L0.112594 22.769H3.56117L3.55234 14.6054L9.15655 18.3474L18.1961 11.2142Z" fill="#8D96AB"/>
<path d="M12.8015 17.9986L18.2005 14.0161V18.4929L12.8059 22.482V17.9986H12.8015Z" fill="#8D96AB"/>
<path d="M12.8015 17.999C12.8015 18.0807 15.683 20.3599 15.683 20.3599L12.8059 22.4846V18.255" fill="#8D96AB"/>
<path d="M75.7892 23.4883H0V33H75.7892V23.4883Z" fill="#8D96AB"/>
<path d="M40.9571 30.6078C40.2775 29.9481 39.94 29.1119 39.9377 28.097C39.9377 27.082 40.2753 26.248 40.9527 25.5905C41.63 24.9308 42.4596 24.6021 43.4415 24.6021C44.4233 24.6021 45.2507 24.9308 45.9215 25.5905C46.5944 26.2502 46.9298 27.0842 46.9298 28.0948C46.9298 29.1053 46.5922 29.9415 45.9192 30.6056C45.2463 31.2653 44.4189 31.5963 43.4393 31.6007C42.4596 31.6051 41.63 31.2741 40.9527 30.6078H40.9571ZM44.7499 29.5245C45.0764 29.1693 45.2397 28.6927 45.2397 28.0948C45.2397 27.4968 45.0742 27.018 44.7477 26.6628C44.4211 26.3076 43.982 26.1311 43.4349 26.1311C42.8877 26.1311 42.4486 26.3076 42.1221 26.6628C41.7955 27.018 41.6322 27.4946 41.6322 28.0925C41.6322 28.6905 41.7977 29.1671 42.1243 29.5223C42.453 29.8775 42.8899 30.054 43.4371 30.054C43.9842 30.054 44.4233 29.8775 44.7499 29.5245Z" fill="white"/>
<path d="M47.4261 25.964V24.6997L52.8141 24.6953V25.9596H50.9453L50.9497 31.5241H49.2861V25.9596L47.4261 25.964Z" fill="white"/>
<path d="M54.3167 30.5995C53.6371 29.9376 53.2996 29.1014 53.2996 28.0887C53.2996 27.0759 53.6371 26.2419 54.3145 25.5822C54.9896 24.9225 55.8192 24.5938 56.8033 24.5938C57.7873 24.5938 58.6125 24.9225 59.2833 25.5822C59.954 26.2397 60.2916 27.0737 60.2916 28.0842C60.2916 29.0948 59.9562 29.931 59.2833 30.5951C58.6081 31.2548 57.7807 31.5858 56.8033 31.588C55.8259 31.5902 54.9963 31.2614 54.3189 30.5973L54.3167 30.5995ZM58.1095 29.5162C58.436 29.161 58.5993 28.6844 58.5993 28.0865C58.5993 27.4885 58.4338 27.0119 58.1073 26.6567C57.7807 26.3015 57.3416 26.125 56.7945 26.125C56.2473 26.125 55.8082 26.3015 55.4817 26.6567C55.1529 27.0119 54.9896 27.4885 54.9919 28.0865C54.9919 28.6844 55.1573 29.161 55.4839 29.5162C55.8126 29.8714 56.2495 30.0479 56.7967 30.0479C57.3439 30.0479 57.7829 29.8692 58.1095 29.514V29.5162Z" fill="white"/>
<path d="M62.4428 28.8605V31.517H60.7814L60.777 24.686H63.471C64.2631 24.686 64.8786 24.889 65.3199 25.295C65.7457 25.6679 65.9862 26.2084 65.9818 26.7733C65.9752 27.1859 65.8517 27.5874 65.6222 27.9316C65.3817 28.3067 64.9912 28.5737 64.4462 28.7303L66.1208 31.5104H64.1748L62.637 28.8605H62.4428ZM62.4428 25.9525V27.5963H63.4732C63.696 27.6073 63.9122 27.5279 64.0711 27.3734C64.2189 27.2145 64.2984 27.0005 64.2895 26.7843C64.2962 26.5637 64.2145 26.3474 64.0623 26.1864C63.9078 26.0275 63.6916 25.9437 63.4688 25.9525H62.4428Z" fill="white"/>
<path d="M70.6373 31.5106H68.9714V29.3131L66.604 24.6863H68.4905L69.8077 27.7686L71.1094 24.6841H72.9959L70.6373 29.3153V31.5084V31.5106Z" fill="white"/>
<path d="M39.4524 26.2394V24.3066L35.3441 27.3382L31.152 24.3133L31.1564 31.5414H32.7384L32.734 27.7949L35.3044 29.5115L39.4524 26.2394Z" fill="white"/>
<path d="M23.6039 28.5737C23.8599 28.8804 23.9878 29.2357 23.9878 29.6416C23.9878 29.9726 23.904 30.2705 23.7407 30.5352C23.5752 30.8 23.3325 31.0096 23.0148 31.1618C22.6971 31.3141 22.3154 31.3913 21.8719 31.3913H19.606V24.8472H21.8057C22.4676 24.8472 22.9707 24.9994 23.3171 25.3061C23.6635 25.6128 23.8378 26.0077 23.8378 26.4953C23.8378 26.9013 23.7275 27.2301 23.509 27.4838C23.2906 27.7375 23.0104 27.914 22.6662 28.0133C23.0347 28.0817 23.3458 28.2693 23.6017 28.576L23.6039 28.5737ZM20.2613 27.7397H21.7881C22.2316 27.7397 22.5735 27.636 22.814 27.4264C23.0545 27.2168 23.1737 26.9278 23.1737 26.5615C23.1737 26.1953 23.0545 25.9151 22.814 25.7099C22.5735 25.5047 22.2227 25.401 21.7616 25.401H20.2635V27.7419L20.2613 27.7397ZM22.9332 30.5021C23.1979 30.2771 23.3303 29.9682 23.3303 29.5754C23.3303 29.1827 23.1913 28.8694 22.9133 28.6355C22.6353 28.4017 22.2624 28.2847 21.7947 28.2847H20.259V30.8397H21.8234C22.2977 30.8397 22.6684 30.7272 22.9332 30.5021Z" fill="white"/>
<path d="M29.5215 24.8491L27.4254 28.8471V31.3933H26.7701V28.8471L24.6542 24.8491H25.3933L27.0966 28.2469L28.7911 24.8491H29.5215Z" fill="white"/>
<path d="M36.8467 29.6833L39.3222 27.8564V29.9106L36.8467 31.7397V29.6833Z" fill="white"/>
</svg>
