<svg width="46" height="40" viewBox="0 0 46 40" fill="none" xmlns="http://www.w3.org/2000/svg">
<path d="M45.3236 30.3926H0.358429V40H45.3236V30.3926Z" fill="#8D96AB"/>
<path d="M29.2362 19.3138C29.1004 19.3138 28.9847 19.3183 28.8845 19.3294V11.6274L25.5589 14.036V20.4491C25.5589 21.0456 25.5144 22.1987 25.4253 22.6461C25.3363 23.0936 25.1627 23.4809 24.9067 23.8103C24.7019 24.073 24.4259 24.3 24.092 24.4937L21.0156 25.8872L21.0245 29.146C21.0245 29.146 24.9445 27.4209 25.3875 27.2317C26.2022 26.8822 26.87 26.4103 27.3887 25.8115C27.9095 25.2149 28.288 24.4759 28.5261 23.5922C28.5996 23.3139 28.6597 22.3857 28.7109 22.074C28.7198 22.0763 28.7265 22.0807 28.7354 22.0829C28.8623 22.103 29.0292 22.1141 29.234 22.1141" fill="#8D96AB"/>
<path d="M35.3266 19.2383H27.9852V22.1744H35.3266V19.2383Z" fill="#8D96AB"/>
<path d="M24.4704 10.1339L29.2452 6.61011L29.2474 10.5724L24.4727 14.1006L24.4704 10.1339Z" fill="#8D96AB"/>
<path d="M24.4704 10.1342C24.4704 10.2054 27.0192 12.2221 27.0192 12.2221L24.4749 14.1031V10.359" fill="#8D96AB"/>
<path d="M8.82162 10.7303L7.19887 11.9302L6.04135 12.7849C8.52779 15.0243 10.1684 17.7022 10.1684 20.5581V21.0723H1.17533L0 24.0819H13.3983V21.6221C13.3983 17.6643 12.4033 14.1183 8.82162 10.7303Z" fill="#8D96AB"/>
<path d="M17.6209 2.82584L15.6554 4.27942V24.0819H18.7384V2L17.6209 2.82584Z" fill="#8D96AB"/>
<path d="M44.3374 14.1808C43.792 13.2392 43.0463 12.5046 42.098 11.977C41.1498 11.4495 40.108 11.1846 38.9727 11.1846C37.8375 11.1846 36.7935 11.4495 35.8474 11.977C34.8992 12.5046 34.149 13.2392 33.5903 14.1808C33.0338 15.1224 32.7555 16.1842 32.7555 17.3662C32.7555 18.5482 33.0338 19.6144 33.5903 20.5605C34.1468 21.5087 34.8992 22.2456 35.8474 22.7731C36.7957 23.3007 37.8375 23.5656 38.9727 23.5656C40.108 23.5656 41.1475 23.3007 42.0914 22.7731C43.033 22.2456 43.7787 21.5065 44.3307 20.5605C44.8828 19.6122 45.1566 18.5482 45.1566 17.3662C45.1566 16.1842 44.8828 15.1224 44.3374 14.1808ZM41.1409 19.7702C40.5955 20.3668 39.881 20.6584 38.9549 20.6584C38.0467 20.6584 37.3144 20.3601 36.7735 19.7747C36.2325 19.1893 35.9543 18.3768 35.9543 17.3773C35.9543 16.3778 36.2281 15.572 36.7712 14.9799C37.3144 14.3878 38.0312 14.0917 38.9527 14.0917C39.8609 14.0917 40.5955 14.39 41.1342 14.9754C41.6729 15.5631 41.9556 16.3734 41.9556 17.3706C41.9556 18.3701 41.684 19.1759 41.1409 19.768V19.7702Z" fill="#8D96AB"/>
<path d="M32.4928 33.7784C32.032 33.3266 31.4555 33.0973 30.781 33.0973C30.1066 33.0973 29.5278 33.3266 29.0648 33.7807C28.7821 34.05 28.5751 34.3906 28.466 34.7646L27.5244 35.3878C27.4977 34.7468 27.2662 34.2058 26.8299 33.7807C26.3691 33.3288 25.7926 33.0995 25.1181 33.0995C24.4436 33.0995 23.8671 33.3288 23.4019 33.7829C22.9366 34.2348 22.7007 34.8202 22.7007 35.5125C22.7007 36.2048 22.9366 36.7902 23.4041 37.2443C23.6022 37.4402 23.8337 37.6005 24.0875 37.7162L23.019 38.4286V39.8398L26.4693 37.5426L26.496 37.5203C26.6117 37.4157 26.7275 37.3445 26.8321 37.2443L28.4526 36.1914C28.5573 36.5943 28.771 36.9594 29.0692 37.2488C29.5345 37.7029 30.111 37.9322 30.7833 37.9322C31.4555 37.9322 32.032 37.7007 32.4951 37.2465C32.9581 36.7924 33.194 36.2092 33.1918 35.5125C33.1918 34.8158 32.9603 34.237 32.4995 33.7851L32.4928 33.7784ZM25.9528 36.4318C25.7414 36.6611 25.4676 36.7746 25.1114 36.7746C24.7619 36.7746 24.4792 36.6611 24.2722 36.4341C24.0652 36.207 23.9561 35.8954 23.9561 35.5103C23.9561 35.1252 24.0608 34.8135 24.2722 34.5865C24.4815 34.3594 24.7619 34.2437 25.1114 34.2437C25.4609 34.2437 25.7458 34.3572 25.9528 34.5843C26.1599 34.8113 26.2689 35.1229 26.2689 35.508C26.2689 35.8931 26.1643 36.2048 25.9551 36.4318H25.9528ZM31.618 36.4318C31.4088 36.6611 31.1327 36.7746 30.7766 36.7746C30.4271 36.7746 30.1444 36.6611 29.9352 36.4341C29.7259 36.2092 29.6191 35.8954 29.6191 35.5103C29.6191 35.1252 29.7237 34.8135 29.9329 34.5865C30.1422 34.3594 30.4182 34.2437 30.7744 34.2437C31.1238 34.2437 31.4065 34.3572 31.6136 34.5843C31.8206 34.8113 31.9297 35.1229 31.9297 35.508C31.9297 35.8931 31.825 36.2026 31.6158 36.4318H31.618Z" fill="white"/>
<path d="M20.6572 34.1548V36.1894H14.2797C14.2375 36.1894 14.1929 36.1894 14.1506 36.1961V33.3624L12.9286 34.2483V36.6079C12.9286 36.826 12.913 37.2512 12.8796 37.4159C12.8507 37.5717 12.7861 37.7186 12.6904 37.8433C12.608 37.9457 12.5056 38.0303 12.3899 38.0948L11.2591 38.6068V39.8044C11.2591 39.8044 12.7037 39.17 12.864 39.0965C13.445 38.865 13.8768 38.3664 14.0193 37.7587C14.046 37.6563 14.0661 37.3157 14.0883 37.2H14.0972C14.1573 37.2111 14.2196 37.2156 14.2797 37.2133H21.8793V33.3579L20.655 34.1526L20.6572 34.1548Z" fill="white"/>
<path d="M5.30898 36.443C5.00402 36.3629 4.75471 36.2427 4.57217 36.0891C4.38964 35.94 4.25386 35.7441 4.17595 35.5237C4.09136 35.2098 4.05574 34.8848 4.07132 34.5621V33.0439L2.77357 33.8075C2.74686 33.9432 2.72237 34.079 2.70011 34.2193C2.66449 34.4485 2.64446 34.6823 2.64223 34.916C2.64223 35.2878 2.69566 35.6573 2.80918 36.0112C2.92048 36.354 3.11637 36.6634 3.37904 36.9105C3.65061 37.1687 4.02235 37.378 4.48981 37.5338C4.56772 37.5583 4.65008 37.5805 4.7369 37.605L6.15263 36.5588C5.8677 36.5499 5.58723 36.512 5.3112 36.4453L5.30898 36.443Z" fill="white"/>
<path d="M11.0899 34.4686C10.9697 33.9188 10.5623 33.4758 10.0237 33.3066C9.7276 33.1998 9.34918 33.1464 8.90176 33.1464C8.61238 33.1464 8.323 33.1642 8.03362 33.1998C7.7665 33.2354 7.48825 33.2821 7.21222 33.3423V36.5655H6.4309V37.7698H8.62351V34.3907H8.68138C8.7081 34.3907 8.73703 34.3907 8.76374 34.3862C8.79491 34.3818 8.8283 34.3818 8.85946 34.3818C9.19336 34.3818 9.43377 34.4642 9.57178 34.6267C9.70979 34.7891 9.77435 35.0518 9.77435 35.4236V37.7698H11.1968V35.4124C11.199 35.0941 11.1634 34.778 11.0899 34.4686Z" fill="white"/>
<path d="M4.28721 38.3061L6.15705 36.926V38.4775L4.28943 39.8599V38.3061H4.28721Z" fill="white"/>
<path d="M4.28721 38.3059C4.28721 38.3348 5.28446 39.1228 5.28446 39.1228L4.28721 39.8597V38.3949" fill="white"/>
<path d="M20.5014 31.913L22.3712 30.5328V32.0844L20.5036 33.4667V31.913H20.5014Z" fill="white"/>
<path d="M20.5014 31.9128C20.5014 31.9396 21.4986 32.7298 21.4986 32.7298L20.5014 33.4666V31.9997" fill="white"/>
<path d="M39.1219 36.9392C38.9482 36.9392 38.8102 36.9036 38.7078 36.8301C38.6054 36.7589 38.5275 36.6721 38.4719 36.5719V36.848C38.4719 37.1774 38.4251 37.4579 38.3338 37.6916C38.2426 37.9253 38.109 38.1168 37.9332 38.2681C37.7595 38.4173 37.5436 38.5264 37.2899 38.5976C37.0361 38.6666 36.7445 38.7022 36.4217 38.7022C35.7383 38.7022 35.2241 38.5486 34.8791 38.2392C34.5341 37.9298 34.3627 37.4868 34.3627 36.9081V35.7572H34.9748V36.7812C34.9748 37.262 35.0973 37.5981 35.3443 37.7918C35.5892 37.9854 35.9543 38.0812 36.4373 38.0812C36.6866 38.0812 36.9003 38.0611 37.0784 38.0255C37.2565 37.9877 37.4056 37.9231 37.5214 37.8318C37.6371 37.7406 37.7239 37.6137 37.7773 37.4512C37.833 37.2887 37.8597 37.0839 37.8597 36.8368V34.9202H38.4719V35.4968C38.4719 35.6214 38.4785 35.735 38.4941 35.8374C38.5097 35.9397 38.5409 36.0243 38.5876 36.0956C38.6344 36.1646 38.7011 36.2202 38.7857 36.2603C38.8703 36.3004 38.9838 36.3204 39.1219 36.3204C39.3222 36.3204 39.4201 36.4206 39.4201 36.6187C39.4201 36.7433 39.3956 36.8279 39.3489 36.8724C39.3022 36.917 39.2265 36.9392 39.1219 36.9392ZM36.0789 34.2703C36.0789 34.1612 36.1168 34.0677 36.1947 33.9898C36.2726 33.9119 36.3661 33.874 36.4751 33.874C36.5842 33.874 36.6777 33.9119 36.7556 33.9898C36.8335 34.0677 36.8714 34.1612 36.8714 34.2703C36.8714 34.3793 36.8335 34.4728 36.7556 34.5507C36.6777 34.6286 36.5842 34.6665 36.4751 34.6665C36.3661 34.6665 36.2726 34.6286 36.1947 34.5507C36.1168 34.4728 36.0789 34.3793 36.0789 34.2703Z" fill="white"/>
<path d="M39.1062 36.9394C38.9059 36.9394 38.8079 36.8392 38.8079 36.6389C38.8079 36.5142 38.8324 36.4296 38.8792 36.3851C38.9259 36.3406 39.0016 36.3183 39.1062 36.3183H39.4134C39.4735 36.3183 39.5358 36.3116 39.6004 36.2961C39.6649 36.2805 39.7295 36.2493 39.7941 36.1981C39.8586 36.1469 39.9232 36.0801 39.9855 35.9911C40.0478 35.9043 40.1057 35.7841 40.1613 35.6349C40.2749 35.3144 40.3973 35.0562 40.5242 34.8603C40.6511 34.6622 40.7802 34.5108 40.9137 34.404C41.0451 34.2971 41.1808 34.2259 41.3166 34.1903C41.4546 34.1546 41.5904 34.1368 41.724 34.1368C41.9132 34.1368 42.0868 34.1725 42.2471 34.2459C42.4074 34.3171 42.5454 34.4195 42.6611 34.5531C42.7791 34.6867 42.8704 34.8425 42.9372 35.025C43.0039 35.2075 43.0373 35.4123 43.0373 35.6349C43.0373 36.0646 42.9327 36.4051 42.7279 36.6589C42.5209 36.9104 42.2026 37.0373 41.7752 37.0373C41.5415 37.0373 41.3033 36.9972 41.0651 36.9171C40.8269 36.837 40.5798 36.7034 40.3261 36.5142C40.2615 36.6144 40.1947 36.6923 40.128 36.7502C40.0612 36.808 39.9899 36.8503 39.9143 36.877C39.8408 36.9038 39.7629 36.9216 39.6828 36.9305C39.6026 36.9394 39.518 36.9416 39.429 36.9416H39.1084L39.1062 36.9394ZM42.4252 35.6171C42.4252 35.5081 42.4096 35.4012 42.3762 35.2966C42.3428 35.192 42.2961 35.0985 42.2337 35.0206C42.1714 34.9404 42.0957 34.8781 42.0067 34.8291C41.9177 34.7824 41.813 34.7579 41.6928 34.7579C41.4836 34.7579 41.2921 34.8492 41.1163 35.0339C40.9427 35.2187 40.7779 35.5414 40.6221 36.0067C40.8069 36.1269 40.9894 36.2226 41.1719 36.2938C41.3545 36.3651 41.5392 36.4029 41.7284 36.4029C41.9377 36.4029 42.1069 36.3428 42.2337 36.2226C42.3606 36.1024 42.4252 35.9021 42.4252 35.6171Z" fill="white"/>
</svg>
