<svg width="28" height="28" viewBox="0 0 28 28" fill="none" xmlns="http://www.w3.org/2000/svg">
<path d="M14 1.6936L3.5 5.51233V14C3.5 23.5908 13.689 26.1996 13.7915 26.2252L14 26.2756L14.2085 26.2252C14.311 26.1996 24.5 23.5908 24.5 14V5.51233L14 1.6936ZM22.75 14C22.75 21.5939 15.392 24.0685 14.0034 24.4675C12.6644 24.071 5.25 21.5289 5.25 14V6.73767L14 3.5564L22.75 6.73767V14Z" fill="#6A7791"/>
<path d="M9.36865 13.3813L8.13135 14.6187L12.25 18.7373L19.8687 11.1187L18.6313 9.88135L12.25 16.2627L9.36865 13.3813Z" fill="#6A7791"/>
</svg>
