<svg width="61" height="40" viewBox="0 0 61 40" fill="none" xmlns="http://www.w3.org/2000/svg">
<path d="M3.23614 23.1341C2.31665 22.7806 1.51603 22.1854 0.921728 21.4124C0.327426 20.6153 0.00448529 19.6556 0 18.6674H4.31934C4.34401 19.1923 4.57276 19.6864 4.95849 20.0509C5.35544 20.3803 5.86452 20.5494 6.38482 20.5253C6.89165 20.5538 7.39401 20.4089 7.8089 20.119C8.15875 19.8467 8.35162 19.4272 8.33143 18.9902C8.34265 18.6147 8.19239 18.2524 7.91654 17.9911C7.61827 17.7166 7.2729 17.497 6.89614 17.341C6.33323 17.117 5.75912 16.9216 5.17603 16.7613C4.27224 16.5022 3.39088 16.175 2.53868 15.7841C1.84346 15.4481 1.24018 14.954 0.780441 14.3435C0.26239 13.6166 0.0044853 12.7426 0.044853 11.8576C0.044853 10.3379 0.607757 9.1477 1.73132 8.28906C2.85713 7.43261 4.32158 7.0022 6.12467 7C7.96813 7 9.44827 7.43042 10.5629 8.29126C11.6909 9.15649 12.3547 10.4807 12.366 11.8839H7.98382C7.9771 11.4052 7.75956 10.9528 7.39177 10.6388C6.99706 10.327 6.49919 10.1667 5.99011 10.1864C5.56401 10.1688 5.14687 10.3028 4.81721 10.5663C4.2229 11.1351 4.21169 12.0684 4.79254 12.6503C4.89121 12.7492 5.0011 12.8326 5.12445 12.9007C5.88022 13.2982 6.67636 13.6188 7.49941 13.8538C8.39423 14.1414 9.2711 14.4818 10.1233 14.8771C10.8073 15.2109 11.4039 15.6962 11.8658 16.2935C12.3839 16.9897 12.644 17.8395 12.6037 18.7004C12.6126 19.5963 12.3615 20.4747 11.8793 21.2346C11.3657 22.0164 10.6369 22.6422 9.78018 23.0397C8.76427 23.5096 7.64967 23.7402 6.5261 23.7139C5.40254 23.7314 4.2857 23.5338 3.23838 23.1341H3.23614Z" fill="#8D96AB"/>
<path d="M28.3247 7.23486V23.5534H24.2655V16.8336H17.9502V23.5534H13.891V7.23486H17.9502V13.6253H24.2655V7.23486H28.3247Z" fill="#8D96AB"/>
<path d="M34.1376 22.6444C32.8436 21.9439 31.7671 20.9118 31.027 19.66C29.4908 16.9853 29.4908 13.7198 31.027 11.0451C31.7716 9.79772 32.8458 8.76999 34.1376 8.07166C36.822 6.64864 40.0582 6.64864 42.7426 8.07166C44.0254 8.76779 45.0884 9.79553 45.8151 11.0451C47.3244 13.7264 47.3244 16.9787 45.8151 19.66C45.0817 20.9118 44.0142 21.9439 42.7269 22.6444C40.0447 24.0718 36.8041 24.0718 34.1219 22.6444H34.1376ZM41.6392 18.786C42.4376 17.9186 42.8368 16.7701 42.8368 15.3471C42.8368 13.924 42.4376 12.7536 41.6392 11.8949C39.8608 10.182 37.0082 10.182 35.2298 11.8949C34.4314 12.747 34.0299 13.9021 34.0299 15.358C34.0299 16.814 34.4291 17.9647 35.2298 18.8102C37.0014 20.5406 39.8676 20.5406 41.6392 18.8102V18.786Z" fill="#8D96AB"/>
<path d="M60.325 15.079C59.8495 15.8938 59.1386 16.5526 58.2819 16.972C57.2212 17.4859 56.0483 17.734 54.8641 17.6945L52.5183 17.611V17.073L48.3111 20.154L48.2887 7.23486H54.8641C56.0303 7.19753 57.1875 7.42811 58.2438 7.90904C59.1095 8.30872 59.8294 8.95874 60.3093 9.76907C60.7758 10.597 61.0135 11.5303 60.9978 12.4768C61.0067 13.3859 60.7758 14.2841 60.325 15.079ZM56.2905 13.9986C57.0395 13.129 57.0395 11.8575 56.2905 10.9901C55.9092 10.6343 55.3306 10.4564 54.5569 10.4564H52.3479V14.5454H54.5569C55.3306 14.5344 55.9092 14.3521 56.2905 13.9986Z" fill="#8D96AB"/>
<path d="M48.2887 20.5735L52.3815 17.6177V20.9424L48.2909 23.9027V20.5735H48.2887Z" fill="#8D96AB"/>
<path d="M48.2887 20.5737C48.2887 20.6352 50.473 22.3262 50.473 22.3262L48.2909 23.9029V20.7626" fill="#8D96AB"/>
<path d="M61 24.5332H0V34.0002H61V24.5332Z" fill="#8D96AB"/>
<path d="M25.6491 31.8399C24.9584 31.1832 24.6153 30.351 24.613 29.3408C24.613 28.3306 24.9562 27.5005 25.6447 26.8461C26.3331 26.1895 27.1764 25.8623 28.1744 25.8623C29.1723 25.8623 30.0133 26.1895 30.6951 26.8461C31.3791 27.5027 31.72 28.3328 31.72 29.3386C31.72 30.3444 31.3769 31.1767 30.6929 31.8377C30.0088 32.4943 29.1679 32.8237 28.1721 32.8281C27.1764 32.8325 26.3331 32.5031 25.6447 31.8399H25.6491ZM29.5043 30.7616C29.8362 30.4081 30.0021 29.9337 30.0021 29.3386C30.0021 28.7435 29.8339 28.2669 29.502 27.9134C29.1701 27.5598 28.7238 27.3841 28.1676 27.3841C27.6115 27.3841 27.1652 27.5598 26.8333 27.9134C26.5013 28.2669 26.3354 28.7413 26.3354 29.3364C26.3354 29.9315 26.5036 30.4059 26.8355 30.7594C27.1697 31.113 27.6137 31.2887 28.1699 31.2887C28.7261 31.2887 29.1723 31.113 29.5043 30.7616Z" fill="white"/>
<path d="M32.2246 27.2173V25.959L37.7012 25.9546V27.2129H35.8016L35.8061 32.7513H34.1152V27.2129L32.2246 27.2173Z" fill="white"/>
<path d="M39.2283 31.8316C38.5376 31.1728 38.1945 30.3405 38.1945 29.3325C38.1945 28.3245 38.5376 27.4944 39.2261 26.8378C39.9123 26.1812 40.7556 25.854 41.7558 25.854C42.756 25.854 43.5948 26.1812 44.2765 26.8378C44.9583 27.4922 45.3014 28.3223 45.3014 29.3281C45.3014 30.3339 44.9605 31.1662 44.2765 31.8272C43.5903 32.4838 42.7493 32.8132 41.7558 32.8154C40.7623 32.8176 39.9191 32.4904 39.2306 31.8294L39.2283 31.8316ZM43.0834 30.7533C43.4153 30.3998 43.5813 29.9254 43.5813 29.3303C43.5813 28.7352 43.4131 28.2608 43.0812 27.9073C42.7493 27.5537 42.303 27.378 41.7468 27.378C41.1906 27.378 40.7443 27.5537 40.4124 27.9073C40.0783 28.2608 39.9123 28.7352 39.9146 29.3303C39.9146 29.9254 40.0828 30.3998 40.4147 30.7533C40.7488 31.1069 41.1929 31.2826 41.7491 31.2826C42.3052 31.2826 42.7515 31.1047 43.0834 30.7511V30.7533Z" fill="white"/>
<path d="M47.4858 30.1007V32.7447H45.7971L45.7926 25.9458H48.5309C49.336 25.9458 49.9617 26.1478 50.4102 26.5519C50.843 26.923 51.0875 27.4611 51.083 28.0232C51.0763 28.4339 50.9507 28.8336 50.7175 29.1761C50.473 29.5495 50.0761 29.8152 49.5221 29.9711L51.2243 32.7381H49.2463L47.6832 30.1007H47.4858ZM47.4858 27.2063V28.8423H48.5331C48.7596 28.8533 48.9794 28.7743 49.1409 28.6205C49.2911 28.4624 49.3719 28.2494 49.3629 28.0342C49.3696 27.8146 49.2866 27.5994 49.1319 27.4391C48.9749 27.281 48.7551 27.1975 48.5286 27.2063H47.4858Z" fill="white"/>
<path d="M55.8172 32.7383H54.124V30.5511L51.7177 25.946H53.6351L54.974 29.0139L56.2971 25.9438H58.2146L55.8172 30.5533V32.7361V32.7383Z" fill="white"/>
<path d="M24.1197 27.4921V25.5684L19.9439 28.5857L15.6829 25.5749L15.6873 32.7691H17.2953L17.2908 29.0403L19.9035 30.7488L24.1197 27.4921Z" fill="white"/>
<path d="M8.0107 29.8155C8.27084 30.1208 8.40092 30.4743 8.40092 30.8784C8.40092 31.2078 8.3157 31.5043 8.14974 31.7678C7.98154 32.0313 7.73485 32.2399 7.41191 32.3914C7.08897 32.543 6.70099 32.6198 6.25022 32.6198H3.94702V26.1064H6.18294C6.85573 26.1064 7.36706 26.258 7.71915 26.5632C8.07125 26.8685 8.24842 27.2615 8.24842 27.7469C8.24842 28.1509 8.13629 28.4781 7.91426 28.7307C7.69224 28.9832 7.40743 29.1589 7.05757 29.2577C7.4321 29.3258 7.74831 29.5125 8.00846 29.8177L8.0107 29.8155ZM4.61309 28.9854H6.165C6.61577 28.9854 6.96338 28.8822 7.20783 28.6736C7.45228 28.465 7.57338 28.1773 7.57338 27.8127C7.57338 27.4482 7.45228 27.1693 7.20783 26.9651C6.96338 26.7609 6.6068 26.6576 6.13809 26.6576H4.61533V28.9876L4.61309 28.9854ZM7.32893 31.7348C7.59805 31.5108 7.73261 31.2034 7.73261 30.8125C7.73261 30.4216 7.59132 30.1098 7.30875 29.877C7.02618 29.6442 6.64717 29.5278 6.17173 29.5278H4.61084V32.0708H6.20088C6.68305 32.0708 7.05982 31.9588 7.32893 31.7348Z" fill="white"/>
<path d="M14.0255 26.1084L11.895 30.0876V32.6218H11.2289V30.0876L9.07825 26.1084H9.82953L11.5609 29.4903L13.2832 26.1084H14.0255Z" fill="white"/>
<path d="M21.4711 30.9199L23.9873 29.1016V31.1461L21.4711 32.9666V30.9199Z" fill="white"/>
</svg>
