<svg width="61" height="40" viewBox="0 0 61 40" fill="none" xmlns="http://www.w3.org/2000/svg">
<path d="M37.8681 23.1772C38.7193 23.1973 41.646 23.3046 42.41 22.929C43.1048 22.5735 43.6589 21.9922 43.9828 21.2834C44.3961 21.9989 44.9926 22.5892 45.7098 22.9983C46.4225 23.3337 47.2022 23.4947 47.9886 23.4701C48.8576 23.4858 49.7178 23.3024 50.5042 22.929C51.2236 22.5892 51.8022 22.0078 52.1351 21.2834C52.5417 21.9855 53.1159 22.5757 53.8084 22.9983C54.4988 23.3382 55.2651 23.5014 56.0336 23.4701C56.6524 23.4701 57.2691 23.3717 57.8566 23.1772C58.442 22.9871 58.9781 22.6697 59.4294 22.2515C59.9075 21.8021 60.2829 21.2543 60.5331 20.6462C60.828 19.8994 60.9687 19.0989 60.9486 18.2963V10.6428L57.383 13.4086L57.3897 18.2672C57.3897 19.0028 57.202 19.5148 56.8245 19.8032C56.4469 20.0917 55.8348 20.2325 54.9858 20.2303C54.1927 20.2303 53.6453 20.0648 53.3415 19.7339C53.0265 19.4008 52.8857 18.8664 52.8857 18.1286L52.8634 11.8323L49.2799 14.4818L49.2374 18.2359C49.2374 18.976 49.0431 19.4925 48.6566 19.7876C48.2678 20.0805 47.6602 20.2281 46.8336 20.2281C46.0404 20.2281 45.4931 20.0626 45.1892 19.7317C44.8854 19.4008 44.7335 18.8664 44.7335 18.1263V13.46L40.969 16.0514L41.083 18.2381C41.083 18.9782 40.8908 19.4947 40.5043 19.7898C40.1178 20.0827 38.8466 20.2303 38.02 20.2303" fill="#8D96AB"/>
<path d="M40.9623 23.1772L30.2118 23.1682L33.5943 20.228H40.9623V23.1772Z" fill="#8D96AB"/>
<path d="M18.4135 13.4041V20.4963H6.65093C6.03208 20.4963 5.52271 20.474 5.1228 20.427C4.7229 20.3823 4.40342 20.2951 4.16884 20.1677C3.93202 20.0402 3.76893 19.8681 3.67734 19.6489C3.58574 19.4298 3.54106 19.1503 3.54106 18.8038V12.7691L0 15.3873V19.3225C0 20.1051 0.0960665 20.7669 0.285965 21.3124C0.475864 21.858 0.790873 22.3029 1.22652 22.6473C1.66217 22.9938 2.24304 23.242 2.96913 23.3963C3.69521 23.5506 4.59332 23.6288 5.66569 23.6288H11.1594L13.4069 21.9698V23.6288H21.9568V10.7859L18.4157 13.4041H18.4135Z" fill="#8D96AB"/>
<path d="M8.83365 25.7664L13.1678 22.5646L13.1723 26.1644L8.83588 29.3706L8.83365 25.7664Z" fill="#8D96AB"/>
<path d="M8.83363 25.7664C8.83363 25.8312 11.1459 27.6646 11.1459 27.6646L8.83587 29.3728V25.9698" fill="#8D96AB"/>
<path d="M48.4711 2.68977L52.1127 0V3.02515L48.4711 5.7194V2.68977Z" fill="#8D96AB"/>
<path d="M49.5032 10.3231L52.9505 7.77416L52.946 3.36499L49.5032 5.90719V10.3231Z" fill="#8D96AB"/>
<path d="M49.0609 6.23364L47.6378 7.28451L47.6401 11.7004L49.0609 10.6495V6.23364Z" fill="#8D96AB"/>
<path d="M61 30.2739H0.00224304V40H61V30.2739Z" fill="#8D96AB"/>
<path d="M32.2381 33.7125C31.7757 33.2586 31.197 33.0283 30.5201 33.0283C29.8432 33.0283 29.2623 33.2586 28.7976 33.7147C28.5139 33.9853 28.3061 34.3274 28.1966 34.703L27.2516 35.329C27.2248 34.6851 26.9925 34.1418 26.5546 33.7147C26.0921 33.2609 25.5135 33.0306 24.8365 33.0306C24.1596 33.0306 23.581 33.2609 23.1141 33.717C22.6471 34.1709 22.4103 34.7589 22.4103 35.4543C22.4103 36.1496 22.6471 36.7377 23.1163 37.1938C23.3151 37.3905 23.5475 37.5515 23.8022 37.6678L22.7298 38.3833V39.8008L26.1926 37.4934L26.2195 37.471C26.3356 37.3659 26.4518 37.2944 26.5568 37.1938L28.1832 36.1362C28.2882 36.5409 28.5027 36.9076 28.8021 37.1982C29.269 37.6544 29.8476 37.8847 30.5223 37.8847C31.197 37.8847 31.7757 37.6521 32.2404 37.196C32.7051 36.7399 32.9419 36.1541 32.9396 35.4543C32.9396 34.7544 32.7073 34.1731 32.2448 33.7192L32.2381 33.7125ZM25.6743 36.3777C25.4621 36.608 25.1873 36.722 24.8298 36.722C24.4791 36.722 24.1954 36.608 23.9876 36.3799C23.7798 36.1519 23.6703 35.8388 23.6703 35.452C23.6703 35.0652 23.7753 34.7522 23.9876 34.5241C24.1976 34.2961 24.4791 34.1798 24.8298 34.1798C25.1806 34.1798 25.4666 34.2938 25.6743 34.5219C25.8821 34.75 25.9916 35.063 25.9916 35.4498C25.9916 35.8366 25.8866 36.1496 25.6766 36.3777H25.6743ZM31.3601 36.3777C31.1501 36.608 30.8731 36.722 30.5156 36.722C30.1649 36.722 29.8812 36.608 29.6711 36.3799C29.4611 36.1541 29.3539 35.8388 29.3539 35.452C29.3539 35.0652 29.4589 34.7522 29.6689 34.5241C29.8789 34.2961 30.156 34.1798 30.5134 34.1798C30.8642 34.1798 31.1479 34.2938 31.3557 34.5219C31.5634 34.75 31.6729 35.063 31.6729 35.4498C31.6729 35.8366 31.5679 36.1474 31.3579 36.3777H31.3601Z" fill="white"/>
<path d="M20.3594 34.0904V36.134H13.9587C13.9163 36.134 13.8716 36.134 13.8291 36.1407V33.2944L12.6026 34.1843V36.5543C12.6026 36.7734 12.587 37.2005 12.5535 37.3659C12.5244 37.5224 12.4596 37.67 12.3636 37.7952C12.2809 37.8981 12.1781 37.983 12.062 38.0479L10.927 38.5621V39.765C10.927 39.765 12.377 39.1278 12.5378 39.054C13.1209 38.8215 13.5543 38.3207 13.6973 37.7103C13.7241 37.6074 13.7442 37.2653 13.7666 37.1491H13.7755C13.8358 37.1602 13.8984 37.1647 13.9587 37.1625H21.5859V33.2899L20.3572 34.0881L20.3594 34.0904Z" fill="white"/>
<path d="M4.95748 36.3911C4.65141 36.3106 4.40119 36.1899 4.21799 36.0356C4.03479 35.8858 3.89851 35.6891 3.82032 35.4677C3.73542 35.1524 3.69968 34.826 3.71532 34.5018V32.9769L2.41283 33.7438C2.38602 33.8802 2.36145 34.0166 2.33911 34.1575C2.30336 34.3878 2.28326 34.6225 2.28102 34.8573C2.28102 35.2307 2.33464 35.6019 2.44858 35.9574C2.56028 36.3017 2.75689 36.6125 3.02051 36.8607C3.29307 37.12 3.66617 37.3302 4.13533 37.4867C4.21352 37.5113 4.29618 37.5337 4.38331 37.5583L5.8042 36.5074C5.51824 36.4984 5.23674 36.4604 4.95971 36.3934L4.95748 36.3911Z" fill="white"/>
<path d="M10.7572 34.4058C10.6366 33.8535 10.2277 33.4085 9.68707 33.2386C9.38993 33.1313 9.01013 33.0776 8.56108 33.0776C8.27065 33.0776 7.98021 33.0955 7.68978 33.1313C7.42169 33.1671 7.14242 33.214 6.86539 33.2744V36.512H6.08122V37.7216H8.28182V34.3275H8.3399C8.36671 34.3275 8.39576 34.3275 8.42256 34.323C8.45384 34.3186 8.48735 34.3186 8.51863 34.3186C8.85375 34.3186 9.09503 34.4013 9.23354 34.5645C9.37206 34.7277 9.43685 34.9916 9.43685 35.3649V37.7216H10.8644V35.3538C10.8667 35.034 10.8309 34.7165 10.7572 34.4058Z" fill="white"/>
<path d="M3.92979 38.2604L5.80644 36.8741V38.4326L3.93203 39.821V38.2604H3.92979Z" fill="white"/>
<path d="M3.92979 38.2604C3.92979 38.2894 4.93147 39.0809 4.93147 39.0809L3.92979 39.821V38.3498" fill="white"/>
<path d="M20.2052 31.8389L22.0819 30.4526V32.011L20.2075 33.3995V31.8389H20.2052Z" fill="white"/>
<path d="M20.2052 31.8389C20.2052 31.8657 21.2069 32.6594 21.2069 32.6594L20.2052 33.3995V31.9261" fill="white"/>
<path d="M38.8913 36.8875C38.7171 36.8875 38.5785 36.8518 38.4758 36.778C38.373 36.7064 38.2948 36.6192 38.239 36.5186V36.7959C38.239 37.1268 38.192 37.4085 38.1004 37.6433C38.0089 37.878 37.8748 38.0703 37.6983 38.2224C37.5241 38.3722 37.3073 38.4817 37.0527 38.5533C36.798 38.6226 36.5053 38.6583 36.1814 38.6583C35.4955 38.6583 34.9794 38.5041 34.6331 38.1933C34.2868 37.8825 34.1148 37.4376 34.1148 36.8562V35.7003H34.7292V36.7288C34.7292 37.2117 34.8521 37.5494 35.1 37.7439C35.3458 37.9384 35.7122 38.0345 36.197 38.0345C36.4472 38.0345 36.6617 38.0144 36.8404 37.9786C37.0191 37.9406 37.1688 37.8758 37.285 37.7841C37.4012 37.6924 37.4883 37.565 37.5419 37.4018C37.5978 37.2386 37.6246 37.0329 37.6246 36.7847V34.8596H38.239V35.4387C38.239 35.5639 38.2457 35.6779 38.2613 35.7808C38.2769 35.8836 38.3082 35.9686 38.3551 36.0401C38.4021 36.1094 38.4691 36.1653 38.554 36.2056C38.6389 36.2458 38.7528 36.266 38.8913 36.266C39.0924 36.266 39.1907 36.3666 39.1907 36.5656C39.1907 36.6908 39.1661 36.7757 39.1192 36.8205C39.0723 36.8652 38.9963 36.8875 38.8913 36.8875ZM35.8373 34.2067C35.8373 34.0971 35.8753 34.0032 35.9535 33.925C36.0317 33.8467 36.1255 33.8087 36.235 33.8087C36.3444 33.8087 36.4383 33.8467 36.5165 33.925C36.5947 34.0032 36.6326 34.0971 36.6326 34.2067C36.6326 34.3163 36.5947 34.4102 36.5165 34.4884C36.4383 34.5667 36.3444 34.6047 36.235 34.6047C36.1255 34.6047 36.0317 34.5667 35.9535 34.4884C35.8753 34.4102 35.8373 34.3163 35.8373 34.2067Z" fill="white"/>
<path d="M38.8757 36.8875C38.6746 36.8875 38.5763 36.7869 38.5763 36.5856C38.5763 36.4604 38.6009 36.3755 38.6478 36.3308C38.6947 36.286 38.7707 36.2637 38.8757 36.2637H39.184C39.2443 36.2637 39.3069 36.257 39.3716 36.2413C39.4364 36.2257 39.5012 36.1944 39.566 36.1429C39.6308 36.0915 39.6956 36.0244 39.7581 35.935C39.8207 35.8478 39.8788 35.7271 39.9346 35.5773C40.0486 35.2553 40.1715 34.9959 40.2988 34.7992C40.4261 34.6002 40.5557 34.4481 40.6898 34.3408C40.8216 34.2335 40.9579 34.1619 41.0941 34.1262C41.2327 34.0904 41.3689 34.0725 41.503 34.0725C41.6929 34.0725 41.8671 34.1083 42.028 34.1821C42.1889 34.2536 42.3274 34.3565 42.4435 34.4906C42.562 34.6248 42.6536 34.7813 42.7206 34.9646C42.7876 35.148 42.8211 35.3537 42.8211 35.5773C42.8211 36.0088 42.7161 36.3509 42.5106 36.6058C42.3028 36.8584 41.9833 36.9859 41.5544 36.9859C41.3198 36.9859 41.0807 36.9456 40.8417 36.8651C40.6026 36.7846 40.3547 36.6505 40.1 36.4604C40.0352 36.5611 39.9682 36.6393 39.9011 36.6974C39.8341 36.7556 39.7626 36.7981 39.6867 36.8249C39.6129 36.8517 39.5347 36.8696 39.4543 36.8785C39.3739 36.8875 39.289 36.8897 39.1996 36.8897H38.8779L38.8757 36.8875ZM42.2067 35.5594C42.2067 35.4498 42.1911 35.3425 42.1576 35.2374C42.1241 35.1323 42.0772 35.0384 42.0146 34.9602C41.952 34.8797 41.8761 34.8171 41.7867 34.7679C41.6974 34.7209 41.5924 34.6963 41.4717 34.6963C41.2617 34.6963 41.0696 34.788 40.8931 34.9736C40.7188 35.1591 40.5535 35.4834 40.3971 35.9507C40.5825 36.0714 40.7657 36.1675 40.9489 36.2391C41.1321 36.3106 41.3176 36.3486 41.5075 36.3486C41.7175 36.3486 41.8873 36.2883 42.0146 36.1675C42.1419 36.0468 42.2067 35.8456 42.2067 35.5594Z" fill="white"/>
<path d="M36.5477 13.7082C36.0004 12.7625 35.2519 12.0246 34.3002 11.4947C33.3485 10.9648 32.3029 10.6987 31.1635 10.6987C30.0241 10.6987 28.9763 10.9648 28.0268 11.4947C27.0751 12.0246 26.3222 12.7647 25.7615 13.7082C25.2029 14.654 24.9237 15.7205 24.9237 16.9078C24.9237 18.095 25.2029 19.166 25.7615 20.1163C26.32 21.0688 27.0751 21.8088 28.0268 22.3388C28.3664 22.5288 28.7172 22.6808 29.0791 22.8038H29.0121L25.3459 25.3035L25.3504 29.1537L34.7627 22.8776L34.8342 22.8172L33.2167 22.8128C33.5875 22.6898 33.9472 22.531 34.2935 22.3388C35.2385 21.8088 35.987 21.0665 36.541 20.1163C37.0951 19.1638 37.3699 18.095 37.3699 16.9078C37.3699 15.7205 37.0951 14.654 36.5477 13.7082ZM33.3664 19.3047C32.8168 19.9039 32.1019 20.1968 31.1725 20.1968C30.2632 20.1968 29.5282 19.8972 28.9853 19.3091C28.4424 18.7189 28.1631 17.905 28.1609 16.9033C28.1587 15.9016 28.4357 15.09 28.983 14.4953C29.5304 13.9028 30.2587 13.6031 31.1725 13.6031C32.084 13.6031 32.8235 13.9028 33.3641 14.4908C33.9048 15.0788 34.1863 15.8949 34.1863 16.8966C34.1863 17.8983 33.9137 18.7099 33.3686 19.3047H33.3664Z" fill="#8D96AB"/>
</svg>
