<svg width="40" height="40" viewBox="0 0 40 40" fill="none" xmlns="http://www.w3.org/2000/svg">
<g id="Icon">
<path id="Path" d="M20 0.000244141C23.9556 0.000244141 27.8224 1.17322 31.1114 3.37085C34.4004 5.56848 36.9638 8.69205 38.4776 12.3466C39.9913 16.0011 40.3874 20.0224 39.6157 23.9021C38.844 27.7817 36.9392 31.3453 34.1421 34.1424C31.3451 36.9394 27.7814 38.8442 23.9018 39.616C20.0222 40.3877 16.0009 39.9916 12.3463 38.4778C8.69181 36.9641 5.56824 34.4006 3.37061 31.1116C1.17298 27.8227 0 23.9559 0 20.0002C0 14.6959 2.10714 9.60884 5.85786 5.85811C9.60859 2.10738 14.6957 0.000244141 20 0.000244141V0.000244141Z" fill="#EBF9F5"/>
<path id="store" d="M28.0002 12.0002H11.9998V13.9999H28.0002V12.0002ZM29 22.0003V20.0007L28.0002 15.0006H11.9998L11 20.0007V22.0003H11.9998V28.0002H21.9996V22.0003H25.9997V28.0002H27.9994V22.0003H29ZM20 26.0006H14.0003V22.0003H20V26.0006Z" fill="url(#paint0_linear_1073_580)"/>
</g>
<defs>
<linearGradient id="paint0_linear_1073_580" x1="20" y1="28.0002" x2="20" y2="12.0002" gradientUnits="userSpaceOnUse">
<stop stop-color="#127E65"/>
<stop offset="1" stop-color="#13D1C8"/>
</linearGradient>
</defs>
</svg>
