<svg width="50" height="50" viewBox="0 0 50 50" fill="none" xmlns="http://www.w3.org/2000/svg">
<path d="M25 49.9999C38.8071 49.9999 50 38.807 50 24.9999C50 11.1928 38.8071 -0.00012207 25 -0.00012207C11.1929 -0.00012207 0 11.1928 0 24.9999C0 38.807 11.1929 49.9999 25 49.9999Z" fill="#EAF7F9"/>
<path d="M35.6958 19.4481L25.542 11.1907C25.3895 11.0674 25.1972 10.9999 24.9986 10.9999C24.8001 10.9999 24.6078 11.0674 24.4553 11.1907L14.3033 19.4481C14.17 19.5563 14.0742 19.7016 14.0291 19.8644C13.9839 20.0271 13.9915 20.1994 14.0509 20.3578C14.1102 20.5163 14.2184 20.6531 14.3608 20.7499C14.5032 20.8466 14.6728 20.8985 14.8467 20.8985H18.9102L15.7052 38.0341C15.6833 38.1523 15.6885 38.2736 15.7203 38.3897C15.752 38.5057 15.8097 38.6135 15.8891 38.7056C15.9686 38.7977 16.0679 38.8718 16.18 38.9226C16.2922 38.9735 16.4145 38.9998 16.5383 38.9999H33.4616C33.5855 38.9998 33.7078 38.9735 33.82 38.9226C33.9321 38.8718 34.0314 38.7977 34.1109 38.7056C34.1903 38.6135 34.248 38.5057 34.2797 38.3897C34.3115 38.2736 34.3167 38.1523 34.2948 38.0341L31.0898 20.8994H35.1533C35.3272 20.8994 35.4968 20.8475 35.6392 20.7507C35.7816 20.654 35.8898 20.5171 35.9491 20.3587C36.0085 20.2003 36.0161 20.028 35.9709 19.8652C35.9258 19.7025 35.83 19.5571 35.6967 19.449L35.6958 19.4481Z" fill="url(#paint0_linear_578_2206)"/>
<path d="M24.9979 27.4613C24.8306 27.4613 24.667 27.4132 24.5279 27.3231C24.3888 27.233 24.2804 27.1049 24.2164 26.9551C24.1524 26.8053 24.1356 26.6404 24.1683 26.4813C24.2009 26.3222 24.2814 26.1761 24.3997 26.0614C24.518 25.9468 24.6688 25.8687 24.8328 25.837C24.9969 25.8054 25.167 25.8216 25.3215 25.8837C25.4761 25.9457 25.6082 26.0508 25.7012 26.1857C25.7941 26.3205 25.8437 26.4791 25.8437 26.6413C25.8437 26.8589 25.9329 27.0676 26.0916 27.2215C26.2503 27.3753 26.4655 27.4618 26.69 27.4618C26.9145 27.4618 27.1297 27.3753 27.2884 27.2215C27.4471 27.0676 27.5363 26.8589 27.5363 26.6413C27.5345 26.134 27.3708 25.6397 27.0678 25.2261C26.7648 24.8125 26.3372 24.5 25.8437 24.3313V23.3603C25.8437 23.1427 25.7545 22.934 25.5958 22.7801C25.4371 22.6262 25.2219 22.5398 24.9974 22.5398C24.7729 22.5398 24.5577 22.6262 24.399 22.7801C24.2403 22.934 24.1511 23.1427 24.1511 23.3603V24.3313C23.5908 24.5272 23.1195 24.908 22.8198 25.407C22.5201 25.906 22.4111 26.4913 22.512 27.0604C22.6129 27.6295 22.9172 28.146 23.3716 28.5193C23.8259 28.8927 24.4013 29.0991 24.9969 29.1023C25.1642 29.1023 25.3278 29.1504 25.4669 29.2405C25.606 29.3306 25.7144 29.4587 25.7784 29.6085C25.8424 29.7583 25.8592 29.9232 25.8265 30.0823C25.7939 30.2414 25.7133 30.3875 25.5951 30.5022C25.4768 30.6168 25.326 30.695 25.162 30.7266C24.9979 30.7582 24.8278 30.742 24.6733 30.6799C24.5187 30.6178 24.3866 30.5127 24.2936 30.3779C24.2007 30.243 24.1511 30.0845 24.1511 29.9223C24.1511 29.7047 24.0619 29.496 23.9032 29.3422C23.7445 29.1883 23.5292 29.1018 23.3048 29.1018C23.0803 29.1018 22.8651 29.1883 22.7064 29.3422C22.5477 29.496 22.4585 29.7047 22.4585 29.9223C22.4603 30.4296 22.624 30.9239 22.927 31.3375C23.23 31.7511 23.6576 32.0636 24.1511 32.2323V33.2033C24.1511 33.4209 24.2403 33.6296 24.399 33.7835C24.5577 33.9374 24.7729 34.0238 24.9974 34.0238C25.2219 34.0238 25.4371 33.9374 25.5958 33.7835C25.7545 33.6296 25.8437 33.4209 25.8437 33.2033V32.2323C26.404 32.0364 26.8753 31.6556 27.175 31.1566C27.4747 30.6576 27.5837 30.0723 27.4828 29.5032C27.3819 28.9341 27.0776 28.4176 26.6232 28.0443C26.1689 27.6709 25.5934 27.4646 24.9979 27.4613Z" fill="#EAF7F9"/>
<defs>
<linearGradient id="paint0_linear_578_2206" x1="25" y1="38.9999" x2="25" y2="10.9999" gradientUnits="userSpaceOnUse">
<stop stop-color="#0E7490"/>
<stop offset="1" stop-color="#67E8F9"/>
</linearGradient>
</defs>
</svg>
