<svg width="56" height="56" viewBox="0 0 56 56" fill="none" xmlns="http://www.w3.org/2000/svg">
<path d="M28 56C43.464 56 56 43.464 56 28C56 12.536 43.464 0 28 0C12.536 0 0 12.536 0 28C0 43.464 12.536 56 28 56Z" fill="#EEF6EA"/>
<path d="M33.8054 16.0822C31.5442 14.2346 28.619 13.5686 25.7561 14.2776C22.4368 15.0725 19.7606 17.8009 18.9515 21.2169C18.1424 24.6543 19.076 28.1348 21.4617 30.5625C22.3123 31.4434 22.8102 32.8254 22.8102 34.2435V34.4798C22.8102 35.0813 23.2665 35.554 23.8475 35.554H32.1457C32.7267 35.554 33.183 35.0813 33.183 34.4798V34.2435C33.183 32.8469 33.7017 31.4218 34.6145 30.498C36.3572 28.6719 37.3322 26.2442 37.3322 23.6661C37.3322 20.7013 36.0459 17.9298 33.8054 16.0822ZM27.9966 20.4435C26.4317 20.4435 25.2925 21.5185 24.9942 22.7629C24.8584 23.3289 24.3085 23.6901 23.737 23.5476C23.182 23.405 22.8426 22.8217 22.9804 22.2468C23.4943 20.0984 25.4429 18.2951 27.9966 18.2951C28.5699 18.2951 29.0339 18.7756 29.0339 19.3693C29.0339 19.9631 28.5699 20.4435 27.9966 20.4435Z" fill="url(#paint0_linear_645_24550)"/>
<path d="M23.8477 37.7033V38.7775C23.8477 40.5545 25.2436 42.0001 26.9595 42.0001H29.0341C30.75 42.0001 32.1459 40.5545 32.1459 38.7775V37.7033H23.8477Z" fill="url(#paint1_linear_645_24550)"/>
<defs>
<linearGradient id="paint0_linear_645_24550" x1="27.9991" y1="14" x2="27.9977" y2="41.9992" gradientUnits="userSpaceOnUse">
<stop stop-color="#BEC03B"/>
<stop offset="1" stop-color="#54A32F"/>
</linearGradient>
<linearGradient id="paint1_linear_645_24550" x1="27.9992" y1="14.876" x2="27.996" y2="42.9917" gradientUnits="userSpaceOnUse">
<stop stop-color="#BEC03B"/>
<stop offset="1" stop-color="#54A32F"/>
</linearGradient>
</defs>
</svg>
