<svg width="40" height="40" viewBox="0 0 40 40" fill="none" xmlns="http://www.w3.org/2000/svg">
<path d="M20 40.0002C31.0457 40.0002 40 31.0459 40 20.0002C40 8.95455 31.0457 0.000244141 20 0.000244141C8.9543 0.000244141 0 8.95455 0 20.0002C0 31.0459 8.9543 40.0002 20 40.0002Z" fill="#FEF1F4"/>
<g clip-path="url(#clip0_1073_615)">
<path d="M19.9997 30.0004C18.022 30.0002 16.0888 29.4136 14.4445 28.3148C12.8003 27.2159 11.5187 25.6542 10.762 23.8271C10.0053 21.9999 9.8073 19.9894 10.1932 18.0498C10.579 16.1101 11.5314 14.3284 12.9298 12.93C14.3282 11.5316 16.1099 10.5793 18.0495 10.1934C19.9892 9.80754 21.9997 10.0055 23.8268 10.7622C25.654 11.519 27.2157 12.8005 28.3145 14.4448C29.4133 16.0891 29.9999 18.0223 30.0001 19.9999C30.0015 21.3136 29.7438 22.6146 29.2417 23.8285C28.7396 25.0425 28.003 26.1455 27.0741 27.0744C26.1452 28.0033 25.0422 28.7398 23.8283 29.2419C22.6144 29.744 21.3133 30.0017 19.9997 30.0004Z" fill="url(#paint0_linear_1073_615)"/>
<path d="M16.4846 24.6881V15.3132C16.4846 15.2071 16.5134 15.103 16.568 15.012C16.6225 14.921 16.7007 14.8465 16.7942 14.7965C16.8877 14.7464 16.993 14.7226 17.099 14.7277C17.2049 14.7328 17.3075 14.7665 17.3958 14.8253L24.4266 19.5128C24.5067 19.5664 24.5724 19.6389 24.6179 19.7239C24.6633 19.8089 24.6871 19.9038 24.6871 20.0002C24.6871 20.0966 24.6633 20.1915 24.6179 20.2765C24.5724 20.3615 24.5067 20.434 24.4266 20.4876L17.3958 25.1751C17.3076 25.2338 17.2051 25.2676 17.0992 25.2727C16.9933 25.2778 16.888 25.2541 16.7946 25.2042C16.7011 25.1542 16.6229 25.0798 16.5683 24.989C16.5137 24.8981 16.4848 24.7941 16.4846 24.6881Z" fill="url(#paint1_linear_1073_615)"/>
</g>
<defs>
<linearGradient id="paint0_linear_1073_615" x1="20.0005" y1="30.0004" x2="20.0005" y2="10.0012" gradientUnits="userSpaceOnUse">
<stop stop-color="#FD2F57"/>
<stop offset="1" stop-color="#FF9172"/>
</linearGradient>
<linearGradient id="paint1_linear_1073_615" x1="20.5858" y1="25.2734" x2="20.5858" y2="14.7271" gradientUnits="userSpaceOnUse">
<stop stop-color="#FFC2CC"/>
<stop offset="1" stop-color="#FFF2F4"/>
</linearGradient>
<clipPath id="clip0_1073_615">
<rect width="20" height="20" fill="white" transform="translate(10 10.0002)"/>
</clipPath>
</defs>
</svg>
