<svg width="40" height="40" viewBox="0 0 40 40" fill="none" xmlns="http://www.w3.org/2000/svg">
<path d="M20 6.10352e-05C23.9556 6.10352e-05 27.8224 1.17304 31.1114 3.37067C34.4004 5.5683 36.9638 8.69187 38.4776 12.3464C39.9913 16.0009 40.3874 20.0222 39.6157 23.9019C38.844 27.7815 36.9392 31.3451 34.1421 34.1422C31.3451 36.9392 27.7814 38.8441 23.9018 39.6158C20.0222 40.3875 16.0009 39.9914 12.3463 38.4777C8.69181 36.9639 5.56824 34.4004 3.37061 31.1115C1.17298 27.8225 0 23.9557 0 20.0001C0 14.6957 2.10714 9.60865 5.85786 5.85793C9.60859 2.1072 14.6957 6.10352e-05 20 6.10352e-05V6.10352e-05Z" fill="#EEF5F9"/>
<path d="M11 17.5454V24.909C11.0004 25.9938 11.4315 27.0341 12.1986 27.8012C12.9657 28.5683 14.006 28.9994 15.0909 28.9998H24.909C25.9939 28.9994 27.0342 28.5683 27.8013 27.8012C28.5684 27.0341 28.9995 25.9938 28.9999 24.909V17.5454H11ZM22.8554 23.1662L17.9463 25.9317C17.8248 26.0029 17.6862 26.0397 17.5454 26.038C17.3294 26.035 17.1231 25.9478 16.9703 25.795C16.8175 25.6422 16.7303 25.4359 16.7272 25.2199V19.689C16.7284 19.5466 16.7666 19.4071 16.838 19.2839C16.9093 19.1608 17.0115 19.0583 17.1344 18.9865C17.2573 18.9147 17.3968 18.8761 17.5391 18.8745C17.6815 18.8729 17.8218 18.9082 17.9463 18.9772L22.8554 21.7426C22.9819 21.8135 23.0873 21.9168 23.1606 22.0419C23.234 22.167 23.2726 22.3094 23.2726 22.4544C23.2726 22.5994 23.234 22.7418 23.1606 22.867C23.0873 22.9921 22.9819 23.0954 22.8554 23.1662Z" fill="url(#paint0_linear_1073_653)"/>
<path d="M15.9991 15.9089H11V15.0907C10.9992 14.4098 11.1687 13.7394 11.4931 13.1407C11.8174 12.5419 12.2864 12.0338 12.8573 11.6626L13.8309 12.988L15.9991 15.9089Z" fill="url(#paint1_linear_1073_653)"/>
<path d="M23.3708 15.909H18.0363L15.6145 12.6363L14.4364 11.0572C14.6522 11.0175 14.8714 10.9983 15.0909 10.9999H19.7709L20.9654 12.6363L23.3708 15.909Z" fill="url(#paint2_linear_1073_653)"/>
<path d="M28.9999 15.0908V15.909H25.3999L22.9863 12.6363L21.7836 10.9999H24.909C25.9939 11.0003 27.0342 11.4315 27.8013 12.1986C28.5684 12.9657 28.9995 14.006 28.9999 15.0908Z" fill="url(#paint3_linear_1073_653)"/>
<defs>
<linearGradient id="paint0_linear_1073_653" x1="20" y1="10.9998" x2="20" y2="28.9998" gradientUnits="userSpaceOnUse">
<stop stop-color="#37B8E0"/>
<stop offset="1" stop-color="#287EB6"/>
</linearGradient>
<linearGradient id="paint1_linear_1073_653" x1="20" y1="10.9998" x2="20" y2="28.9998" gradientUnits="userSpaceOnUse">
<stop stop-color="#37B8E0"/>
<stop offset="1" stop-color="#287EB6"/>
</linearGradient>
<linearGradient id="paint2_linear_1073_653" x1="20" y1="10.9998" x2="20" y2="28.9998" gradientUnits="userSpaceOnUse">
<stop stop-color="#37B8E0"/>
<stop offset="1" stop-color="#287EB6"/>
</linearGradient>
<linearGradient id="paint3_linear_1073_653" x1="20" y1="10.9998" x2="20" y2="28.9998" gradientUnits="userSpaceOnUse">
<stop stop-color="#37B8E0"/>
<stop offset="1" stop-color="#287EB6"/>
</linearGradient>
</defs>
</svg>
