<svg width="50" height="50" viewBox="0 0 50 50" fill="none" xmlns="http://www.w3.org/2000/svg">
<path d="M25 49.9999C38.8071 49.9999 50 38.807 50 24.9999C50 11.1928 38.8071 -0.00012207 25 -0.00012207C11.1929 -0.00012207 0 11.1928 0 24.9999C0 38.807 11.1929 49.9999 25 49.9999Z" fill="#FFF4E5"/>
<path d="M37.2775 21.3851C37.2596 21.3607 37.2406 21.3373 37.2205 21.3151L36.2387 20.2819C37.0535 20.0808 37.9294 19.3364 37.9294 18.5732C37.9294 17.6844 36.7978 17.3689 35.8323 17.3689C34.823 17.3689 34.7059 18.1232 34.6937 18.6565L32.1617 15.9902C31.549 15.3901 30.765 15.0392 29.9425 14.9969H20.0714C19.2488 15.0393 18.4649 15.3902 17.8521 15.9902L15.3202 18.6565C15.3069 18.1232 15.1898 17.3689 14.1815 17.3689C13.215 17.3689 12.0845 17.6844 12.0845 18.5732C12.0845 19.3364 12.9614 20.0808 13.7751 20.2819L12.7933 21.3151C12.7709 21.3384 12.7556 21.3617 12.7363 21.3851C11.6895 22.4563 11.0682 23.9315 11.0049 25.4957V29.4108C11.0054 30.3244 11.3269 31.2031 11.9032 31.8661V33.3848C11.9093 33.8181 12.0728 34.2311 12.3576 34.5333C12.6424 34.8355 13.0255 35.0021 13.4227 34.9968H15.256C15.6532 35.0021 16.0361 34.8354 16.3208 34.5332C16.6055 34.231 16.7687 33.818 16.7746 33.3848V32.9959H33.2352V33.3848C33.2408 33.8183 33.4041 34.2317 33.689 34.534C33.974 34.8362 34.3573 35.0027 34.7548 34.9968H36.588C36.9852 35.0021 37.3682 34.8354 37.6528 34.5332C37.9375 34.231 38.1007 33.818 38.1066 33.3848V31.8672C38.6831 31.2044 39.0046 30.3256 39.0049 29.4119V25.4968C38.9438 23.9327 38.3238 22.4568 37.2775 21.3851ZM18.782 17.1767C19.1547 16.8595 19.6013 16.6625 20.0714 16.6079H29.9384C30.4084 16.6625 30.8551 16.8595 31.2278 17.1767L34.548 20.6874H15.4628L18.782 17.1767ZM12.1405 24.9047C12.1334 24.4495 12.2923 24.0099 12.5822 23.6824C12.8721 23.3549 13.2693 23.1664 13.6865 23.1582C14.54 23.1582 17.3286 24.9435 17.3286 25.9079C17.3286 26.8722 14.54 26.6489 13.6865 26.6489C13.48 26.6453 13.2761 26.5973 13.0866 26.5076C12.897 26.418 12.7256 26.2885 12.582 26.1264C12.4384 25.9644 12.3255 25.7731 12.2497 25.5635C12.174 25.3539 12.1368 25.13 12.1405 24.9047ZM16.7756 31.2806H16.1869H14.4402C14.056 31.1643 13.6941 30.9735 13.3718 30.7173C13.2625 30.6255 13.1652 30.5179 13.0826 30.3973C13.0143 30.2989 12.9597 30.1899 12.9206 30.074C12.8657 29.8549 12.858 29.6248 12.8981 29.4018C12.9382 29.1788 13.025 28.9689 13.1518 28.7886H16.1319L18.119 31.2761L16.7756 31.2806ZM29.2906 31.2806H20.7191C20.2903 31.2803 19.8792 31.0945 19.5758 30.764C19.2724 30.4335 19.1016 29.9852 19.1008 29.5174H30.909C30.9087 29.9855 30.7381 30.4342 30.4346 30.765C30.1312 31.0958 29.7197 31.2817 29.2906 31.2817V31.2806ZM29.6665 28.3109H20.3433C19.3717 28.3109 18.5824 27.0044 18.5824 25.3924H31.4274C31.4274 27.0055 30.6381 28.312 29.6665 28.312V28.3109ZM37.0901 30.0763C37.0506 30.1922 36.9957 30.3011 36.9272 30.3996C36.8449 30.5204 36.7475 30.6281 36.6379 30.7195C36.316 30.9763 35.954 31.1672 35.5696 31.2828H33.8229H31.8878L33.8758 28.7953H36.8559C36.9831 28.9749 37.0705 29.1843 37.1111 29.4069C37.1518 29.6295 37.1446 29.8594 37.0901 30.0785V30.0763ZM36.3242 26.6467C35.4718 26.6467 32.6822 26.8689 32.6822 25.9057C32.6822 24.9424 35.4708 23.156 36.3242 23.156C36.7387 23.1721 37.1313 23.3631 37.4193 23.6886C37.7073 24.0142 37.8682 24.4489 37.8682 24.9013C37.8682 25.3537 37.7073 25.7885 37.4193 26.114C37.1313 26.4396 36.7387 26.6305 36.3242 26.6467Z" fill="url(#paint0_linear_578_2871)"/>
<defs>
<linearGradient id="paint0_linear_578_2871" x1="25.0049" y1="34.9969" x2="25.0049" y2="14.9969" gradientUnits="userSpaceOnUse">
<stop stop-color="#FD5900"/>
<stop offset="1" stop-color="#FFDE00"/>
</linearGradient>
</defs>
</svg>
