<svg width="50" height="50" viewBox="0 0 50 50" fill="none" xmlns="http://www.w3.org/2000/svg">
<g clip-path="url(#clip0_578_2915)">
<path d="M25 50C38.8071 50 50 38.8071 50 25C50 11.1929 38.8071 0 25 0C11.1929 0 0 11.1929 0 25C0 38.8071 11.1929 50 25 50Z" fill="#FFECEE"/>
<path d="M18.9625 14H35.025C35.5625 14 36 14.4527 36 15.0088V32.4562C36 34.4092 34.4625 36 32.575 36H18V15.0088C18 14.4527 18.4375 14 18.975 14H18.9625Z" fill="url(#paint0_linear_578_2915)"/>
<path d="M15.3991 27H18V36H15.3991C14.6291 36 14 35.2906 14 34.4224V28.5882C14 27.72 14.6291 27.0106 15.3991 27.0106V27Z" fill="url(#paint1_linear_578_2915)"/>
<path d="M28.9115 19.1736H22.0837C21.4792 19.1736 20.9984 19.6075 20.9984 20.1436C20.9984 20.6797 21.4792 21.1136 22.0837 21.1136H28.9115C29.516 21.1136 29.9968 20.6797 29.9968 20.1436C29.9968 19.6075 29.516 19.1736 28.9115 19.1736Z" fill="#FFECEE"/>
<path d="M31.4861 24.347H22.08C21.4776 24.347 20.9984 24.781 20.9984 25.3171C20.9984 25.8531 21.4776 26.2871 22.08 26.2871H31.4861C32.0886 26.2871 32.5678 25.8531 32.5678 25.3171C32.5678 24.781 32.0886 24.347 31.4861 24.347Z" fill="#FFECEE"/>
<path d="M28.9115 29.5201H22.0837C21.4792 29.5201 20.9984 29.9541 20.9984 30.4902C20.9984 31.0262 21.4792 31.4602 22.0837 31.4602H28.9115C29.516 31.4602 29.9968 31.0262 29.9968 30.4902C29.9968 29.9541 29.516 29.5201 28.9115 29.5201Z" fill="#FFECEE"/>
</g>
<defs>
<linearGradient id="paint0_linear_578_2915" x1="27" y1="36" x2="27" y2="14" gradientUnits="userSpaceOnUse">
<stop stop-color="#D33D54"/>
<stop offset="1" stop-color="#FF717F"/>
</linearGradient>
<linearGradient id="paint1_linear_578_2915" x1="16" y1="36" x2="16" y2="27" gradientUnits="userSpaceOnUse">
<stop stop-color="#FFA9B2"/>
<stop offset="0.503" stop-color="#FDD9DD"/>
<stop offset="1" stop-color="#FFDFE2"/>
</linearGradient>
<clipPath id="clip0_578_2915">
<rect width="50" height="50" fill="white"/>
</clipPath>
</defs>
</svg>
