<svg width="50" height="50" viewBox="0 0 50 50" fill="none" xmlns="http://www.w3.org/2000/svg">
<path d="M25 49.9999C38.8071 49.9999 50 38.807 50 24.9999C50 11.1928 38.8071 -0.00012207 25 -0.00012207C11.1929 -0.00012207 0 11.1928 0 24.9999C0 38.807 11.1929 49.9999 25 49.9999Z" fill="#FFEFF8"/>
<path d="M35.8566 23.0966C35.5508 22.8969 35.3146 22.6071 35.1807 22.2673C35.1263 21.9058 35.1857 21.5363 35.3507 21.21C35.52 20.87 35.6075 20.4952 35.6063 20.1155C35.605 19.7357 35.515 19.3615 35.3435 19.0227C35.136 18.7043 34.857 18.4389 34.5287 18.2475C34.2004 18.0562 33.8319 17.9443 33.4527 17.9207C33.0878 17.9007 32.7383 17.7678 32.4523 17.5403C32.2243 17.2542 32.091 16.9042 32.0708 16.5389C32.0479 16.1596 31.9365 15.7909 31.7455 15.4624C31.5545 15.1339 31.2893 14.8547 30.971 14.6471C30.632 14.4755 30.2576 14.3855 29.8777 14.3843C29.4977 14.383 29.1228 14.4705 28.7827 14.6398C28.4565 14.8052 28.087 14.8649 27.7253 14.8109C27.3855 14.677 27.0957 14.4408 26.896 14.135C26.6891 13.8113 26.4096 13.5403 26.0799 13.3432C25.7501 13.1462 25.3789 13.0287 24.9959 12.9999C24.6123 13.0292 24.2409 13.1476 23.9111 13.3455C23.5812 13.5435 23.3021 13.8155 23.0957 14.1402C22.896 14.446 22.6062 14.6821 22.2664 14.816C21.9048 14.8701 21.5352 14.8103 21.2091 14.645C20.8691 14.4752 20.494 14.3875 20.114 14.3887C19.734 14.39 19.3596 14.4802 19.0207 14.6523C18.7033 14.8595 18.4387 15.1379 18.2479 15.4655C18.0571 15.793 17.9455 16.1606 17.9219 16.5389C17.9018 16.9042 17.7685 17.2542 17.5404 17.5403C17.2545 17.7678 16.9049 17.9007 16.5401 17.9207C16.1609 17.9439 15.7923 18.0556 15.464 18.2468C15.1357 18.4379 14.8567 18.7033 14.6493 19.0216C14.4772 19.3605 14.3869 19.7348 14.3855 20.1148C14.384 20.4948 14.4715 20.8699 14.641 21.21C14.806 21.5363 14.8654 21.9058 14.811 22.2673C14.6771 22.6071 14.4409 22.8969 14.1351 23.0966C13.8113 23.3032 13.5401 23.5823 13.3431 23.912C13.146 24.2417 13.0286 24.6127 13 24.9957C13.0298 25.3785 13.1483 25.749 13.3462 26.0779C13.5442 26.4069 13.816 26.6852 14.1403 26.8907C14.4461 27.0904 14.6823 27.3802 14.8162 27.72C14.8706 28.0815 14.8111 28.4511 14.6462 28.7773C14.4769 29.1173 14.3894 29.4921 14.3906 29.8719C14.3919 30.2516 14.4819 30.6258 14.6534 30.9646C14.8595 31.2837 15.1374 31.5501 15.4648 31.7427C15.7922 31.9353 16.16 32.0487 16.539 32.0738C16.9039 32.0939 17.2534 32.2268 17.5394 32.4543C17.7674 32.7404 17.9007 33.0903 17.9209 33.4556C17.9438 33.835 18.0552 34.2036 18.2462 34.5321C18.4372 34.8607 18.7024 35.1399 19.0207 35.3475C19.3598 35.5187 19.7342 35.6085 20.114 35.6098C20.4939 35.6111 20.8688 35.5237 21.2091 35.3548C21.5356 35.1906 21.9048 35.1309 22.2664 35.1837C22.6062 35.3176 22.896 35.5538 23.0957 35.8596C23.3021 36.1842 23.5812 36.4563 23.9111 36.6542C24.2409 36.8522 24.6123 36.9705 24.9959 36.9999C25.3794 36.9705 25.7508 36.8522 26.0806 36.6542C26.4105 36.4563 26.6896 36.1842 26.896 35.8596C27.0957 35.5538 27.3855 35.3176 27.7253 35.1837C28.0869 35.1309 28.4561 35.1907 28.7827 35.3548C29.123 35.5234 29.4979 35.6106 29.8777 35.6093C30.2575 35.6081 30.6318 35.5184 30.971 35.3475C31.2902 35.1399 31.5564 34.8604 31.7479 34.5312C31.9395 34.2021 32.0511 33.8327 32.0739 33.4525C32.0941 33.0872 32.2274 32.7373 32.4554 32.4512C32.7414 32.2237 33.0909 32.0908 33.4558 32.0707C33.8349 32.0476 34.2034 31.9361 34.5317 31.7452C34.86 31.5542 35.1391 31.289 35.3466 30.9709C35.5186 30.632 35.609 30.2577 35.6104 29.8777C35.6118 29.4977 35.5243 29.1226 35.3549 28.7825C35.1885 28.4549 35.1287 28.0833 35.1838 27.72C35.3177 27.3802 35.5539 27.0904 35.8597 26.8907C36.1845 26.6847 36.4567 26.4058 36.6547 26.0761C36.8526 25.7464 36.9709 25.375 37 24.9916C36.9709 24.6081 36.8526 24.2368 36.6547 23.9071C36.4567 23.5774 36.1845 23.2984 35.8597 23.0925L35.8566 23.0966Z" fill="url(#paint0_linear_578_2189)"/>
<path d="M23.5896 22.8872C23.5896 22.4702 23.4659 22.0625 23.2342 21.7158C23.0025 21.369 22.6732 21.0988 22.288 20.9392C21.9027 20.7796 21.4787 20.7378 21.0697 20.8192C20.6607 20.9006 20.285 21.1014 19.9901 21.3963C19.6953 21.6911 19.4944 22.0668 19.4131 22.4758C19.3317 22.8849 19.3735 23.3088 19.5331 23.6941C19.6927 24.0794 19.9629 24.4087 20.3096 24.6403C20.6564 24.872 21.064 24.9957 21.4811 24.9957C22.0401 24.9951 22.5761 24.7728 22.9714 24.3775C23.3667 23.9822 23.589 23.4462 23.5896 22.8872ZM28.5094 24.9957C28.0924 24.9957 27.6847 25.1194 27.338 25.351C26.9912 25.5827 26.721 25.912 26.5614 26.2973C26.4018 26.6826 26.36 27.1065 26.4414 27.5155C26.5228 27.9245 26.7236 28.3002 27.0185 28.5951C27.3133 28.89 27.689 29.0908 28.0981 29.1722C28.5071 29.2535 28.931 29.2118 29.3163 29.0522C29.7016 28.8926 30.0309 28.6223 30.2625 28.2756C30.4942 27.9289 30.6179 27.5212 30.6179 27.1042C30.6174 26.5453 30.3952 26.0095 30.0001 25.6142C29.605 25.219 29.0693 24.9965 28.5104 24.9957H28.5094ZM28.2461 20.9321C28.1002 20.8165 27.9145 20.7631 27.7295 20.7837C27.5445 20.8043 27.3751 20.8971 27.2582 21.042L21.6355 28.0703C21.5778 28.1424 21.5348 28.2252 21.5091 28.3138C21.4834 28.4025 21.4753 28.4954 21.4855 28.5872C21.4956 28.679 21.5238 28.7679 21.5683 28.8488C21.6128 28.9297 21.6728 29.001 21.7449 29.0588C21.817 29.1165 21.8997 29.1594 21.9884 29.1852C22.0771 29.2109 22.17 29.2189 22.2617 29.2088C22.3535 29.1986 22.4424 29.1705 22.5233 29.126C22.6042 29.0815 22.6756 29.0215 22.7333 28.9494L28.356 21.9211C28.4725 21.7753 28.5263 21.5893 28.5057 21.4038C28.4851 21.2184 28.3917 21.0487 28.2461 20.9321Z" fill="#FFF8FE"/>
<defs>
<linearGradient id="paint0_linear_578_2189" x1="25" y1="36.9999" x2="25" y2="12.9999" gradientUnits="userSpaceOnUse">
<stop stop-color="#831843"/>
<stop offset="1" stop-color="#EC4899"/>
</linearGradient>
</defs>
</svg>
