<svg width="40" height="40" viewBox="0 0 40 40" fill="none" xmlns="http://www.w3.org/2000/svg">
<path d="M0.5 20.0001C0.5 9.24844 9.24748 0.500122 20 0.500122C30.7525 0.500122 39.5 9.24844 39.5 20.0001C39.5 30.7518 30.7525 39.5001 20 39.5001C9.24748 39.5001 0.5 30.7518 0.5 20.0001Z" fill="black" fill-opacity="0.7" stroke="white"/>
<path d="M16.3003 28.3646L28.1127 20.7147C28.3533 20.5586 28.5 20.2888 28.5 20C28.5 19.7111 28.3533 19.4413 28.1127 19.2853L16.3003 11.6354C16.0415 11.4652 15.707 11.4561 15.44 11.6038C15.1681 11.7532 15 12.0388 15 12.3501V27.6499C15 27.9611 15.1681 28.2467 15.44 28.3961C15.5653 28.465 15.7053 28.4999 15.8438 28.4999C16.002 28.4999 16.1618 28.455 16.3003 28.3646Z" fill="white"/>
</svg>
