<svg width="50" height="50" viewBox="0 0 50 50" fill="none" xmlns="http://www.w3.org/2000/svg">
<path d="M25 0C29.9445 0 34.778 1.46622 38.8892 4.21326C43.0005 6.96029 46.2048 10.8648 48.097 15.4329C49.9892 20.0011 50.4842 25.0277 49.5196 29.8772C48.555 34.7268 46.174 39.1813 42.6777 42.6777C39.1813 46.174 34.7268 48.555 29.8772 49.5196C25.0277 50.4842 20.0011 49.9892 15.4329 48.097C10.8648 46.2048 6.96029 43.0005 4.21326 38.8892C1.46622 34.778 0 29.9445 0 25C0 18.3696 2.63392 12.0107 7.32233 7.32233C12.0107 2.63392 18.3696 0 25 0V0Z" fill="#FFF1F8"/>
<path fill-rule="evenodd" clip-rule="evenodd" d="M33.3444 13C33.7587 13 34.0944 13.3358 34.0944 13.75V15.9063H36.2508C36.665 15.9063 37.0008 16.2421 37.0008 16.6563C37.0008 17.0705 36.665 17.4063 36.2508 17.4063H34.0944V19.5627C34.0944 19.9769 33.7587 20.3127 33.3444 20.3127C32.9302 20.3127 32.5944 19.9769 32.5944 19.5627V17.4063H30.4381C30.0239 17.4063 29.6881 17.0705 29.6881 16.6563C29.6881 16.2421 30.0239 15.9063 30.4381 15.9063H32.5944V13.75C32.5944 13.3358 32.9302 13 33.3444 13ZM35.9098 25.6018C35.989 25.6394 36.0588 25.6938 36.1143 25.7611C36.1701 25.8283 36.2103 25.9067 36.232 25.991C36.2538 26.0752 36.2566 26.1631 36.2403 26.2485L35.9047 27.8545C35.8778 27.9885 35.8046 28.109 35.6975 28.1952C35.5905 28.2815 35.4564 28.3281 35.3184 28.3271H34.6037C35.2973 29.1122 35.6574 30.1322 35.6088 31.1739C35.5601 32.2157 35.1065 33.1985 34.3426 33.9169V36.1168C34.3423 36.3511 34.2481 36.5758 34.0806 36.7416C33.9132 36.9073 33.6861 37.0005 33.4493 37.0008H31.3627C31.1258 37.0008 30.8985 36.9077 30.731 36.7419C30.5635 36.5761 30.4694 36.3512 30.4694 36.1168V35.2101H18.7786V36.1168C18.7786 36.2329 18.7555 36.3478 18.7106 36.4551C18.6657 36.5623 18.5999 36.6598 18.517 36.7419C18.434 36.824 18.3356 36.8891 18.2272 36.9335C18.1188 36.9779 18.0026 37.0008 17.8853 37.0008H15.801C15.564 37.0008 15.3368 36.9077 15.1693 36.7419C15.0018 36.5761 14.9077 36.3512 14.9077 36.1168V33.8682L14.8813 33.8478C14.4783 33.474 14.1592 33.0205 13.9449 32.5167C13.7306 32.0129 13.6259 31.4701 13.6376 30.9237C13.6343 29.9705 13.9769 29.0479 14.603 28.3237H13.9262C13.7893 28.3237 13.6567 28.277 13.5505 28.1916C13.4443 28.1061 13.3711 27.9871 13.3432 27.8545L13.0123 26.2519C12.9944 26.1662 12.9961 26.0777 13.0171 25.9927C13.0381 25.9078 13.078 25.8285 13.1338 25.7607C13.1896 25.6929 13.2599 25.6382 13.3397 25.6007C13.4196 25.5631 13.5068 25.5436 13.5952 25.5435H15.8628C16.2459 24.2371 16.9732 23.055 17.9701 22.1185C20.8309 20.2609 28.4171 20.2609 31.2779 22.1185C32.2762 23.0539 33.0038 24.2364 33.3852 25.5435H35.6562C35.744 25.5443 35.8306 25.5642 35.9098 25.6018ZM30.2987 23.5941C28.0197 22.1094 21.2352 22.1094 18.955 23.5941C18.2305 24.425 17.7052 25.4072 17.4181 26.4672H31.8334C31.547 25.4074 31.0224 24.4252 30.2987 23.5941ZM16.5768 30.1834C16.3838 30.4693 16.2808 30.8054 16.2808 31.1492C16.2808 31.3776 16.3263 31.6038 16.4147 31.8148C16.503 32.0258 16.6325 32.2175 16.7958 32.379C16.959 32.5404 17.1528 32.6685 17.3661 32.7558C17.5794 32.8431 17.808 32.8879 18.0388 32.8878C18.3862 32.8876 18.7258 32.7854 19.0145 32.5942C19.3033 32.4031 19.5283 32.1314 19.6611 31.8137C19.7939 31.496 19.8285 31.1465 19.7606 30.8093C19.6926 30.4721 19.5252 30.1625 19.2795 29.9194C19.0338 29.6764 18.7207 29.5109 18.38 29.4439C18.0392 29.3769 17.686 29.4114 17.3651 29.5431C17.0441 29.6747 16.7698 29.8975 16.5768 30.1834ZM30.2572 32.5948C30.5461 32.7858 30.8858 32.8878 31.2333 32.8878C31.6992 32.8878 32.146 32.7046 32.4755 32.3786C32.805 32.0525 32.9901 31.6103 32.9901 31.1492C32.9901 30.8053 32.887 30.4692 32.694 30.1833C32.501 29.8974 32.2266 29.6745 31.9056 29.5429C31.5845 29.4114 31.2313 29.3769 30.8905 29.444C30.5497 29.5111 30.2367 29.6767 29.991 29.9198C29.7453 30.163 29.578 30.4728 29.5102 30.81C29.4424 31.1473 29.4772 31.4968 29.6102 31.8145C29.7431 32.1322 29.9683 32.4037 30.2572 32.5948Z" fill="url(#paint0_linear_578_2952)"/>
<defs>
<linearGradient id="paint0_linear_578_2952" x1="24.5666" y1="37.0008" x2="24.5666" y2="20.8075" gradientUnits="userSpaceOnUse">
<stop stop-color="#E62EB2"/>
<stop offset="1" stop-color="#FF93C7"/>
</linearGradient>
</defs>
</svg>
