<svg width="84" height="84" viewBox="0 0 84 84" fill="none" xmlns="http://www.w3.org/2000/svg">
<g filter="url(#filter0_d_1049_9868)">
<circle cx="42" cy="40" r="28" fill="#AD1E2E"/>
</g>
<path d="M42.0304 30.0211C41.6091 30.0211 41.2676 30.3627 41.2676 30.784C41.2676 31.2054 41.6091 31.5469 42.0304 31.5469C44.5546 31.5469 46.6082 33.6004 46.6082 36.1244C46.6082 36.5457 46.9497 36.8873 47.371 36.8873C47.7923 36.8873 48.1338 36.5457 48.1338 36.1244C48.1338 32.7591 45.3959 30.0211 42.0304 30.0211Z" fill="white"/>
<path d="M40.0332 27.2041C36.5863 27.9232 33.7914 30.687 33.056 34.15C32.435 37.0742 33.2002 40.01 35.1554 42.2046C36.1111 43.2773 36.6592 44.6933 36.6592 46.0935V47.617C36.6592 48.6306 37.3239 49.4918 38.2407 49.79C38.5422 51.5687 40.0884 53 41.9998 53C43.9106 53 45.4572 51.5692 45.7588 49.79C46.6757 49.4918 47.3403 48.6306 47.3403 47.6169V46.0934C47.3403 44.6905 47.8902 43.2916 48.8886 42.1542C50.3501 40.4895 51.1549 38.3536 51.1549 36.1399C51.1549 30.3727 45.8679 25.987 40.0332 27.2041ZM41.9998 51.4765C41.019 51.4765 40.1592 50.8028 39.8416 49.8972H44.1578C43.8404 50.8028 42.9805 51.4765 41.9998 51.4765ZM45.8144 47.617C45.8144 48.037 45.4722 48.3788 45.0515 48.3788H38.948C38.5274 48.3788 38.1851 48.037 38.1851 47.617V46.8552H45.8144V47.617ZM47.7412 41.1501C46.6771 42.3621 46.0225 43.8237 45.8564 45.3317H38.1433C37.9774 43.8229 37.3244 42.3469 36.2956 41.1921C34.6661 39.3631 34.0293 36.9115 34.5487 34.466C35.1549 31.6113 37.4844 29.2923 40.3453 28.6954C45.2293 27.6763 49.6291 31.3384 49.6291 36.1399C49.6291 37.984 48.9586 39.7633 47.7412 41.1501Z" fill="white"/>
<path d="M31.2658 36.1549H29.7553C29.3382 36.1549 29 36.4828 29 36.8873C29 37.2918 29.3382 37.6197 29.7553 37.6197H31.2658C31.683 37.6197 32.0211 37.2918 32.0211 36.8873C32.0211 36.4828 31.683 36.1549 31.2658 36.1549Z" fill="white"/>
<path d="M31.6103 32.3098L30.5106 31.2481C30.2069 30.9549 29.7145 30.9549 29.4109 31.2481C29.1072 31.5413 29.1072 32.0166 29.4109 32.3098L30.5106 33.3716C30.8142 33.6648 31.3066 33.6649 31.6103 33.3716C31.9139 33.0784 31.9139 32.6031 31.6103 32.3098Z" fill="white"/>
<path d="M31.6103 40.403C31.3066 40.1098 30.8142 40.1098 30.5106 40.403L29.4109 41.4648C29.1072 41.758 29.1072 42.2333 29.4109 42.5266C29.7145 42.8198 30.2069 42.8198 30.5106 42.5266L31.6103 41.4648C31.9139 41.1716 31.9139 40.6962 31.6103 40.403Z" fill="white"/>
<path d="M54.2447 36.1549H52.7342C52.317 36.1549 51.9789 36.4828 51.9789 36.8873C51.9789 37.2918 52.317 37.6197 52.7342 37.6197H54.2447C54.6618 37.6197 55 37.2918 55 36.8873C55 36.4828 54.6618 36.1549 54.2447 36.1549Z" fill="white"/>
<path d="M54.5891 31.2481C54.2855 30.9549 53.7931 30.9549 53.4894 31.2481L52.3897 32.3099C52.0861 32.6031 52.0861 33.0784 52.3897 33.3717C52.6934 33.6648 53.1858 33.6649 53.4894 33.3717L54.5891 32.3099C54.8928 32.0167 54.8928 31.5413 54.5891 31.2481Z" fill="white"/>
<path d="M54.5891 41.4648L53.4894 40.403C53.1858 40.1098 52.6934 40.1098 52.3897 40.403C52.0861 40.6962 52.0861 41.1716 52.3897 41.4648L53.4894 42.5266C53.7931 42.8198 54.2855 42.8198 54.5891 42.5266C54.8928 42.2334 54.8928 41.758 54.5891 41.4648Z" fill="white"/>
<defs>
<filter id="filter0_d_1049_9868" x="0" y="0" width="84" height="84" filterUnits="userSpaceOnUse" color-interpolation-filters="sRGB">
<feFlood flood-opacity="0" result="BackgroundImageFix"/>
<feColorMatrix in="SourceAlpha" type="matrix" values="0 0 0 0 0 0 0 0 0 0 0 0 0 0 0 0 0 0 127 0" result="hardAlpha"/>
<feMorphology radius="2" operator="dilate" in="SourceAlpha" result="effect1_dropShadow_1049_9868"/>
<feOffset dy="2"/>
<feGaussianBlur stdDeviation="6"/>
<feComposite in2="hardAlpha" operator="out"/>
<feColorMatrix type="matrix" values="0 0 0 0 0.368667 0 0 0 0 0.374306 0 0 0 0 0.0923611 0 0 0 0.08 0"/>
<feBlend mode="normal" in2="BackgroundImageFix" result="effect1_dropShadow_1049_9868"/>
<feBlend mode="normal" in="SourceGraphic" in2="effect1_dropShadow_1049_9868" result="shape"/>
</filter>
</defs>
</svg>
