<svg width="50" height="50" viewBox="0 0 50 50" fill="none" xmlns="http://www.w3.org/2000/svg">
<path d="M25 50C38.8071 50 50 38.8071 50 25C50 11.1929 38.8071 0 25 0C11.1929 0 0 11.1929 0 25C0 38.8071 11.1929 50 25 50Z" fill="#E8FBE0"/>
<path d="M32.4147 12H17.5904C16.9037 12.001 16.2454 12.2648 15.7598 12.7335C15.2742 13.2023 15.001 13.8378 15 14.5008V35.4992C15.001 36.1622 15.2742 36.7977 15.7598 37.2665C16.2454 37.7352 16.9037 37.999 17.5904 38H32.4147C33.1005 37.9977 33.7575 37.7334 34.242 37.2647C34.7265 36.7961 34.999 36.1613 35 35.4992V14.5008C34.999 13.8387 34.7265 13.2039 34.242 12.7353C33.7575 12.2666 33.1005 12.0023 32.4147 12V12ZM18.5507 16.3219C18.5507 16.1199 18.6338 15.9261 18.7818 15.7833C18.9298 15.6404 19.1304 15.5602 19.3397 15.5602H30.6654C30.8746 15.5602 31.0753 15.6404 31.2233 15.7833C31.3713 15.9261 31.4544 16.1199 31.4544 16.3219V17.8258C31.4544 18.0278 31.3713 18.2216 31.2233 18.3645C31.0753 18.5073 30.8746 18.5876 30.6654 18.5876H19.3397C19.1304 18.5876 18.9298 18.5073 18.7818 18.3645C18.6338 18.2216 18.5507 18.0278 18.5507 17.8258V16.3219ZM21.207 33.4319C21.207 33.634 21.1239 33.8277 20.9759 33.9706C20.828 34.1134 20.6273 34.1937 20.418 34.1937H19.3397C19.1304 34.1937 18.9298 34.1134 18.7818 33.9706C18.6338 33.8277 18.5507 33.634 18.5507 33.4319V32.7106C18.5507 32.5086 18.6338 32.3148 18.7818 32.172C18.9298 32.0291 19.1304 31.9488 19.3397 31.9488H20.418C20.6273 31.9488 20.828 32.0291 20.9759 32.172C21.1239 32.3148 21.207 32.5086 21.207 32.7106V33.4319ZM21.207 28.9239C21.207 29.1259 21.1239 29.3197 20.9759 29.4625C20.828 29.6054 20.6273 29.6856 20.418 29.6856H19.3397C19.1304 29.6856 18.9298 29.6054 18.7818 29.4625C18.6338 29.3197 18.5507 29.1259 18.5507 28.9239V28.2025C18.5507 28.0005 18.6338 27.8068 18.7818 27.6639C18.9298 27.521 19.1304 27.4408 19.3397 27.4408H20.418C20.6273 27.4408 20.828 27.521 20.9759 27.6639C21.1239 27.8068 21.207 28.0005 21.207 28.2025V28.9239ZM26.3954 33.4319C26.3954 33.634 26.3123 33.8277 26.1643 33.9706C26.0163 34.1134 25.8156 34.1937 25.6064 34.1937H24.5281C24.3188 34.1937 24.1181 34.1134 23.9702 33.9706C23.8222 33.8277 23.7391 33.634 23.7391 33.4319V32.7106C23.7391 32.5086 23.8222 32.3148 23.9702 32.172C24.1181 32.0291 24.3188 31.9488 24.5281 31.9488H25.6064C25.8156 31.9488 26.0163 32.0291 26.1643 32.172C26.3123 32.3148 26.3954 32.5086 26.3954 32.7106V33.4319ZM26.3954 28.9239C26.3954 29.1259 26.3123 29.3197 26.1643 29.4625C26.0163 29.6054 25.8156 29.6856 25.6064 29.6856H24.5281C24.3188 29.6856 24.1181 29.6054 23.9702 29.4625C23.8222 29.3197 23.7391 29.1259 23.7391 28.9239V28.2025C23.7391 28.0005 23.8222 27.8068 23.9702 27.6639C24.1181 27.521 24.3188 27.4408 24.5281 27.4408H25.6064C25.8156 27.4408 26.0163 27.521 26.1643 27.6639C26.3123 27.8068 26.3954 28.0005 26.3954 28.2025V28.9239ZM26.3954 24.4158C26.3954 24.6179 26.3123 24.8116 26.1643 24.9545C26.0163 25.0973 25.8156 25.1776 25.6064 25.1776H19.3397C19.1304 25.1776 18.9298 25.0973 18.7818 24.9545C18.6338 24.8116 18.5507 24.6179 18.5507 24.4158V23.6884C18.5507 23.4863 18.6338 23.2926 18.7818 23.1497C18.9298 23.0069 19.1304 22.9266 19.3397 22.9266H25.6127C25.822 22.9266 26.0227 23.0069 26.1707 23.1497C26.3186 23.2926 26.4017 23.4863 26.4017 23.6884L26.3954 24.4158ZM31.5838 33.4319C31.5838 33.634 31.5007 33.8277 31.3527 33.9706C31.2047 34.1134 31.004 34.1937 30.7948 34.1937H29.7165C29.5072 34.1937 29.3065 34.1134 29.1585 33.9706C29.0106 33.8277 28.9274 33.634 28.9274 33.4319V32.7106C28.9274 32.5086 29.0106 32.3148 29.1585 32.172C29.3065 32.0291 29.5072 31.9488 29.7165 31.9488H30.7948C31.004 31.9488 31.2047 32.0291 31.3527 32.172C31.5007 32.3148 31.5838 32.5086 31.5838 32.7106V33.4319ZM31.5838 28.9239C31.5838 29.1259 31.5007 29.3197 31.3527 29.4625C31.2047 29.6054 31.004 29.6856 30.7948 29.6856H29.7165C29.5072 29.6856 29.3065 29.6054 29.1585 29.4625C29.0106 29.3197 28.9274 29.1259 28.9274 28.9239V28.2025C28.9274 28.0005 29.0106 27.8068 29.1585 27.6639C29.3065 27.521 29.5072 27.4408 29.7165 27.4408H30.7948C31.004 27.4408 31.2047 27.521 31.3527 27.6639C31.5007 27.8068 31.5838 28.0005 31.5838 28.2025V28.9239ZM31.5838 24.4158C31.5838 24.6179 31.5007 24.8116 31.3527 24.9545C31.2047 25.0973 31.004 25.1776 30.7948 25.1776H29.7165C29.5072 25.1776 29.3065 25.0973 29.1585 24.9545C29.0106 24.8116 28.9274 24.6179 28.9274 24.4158V23.6884C28.9274 23.4863 29.0106 23.2926 29.1585 23.1497C29.3065 23.0069 29.5072 22.9266 29.7165 22.9266H30.7948C31.004 22.9266 31.2047 23.0069 31.3527 23.1497C31.5007 23.2926 31.5838 23.4863 31.5838 23.6884V24.4158Z" fill="url(#paint0_linear_578_2941)"/>
<defs>
<linearGradient id="paint0_linear_578_2941" x1="25" y1="38" x2="25" y2="12" gradientUnits="userSpaceOnUse">
<stop stop-color="#1AAB2F"/>
<stop offset="1" stop-color="#7DE13F"/>
</linearGradient>
</defs>
</svg>
