<svg fill="none" height="17" viewBox="0 0 16 17" width="16" xmlns="http://www.w3.org/2000/svg">
  <g clip-path="url(#clip0_16098_3436)">
    <path
      d="M8.73072 8.37766L8.54809 7.85025L8.73072 8.37766ZM5.2093 6.26744C5.2093 6.57569 5.45919 6.82558 5.76744 6.82558C6.07569 6.82558 6.32558 6.57569 6.32558 6.26744H5.2093ZM7.44186 9.98837C7.44186 10.2966 7.69176 10.5465 8 10.5465C8.30824 10.5465 8.55814 10.2966 8.55814 9.98837H7.44186ZM14.8837 8.5C14.8837 12.3017 11.8017 15.3837 8 15.3837V16.5C12.4183 16.5 16 12.9183 16 8.5H14.8837ZM8 15.3837C4.19823 15.3837 1.11628 12.3017 1.11628 8.5H0C0 12.9183 3.58172 16.5 8 16.5V15.3837ZM1.11628 8.5C1.11628 4.69823 4.19823 1.61628 8 1.61628V0.5C3.58172 0.5 0 4.08172 0 8.5H1.11628ZM8 1.61628C11.8017 1.61628 14.8837 4.69823 14.8837 8.5H16C16 4.08172 12.4183 0.5 8 0.5V1.61628ZM9.67442 6.26744C9.67442 6.99939 9.20446 7.62305 8.54809 7.85025L8.91334 8.90514C10.0053 8.52701 10.7907 7.48969 10.7907 6.26744H9.67442ZM6.32558 6.26744C6.32558 5.34269 7.07527 4.59302 8 4.59302V3.47674C6.45874 3.47674 5.2093 4.72618 5.2093 6.26744H6.32558ZM8 4.59302C8.92473 4.59302 9.67442 5.34269 9.67442 6.26744H10.7907C10.7907 4.72618 9.54128 3.47674 8 3.47674V4.59302ZM7.44186 9.24419V9.98837H8.55814V9.24419H7.44186ZM8.54809 7.85025C8.04301 8.02513 7.44186 8.49814 7.44186 9.24419H8.55814C8.55814 9.20259 8.57362 9.14804 8.63382 9.08143C8.697 9.01148 8.79606 8.94569 8.91334 8.90514L8.54809 7.85025Z"
      fill="#45567B"/>
    <path
      d="M8.00005 12.9651C8.41105 12.9651 8.74423 12.6319 8.74423 12.2209C8.74423 11.8099 8.41105 11.4767 8.00005 11.4767C7.58904 11.4767 7.25586 11.8099 7.25586 12.2209C7.25586 12.6319 7.58904 12.9651 8.00005 12.9651Z"
      fill="#45567B"/>
  </g>
  <defs>
    <clipPath id="clip0_16098_3436">
      <rect fill="white" height="16" transform="translate(0 0.5)" width="16"/>
    </clipPath>
  </defs>
</svg>
