<svg width="20" height="20" viewBox="0 0 20 20" fill="none" xmlns="http://www.w3.org/2000/svg">
<path d="M15.2232 15.3571C14.8529 15.3571 14.5536 15.6565 14.5536 16.0268V17.3661C14.5536 17.7357 14.2536 18.0357 13.8839 18.0357H4.50893C4.13929 18.0357 3.83929 17.7357 3.83929 17.3661V2.63393C3.83929 2.26429 4.13929 1.96429 4.50893 1.96429H13.8839C14.2536 1.96429 14.5536 2.26429 14.5536 2.63393V3.97321C14.5676 4.8558 15.8795 4.85112 15.8929 3.97321V2.63393C15.8929 1.52634 14.9915 0.625 13.8839 0.625H4.50893C3.40134 0.625 2.5 1.52634 2.5 2.63393V17.3661C2.5 18.4737 3.40134 19.375 4.50893 19.375H13.8839C14.9915 19.375 15.8929 18.4737 15.8929 17.3661V16.0268C15.8929 15.6565 15.5935 15.3571 15.2232 15.3571Z" fill="#45567B"/>
<path d="M18.2363 10.0168C18.2363 9.82324 18.152 9.65248 18.0214 9.53061L14.6939 6.17972C14.0725 5.5623 13.129 6.49847 13.743 7.12391L15.9515 9.34713H9.53097C9.16066 9.34713 8.86133 9.64646 8.86133 10.0168C8.86133 10.3871 9.16066 10.6864 9.53097 10.6864H15.9455L13.7444 12.8922C13.4832 13.154 13.4832 13.5773 13.7457 13.8391C14.0075 14.1002 14.4314 14.1003 14.6926 13.8378L18.0194 10.5043C18.1513 10.3817 18.2363 10.211 18.2363 10.0168Z" fill="#45567B"/>
</svg>
