<svg width="20" height="20" viewBox="0 0 20 20" fill="none" xmlns="http://www.w3.org/2000/svg">
<g clip-path="url(#clip0_1006_57029)">
<path d="M18.2373 2.35352C17.4234 2.35352 16.737 2.90813 16.5351 3.65914L3.515 7.45664C3.42 6.57367 2.67047 5.88379 1.7627 5.88379C0.790742 5.88379 0 6.67453 0 7.64648V12.3535C0 13.3255 0.790742 14.1162 1.7627 14.1162C2.67051 14.1162 3.42 13.4263 3.515 12.5434L4.70711 12.8911L4.70707 15.0634C4.70707 15.7534 4.9757 16.402 5.46359 16.8899C5.95148 17.3777 6.60012 17.6464 7.29008 17.6464H10.3565C11.7047 17.6464 12.8143 16.608 12.929 15.2891L16.5351 16.3408C16.737 17.0918 17.4234 17.6464 18.2373 17.6464C19.2093 17.6464 20 16.8557 20 15.8837V4.11617C20 3.14426 19.2093 2.35352 18.2373 2.35352ZM2.35352 12.3535C2.35352 12.6793 2.08848 12.9443 1.7627 12.9443C1.43691 12.9443 1.17188 12.6793 1.17188 12.3535V7.64648C1.17188 7.3207 1.43691 7.05566 1.7627 7.05566C2.08848 7.05566 2.35352 7.3207 2.35352 7.64648V12.3535ZM3.52539 8.67434L16.4746 4.89746V15.1025L3.52539 11.3257V8.67434ZM11.7676 15.0635C11.7676 15.8416 11.1345 16.4746 10.3564 16.4746H7.29004C6.91313 16.4746 6.55875 16.3278 6.29223 16.0613C6.0257 15.7948 5.87891 15.4404 5.87895 15.0635L5.87898 13.2329L11.7675 14.9504V15.0635H11.7676ZM18.8281 15.8838C18.8281 16.2096 18.5631 16.4746 18.2373 16.4746C17.9115 16.4746 17.6465 16.2096 17.6465 15.8838V4.11621C17.6465 3.79043 17.9115 3.52539 18.2373 3.52539C18.5631 3.52539 18.8281 3.79043 18.8281 4.11621V15.8838Z" fill="#45567B"/>
</g>
<defs>
<clipPath id="clip0_1006_57029">
<rect width="20" height="20" fill="white"/>
</clipPath>
</defs>
</svg>
