<svg width="20" height="21" viewBox="0 0 20 21" fill="none" xmlns="http://www.w3.org/2000/svg">
<g clip-path="url(#clip0_1525_58069)">
<path d="M16.0547 10.768V8.89844C16.0547 6.17102 14.2418 3.85934 11.7579 3.1043V2.25781C11.7579 1.28855 10.9693 0.5 10 0.5C9.03079 0.5 8.24223 1.28855 8.24223 2.25781V3.1043C5.75825 3.85934 3.94536 6.17098 3.94536 8.89844V10.768C3.94536 13.1638 3.03216 15.4355 1.37399 17.1648C1.21149 17.3342 1.16583 17.5843 1.25794 17.8002C1.35005 18.0161 1.56216 18.1562 1.79692 18.1562H7.1293C7.40149 19.4919 8.58524 20.5 10 20.5C11.4149 20.5 12.5986 19.4919 12.8708 18.1562H18.2032C18.4379 18.1562 18.65 18.0161 18.7421 17.8002C18.8342 17.5843 18.7886 17.3342 18.6261 17.1648C16.9679 15.4355 16.0547 13.1638 16.0547 10.768ZM9.41411 2.25781C9.41411 1.93473 9.67696 1.67188 10 1.67188C10.3231 1.67188 10.586 1.93473 10.586 2.25781V2.87219C10.3931 2.85359 10.1977 2.84375 10 2.84375C9.80239 2.84375 9.60696 2.85359 9.41411 2.87219V2.25781ZM10 19.3281C9.23618 19.3281 8.58489 18.8382 8.34301 18.1562H11.6571C11.4152 18.8382 10.7639 19.3281 10 19.3281ZM3.05981 16.9844C4.39423 15.1956 5.11723 13.0309 5.11723 10.768V8.89844C5.11723 6.20605 7.30766 4.01562 10 4.01562C12.6924 4.01562 14.8829 6.20605 14.8829 8.89844V10.768C14.8829 13.0309 15.6059 15.1956 16.9403 16.9844H3.05981Z" fill="#45567B"/>
<path d="M17.6175 8.89844C17.6175 9.22204 17.8798 9.48438 18.2034 9.48438C18.527 9.48438 18.7894 9.22204 18.7894 8.89844C18.7894 6.55079 17.8751 4.34364 16.2151 2.6836C15.9863 2.45481 15.6153 2.45477 15.3865 2.6836C15.1576 2.91243 15.1576 3.2834 15.3865 3.51223C16.8252 4.95094 17.6175 6.8638 17.6175 8.89844Z" fill="#45567B"/>
<path d="M1.79687 9.48439C2.12047 9.48439 2.38281 9.22204 2.38281 8.89845C2.38281 6.86384 3.17516 4.95099 4.61383 3.51228C4.84266 3.28345 4.84266 2.91247 4.61383 2.68364C4.38504 2.45482 4.01402 2.45482 3.7852 2.68364C2.12516 4.34368 1.21094 6.55079 1.21094 8.89845C1.21094 9.22204 1.47328 9.48439 1.79687 9.48439Z" fill="#45567B"/>
</g>
<defs>
<clipPath id="clip0_1525_58069">
<rect width="20" height="20" fill="white" transform="translate(0 0.5)"/>
</clipPath>
</defs>
</svg>
