<svg width="44" height="44" viewBox="0 0 44 44" fill="none" xmlns="http://www.w3.org/2000/svg">
<circle cx="22" cy="22.0001" r="22" fill="#0899FB"/>
<path d="M20.1679 28.181C21.9417 28.181 23.5774 27.6129 24.9157 26.666L29.9502 31.6529C30.1839 31.8843 30.4919 32.0001 30.8212 32.0001C31.5115 32.0001 32.0001 31.474 32.0001 30.8007C32.0001 30.4851 31.8939 30.18 31.6602 29.959L26.6576 24.9932C27.7091 23.6255 28.3358 21.9317 28.3358 20.0905C28.3358 15.6403 24.6608 12.0001 20.1679 12.0001C15.6857 12.0001 12.0001 15.6297 12.0001 20.0905C12.0001 24.5408 15.6751 28.181 20.1679 28.181ZM20.1679 26.4346C16.6629 26.4346 13.7633 23.5624 13.7633 20.0905C13.7633 16.6187 16.6629 13.7465 20.1679 13.7465C23.673 13.7465 26.5726 16.6187 26.5726 20.0905C26.5726 23.5624 23.673 26.4346 20.1679 26.4346Z" fill="white"/>
</svg>
