<svg width="82" height="40" viewBox="0 0 82 40" fill="none" xmlns="http://www.w3.org/2000/svg">
<path d="M30.818 25.7505H24.9395L23.9962 28.5329H19.9806L25.6809 12.7817H30.1242L35.8245 28.5329H31.7637L30.8204 25.7505H30.818ZM29.8319 22.7899L27.8788 17.0231L25.9494 22.7899H29.8319Z" fill="white"/>
<path d="M41.6341 25.3917H48.4108V28.5329H37.2811V25.6151L44.0126 15.9229H37.2811V12.7817H48.4108V15.6996L41.6341 25.3917Z" fill="white"/>
<path d="M60.7284 25.7505H54.8499L53.9066 28.5329H49.891L55.5913 12.7817H60.0346L65.7349 28.5329H61.6741L60.7308 25.7505H60.7284ZM59.7423 22.7899L57.7892 17.0231L55.8598 22.7899H59.7423Z" fill="white"/>
<path d="M77.7152 13.7702C78.9556 14.4284 79.9179 15.3527 80.5974 16.5407C81.277 17.7288 81.6192 19.1022 81.6192 20.6585C81.6192 22.2149 81.2794 23.5692 80.5974 24.7644C79.9155 25.962 78.9508 26.8887 77.7033 27.5468C76.4535 28.205 75.0065 28.5353 73.3622 28.5353H67.46V12.7817H73.3622C75.0231 12.7817 76.4725 13.112 77.7152 13.7702ZM76.5034 24.0231C77.3113 23.2295 77.7152 22.1079 77.7152 20.6585C77.7152 19.2091 77.3113 18.0781 76.5034 17.2702C75.6955 16.4623 74.5669 16.0584 73.1151 16.0584H71.2974V25.2135H73.1151C74.5669 25.2135 75.6955 24.8167 76.5034 24.0231Z" fill="white"/>
<path d="M19.5957 16.5384V12L9.9487 19.1188L0.109253 12.0143L0.121133 28.982H3.83498L3.82548 20.1904L9.86078 24.2203L19.5957 16.5384Z" fill="white"/>
<path d="M13.7863 23.8445L19.6006 19.5557V24.3768L13.791 28.6728V23.8445H13.7863Z" fill="#EC1D32"/>
<path d="M13.7863 23.8452C13.7863 23.9331 16.8894 26.3876 16.8894 26.3876L13.791 28.6758V24.1208" fill="#AD1E2E"/>
<path d="M81.6192 29.7563H0V39.9997H81.6192V29.7563Z" fill="#4C86A0"/>
<path d="M44.1078 37.4238C43.3759 36.7134 43.0124 35.8128 43.01 34.7198C43.01 33.6268 43.3736 32.7286 44.103 32.0205C44.8325 31.3101 45.7259 30.9561 46.7833 30.9561C47.8406 30.9561 48.7317 31.3101 49.454 32.0205C50.1787 32.731 50.5399 33.6292 50.5399 34.7174C50.5399 35.8057 50.1763 36.7062 49.4516 37.4214C48.7269 38.1319 47.8359 38.4883 46.7809 38.4931C45.7259 38.4978 44.8325 38.1414 44.103 37.4238H44.1078ZM48.1923 36.2571C48.544 35.8746 48.7198 35.3613 48.7198 34.7174C48.7198 34.0735 48.5416 33.5579 48.1899 33.1753C47.8383 32.7928 47.3654 32.6027 46.7761 32.6027C46.1869 32.6027 45.714 32.7928 45.3624 33.1753C45.0107 33.5579 44.8349 34.0711 44.8349 34.7151C44.8349 35.359 45.0131 35.8722 45.3647 36.2548C45.7188 36.6373 46.1892 36.8274 46.7785 36.8274C47.3678 36.8274 47.8406 36.6373 48.1923 36.2571Z" fill="white"/>
<path d="M51.0745 32.4219V31.0604L56.8769 31.0557V32.4172H54.8644L54.8691 38.4097H53.0775V32.4172L51.0745 32.4219Z" fill="white"/>
<path d="M58.495 37.414C57.7632 36.7012 57.3997 35.8007 57.3997 34.71C57.3997 33.6194 57.7632 32.7212 58.4927 32.0108C59.2198 31.3003 60.1132 30.9463 61.1729 30.9463C62.2327 30.9463 63.1213 31.3003 63.8436 32.0108C64.566 32.7189 64.9295 33.617 64.9295 34.7053C64.9295 35.7935 64.5684 36.6941 63.8436 37.4093C63.1166 38.1197 62.2255 38.4762 61.1729 38.4785C60.1203 38.4809 59.2269 38.1269 58.4974 37.4117L58.495 37.414ZM62.5796 36.2474C62.9312 35.8648 63.1071 35.3516 63.1071 34.7077C63.1071 34.0637 62.9288 33.5505 62.5772 33.1679C62.2255 32.7854 61.7527 32.5953 61.1634 32.5953C60.5741 32.5953 60.1013 32.7854 59.7496 33.1679C59.3956 33.5505 59.2198 34.0637 59.2221 34.7077C59.2221 35.3516 59.4003 35.8648 59.752 36.2474C60.106 36.6299 60.5765 36.82 61.1658 36.82C61.7551 36.82 62.2279 36.6276 62.5796 36.245V36.2474Z" fill="white"/>
<path d="M67.2463 35.5425V38.4033H65.4571L65.4524 31.0469H68.3536C69.2066 31.0469 69.8696 31.2655 70.3448 31.7027C70.8034 32.1042 71.0624 32.6864 71.0576 33.2947C71.0505 33.739 70.9174 34.1715 70.6703 34.5421C70.4113 34.9461 69.9908 35.2336 69.4039 35.4023L71.2073 38.3962H69.1116L67.4554 35.5425H67.2463ZM67.2463 32.4108V34.181H68.356C68.596 34.1928 68.8288 34.1073 68.9999 33.941C69.1591 33.7699 69.2447 33.5394 69.2351 33.3066C69.2423 33.0689 69.1544 32.8361 68.9904 32.6626C68.8241 32.4915 68.5912 32.4013 68.3512 32.4108H67.2463Z" fill="white"/>
<path d="M76.0712 38.3961H74.2772V36.0295L71.7277 31.0468H73.7592L75.1778 34.3662L76.5797 31.0444H78.6112L76.0712 36.0319V38.3937V38.3961Z" fill="white"/>
<path d="M42.4872 32.7197V30.6382L38.0629 33.9029L33.5483 30.6453L33.5531 38.4294H35.2568L35.252 34.3948L38.0202 36.2434L42.4872 32.7197Z" fill="white"/>
<path d="M25.4198 35.233C25.6954 35.5632 25.8332 35.9458 25.8332 36.383C25.8332 36.7394 25.7429 37.0602 25.5671 37.3453C25.3889 37.6305 25.1275 37.8562 24.7853 38.0201C24.4432 38.1841 24.0321 38.2673 23.5545 38.2673H21.1143V31.2197H23.4832C24.1961 31.2197 24.7378 31.3837 25.1109 31.714C25.4839 32.0442 25.6716 32.4696 25.6716 32.9947C25.6716 33.4319 25.5528 33.7859 25.3176 34.0592C25.0824 34.3324 24.7806 34.5225 24.4099 34.6294C24.8067 34.7031 25.1418 34.9051 25.4174 35.2353L25.4198 35.233ZM21.82 34.3348H23.4642C23.9418 34.3348 24.3101 34.2231 24.5691 33.9974C24.8281 33.7717 24.9564 33.4604 24.9564 33.066C24.9564 32.6715 24.8281 32.3698 24.5691 32.1488C24.3101 31.9278 23.9323 31.8161 23.4357 31.8161H21.8223V34.3372L21.82 34.3348ZM24.6974 37.3097C24.9826 37.0673 25.1251 36.7347 25.1251 36.3117C25.1251 35.8888 24.9754 35.5514 24.676 35.2995C24.3766 35.0476 23.9751 34.9217 23.4714 34.9217H21.8176V37.6732H23.5022C24.0131 37.6732 24.4123 37.552 24.6974 37.3097Z" fill="white"/>
<path d="M31.7925 31.2222L29.5352 35.5277V38.2697H28.8295V35.5277L26.5508 31.2222H27.3468L29.1811 34.8814L31.006 31.2222H31.7925Z" fill="white"/>
<path d="M39.6809 36.4284L42.3469 34.4609V36.6731L39.6809 38.6429V36.4284Z" fill="white"/>
</svg>
