<svg width="48" height="40" viewBox="0 0 48 40" fill="none" xmlns="http://www.w3.org/2000/svg">
<path d="M47.7087 29.8872H0.377243V40.0002H47.7087V29.8872Z" fill="#4C86A0"/>
<path d="M30.7748 18.2251C30.6319 18.2251 30.51 18.2298 30.4046 18.2415V10.1343L26.9039 12.6696V19.4201C26.9039 20.0481 26.8571 21.2619 26.7633 21.7328C26.6696 22.2038 26.4869 22.6115 26.2174 22.9583C26.0018 23.2348 25.7113 23.4738 25.3598 23.6776L22.1216 25.1444L22.131 28.5748C22.131 28.5748 26.2572 26.7589 26.7235 26.5597C27.5811 26.1918 28.284 25.6951 28.83 25.0648C29.3783 24.4368 29.7766 23.6589 30.0273 22.7287C30.1047 22.4358 30.1679 21.4587 30.2218 21.1306C30.2312 21.133 30.2382 21.1377 30.2476 21.14C30.3812 21.1611 30.5569 21.1728 30.7725 21.1728" fill="white"/>
<path d="M37.1857 18.1455H29.458V21.2361H37.1857V18.1455Z" fill="white"/>
<path d="M25.7581 8.56173L30.7842 4.85254L30.7865 9.02333L25.7605 12.7372L25.7581 8.56173Z" fill="#E52137"/>
<path d="M25.7581 8.56152C25.7581 8.6365 28.441 10.7594 28.441 10.7594L25.7628 12.7393V8.79818" fill="#AD182E"/>
<path d="M9.28587 9.18945L7.57772 10.4524L6.35929 11.3522C8.97658 13.7094 10.7035 16.5282 10.7035 19.5344V20.0757H1.23718L0 23.2436H14.1034V20.6544C14.1034 16.4883 13.056 12.7557 9.28587 9.18945V9.18945Z" fill="white"/>
<path d="M18.5483 0.869306L16.4793 2.39938V23.244H19.7246V0L18.5483 0.869306Z" fill="white"/>
<path d="M46.6707 12.8213C46.0966 11.8302 45.3117 11.057 44.3135 10.5016C43.3153 9.94631 42.2187 9.66748 41.0237 9.66748C39.8287 9.66748 38.7298 9.94631 37.7339 10.5016C36.7358 11.057 35.9461 11.8302 35.358 12.8213C34.7722 13.8125 34.4793 14.9302 34.4793 16.1744C34.4793 17.4186 34.7722 18.541 35.358 19.5368C35.9438 20.535 36.7358 21.3106 37.7339 21.8659C38.7321 22.4212 39.8287 22.7 41.0237 22.7C42.2187 22.7 43.313 22.4212 44.3064 21.8659C45.2976 21.3106 46.0825 20.5326 46.6636 19.5368C47.2447 18.5386 47.5329 17.4186 47.5329 16.1744C47.5329 14.9302 47.2447 13.8125 46.6707 12.8213V12.8213ZM43.3059 18.705C42.7319 19.3329 41.9797 19.6399 41.005 19.6399C40.049 19.6399 39.2781 19.3259 38.7087 18.7097C38.1393 18.0934 37.8464 17.2382 37.8464 16.1861C37.8464 15.134 38.1346 14.2858 38.7063 13.6625C39.2781 13.0393 40.0326 12.7276 41.0026 12.7276C41.9586 12.7276 42.7319 13.0416 43.2989 13.6579C43.8659 14.2764 44.1635 15.1293 44.1635 16.1791C44.1635 17.2311 43.8776 18.0794 43.3059 18.7026V18.705Z" fill="white"/>
<path d="M34.2028 33.4509C33.7178 32.9752 33.1109 32.7339 32.401 32.7339C31.691 32.7339 31.0818 32.9752 30.5944 33.4532C30.2968 33.7367 30.0789 34.0952 29.9641 34.4889L28.9729 35.145C28.9448 34.4702 28.7011 33.9008 28.2419 33.4532C27.7569 32.9776 27.15 32.7362 26.44 32.7362C25.73 32.7362 25.1232 32.9776 24.6334 33.4556C24.1437 33.9312 23.8954 34.5475 23.8954 35.2762C23.8954 36.0049 24.1437 36.6212 24.6358 37.0992C24.8443 37.3054 25.088 37.4741 25.3551 37.5959L24.2304 38.3457V39.8313L27.8623 37.4131L27.8904 37.3897C28.0123 37.2796 28.1341 37.2046 28.2442 37.0992L29.95 35.9909C30.0602 36.415 30.2851 36.7992 30.5991 37.1038C31.0888 37.5818 31.6957 37.8232 32.4033 37.8232C33.1109 37.8232 33.7178 37.5795 34.2052 37.1015C34.6926 36.6235 34.9409 36.0096 34.9386 35.2762C34.9386 34.5428 34.6949 33.9336 34.2099 33.4579L34.2028 33.4509ZM27.3187 36.2439C27.0961 36.4853 26.8079 36.6048 26.433 36.6048C26.0651 36.6048 25.7675 36.4853 25.5496 36.2463C25.3317 36.0073 25.2169 35.6792 25.2169 35.2739C25.2169 34.8685 25.327 34.5404 25.5496 34.3014C25.7699 34.0624 26.0651 33.9406 26.433 33.9406C26.8009 33.9406 27.1008 34.0601 27.3187 34.2991C27.5366 34.5381 27.6514 34.8661 27.6514 35.2715C27.6514 35.6769 27.5413 36.0049 27.321 36.2439H27.3187ZM33.282 36.2439C33.0617 36.4853 32.7712 36.6048 32.3963 36.6048C32.0284 36.6048 31.7308 36.4853 31.5106 36.2463C31.2903 36.0096 31.1778 35.6792 31.1778 35.2739C31.1778 34.8685 31.288 34.5404 31.5082 34.3014C31.7285 34.0624 32.019 33.9406 32.3939 33.9406C32.7618 33.9406 33.0594 34.0601 33.2773 34.2991C33.4952 34.5381 33.61 34.8661 33.61 35.2715C33.61 35.6769 33.4999 36.0026 33.2796 36.2439H33.282Z" fill="white"/>
<path d="M21.7444 33.8471V35.9888H15.0313C14.9867 35.9888 14.9399 35.9888 14.8953 35.9958V33.013L13.609 33.9456V36.4293C13.609 36.6589 13.5926 37.1065 13.5574 37.2798C13.527 37.4439 13.459 37.5985 13.3582 37.7297C13.2716 37.8375 13.1638 37.9266 13.0419 37.9945L11.8516 38.5334V39.794C11.8516 39.794 13.3723 39.1262 13.541 39.0489C14.1526 38.8052 14.6071 38.2804 14.7571 37.6407C14.7852 37.5329 14.8063 37.1744 14.8297 37.0526H14.8391C14.9024 37.0643 14.968 37.069 15.0313 37.0666H23.0307V33.0083L21.742 33.8448L21.7444 33.8471Z" fill="white"/>
<path d="M5.58839 36.2557C5.26738 36.1714 5.00495 36.0448 4.81281 35.8832C4.62068 35.7262 4.47775 35.52 4.39574 35.288C4.3067 34.9576 4.26921 34.6155 4.28561 34.2758V32.6777L2.91956 33.4814C2.89144 33.6244 2.86566 33.7673 2.84223 33.9149C2.80474 34.1563 2.78365 34.4023 2.78131 34.6483C2.78131 35.0396 2.83755 35.4286 2.95705 35.8011C3.0742 36.162 3.2804 36.4877 3.55689 36.7478C3.84275 37.0196 4.23406 37.2398 4.72612 37.4039C4.80813 37.4296 4.89482 37.4531 4.98621 37.4788L6.47645 36.3776C6.17652 36.3682 5.88129 36.3283 5.59074 36.2581L5.58839 36.2557Z" fill="white"/>
<path d="M11.6735 34.1775C11.547 33.5987 11.1182 33.1324 10.5512 32.9544C10.2395 32.8419 9.84119 32.7856 9.37022 32.7856C9.06561 32.7856 8.761 32.8044 8.45639 32.8419C8.17522 32.8794 7.88232 32.9286 7.59178 32.9918V36.3847H6.76933V37.6524H9.07733V34.0955H9.13825C9.16637 34.0955 9.19683 34.0955 9.22495 34.0908C9.25775 34.0861 9.2929 34.0861 9.3257 34.0861C9.67717 34.0861 9.93023 34.1728 10.0755 34.3438C10.2208 34.5149 10.2887 34.7914 10.2887 35.1827V37.6524H11.786V35.171C11.7883 34.8359 11.7509 34.5032 11.6735 34.1775V34.1775Z" fill="white"/>
<path d="M4.51289 38.2169L6.48113 36.7642V38.3973L4.51524 39.8524V38.2169H4.51289Z" fill="white"/>
<path d="M4.51289 38.2173C4.51289 38.2477 5.56262 39.0772 5.56262 39.0772L4.51289 39.8528V38.311" fill="white"/>
<path d="M21.5803 31.4874L23.5486 30.0347V31.6678L21.5827 33.1229V31.4874H21.5803Z" fill="white"/>
<path d="M21.5803 31.4878C21.5803 31.5159 22.6301 32.3477 22.6301 32.3477L21.5803 33.1233V31.5792" fill="white"/>
<path d="M41.1807 36.7783C40.998 36.7783 40.8527 36.7408 40.7449 36.6634C40.6371 36.5885 40.5551 36.4971 40.4965 36.3916V36.6822C40.4965 37.029 40.4473 37.3242 40.3512 37.5702C40.2552 37.8163 40.1146 38.0178 39.9295 38.1771C39.7467 38.3341 39.5194 38.4489 39.2523 38.5239C38.9852 38.5965 38.6782 38.634 38.3385 38.634C37.6191 38.634 37.0779 38.4724 36.7147 38.1467C36.3515 37.821 36.1711 37.3547 36.1711 36.7455V35.5341H36.8154V36.6119C36.8154 37.118 36.9443 37.4718 37.2044 37.6757C37.4622 37.8795 37.8464 37.9803 38.3549 37.9803C38.6173 37.9803 38.8423 37.9592 39.0297 37.9217C39.2172 37.8819 39.3742 37.8139 39.496 37.7179C39.6178 37.6218 39.7092 37.4882 39.7655 37.3172C39.824 37.1461 39.8522 36.9306 39.8522 36.6705V34.653H40.4965V35.2599C40.4965 35.3911 40.5035 35.5106 40.52 35.6184C40.5364 35.7262 40.5692 35.8152 40.6184 35.8902C40.6676 35.9628 40.7379 36.0214 40.8269 36.0636C40.9159 36.1058 41.0354 36.1269 41.1807 36.1269C41.3916 36.1269 41.4947 36.2323 41.4947 36.4409C41.4947 36.5721 41.4689 36.6611 41.4197 36.708C41.3705 36.7548 41.2908 36.7783 41.1807 36.7783V36.7783ZM37.9776 33.9688C37.9776 33.854 38.0175 33.7556 38.0995 33.6736C38.1815 33.5916 38.2799 33.5518 38.3947 33.5518C38.5095 33.5518 38.6079 33.5916 38.69 33.6736C38.772 33.7556 38.8118 33.854 38.8118 33.9688C38.8118 34.0837 38.772 34.1821 38.69 34.2641C38.6079 34.3461 38.5095 34.3859 38.3947 34.3859C38.2799 34.3859 38.1815 34.3461 38.0995 34.2641C38.0175 34.1821 37.9776 34.0837 37.9776 33.9688Z" fill="white"/>
<path d="M41.1643 36.7781C40.9534 36.7781 40.8503 36.6727 40.8503 36.4618C40.8503 36.3306 40.8761 36.2416 40.9253 36.1947C40.9745 36.1478 41.0542 36.1244 41.1643 36.1244H41.4877C41.5509 36.1244 41.6165 36.1174 41.6845 36.101C41.7525 36.0846 41.8204 36.0518 41.8884 35.9979C41.9563 35.944 42.0243 35.8737 42.0899 35.78C42.1555 35.6886 42.2164 35.562 42.275 35.4051C42.3945 35.0676 42.5233 34.7958 42.6569 34.5896C42.7905 34.3811 42.9264 34.2218 43.067 34.1093C43.2052 33.9968 43.3481 33.9218 43.4911 33.8844C43.6363 33.8469 43.7793 33.8281 43.9199 33.8281C44.119 33.8281 44.3018 33.8656 44.4705 33.9429C44.6392 34.0179 44.7845 34.1257 44.9063 34.2663C45.0305 34.4069 45.1266 34.5709 45.1969 34.763C45.2672 34.9552 45.3023 35.1707 45.3023 35.4051C45.3023 35.8573 45.1922 36.2158 44.9766 36.4829C44.7587 36.7477 44.4236 36.8812 43.9737 36.8812C43.7277 36.8812 43.477 36.8391 43.2263 36.7547C42.9756 36.6704 42.7155 36.5298 42.4484 36.3306C42.3804 36.436 42.3101 36.518 42.2398 36.579C42.1695 36.6399 42.0946 36.6844 42.0149 36.7125C41.9376 36.7406 41.8555 36.7594 41.7712 36.7688C41.6868 36.7781 41.5978 36.7805 41.5041 36.7805H41.1667L41.1643 36.7781ZM44.6579 35.3863C44.6579 35.2715 44.6415 35.159 44.6064 35.0489C44.5713 34.9388 44.522 34.8404 44.4564 34.7584C44.3908 34.674 44.3112 34.6084 44.2174 34.5568C44.1237 34.5076 44.0136 34.4819 43.8871 34.4819C43.6668 34.4819 43.4653 34.5779 43.2802 34.7724C43.0974 34.9669 42.924 35.3066 42.76 35.7964C42.9545 35.9229 43.1466 36.0236 43.3388 36.0986C43.5309 36.1736 43.7254 36.2134 43.9245 36.2134C44.1448 36.2134 44.3229 36.1502 44.4564 36.0236C44.59 35.8971 44.6579 35.6862 44.6579 35.3863V35.3863Z" fill="white"/>
</svg>
