<svg width="129" height="40" viewBox="0 0 129 40" fill="none" xmlns="http://www.w3.org/2000/svg">
    <g opacity="0.5">
        <path d="M30.3899 20.5311C28.3294 18.5311 27.3008 15.9933 27.3008 12.9143C27.3008 9.83528 28.3261 7.30083 30.3798 5.31092C32.4336 3.31092 34.9513 2.30923 37.9328 2.30923C40.9143 2.30923 43.4219 3.31092 45.4588 5.31092C47.4992 7.31091 48.5176 9.84537 48.5176 12.9109C48.5176 15.9765 47.4958 18.5143 45.4555 20.5277C43.4151 22.5277 40.9076 23.5328 37.9328 23.5462C34.9613 23.5563 32.4471 22.5513 30.3933 20.5344L30.3899 20.5311ZM41.8958 17.247C42.8874 16.1714 43.3849 14.7227 43.3815 12.9076C43.3815 11.0924 42.8807 9.64369 41.8891 8.5647C40.8975 7.48907 39.5664 6.94789 37.9025 6.94789C36.2387 6.94789 34.9109 7.4857 33.9193 8.5647C32.9277 9.64033 32.4303 11.0891 32.4336 12.9008C32.4336 14.716 32.9345 16.1613 33.9261 17.237C34.921 18.3126 36.2487 18.8538 37.9126 18.8538C39.5765 18.8538 40.9008 18.3193 41.8958 17.247Z" fill="#8D96AB"/>
        <path d="M50.0235 6.43697V2.60167L66.3731 2.58823V6.42688H60.7025L60.716 23.3076H55.6672V6.42352L50.0202 6.4336L50.0235 6.43697Z" fill="#8D96AB"/>
        <path d="M70.9243 20.5008C68.8638 18.4941 67.8353 15.9529 67.8353 12.884C67.8353 9.81512 68.8605 7.28067 70.9143 5.28403C72.9647 3.28403 75.4823 2.28235 78.4672 2.28235C81.4521 2.28235 83.9596 3.28403 85.9932 5.28403C88.0302 7.27731 89.0487 9.80504 89.0487 12.8739C89.0487 15.9429 88.0302 18.4807 85.9899 20.4908C83.9428 22.4908 81.4319 23.4958 78.4638 23.5059C75.4958 23.516 72.9815 22.5143 70.9243 20.5042V20.5008ZM82.4302 17.2134C83.4218 16.1378 83.9193 14.6891 83.9159 12.8773C83.9159 11.0622 83.4151 9.6168 82.4235 8.54117C81.4319 7.46554 80.1042 6.92437 78.4403 6.92437C76.7764 6.92437 75.4487 7.46218 74.4571 8.54117C73.4622 9.6168 72.968 11.0655 72.968 12.8807C72.968 14.6958 73.4689 16.1412 74.4605 17.2168C75.4554 18.2924 76.7832 18.8336 78.447 18.8336C80.1109 18.8336 81.4386 18.2958 82.4302 17.2168V17.2134Z" fill="#8D96AB"/>
        <path d="M95.5731 15.2269V23.284H90.5311L90.5177 2.56134H98.6891C101.092 2.56134 102.965 3.17647 104.299 4.40672C105.59 5.53949 106.323 7.17647 106.309 8.89075C106.292 10.1412 105.913 11.3613 105.22 12.4034C104.494 13.5429 103.304 14.3496 101.65 14.8235L106.729 23.2605H100.827L96.158 15.2235H95.5698L95.5731 15.2269ZM95.5731 6.40336V11.3916H98.6992C99.3714 11.4286 100.03 11.1832 100.514 10.7126C100.965 10.2286 101.203 9.58319 101.173 8.92436C101.197 8.25209 100.945 7.59999 100.481 7.1126C100.01 6.63193 99.3546 6.3731 98.6824 6.40672H95.5698L95.5731 6.40336Z" fill="#8D96AB"/>
        <path d="M120.44 23.2638H115.388V16.5949L108.208 2.55796H113.933L117.926 11.9092L121.872 2.55124H127.593L120.437 16.605V23.2605L120.44 23.2638Z" fill="#8D96AB"/>
        <path d="M25.8286 7.27058V1.40503L13.3613 10.605L0.64537 1.4252L0.658816 23.3546H5.45881L5.44873 11.9899L13.247 17.2L25.8286 7.27058Z" fill="#8D96AB"/>
        <path d="M18.3193 16.716L25.8319 11.1731V17.405L18.3227 22.958V16.716H18.3193Z" fill="#8D96AB"/>
        <path d="M18.3193 16.7159C18.3193 16.8302 22.3294 20 22.3294 20L18.326 22.958V17.0689" fill="#8D96AB"/>
        <path d="M127.704 24.8874H0.64537V39.3781H127.704V24.8874Z" fill="#8D96AB"/>
        <path d="M83.1193 37.4151C82.8269 37.1428 82.679 36.8067 82.679 36.4033C82.679 36 82.8269 35.647 83.1193 35.368C83.4117 35.089 83.7916 34.9512 84.2554 34.9512C84.7193 34.9512 85.0823 35.089 85.3748 35.368C85.6672 35.647 85.8151 35.9899 85.8151 36.4033C85.8151 36.8168 85.6672 37.1428 85.3748 37.4151C85.0823 37.6874 84.7092 37.8252 84.2554 37.8252C83.8017 37.8252 83.4151 37.6874 83.1193 37.4151Z" fill="white"/>
        <path d="M87.6202 29.4017C88.084 28.5613 88.7294 27.9092 89.5563 27.442C90.3832 26.9748 91.3244 26.7395 92.3731 26.7395C93.6605 26.7395 94.7597 27.079 95.6773 27.758C96.5916 28.437 97.2067 29.3647 97.516 30.5378H94.6118C94.3966 30.084 94.0907 29.7412 93.6941 29.5025C93.2975 29.2672 92.847 29.1462 92.3428 29.1462C91.5294 29.1462 90.8706 29.4285 90.3664 29.9966C89.8622 30.5613 89.6101 31.321 89.6101 32.2655C89.6101 33.2101 89.8622 33.9697 90.3664 34.5344C90.8706 35.0991 91.5294 35.3848 92.3428 35.3848C92.847 35.3848 93.2975 35.2672 93.6941 35.0285C94.0907 34.7933 94.3966 34.447 94.6118 33.9933H97.516C97.2067 35.1664 96.595 36.0907 95.6773 36.7664C94.7597 37.442 93.6605 37.7781 92.3731 37.7781C91.3244 37.7781 90.3832 37.5428 89.5563 37.0756C88.7294 36.6084 88.0807 35.9563 87.6202 35.1227C87.1563 34.2891 86.9244 33.3378 86.9244 32.2655C86.9244 31.1933 87.1563 30.242 87.6202 29.4017Z" fill="white"/>
        <path d="M101.462 37.0991C100.612 36.6252 99.9395 35.963 99.4386 35.116C98.9378 34.2655 98.6891 33.3109 98.6891 32.2521C98.6891 31.1933 98.9378 30.2386 99.4386 29.3949C99.9361 28.5512 100.612 27.8924 101.462 27.4185C102.313 26.9445 103.247 26.7092 104.266 26.7092C105.284 26.7092 106.218 26.9479 107.069 27.4185C107.919 27.8924 108.588 28.5512 109.076 29.3949C109.563 30.2386 109.808 31.1899 109.808 32.2521C109.808 33.3143 109.56 34.2689 109.066 35.116C108.571 35.9664 107.903 36.6252 107.059 37.0991C106.215 37.5731 105.284 37.8084 104.262 37.8084C103.24 37.8084 102.309 37.5731 101.459 37.0991H101.462ZM106.343 34.5378C106.864 33.963 107.123 33.2 107.123 32.2521C107.123 31.3042 106.864 30.5311 106.343 29.9596C105.822 29.3882 105.129 29.1025 104.266 29.1025C103.402 29.1025 102.692 29.3849 102.175 29.9529C101.654 30.5176 101.395 31.2874 101.395 32.2521C101.395 33.2168 101.654 33.9731 102.175 34.5445C102.696 35.116 103.392 35.4017 104.266 35.4017C105.139 35.4017 105.822 35.1126 106.343 34.5378Z" fill="white"/>
        <path d="M123.553 26.8605V37.7008H120.911V31.2L118.487 37.7008H116.356L113.916 31.1832V37.7008H111.274V26.8605H114.393L117.435 34.3664L120.447 26.8605H123.55H123.553Z" fill="white"/>
    </g>
</svg>
