<svg width="92" height="44" viewBox="0 0 92 44" fill="none" xmlns="http://www.w3.org/2000/svg">
    <path d="M91.2202 27.3761H0.00832367V44H91.2202V27.3761Z" fill="#0083F9"/>
    <path d="M37.8314 39.5717C36.8118 38.5812 36.3014 37.3242 36.3014 35.8005C36.3014 34.2768 36.8086 33.0219 37.8262 32.0356C38.8437 31.0452 40.0903 30.5494 41.5661 30.5494C43.0418 30.5494 44.2843 31.0452 45.2935 32.0356C46.3037 33.026 46.8088 34.28 46.8078 35.7984C46.8078 37.3159 46.3016 38.5739 45.2914 39.5706C44.2801 40.5611 43.0387 41.0589 41.5661 41.0641C40.0945 41.0693 38.8489 40.5725 37.8324 39.5727L37.8314 39.5717ZM43.5292 37.9449C44.0208 37.4117 44.2656 36.6951 44.2656 35.7963C44.2656 34.8976 44.0187 34.18 43.5261 33.6457C43.0345 33.1125 42.3763 32.8459 41.5525 32.8459C40.7287 32.8459 40.0705 33.1125 39.581 33.6457C39.0895 34.1789 38.8447 34.8944 38.8447 35.7932C38.8447 36.692 39.0915 37.4075 39.5841 37.9407C40.0768 38.474 40.735 38.7406 41.5577 38.7406C42.3805 38.7406 43.0377 38.475 43.5292 37.9449Z" fill="white"/>
    <path d="M47.5524 32.5928V30.6942L55.6478 30.6869V32.5876H52.841L52.8483 40.9454H50.3488V32.5855L47.5535 32.5907L47.5524 32.5928Z" fill="white"/>
    <path d="M57.9026 39.5571C56.883 38.5625 56.3737 37.3054 56.3737 35.7859C56.3737 34.2664 56.8819 33.0115 57.8984 32.0221C58.9138 31.0316 60.1605 30.5359 61.6383 30.5359C63.1162 30.5359 64.3576 31.0316 65.3647 32.0221C66.3739 33.0083 66.878 34.2612 66.878 35.7797C66.878 37.2981 66.3728 38.5552 65.3626 39.5508C64.3482 40.5413 63.1068 41.0391 61.6362 41.0433C60.1667 41.0474 58.9222 40.5517 57.9036 39.5561L57.9026 39.5571ZM63.6004 37.9293C64.092 37.396 64.3368 36.6806 64.3368 35.7818C64.3368 34.883 64.0899 34.1675 63.5973 33.6343C63.1058 33.101 62.4486 32.8344 61.6248 32.8344C60.801 32.8344 60.1438 33.101 59.6533 33.6343C59.1607 34.1675 58.9149 34.884 58.9159 35.7828C58.9159 36.6816 59.1627 37.3981 59.6554 37.9303C60.148 38.4636 60.8051 38.7302 61.6289 38.7302C62.4527 38.7302 63.1099 38.4636 63.6004 37.9293Z" fill="white"/>
    <path d="M70.1076 36.9451V40.935H67.6112L67.6039 30.6734H71.65C72.8404 30.6734 73.7663 30.9785 74.4286 31.5878C75.0671 32.1481 75.4305 32.9583 75.4243 33.8082C75.4159 34.4279 75.2285 35.0319 74.8848 35.5474C74.5255 36.1119 73.936 36.5118 73.1174 36.7462L75.6315 40.9235H72.7092L70.3981 36.944H70.1065L70.1076 36.9451ZM70.1076 32.5761V35.0454H71.6562C71.9895 35.0632 72.3155 34.9413 72.5561 34.7091C72.7789 34.4695 72.8977 34.1508 72.8831 33.8228C72.8945 33.4895 72.7706 33.1666 72.5404 32.9261C72.3072 32.6876 71.9833 32.5605 71.65 32.5761H70.1086H70.1076Z" fill="white"/>
    <path d="M82.4208 40.9266H79.9192V37.6252L76.3636 30.6754H79.1985L81.1763 35.3069L83.1311 30.6734H85.9639L82.4208 37.6314V40.9277V40.9266Z" fill="white"/>
    <path d="M35.5724 33.0073V30.1026L29.3996 34.657L23.1029 30.112L23.1102 40.9714L25.4858 40.9693L25.4806 35.3454L29.3423 37.9251L35.5724 33.0083V33.0073Z" fill="white"/>
    <path d="M11.7644 36.516C12.1487 36.9753 12.3414 37.5096 12.3414 38.1188C12.3414 38.6156 12.2175 39.0634 11.9685 39.4623C11.7196 39.8612 11.3572 40.1747 10.8781 40.4049C10.4001 40.635 9.82832 40.7496 9.16282 40.7496H5.7593V30.9191H9.06388C10.0574 30.9191 10.8146 31.1493 11.3353 31.6086C11.8561 32.0679 12.1154 32.6636 12.1154 33.3947C12.1154 34.004 11.9508 34.4987 11.6228 34.8788C11.2947 35.259 10.8729 35.5235 10.3574 35.6735C10.9104 35.7766 11.3791 36.0578 11.7634 36.517L11.7644 36.516ZM6.74349 35.2642H9.03576C9.70126 35.2642 10.2147 35.1069 10.5761 34.7934C10.9364 34.4789 11.1177 34.0456 11.1177 33.4926C11.1177 32.9396 10.9375 32.522 10.5761 32.2127C10.2147 31.9033 9.68772 31.7482 8.99411 31.7482H6.74349V35.2642ZM10.7584 39.4134C11.1572 39.0759 11.3562 38.6114 11.3562 38.0209C11.3562 37.4304 11.1479 36.9586 10.7302 36.6077C10.3126 36.2556 9.75334 36.0807 9.0493 36.0807H6.74245V39.9206H9.09096C9.80333 39.9206 10.3584 39.7519 10.7573 39.4144L10.7584 39.4134Z" fill="white"/>
    <path d="M20.6523 30.9191L17.5019 36.9243V40.7496H16.5177V36.9243L13.3391 30.9191H14.4504L17.0103 36.0244L19.5557 30.9191H20.6523Z" fill="white"/>
    <path d="M31.6565 38.1834L35.3766 35.4391L35.3787 38.525L31.6586 41.2734L31.6565 38.1834Z" fill="white"/>
    <path d="M4.83138 24.5974C3.45976 24.0579 2.2652 23.1498 1.37682 21.9729C0.488449 20.7575 0.00729029 19.2943 0 17.7893H6.44982C6.48627 18.5892 6.82787 19.3443 7.40381 19.8994C7.9964 20.4013 8.75668 20.6596 9.53257 20.6242C10.2908 20.6659 11.0406 20.4482 11.6572 20.0056C12.1779 19.59 12.4674 18.9506 12.4372 18.2851C12.4539 17.7133 12.2289 17.1603 11.8176 16.7625C11.3739 16.3438 10.8573 16.0074 10.2949 15.772C9.4555 15.4294 8.59837 15.1336 7.72562 14.8868C6.37692 14.491 5.06154 13.9932 3.78991 13.3954C2.7526 12.883 1.85277 12.129 1.1654 11.1979C0.392634 10.0898 0.00729027 8.75772 0.068737 7.40901C0.068737 5.0907 0.908161 3.27751 2.58701 1.96838C4.26586 0.659251 6.45086 0.00312536 9.14306 9.53674e-07C11.8957 9.53674e-07 14.1036 0.656127 15.7678 1.96838C17.4529 3.28896 18.4444 5.30525 18.4611 7.44547H11.9196C11.9082 6.7154 11.5863 6.02386 11.0344 5.54583C10.4439 5.06987 9.70025 4.82513 8.94206 4.85741C8.30676 4.83034 7.68396 5.03551 7.19031 5.43543C6.30297 6.30297 6.28735 7.72666 7.1549 8.614C7.3007 8.76293 7.46734 8.89207 7.64855 8.99517C8.7775 9.60131 9.96582 10.0887 11.1948 10.4491C12.532 10.8865 13.8401 11.4072 15.1117 12.0092C16.1334 12.5195 17.0239 13.2589 17.7133 14.1702C18.4871 15.2325 18.8756 16.5271 18.8152 17.8404C18.8298 19.2047 18.4538 20.5451 17.7321 21.7032C16.9645 22.8946 15.8793 23.8476 14.5983 24.4558C13.0809 25.1723 11.4176 25.5243 9.73982 25.4837C8.06202 25.5118 6.39358 25.2109 4.83138 24.5985V24.5974Z" fill="#171D35"/>
    <path d="M42.2857 0.35723V25.2348H36.2254V14.9909H26.7981V25.2348H20.7377V0.35723H26.7981V10.1012H36.2254V0.35723H42.2857Z" fill="#171D35"/>
    <path d="M50.9643 23.8497C49.0324 22.7822 47.4275 21.2095 46.3214 19.2984C44.0281 15.2211 44.0281 10.2418 46.3214 6.16447C47.4327 4.26274 49.0366 2.69741 50.9643 1.63199C54.9708 -0.538432 59.8033 -0.538432 63.8098 1.63199C65.7261 2.69325 67.3133 4.26066 68.3975 6.16447C70.6512 10.2522 70.6512 15.2107 68.3975 19.2984C67.3029 21.2064 65.7094 22.7801 63.7869 23.8497C59.7824 26.0274 54.9469 26.0274 50.9414 23.8497H50.9643ZM62.1622 17.9685C63.3547 16.6469 63.9514 14.8951 63.9514 12.7247C63.9514 10.5543 63.3547 8.77022 62.1622 7.46318C59.5075 4.85013 55.2479 4.85013 52.5921 7.46318C51.3986 8.76293 50.8029 10.523 50.8029 12.7434C50.8029 14.9638 51.3996 16.7177 52.5921 18.0049C55.2364 20.643 59.5169 20.643 62.1612 18.0049V17.9685H62.1622Z" fill="#171D35"/>
    <path d="M90.0569 12.3175C89.3466 13.5589 88.2854 14.5618 87.0065 15.2034C85.4234 15.9866 83.6706 16.3646 81.9053 16.3052L78.4018 16.1782V15.3585L72.1218 20.0545L72.0874 0.35826H81.9043C83.6436 0.302021 85.3724 0.652996 86.9502 1.38619C88.2416 1.99545 89.3175 2.98485 90.033 4.22107C90.7308 5.48437 91.0849 6.90702 91.0609 8.34946C91.0755 9.73669 90.7287 11.1041 90.0559 12.3175H90.0569ZM84.0331 10.6709C85.1516 9.34614 85.1516 7.40797 84.0331 6.08322C83.4644 5.54166 82.6021 5.27087 81.446 5.27087H78.1477V11.5051H81.446C82.6021 11.4895 83.4644 11.2114 84.0331 10.6699V10.6709Z" fill="#171D35"/>
    <path d="M72.0884 20.694L78.1977 16.1875L78.2019 21.2553L72.0926 25.7691L72.0884 20.694Z" fill="#EC1D32"/>
    <path d="M72.0884 20.694C72.0884 20.7857 75.3482 23.3643 75.3482 23.3643L72.0915 25.7691V20.9815" fill="#AD1E2E"/>
</svg>
