<svg width="62" height="40" viewBox="0 0 62 40" fill="none" xmlns="http://www.w3.org/2000/svg">
<path d="M38.8678 23.1769C39.719 23.1971 42.6457 23.3044 43.4098 22.9288C44.1046 22.5732 44.6586 21.9919 44.9826 21.2831C45.3959 21.9986 45.9924 22.5889 46.7096 22.9981C47.4223 23.3334 48.202 23.4944 48.9884 23.4698C49.8575 23.4855 50.7176 23.3021 51.504 22.9288C52.2234 22.5889 52.8021 22.0076 53.1349 21.2831C53.5416 21.9852 54.1157 22.5755 54.8083 22.9981C55.4987 23.3379 56.265 23.5011 57.0335 23.4698C57.6524 23.4698 58.269 23.3715 58.8566 23.1769C59.4419 22.9869 59.9781 22.6694 60.4294 22.2513C60.9075 21.8019 61.2828 21.2541 61.5331 20.6459C61.828 19.8991 61.9687 19.0987 61.9486 18.296V10.6426L58.3829 13.4084L58.3896 18.2669C58.3896 19.0025 58.202 19.5146 57.8244 19.803C57.4468 20.0914 56.8347 20.2323 55.9857 20.23C55.1926 20.23 54.6452 20.0646 54.3414 19.7337C54.0264 19.4005 53.8856 18.8662 53.8856 18.1283L53.8633 11.8321L50.2797 14.4816L50.2373 18.2356C50.2373 18.9757 50.0429 19.4922 49.6564 19.7873C49.2677 20.0802 48.66 20.2278 47.8333 20.2278C47.0402 20.2278 46.4929 20.0624 46.189 19.7314C45.8852 19.4005 45.7333 18.8662 45.7333 18.1261V13.4598L41.9687 16.0512L42.0827 18.2379C42.0827 18.9779 41.8906 19.4944 41.504 19.7896C41.1175 20.0825 39.8463 20.23 39.0197 20.23" fill="white"/>
<path d="M41.962 23.1776L31.2114 23.1687L34.5939 20.2285H41.962V23.1776Z" fill="white"/>
<path d="M19.4129 13.4044V20.4966H7.65022C7.03137 20.4966 6.52198 20.4742 6.12207 20.4273C5.72216 20.3825 5.40268 20.2953 5.1681 20.1679C4.93128 20.0404 4.76819 19.8683 4.67659 19.6492C4.58499 19.4301 4.54031 19.1506 4.54031 18.804V12.7694L0.999207 15.3876V19.3227C0.999207 20.1053 1.09527 20.7671 1.28518 21.3127C1.47508 21.8582 1.79009 22.3032 2.22575 22.6475C2.6614 22.9941 3.24228 23.2422 3.96837 23.3965C4.69446 23.5508 5.59259 23.629 6.66497 23.629H12.1587L14.4062 21.97V23.629H22.9563V10.7861L19.4152 13.4044H19.4129Z" fill="white"/>
<path d="M9.83301 25.7662L14.1672 22.5645L14.1717 26.1642L9.83524 29.3705L9.83301 25.7662Z" fill="#EC1D32"/>
<path d="M9.83301 25.7666C9.83301 25.8314 12.1453 27.6649 12.1453 27.6649L9.83524 29.3731V25.9701" fill="#AD1E2E"/>
<path d="M49.471 2.68977L53.1126 0V3.02515L49.471 5.71939V2.68977Z" fill="white"/>
<path d="M50.5032 10.3228L53.9504 7.77391L53.946 3.36475L50.5032 5.90694V10.3228Z" fill="white"/>
<path d="M50.0608 6.2334L48.6377 7.28426L48.6399 11.7001L50.0608 10.6493V6.2334Z" fill="white"/>
<path d="M62 30.2739H1.00143V40H62V30.2739Z" fill="#0083F9"/>
<path d="M33.2377 33.7125C32.7753 33.2586 32.1966 33.0283 31.5197 33.0283C30.8428 33.0283 30.2619 33.2586 29.7972 33.7147C29.5134 33.9853 29.3057 34.3274 29.1962 34.703L28.2512 35.329C28.2243 34.6851 27.992 34.1418 27.5541 33.7147C27.0916 33.2609 26.513 33.0306 25.8361 33.0306C25.1591 33.0306 24.5805 33.2609 24.1135 33.717C23.6466 34.1709 23.4098 34.7589 23.4098 35.4543C23.4098 36.1496 23.6466 36.7377 24.1158 37.1938C24.3146 37.3905 24.547 37.5515 24.8017 37.6678L23.7293 38.3833V39.8008L27.1922 37.4934L27.219 37.471C27.3352 37.3659 27.4513 37.2944 27.5563 37.1938L29.1828 36.1362C29.2878 36.5409 29.5023 36.9076 29.8016 37.1982C30.2686 37.6544 30.8472 37.8847 31.5219 37.8847C32.1966 37.8847 32.7753 37.6521 33.24 37.196C33.7047 36.7399 33.9415 36.1541 33.9393 35.4543C33.9393 34.7544 33.7069 34.1731 33.2444 33.7192L33.2377 33.7125ZM26.6739 36.3777C26.4616 36.608 26.1868 36.722 25.8294 36.722C25.4786 36.722 25.1949 36.608 24.9871 36.3799C24.7793 36.1518 24.6698 35.8388 24.6698 35.452C24.6698 35.0652 24.7748 34.7522 24.9871 34.5241C25.1971 34.2961 25.4786 34.1798 25.8294 34.1798C26.1801 34.1798 26.4661 34.2938 26.6739 34.5219C26.8816 34.7499 26.9911 35.063 26.9911 35.4498C26.9911 35.8366 26.8861 36.1496 26.6761 36.3777H26.6739ZM32.3597 36.3777C32.1497 36.608 31.8727 36.722 31.5152 36.722C31.1645 36.722 30.8807 36.608 30.6707 36.3799C30.4607 36.1541 30.3535 35.8388 30.3535 35.452C30.3535 35.0652 30.4585 34.7522 30.6685 34.5241C30.8785 34.2961 31.1555 34.1798 31.513 34.1798C31.8638 34.1798 32.1475 34.2938 32.3553 34.5219C32.563 34.7499 32.6725 35.063 32.6725 35.4498C32.6725 35.8366 32.5675 36.1474 32.3575 36.3777H32.3597Z" fill="white"/>
<path d="M21.3589 34.0905V36.1341H14.9581C14.9156 36.1341 14.8709 36.1341 14.8285 36.1408V33.2945L13.602 34.1844V36.5544C13.602 36.7735 13.5863 37.2006 13.5528 37.3661C13.5238 37.5226 13.459 37.6701 13.3629 37.7953C13.2802 37.8982 13.1775 37.9832 13.0613 38.048L11.9264 38.5623V39.7652C11.9264 39.7652 13.3763 39.1279 13.5372 39.0541C14.1203 38.8216 14.5537 38.3208 14.6967 37.7104C14.7235 37.6075 14.7436 37.2654 14.7659 37.1492H14.7749C14.8352 37.1604 14.8978 37.1648 14.9581 37.1626H22.5854V33.29L21.3566 34.0883L21.3589 34.0905Z" fill="white"/>
<path d="M5.95677 36.3912C5.65069 36.3107 5.40047 36.19 5.21727 36.0357C5.03407 35.8859 4.89779 35.6892 4.81959 35.4678C4.73469 35.1526 4.69895 34.8261 4.71459 34.5019V32.9771L3.41209 33.744C3.38528 33.8803 3.3607 34.0167 3.33836 34.1576C3.30261 34.3879 3.28251 34.6227 3.28027 34.8574C3.28027 35.2308 3.33389 35.602 3.44783 35.9575C3.55954 36.3018 3.75614 36.6126 4.01977 36.8608C4.29234 37.1201 4.66544 37.3303 5.1346 37.4868C5.2128 37.5114 5.29546 37.5338 5.38259 37.5584L6.8035 36.5075C6.51753 36.4986 6.23603 36.4606 5.959 36.3935L5.95677 36.3912Z" fill="white"/>
<path d="M11.7566 34.4058C11.6359 33.8535 11.2271 33.4085 10.6864 33.2386C10.3893 33.1313 10.0095 33.0776 9.56042 33.0776C9.26999 33.0776 8.97955 33.0955 8.68911 33.1313C8.42102 33.1671 8.14175 33.214 7.86472 33.2744V36.512H7.08054V37.7216H9.28116V34.3275H9.33925C9.36605 34.3275 9.3951 34.3275 9.42191 34.323C9.45319 34.3185 9.4867 34.3186 9.51798 34.3186C9.8531 34.3186 10.0944 34.4013 10.2329 34.5645C10.3714 34.7277 10.4362 34.9916 10.4362 35.3649V37.7216H11.8638V35.3538C11.8661 35.034 11.8303 34.7165 11.7566 34.4058V34.4058Z" fill="white"/>
<path d="M4.92908 38.2603L6.80575 36.874V38.4324L4.93131 39.8209V38.2603H4.92908Z" fill="white"/>
<path d="M4.92908 38.2607C4.92908 38.2898 5.93075 39.0813 5.93075 39.0813L4.92908 39.8214V38.3502" fill="white"/>
<path d="M21.2047 31.8389L23.0814 30.4526V32.011L21.2069 33.3995V31.8389H21.2047Z" fill="white"/>
<path d="M21.2047 31.8394C21.2047 31.8662 22.2064 32.6599 22.2064 32.6599L21.2047 33.4V31.9266" fill="white"/>
<path d="M39.891 36.8874C39.7168 36.8874 39.5782 36.8516 39.4755 36.7778C39.3727 36.7063 39.2945 36.6191 39.2387 36.5185V36.7957C39.2387 37.1266 39.1917 37.4084 39.1001 37.6431C39.0085 37.8779 38.8745 38.0702 38.698 38.2222C38.5237 38.372 38.307 38.4816 38.0523 38.5531C37.7976 38.6224 37.505 38.6582 37.181 38.6582C36.4951 38.6582 35.9791 38.5039 35.6328 38.1932C35.2865 37.8824 35.1144 37.4374 35.1144 36.8561V35.7001H35.7288V36.7287C35.7288 37.2116 35.8517 37.5492 36.0997 37.7437C36.3454 37.9383 36.7118 38.0344 37.1967 38.0344C37.4469 38.0344 37.6614 38.0143 37.8401 37.9785C38.0188 37.9405 38.1685 37.8757 38.2847 37.784C38.4009 37.6923 38.488 37.5649 38.5416 37.4017C38.5975 37.2384 38.6243 37.0327 38.6243 36.7846V34.8595H39.2387V35.4386C39.2387 35.5638 39.2454 35.6778 39.261 35.7806C39.2766 35.8835 39.3079 35.9685 39.3548 36.04C39.4017 36.1093 39.4688 36.1652 39.5537 36.2055C39.6386 36.2457 39.7525 36.2658 39.891 36.2658C40.0921 36.2658 40.1904 36.3664 40.1904 36.5654C40.1904 36.6906 40.1658 36.7756 40.1189 36.8203C40.072 36.865 39.996 36.8874 39.891 36.8874V36.8874ZM36.837 34.2066C36.837 34.097 36.8749 34.0031 36.9531 33.9249C37.0313 33.8466 37.1252 33.8086 37.2346 33.8086C37.3441 33.8086 37.4379 33.8466 37.5161 33.9249C37.5943 34.0031 37.6323 34.097 37.6323 34.2066C37.6323 34.3161 37.5943 34.41 37.5161 34.4883C37.4379 34.5666 37.3441 34.6046 37.2346 34.6046C37.1252 34.6046 37.0313 34.5666 36.9531 34.4883C36.8749 34.41 36.837 34.3161 36.837 34.2066Z" fill="white"/>
<path d="M39.8754 36.8872C39.6743 36.8872 39.576 36.7866 39.576 36.5854C39.576 36.4602 39.6006 36.3752 39.6475 36.3305C39.6944 36.2858 39.7704 36.2634 39.8754 36.2634H40.1837C40.244 36.2634 40.3066 36.2567 40.3714 36.2411C40.4362 36.2254 40.5009 36.1941 40.5657 36.1427C40.6305 36.0913 40.6953 36.0242 40.7579 35.9348C40.8204 35.8476 40.8785 35.7268 40.9344 35.577C41.0483 35.255 41.1712 34.9957 41.2985 34.7989C41.4259 34.5999 41.5555 34.4479 41.6895 34.3406C41.8213 34.2332 41.9576 34.1617 42.0939 34.1259C42.2324 34.0902 42.3687 34.0723 42.5027 34.0723C42.6926 34.0723 42.8669 34.108 43.0278 34.1818C43.1886 34.2534 43.3271 34.3562 43.4433 34.4904C43.5617 34.6245 43.6533 34.781 43.7203 34.9644C43.7874 35.1477 43.8209 35.3534 43.8209 35.577C43.8209 36.0085 43.7159 36.3506 43.5103 36.6055C43.3026 36.8582 42.9831 36.9856 42.5541 36.9856C42.3195 36.9856 42.0805 36.9454 41.8414 36.8649C41.6024 36.7844 41.3544 36.6502 41.0997 36.4602C41.0349 36.5608 40.9679 36.6391 40.9009 36.6972C40.8338 36.7553 40.7623 36.7978 40.6864 36.8246C40.6127 36.8515 40.5345 36.8694 40.454 36.8783C40.3736 36.8872 40.2887 36.8895 40.1993 36.8895H39.8776L39.8754 36.8872ZM43.2065 35.5591C43.2065 35.4496 43.1908 35.3422 43.1573 35.2372C43.1238 35.1321 43.0769 35.0382 43.0144 34.9599C42.9518 34.8794 42.8758 34.8168 42.7865 34.7676C42.6971 34.7207 42.5921 34.6961 42.4715 34.6961C42.2614 34.6961 42.0693 34.7877 41.8928 34.9733C41.7186 35.1589 41.5532 35.4831 41.3968 35.9504C41.5823 36.0711 41.7655 36.1673 41.9487 36.2388C42.1319 36.3104 42.3173 36.3484 42.5072 36.3484C42.7172 36.3484 42.887 36.288 43.0144 36.1673C43.1417 36.0465 43.2065 35.8453 43.2065 35.5591V35.5591Z" fill="white"/>
<path d="M37.5474 13.7082C37.0001 12.7625 36.2516 12.0246 35.2999 11.4947C34.3481 10.9648 33.3026 10.6987 32.1632 10.6987C31.0237 10.6987 29.9759 10.9648 29.0264 11.4947C28.0747 12.0246 27.3218 12.7647 26.761 13.7082C26.2025 14.654 25.9232 15.7205 25.9232 16.9078C25.9232 18.095 26.2025 19.166 26.761 20.1163C27.3196 21.0688 28.0747 21.8088 29.0264 22.3387C29.366 22.5288 29.7168 22.6808 30.0787 22.8038H30.0117L26.3455 25.3035L26.3499 29.1537L35.7623 22.8776L35.8338 22.8172L34.2163 22.8127C34.5872 22.6898 34.9469 22.531 35.2932 22.3387C36.2382 21.8088 36.9866 21.0665 37.5407 20.1163C38.0948 19.1638 38.3696 18.095 38.3696 16.9078C38.3696 15.7205 38.0948 14.654 37.5474 13.7082ZM34.366 19.3046C33.8164 19.9039 33.1015 20.1968 32.1721 20.1968C31.2628 20.1968 30.5278 19.8972 29.9849 19.3091C29.442 18.7188 29.1627 17.905 29.1605 16.9033C29.1582 15.9016 29.4353 15.09 29.9826 14.4953C30.53 13.9028 31.2583 13.6031 32.1721 13.6031C33.0836 13.6031 33.8231 13.9027 34.3638 14.4908C34.9044 15.0788 35.1859 15.8949 35.1859 16.8966C35.1859 17.8983 34.9134 18.7099 34.3682 19.3046H34.366Z" fill="white"/>
</svg>
