<svg width="62" height="40" viewBox="0 0 62 40" fill="none" xmlns="http://www.w3.org/2000/svg">
<path d="M3.28622 28.7317C2.3525 28.365 1.53949 27.7479 0.935991 26.9463C0.332493 26.1196 0.0045547 25.1244 0 24.0996H4.38618C4.41123 24.6439 4.64352 25.1563 5.03522 25.5343C5.43832 25.8759 5.95527 26.0513 6.48362 26.0262C6.9983 26.0558 7.50843 25.9055 7.92974 25.6049C8.28501 25.3225 8.48086 24.8875 8.46036 24.4343C8.47175 24.0449 8.31917 23.6691 8.03905 23.3981C7.73616 23.1135 7.38545 22.8857 7.00286 22.724C6.43124 22.4918 5.84824 22.2891 5.25613 22.1228C4.33835 21.8541 3.44336 21.5148 2.57796 21.1094C1.87198 20.761 1.25938 20.2486 0.792518 19.6155C0.26645 18.8617 0.00455471 17.9553 0.045547 17.0375C0.045547 15.4616 0.617162 14.2272 1.75812 13.3368C2.90135 12.4486 4.38846 12.0023 6.21945 12C8.09143 12 9.59448 12.4464 10.7263 13.3391C11.8718 14.2364 12.5459 15.6096 12.5573 17.0648H8.10737C8.10054 16.5684 7.87964 16.0992 7.50615 15.7736C7.10534 15.4502 6.59976 15.2839 6.08281 15.3044C5.65011 15.2862 5.22652 15.4251 4.89175 15.6984C4.28825 16.2883 4.27687 17.2561 4.8667 17.8596C4.9669 17.9621 5.07849 18.0486 5.20375 18.1192C5.97122 18.5314 6.77968 18.8639 7.61546 19.1076C8.52413 19.4059 9.41457 19.7589 10.28 20.1689C10.9746 20.515 11.5803 21.0183 12.0495 21.6378C12.5755 22.3597 12.8397 23.241 12.7987 24.1337C12.8078 25.0629 12.5528 25.9738 12.0631 26.7618C11.5416 27.5725 10.8015 28.2216 9.93153 28.6338C8.89989 29.1211 7.76805 29.3603 6.62709 29.3329C5.48614 29.3511 4.35202 29.1462 3.2885 28.7317H3.28622Z" fill="white"/>
<path d="M28.763 12.2437V29.1667H24.641V22.198H18.228V29.1667H14.106V12.2437H18.228V18.8707H24.641V12.2437H28.763Z" fill="white"/>
<path d="M34.6658 28.2242C33.3518 27.4977 32.2587 26.4273 31.5071 25.1293C29.9472 22.3554 29.9472 18.969 31.5071 16.1952C32.2632 14.9017 33.3541 13.8359 34.6658 13.1117C37.3918 11.636 40.678 11.636 43.404 13.1117C44.7067 13.8336 45.7861 14.8994 46.524 16.1952C48.0567 18.9759 48.0567 22.3486 46.524 25.1293C45.7793 26.4273 44.6953 27.4977 43.3881 28.2242C40.6644 29.7045 37.3736 29.7045 34.6499 28.2242H34.6658ZM42.2836 24.2229C43.0943 23.3233 43.4997 22.1323 43.4997 20.6565C43.4997 19.1808 43.0943 17.967 42.2836 17.0765C40.4776 15.3002 37.5808 15.3002 35.7749 17.0765C34.9642 17.9602 34.5565 19.158 34.5565 20.6679C34.5565 22.1778 34.9619 23.3711 35.7749 24.2479C37.574 26.0425 40.4845 26.0425 42.2836 24.2479V24.2229Z" fill="white"/>
<path d="M61.2584 20.378C60.7756 21.2229 60.0537 21.9061 59.1838 22.3411C58.1066 22.874 56.9155 23.1313 55.7131 23.0903L53.331 23.0038V22.4458L49.0587 25.641L49.0359 12.2433H55.7131C56.8973 12.2046 58.0724 12.4437 59.1451 12.9425C60.0241 13.3569 60.7551 14.031 61.2425 14.8714C61.7162 15.7299 61.9576 16.6978 61.9416 17.6793C61.9507 18.6222 61.7162 19.5536 61.2584 20.378ZM57.1615 19.2576C57.9221 18.3557 57.9221 17.0371 57.1615 16.1376C56.7743 15.7686 56.1868 15.5842 55.4011 15.5842H53.1579V19.8246H55.4011C56.1868 19.8132 56.7743 19.6242 57.1615 19.2576Z" fill="white"/>
<path d="M49.0359 26.0765L53.1921 23.0112V26.4591L49.0382 29.529V26.0765H49.0359Z" fill="#EC1D32"/>
<path d="M49.0359 26.0757C49.0359 26.1394 51.254 27.893 51.254 27.893L49.0382 29.5281V26.2715" fill="#AD1E2E"/>
<path d="M61.944 30.1821H0V39.9998H61.944V30.1821Z" fill="#0083F9"/>
<path d="M26.046 37.7585C25.3446 37.0776 24.9962 36.2145 24.9939 35.1669C24.9939 34.1193 25.3423 33.2585 26.0415 32.5798C26.7406 31.8989 27.5969 31.5596 28.6103 31.5596C29.6238 31.5596 30.4778 31.8989 31.1701 32.5798C31.8647 33.2608 32.2108 34.1216 32.2108 35.1646C32.2108 36.2076 31.8624 37.0708 31.1678 37.7562C30.4732 38.4372 29.6192 38.7788 28.6081 38.7833C27.5969 38.7879 26.7406 38.4463 26.0415 37.7585H26.046ZM29.9608 36.6403C30.2978 36.2737 30.4664 35.7818 30.4664 35.1646C30.4664 34.5475 30.2956 34.0533 29.9585 33.6866C29.6215 33.32 29.1683 33.1378 28.6035 33.1378C28.0387 33.1378 27.5855 33.32 27.2485 33.6866C26.9114 34.0533 26.7429 34.5452 26.7429 35.1623C26.7429 35.7795 26.9137 36.2714 27.2508 36.6381C27.5901 37.0047 28.041 37.1869 28.6058 37.1869C29.1706 37.1869 29.6238 37.0047 29.9608 36.6403Z" fill="white"/>
<path d="M32.7233 32.9648V31.6598L38.2846 31.6553V32.9602H36.3556L36.3602 38.7037H34.6431V32.9602L32.7233 32.9648Z" fill="white"/>
<path d="M39.8353 37.7502C39.1338 37.067 38.7854 36.2039 38.7854 35.1586C38.7854 34.1133 39.1338 33.2524 39.833 32.5715C40.5299 31.8906 41.3861 31.5513 42.4018 31.5513C43.4175 31.5513 44.2693 31.8906 44.9616 32.5715C45.6539 33.2502 46.0023 34.111 46.0023 35.154C46.0023 36.1971 45.6562 37.0602 44.9616 37.7457C44.2647 38.4266 43.4107 38.7682 42.4018 38.7705C41.393 38.7727 40.5367 38.4334 39.8375 37.7479L39.8353 37.7502ZM43.75 36.632C44.0871 36.2654 44.2556 35.7735 44.2556 35.1563C44.2556 34.5392 44.0848 34.0472 43.7478 33.6806C43.4107 33.3139 42.9575 33.1318 42.3927 33.1318C41.8279 33.1318 41.3747 33.3139 41.0377 33.6806C40.6984 34.0472 40.5299 34.5392 40.5321 35.1563C40.5321 35.7735 40.7029 36.2654 41.04 36.632C41.3793 36.9987 41.8302 37.1809 42.395 37.1809C42.9598 37.1809 43.413 36.9964 43.75 36.6298V36.632Z" fill="white"/>
<path d="M48.2206 35.9557V38.6977H46.5058L46.5012 31.647H49.2819C50.0994 31.647 50.7348 31.8565 51.1903 32.2755C51.6298 32.6604 51.878 33.2183 51.8735 33.8013C51.8667 34.2272 51.7391 34.6417 51.5023 34.997C51.2541 35.3841 50.851 35.6597 50.2885 35.8214L52.017 38.6908H50.0083L48.421 35.9557H48.2206ZM48.2206 32.9542V34.6508H49.2841C49.5142 34.6622 49.7373 34.5802 49.9013 34.4208C50.0539 34.2568 50.1359 34.0359 50.1268 33.8127C50.1336 33.585 50.0493 33.3618 49.8922 33.1956C49.7328 33.0316 49.5096 32.9451 49.2796 32.9542H48.2206Z" fill="white"/>
<path d="M56.6811 38.6907H54.9617V36.4224L52.5181 31.6468H54.4652L55.8248 34.8283L57.1684 31.6445H59.1156L56.6811 36.4247V38.6884V38.6907Z" fill="white"/>
<path d="M24.4931 33.2503V31.2554L20.2526 34.3845L15.9257 31.2622L15.9302 38.7228H17.5631L17.5585 34.8559L20.2116 36.6276L24.4931 33.2503Z" fill="white"/>
<path d="M8.13462 35.6594C8.39879 35.976 8.53088 36.3426 8.53088 36.7617C8.53088 37.1033 8.44434 37.4107 8.27581 37.684C8.10501 37.9573 7.8545 38.1736 7.52657 38.3308C7.19863 38.4879 6.80464 38.5676 6.3469 38.5676H4.00806V31.813H6.27858C6.96178 31.813 7.48102 31.9701 7.83856 32.2867C8.19611 32.6032 8.37602 33.0109 8.37602 33.5142C8.37602 33.9332 8.26215 34.2725 8.03669 34.5344C7.81123 34.7963 7.52201 34.9785 7.16674 35.081C7.54706 35.1516 7.86817 35.3452 8.13234 35.6617L8.13462 35.6594ZM4.68443 34.7986H6.26036C6.7181 34.7986 7.07109 34.6916 7.31933 34.4752C7.56756 34.2589 7.69053 33.9605 7.69053 33.5825C7.69053 33.2045 7.56756 32.9152 7.31933 32.7034C7.07109 32.4916 6.709 32.3846 6.23303 32.3846H4.68671V34.8009L4.68443 34.7986ZM7.4423 37.6498C7.71558 37.4176 7.85223 37.0987 7.85223 36.6934C7.85223 36.288 7.70875 35.9646 7.42181 35.7232C7.13486 35.4818 6.74999 35.3611 6.26719 35.3611H4.68215V37.9983H6.29679C6.78643 37.9983 7.16902 37.8821 7.4423 37.6498Z" fill="white"/>
<path d="M14.2426 31.8154L12.0791 35.942V38.5701H11.4027V35.942L9.21875 31.8154H9.98166L11.7398 35.3226L13.4888 31.8154H14.2426Z" fill="white"/>
<path d="M21.8035 36.8051L24.3587 34.9194V37.0396L21.8035 38.9276V36.8051Z" fill="white"/>
</svg>
