<svg width="83" height="56" viewBox="0 0 83 56" fill="none" xmlns="http://www.w3.org/2000/svg">
    <path d="M82.6526 42.5306H0.00317383V56H82.6526V42.5306Z" fill="#0083F9"/>
    <path d="M44.4792 47.3206C43.8669 46.7207 43.1027 46.4168 42.2058 46.4168C41.3088 46.4168 40.5435 46.7218 39.9267 47.3228C39.5519 47.6818 39.2785 48.132 39.131 48.6295L37.8795 49.4555C37.8446 48.6036 37.5351 47.8855 36.9578 47.3206C36.3455 46.7207 35.5814 46.4168 34.6844 46.4168C33.7874 46.4168 33.0221 46.7218 32.4054 47.3228C31.7875 47.9238 31.4735 48.6992 31.4746 49.6198C31.4746 50.5405 31.7875 51.3159 32.4087 51.918C32.6721 52.178 32.9793 52.3896 33.3158 52.5438L31.8967 53.4903V55.3619L36.4761 52.3108L36.511 52.2815C36.6697 52.1724 36.8182 52.0497 36.9555 51.9146L39.1063 50.5157C39.2458 51.0492 39.5294 51.5342 39.9256 51.918C40.5423 52.5201 41.3088 52.8262 42.2001 52.8262C43.0937 52.8262 43.8579 52.519 44.4735 51.9158C45.0891 51.3114 45.3998 50.5393 45.3998 49.6153C45.3998 48.6913 45.0914 47.9227 44.4792 47.3217V47.3206ZM35.7975 50.8421C35.5183 51.1471 35.1526 51.2956 34.6799 51.2968C34.2162 51.2968 33.8426 51.1448 33.5657 50.8443C33.2888 50.5438 33.147 50.1297 33.1448 49.6187C33.1437 49.1078 33.2855 48.6947 33.5634 48.3931C33.8414 48.0915 34.214 47.9395 34.6788 47.9384C35.1436 47.9384 35.5195 48.0904 35.7952 48.3909C36.0709 48.6914 36.2139 49.1055 36.2139 49.6165C36.2139 50.1274 36.0754 50.5405 35.7975 50.8421ZM43.3166 50.8421C43.0375 51.1471 42.6728 51.2956 42.199 51.2968C41.7342 51.2968 41.3605 51.1448 41.0837 50.8455C40.8068 50.5461 40.665 50.1308 40.665 49.6198C40.665 49.1089 40.8057 48.6959 41.0826 48.3942C41.3605 48.0926 41.7274 47.9407 42.1979 47.9396C42.6627 47.9396 43.0375 48.0915 43.3132 48.392C43.5889 48.6925 43.733 49.1066 43.7341 49.6176C43.7341 50.1285 43.5957 50.5405 43.3177 50.8432L43.3166 50.8421Z" fill="white"/>
    <path d="M28.7669 47.8214V50.5213H20.3024C20.2451 50.5213 20.1877 50.5236 20.1303 50.5292V46.7679L18.5074 47.944V51.0762C18.5074 51.3677 18.486 51.9304 18.4421 52.1487C18.4038 52.3547 18.3183 52.5494 18.1922 52.7171C18.0819 52.8532 17.9469 52.9658 17.7938 53.0513L16.2925 53.7311L16.297 55.3225C16.297 55.3225 18.2114 54.4806 18.4241 54.3839C19.195 54.0777 19.7679 53.4148 19.9581 52.6079C19.9941 52.4728 20.0211 52.0182 20.0492 51.8662L20.0616 51.8696C20.1426 51.8809 20.2237 51.8854 20.3047 51.8842H30.3932V46.7679L28.7692 47.8214H28.7669Z" fill="white"/>
    <path d="M8.39632 50.8601C7.99229 50.752 7.66141 50.5933 7.41718 50.3896C7.17634 50.1927 6.99402 49.9327 6.89273 49.639C6.78018 49.2237 6.73291 48.7926 6.75205 48.3616V46.347L5.03011 47.3611C4.9941 47.5411 4.96146 47.7223 4.93332 47.908C4.88493 48.2142 4.85904 48.5225 4.85454 48.832C4.85229 49.325 4.92657 49.8145 5.07513 50.285C5.22256 50.7408 5.48254 51.1516 5.83256 51.4791C6.19157 51.8212 6.6879 52.0992 7.30689 52.3063C7.41043 52.34 7.52073 52.3693 7.63327 52.3997L9.51389 51.012C9.13687 51.0008 8.76209 50.9501 8.39632 50.8601Z" fill="white"/>
    <path d="M16.0686 48.2389C15.9077 47.5085 15.3675 46.921 14.6539 46.6982C14.26 46.5564 13.7581 46.4843 13.1638 46.4843C12.7789 46.4843 12.394 46.508 12.0125 46.5564C11.6569 46.6025 11.2888 46.6667 10.9208 46.7443V51.0221H9.88428V52.6203H12.7947V48.1354H12.8723C12.9084 48.1354 12.9455 48.1343 12.9815 48.1286C13.0243 48.1241 13.067 48.1219 13.1098 48.1219C13.5544 48.1219 13.8717 48.231 14.0541 48.4471C14.2364 48.6621 14.3219 49.0098 14.3219 49.5062V52.6192H16.2093V49.4904C16.2138 49.0684 16.1654 48.6486 16.0675 48.2389H16.0686Z" fill="white"/>
    <path d="M7.03784 53.3327L9.51945 51.5016L9.5217 53.5611L7.04009 55.3945V53.3327H7.03784Z" fill="white"/>
    <path d="M7.03784 53.3327C7.03784 53.3698 8.36137 54.4187 8.36137 54.4187L7.03897 55.3956V53.4509" fill="white"/>
    <path d="M28.5618 44.8446L31.0434 43.0135V45.073L28.5629 46.9064V44.8446H28.5618Z" fill="white"/>
    <path d="M28.5618 44.8446C28.5618 44.8817 29.8853 45.9284 29.8853 45.9284L28.5629 46.9064V44.9594" fill="white"/>
    <path d="M53.2761 51.5174C53.0442 51.5174 52.8608 51.469 52.7257 51.3733C52.5907 51.2776 52.486 51.1628 52.4129 51.0312V51.3981C52.4129 51.8347 52.3521 52.2084 52.2294 52.519C52.1067 52.8296 51.93 53.0851 51.6982 53.2832C51.4664 53.4824 51.1805 53.6276 50.8429 53.7198C50.5052 53.8133 50.1203 53.8583 49.6893 53.8583C48.781 53.8583 48.099 53.6534 47.641 53.2438C47.184 52.833 46.9556 52.2455 46.9556 51.478V49.9496H47.7693V51.3091C47.7693 51.9473 47.9325 52.3941 48.2588 52.6507C48.5852 52.9073 49.0692 53.0356 49.7084 53.0356C50.0382 53.0356 50.3218 53.0108 50.5593 52.9613C50.7967 52.9118 50.9925 52.8262 51.1479 52.7047C51.3032 52.582 51.4168 52.4143 51.4889 52.1994C51.562 51.9844 51.598 51.7121 51.598 51.3823V48.8377H52.4117V49.6018C52.4117 49.7673 52.4219 49.9181 52.441 50.0531C52.4613 50.1882 52.5018 50.303 52.5648 50.3953C52.6278 50.4887 52.7156 50.5607 52.8281 50.6136C52.9407 50.6665 53.0893 50.6924 53.275 50.6924C53.5394 50.6924 53.6722 50.8252 53.6722 51.0897C53.6722 51.2551 53.6407 51.3677 53.5777 51.4273C53.5147 51.487 53.4145 51.5174 53.275 51.5174H53.2761ZM49.238 47.9744C49.238 47.8293 49.2886 47.7055 49.3922 47.603C49.4946 47.5006 49.6184 47.4489 49.7647 47.4489C49.911 47.4489 50.0337 47.5006 50.1361 47.603C50.2385 47.7055 50.2903 47.8293 50.2903 47.9744C50.2903 48.1196 50.2396 48.2434 50.1361 48.347C50.0337 48.4494 49.9099 48.5012 49.7647 48.5012C49.6195 48.5012 49.4946 48.4494 49.3922 48.347C49.2897 48.2445 49.238 48.1207 49.238 47.9744Z" fill="white"/>
    <path d="M53.2567 51.5173C52.9922 51.5173 52.8594 51.3845 52.8594 51.1189C52.8594 50.9535 52.8909 50.841 52.9539 50.7813C53.0169 50.7217 53.1171 50.6913 53.2567 50.6913H53.6641C53.7428 50.6913 53.8261 50.6811 53.9128 50.662C53.9983 50.6417 54.0839 50.599 54.1705 50.5326C54.2572 50.4662 54.3416 50.375 54.4237 50.2591C54.5059 50.1432 54.5836 49.9856 54.6567 49.7864C54.8086 49.3621 54.9696 49.0189 55.1373 48.7566C55.3061 48.4944 55.4783 48.2918 55.6539 48.15C55.8294 48.0071 56.0072 47.9137 56.1896 47.8664C56.3719 47.8203 56.552 47.7966 56.7309 47.7966C56.983 47.7966 57.2137 47.845 57.4253 47.9407C57.6369 48.0363 57.8203 48.1725 57.9757 48.3481C58.131 48.5237 58.2536 48.733 58.3426 48.975C58.4315 49.2169 58.4765 49.4882 58.4765 49.7853C58.4765 50.3559 58.3392 50.8083 58.0646 51.1437C57.79 51.478 57.3679 51.6456 56.7996 51.6456C56.4889 51.6456 56.1738 51.5927 55.8564 51.487C55.5391 51.3812 55.2116 51.2022 54.8739 50.9512C54.7884 51.084 54.7006 51.1876 54.6106 51.2641C54.5217 51.3407 54.4271 51.3969 54.3281 51.4329C54.229 51.4701 54.1266 51.4926 54.0208 51.5027C53.915 51.5128 53.8025 51.5173 53.6832 51.5173H53.2567ZM57.6628 49.7616C57.6628 49.6165 57.6414 49.4735 57.5975 49.3351C57.5547 49.1967 57.4917 49.074 57.4096 48.9682C57.3274 48.8624 57.2261 48.778 57.1068 48.715C56.9875 48.652 56.8491 48.6216 56.6904 48.6216C56.4124 48.6216 56.1581 48.7442 55.9262 48.9885C55.6944 49.2327 55.476 49.6637 55.2712 50.2782C55.5154 50.4369 55.7596 50.5641 56.0005 50.6609C56.2413 50.7565 56.4889 50.8049 56.7399 50.8049C57.0179 50.8049 57.2407 50.725 57.4096 50.5663C57.5784 50.4077 57.6628 50.1398 57.6628 49.7628V49.7616Z" fill="white"/>
    <path d="M51.3086 31.3775C52.4622 31.4056 56.426 31.5497 57.4614 31.0398C58.4023 30.5581 59.153 29.7726 59.5908 28.8114C60.1501 29.7793 60.9582 30.5806 61.9294 31.1332C62.8939 31.5868 63.953 31.8063 65.0177 31.7725C66.1949 31.795 67.362 31.544 68.4255 31.0398C69.4013 30.5806 70.1846 29.7917 70.637 28.8114C71.1862 29.7625 71.9662 30.5615 72.9037 31.1332C73.84 31.5935 74.8766 31.813 75.9187 31.7725C76.7583 31.7736 77.5923 31.6397 78.3891 31.3763C79.1814 31.1175 79.9085 30.6909 80.5196 30.1237C81.1678 29.5148 81.6777 28.7732 82.0153 27.9505C82.416 26.9387 82.6073 25.856 82.578 24.7677V14.4068L77.7454 18.1523L77.7555 24.7294C77.7555 25.7266 77.5 26.4187 76.989 26.8081C76.4781 27.1976 75.6475 27.39 74.4962 27.3878C73.4225 27.3878 72.6797 27.1638 72.2678 26.7147C71.8413 26.2634 71.6499 25.5386 71.6499 24.5415L71.6207 16.0162L66.7655 19.6042L66.7081 24.6867C66.7081 25.6895 66.4459 26.3895 65.9203 26.7868C65.3947 27.184 64.5709 27.3833 63.4499 27.3833C62.3762 27.3833 61.6334 27.1593 61.2215 26.7102C60.8096 26.2612 60.6037 25.5375 60.6037 24.5381V18.2199L55.5031 21.7279L55.6585 24.6878C55.6585 25.6906 55.3973 26.3906 54.874 26.7879C54.3496 27.184 52.6276 27.3833 51.5067 27.3833" fill="#171D35"/>
    <path d="M55.5021 31.3775L40.9365 31.3662L45.5193 27.3844H55.5021V31.3775Z" fill="#171D35"/>
    <path d="M24.95 18.1478V27.7502H9.01258C8.17412 27.7502 7.48422 27.7198 6.94176 27.6579C6.39929 27.5971 5.96825 27.48 5.64749 27.3067C5.32674 27.1345 5.10503 26.9004 4.98235 26.6056C4.85856 26.3107 4.79778 25.9292 4.79778 25.461V17.2902L0 20.8354V26.1633C0 27.2212 0.129426 28.1193 0.387153 28.8576C0.646006 29.5959 1.0703 30.1991 1.66003 30.6662C2.25089 31.1344 3.03758 31.472 4.02235 31.6813C5.00599 31.8907 6.22485 31.9953 7.67668 31.9953H15.1193L18.1636 29.7501L18.1658 31.9953H29.7501V14.6027L24.9523 18.1478H24.95Z" fill="#171D35"/>
    <path d="M11.9688 34.8821L17.8436 30.548L17.8481 35.4223L11.9721 39.7643L11.9688 34.8821Z" fill="#EC1D32"/>
    <path d="M11.9688 34.8821C11.9688 34.9699 15.1031 37.4515 15.1031 37.4515L11.9733 39.7643L11.9699 35.159" fill="#AD1E2E"/>
    <path d="M65.6768 3.64082L70.6118 0L70.6152 4.0955L65.679 7.74308L65.6768 3.64195V3.64082Z" fill="#171D35"/>
    <path d="M67.0742 13.9758L71.7448 10.5241L71.7392 4.55468L67.0742 7.99743V13.9758Z" fill="#171D35"/>
    <path d="M66.4759 8.43861L64.5469 9.8623L64.5503 15.8407L66.4759 14.4181V8.43861Z" fill="#171D35"/>
    <path d="M49.5197 18.8625C48.778 17.5829 47.7628 16.5823 46.4742 15.8643C45.1856 15.1463 43.7698 14.7872 42.2234 14.7872C40.677 14.7872 39.2601 15.1463 37.9726 15.8643C36.6839 16.5823 35.662 17.5817 34.9046 18.8625C34.1472 20.1433 33.769 21.5872 33.769 23.1955C33.769 24.8037 34.1472 26.2522 34.9046 27.5397C35.662 28.8283 36.6851 29.8311 37.9726 30.5491C38.4318 30.8046 38.9078 31.0128 39.3985 31.1783H39.3074L34.3396 34.5614L34.3441 39.7744L47.0988 31.2784L47.1956 31.1974L45.0055 31.1918C45.5086 31.0252 45.9959 30.8114 46.4641 30.5491C47.7437 29.8311 48.7589 28.8272 49.5084 27.5397C50.258 26.2511 50.6327 24.8037 50.6327 23.1955C50.6327 21.5872 50.2613 20.1433 49.5197 18.8625ZM45.2103 26.439C44.4664 27.2516 43.4963 27.6455 42.2369 27.6466C41.0034 27.6466 40.0085 27.2426 39.2736 26.4435C38.5376 25.6444 38.1583 24.5426 38.1549 23.1853C38.1515 21.8269 38.5274 20.7296 39.268 19.9249C40.0085 19.1213 40.9967 18.7184 42.2335 18.7173C43.4693 18.7173 44.4698 19.1213 45.2025 19.9204C45.934 20.7195 46.3178 21.8213 46.3178 23.1786C46.3178 24.5359 45.9486 25.6343 45.2115 26.439H45.2103Z" fill="#171D35"/>
</svg>
