<svg width="107" height="56" viewBox="0 0 107 56" fill="none" xmlns="http://www.w3.org/2000/svg">
    <g opacity="0.5">
        <path d="M105.386 40.4051H0.829376V55.7023H105.386V40.4051Z" fill="#8D96AB"/>
        <path d="M102.682 13.5995C100.775 11.7316 98.397 10.7853 95.6005 10.7853C92.804 10.7853 90.4223 11.7352 88.5013 13.6066C87.3352 14.723 86.481 16.1266 86.0238 17.6754L82.1286 20.2486C82.0223 17.5939 81.0582 15.361 79.2577 13.5995C77.3509 11.7316 74.9726 10.7853 72.1797 10.7853C69.3868 10.7853 67.005 11.7352 65.0805 13.6066C63.1559 15.478 62.1777 17.8916 62.1813 20.759C62.1813 23.6263 63.1559 26.04 65.0911 27.9185C65.9099 28.7301 66.8668 29.3894 67.9159 29.8678L63.4962 32.8132V38.6435L77.7585 29.1448L77.8648 29.0527C78.3575 28.7124 78.8218 28.3296 79.2506 27.9078L85.9494 23.5519C86.3818 25.2142 87.2643 26.724 88.5013 27.9185C90.4223 29.7934 92.8076 30.7468 95.5863 30.7468C98.3686 30.7468 100.747 29.7899 102.664 27.9114C104.582 26.0294 105.549 23.6263 105.549 20.7483C105.549 17.8704 104.592 15.478 102.682 13.6066V13.5995ZM75.6461 24.5656C74.7742 25.5154 73.64 25.9797 72.1656 25.9797C70.723 25.9797 69.557 25.5048 68.6957 24.5727C67.8344 23.637 67.3914 22.3468 67.3878 20.759C67.3843 19.1676 67.8238 17.8846 68.6921 16.9418C69.5605 15.999 70.7159 15.5276 72.1656 15.5276C73.6116 15.5276 74.7848 16.0025 75.6425 16.9347C76.5002 17.8704 76.9468 19.1605 76.9468 20.7483C76.9468 22.3362 76.5144 23.6228 75.6496 24.5656H75.6461ZM99.0597 24.5656C98.1914 25.5154 97.0537 25.9797 95.5792 25.9797C94.1332 25.9797 92.9671 25.5048 92.1058 24.5727C91.2445 23.6405 90.8015 22.3468 90.8015 20.7554C90.8015 19.164 91.2375 17.881 92.1023 16.9382C92.9671 15.9954 94.1083 15.524 95.5757 15.524C97.0218 15.524 98.1914 15.999 99.0491 16.9311C99.9068 17.8668 100.357 19.157 100.357 20.7448C100.357 22.3362 99.9245 23.6192 99.0597 24.562V24.5656Z" fill="#8D96AB"/>
        <path d="M53.7565 15.159V23.5696H48.7803C48.603 23.5696 48.4223 23.5767 48.2451 23.5944V11.877L43.1909 15.5382V25.2921C43.1909 26.1995 43.1235 27.9504 42.9853 28.6309C42.8684 29.2724 42.599 29.8785 42.2056 30.3995C41.8618 30.8213 41.44 31.1757 40.9651 31.4415L36.2901 33.561L36.3043 38.5159C36.3043 38.5159 42.2658 35.8932 42.9286 35.5919C45.3281 34.6385 47.1109 32.5757 47.7028 30.0592C47.8162 29.6375 47.8977 28.2233 47.9863 27.7519L48.0253 27.7625C48.277 27.798 48.5286 27.8121 48.7838 27.8086H58.8177V11.877L53.76 15.159H53.7565Z" fill="#8D96AB"/>
        <path d="M11.6997 24.6223C10.4415 24.2891 9.41366 23.7929 8.65164 23.1585C7.90024 22.5453 7.3367 21.7372 7.01771 20.8192C6.66683 19.5255 6.51797 18.1823 6.58176 16.8425V10.5691L1.21569 13.7271C1.10227 14.2871 1.00303 14.8542 0.914424 15.4283C0.762019 16.3818 0.6805 17.3423 0.669867 18.3063C0.662778 19.841 0.893158 21.3686 1.35392 22.8288C1.81113 24.2466 2.62278 25.5261 3.71442 26.5468C4.83442 27.6101 6.37619 28.4785 8.3043 29.1235C8.62683 29.2299 8.96708 29.3185 9.32151 29.4142L15.1767 25.0937C14.0035 25.0582 12.8339 24.8987 11.6962 24.6187L11.6997 24.6223Z" fill="#8D96AB"/>
        <path d="M35.5919 16.4562C35.0921 14.1807 33.4086 12.3519 31.1863 11.6572C29.96 11.2142 28.397 10.9944 26.5468 10.9944C25.3489 10.9944 24.1509 11.0688 22.9635 11.2177C21.8542 11.363 20.7094 11.5615 19.5646 11.8025V25.1256H16.3357V30.1018H25.3985V16.1337H25.643C25.7565 16.1337 25.8699 16.1301 25.9833 16.1124C26.1144 16.0982 26.2491 16.0911 26.3838 16.0911C27.7661 16.0911 28.7549 16.4314 29.3256 17.1013C29.8962 17.7711 30.162 18.8557 30.162 20.401V30.0947H36.0385V20.3514C36.0527 19.04 35.9038 17.7286 35.5954 16.4526L35.5919 16.4562Z" fill="#8D96AB"/>
        <path d="M7.47137 32.3205L15.198 26.6212L15.205 33.0329L7.47492 38.7428V32.3205H7.47137Z" fill="#8D96AB"/>
        <path d="M7.47137 32.3205C7.47137 32.4375 11.5934 35.7018 11.5934 35.7018L7.47492 38.7428V32.6856" fill="#8D96AB"/>
        <path d="M53.1185 5.88708L60.8451 0.187836V6.59948L53.122 12.3094V5.88708H53.1185Z" fill="#8D96AB"/>
        <path d="M53.1185 5.88708C53.1185 6.0005 57.2405 9.26481 57.2405 9.26481L53.122 12.3094V6.2486" fill="#8D96AB"/>
        <path d="M4.39494 50.8324C4.39494 50.4248 4.4162 50.0739 4.45873 49.7833C4.50127 49.4927 4.58633 49.2375 4.71392 49.0213C4.83797 48.8051 5.01165 48.6207 5.22785 48.4683C5.44405 48.3159 5.72405 48.1706 6.06076 48.0324C6.14582 47.4759 6.29468 47.0081 6.5038 46.6324C6.71291 46.2532 6.94684 45.9519 7.20911 45.7215C7.47139 45.4911 7.7443 45.3245 8.03139 45.2253C8.31848 45.1261 8.5843 45.0764 8.82532 45.0764C9.17975 45.0764 9.50582 45.1402 9.80354 45.2714C10.1013 45.4025 10.3494 45.5833 10.5585 45.8172C10.7676 46.0511 10.9306 46.3347 11.0476 46.6643C11.1646 46.9939 11.2248 47.3554 11.2248 47.7453C11.2248 48.5286 11.0299 49.1453 10.6435 49.6025C10.2572 50.0597 9.67241 50.2866 8.88911 50.2866C8.1519 50.2866 7.38633 50.0243 6.59241 49.5033C6.41873 49.5919 6.29468 49.7408 6.22025 49.9534C6.14582 50.1661 6.11038 50.4673 6.11038 50.8607V55.3053H4.38785V50.8324H4.39494ZM9.62279 47.7028C9.62279 47.4263 9.54127 47.1747 9.37468 46.9549C9.2081 46.7352 8.97418 46.6218 8.66937 46.6218C8.40709 46.6218 8.15899 46.7494 7.92152 47.001C7.68051 47.2526 7.5281 47.678 7.45722 48.277C7.68405 48.4081 7.91798 48.5144 8.16253 48.5959C8.40709 48.6775 8.6162 48.72 8.78987 48.72C9.03443 48.72 9.23291 48.6278 9.38886 48.44C9.54481 48.2521 9.62279 48.0076 9.62279 47.7028Z" fill="white"/>
        <path d="M17.3671 50.1271C17.2466 51.0734 16.8567 51.7645 16.201 52.1934C15.5453 52.6223 14.56 52.8385 13.2486 52.8385H12.8445V51.2471H13.1458C13.5995 51.2471 13.9752 51.2223 14.28 51.1691C14.5848 51.1159 14.8329 51.0415 15.0278 50.9423C15.2228 50.843 15.3681 50.7261 15.4638 50.5914C15.5595 50.4567 15.6197 50.3043 15.6445 50.1271H14.8364C14.4537 50.1271 14.1028 50.0845 13.7802 49.9959C13.4577 49.9109 13.1813 49.7691 12.9473 49.5742C12.7134 49.3792 12.5291 49.1276 12.4015 48.8192C12.2704 48.5109 12.2066 48.1387 12.2066 47.7063C12.2066 47.359 12.2668 47.0152 12.3838 46.6749C12.5008 46.3347 12.6709 46.0334 12.8977 45.764C13.1245 45.4947 13.401 45.2785 13.7306 45.119C14.0602 44.9595 14.4359 44.878 14.8613 44.878C15.3397 44.878 15.7402 44.9595 16.0628 45.1261C16.3853 45.2926 16.6511 45.523 16.8496 45.8243C17.0481 46.1256 17.1934 46.48 17.2785 46.8947C17.3635 47.3058 17.4096 47.763 17.4096 48.2557V48.6349H18.363C18.4339 48.6349 18.4977 48.642 18.558 48.6562C18.6182 48.6704 18.6714 48.6987 18.721 48.7483C18.7706 48.798 18.8061 48.8688 18.8309 48.9645C18.8557 49.0602 18.8699 49.1914 18.8699 49.3544C18.8699 49.6521 18.8273 49.8542 18.7458 49.9676C18.6643 50.081 18.5367 50.1377 18.3595 50.1377H17.3671V50.1271ZM13.8724 47.5468C13.8724 47.965 13.961 48.2486 14.1382 48.401C14.3154 48.5534 14.5529 48.6278 14.8471 48.6278H15.7083V47.8445C15.7083 47.4263 15.6445 47.0825 15.5134 46.8096C15.3823 46.5367 15.1377 46.3985 14.7833 46.3985C14.4608 46.3985 14.2304 46.5083 14.0851 46.7245C13.9397 46.9407 13.8689 47.2137 13.8689 47.5468H13.8724Z" fill="white"/>
        <path d="M18.3701 50.1271C18.2992 50.1271 18.2354 50.12 18.1752 50.1058C18.1149 50.0916 18.0618 50.0633 18.0121 50.0137C17.9625 49.964 17.9271 49.8932 17.9023 49.7975C17.8775 49.7018 17.8633 49.5706 17.8633 49.4076C17.8633 49.1134 17.9058 48.9078 17.9873 48.7944C18.0689 48.681 18.1964 48.6243 18.3737 48.6243H20.3018C20.3726 48.6243 20.4364 48.6314 20.4967 48.6456C20.557 48.6597 20.6101 48.6881 20.6597 48.7377C20.7094 48.7873 20.7448 48.8582 20.7696 48.9539C20.7944 49.0496 20.8086 49.1808 20.8086 49.3438C20.8086 49.6415 20.7661 49.8435 20.6845 49.957C20.603 50.0704 20.4754 50.1271 20.2982 50.1271H18.3701Z" fill="white"/>
        <path d="M20.3018 50.1271C20.2309 50.1271 20.1671 50.12 20.1068 50.1058C20.0466 50.0916 19.9934 50.0633 19.9438 50.0137C19.8942 49.964 19.8587 49.8932 19.8339 49.7975C19.8091 49.7018 19.7949 49.5706 19.7949 49.4076C19.7949 49.1134 19.8375 48.9078 19.919 48.7944C20.0005 48.681 20.1281 48.6243 20.3053 48.6243H22.2334C22.3043 48.6243 22.3681 48.6314 22.4283 48.6456C22.4886 48.6597 22.5418 48.6881 22.5914 48.7377C22.641 48.7873 22.6764 48.8582 22.7013 48.9539C22.7261 49.0496 22.7402 49.1808 22.7402 49.3438C22.7402 49.6415 22.6977 49.8435 22.6162 49.957C22.5347 50.0704 22.4071 50.1271 22.2299 50.1271H20.3018Z" fill="white"/>
        <path d="M22.2299 50.1271C22.159 50.1271 22.0952 50.12 22.0349 50.1058C21.9747 50.0916 21.9215 50.0633 21.8719 50.0137C21.8223 49.964 21.7868 49.8932 21.762 49.7975C21.7372 49.7018 21.723 49.5706 21.723 49.4076C21.723 49.1134 21.7656 48.9078 21.8471 48.7944C21.9286 48.681 22.0562 48.6243 22.2334 48.6243H24.1615C24.2324 48.6243 24.2962 48.6314 24.3564 48.6456C24.4167 48.6597 24.4699 48.6881 24.5195 48.7377C24.5691 48.7873 24.6045 48.8582 24.6294 48.9539C24.6542 49.0496 24.6683 49.1808 24.6683 49.3438C24.6683 49.6415 24.6258 49.8435 24.5443 49.957C24.4628 50.0704 24.3352 50.1271 24.158 50.1271H22.2299Z" fill="white"/>
        <path d="M27.1955 48.6279C27.3762 48.6279 27.5534 48.5924 27.7165 48.518C27.8795 48.4436 27.9646 48.2947 27.9646 48.0679C27.9646 47.9119 27.8653 47.6992 27.6704 47.437C27.4755 47.1711 27.2167 46.8911 26.8942 46.597C26.5717 46.3028 26.2066 46.0086 25.799 45.718C25.3914 45.4274 24.9767 45.1722 24.562 44.956C24.6223 44.6689 24.6932 44.4314 24.7782 44.2471C24.8633 44.0628 24.9448 43.9104 25.0334 43.797C25.1185 43.6836 25.2036 43.5985 25.2886 43.5418C25.3701 43.4851 25.4375 43.4425 25.4906 43.4177L30.0415 41.4117V43.159L26.9651 44.4349V44.4739C27.4861 44.8142 27.9185 45.1473 28.2552 45.477C28.5955 45.8066 28.8648 46.1291 29.0704 46.441C29.276 46.7529 29.4142 47.0506 29.4957 47.3342C29.5737 47.6177 29.6127 47.88 29.6127 48.1246C29.6127 48.3337 29.5843 48.5534 29.5276 48.7909C29.4709 49.0248 29.361 49.2446 29.1944 49.443C29.0279 49.6451 28.7975 49.8081 28.4962 49.9392C28.1949 50.0704 27.8015 50.1342 27.316 50.1342H24.1615C24.0906 50.1342 24.0268 50.1271 23.9666 50.1129C23.9063 50.0987 23.8532 50.0704 23.8036 50.0208C23.7539 49.9711 23.7185 49.9003 23.6937 49.8046C23.6689 49.7089 23.6547 49.5777 23.6547 49.4147C23.6547 49.1205 23.6972 48.9149 23.7787 48.8015C23.8603 48.6881 23.9879 48.6314 24.1651 48.6314H27.2025L27.1955 48.6279Z" fill="white"/>
        <path d="M31.2112 48.121H33.2562V50.1306H31.2112V48.121Z" fill="white"/>
    </g>
</svg>
