<svg width="56" height="56" viewBox="0 0 56 56" fill="none" xmlns="http://www.w3.org/2000/svg">
<path d="M0.5 28C0.5 12.8372 12.836 0.5 28 0.5C43.164 0.5 55.5 12.8372 55.5 28C55.5 43.1628 43.164 55.5 28 55.5C12.836 55.5 0.5 43.1628 0.5 28Z" fill="black" fill-opacity="0.7" stroke="white"/>
<path d="M22.8204 39.7102L39.3578 29.0003C39.6947 28.7818 39.9 28.4042 39.9 27.9997C39.9 27.5953 39.6947 27.2176 39.3578 26.9992L22.8204 16.2893C22.4581 16.051 21.9898 16.0383 21.6161 16.2451C21.2353 16.4543 21 16.8541 21 17.2899V38.7096C21 39.1453 21.2353 39.5452 21.6161 39.7544C21.7914 39.8507 21.9875 39.8996 22.1813 39.8996C22.4028 39.8996 22.6266 39.8368 22.8204 39.7102Z" fill="white"/>
</svg>
