<svg width="72" height="72" viewBox="0 0 72 72" fill="none" xmlns="http://www.w3.org/2000/svg">
<path d="M35.9402 62.4441C31.941 62.4441 28.5177 59.7263 27.5179 55.8778C25.5618 54.9211 24.2903 52.9317 24.2903 50.7031V47.7678C24.2903 45.3979 23.3557 42.9953 21.7364 41.1689C17.6829 36.603 16.0962 30.5151 17.3786 24.438C18.9 17.2738 24.7141 11.4686 31.8649 9.96831C37.592 8.77247 43.4496 10.1749 47.927 13.8059C52.3718 17.426 54.9256 22.7964 54.9256 28.5365C54.9256 33.1351 53.252 37.5814 50.22 41.0385C48.5138 42.9845 47.5792 45.3653 47.5792 47.7461V50.6813C47.5792 52.91 46.3077 54.8994 44.3516 55.8561C43.3518 59.7045 39.9285 62.4223 35.9293 62.4223L35.9402 62.4441ZM32.43 12.6318C26.3116 13.9146 21.3343 18.8719 20.0411 24.9925C18.9326 30.2107 20.291 35.4398 23.7686 39.3534C25.8226 41.669 27.0071 44.7347 27.0071 47.757V50.6922C27.0071 52.0185 27.8548 53.1817 29.1154 53.5948L29.8979 53.8449L30.0392 54.6602C30.5282 57.552 33.0603 59.7263 35.9402 59.7263C38.8201 59.7263 41.3522 57.552 41.8412 54.6602L41.9825 53.8449L42.765 53.5948C44.0256 53.1817 44.8732 52.0185 44.8732 50.6922V47.757C44.8732 44.7239 46.0469 41.7016 48.1878 39.2556C50.7851 36.2877 52.2196 32.4937 52.2196 28.5474C52.2196 23.6227 50.0353 19.0241 46.2208 15.9258C42.3846 12.8057 37.353 11.599 32.43 12.6318Z" fill="#54A32F"/>
<path d="M43.178 53.53H28.6917V56.2479H43.178V53.53Z" fill="#54A32F"/>
<path d="M46.2208 45.7354H25.6487V48.4532H46.2208V45.7354Z" fill="#54A32F"/>
<path d="M46.9925 29.3193C46.2752 29.3193 45.6775 28.754 45.6341 28.0365C45.1124 18.3501 35.962 18.024 35.5708 18.0131C34.8209 17.9914 34.2232 17.3717 34.245 16.6216C34.2558 15.8823 34.8644 15.2953 35.6034 15.2953H35.6251C35.7447 15.2953 47.688 15.654 48.3509 27.8843C48.3944 28.6344 47.8184 29.2758 47.0686 29.3193C47.0468 29.3193 47.0142 29.3193 46.9925 29.3193Z" fill="#54A32F"/>
<path d="M62.6416 29.3195H58.751C58.0012 29.3195 57.3926 28.7107 57.3926 27.9606C57.3926 27.2105 58.0012 26.6017 58.751 26.6017H62.6416C63.3914 26.6017 64 27.2105 64 27.9606C64 28.7107 63.3914 29.3195 62.6416 29.3195Z" fill="#54A32F"/>
<path d="M57.3818 19.7856C57.0341 19.7856 56.6863 19.6552 56.4255 19.3834C55.893 18.8507 55.893 17.9919 56.4255 17.4592L59.175 14.7087C59.7075 14.176 60.566 14.176 61.0985 14.7087C61.631 15.2414 61.631 16.1003 61.0985 16.6329L58.349 19.3834C58.0882 19.6443 57.7405 19.7856 57.3927 19.7856H57.3818Z" fill="#54A32F"/>
<path d="M60.1313 41.6151C59.7835 41.6151 59.4358 41.4846 59.175 41.2129L56.4255 38.4624C55.893 37.9297 55.893 37.0709 56.4255 36.5382C56.958 36.0055 57.8165 36.0055 58.349 36.5382L61.0985 39.2886C61.631 39.8213 61.631 40.6802 61.0985 41.2129C60.8377 41.4738 60.4899 41.6151 60.1422 41.6151H60.1313Z" fill="#54A32F"/>
<path d="M13.249 29.3195H9.35843C8.60858 29.3195 8 28.7107 8 27.9606C8 27.2105 8.60858 26.6017 9.35843 26.6017H13.249C13.9988 26.6017 14.6074 27.2105 14.6074 27.9606C14.6074 28.7107 13.9988 29.3195 13.249 29.3195Z" fill="#54A32F"/>
<path d="M14.6184 19.7856C14.2706 19.7856 13.9228 19.6552 13.662 19.3834L10.9126 16.6329C10.3801 16.1003 10.3801 15.2414 10.9126 14.7087C11.4451 14.176 12.3036 14.176 12.8361 14.7087L15.5856 17.4592C16.1181 17.9919 16.1181 18.8507 15.5856 19.3834C15.3247 19.6443 14.977 19.7856 14.6292 19.7856H14.6184Z" fill="#54A32F"/>
<path d="M11.8689 41.6151C11.5211 41.6151 11.1734 41.4846 10.9126 41.2129C10.3801 40.6802 10.3801 39.8213 10.9126 39.2886L13.662 36.5382C14.1945 36.0055 15.0531 36.0055 15.5856 36.5382C16.1181 37.0709 16.1181 37.9297 15.5856 38.4624L12.8361 41.2129C12.5753 41.4738 12.2275 41.6151 11.8798 41.6151H11.8689Z" fill="#54A32F"/>
</svg>
