<svg width="17" height="17" viewBox="0 0 17 17" fill="none" xmlns="http://www.w3.org/2000/svg">
<path d="M8.00365 0.500003C6.52885 0.498692 5.08241 0.90526 3.82427 1.67476C2.56612 2.44425 1.54529 3.54669 0.874632 4.86019C0.203979 6.17369 -0.0903658 7.64707 0.0241434 9.11742C0.138653 10.5878 0.657555 11.9978 1.52348 13.1917L0.526392 16.1639L3.60232 15.1806C4.64366 15.8666 5.83094 16.2997 7.06941 16.4453C8.30787 16.5909 9.56322 16.4449 10.7353 16.0191C11.9073 15.5933 12.9635 14.8993 13.8197 13.9927C14.6759 13.0861 15.3083 11.9919 15.6664 10.7974C16.0245 9.60295 16.0984 8.34131 15.8822 7.1132C15.6661 5.88508 15.1658 4.72451 14.4214 3.72411C13.6769 2.72371 12.7089 1.91118 11.5946 1.35139C10.4804 0.791605 9.25065 0.50005 8.00365 0.500003V0.500003Z" fill="#12AA66"/>
<path d="M12.66 11.7998C12.4983 12.0926 12.2736 12.3458 12.0021 12.5411C11.7306 12.7364 11.4191 12.8689 11.0901 12.9291C10.6719 13.0155 10.1258 13.089 8.28717 12.3243C6.66673 11.5315 5.29032 10.3159 4.30315 8.80599C3.75993 8.11026 3.42982 7.27209 3.35273 6.39277C3.34231 6.02858 3.40994 5.66637 3.55107 5.33046C3.6922 4.99456 3.90355 4.69274 4.17096 4.44527C4.39648 4.24767 4.68965 4.14489 4.98919 4.15841C5.08855 4.15841 5.17755 4.1636 5.25704 4.16705C5.49205 4.17742 5.61042 4.19124 5.76508 4.56191C5.95776 5.02676 6.42779 6.17504 6.48395 6.28996C6.52335 6.35417 6.54694 6.42681 6.5528 6.50191C6.55866 6.57701 6.54661 6.65243 6.51765 6.72197C6.45186 6.8577 6.3643 6.98173 6.25844 7.08918C6.14007 7.22483 6.02861 7.32938 5.91283 7.4754C5.80483 7.60241 5.683 7.73461 5.81865 7.97308C6.16958 8.57118 6.60623 9.11466 7.11469 9.58621C7.66174 10.0867 8.29847 10.4792 8.99135 10.7431C9.08315 10.7873 9.18614 10.8026 9.28682 10.7872C9.38749 10.7718 9.48117 10.7263 9.55556 10.6567C9.77873 10.3922 9.98754 10.1159 10.1811 9.829C10.2383 9.73423 10.3287 9.66407 10.4347 9.63215C10.5407 9.60022 10.6548 9.60878 10.7548 9.65619C10.9708 9.73136 12.1139 10.2964 12.3489 10.4131C12.584 10.5297 12.7386 10.5859 12.7956 10.6861C12.858 11.0627 12.811 11.4493 12.66 11.7998V11.7998Z" fill="white"/>
</svg>
