<svg xmlns="http://www.w3.org/2000/svg">
  <path
    d="M2.25781 14.4C2.0892 14.4 1.92059 14.3359 1.79249 14.2068C1.53532 13.9497 1.53532 13.5327 1.79249 13.2755L13.2752 1.79287C13.5323 1.5357 13.9493 1.5357 14.2064 1.79287C14.4636 2.05004 14.4636 2.46698 14.2064 2.72431L2.72393 14.2068C2.59486 14.3351 2.42625 14.4 2.25781 14.4Z"
    fill="#8D96AB"/>
  <path
    d="M13.7413 14.4C13.5727 14.4 13.4042 14.3359 13.276 14.2068L1.79249 2.72431C1.53532 2.46698 1.53532 2.05004 1.79249 1.79287C2.04966 1.5357 2.4666 1.5357 2.72393 1.79287L14.2064 13.2755C14.4636 13.5327 14.4636 13.9497 14.2064 14.2068C14.0774 14.3351 13.9089 14.4 13.7413 14.4Z"
    fill="#8D96AB"/>
</svg>
