<svg fill="none" height="24" viewBox="0 0 24 24" width="24" xmlns="http://www.w3.org/2000/svg">
  <path
    d="M19.7802 20.7198L14.6615 15.601C15.653 14.3763 16.25 12.82 16.25 11.125C16.25 7.19651 13.0535 4 9.12498 4C5.19648 4 2 7.19648 2 11.125C2 15.0535 5.19651 18.25 9.12501 18.25C10.82 18.25 12.3763 17.653 13.601 16.6615L18.7198 21.7802C18.866 21.9265 19.058 22 19.25 22C19.442 22 19.634 21.9265 19.7803 21.7802C20.0735 21.487 20.0735 21.013 19.7802 20.7198ZM9.12501 16.75C6.023 16.75 3.50001 14.227 3.50001 11.125C3.50001 8.02296 6.023 5.49998 9.12501 5.49998C12.227 5.49998 14.75 8.02296 14.75 11.125C14.75 14.227 12.227 16.75 9.12501 16.75Z"
    fill="#FFFFFF"/>
</svg>
