<svg width="40" height="40" viewBox="0 0 40 40" fill="none" xmlns="http://www.w3.org/2000/svg">
<circle cx="20" cy="20" r="20" fill="#F6F7F8"/>
<path d="M28.7625 15.0153C27.6211 15.0153 26.5679 14.6371 25.7222 13.9992C24.7523 13.268 24.0554 12.1953 23.8093 10.959C23.7484 10.6535 23.7156 10.3383 23.7125 10.0153H20.4519V18.9246L20.448 23.8047C20.448 25.1094 19.5984 26.2156 18.4207 26.6047C18.0789 26.7176 17.7097 26.7711 17.3254 26.75C16.8347 26.7231 16.375 26.575 15.9754 26.336C15.125 25.8274 14.5484 24.9047 14.5328 23.8492C14.5082 22.1996 15.8418 20.8547 17.4902 20.8547C17.8156 20.8547 18.1281 20.9078 18.4207 21.0043V18.5692V17.6938C18.1121 17.6481 17.798 17.6242 17.4804 17.6242C15.6761 17.6242 13.9886 18.3742 12.7824 19.7254C11.8707 20.7465 11.3238 22.0492 11.2394 23.4153C11.1289 25.2098 11.7855 26.9156 13.059 28.1742C13.2461 28.359 13.4425 28.5305 13.648 28.6887C14.7398 29.5289 16.0746 29.9844 17.4804 29.9844C17.798 29.9844 18.1121 29.961 18.4207 29.9153C19.734 29.7207 20.9457 29.1196 21.9019 28.1742C23.0769 27.0129 23.7261 25.4711 23.7332 23.8301L23.7164 16.5426C24.2769 16.975 24.8898 17.3328 25.5476 17.6106C26.5707 18.0422 27.6554 18.261 28.7718 18.2606V15.893V15.0145C28.7726 15.0153 28.7632 15.0153 28.7625 15.0153Z" fill="#6A7791"/>
</svg>
