<svg xmlns="http://www.w3.org/2000/svg" width="20" height="21" viewBox="0 0 20 21" fill="none">
  <path d="M0.25 10.5C0.25 5.12398 4.62398 0.75 10 0.75C15.376 0.75 19.75 5.12398 19.75 10.5C19.75 15.876 15.3757 20.25 10 20.25C4.62431 20.25 0.25 15.876 0.25 10.5Z" fill="#005430" stroke="#ECEDF1" stroke-width="0.5"></path>
  <path d="M14.3877 7.47238C14.601 7.73443 14.819 8.01318 15.038 8.30427C15.0841 8.89781 15.0964 9.4416 15.1432 10.0361C15.1365 10.2905 15.0584 10.628 14.9843 10.6601C14.9843 10.6601 14.8711 10.7252 14.7953 10.653C14.7402 10.631 14.5202 10.2862 14.5202 10.2862C14.4077 10.183 14.3326 10.2124 14.2525 10.2862C14.0315 10.4995 13.9317 10.8991 13.7815 11.1741C13.7428 11.2356 13.6336 11.288 13.5124 11.1695C13.2601 10.825 13.3355 10.3613 13.3499 10.2895C13.3489 10.2935 13.3482 10.2972 13.3465 10.3039C13.0724 10.613 13.1936 11.1247 13.2557 11.2349C13.3462 11.4158 13.4193 11.5317 13.5952 11.6208C13.7554 11.7386 13.8803 11.6652 13.9491 11.5824C14.1103 11.4155 14.1123 10.9882 14.1881 10.9034C14.2412 10.7482 14.374 10.7749 14.4391 10.8437C14.5019 10.9341 14.5763 10.9929 14.6688 11.042C14.819 11.1745 14.9986 11.1988 15.1755 11.0777C15.2964 11.0099 15.3748 10.9218 15.4456 10.7479C15.5214 10.5449 15.484 9.48033 15.467 8.88813C15.5805 9.04803 15.6926 9.2116 15.8041 9.37684C15.8532 9.8966 15.8752 10.4087 15.8592 10.8994C15.8475 10.9969 16.1997 10.608 16.1974 10.4237C16.1957 10.2625 16.1977 10.1163 16.1974 9.98039C16.3683 10.2531 16.5335 10.5305 16.6898 10.8109C16.7866 10.7595 16.7535 10.2114 16.6921 10.1356C16.5285 9.86122 16.3189 9.56445 16.1566 9.33478C16.1246 9.04502 16.0809 8.70319 16.0612 8.5987C16.0301 8.43546 15.9991 8.1901 15.9523 7.99648C15.9397 7.92071 15.9006 7.67902 15.9129 7.65599C15.932 7.60191 16.0041 7.65765 16.0398 7.59489C16.0929 7.53681 15.8555 6.92191 15.735 6.74632C15.6916 6.66753 15.6132 6.69491 15.5164 6.82276C15.4266 6.90689 15.4593 7.09917 15.4937 7.28177C15.5828 7.74745 15.6626 8.22148 15.7257 8.69451C15.6088 8.52092 15.4666 8.31128 15.3264 8.10898C15.3227 8.08962 15.3084 8.01785 15.3084 8.01685C15.3084 8.0085 15.289 7.63596 15.2727 7.54716C15.2697 7.51111 15.2613 7.50076 15.299 7.50543C15.3391 7.53915 15.3444 7.54082 15.3695 7.55217C15.4099 7.55951 15.4453 7.49108 15.4209 7.42798C15.2957 7.19731 15.1709 6.96564 15.0457 6.73463C15.0307 6.71994 15.0136 6.70426 14.9943 6.70125C14.9749 6.69825 14.9535 6.70793 14.9298 6.74298C14.8841 6.78304 14.835 6.85548 14.8367 6.94861C14.8477 7.11252 14.8771 7.28043 14.8881 7.44468C14.8921 7.46671 14.8961 7.48841 14.9001 7.51044C14.8824 7.48807 14.8671 7.47038 14.8584 7.46137C14.5386 7.12554 15.0053 7.40662 14.7973 7.1469C14.6214 6.95395 14.57 6.89253 14.4198 6.77636C14.3443 6.72762 14.2986 6.63449 14.2739 6.79305C14.2642 6.93259 14.2538 7.09383 14.2632 7.21133C14.2615 7.2771 14.3293 7.39994 14.3877 7.47238Z" fill="white"></path>
  <path d="M6.51227 9.94C6.5086 10.0008 6.67985 10.0745 6.6902 10.2147C6.71456 10.2725 6.65347 10.4581 6.70455 10.4751C6.75129 10.4945 6.81638 10.3469 6.84075 10.2097C6.85444 10.1346 6.782 9.8719 6.65915 9.82483C6.64046 9.82083 6.62043 9.81882 6.60073 9.82016C6.54131 9.8245 6.48823 9.85621 6.51227 9.94Z" fill="white"></path>
  <path d="M14.9011 8.92385C14.8971 8.92318 14.8924 8.92351 14.8877 8.92518C14.8877 8.92518 14.1587 9.44361 14.1406 9.46197C14.0682 9.52606 14.1046 9.75206 14.1406 9.72602C14.1931 9.74605 14.9268 9.24866 14.9128 9.19057C14.9448 9.19224 14.9605 8.93453 14.9011 8.92385Z" fill="white"></path>
  <path d="M16.2414 7.74177C16.2671 7.82056 16.2023 8.07459 16.2557 8.09796C16.3048 8.12433 16.3736 7.92237 16.3993 7.73576C16.4133 7.63361 16.3379 7.27509 16.2093 7.211C16.1993 7.20832 16.1886 7.20666 16.1783 7.20632C16.1048 7.20365 16.0247 7.2594 16.0564 7.36889C16.0378 7.42865 16.213 7.63094 16.2414 7.74177Z" fill="white"></path>
  <path d="M14.4909 8.92985C14.4935 8.78197 14.5079 8.58502 14.5159 8.4625C14.5192 8.41644 14.5303 8.36536 14.5743 8.35368C14.6187 8.34199 14.6955 8.39808 14.6962 8.35C14.6882 8.25587 14.6691 8.117 14.616 8.05123C14.5887 8.01084 14.5439 7.98881 14.4979 7.98681C14.4208 7.98313 14.3383 8.03321 14.3173 8.13869C14.3176 8.20079 14.3453 8.23517 14.34 8.29159C14.332 8.32397 14.2986 8.345 14.2191 8.30728C14.2315 8.29593 14.1677 8.20579 14.1677 8.20579C14.106 8.16807 14.0232 8.2078 13.9694 8.24285C13.9397 8.29659 13.918 8.38906 13.9514 8.4832C14.0405 8.64711 14.3453 8.92718 14.4909 8.92985Z" fill="white"></path>
  <path d="M11.3907 9.8956L11.392 9.89427C11.392 9.89427 11.393 9.89327 11.3933 9.89293L11.3947 9.8916C11.3947 9.89126 11.3947 9.88959 11.3947 9.88926C11.395 9.88659 11.3947 9.88191 11.3933 9.87724L11.3239 9.83651L9.95789 9.83051C9.94087 9.82416 9.92852 9.81749 9.92084 9.81148C9.92017 9.81114 9.91884 9.80948 9.9185 9.80914C9.91817 9.80881 9.9175 9.80814 9.9175 9.80781C9.91717 9.80747 9.9165 9.8068 9.91617 9.80647C9.91617 9.80614 9.91517 9.80447 9.91517 9.80413C9.91517 9.80413 9.91416 9.80313 9.91383 9.8028C9.91383 9.8028 9.91383 9.8018 9.91383 9.80146C9.91383 9.80146 9.91283 9.80046 9.9125 9.80013C9.9125 9.80013 9.9125 9.79913 9.9125 9.79879C9.9125 9.79879 9.9125 9.79779 9.9125 9.79746C9.9125 9.79746 9.9125 9.79646 9.9125 9.79612C9.9125 9.79579 9.9125 9.79512 9.9125 9.79479C9.9125 9.79479 9.9125 9.79379 9.9125 9.79345C9.9125 9.79345 9.9125 9.79245 9.9125 9.79212C9.9125 9.79212 9.9125 9.79112 9.9125 9.79078C9.9125 9.79078 9.9125 9.78978 9.9125 9.78945L9.91383 9.78811C9.91416 9.78744 9.9145 9.78644 9.91517 9.78577C9.92184 9.77676 9.93787 9.76842 9.95823 9.76074C10.2844 9.71634 10.8639 9.6212 10.9023 9.06405C10.8963 8.77362 10.7781 8.58368 10.4219 8.53093C10.1602 8.5513 9.97359 8.80433 10.0036 9.08308C9.99128 9.15819 10.029 9.3054 9.95222 9.32209C9.45015 9.36783 8.90201 9.68262 8.88365 9.90762C8.88365 9.90762 8.88265 9.90762 8.88232 9.90762C8.88198 9.90795 8.88132 9.90862 8.88098 9.90895C8.88065 9.90929 8.87931 9.90996 8.87865 9.91029C8.87831 9.91029 8.87664 9.91029 8.87631 9.91029C8.87564 9.91062 8.87364 9.91129 8.87264 9.91163C8.8723 9.91163 8.87164 9.91163 8.87164 9.91163C8.87097 9.91163 8.86963 9.91163 8.8693 9.91163C8.86897 9.91163 8.8683 9.91163 8.86796 9.91163C8.86763 9.91163 8.86596 9.91163 8.86563 9.91163C8.86429 9.91129 8.86195 9.91062 8.86095 9.91029C8.82824 9.90128 8.78618 9.8472 8.79285 9.77175C8.77383 9.38251 8.64697 8.9422 8.44868 8.60304C8.37791 8.53227 8.34687 8.50356 8.32684 8.50022C8.32617 8.50022 8.32517 8.50022 8.3245 8.50022C8.32383 8.50022 8.32216 8.50022 8.32083 8.50022C8.32049 8.50022 8.31983 8.50022 8.31949 8.50022H8.31849C8.31816 8.50022 8.31749 8.50022 8.31716 8.50022C8.31515 8.50089 8.31315 8.50256 8.31115 8.50389C8.31015 8.50456 8.30848 8.50556 8.30747 8.50623C8.29212 8.51791 8.27409 8.54429 8.23337 8.57299C8.16493 8.65077 8.15258 8.70519 8.15692 8.86108C8.16093 8.87744 8.28678 9.22796 8.3936 9.47432C8.46571 9.73036 8.53214 10.0235 8.4834 10.3002C8.31482 10.6661 7.97599 10.9942 7.64918 11.1728C7.4826 11.2262 7.33872 11.2079 7.30033 11.1715C7.3 11.1711 7.29933 11.1705 7.299 11.1701C7.20319 11.1057 7.20119 10.9912 7.20686 10.9718C7.20686 10.9718 7.20686 10.9708 7.20686 10.9705C7.20719 10.9702 7.20786 10.9695 7.2082 10.9692C7.48393 10.7769 7.7994 10.6213 8.04609 10.1026C8.11887 9.90428 8.14123 9.78511 8.06879 9.47866C8.04042 9.36449 8.0057 9.27035 7.92792 9.18957L7.92925 9.18823C7.97632 9.16586 8.09817 9.25566 8.11686 9.19891C8.08815 9.0527 7.98901 8.85608 7.87651 8.7556C7.77837 8.66646 7.67121 8.65612 7.58141 8.73757C7.47993 8.79399 7.45856 8.99662 7.5073 9.17388C7.56138 9.30741 7.70793 9.33077 7.81208 9.5995V9.60084C7.81442 9.61753 7.8478 9.80146 7.79539 9.87557C7.75266 10.0084 7.20552 10.4401 7.1668 10.4661C7.16647 10.4664 7.1638 10.4681 7.16313 10.4684C7.1628 10.4688 7.16213 10.4694 7.16179 10.4698C7.16179 10.4698 7.16079 10.4708 7.16046 10.4711C7.16046 10.4711 7.15946 10.4721 7.15912 10.4724C7.15912 10.4724 7.15812 10.4724 7.15779 10.4724C7.15779 10.4724 7.15679 10.4724 7.15645 10.4724C7.15612 10.4721 7.15545 10.4714 7.15545 10.4711C7.15545 10.4711 7.15545 10.4701 7.15545 10.4698C7.15512 10.4694 7.15445 10.4678 7.15412 10.4674C7.15245 10.4568 7.15545 10.4294 7.15412 10.385C7.15044 10.3042 7.18383 10.1213 7.18149 10.0899C7.18149 10.0899 7.18149 10.0889 7.18149 10.0886C7.18116 10.0882 7.18049 10.0876 7.18049 10.0872C7.18049 10.0872 7.18049 10.0862 7.18049 10.0859C7.18015 10.0859 7.17915 10.0859 7.17915 10.0859C6.99822 10.2027 6.93847 10.5609 6.90542 10.6667C6.44741 10.9832 5.92732 11.2185 5.62788 11.5393C5.47198 11.783 6.70279 11.2596 6.84566 11.1962C6.847 11.1972 6.848 11.1985 6.84934 11.1998C6.87638 11.2299 6.87871 11.334 6.9605 11.4282C7.08835 11.6014 7.36042 11.7083 7.62514 11.6422C8.06879 11.4819 8.3245 11.1792 8.58488 10.8437C8.62194 10.7896 8.68036 10.7469 8.73443 10.7886C8.91336 11.1892 9.42912 11.4739 10.0958 11.5033C10.25 11.3157 10.1762 11.2235 10.1138 11.1842C10.0944 11.1715 9.78231 11.0496 9.73357 10.9284C9.70319 10.8156 9.7773 10.7155 9.92585 10.6404C10.3538 10.5886 10.7748 10.5312 11.182 10.4C11.186 10.2631 11.2668 10.0585 11.3206 9.96971C11.3576 9.91029 11.3816 9.90428 11.3907 9.8956ZM10.264 9.03768C10.265 9.03334 10.2667 9.02966 10.2687 9.02566C10.2694 9.02432 10.27 9.02199 10.271 9.02099C10.271 9.02065 10.272 9.01998 10.272 9.01965C10.2737 9.01765 10.276 9.01531 10.278 9.01364C10.2867 9.00696 10.2991 9.00196 10.3127 9.00062C10.3425 8.99762 10.3815 9.00763 10.4192 9.02933C10.4737 9.06071 10.507 9.10845 10.503 9.14283C10.503 9.14383 10.5034 9.1455 10.503 9.1465C10.5027 9.1475 10.501 9.14917 10.5007 9.15017C10.5004 9.15118 10.4997 9.15285 10.4994 9.15385C10.499 9.15451 10.4984 9.15552 10.498 9.15618C10.4977 9.15685 10.497 9.15819 10.4967 9.15852C10.495 9.16152 10.492 9.16453 10.4897 9.16687C10.4636 9.19124 10.4032 9.1879 10.3461 9.15485C10.2921 9.1238 10.259 9.07573 10.2623 9.04135C10.263 9.04035 10.264 9.03868 10.264 9.03768ZM9.71788 10.406C9.57133 10.4561 9.43046 10.4955 9.42979 10.7071C9.44915 10.8119 9.44481 10.867 9.42879 10.8924C9.42745 10.8944 9.42545 10.8967 9.42411 10.8984C9.42378 10.8987 9.42311 10.8994 9.42278 10.8997C9.42244 10.9001 9.42178 10.9007 9.42144 10.9011C9.42111 10.9014 9.42044 10.9021 9.42044 10.9024L9.41911 10.9037C9.41877 10.9041 9.4171 10.9047 9.41677 10.9051C9.41477 10.9064 9.41176 10.9078 9.40942 10.9088C9.40742 10.9094 9.40442 10.9094 9.40241 10.9101C9.3677 10.9151 9.31696 10.882 9.27923 10.8624C9.18877 10.7976 8.9354 10.6404 8.89901 10.3029C8.894 10.2268 8.95075 10.161 9.04255 10.1546C9.04689 10.1543 9.0509 10.1546 9.05557 10.1546H9.05791C9.21013 10.196 9.43446 10.2004 9.62908 10.2204C9.78798 10.2294 9.86643 10.3539 9.71788 10.406Z" fill="white"></path>
  <path d="M9.26537 9.08409C9.4226 9.1592 9.79748 9.1148 9.70634 8.87244C9.70634 8.85008 9.70034 8.77463 9.698 8.75427C9.68198 8.71688 9.65227 8.70286 9.62389 8.70753C9.59552 8.71254 9.56814 8.73591 9.55813 8.7743C9.55178 8.79967 9.57014 8.84173 9.54744 8.85442C9.53443 8.86777 9.48335 8.86009 9.48535 8.78999C9.48535 8.76762 9.469 8.74325 9.45898 8.7289C9.44897 8.72222 9.44363 8.72055 9.4256 8.72055C9.40357 8.72155 9.4029 8.72723 9.39088 8.74559C9.38588 8.76428 9.37886 8.78298 9.37886 8.80401C9.37619 8.82904 9.36751 8.83739 9.34915 8.84106C9.32879 8.84106 9.33346 8.8434 9.31677 8.83272C9.30676 8.82203 9.29407 8.81769 9.29407 8.79933C9.29407 8.78031 9.2904 8.74993 9.28439 8.73724C9.27571 8.72589 9.26069 8.72089 9.245 8.71688C9.15921 8.71721 9.15387 8.81469 9.15888 8.85208C9.15253 8.85909 9.14819 9.03535 9.26537 9.08409Z" fill="white"></path>
  <path d="M14.9407 13.4414C14.8469 13.4555 14.5832 13.4822 14.5832 13.4822C14.2784 13.4458 14.0548 13.4421 13.7119 13.4294C13.7436 13.3894 13.7994 13.2264 13.731 13.1677C13.7133 13.153 13.6866 13.1447 13.6498 13.1473C13.6495 13.1473 13.6488 13.1473 13.6485 13.1473C13.6482 13.1473 13.6465 13.1473 13.6462 13.1473C13.6458 13.1473 13.6452 13.1463 13.6448 13.146C13.6438 13.1457 13.6422 13.1453 13.6412 13.1447C13.6392 13.1433 13.6368 13.1407 13.6352 13.1387C13.6348 13.138 13.6332 13.137 13.6328 13.1363C13.6155 13.1109 13.6061 13.0492 13.5944 13.0335C13.5944 13.0335 13.5934 13.0325 13.5931 13.0322C13.5931 13.0322 13.5921 13.0312 13.5921 13.0308C13.5918 13.0305 13.5901 13.0298 13.5898 13.0295C13.5894 13.0295 13.5888 13.0295 13.5884 13.0295C13.5884 13.0295 13.5874 13.0295 13.5871 13.0295C13.5868 13.0298 13.5861 13.0305 13.5861 13.0305C13.3594 13.0886 13.3664 13.3239 13.512 13.4274C11.1181 13.4274 7.44408 13.3867 6.65625 13.3867C6.21561 13.3867 4.8209 13.3339 4.79419 13.3339C5.09329 13.7712 5.5266 13.8604 6.09343 13.8694C7.15665 13.8694 12.0835 13.8564 13.4856 13.8564C13.3858 14.0333 13.4946 14.3181 13.5727 14.3705C13.5744 14.3715 13.5771 14.3731 13.5787 14.3741C13.5817 14.3755 13.5854 14.3771 13.5884 14.3778C13.5894 14.3781 13.5911 14.3778 13.5921 14.3778C13.6849 14.3998 13.7256 14.3324 13.757 14.2833C13.9076 14.2967 14.7551 14.3087 14.8326 14.282C14.8329 14.282 14.8336 14.281 14.8339 14.2807C14.8863 14.3578 14.9384 14.4309 15.0382 14.4182C15.2128 14.3808 15.3507 14.3618 15.355 14.0069C15.3553 14.0079 15.3373 13.4037 14.9407 13.4414ZM14.7698 14.0894C14.7682 14.0901 14.7655 14.0914 14.7638 14.0917C14.7625 14.0921 14.7605 14.0917 14.7591 14.0917C14.7578 14.0917 14.7558 14.0921 14.7545 14.0917C14.641 14.0887 14.5752 14.0864 14.4617 14.0834C14.4617 14.0777 14.461 14.0717 14.4594 14.0667C14.4323 13.9869 14.2374 13.9922 14.1916 14.0547C14.191 14.0557 14.19 14.0573 14.1893 14.0583C14.1886 14.0597 14.1876 14.0617 14.187 14.063C14.1863 14.0647 14.185 14.0674 14.1846 14.069C14.184 14.0714 14.1836 14.075 14.1833 14.0774C14.183 14.0804 14.182 14.084 14.182 14.087C14.0287 14.1054 13.8905 14.082 13.7373 14.0764C13.6922 14.0203 13.6976 13.9191 13.7503 13.8948C13.7507 13.8944 13.751 13.8951 13.7513 13.8948C14.1005 13.9118 14.4287 13.8981 14.7782 13.9151C14.8336 13.9619 14.8059 14.0697 14.7698 14.0894Z" fill="white"></path>
  <path d="M10.6691 11.4185C10.6691 11.4245 10.7305 11.4773 10.803 11.4352C10.9555 11.3771 11.0507 11.3204 11.2643 11.274C11.3204 11.273 11.3171 11.1227 11.2286 11.1174C11.1128 11.1231 11.0059 11.1291 10.8904 11.2202C10.8193 11.2366 10.807 11.1932 10.7913 11.1545C10.7733 11.058 10.832 10.9902 10.82 10.9178C10.8233 10.9211 10.7839 10.8857 10.7339 10.8831C10.7172 10.8821 10.6995 10.8847 10.6811 10.8937C10.6775 10.8937 10.5202 11.0002 10.4695 11.0743C10.4384 11.0977 10.4421 11.1184 10.4515 11.1591C10.4755 11.2145 10.5179 11.1972 10.5663 11.1711C10.6304 11.1625 10.6611 11.2042 10.6561 11.281C10.6264 11.3771 10.6691 11.4125 10.6691 11.4185Z" fill="white"></path>
  <path d="M15.9472 11.3805C15.9175 11.3464 15.85 11.3668 15.805 11.3614C15.7836 11.3614 15.7128 11.3511 15.7465 11.2887C15.7746 11.2499 15.7849 11.2266 15.804 11.1788C15.8253 11.1321 15.8066 11.1004 15.7299 11.075C15.6908 11.068 15.6638 11.0657 15.6354 11.0667C15.607 11.0677 15.577 11.0713 15.5339 11.075C15.4872 11.085 15.4708 11.1054 15.4621 11.1621C15.4655 11.2483 15.5182 11.2439 15.572 11.278C15.6033 11.3177 15.6234 11.3537 15.5696 11.4188C15.5185 11.4656 15.4822 11.4916 15.4311 11.5384C15.407 11.5794 15.392 11.6428 15.4658 11.6625C15.602 11.7009 15.9175 11.496 15.9175 11.4916C15.9685 11.4532 15.9515 11.3805 15.9472 11.3805Z" fill="white"></path>
  <path d="M13.5103 10.9732C13.6198 10.9739 13.7466 10.7225 13.8007 10.4735C13.8304 10.1306 13.781 9.92198 13.772 9.72035C13.763 9.51872 13.544 7.88399 13.4996 7.73143C13.4458 7.44301 13.7129 7.69338 13.6835 7.5258C13.5914 7.31449 13.361 7.0067 13.2893 6.8231C13.2622 6.77403 13.2589 6.72829 13.2365 6.7323C13.2232 6.73464 13.2035 6.755 13.1671 6.80274C13.0773 7.09684 13.0456 7.33719 13.08 7.51979C13.3113 8.72656 13.548 9.82517 13.5103 10.9732Z" fill="white"></path>
  <path d="M16.9262 7.77984C16.9159 7.70373 16.8821 7.5288 16.8952 7.5061C16.9162 7.45269 17.0214 7.51145 17.0591 7.45002C17.1142 7.39394 16.7867 6.97432 16.6718 6.79506C16.6488 6.74999 16.6348 6.71294 16.6144 6.71494C16.5987 6.71661 16.5794 6.74198 16.55 6.80441C16.4789 6.92058 16.4545 7.12855 16.4829 7.31249C16.6538 8.46751 16.7807 9.58616 16.8067 10.61C16.792 10.7071 16.7877 10.7589 16.7423 10.8814C16.6415 11.0106 16.5303 11.1725 16.4255 11.2506C16.3207 11.3287 16.098 11.4032 16.0249 11.4609C15.7939 11.5944 15.7926 11.7483 15.9795 11.7537C16.3016 11.7163 16.6825 11.6899 16.9452 11.2937C17.0153 11.1825 17.0981 10.8814 17.1018 10.6971C17.1265 9.61687 17.0881 8.56065 16.9262 7.77984Z" fill="white"></path>
  <path d="M14.7971 10.3296C14.8462 10.3559 14.9751 10.1974 14.9704 9.99842C14.9847 9.89627 14.934 9.51972 14.8055 9.45562C14.7908 9.45162 14.7744 9.45028 14.7587 9.45195C14.6916 9.4603 14.6279 9.52372 14.6573 9.6252C14.6389 9.68496 14.7484 9.89326 14.7768 10.0041C14.8025 10.0832 14.744 10.3059 14.7971 10.3296Z" fill="white"></path>
  <path d="M4.65362 7.13088C4.81086 7.20599 5.10595 7.17428 5.0936 6.92057C5.0936 6.89821 5.0886 6.82276 5.08626 6.8024C5.07024 6.76501 5.04086 6.75099 5.01248 6.756C4.98411 6.76101 4.95674 6.78437 4.94672 6.82276C4.94038 6.84813 4.95774 6.8902 4.9347 6.90288C4.92169 6.91623 4.87161 6.90722 4.87361 6.83712C4.87361 6.81475 4.85726 6.79138 4.84724 6.77736C4.83723 6.77102 4.83055 6.76902 4.81252 6.76902C4.79049 6.77002 4.79116 6.77569 4.77914 6.79405C4.7738 6.81275 4.76679 6.83111 4.76679 6.85247C4.76412 6.87751 4.75411 6.88586 4.73575 6.88953C4.71538 6.88953 4.72006 6.89186 4.70337 6.88118C4.69368 6.8705 4.682 6.86616 4.682 6.8478C4.682 6.82877 4.67699 6.79839 4.67132 6.78571C4.66264 6.77436 4.64895 6.76835 4.63293 6.76434C4.54714 6.76468 4.54079 6.86349 4.5458 6.90054C4.53979 6.90722 4.53645 7.08214 4.65362 7.13088Z" fill="white"></path>
  <path d="M7.03022 7.95209C7.01086 7.95009 6.98549 7.9571 6.95611 7.97479C6.8169 8.0499 6.76316 8.27323 6.84962 8.40375C6.9304 8.51892 7.05859 8.47653 7.07562 8.47653C7.21182 8.49355 7.29327 8.22082 7.29327 8.22082C7.29327 8.22082 7.29728 8.14404 7.13537 8.28892C7.06727 8.3016 7.05792 8.27723 7.0409 8.23884C7.02654 8.16774 7.02988 8.09597 7.06226 8.02486C7.07762 7.98247 7.0626 7.95543 7.03022 7.95209Z" fill="white"></path>
  <path d="M12.6882 10.7272C12.4352 10.9912 12.0706 11.317 11.6734 11.4669C11.6307 11.515 11.7795 11.7193 11.9722 11.7189C12.2943 11.6816 12.5774 11.5006 12.8398 11.0246C12.9099 10.9134 13.0334 10.6757 13.037 10.4915C13.0618 9.41123 12.9826 8.57133 12.8207 7.79052C12.8104 7.71441 12.8174 7.62461 12.8304 7.60157C12.8511 7.57654 12.9219 7.60224 12.9596 7.54048C13.0147 7.4844 12.8127 7.01839 12.6979 6.83879C12.6749 6.79372 12.6608 6.758 12.6405 6.76001C12.6248 6.76168 12.6054 6.78604 12.576 6.84847C12.5053 6.96464 12.4569 7.16694 12.4625 7.35655C12.6161 8.42044 12.6632 9.35114 12.7636 10.415C12.7717 10.5182 12.7566 10.6674 12.6882 10.7272Z" fill="white"></path>
  <path d="M3.92927 9.13215C3.55139 9.13916 2.99857 9.62721 2.98389 9.89827C3.38247 9.70699 3.77405 9.52272 4.17897 9.32443C4.11354 9.22695 4.17497 9.13916 3.92927 9.13215Z" fill="white"></path>
  <path d="M3.19689 11.1364C3.09742 11.3381 3.05635 11.2002 3.04734 11.0874C3.03199 10.8737 3.05268 10.6768 3.07605 10.5209C3.0884 10.4411 3.08807 10.413 3.07839 10.4134C3.06904 10.4137 3.04968 10.4421 3.02464 10.4745C2.79998 10.8323 2.77995 11.3668 2.9038 11.5263C2.96956 11.6018 3.07839 11.6348 3.1585 11.6111C3.29971 11.55 3.3618 11.2639 3.32809 11.1595C3.28102 11.0853 3.24396 11.0737 3.19689 11.1364Z" fill="white"></path>
  <path d="M3.23898 8.80567C3.69798 8.84973 3.44461 8.02953 3.61086 7.88065C3.64224 7.8072 3.70032 7.80587 3.70533 7.89867V8.59536C3.70099 8.82203 3.85021 8.88912 3.96604 8.93586C4.08655 8.92651 4.16634 8.92985 4.21341 9.04702C4.2321 9.44861 4.2518 9.8512 4.27082 10.2531C4.27082 10.2531 4.54923 10.3332 4.56259 9.57546C4.57594 9.13048 4.47412 8.75726 4.53388 8.6708C4.53588 8.58568 4.64504 8.58167 4.72015 8.62307C4.83999 8.70786 4.8934 8.81201 5.08001 8.76995C5.36376 8.69183 5.53468 8.55397 5.53902 8.33598C5.52233 8.12901 5.49829 7.92171 5.40883 7.7144C5.42151 7.67668 5.35441 7.57887 5.3671 7.54115C5.41817 7.62093 5.49529 7.61425 5.51298 7.54115C5.46458 7.38191 5.38946 7.22936 5.26795 7.16359C5.16747 7.07513 5.02059 7.09383 4.96684 7.27843C4.94181 7.49107 5.04396 7.74311 5.19885 7.94908C5.2319 8.02953 5.27763 8.16339 5.25727 8.28357C5.17482 8.33064 5.09336 8.31094 5.02426 8.23817C5.02426 8.23817 4.79826 8.06892 4.79826 8.03153C4.85835 7.64764 4.81128 7.60391 4.7779 7.49742C4.75453 7.35053 4.6851 7.3038 4.62835 7.20332C4.57193 7.14357 4.49515 7.14357 4.45877 7.20332C4.35895 7.37657 4.40569 7.74812 4.47779 7.91436C4.52987 8.06759 4.60999 8.16306 4.57227 8.16306C4.54122 8.24952 4.47679 8.22949 4.43006 8.12968C4.36363 7.92337 4.34994 7.61592 4.34994 7.47705C4.32991 7.30514 4.30754 6.93793 4.19471 6.84479C4.16467 6.80373 4.12895 6.78938 4.09423 6.79338C4.04983 6.79873 4.00811 6.83478 3.98774 6.88318C3.9804 7.05377 3.9794 7.22435 3.99843 7.38158C4.07587 7.65732 4.10057 7.90001 4.1383 8.18242C4.14865 8.56064 3.91998 8.34599 3.93033 8.15839C3.98307 7.9147 3.96905 7.53147 3.92198 7.43399C3.88459 7.33685 3.84153 7.31281 3.75106 7.32884C3.67929 7.3245 3.49335 7.52679 3.44161 7.86195C3.44161 7.86195 3.39821 8.03387 3.37952 8.18709C3.35415 8.36001 3.23931 8.48253 3.15953 8.16306C3.09043 7.93072 3.04803 7.35855 2.93253 7.49241C2.89881 7.93873 2.85942 8.72488 3.23898 8.80567Z" fill="white"></path>
  <path d="M3.39283 7.12088C3.41687 7.18096 3.3688 7.37425 3.41921 7.39227C3.46527 7.4123 3.52903 7.25841 3.55307 7.1162C3.56642 7.03842 3.55641 6.7717 3.37514 6.71695C3.36579 6.71495 3.35645 6.71361 3.34643 6.71328C3.277 6.71127 3.20055 6.75434 3.2306 6.83746C3.21324 6.88319 3.36613 7.03642 3.39283 7.12088Z" fill="white"></path>
  <path d="M6.0144 10.5983C6.17797 10.0535 6.01106 9.64256 6.06581 9.59182C6.06614 9.59149 6.06781 9.59082 6.06815 9.59049C6.06881 9.59015 6.07015 9.58949 6.07048 9.58915C6.07115 9.58882 6.07215 9.58815 6.07282 9.58782C6.07482 9.58748 6.07783 9.58682 6.07983 9.58648C6.28179 9.80414 6.56521 9.61419 6.6273 9.53875C6.65401 9.50102 6.72044 9.47665 6.76717 9.52573C6.92474 9.63889 7.20081 9.58548 7.25856 9.38585C7.29194 9.19057 7.31998 8.98961 7.32666 8.78097C7.22417 8.81268 7.14139 8.83672 7.108 8.87177C7.09999 8.88045 7.09432 8.89013 7.09231 8.90048C7.0833 8.95823 7.07496 9.01598 7.06594 9.07373C7.06494 9.0784 7.06361 9.08274 7.06127 9.08675C7.05693 9.09376 7.04959 9.10044 7.04224 9.10478C7.00586 9.12447 6.94276 9.11312 6.93942 9.06071C6.89069 8.83872 6.68972 8.81001 6.56755 9.15385C6.48542 9.22028 6.33587 9.2333 6.32018 9.13348C6.34021 8.90281 6.24707 8.87177 6.0608 8.98059C6.00105 8.52359 5.94163 8.08695 5.88154 7.62995C5.95932 7.62761 6.03042 7.68403 6.10153 7.59523C6.02475 7.35621 5.86218 6.86983 5.77038 6.82443C5.76971 6.8241 5.76871 6.82343 5.76804 6.8231C5.76403 6.81809 5.75903 6.81342 5.75502 6.81008C5.75335 6.80874 5.75068 6.80641 5.74901 6.8054C5.74734 6.8044 5.74467 6.80273 5.743 6.80173C5.73933 6.79973 5.73466 6.79806 5.73099 6.79706C5.72264 6.79472 5.71463 6.79372 5.70595 6.79472C5.68325 6.79773 5.65788 6.81074 5.62817 6.81742C5.53069 6.84847 5.43922 6.93292 5.46793 7.09717C5.58344 7.79819 5.65855 8.33331 5.77371 9.03467C5.79141 9.11679 5.72264 9.22495 5.63384 9.21394C5.48295 9.11179 5.44557 8.90515 5.18819 8.91383C5.00192 8.91617 4.78927 9.1188 4.76256 9.31408C4.73152 9.46931 4.7205 9.63756 4.76256 9.77309C4.89342 9.93065 5.05065 9.91396 5.18819 9.87824C5.30136 9.83184 5.39449 9.72001 5.43422 9.74672H5.43555V9.74805C5.46026 9.79112 5.43322 10.156 4.90244 10.4377C4.57629 10.5843 4.31658 10.6193 4.17704 10.3529C4.09058 10.1864 4.18338 9.55277 3.9704 9.69931C3.34015 11.3234 5.44657 11.5504 5.68191 9.76608C5.69727 9.71567 5.74367 9.66526 5.77639 9.67762C5.79074 9.68362 5.80376 9.70332 5.80877 9.73971C5.76003 11.3551 4.17938 11.4659 3.91065 10.9575C3.84422 10.8377 3.82419 10.5713 3.81751 10.4114C3.80549 10.3145 3.78113 10.2588 3.75309 10.2368C3.68899 10.1887 3.60286 10.3142 3.5845 10.5319C3.5578 10.7071 3.56548 10.7552 3.56548 10.9238C3.6496 12.2003 5.68358 11.6522 6.0144 10.5983ZM5.22858 9.49435V9.49568C5.22825 9.49635 5.22791 9.49768 5.22725 9.49802C5.21156 9.51838 5.15581 9.51004 5.11608 9.51004C5.06801 9.50803 5.04464 9.50002 5.0156 9.46096C5.00192 9.41757 5.04364 9.37484 5.06234 9.34279C5.06234 9.34246 5.06334 9.34179 5.06334 9.34146C5.06534 9.33845 5.06868 9.33478 5.07169 9.33178C5.08604 9.31876 5.11074 9.3064 5.13745 9.30307C5.14246 9.3024 5.1478 9.30173 5.15314 9.30173C5.19019 9.30207 5.22925 9.32043 5.24995 9.37217C5.26864 9.4199 5.25095 9.46964 5.22858 9.49435Z" fill="white"></path>
  <path d="M11.9544 8.27589C12.1116 8.35101 12.4081 8.31796 12.3954 8.06425C12.3954 8.04189 12.3894 7.96644 12.387 7.94608C12.371 7.90869 12.3413 7.89467 12.3129 7.89934C12.2846 7.90435 12.2572 7.92872 12.2472 7.96744C12.2408 7.99281 12.2592 8.03354 12.2365 8.04622C12.2235 8.05958 12.1724 8.0519 12.1744 7.9818C12.1744 7.95943 12.158 7.93506 12.148 7.92071C12.138 7.91436 12.1313 7.91236 12.1133 7.91236C12.0913 7.91336 12.0919 7.91904 12.0799 7.9374C12.0749 7.95609 12.0679 7.97479 12.0679 7.99582C12.0652 8.02085 12.0566 8.0292 12.0382 8.03287C12.0178 8.03287 12.0215 8.03521 12.0048 8.02453C11.9948 8.01384 11.9835 8.0095 11.9835 7.99114C11.9835 7.97212 11.9784 7.94174 11.9728 7.92905C11.9641 7.9177 11.9504 7.9127 11.9344 7.90869C11.8486 7.90902 11.8436 8.0065 11.8483 8.04389C11.8416 8.05123 11.8372 8.22749 11.9544 8.27589Z" fill="white"></path>
  <path d="M12.0606 7.29246C12.1167 7.44969 12.0179 7.59957 12.0763 7.62127C12.1301 7.64564 12.2048 7.45903 12.2329 7.28678C12.2653 7.14724 12.1658 6.86182 12.0249 6.80274C12.0142 6.80007 12.0029 6.7994 11.9915 6.79907C11.9111 6.79673 11.8216 6.84747 11.8563 6.94862C11.836 7.00337 12.0296 7.18997 12.0606 7.29246Z" fill="white"></path>
  <path d="M6.19722 8.04756H6.19856C6.19889 8.04756 6.19956 8.04856 6.1999 8.0489H6.20123C6.20123 8.0489 6.20223 8.0499 6.20257 8.05023C6.23228 8.07026 6.60048 8.06993 6.64121 8.05157C6.64154 8.05157 6.64221 8.05057 6.64221 8.05023H6.64355C6.64355 8.05023 6.64355 8.04923 6.64355 8.0489C6.77007 8.00216 7.37028 7.31616 7.37028 7.31616C7.33923 7.28945 7.31052 7.26976 7.27948 7.24338C7.2461 7.21468 7.24943 7.1863 7.27948 7.15726C7.42803 7.0708 7.38096 6.88052 7.30351 6.79406C7.23909 6.76535 7.17866 6.75533 7.12425 6.75834C7.06984 6.76101 7.02177 6.7767 6.98071 6.79773C6.87655 6.89754 6.85185 7.05778 6.93397 7.15759C7.01376 7.19531 7.09354 7.27576 7.04046 7.32016C6.81446 7.56152 6.22627 7.96478 6.19656 8.03855C6.19622 8.03922 6.19556 8.04022 6.19556 8.04089V8.04322V8.04456C6.19556 8.04523 6.19622 8.04656 6.19656 8.04689C6.19622 8.04656 6.19689 8.04723 6.19722 8.04756ZM7.0872 6.97199C7.08953 6.97132 7.09187 6.97098 7.09421 6.97065C7.13093 6.96698 7.17533 7.00069 7.19703 7.04843C7.22006 7.09917 7.20871 7.14791 7.17065 7.15726C7.13293 7.1666 7.08386 7.13289 7.06083 7.08181C7.03779 7.03107 7.04947 6.98133 7.0872 6.97199Z" fill="white"></path>
  <path d="M10.5976 7.35154C10.8613 7.70606 11.115 8.06225 11.36 8.43079C11.3984 8.70453 11.4268 8.97225 11.4448 9.23864C11.4846 9.82317 11.4966 10.5509 11.4605 11.1665C11.57 11.1708 11.7456 10.9895 11.807 10.7242C11.8471 10.3569 11.7927 9.60818 11.789 9.39153C11.7863 9.30173 11.781 9.19424 11.7747 9.08208C12.0597 9.54776 12.3361 10.0415 12.6075 10.5833C12.7064 10.5362 12.6847 9.97906 12.6266 9.90095C12.4093 9.43326 12.1091 8.97158 12.0133 8.79432C11.979 8.73023 11.8611 8.5513 11.7216 8.345C11.6959 8.05057 11.6678 7.8012 11.6498 7.72576C11.6051 7.41463 11.7777 7.76081 11.754 7.57988C11.6979 7.26909 11.5263 7.05778 11.3237 6.77303C11.2582 6.68056 11.2596 6.66153 11.1588 6.79573C11.0983 6.93259 11.0993 7.04643 11.117 7.15292C11.0907 7.11453 11.0576 7.06846 11.0105 7.01204C10.8356 6.86182 10.8249 6.85381 10.6794 6.7313C10.6336 6.69892 10.5465 6.64884 10.4798 6.65485C10.4397 6.65852 10.408 6.68189 10.396 6.74098C10.3799 6.87985 10.3883 6.95529 10.4117 7.0708C10.43 7.14791 10.5422 7.27676 10.5976 7.35154ZM11.1557 7.33051C11.1624 7.36055 11.1691 7.3906 11.1738 7.42131C11.1888 7.48741 11.2018 7.55317 11.2155 7.6186C11.1574 7.53882 11.1093 7.47405 11.089 7.45135C10.9578 7.29546 11.0917 7.34887 11.1557 7.33051Z" fill="white"></path>
  <path d="M7.91767 8.45015C8.10127 8.52626 8.21778 8.17675 8.29289 7.79385C8.3443 7.68636 8.38369 7.67401 8.41006 7.72942C8.40338 8.23817 8.44645 8.35201 8.57731 8.50623C8.86907 8.73156 9.11042 8.53461 9.12945 8.51591C9.14848 8.49688 9.35645 8.28891 9.35645 8.28891C9.40719 8.23584 9.47395 8.2325 9.54539 8.27923C9.61483 8.34232 9.60581 8.45115 9.7547 8.52659C9.87988 8.57667 10.1469 8.53861 10.209 8.43112C10.2925 8.28824 10.3125 8.23917 10.3512 8.18476C10.4107 8.10564 10.5125 8.1407 10.5125 8.16573C10.5031 8.2098 10.443 8.25353 10.4838 8.33298C10.5545 8.38606 10.5709 8.35201 10.613 8.33999C10.7612 8.26922 10.8723 7.94808 10.8723 7.94808C10.879 7.82824 10.8106 7.83725 10.7672 7.86195C10.7104 7.89667 10.7068 7.90836 10.65 7.94307C10.5776 7.95376 10.4374 8.00149 10.3679 7.894C10.2972 7.76481 10.2965 7.58455 10.2424 7.45402C10.2424 7.44468 10.1476 7.24905 10.2354 7.23637C10.2795 7.24471 10.3746 7.26908 10.3896 7.18963C10.436 7.11219 10.2895 6.89287 10.19 6.78204C10.1035 6.68723 9.98404 6.67555 9.86853 6.77236C9.78741 6.8468 9.79943 6.92992 9.78374 7.00904C9.76304 7.0995 9.76705 7.212 9.85919 7.33184C9.93997 7.49108 10.0869 7.69571 10.0384 7.98447C10.0384 7.98447 9.95299 8.122 9.8031 8.10397C9.74068 8.09029 9.63853 8.06325 9.58445 7.66299C9.54339 7.35988 9.5948 6.93559 9.46628 6.73664C9.43723 6.66153 9.4122 6.58875 9.3708 6.59443C9.34577 6.59777 9.31539 6.62981 9.27266 6.70693C9.24228 6.78738 9.11109 6.90956 9.20589 7.16126C9.28334 7.32083 9.31505 7.57987 9.28 7.86896C9.22626 7.95108 9.21424 7.97946 9.1438 8.06125C9.04499 8.1674 8.93783 8.14036 8.85571 8.10064C8.77893 8.04889 8.71851 8.02219 8.68346 7.85795C8.6898 7.5959 8.70516 7.16727 8.65709 7.07613C8.58665 6.93526 8.47015 6.98567 8.42041 7.0284C8.18139 7.24672 8.06355 7.61559 7.99145 7.90936C7.92535 8.12334 7.85458 8.06124 7.80517 7.97512C7.68433 7.86195 7.67598 6.97766 7.5301 7.12287C7.29609 7.79052 7.6633 8.52125 7.91767 8.45015Z" fill="white"></path>
  <path d="M8.94831 7.19264C9.03878 6.94861 9.03911 6.84446 9.04512 6.74098C9.0311 6.66219 8.99671 6.62414 8.95799 6.62748C8.91927 6.63081 8.87587 6.67621 8.84082 6.76368C8.81078 6.83011 8.77372 7.17828 8.78006 7.17828C8.75569 7.28177 8.88789 7.32583 8.94831 7.19264Z" fill="white"></path>
  <path d="M8.00378 7.13555C8.05519 7.09783 8.07255 7.07346 8.08991 7.01004C8.11127 6.90355 7.97774 7.06044 7.96072 6.94194C7.93101 6.83177 8.01613 6.78671 8.09692 6.68022C8.09859 6.63015 8.09959 6.58909 8.06721 6.58808C8.05252 6.58775 8.03015 6.59576 7.99911 6.61446C7.92934 6.66119 7.79047 6.80574 7.78646 6.97165C7.78212 7.06545 7.76443 7.06512 7.82585 7.12454C7.87025 7.18863 7.91432 7.18229 8.00378 7.13555Z" fill="white"></path>
</svg>
