<svg width="20" height="21" viewBox="0 0 20 21" fill="none" xmlns="http://www.w3.org/2000/svg">
<path d="M2.82629 18.5001C2.61553 18.5001 2.40477 18.4199 2.24464 18.2586C1.92317 17.9371 1.92317 17.4159 2.24464 17.0945L16.598 2.74111C16.9194 2.41965 17.4406 2.41965 17.7621 2.74111C18.0835 3.06257 18.0835 3.58375 17.7621 3.90541L3.40894 18.2586C3.2476 18.4189 3.03684 18.5001 2.82629 18.5001Z" fill="#171D35"/>
<path d="M17.1806 18.5001C16.9699 18.5001 16.7593 18.4199 16.599 18.2586L2.24464 3.90541C1.92317 3.58375 1.92317 3.06257 2.24464 2.74111C2.5661 2.41965 3.08727 2.41965 3.40894 2.74111L17.7621 17.0945C18.0835 17.4159 18.0835 17.9371 17.7621 18.2586C17.6007 18.4189 17.3902 18.5001 17.1806 18.5001Z" fill="#171D35"/>
</svg>
