<svg width="24" height="24" viewBox="0 0 24 24" fill="none" xmlns="http://www.w3.org/2000/svg">
<path d="M5.72381 19.0001C5.5394 19.0001 5.35498 18.93 5.21487 18.7888C4.93359 18.5075 4.93359 18.0515 5.21487 17.7702L17.7741 5.21096C18.0554 4.92968 18.5114 4.92968 18.7927 5.21096C19.074 5.49224 19.074 5.94827 18.7927 6.22973L6.23364 18.7888C6.09247 18.9291 5.90805 19.0001 5.72381 19.0001Z" fill="#8D96AB"/>
<path d="M18.2839 19.0001C18.0995 19.0001 17.9153 18.93 17.775 18.7888L5.21487 6.22973C4.93359 5.94827 4.93359 5.49224 5.21487 5.21096C5.49615 4.92968 5.95218 4.92968 6.23364 5.21096L18.7927 17.7702C19.074 18.0515 19.074 18.5075 18.7927 18.7888C18.6515 18.9291 18.4673 19.0001 18.2839 19.0001Z" fill="#8D96AB"/>
</svg>
