<svg width="18" height="12" viewBox="0 0 18 12" fill="none" xmlns="http://www.w3.org/2000/svg">
<path d="M9 0C5.15184 0 1.80022 2.41695 0 6.00007C1.80022 9.58386 5.15184 12.0001 9 12.0001C12.8482 12.0001 16.1998 9.58386 18 6.00007C16.1998 2.41695 12.8482 0 9 0ZM9 9.75015C6.92864 9.75015 5.24993 8.07144 5.24993 6.00007C5.24993 3.92871 6.92864 2.25 9 2.25C11.0714 2.25 12.7501 3.92871 12.7501 6.00007C12.7501 8.07144 11.0714 9.75015 9 9.75015Z" fill="white"/>
<path d="M9 8.25038C10.2426 8.25038 11.25 7.24302 11.25 6.00038C11.25 4.75774 10.2426 3.75038 9 3.75038C7.75736 3.75038 6.75 4.75774 6.75 6.00038C6.75 7.24302 7.75736 8.25038 9 8.25038Z" fill="white"/>
</svg>
