<svg width="20" height="21" viewBox="0 0 20 21" fill="none" xmlns="http://www.w3.org/2000/svg">
    <defs>
        <clipPath id="clip0_14910_703">
            <rect width="20" height="20" fill="white" transform="translate(0 0.5)"/>
        </clipPath>
    </defs>

    <g id="Jordan" clip-path="url(#clip0_14910_703)">
        <path id="Vector" d="M10 20.5C15.5228 20.5 20 16.0228 20 10.5C20 4.97715 15.5228 0.5 10 0.5C4.47715 0.5 0 4.97715 0 10.5C0 16.0228 4.47715 20.5 10 20.5Z" fill="white"/>
        <path id="Vector_2" d="M6.08696 7.02176H19.378C17.9651 3.21375 14.2996 0.5 10 0.5C7.23852 0.5 4.73879 1.61949 2.92926 3.42926L6.08696 7.02176Z" fill="black"/>
        <path id="Vector_3" d="M6.08696 13.9782H19.378C17.9651 17.7862 14.2996 20.5 10 20.5C7.23852 20.5 4.73879 19.3805 2.92926 17.5707L6.08696 13.9782Z" fill="#007A3D"/>
        <path id="Vector_4" d="M2.92893 3.42891C-0.976309 7.33414 -0.976309 13.6658 2.92893 17.5711C4.54271 15.9573 6.09478 14.4052 10 10.5L2.92893 3.42891Z" fill="#CE1126"/>
        <path id="Vector_5" d="M3.96894 8.3261L4.51773 9.47371L5.75714 9.18727L5.20207 10.3318L6.19875 11.1222L4.95785 11.4019L4.96128 12.6739L3.96894 11.8781L2.97656 12.6739L2.98003 11.4019L1.73914 11.1222L2.73578 10.3318L2.18078 9.18727L3.42011 9.47371L3.96894 8.3261Z" fill="#F0F0F0"/>
        <path id="Vector_6" d="M0.25 10.5C0.25 5.12398 4.62398 0.75 10 0.75C15.376 0.75 19.75 5.12398 19.75 10.5C19.75 15.876 15.3757 20.25 10 20.25C4.62431 20.25 0.25 15.876 0.25 10.5Z" stroke="#ECEDF1" stroke-width="0.5"/>
    </g>
</svg>
