<svg width="48" height="48" viewBox="0 0 48 48" fill="none" xmlns="http://www.w3.org/2000/svg">
    <path d="M31.1225 1H16.8801C8.12412 1 1.00049 8.12276 1.00049 16.878V31.122C1.00049 39.8772 8.12412 47 16.8801 47H31.1225C39.8776 47 47.0005 39.8772 47.0005 31.122V16.878C47.0005 8.12286 39.8776 1 31.1225 1Z" fill="white"/>
    <path d="M46.9873 16.2179H1.01416C1.36165 7.76782 8.34629 1 16.8806 1H31.1228C39.6571 1 46.6399 7.76782 46.9873 16.2179Z" fill="black"/>
    <path d="M46.9874 31.7821C46.6399 40.2322 39.6572 47 31.1229 47H16.8806C8.34629 47 1.36165 40.2322 1.01416 31.7821H46.9874Z" fill="#007A3D"/>
    <path d="M22.8386 23.9985C22.8396 24.4021 22.6721 24.7873 22.3769 25.0622L4.81852 41.4388C2.43836 38.6618 1 35.0562 1 31.1225V16.8783C1 12.9688 2.42093 9.38359 4.77302 6.61432L22.374 22.9357C22.6692 23.2096 22.8376 23.5949 22.8386 23.9985Z" fill="#CE1126"/>
    <path d="M10.4776 27.041C10.2487 26.8294 9.87431 26.8294 9.6454 27.041L8.36317 28.226C8.13425 28.4375 7.96564 28.3563 7.98829 28.0455L8.11538 26.3042C8.13793 25.9935 7.90427 25.7006 7.59637 25.6535L5.87063 25.3897C5.56254 25.3427 5.52092 25.1601 5.7779 24.9841L7.21858 23.9977C7.47567 23.8217 7.55901 23.4566 7.40365 23.1863L6.53386 21.6727C6.37861 21.4024 6.49544 21.256 6.79327 21.3472L8.46258 21.8585C8.76041 21.9497 9.09803 21.7872 9.21234 21.4974L9.8536 19.8736C9.96801 19.5837 10.1551 19.5837 10.2695 19.8736L10.9108 21.4974C11.0254 21.7873 11.3626 21.9498 11.6607 21.8585L13.3299 21.3472C13.6278 21.256 13.7444 21.4024 13.5895 21.6727L12.7195 23.1863C12.5642 23.4566 12.6475 23.8216 12.9046 23.9977L14.3452 24.9841C14.6023 25.1601 14.5608 25.3427 14.2525 25.3897L12.5269 25.6535C12.2188 25.7005 11.9854 25.9934 12.008 26.3042L12.1349 28.0455C12.1577 28.3563 11.9889 28.4375 11.7601 28.226L10.4776 27.041Z" fill="white"/>
    <path d="M31.122 0.5H16.8796C7.84755 0.5 0.5 7.84657 0.5 16.878V31.122C0.5 40.1534 7.84755 47.5 16.8796 47.5H31.122C40.1533 47.5 47.5 40.1534 47.5 31.122V16.878C47.5 7.84672 40.1533 0.5 31.122 0.5Z" stroke="#F6F7F8"/>
</svg>