<svg width="48" height="48" viewBox="0 0 48 48" fill="none" xmlns="http://www.w3.org/2000/svg">
    <path d="M31.1237 1H16.8796C8.12284 1 1 8.12284 1 16.878V31.122C1 39.8772 8.12284 47 16.8796 47H31.1237C39.8788 47 47 39.8772 47 31.122V16.878C47.0016 8.12121 39.8788 1 31.1237 1Z" fill="#005430"/>
    <path d="M32.7188 16.1104C33.127 16.6123 33.5447 17.1461 33.9639 17.7035C34.0524 18.8398 34.0759 19.8818 34.1654 21.0197C34.1529 21.5064 34.0032 22.1533 33.8608 22.2145C33.8608 22.2145 33.6441 22.3391 33.4992 22.2009C33.394 22.1585 32.9726 21.498 32.9726 21.498C32.757 21.3002 32.6136 21.3567 32.4603 21.498C32.0374 21.9063 31.8458 22.6714 31.5585 23.1985C31.4842 23.3162 31.2753 23.4162 31.0435 23.1891C30.5604 22.5291 30.7043 21.642 30.7321 21.5043C30.7305 21.5116 30.7289 21.519 30.7253 21.532C30.2003 22.1235 30.4327 23.1043 30.5515 23.3152C30.7247 23.6617 30.8645 23.8831 31.2015 24.0547C31.5082 24.2803 31.7474 24.1395 31.8788 23.9815C32.1876 23.6617 32.1918 22.8431 32.3367 22.6814C32.4383 22.3841 32.6932 22.4354 32.8172 22.5668C32.9376 22.74 33.0799 22.8525 33.2568 22.9467C33.5447 23.2006 33.8886 23.2466 34.2272 23.0153C34.4585 22.8855 34.6087 22.7165 34.7443 22.3836C34.8898 21.9947 34.8181 19.9562 34.7856 18.8225C35.0034 19.1287 35.2179 19.4417 35.431 19.7588C35.5246 20.7543 35.567 21.7346 35.5362 22.6746C35.5142 22.8614 36.1883 22.1167 36.1841 21.7634C36.181 21.4546 36.1846 21.1746 36.1841 20.9145C36.5112 21.4368 36.8278 21.9675 37.1272 22.505C37.3125 22.4066 37.2492 21.3567 37.1319 21.2117C36.8184 20.6857 36.4175 20.1179 36.1066 19.6782C36.0454 19.1235 35.9617 18.4687 35.9235 18.2683C35.8643 17.9558 35.8046 17.4858 35.7151 17.1147C35.6905 16.9698 35.6162 16.5071 35.6398 16.4626C35.6764 16.359 35.8146 16.4657 35.8826 16.3459C35.9842 16.2349 35.5299 15.0568 35.2991 14.7208C35.2164 14.5701 35.0662 14.6224 34.8804 14.8674C34.7082 15.0286 34.771 15.3965 34.8369 15.7461C35.0075 16.6379 35.1604 17.546 35.2807 18.4514C35.0573 18.1191 34.7846 17.7177 34.5161 17.3298C34.5088 17.2927 34.4815 17.1556 34.4815 17.1535C34.4815 17.1372 34.4444 16.4239 34.413 16.2538C34.4072 16.1847 34.391 16.1648 34.4632 16.1737C34.5396 16.2381 34.5506 16.2417 34.5983 16.2632C34.6757 16.2773 34.7432 16.1465 34.6967 16.0251C34.4569 15.5833 34.2178 15.1395 33.9781 14.6978C33.9493 14.6695 33.9168 14.6397 33.8797 14.6339C33.8425 14.6282 33.8017 14.6465 33.7561 14.714C33.6687 14.7904 33.5745 14.9296 33.5777 15.1076C33.5991 15.4216 33.6546 15.7435 33.6761 16.0575C33.6834 16.0994 33.6918 16.1413 33.6991 16.1836C33.6651 16.1407 33.6358 16.1072 33.619 16.09C33.0067 15.4467 33.9001 15.9848 33.5023 15.4881C33.1658 15.1186 33.0674 15.0008 32.779 14.7784C32.6345 14.6852 32.5471 14.5067 32.4995 14.8103C32.4807 15.0772 32.4608 15.3865 32.4791 15.6116C32.4775 15.7367 32.6073 15.9722 32.7188 16.1104Z" fill="white"/>
    <path d="M17.6386 20.8354C17.6318 20.9516 17.9599 21.0929 17.9798 21.3619C18.0269 21.4729 17.9097 21.8277 18.007 21.8607C18.0965 21.8979 18.2211 21.6152 18.2682 21.3525C18.2944 21.2086 18.1557 20.7056 17.9202 20.6156C17.884 20.6077 17.8458 20.6036 17.8082 20.6067C17.6946 20.614 17.593 20.6753 17.6386 20.8354Z" fill="white"/>
    <path d="M33.702 18.8901C33.6942 18.8886 33.6858 18.8891 33.6769 18.8922C33.6769 18.8922 32.281 19.8851 32.2465 19.9196C32.1078 20.0426 32.1774 20.4755 32.2465 20.4252C32.3465 20.4634 33.7517 19.5114 33.725 19.3999C33.7863 19.4041 33.8156 18.9106 33.702 18.8901Z" fill="white"/>
    <path d="M36.2689 16.6257C36.3181 16.7764 36.1946 17.2626 36.2961 17.3076C36.3898 17.3579 36.5217 16.9716 36.5709 16.6142C36.5981 16.4184 36.4531 15.7317 36.2071 15.6093C36.1883 15.604 36.1679 15.6009 36.1475 15.5999C36.0067 15.5951 35.8533 15.7019 35.914 15.9113C35.8784 16.0259 36.2145 16.4137 36.2689 16.6257Z" fill="white"/>
    <path d="M32.9158 18.901C32.921 18.6173 32.9483 18.2405 32.964 18.006C32.9708 17.9176 32.9912 17.8202 33.076 17.7977C33.1607 17.7757 33.3078 17.883 33.3094 17.7909C33.2937 17.6103 33.2581 17.3445 33.156 17.2188C33.1037 17.1414 33.0184 17.0995 32.9294 17.0953C32.7818 17.088 32.6243 17.1838 32.584 17.3858C32.5845 17.5051 32.6379 17.5706 32.6274 17.6789C32.6117 17.7407 32.5484 17.7815 32.3961 17.7087C32.4196 17.6867 32.2977 17.514 32.2977 17.514C32.1789 17.4418 32.0208 17.5177 31.9177 17.5852C31.8612 17.6883 31.8193 17.8647 31.8832 18.0453C32.0538 18.3593 32.6374 18.8958 32.9158 18.901Z" fill="white"/>
    <path d="M26.9803 20.7518L26.9824 20.7497C26.9824 20.7492 26.9845 20.7477 26.9845 20.7477C26.985 20.7471 26.9866 20.7456 26.9866 20.7456C26.9866 20.745 26.9866 20.7419 26.9866 20.7409C26.9871 20.7356 26.9866 20.7267 26.9845 20.7178L26.8516 20.6398L24.2357 20.6283C24.2033 20.6158 24.1792 20.6032 24.1646 20.5917C24.1635 20.5906 24.1609 20.588 24.1598 20.587C24.1593 20.5865 24.1583 20.5849 24.1577 20.5849C24.1572 20.5849 24.1557 20.5833 24.1557 20.5828C24.1551 20.5817 24.1536 20.5791 24.1536 20.5781L24.1515 20.576V20.5739L24.1494 20.5718V20.5697V20.5676V20.5655C24.1494 20.565 24.1494 20.5634 24.1494 20.5634C24.1494 20.5634 24.1494 20.5619 24.1494 20.5613V20.5592V20.5571V20.555C24.1499 20.5545 24.1515 20.553 24.1515 20.553C24.152 20.5519 24.153 20.5498 24.1536 20.5482C24.1661 20.531 24.197 20.5148 24.2357 20.5001C24.8601 20.4148 25.9702 20.2332 26.044 19.166C26.0325 18.6102 25.8064 18.2459 25.1239 18.1454C24.6225 18.1841 24.265 18.6688 24.3226 19.2026C24.2985 19.3466 24.3713 19.6287 24.2242 19.6606C23.2628 19.7485 22.2134 20.3509 22.1783 20.7822H22.1762C22.1757 20.7827 22.1741 20.7843 22.1741 20.7843C22.1736 20.7848 22.171 20.7859 22.1694 20.7864C22.1689 20.7864 22.1658 20.7864 22.1647 20.7864C22.1632 20.7869 22.1595 20.7885 22.1579 20.7885C22.1574 20.7885 22.1564 20.7885 22.1558 20.7885C22.1543 20.7885 22.1522 20.7885 22.1511 20.7885C22.1506 20.7885 22.1495 20.7885 22.149 20.7885C22.148 20.7885 22.1454 20.7885 22.1443 20.7885C22.1417 20.788 22.1375 20.7869 22.1354 20.7864C22.0726 20.7691 21.9925 20.666 22.0051 20.521C21.9685 19.7757 21.7261 18.9321 21.3462 18.2825C21.2106 18.147 21.1515 18.092 21.1127 18.0858C21.1117 18.0858 21.1096 18.0858 21.108 18.0858C21.1065 18.0858 21.1033 18.0858 21.1012 18.0858C21.1007 18.0858 21.0991 18.0858 21.0991 18.0858H21.097C21.0965 18.0858 21.0949 18.0858 21.0949 18.0858C21.0908 18.0873 21.0871 18.0905 21.0834 18.0926C21.0819 18.0936 21.0782 18.0957 21.0766 18.0973C21.0473 18.1193 21.0122 18.1705 20.9348 18.2255C20.8039 18.3747 20.7804 18.4783 20.7882 18.7771C20.7956 18.8085 21.0368 19.4795 21.2415 19.9511C21.3791 20.4415 21.5068 21.0025 21.4132 21.5327C21.0902 22.2335 20.4418 22.8621 19.8158 23.2033C19.4971 23.3054 19.2212 23.2709 19.1475 23.2013C19.1469 23.2007 19.1459 23.1997 19.1454 23.1992C18.9622 23.0762 18.958 22.8569 18.969 22.8192V22.8171C18.9695 22.8166 18.9711 22.815 18.9711 22.815C19.4992 22.4471 20.1031 22.1493 20.5752 21.1559C20.715 20.7764 20.7574 20.5482 20.6187 19.961C20.5648 19.7422 20.4978 19.5622 20.3486 19.4073C20.3491 19.4068 20.3507 19.4052 20.3507 19.4052C20.4407 19.3623 20.6741 19.5339 20.7103 19.4256C20.6548 19.1451 20.4653 18.7688 20.2502 18.5767C20.0618 18.4055 19.8572 18.3857 19.685 18.5421C19.4908 18.65 19.4494 19.0378 19.5431 19.3774C19.6468 19.6329 19.9273 19.6779 20.1267 20.1924V20.1944C20.1309 20.2269 20.1953 20.5786 20.0948 20.721C20.0131 20.9753 18.9653 21.8017 18.891 21.8515C18.89 21.8525 18.8847 21.8551 18.8842 21.8562C18.8837 21.8567 18.8821 21.8583 18.8821 21.8583C18.8821 21.8583 18.8805 21.8598 18.88 21.8604L18.8779 21.8624H18.8758C18.8758 21.8624 18.8742 21.8624 18.8737 21.8624C18.8732 21.8619 18.8716 21.8604 18.8716 21.8604V21.8583C18.8711 21.8572 18.8695 21.8546 18.8695 21.8536C18.8664 21.8331 18.8722 21.7803 18.8695 21.6955C18.8627 21.5406 18.9266 21.1904 18.9224 21.1302V21.1281C18.9219 21.1276 18.9203 21.1261 18.9203 21.1261V21.124C18.9198 21.124 18.9182 21.124 18.9182 21.124C18.5717 21.3474 18.4571 22.0331 18.3943 22.2361C17.5171 22.8422 16.5211 23.2928 15.9475 23.9068C15.6487 24.3731 18.006 23.3708 18.2797 23.2499C18.2818 23.2515 18.2844 23.2546 18.2865 23.2567C18.3383 23.3138 18.343 23.5137 18.4995 23.6937C18.7445 24.0256 19.2652 24.2302 19.7718 24.1036C20.6218 23.7963 21.1112 23.2175 21.6099 22.5748C21.6811 22.4711 21.7926 22.3895 21.8962 22.4696C22.2385 23.2363 23.2261 23.7822 24.5032 23.8382C24.7989 23.4792 24.6576 23.3023 24.5377 23.2269C24.5006 23.2023 23.9029 22.9694 23.8097 22.737C23.7511 22.5209 23.8934 22.3293 24.1782 22.1854C24.9978 22.0865 25.8038 21.976 26.5836 21.7253C26.5915 21.4631 26.7459 21.0716 26.849 20.9015C26.917 20.7801 26.9631 20.7686 26.9803 20.7518ZM24.823 19.109C24.8245 19.1006 24.8282 19.0933 24.8324 19.0859C24.834 19.0833 24.835 19.0791 24.8371 19.0765C24.8376 19.076 24.8392 19.0749 24.8392 19.0744C24.8423 19.0708 24.847 19.066 24.8507 19.0629C24.8674 19.0498 24.891 19.0404 24.9172 19.0378C24.9742 19.0315 25.0491 19.0509 25.1208 19.0927C25.2249 19.1529 25.2893 19.244 25.2809 19.3099C25.2804 19.3115 25.2814 19.3152 25.2809 19.3167C25.2804 19.3183 25.2767 19.322 25.2762 19.3235C25.2757 19.3251 25.2746 19.3288 25.2741 19.3303C25.2736 19.3314 25.2725 19.334 25.272 19.3351C25.2715 19.3361 25.2705 19.3387 25.2699 19.3398C25.2663 19.3455 25.261 19.3513 25.2563 19.356C25.2061 19.4026 25.0904 19.3963 24.9815 19.333C24.8784 19.2733 24.8146 19.1817 24.8214 19.1158C24.8209 19.1142 24.8224 19.1105 24.823 19.109ZM23.7773 21.729C23.4967 21.8253 23.2267 21.9001 23.2256 22.3057C23.2622 22.5067 23.2549 22.6119 23.2235 22.6606C23.2209 22.6643 23.2172 22.669 23.2141 22.6721C23.2136 22.6726 23.212 22.6742 23.212 22.6742C23.2115 22.6747 23.2099 22.6763 23.2099 22.6763C23.2094 22.6768 23.2083 22.6784 23.2078 22.6784L23.2057 22.6805C23.2047 22.681 23.2021 22.6826 23.201 22.6826C23.1968 22.6852 23.1916 22.6878 23.1874 22.6894C23.1837 22.691 23.178 22.691 23.1738 22.6915C23.1068 22.7014 23.01 22.6376 22.9383 22.5999C22.765 22.4758 22.2793 22.1749 22.2103 21.5285C22.2003 21.3825 22.3097 21.2569 22.485 21.2449C22.4934 21.2443 22.5013 21.2449 22.5102 21.2449H22.5149C22.8064 21.3239 23.2361 21.3323 23.6087 21.371C23.9118 21.3914 24.0614 21.629 23.7773 21.729Z" fill="white"/>
    <path d="M22.9103 19.1968C23.2117 19.3402 23.9293 19.2559 23.755 18.7917C23.755 18.7488 23.7435 18.6043 23.7388 18.5651C23.7079 18.4934 23.6514 18.4661 23.5969 18.4756C23.5425 18.485 23.4902 18.53 23.4713 18.6038C23.4593 18.6525 23.4943 18.7325 23.4509 18.7571C23.4258 18.7828 23.3279 18.7676 23.3321 18.6336C23.3321 18.5907 23.3007 18.5441 23.2819 18.5169C23.263 18.5043 23.252 18.5007 23.2175 18.5007C23.1756 18.5022 23.174 18.5132 23.151 18.5488C23.1411 18.5849 23.128 18.62 23.128 18.6608C23.1227 18.7085 23.106 18.7247 23.0709 18.732C23.0317 18.732 23.0411 18.7362 23.0092 18.7158C22.9903 18.6954 22.9657 18.687 22.9657 18.6519C22.9657 18.6153 22.9584 18.5572 22.9474 18.5331C22.9307 18.5111 22.9019 18.5017 22.872 18.4944C22.7077 18.4949 22.6978 18.6818 22.7072 18.7529C22.6941 18.766 22.6857 19.1036 22.9103 19.1968Z" fill="white"/>
    <path d="M33.7779 31.7195C33.5979 31.7467 33.0933 31.7975 33.0933 31.7975C32.5098 31.7279 32.0811 31.7211 31.4248 31.697C31.4855 31.6201 31.5923 31.3087 31.4615 31.1956C31.4274 31.1674 31.3761 31.1517 31.306 31.1569C31.3055 31.1569 31.3044 31.1569 31.3039 31.1569C31.3029 31.1569 31.3003 31.1569 31.2992 31.1569C31.2987 31.1569 31.2971 31.1548 31.2971 31.1548C31.295 31.1543 31.2919 31.1538 31.2903 31.1527C31.2866 31.1501 31.2819 31.1454 31.2788 31.1412C31.2783 31.1401 31.2751 31.1375 31.2741 31.1365C31.2411 31.0883 31.2228 30.9695 31.2008 30.9397C31.2008 30.9392 31.1987 30.9376 31.1987 30.9376L31.1966 30.9355C31.1956 30.935 31.193 30.9334 31.1919 30.9334C31.1914 30.9334 31.1898 30.9334 31.1898 30.9334C31.1893 30.9334 31.1877 30.9334 31.1877 30.9334C31.1872 30.9339 31.1862 30.935 31.1856 30.9355C30.7512 31.047 30.7648 31.4976 31.0438 31.6954C26.4595 31.6954 19.4243 31.6175 17.9154 31.6175C17.0712 31.6175 14.4009 31.517 14.3496 31.517C14.9222 32.3544 15.7517 32.525 16.8377 32.5423C18.8742 32.5423 28.3086 32.5172 30.9936 32.5172C30.8025 32.8563 31.0108 33.4017 31.1605 33.5011C31.1637 33.5032 31.1689 33.5063 31.172 33.5079C31.1778 33.5105 31.1851 33.5131 31.1903 33.5147C31.1919 33.5152 31.1956 33.5147 31.1971 33.5147C31.3751 33.5566 31.4531 33.4278 31.5127 33.3341C31.8011 33.3598 33.4241 33.3828 33.5728 33.3321C33.5733 33.3321 33.5743 33.33 33.5749 33.33C33.6753 33.4776 33.7748 33.6173 33.9663 33.5932C34.3008 33.5215 34.5646 33.4849 34.5729 32.8061C34.5724 32.8045 34.5379 31.6468 33.7779 31.7195ZM33.4508 32.9599C33.4477 32.9615 33.4424 32.9636 33.4393 32.9646C33.4367 32.9652 33.4325 32.9646 33.4304 32.9646C33.4278 32.9646 33.4236 32.9652 33.4215 32.9646C33.2038 32.9594 33.0782 32.9542 32.8604 32.9484C32.8599 32.9374 32.8589 32.9259 32.8557 32.9165C32.8039 32.7637 32.4307 32.7741 32.3428 32.8935C32.3418 32.895 32.3392 32.8987 32.3381 32.9003C32.3365 32.9029 32.335 32.9071 32.3334 32.9097C32.3318 32.9128 32.3297 32.9181 32.3287 32.9212C32.3271 32.9259 32.3271 32.9322 32.3266 32.9374C32.3261 32.9427 32.324 32.95 32.3245 32.9557C32.0309 32.9908 31.7666 32.9458 31.473 32.9353C31.3866 32.828 31.3971 32.6339 31.4981 32.5873C31.4986 32.5868 31.4997 32.5878 31.5002 32.5873C32.1691 32.6197 32.7976 32.5936 33.466 32.626C33.5728 32.716 33.5199 32.9222 33.4508 32.9599Z" fill="white"/>
    <path d="M25.599 23.6673C25.599 23.6788 25.7167 23.7798 25.8554 23.6992C26.1475 23.5878 26.3296 23.4794 26.7389 23.3904C26.8462 23.3883 26.8399 23.101 26.6703 23.0905C26.4489 23.1015 26.2443 23.1131 26.0224 23.2873C25.8863 23.3187 25.8628 23.236 25.8324 23.1612C25.7979 22.9764 25.9104 22.8467 25.8874 22.708C25.8936 22.7142 25.8188 22.6467 25.7225 22.6415C25.6906 22.6399 25.6566 22.6446 25.622 22.6619C25.6152 22.6619 25.3137 22.8655 25.2169 23.0073C25.1578 23.0523 25.1646 23.0916 25.1829 23.1696C25.229 23.2758 25.3101 23.2423 25.4027 23.1926C25.5252 23.1759 25.5843 23.2559 25.5744 23.403C25.5173 23.5878 25.599 23.6558 25.599 23.6673Z" fill="white"/>
    <path d="M35.7066 23.5931C35.6495 23.5277 35.5208 23.567 35.4344 23.5565C35.3931 23.5565 35.258 23.5366 35.3224 23.4168C35.3763 23.3424 35.3957 23.2979 35.4323 23.2064C35.4731 23.1169 35.4375 23.0561 35.2905 23.0075C35.2156 22.9939 35.1638 22.9897 35.1099 22.9912C35.0555 22.9928 34.9984 23.0007 34.9152 23.0075C34.8257 23.0263 34.7943 23.0656 34.7781 23.1744C34.7844 23.3393 34.8854 23.3309 34.9885 23.3963C35.0482 23.4722 35.0874 23.5413 34.9838 23.6664C34.8859 23.7559 34.8163 23.8056 34.7184 23.8951C34.6724 23.9742 34.6436 24.0951 34.7849 24.1333C35.0461 24.2065 35.65 23.814 35.65 23.8061C35.7469 23.7329 35.7144 23.5931 35.7066 23.5931Z" fill="white"/>
    <path d="M31.0388 22.8148C31.2487 22.8164 31.4915 22.3349 31.5951 21.8581C31.6522 21.2017 31.5575 20.8019 31.5402 20.4162C31.5234 20.0304 31.1032 16.8996 31.0184 16.6075C30.9158 16.0554 31.4266 16.5348 31.3706 16.214C31.1942 15.8094 30.7535 15.2201 30.6154 14.8683C30.5636 14.7741 30.5573 14.6873 30.5149 14.6946C30.4892 14.6988 30.4521 14.7375 30.3819 14.8296C30.2098 15.3928 30.149 15.8528 30.215 16.203C30.6578 18.5121 31.111 20.6161 31.0388 22.8148Z" fill="white"/>
    <path d="M37.5815 16.6981C37.5616 16.5526 37.4972 16.2176 37.5218 16.1742C37.5616 16.0716 37.7636 16.1847 37.8353 16.0664C37.9405 15.9586 37.3135 15.1557 37.0937 14.8124C37.0497 14.726 37.0231 14.6553 36.9838 14.659C36.9534 14.6622 36.9168 14.7108 36.8603 14.8307C36.7242 15.0531 36.6776 15.4514 36.7321 15.8036C37.0592 18.016 37.302 20.1576 37.3523 22.1182C37.324 22.3045 37.3161 22.4034 37.2287 22.6379C37.0356 22.8855 36.8226 23.1953 36.6221 23.345C36.4217 23.4947 35.9951 23.637 35.8554 23.748C35.4126 24.0039 35.4105 24.2981 35.7685 24.3085C36.3851 24.2368 37.1152 24.1866 37.6176 23.4272C37.7521 23.2147 37.9107 22.6379 37.9175 22.2851C37.9646 20.2162 37.8913 18.1934 37.5815 16.6981Z" fill="white"/>
    <path d="M33.5031 21.5812C33.5968 21.6314 33.8439 21.3279 33.835 20.9474C33.8622 20.7516 33.7653 20.0304 33.5194 19.9085C33.4911 19.9006 33.4597 19.898 33.4299 19.9017C33.3011 19.9174 33.1792 20.0393 33.2352 20.2335C33.1996 20.3476 33.4095 20.7469 33.4639 20.9589C33.5131 21.1096 33.4011 21.5362 33.5031 21.5812Z" fill="white"/>
    <path d="M14.08 15.456C14.3815 15.5994 14.9462 15.5387 14.9222 15.053C14.9222 15.0101 14.9127 14.8656 14.9085 14.8264C14.8777 14.7552 14.8211 14.728 14.7672 14.7374C14.7128 14.7468 14.6605 14.7918 14.6416 14.8656C14.6296 14.9143 14.6626 14.9944 14.6186 15.019C14.5935 15.0441 14.4977 15.0273 14.5019 14.8928C14.5019 14.8499 14.4705 14.8054 14.4516 14.7782C14.4328 14.7657 14.4197 14.762 14.3852 14.762C14.3433 14.7636 14.3438 14.7746 14.3208 14.8101C14.3103 14.8463 14.2972 14.8813 14.2972 14.9221C14.292 14.9698 14.2726 14.986 14.2376 14.9933C14.1983 14.9933 14.2077 14.9975 14.1758 14.9771C14.157 14.9567 14.1345 14.9483 14.1345 14.9133C14.1345 14.8766 14.125 14.8185 14.1141 14.7944C14.0973 14.7725 14.0711 14.761 14.0408 14.7531C13.8764 14.7536 13.8644 14.9426 13.8738 15.0143C13.8618 15.0273 13.856 15.3628 14.08 15.456Z" fill="white"/>
    <path d="M18.6307 17.0281C18.5935 17.0245 18.5448 17.0381 18.4888 17.0716C18.2224 17.2155 18.1193 17.6431 18.2852 17.8933C18.4402 18.1136 18.6851 18.033 18.7176 18.033C18.9787 18.0655 19.1342 17.5431 19.1342 17.5431C19.1342 17.5431 19.142 17.3961 18.8322 17.6735C18.7018 17.6981 18.6841 17.651 18.6516 17.5772C18.6244 17.4411 18.6301 17.3034 18.693 17.1674C18.7212 17.0862 18.6924 17.0344 18.6307 17.0281Z" fill="white"/>
    <path d="M29.4652 22.3426C28.9805 22.8482 28.2823 23.4721 27.5219 23.7594C27.4402 23.851 27.7255 24.2425 28.0939 24.2425C28.7105 24.1708 29.2527 23.8248 29.7556 22.9126C29.8901 22.7001 30.1262 22.2448 30.133 21.892C30.1801 19.8231 30.0288 18.2148 29.7185 16.7195C29.6986 16.574 29.7122 16.4018 29.7368 16.3578C29.7766 16.3102 29.9121 16.3589 29.9838 16.2411C30.089 16.1333 29.7023 15.2409 29.4824 14.8976C29.4385 14.8112 29.4118 14.7427 29.3725 14.7463C29.3422 14.7495 29.3055 14.796 29.249 14.9159C29.1129 15.1383 29.0208 15.5256 29.0313 15.8889C29.3254 17.9258 29.416 19.7085 29.608 21.746C29.6248 21.9422 29.596 22.2285 29.4652 22.3426Z" fill="white"/>
    <path d="M12.6912 19.2882C11.9679 19.3013 10.9086 20.2366 10.8809 20.7552C11.6439 20.3889 12.3939 20.0361 13.1696 19.6567C13.0445 19.4698 13.1623 19.3018 12.6912 19.2882Z" fill="white"/>
    <path d="M11.289 23.1267C11.099 23.5129 11.0194 23.2486 11.0027 23.033C10.9734 22.6237 11.0132 22.2469 11.0576 21.948C11.0812 21.7952 11.0807 21.7413 11.0624 21.7418C11.044 21.7423 11.0079 21.7968 10.9592 21.8585C10.529 22.5442 10.4908 23.5674 10.7279 23.8725C10.854 24.0169 11.0618 24.0803 11.2152 24.0347C11.4858 23.9175 11.6046 23.3701 11.5402 23.1696C11.4507 23.0288 11.379 23.0068 11.289 23.1267Z" fill="white"/>
    <path d="M11.3696 18.6632C12.2489 18.7475 11.7632 17.1768 12.0814 16.8916C12.1416 16.7508 12.2531 16.7482 12.262 16.9261V18.2602C12.2541 18.6941 12.5394 18.8228 12.7607 18.9123C12.991 18.8945 13.1439 18.9008 13.2344 19.1253C13.2705 19.8947 13.3082 20.6657 13.3443 21.4345C13.3443 21.4345 13.8771 21.5878 13.9028 20.1365C13.9284 19.2845 13.7332 18.5695 13.8478 18.4041C13.852 18.2414 14.0603 18.233 14.2047 18.3125C14.4345 18.4748 14.5366 18.6742 14.8935 18.5941C15.4368 18.4444 15.7644 18.1807 15.7723 17.7635C15.7403 17.3668 15.6948 16.9701 15.5226 16.5734C15.5467 16.5011 15.4185 16.3138 15.4425 16.2415C15.5404 16.3944 15.688 16.3818 15.722 16.2415C15.6294 15.9369 15.4854 15.6449 15.2531 15.5182C15.061 15.3487 14.7794 15.3848 14.6763 15.738C14.6287 16.1452 14.8239 16.6278 15.1201 17.0219C15.1829 17.1758 15.2714 17.4322 15.2321 17.6625C15.0746 17.7525 14.9181 17.7148 14.7857 17.5756C14.7857 17.5756 14.3529 17.2517 14.3529 17.1794C14.4675 16.4446 14.3775 16.3603 14.3141 16.1562C14.2696 15.8746 14.1362 15.7857 14.0278 15.5931C13.9195 15.4785 13.773 15.4785 13.7028 15.5931C13.5118 15.9244 13.6013 16.6362 13.7395 16.9549C13.8394 17.248 13.9922 17.4312 13.92 17.4312C13.8609 17.5971 13.7368 17.5584 13.6479 17.3673C13.5202 16.9722 13.4945 16.3834 13.4945 16.1175C13.4563 15.7883 13.4134 15.0854 13.1972 14.9069C13.1397 14.8284 13.0711 14.8007 13.0052 14.8085C12.9198 14.8185 12.8398 14.8876 12.8016 14.9802C12.7874 15.3068 12.7853 15.6334 12.822 15.9343C12.9706 16.4624 13.0177 16.9272 13.0899 17.4678C13.1098 18.1922 12.6718 17.7813 12.6917 17.4223C12.7927 16.9559 12.7655 16.2216 12.6754 16.0353C12.6043 15.849 12.5216 15.8035 12.3483 15.8338C12.2107 15.8255 11.8548 16.2128 11.7553 16.8544C11.7553 16.8544 11.6726 17.1836 11.6365 17.4767C11.5879 17.808 11.3686 18.043 11.2152 17.4312C11.0828 16.9863 11.0017 15.8909 10.7803 16.1473C10.718 17.0036 10.6426 18.5088 11.3696 18.6632Z" fill="white"/>
    <path d="M11.6644 15.4368C11.7105 15.552 11.6189 15.922 11.7147 15.9565C11.8031 15.9947 11.9246 15.7001 11.9711 15.4279C11.9968 15.2788 11.9774 14.7679 11.6299 14.6633C11.6121 14.6591 11.5938 14.657 11.5749 14.6565C11.442 14.6528 11.296 14.735 11.353 14.8946C11.3201 14.981 11.6131 15.2751 11.6644 15.4368Z" fill="white"/>
    <path d="M16.685 22.0957C16.9985 21.0521 16.6787 20.2655 16.7834 20.1686C16.7845 20.1681 16.7871 20.1671 16.7881 20.1665C16.7892 20.166 16.7918 20.165 16.7928 20.1644C16.7939 20.1639 16.7965 20.1624 16.7975 20.1624C16.8012 20.1613 16.807 20.1603 16.8112 20.1603C17.1979 20.5769 17.7407 20.2131 17.8595 20.0687C17.9102 19.9964 18.038 19.9499 18.1274 20.0435C18.4289 20.2602 18.958 20.1582 19.068 19.7756C19.1318 19.4019 19.1857 19.0167 19.1983 18.6173C19.002 18.6786 18.8434 18.7241 18.7796 18.7911C18.7644 18.8079 18.7529 18.8262 18.7497 18.8461C18.7325 18.9565 18.7162 19.0674 18.6995 19.1779C18.6974 19.1868 18.6948 19.1957 18.6906 19.203C18.6822 19.2166 18.6686 19.2292 18.654 19.2375C18.5844 19.2752 18.4635 19.2538 18.4572 19.1528C18.3635 18.7278 17.9793 18.6728 17.7454 19.3312C17.5884 19.4584 17.3016 19.4835 17.2717 19.2925C17.3099 18.8508 17.132 18.7911 16.775 18.9994C16.6604 18.1243 16.5463 17.2885 16.4317 16.4134C16.5803 16.4092 16.7169 16.517 16.853 16.3469C16.706 15.8895 16.3945 14.9579 16.2192 14.8705C16.2176 14.87 16.2161 14.8689 16.2145 14.8684C16.2067 14.859 16.1972 14.8501 16.1894 14.8433C16.1862 14.8406 16.181 14.8365 16.1779 14.8344C16.1747 14.8323 16.1695 14.8291 16.1664 14.8276C16.1595 14.8239 16.1507 14.8208 16.1433 14.8181C16.1271 14.8134 16.1119 14.8113 16.0952 14.8134C16.0517 14.8192 16.0031 14.8438 15.9465 14.8569C15.7597 14.9165 15.5849 15.0777 15.6398 15.3923C15.8607 16.7348 16.0046 17.7595 16.2255 19.1025C16.2595 19.2595 16.1276 19.4668 15.958 19.4459C15.6691 19.2501 15.5974 18.8544 15.1044 18.8712C14.7475 18.8754 14.3403 19.2637 14.2895 19.6379C14.2299 19.9352 14.2089 20.2576 14.2895 20.5167C14.5402 20.8181 14.8406 20.7862 15.1044 20.7182C15.3211 20.6292 15.4996 20.4157 15.576 20.4664C15.576 20.4664 15.5781 20.4659 15.5781 20.4664C15.5781 20.467 15.5781 20.4685 15.5781 20.4685C15.6252 20.5512 15.5734 21.2494 14.5575 21.789C13.9331 22.0695 13.4359 22.1365 13.1684 21.6268C13.0025 21.308 13.1805 20.0943 12.7722 20.3748C11.5659 23.4853 15.599 23.9192 16.0496 20.5031C16.0789 20.4068 16.1679 20.3099 16.2302 20.3335C16.2579 20.345 16.2831 20.3827 16.292 20.4523C16.1983 23.5455 13.1716 23.7574 12.6576 22.7845C12.5299 22.5552 12.4917 22.0444 12.4792 21.7388C12.4561 21.5535 12.4095 21.4467 12.3556 21.4049C12.2332 21.3127 12.0683 21.553 12.0327 21.9701C11.9814 22.3056 11.9961 22.3977 11.9961 22.7206C12.1568 25.1638 16.0517 24.1139 16.685 22.0957ZM15.1803 19.9818V19.9839C15.1798 19.9849 15.1787 19.9875 15.1782 19.9886C15.1479 20.0278 15.0411 20.0116 14.9652 20.0116C14.8736 20.0074 14.8281 19.9923 14.7731 19.9179C14.747 19.8347 14.827 19.7531 14.8626 19.6913C14.8631 19.6908 14.8647 19.6897 14.8647 19.6892C14.8684 19.6835 14.8747 19.6767 14.8809 19.6709C14.9082 19.6458 14.9558 19.6222 15.0065 19.6159C15.0165 19.6149 15.0259 19.6133 15.0364 19.6139C15.107 19.6149 15.1819 19.6494 15.2217 19.7489C15.2572 19.8389 15.2232 19.9342 15.1803 19.9818Z" fill="white"/>
    <path d="M28.0599 17.6495C28.3614 17.7929 28.9282 17.7301 28.9046 17.2444C28.9046 17.2015 28.8931 17.057 28.8884 17.0178C28.8575 16.9461 28.801 16.9189 28.7466 16.9283C28.6921 16.9377 28.6398 16.9848 28.621 17.0586C28.6089 17.1073 28.644 17.1853 28.6006 17.2099C28.5754 17.2355 28.4776 17.2203 28.4817 17.0863C28.4817 17.0434 28.4503 16.9968 28.4315 16.9696C28.4127 16.9571 28.3996 16.9534 28.365 16.9534C28.3232 16.955 28.3242 16.966 28.3012 17.0016C28.2912 17.0377 28.2782 17.0727 28.2782 17.1136C28.2729 17.1612 28.2562 17.1774 28.2211 17.1847C28.1819 17.1847 28.1887 17.1889 28.1573 17.1685C28.1384 17.1481 28.1159 17.1397 28.1159 17.1047C28.1159 17.068 28.1065 17.0099 28.0955 16.9859C28.0787 16.9639 28.0526 16.9545 28.0222 16.9471C27.8579 16.9476 27.8479 17.1345 27.8574 17.2057C27.8438 17.2188 27.8354 17.5563 28.0599 17.6495Z" fill="white"/>
    <path d="M28.2627 15.7649C28.37 16.0659 28.1805 16.3527 28.2925 16.3946C28.3956 16.4411 28.5385 16.0837 28.5924 15.7539C28.6547 15.487 28.4642 14.9401 28.1941 14.827C28.1737 14.8223 28.1522 14.8208 28.1302 14.8202C27.9759 14.8155 27.8052 14.9129 27.8717 15.1065C27.8324 15.2112 28.2025 15.5692 28.2627 15.7649Z" fill="white"/>
    <path d="M17.0345 17.2115H17.0366C17.0371 17.2115 17.0382 17.2136 17.0387 17.2136C17.0392 17.2136 17.0403 17.2136 17.0408 17.2136L17.0429 17.2157C17.1 17.2539 17.8049 17.2534 17.8829 17.2178C17.8834 17.2172 17.885 17.2157 17.885 17.2157H17.8871V17.2136C18.1294 17.1241 19.2788 15.8104 19.2788 15.8104C19.2191 15.7596 19.1642 15.722 19.1045 15.6707C19.0406 15.6152 19.0474 15.5613 19.1045 15.5058C19.3892 15.3399 19.2992 14.9756 19.1505 14.8102C19.0276 14.7548 18.9114 14.7364 18.8072 14.7417C18.7031 14.7469 18.6109 14.7767 18.5324 14.817C18.333 15.0081 18.2859 15.3148 18.4435 15.5058C18.5963 15.578 18.7491 15.7319 18.6471 15.8172C18.2142 16.2794 17.0879 17.0519 17.0314 17.1926C17.0309 17.1937 17.0293 17.1963 17.0293 17.1974V17.2021V17.2042C17.0298 17.2052 17.0309 17.2078 17.0314 17.2089C17.0324 17.2094 17.0345 17.211 17.0345 17.2115ZM18.7392 15.152C18.7439 15.151 18.7481 15.1504 18.7528 15.1499C18.8229 15.1426 18.9082 15.2075 18.9496 15.2985C18.9941 15.3959 18.9716 15.4891 18.8993 15.5068C18.8271 15.5246 18.7329 15.4603 18.6889 15.3624C18.645 15.2645 18.6669 15.1698 18.7392 15.152Z" fill="white"/>
    <path d="M25.4613 15.8792C25.9664 16.558 26.4521 17.24 26.9216 17.946C26.9954 18.4699 27.0493 18.9828 27.0838 19.4931C27.1597 20.6126 27.1827 22.0058 27.1136 23.185C27.3235 23.1934 27.6595 22.8464 27.7773 22.3382C27.8537 21.6353 27.7501 20.2012 27.7427 19.7862C27.7375 19.614 27.727 19.4083 27.7155 19.1932C28.2614 20.085 28.7911 21.0303 29.3108 22.0676C29.5002 21.9776 29.4584 20.9104 29.3474 20.7607C28.9313 19.8652 28.3567 18.9812 28.1735 18.6416C28.1075 18.5186 27.882 18.1763 27.615 17.7811C27.5658 17.2175 27.5125 16.7396 27.4779 16.5957C27.3921 15.9996 27.7229 16.6627 27.6768 16.3162C27.5695 15.7211 27.2408 15.3165 26.853 14.7712C26.7279 14.5938 26.7305 14.5576 26.5374 14.8146C26.4217 15.0763 26.4233 15.2946 26.4573 15.4987C26.4066 15.4249 26.3438 15.3375 26.2537 15.2286C25.9188 14.9413 25.8978 14.9256 25.6199 14.6906C25.532 14.6283 25.365 14.5325 25.2379 14.544C25.1614 14.5508 25.1002 14.5959 25.0777 14.7089C25.0473 14.9748 25.063 15.1192 25.1075 15.3406C25.1405 15.4887 25.3556 15.7358 25.4613 15.8792ZM26.5306 15.8389C26.5437 15.8964 26.5562 15.954 26.5651 16.0126C26.5939 16.1393 26.619 16.2654 26.6452 16.39C26.5343 16.2372 26.4421 16.1137 26.4024 16.0697C26.1511 15.7714 26.4076 15.8739 26.5306 15.8389Z" fill="white"/>
    <path d="M20.3296 17.9828C20.6813 18.1283 20.9043 17.4589 21.0482 16.7262C21.1466 16.5205 21.222 16.4969 21.2728 16.6027C21.2597 17.5772 21.3429 17.7944 21.5931 18.0901C22.152 18.5214 22.6142 18.1445 22.6503 18.1084C22.6864 18.0723 23.0852 17.6735 23.0852 17.6735C23.182 17.5714 23.3103 17.5657 23.4469 17.6552C23.5798 17.7761 23.5625 17.9844 23.8473 18.1288C24.087 18.2246 24.5983 18.1524 24.7171 17.9456C24.8767 17.6719 24.9155 17.5777 24.9893 17.4741C25.1034 17.3223 25.2981 17.3898 25.2981 17.4374C25.2797 17.5222 25.1651 17.6054 25.2431 17.7578C25.3787 17.8593 25.4101 17.7939 25.4901 17.7714C25.7738 17.6358 25.9868 17.0208 25.9868 17.0208C25.9994 16.7916 25.8691 16.8089 25.7853 16.856C25.6765 16.9224 25.6697 16.9449 25.5608 17.0114C25.4221 17.0318 25.1536 17.1234 25.0207 16.9177C24.8851 16.6702 24.8841 16.3253 24.7804 16.0756C24.7804 16.0573 24.5994 15.6831 24.7668 15.659C24.8516 15.6747 25.0332 15.7218 25.062 15.5695C25.151 15.4214 24.8705 15.0011 24.68 14.7891C24.5146 14.6075 24.2858 14.585 24.0645 14.7708C23.9095 14.9137 23.9326 15.0728 23.9017 15.2241C23.8624 15.3978 23.8698 15.6124 24.0461 15.8422C24.2011 16.1473 24.4821 16.5388 24.3895 17.092C24.3895 17.092 24.2262 17.3553 23.9388 17.3207C23.819 17.2946 23.6238 17.2427 23.5201 16.476C23.4416 15.8956 23.54 15.0828 23.2935 14.7023C23.238 14.5589 23.1904 14.4191 23.1103 14.4301C23.0627 14.4364 23.0041 14.4976 22.9224 14.6452C22.8644 14.7996 22.6131 15.033 22.7942 15.5151C22.9423 15.8207 23.0036 16.3169 22.9361 16.8701C22.8335 17.0271 22.8099 17.0815 22.6749 17.2386C22.4854 17.4422 22.2808 17.3898 22.1233 17.3139C21.9762 17.215 21.8605 17.1642 21.7935 16.8492C21.8056 16.3478 21.8349 15.5266 21.7433 15.3523C21.6082 15.0822 21.3853 15.1791 21.29 15.2607C20.8326 15.6789 20.6065 16.3855 20.4683 16.9476C20.3417 17.3574 20.2061 17.2386 20.1114 17.0732C19.8801 16.8565 19.8638 15.1628 19.5849 15.4413C19.1389 16.7194 19.8424 18.1189 20.3296 17.9828Z" fill="white"/>
    <path d="M22.3026 15.5748C22.4758 15.1074 22.4763 14.908 22.4879 14.7096C22.4606 14.5584 22.3952 14.4856 22.3209 14.4924C22.2466 14.4987 22.1639 14.5856 22.0964 14.7536C22.0388 14.8813 21.9681 15.5476 21.9797 15.5476C21.9336 15.7459 22.1869 15.8297 22.3026 15.5748Z" fill="white"/>
    <path d="M20.4948 15.4651C20.5932 15.3929 20.6267 15.3463 20.6596 15.2249C20.7005 15.0207 20.4451 15.3212 20.4126 15.0945C20.3556 14.8836 20.5189 14.7973 20.6738 14.5931C20.6774 14.4974 20.679 14.4189 20.6167 14.4168C20.5885 14.4157 20.5461 14.4319 20.4864 14.467C20.3524 14.557 20.0871 14.8334 20.0792 15.1511C20.0708 15.3306 20.0373 15.3301 20.1546 15.4442C20.2388 15.5666 20.3236 15.5546 20.4948 15.4651Z" fill="white"/>
    <path d="M31.122 0.5H16.8796C7.84755 0.5 0.5 7.84657 0.5 16.878V31.122C0.5 40.1534 7.84755 47.5 16.8796 47.5H31.122C40.1533 47.5 47.5 40.1534 47.5 31.122V16.878C47.5 7.84672 40.1533 0.5 31.122 0.5Z" stroke="#F6F7F8"/>
</svg>
