<svg width="44" height="44" viewBox="0 0 44 44" fill="none" xmlns="http://www.w3.org/2000/svg">
<rect opacity="0.1" width="44" height="44" rx="12" fill="#54A32F"/>
<path d="M26.7048 12.636C24.8726 11.1843 22.5023 10.661 20.1825 11.2181C17.4929 11.8427 15.3245 13.9865 14.6688 16.6706C14.0132 19.3715 14.7697 22.1062 16.7028 24.0137C17.392 24.7059 17.7955 25.7918 17.7955 26.906V27.0917C17.7955 27.5643 18.1652 27.9358 18.636 27.9358H25.36C25.8307 27.9358 26.2005 27.5643 26.2005 27.0917V26.906C26.2005 25.8087 26.6207 24.689 27.3604 23.9631C28.7725 22.5282 29.5625 20.6207 29.5625 18.595C29.5625 16.2655 28.5203 14.0878 26.7048 12.636ZM21.998 16.0629C20.73 16.0629 19.8069 16.9076 19.5651 17.8854C19.4551 18.3301 19.0096 18.6139 18.5465 18.5019C18.0967 18.3898 17.8217 17.9315 17.9334 17.4798C18.3498 15.7917 19.9287 14.3748 21.998 14.3748C22.4626 14.3748 22.8385 14.7523 22.8385 15.2189C22.8385 15.6854 22.4626 16.0629 21.998 16.0629Z" fill="url(#paint0_linear_845_28003)"/>
<path d="M18.6357 29.6238V30.4678C18.6357 31.8641 19.7668 32.9999 21.1572 32.9999H22.8382C24.2287 32.9999 25.3598 31.8641 25.3598 30.4678V29.6238H18.6357Z" fill="url(#paint1_linear_845_28003)"/>
<defs>
<linearGradient id="paint0_linear_845_28003" x1="22" y1="11" x2="21.999" y2="33" gradientUnits="userSpaceOnUse">
<stop stop-color="#BEC03B"/>
<stop offset="1" stop-color="#54A32F"/>
</linearGradient>
<linearGradient id="paint1_linear_845_28003" x1="21.9997" y1="11.6875" x2="21.9973" y2="33.7791" gradientUnits="userSpaceOnUse">
<stop stop-color="#BEC03B"/>
<stop offset="1" stop-color="#54A32F"/>
</linearGradient>
</defs>
</svg>
