<svg width="16" height="17" viewBox="0 0 16 17" fill="none" xmlns="http://www.w3.org/2000/svg">
<path d="M8 0.5C3.59503 0.5 0 4.09531 0 8.5C0 12.905 3.59531 16.5 8 16.5C12.405 16.5 16 12.9047 16 8.5C16 4.09503 12.4047 0.5 8 0.5ZM5.62666 1.84822C5.07947 2.54741 4.68453 3.41237 4.41181 4.25H2.36319C3.18659 3.16059 4.31797 2.31656 5.62666 1.84822ZM1.76416 5.18719H4.15025C3.94138 6.07534 3.81809 7.03691 3.7885 8.03125H0.953438C1.02075 7.00916 1.30634 6.04584 1.76416 5.18719ZM0.953438 8.96875H3.7885C3.81772 9.9515 3.93859 10.9021 4.14306 11.7812H1.74762C1.2995 10.9308 1.01994 9.97847 0.953438 8.96875ZM2.33934 12.7188H4.40163C4.67559 13.5689 5.07412 14.4457 5.62666 15.1518C4.30541 14.6789 3.16469 13.8233 2.33934 12.7188ZM7.53125 15.4823C6.48063 15.1262 5.76575 13.7645 5.39116 12.7188H7.53125V15.4823ZM7.53125 11.7812H5.10678C4.88747 10.9143 4.75753 9.96131 4.72634 8.96875H7.53125V11.7812ZM7.53125 8.03125H4.72634C4.75791 7.02672 4.89069 6.06275 5.11484 5.1875H7.53125V8.03125ZM7.53125 4.25H5.40238C5.77734 3.21494 6.48891 1.87097 7.53125 1.51769V4.25ZM13.6368 4.25H11.5882C11.3155 3.41256 10.9206 2.54753 10.3733 1.84822C11.682 2.31656 12.8134 3.16059 13.6368 4.25ZM8.46875 1.51769C9.51122 1.87103 10.2227 3.21519 10.5976 4.25H8.46875V1.51769ZM8.46875 5.1875H10.8852C11.1093 6.06275 11.2421 7.02672 11.2737 8.03125H8.46875V5.1875ZM8.46875 8.96844H11.2737C11.2425 9.96131 11.1125 10.9143 10.8932 11.7812H8.46875V8.96844ZM8.46875 15.4823V12.7184H10.6088C10.2345 13.7639 9.51966 15.1261 8.46875 15.4823ZM10.3733 15.1518C10.9259 14.4457 11.3244 13.5688 11.5984 12.7184H13.6607C12.8353 13.8233 11.6946 14.6789 10.3733 15.1518ZM14.2524 11.7812H11.857C12.0614 10.9021 12.1823 9.9515 12.2115 8.96844H15.0466C14.9801 9.97847 14.7005 10.9308 14.2524 11.7812ZM15.0466 8.03125H12.2115C12.1819 7.03691 12.0586 6.07534 11.8497 5.1875H14.2358C14.6937 6.04584 14.9792 7.00916 15.0466 8.03125Z" fill="#45567B"/>
</svg>
