<svg width="18" height="18" viewBox="0 0 18 18" fill="none" xmlns="http://www.w3.org/2000/svg">
<path d="M13.5555 18H4.66665C3.95431 18 3.28467 17.7226 2.78102 17.2189C2.27738 16.7152 2 16.0456 2 15.3333V6.44444C2 5.73213 2.27741 5.06249 2.78105 4.55884C3.2847 4.0552 3.95434 3.77779 4.66668 3.77779H8.22223C8.71317 3.77779 9.11112 4.17574 9.11112 4.66668C9.11112 5.15763 8.71317 5.55558 8.22223 5.55558H4.66665C4.4292 5.55558 4.20601 5.64805 4.03815 5.81591C3.87029 5.98377 3.77779 6.20699 3.77779 6.44444V15.3333C3.77779 15.5708 3.87026 15.794 4.03815 15.9619C4.20601 16.1297 4.4292 16.2222 4.66665 16.2222H13.5555C13.7929 16.2222 14.0161 16.1297 14.184 15.9618C14.3519 15.794 14.4444 15.5707 14.4444 15.3333V11.7778C14.4444 11.2868 14.8423 10.8889 15.3333 10.8889C15.8242 10.8889 16.2222 11.2869 16.2222 11.7778V15.3333C16.2222 16.0456 15.9448 16.7152 15.4411 17.2189C14.9374 17.7226 14.2678 18 13.5555 18ZM8.22223 12.6666C7.99472 12.6666 7.76724 12.5799 7.59369 12.4063C7.24658 12.0592 7.24658 11.4963 7.59369 11.1492L14.9651 3.77779H11.7778C11.2868 3.77779 10.8889 3.37984 10.8889 2.88889C10.8889 2.39795 11.2868 2 11.7778 2H17.1111C17.234 2 17.3511 2.02496 17.4576 2.07008C17.557 2.11212 17.6504 2.17305 17.732 2.25288C17.7321 2.25291 17.7321 2.25291 17.7321 2.25294C17.7327 2.25353 17.7333 2.25409 17.7338 2.25468C17.734 2.25483 17.7342 2.25502 17.7344 2.25518C17.7348 2.25561 17.7353 2.25608 17.7357 2.25654C17.736 2.25685 17.7363 2.25713 17.7366 2.25744C17.737 2.25778 17.7373 2.25816 17.7376 2.25844C17.7382 2.25906 17.7389 2.25971 17.7395 2.26036C17.7402 2.26098 17.7408 2.26167 17.7415 2.26229C17.7418 2.2626 17.7422 2.263 17.7424 2.26328C17.7428 2.26359 17.743 2.26387 17.7433 2.26418C17.7438 2.26465 17.7443 2.26508 17.7447 2.26558C17.7449 2.2657 17.7451 2.26592 17.7452 2.26608C17.7458 2.26667 17.7464 2.26726 17.7469 2.26785C17.7469 2.26788 17.747 2.26788 17.747 2.26791C17.8268 2.34963 17.8877 2.44297 17.9298 2.54233C17.9749 2.64884 17.9999 2.7659 17.9999 2.88886V8.2222C17.9999 8.71314 17.6019 9.11109 17.1109 9.11109C16.62 9.11109 16.2221 8.71314 16.2221 8.2222V5.03488L8.8506 12.4063C8.67718 12.5799 8.44971 12.6666 8.22223 12.6666Z" fill="#171D35"/>
</svg>
