<svg width="20" height="21" viewBox="0 0 20 21" fill="none" xmlns="http://www.w3.org/2000/svg">
<path d="M5.33333 1.5C4.71449 1.5 4.121 1.7586 3.68342 2.21892C3.24583 2.67924 3 3.30356 3 3.95455V17.0455C3 17.6964 3.24583 18.3208 3.68342 18.7811C4.121 19.2414 4.71449 19.5 5.33333 19.5H14.6667C15.2855 19.5 15.879 19.2414 16.3166 18.7811C16.7542 18.3208 17 17.6964 17 17.0455V3.95455C17 3.30356 16.7542 2.67924 16.3166 2.21892C15.879 1.7586 15.2855 1.5 14.6667 1.5H5.33333ZM15.4444 3.95455V17.0455C15.4444 17.2625 15.3625 17.4706 15.2166 17.624C15.0708 17.7774 14.8729 17.8636 14.6667 17.8636H5.33333C5.12705 17.8636 4.92922 17.7774 4.78336 17.624C4.6375 17.4706 4.55556 17.2625 4.55556 17.0455V3.95455C4.55556 3.73755 4.6375 3.52944 4.78336 3.376C4.92922 3.22256 5.12705 3.13636 5.33333 3.13636H14.6667C14.8729 3.13636 15.0708 3.22256 15.2166 3.376C15.3625 3.52944 15.4444 3.73755 15.4444 3.95455Z" fill="white"/>
<path d="M6.88886 9.68177C7.31842 9.68177 7.66664 9.31546 7.66664 8.86359C7.66664 8.41172 7.31842 8.04541 6.88886 8.04541C6.45931 8.04541 6.11108 8.41172 6.11108 8.86359C6.11108 9.31546 6.45931 9.68177 6.88886 9.68177Z" fill="white"/>
<path d="M10.0001 9.68177C10.4296 9.68177 10.7778 9.31546 10.7778 8.86359C10.7778 8.41172 10.4296 8.04541 10.0001 8.04541C9.57051 8.04541 9.22229 8.41172 9.22229 8.86359C9.22229 9.31546 9.57051 9.68177 10.0001 9.68177Z" fill="white"/>
<path d="M13.1112 9.68177C13.5407 9.68177 13.8889 9.31546 13.8889 8.86359C13.8889 8.41172 13.5407 8.04541 13.1112 8.04541C12.6816 8.04541 12.3334 8.41172 12.3334 8.86359C12.3334 9.31546 12.6816 9.68177 13.1112 9.68177Z" fill="white"/>
<path d="M6.88886 12.9545C7.31842 12.9545 7.66664 12.5882 7.66664 12.1364C7.66664 11.6845 7.31842 11.3182 6.88886 11.3182C6.45931 11.3182 6.11108 11.6845 6.11108 12.1364C6.11108 12.5882 6.45931 12.9545 6.88886 12.9545Z" fill="white"/>
<path d="M10.0001 12.9545C10.4296 12.9545 10.7778 12.5882 10.7778 12.1364C10.7778 11.6845 10.4296 11.3182 10.0001 11.3182C9.57051 11.3182 9.22229 11.6845 9.22229 12.1364C9.22229 12.5882 9.57051 12.9545 10.0001 12.9545Z" fill="white"/>
<path d="M13.1112 12.9545C13.5407 12.9545 13.8889 12.5882 13.8889 12.1364C13.8889 11.6845 13.5407 11.3182 13.1112 11.3182C12.6816 11.3182 12.3334 11.6845 12.3334 12.1364C12.3334 12.5882 12.6816 12.9545 13.1112 12.9545Z" fill="white"/>
<path d="M10.0001 16.2272C10.4296 16.2272 10.7778 15.8609 10.7778 15.4091C10.7778 14.9572 10.4296 14.5909 10.0001 14.5909C9.57051 14.5909 9.22229 14.9572 9.22229 15.4091C9.22229 15.8609 9.57051 16.2272 10.0001 16.2272Z" fill="white"/>
<path d="M13.1111 4.77271H6.88886C6.68258 4.77271 6.48475 4.85891 6.33889 5.01235C6.19303 5.16578 6.11108 5.37389 6.11108 5.59089C6.11108 5.80788 6.19303 6.01599 6.33889 6.16943C6.48475 6.32287 6.68258 6.40907 6.88886 6.40907H13.1111C13.3174 6.40907 13.5152 6.32287 13.6611 6.16943C13.8069 6.01599 13.8889 5.80788 13.8889 5.59089C13.8889 5.37389 13.8069 5.16578 13.6611 5.01235C13.5152 4.85891 13.3174 4.77271 13.1111 4.77271Z" fill="white"/>
</svg>
