<svg width="91" height="48" viewBox="0 0 91 48" fill="none" xmlns="http://www.w3.org/2000/svg">
<path d="M90.5422 34.7734H0.138062V48H90.5422V34.7734Z" fill="#EC1D32"/>
<path d="M88.2039 11.5963C86.5552 9.98132 84.4989 9.16309 82.0809 9.16309C79.663 9.16309 77.6036 9.98438 75.9426 11.6025C74.9344 12.5678 74.1958 13.7814 73.8005 15.1206L70.4326 17.3454C70.3406 15.0501 69.5071 13.1194 67.9503 11.5963C66.3016 9.98132 64.2453 9.16309 61.8304 9.16309C59.4155 9.16309 57.3562 9.98438 55.6921 11.6025C54.0281 13.2205 53.1822 15.3075 53.1853 17.7867C53.1853 20.2659 54.0281 22.3529 55.7013 23.9771C56.4092 24.6789 57.2366 25.2489 58.1437 25.6626L54.3223 28.2092V33.2504L66.654 25.0374L66.7459 24.9578C67.1719 24.6636 67.5734 24.3326 67.9442 23.9679L73.7362 20.2016C74.11 21.6389 74.8731 22.9444 75.9426 23.9771C77.6036 25.5982 79.6661 26.4226 82.0687 26.4226C84.4743 26.4226 86.5307 25.5952 88.1886 23.971C89.8465 22.3437 90.6831 20.2659 90.6831 17.7775C90.6831 15.2891 89.8557 13.2205 88.2039 11.6025V11.5963ZM64.8275 21.078C64.0736 21.8993 63.093 22.3008 61.8181 22.3008C60.5709 22.3008 59.5626 21.8901 58.818 21.0842C58.0733 20.2751 57.6902 19.1596 57.6871 17.7867C57.6841 16.4107 58.0641 15.3014 58.8149 14.4862C59.5657 13.671 60.5647 13.2634 61.8181 13.2634C63.0685 13.2634 64.0828 13.6741 64.8245 14.4801C65.5661 15.2891 65.9522 16.4046 65.9522 17.7775C65.9522 19.1504 65.5783 20.2629 64.8306 21.078H64.8275ZM85.0719 21.078C84.3211 21.8993 83.3374 22.3008 82.0625 22.3008C80.8122 22.3008 79.804 21.8901 79.0593 21.0842C78.3146 20.2782 77.9315 19.1596 77.9315 17.7837C77.9315 16.4077 78.3085 15.2983 79.0562 14.4831C79.804 13.668 80.7908 13.2604 82.0595 13.2604C83.3098 13.2604 84.3211 13.671 85.0627 14.477C85.8043 15.2861 86.1935 16.4015 86.1935 17.7745C86.1935 19.1504 85.8197 20.2598 85.0719 21.075V21.078Z" fill="#171D35"/>
<path d="M45.9009 12.9447V20.2169H41.5983C41.4451 20.2169 41.2888 20.223 41.1355 20.2383V10.1069L36.7655 13.2726V21.7062C36.7655 22.4908 36.7073 24.0047 36.5878 24.593C36.4866 25.1477 36.2537 25.6718 35.9136 26.1223C35.6163 26.4869 35.2516 26.7934 34.841 27.0232L30.7988 28.8558L30.8111 33.1401C30.8111 33.1401 35.9657 30.8723 36.5387 30.6118C38.6134 29.7875 40.1549 28.0039 40.6667 25.8281C40.7647 25.4634 40.8352 24.2406 40.9118 23.833L40.9455 23.8422C41.1631 23.8729 41.3807 23.8851 41.6014 23.8821H50.2771V10.1069L45.904 12.9447H45.9009Z" fill="#171D35"/>
<path d="M9.53701 21.127C8.44909 20.8389 7.56037 20.4099 6.9015 19.8613C6.25181 19.3312 5.76455 18.6325 5.48874 17.8387C5.18535 16.7202 5.05664 15.5587 5.1118 14.4003V8.97607L0.472077 11.7066C0.374012 12.1908 0.288205 12.6811 0.211591 13.1776C0.0798154 14.0019 0.00933088 14.8324 0.000137239 15.666C-0.00599185 16.9929 0.193204 18.3137 0.591595 19.5763C0.986921 20.8022 1.6887 21.9085 2.63258 22.7911C3.60098 23.7104 4.93406 24.4612 6.60117 25.019C6.88004 25.1109 7.17424 25.1875 7.4807 25.2703L12.5433 21.5346C11.529 21.5039 10.5177 21.366 9.53394 21.1239L9.53701 21.127Z" fill="#171D35"/>
<path d="M30.1951 14.0662C29.763 12.0988 28.3073 10.5175 26.3859 9.91682C25.3255 9.53375 23.9741 9.34375 22.3744 9.34375C21.3386 9.34375 20.3027 9.40811 19.2761 9.53682C18.3169 9.66246 17.3271 9.83408 16.3372 10.0425V21.5621H13.5454V25.8647H21.3815V13.7873H21.5929C21.691 13.7873 21.789 13.7843 21.8871 13.769C22.0005 13.7567 22.1169 13.7506 22.2334 13.7506C23.4286 13.7506 24.2836 14.0448 24.777 14.624C25.2704 15.2032 25.5002 16.1409 25.5002 17.4771V25.8586H30.5812V17.4342C30.5935 16.3003 30.4648 15.1664 30.1982 14.0632L30.1951 14.0662Z" fill="#171D35"/>
<path d="M5.88098 27.7833L12.5617 22.8555L12.5678 28.3992L5.88405 33.3362V27.7833H5.88098Z" fill="#EC1D32"/>
<path d="M5.88098 27.7832C5.88098 27.8843 9.44505 30.7068 9.44505 30.7068L5.88405 33.3362V28.0989" fill="#AD1E2E"/>
<path d="M45.3492 4.92779L52.03 0V5.54377L45.3523 10.4808V4.92779H45.3492Z" fill="#171D35"/>
<path d="M45.3492 4.92773C45.3492 5.0258 48.9133 7.84825 48.9133 7.84825L45.3523 10.4807V5.24032" fill="#171D35"/>
<path d="M3.22109 43.7893C3.22109 43.4369 3.23948 43.1335 3.27626 42.8822C3.31303 42.6309 3.38658 42.4103 3.4969 42.2233C3.60416 42.0364 3.75433 41.877 3.94126 41.7453C4.1282 41.6135 4.3703 41.4879 4.66143 41.3683C4.73498 40.8872 4.86369 40.4827 5.0445 40.1578C5.22531 39.8299 5.42757 39.5694 5.65435 39.3702C5.88112 39.1711 6.11709 39.027 6.36532 38.9412C6.61355 38.8554 6.84339 38.8125 7.05178 38.8125C7.35823 38.8125 7.64017 38.8677 7.89759 38.9811C8.15502 39.0944 8.36953 39.2507 8.55034 39.453C8.73115 39.6553 8.87212 39.9004 8.97325 40.1854C9.07438 40.4704 9.12648 40.783 9.12648 41.1201C9.12648 41.7974 8.95793 42.3306 8.62389 42.7259C8.28986 43.1213 7.7842 43.3174 7.10694 43.3174C6.46951 43.3174 5.80757 43.0906 5.12111 42.6401C4.97095 42.7167 4.86369 42.8454 4.79934 43.0293C4.73498 43.2132 4.70434 43.4737 4.70434 43.8138V47.6568H3.21497V43.7893H3.22109ZM7.7413 41.0833C7.7413 40.8443 7.67082 40.6267 7.52678 40.4367C7.38275 40.2467 7.18049 40.1486 6.91694 40.1486C6.69016 40.1486 6.47564 40.259 6.27032 40.4765C6.06193 40.6941 5.93015 41.0619 5.86886 41.5798C6.06499 41.6932 6.26725 41.7851 6.47871 41.8556C6.69016 41.9261 6.87097 41.9629 7.02113 41.9629C7.23259 41.9629 7.4042 41.8832 7.53904 41.7208C7.67388 41.5583 7.7413 41.3469 7.7413 41.0833Z" fill="white"/>
<path d="M14.4373 43.1792C14.3331 43.9974 13.996 44.595 13.4291 44.9658C12.8621 45.3367 12.0102 45.5236 10.8763 45.5236H10.527V44.1476H10.7874C11.1797 44.1476 11.5046 44.1262 11.7681 44.0802C12.0317 44.0342 12.2462 43.9699 12.4147 43.8841C12.5833 43.7983 12.7089 43.6971 12.7917 43.5807C12.8744 43.4642 12.9265 43.3324 12.948 43.1792H12.2492C11.9183 43.1792 11.6149 43.1424 11.336 43.0658C11.0571 42.9923 10.8181 42.8697 10.6158 42.7011C10.4136 42.5326 10.2542 42.315 10.1439 42.0484C10.0305 41.7818 9.97534 41.46 9.97534 41.0861C9.97534 40.7858 10.0274 40.4885 10.1286 40.1944C10.2297 39.9002 10.3768 39.6397 10.5729 39.4068C10.7691 39.1739 11.0081 38.9869 11.2931 38.849C11.5781 38.7111 11.9029 38.6406 12.2707 38.6406C12.6844 38.6406 13.0307 38.7111 13.3096 38.8551C13.5884 38.9992 13.8183 39.1984 13.9899 39.4589C14.1615 39.7193 14.2872 40.0258 14.3607 40.3844C14.4343 40.7398 14.4741 41.1352 14.4741 41.5611V41.889H15.2985C15.3598 41.889 15.4149 41.8952 15.467 41.9074C15.5191 41.9197 15.5651 41.9442 15.608 41.9871C15.6509 42.03 15.6815 42.0913 15.703 42.174C15.7244 42.2568 15.7367 42.3702 15.7367 42.5111C15.7367 42.7686 15.6999 42.9432 15.6294 43.0413C15.5589 43.1394 15.4486 43.1884 15.2954 43.1884H14.4373V43.1792ZM11.4157 40.9482C11.4157 41.3098 11.4923 41.555 11.6455 41.6868C11.7987 41.8186 12.0041 41.8829 12.2584 41.8829H13.0031V41.2057C13.0031 40.844 12.948 40.5468 12.8346 40.3108C12.7212 40.0748 12.5097 39.9553 12.2033 39.9553C11.9244 39.9553 11.7252 40.0503 11.5996 40.2373C11.4739 40.4242 11.4126 40.6602 11.4126 40.9482H11.4157Z" fill="white"/>
<path d="M15.3047 43.1792C15.2434 43.1792 15.1882 43.1731 15.1361 43.1609C15.084 43.1486 15.0381 43.1241 14.9952 43.0812C14.9523 43.0383 14.9216 42.977 14.9002 42.8942C14.8787 42.8115 14.8665 42.6981 14.8665 42.5571C14.8665 42.3028 14.9032 42.125 14.9737 42.027C15.0442 41.9289 15.1545 41.8799 15.3077 41.8799H16.9749C17.0362 41.8799 17.0913 41.886 17.1434 41.8983C17.1955 41.9105 17.2415 41.935 17.2844 41.9779C17.3273 42.0208 17.3579 42.0821 17.3794 42.1649C17.4008 42.2476 17.4131 42.361 17.4131 42.502C17.4131 42.7594 17.3763 42.9341 17.3058 43.0322C17.2353 43.1302 17.125 43.1792 16.9718 43.1792H15.3047Z" fill="white"/>
<path d="M16.9747 43.1792C16.9134 43.1792 16.8583 43.1731 16.8062 43.1609C16.7541 43.1486 16.7081 43.1241 16.6652 43.0812C16.6223 43.0383 16.5917 42.977 16.5702 42.8942C16.5488 42.8115 16.5365 42.6981 16.5365 42.5571C16.5365 42.3028 16.5733 42.125 16.6438 42.027C16.7142 41.9289 16.8246 41.8799 16.9778 41.8799H18.6449C18.7062 41.8799 18.7614 41.886 18.8135 41.8983C18.8656 41.9105 18.9115 41.935 18.9544 41.9779C18.9973 42.0208 19.028 42.0821 19.0494 42.1649C19.0709 42.2476 19.0831 42.361 19.0831 42.502C19.0831 42.7594 19.0464 42.9341 18.9759 43.0322C18.9054 43.1302 18.7951 43.1792 18.6418 43.1792H16.9747Z" fill="white"/>
<path d="M18.642 43.1792C18.5807 43.1792 18.5255 43.1731 18.4734 43.1609C18.4213 43.1486 18.3753 43.1241 18.3324 43.0812C18.2895 43.0383 18.2589 42.977 18.2374 42.8942C18.216 42.8115 18.2037 42.6981 18.2037 42.5571C18.2037 42.3028 18.2405 42.125 18.311 42.027C18.3815 41.9289 18.4918 41.8799 18.645 41.8799H20.3121C20.3734 41.8799 20.4286 41.886 20.4807 41.8983C20.5328 41.9105 20.5788 41.935 20.6217 41.9779C20.6646 42.0208 20.6952 42.0821 20.7167 42.1649C20.7381 42.2476 20.7504 42.361 20.7504 42.502C20.7504 42.7594 20.7136 42.9341 20.6431 43.0322C20.5726 43.1302 20.4623 43.1792 20.3091 43.1792H18.642Z" fill="white"/>
<path d="M22.9353 41.883C23.0916 41.883 23.2448 41.8523 23.3857 41.788C23.5267 41.7236 23.6003 41.5949 23.6003 41.3988C23.6003 41.2639 23.5145 41.0801 23.3459 40.8533C23.1774 40.6234 22.9536 40.3813 22.6748 40.127C22.3959 39.8726 22.0803 39.6183 21.7278 39.367C21.3754 39.1157 21.0169 38.895 20.6583 38.7081C20.7104 38.4599 20.7717 38.2545 20.8452 38.0952C20.9188 37.9358 20.9893 37.8041 21.0659 37.706C21.1394 37.6079 21.213 37.5344 21.2865 37.4853C21.357 37.4363 21.4152 37.3995 21.4612 37.3781L25.3961 35.6436V37.1544L22.7361 38.2576V38.2913C23.1866 38.5855 23.5604 38.8736 23.8516 39.1586C24.1458 39.4436 24.3787 39.7225 24.5564 39.9921C24.7341 40.2618 24.8537 40.5193 24.9242 40.7644C24.9916 41.0096 25.0253 41.2364 25.0253 41.4478C25.0253 41.6286 25.0008 41.8186 24.9517 42.0239C24.9027 42.2262 24.8077 42.4162 24.6637 42.5878C24.5196 42.7625 24.3204 42.9035 24.06 43.0169C23.7995 43.1302 23.4593 43.1854 23.0395 43.1854H20.312C20.2507 43.1854 20.1956 43.1793 20.1435 43.167C20.0914 43.1548 20.0454 43.1302 20.0025 43.0873C19.9596 43.0444 19.9289 42.9831 19.9075 42.9004C19.886 42.8177 19.8738 42.7043 19.8738 42.5633C19.8738 42.3089 19.9106 42.1312 19.981 42.0331C20.0515 41.9351 20.1618 41.886 20.3151 41.886H22.9414L22.9353 41.883Z" fill="white"/>
<path d="M26.4073 41.4448H28.1756V43.1824H26.4073V41.4448Z" fill="white"/>
</svg>
