<svg width="32" height="32" viewBox="0 0 32 32" fill="none" xmlns="http://www.w3.org/2000/svg">
<rect width="32" height="32" rx="8" fill="#FFF1F8"/>
<path fill-rule="evenodd" clip-rule="evenodd" d="M21.3441 7.99988C21.7583 7.99988 22.0941 8.33566 22.0941 8.74988V9.90613H23.2504C23.6646 9.90613 24.0004 10.2419 24.0004 10.6561C24.0004 11.0703 23.6646 11.4061 23.2504 11.4061H22.0941V12.5625C22.0941 12.9767 21.7583 13.3125 21.3441 13.3125C20.9299 13.3125 20.5941 12.9767 20.5941 12.5625V11.4061H19.4378C19.0236 11.4061 18.6878 11.0703 18.6878 10.6561C18.6878 10.2419 19.0236 9.90613 19.4378 9.90613H20.5941V8.74988C20.5941 8.33566 20.9299 7.99988 21.3441 7.99988ZM23.0268 16.5234C23.0787 16.5481 23.1245 16.5838 23.1609 16.628C23.1975 16.672 23.2238 16.7235 23.2381 16.7787C23.2524 16.834 23.2542 16.8916 23.2435 16.9476L23.0234 18.001C23.0058 18.0889 22.9577 18.168 22.8875 18.2245C22.8173 18.2811 22.7294 18.3117 22.6388 18.311H22.1701C22.625 18.826 22.8612 19.495 22.8293 20.1783C22.7974 20.8616 22.4998 21.5062 21.9988 21.9775V23.4204C21.9986 23.5741 21.9368 23.7215 21.827 23.8302C21.7172 23.9389 21.5682 24 21.4129 24.0002H20.0442C19.8889 24.0002 19.7398 23.9391 19.6299 23.8304C19.5201 23.7217 19.4583 23.5742 19.4583 23.4204V22.8257H11.7903V23.4204C11.7903 23.4965 11.7751 23.5719 11.7457 23.6423C11.7162 23.7126 11.673 23.7766 11.6186 23.8304C11.5642 23.8842 11.4996 23.927 11.4286 23.9561C11.3575 23.9852 11.2813 24.0002 11.2043 24.0002H9.83718C9.68178 24.0002 9.53275 23.9391 9.42287 23.8304C9.31298 23.7217 9.25125 23.5742 9.25125 23.4204V21.9455L9.23398 21.9321C8.9696 21.687 8.76033 21.3895 8.61978 21.0591C8.47922 20.7286 8.41054 20.3726 8.41819 20.0141C8.41602 19.389 8.64074 18.7838 9.05144 18.3088H8.60749C8.51773 18.3088 8.43071 18.2782 8.36108 18.2221C8.29144 18.1661 8.24344 18.088 8.22514 18.001L8.00805 16.9499C7.99634 16.8937 7.99742 16.8356 8.0112 16.7799C8.02499 16.7242 8.05113 16.6722 8.08774 16.6277C8.12434 16.5832 8.17049 16.5474 8.22284 16.5227C8.27519 16.4981 8.33243 16.4853 8.3904 16.4852H9.87774C10.129 15.6284 10.6061 14.853 11.2599 14.2387C13.1364 13.0203 18.1122 13.0203 19.9887 14.2387C20.6435 14.8523 21.1207 15.6279 21.3708 16.4852H22.8604C22.918 16.4857 22.9748 16.4988 23.0268 16.5234ZM19.3464 15.2066C17.8515 14.2328 13.4015 14.2328 11.9059 15.2066C11.4308 15.7516 11.0862 16.3958 10.8978 17.0911H20.353C20.1651 16.3959 19.821 15.7517 19.3464 15.2066ZM10.3461 19.5286C10.2195 19.7161 10.1519 19.9366 10.1519 20.1621C10.1519 20.3119 10.1818 20.4602 10.2397 20.5986C10.2977 20.7371 10.3826 20.8628 10.4897 20.9687C10.5968 21.0746 10.7239 21.1586 10.8638 21.2159C11.0037 21.2731 11.1536 21.3025 11.305 21.3024C11.5329 21.3023 11.7556 21.2353 11.945 21.1099C12.1344 20.9845 12.282 20.8064 12.3691 20.598C12.4562 20.3896 12.4789 20.1603 12.4343 19.9391C12.3898 19.718 12.28 19.5149 12.1188 19.3555C11.9576 19.196 11.7523 19.0875 11.5288 19.0436C11.3053 18.9996 11.0736 19.0223 10.8631 19.1086C10.6526 19.1949 10.4727 19.3411 10.3461 19.5286ZM19.3192 21.1103C19.5087 21.2356 19.7315 21.3024 19.9594 21.3024C20.265 21.3024 20.5581 21.1823 20.7742 20.9684C20.9903 20.7546 21.1117 20.4645 21.1117 20.1621C21.1117 19.9365 21.0441 19.7161 20.9175 19.5285C20.7909 19.341 20.6109 19.1948 20.4003 19.1085C20.1898 19.0222 19.9581 18.9996 19.7346 19.0436C19.511 19.0876 19.3057 19.1962 19.1446 19.3557C18.9834 19.5152 18.8737 19.7184 18.8292 19.9396C18.7847 20.1608 18.8075 20.3901 18.8948 20.5985C18.982 20.8069 19.1297 20.985 19.3192 21.1103Z" fill="url(#paint0_linear_967_60914)"/>
<defs>
<linearGradient id="paint0_linear_967_60914" x1="15.711" y1="24.0002" x2="15.711" y2="13.2048" gradientUnits="userSpaceOnUse">
<stop stop-color="#E62EB2"/>
<stop offset="1" stop-color="#FF93C7"/>
</linearGradient>
</defs>
</svg>
