<svg width="48" height="27" viewBox="0 0 48 27" fill="none" xmlns="http://www.w3.org/2000/svg">
<path d="M29.321 15.5489C29.9804 15.5628 32.2459 15.6342 32.8376 15.3819C33.3755 15.1436 33.8039 14.7539 34.0544 14.2778C34.374 14.7576 34.8359 15.1545 35.3913 15.4285C35.9425 15.6536 36.5474 15.7619 37.1565 15.7449C37.8291 15.7558 38.4961 15.6318 39.1039 15.3819C39.662 15.1545 40.1093 14.763 40.3674 14.2778C40.6814 14.7491 41.1266 15.1448 41.6624 15.4285C42.1976 15.6566 42.7899 15.7655 43.3858 15.7449C43.8651 15.7456 44.3424 15.679 44.798 15.5489C45.2508 15.4207 45.666 15.2089 46.0155 14.9282C46.386 14.6263 46.677 14.259 46.8702 13.8513C47.0991 13.3497 47.2086 12.8137 47.1912 12.2746V7.14044L44.4296 8.99663L44.4352 12.2558C44.4352 12.7495 44.2894 13.0932 43.997 13.2862C43.7047 13.4792 43.2302 13.5748 42.5729 13.5736C41.9596 13.5736 41.5347 13.4622 41.2996 13.2402C41.0561 13.0163 40.9465 12.6576 40.9465 12.1633L40.9298 7.93846L38.1549 9.71599L38.1222 12.2347C38.1222 12.7314 37.9721 13.0787 37.6714 13.2753C37.3714 13.4725 36.9004 13.5705 36.2592 13.5711C35.6459 13.5711 35.221 13.4598 34.9859 13.2378C34.7507 13.0157 34.6328 12.6564 34.6328 12.1615V9.03051L31.7177 10.7687L31.8063 12.2353C31.8063 12.732 31.657 13.0793 31.3584 13.2759C31.0591 13.4719 30.0746 13.5711 29.4341 13.5711" fill="#171D35"/>
<path d="M31.7169 15.5488L23.3931 15.5427L26.013 13.5698H31.7169V15.5488Z" fill="#171D35"/>
<path d="M14.258 8.99308V13.7515H5.15061C4.67127 13.7515 4.27706 13.7364 3.96727 13.7055C3.65748 13.6753 3.41118 13.6172 3.22768 13.5319C3.04418 13.4466 2.91789 13.331 2.84742 13.1846C2.77695 13.0382 2.74206 12.8494 2.74206 12.6177V8.56897L0 10.3259V12.9656C0 13.4901 0.0739588 13.9348 0.221179 14.3009C0.369097 14.6669 0.611207 14.9658 0.948906 15.1969C1.28661 15.4286 1.73664 15.5962 2.29901 15.6997C2.86137 15.8031 3.5577 15.8551 4.3873 15.8551H8.64063L10.3801 14.7425L10.3815 15.8551H17.0015V7.23672L14.2594 8.99369L14.258 8.99308Z" fill="#171D35"/>
<path d="M6.8396 17.2856L10.1971 15.1378L10.1991 17.553L6.84169 19.7045L6.8396 17.2856Z" fill="#EC1D32"/>
<path d="M6.8396 17.2859C6.8396 17.3295 8.63066 18.5589 8.63066 18.5589L6.84169 19.7048L6.8403 17.4226" fill="#AD1E2E"/>
<path d="M37.5312 1.80415L40.3515 0L40.3536 2.02922L37.5326 3.83639L37.5312 1.80415Z" fill="#171D35"/>
<path d="M38.3301 6.9257L40.9996 5.21533L40.9961 2.25742L38.3301 3.96295V6.9257Z" fill="#171D35"/>
<path d="M37.9881 4.18192L36.885 4.88736L36.8878 7.85011L37.9881 7.14467V4.18192Z" fill="#171D35"/>
<path d="M47.2331 20.3254H0.00195312V27H47.2331V20.3254Z" fill="#0083F9"/>
<path d="M24.9632 22.7517C24.6053 22.4473 24.1574 22.2931 23.632 22.2931C23.1066 22.2931 22.6586 22.4479 22.2979 22.7529C22.0788 22.935 21.9184 23.1637 21.8318 23.416L21.0992 23.8352C21.079 23.4027 20.8976 23.0384 20.5599 22.7517C20.2013 22.4473 19.754 22.2931 19.2293 22.2931C18.7046 22.2931 18.2567 22.4479 17.8953 22.7529C17.5338 23.0578 17.3496 23.4517 17.3503 23.9187C17.3503 24.3858 17.5331 24.7797 17.8974 25.0858C18.0516 25.2177 18.2316 25.3254 18.4283 25.4034L17.5973 25.8838V26.8343L20.2787 25.2855L20.2989 25.2703C20.3882 25.2002 20.4789 25.1524 20.5592 25.084L21.8186 24.3737C21.9002 24.6447 22.0663 24.891 22.2986 25.0852C22.66 25.3913 23.108 25.5462 23.6306 25.5462C24.1539 25.5462 24.6011 25.3901 24.9611 25.084C25.3219 24.7772 25.5033 24.3852 25.5033 23.9163C25.5033 23.4474 25.3233 23.0566 24.9646 22.7523L24.9632 22.7517ZM19.881 24.5395C19.717 24.6944 19.5035 24.77 19.2265 24.77C18.9551 24.77 18.736 24.6925 18.5742 24.5401C18.4123 24.3876 18.3286 24.1771 18.3279 23.9181C18.3272 23.6592 18.4102 23.4492 18.5728 23.2962C18.736 23.1425 18.953 23.0657 19.2251 23.0657C19.4972 23.0657 19.7177 23.1431 19.8789 23.2956C20.0401 23.448 20.1245 23.6586 20.1245 23.9175C20.1245 24.1765 20.0429 24.3864 19.881 24.5395ZM24.2829 24.5395C24.1197 24.6944 23.9062 24.77 23.6285 24.77C23.3564 24.77 23.1373 24.6925 22.9754 24.5407C22.8135 24.3888 22.7305 24.1777 22.7298 23.9187C22.7298 23.6598 22.8121 23.4498 22.9747 23.2968C23.1373 23.1437 23.3522 23.0663 23.6278 23.0663C23.8999 23.0663 24.1197 23.1437 24.2802 23.2962C24.4413 23.4486 24.5258 23.6592 24.5265 23.9181C24.5265 24.1771 24.4448 24.3864 24.2822 24.5401L24.2829 24.5395Z" fill="white"/>
<path d="M15.7648 23.0058V24.3767H10.8095C10.776 24.3767 10.7425 24.3779 10.709 24.3803V22.4709L9.75874 23.0681V24.658C9.75874 24.8057 9.74618 25.0918 9.72037 25.2026C9.69804 25.3072 9.6478 25.4058 9.57384 25.4911C9.50896 25.5601 9.43011 25.6176 9.3408 25.6606L8.46167 26.006L8.46446 26.8137C8.46446 26.8137 9.58501 26.386 9.7099 26.3376C10.1613 26.1821 10.4962 25.8457 10.6079 25.4361C10.6288 25.3677 10.6449 25.1366 10.6609 25.0598L10.6679 25.0616C10.7153 25.067 10.7628 25.0701 10.8102 25.0695H16.7158V22.4721L15.7648 23.007V23.0058Z" fill="white"/>
<path d="M3.83881 24.5478C3.60228 24.4934 3.40901 24.4123 3.26528 24.3089C3.12434 24.209 3.01759 24.0771 2.95828 23.9277C2.892 23.7166 2.86479 23.4981 2.87595 23.2797V22.2573L1.86773 22.7721C1.8468 22.8635 1.82727 22.9554 1.81122 23.0498C1.78261 23.2053 1.76726 23.362 1.76517 23.5187C1.76377 23.7686 1.80773 24.0179 1.89425 24.2562C1.98077 24.4873 2.13287 24.6961 2.338 24.8625C2.54802 25.0361 2.83897 25.1771 3.20109 25.2823C3.26179 25.2993 3.32598 25.3144 3.39227 25.3301L4.49328 24.6259C4.2728 24.6204 4.05301 24.5944 3.83881 24.5485V24.5478Z" fill="white"/>
<path d="M8.33021 23.2175C8.23602 22.8466 7.91995 22.5484 7.50202 22.4352C7.27107 22.3632 6.97802 22.3269 6.62986 22.3269C6.40449 22.3269 6.17913 22.339 5.95585 22.3632C5.74723 22.3868 5.53234 22.4189 5.31674 22.4582V24.6302H4.70972V25.4415H6.41356V23.1649H6.45961C6.48124 23.1649 6.50217 23.1643 6.52311 23.1619C6.54822 23.1594 6.57334 23.1582 6.59846 23.1582C6.85871 23.1582 7.04431 23.2139 7.15106 23.3228C7.25781 23.4323 7.30805 23.6084 7.30805 23.8606V25.4409H8.41324V23.8528C8.41534 23.6386 8.38743 23.425 8.33021 23.2175Z" fill="white"/>
<path d="M3.04395 25.8034L4.49661 24.8741L4.49801 25.9195L3.04464 26.8507V25.804L3.04395 25.8034Z" fill="white"/>
<path d="M3.04395 25.8033C3.04395 25.822 3.81912 26.3545 3.81912 26.3545L3.04464 26.85V25.8626" fill="white"/>
<path d="M15.645 21.4945L17.0977 20.5652V21.6107L15.6457 22.5418V21.4951L15.645 21.4945Z" fill="white"/>
<path d="M15.645 21.4946C15.645 21.5134 16.4202 22.0452 16.4202 22.0452L15.6457 22.5419V21.5539" fill="white"/>
<path d="M30.1136 24.8813C29.9783 24.8813 29.8708 24.8571 29.7913 24.8081C29.7118 24.7597 29.6511 24.7016 29.6085 24.6344V24.8208C29.6085 25.0422 29.5729 25.2322 29.501 25.3901C29.4292 25.548 29.3259 25.6775 29.1899 25.7779C29.0538 25.879 28.887 25.9528 28.6896 25.9994C28.4914 26.0465 28.2668 26.0701 28.0142 26.0701C27.4825 26.0701 27.0827 25.9661 26.8155 25.758C26.5476 25.5498 26.4143 25.251 26.4143 24.8613V24.0857H26.8909V24.776C26.8909 25.1003 26.9864 25.3272 27.1776 25.4573C27.3688 25.5873 27.6521 25.6527 28.0261 25.6527C28.2193 25.6527 28.3854 25.64 28.5242 25.6146C28.6631 25.5898 28.7782 25.5462 28.8689 25.4839C28.9596 25.4222 29.0266 25.3363 29.0685 25.2274C29.111 25.1185 29.1326 24.9799 29.1326 24.8129V23.5212H29.6085V23.909C29.6085 23.9931 29.6141 24.0694 29.6259 24.1383C29.6378 24.2073 29.6615 24.2648 29.6985 24.312C29.7355 24.3592 29.7871 24.3961 29.8527 24.4227C29.919 24.4493 30.0055 24.4626 30.1143 24.4626C30.2692 24.4626 30.3467 24.5298 30.3467 24.6641C30.3467 24.7482 30.3279 24.8051 30.2916 24.8353C30.2546 24.8656 30.196 24.8807 30.1143 24.8807L30.1136 24.8813ZM27.7498 23.0832C27.7498 23.0094 27.7798 22.9465 27.8398 22.8944C27.8998 22.8424 27.9723 22.8164 28.0574 22.8164C28.1426 22.8164 28.2151 22.8424 28.2751 22.8944C28.3351 22.9465 28.3651 23.0094 28.3651 23.0832C28.3651 23.157 28.3351 23.2199 28.2751 23.272C28.2151 23.324 28.1426 23.35 28.0574 23.35C27.9723 23.35 27.8991 23.324 27.8398 23.272C27.7798 23.2199 27.7498 23.157 27.7498 23.0832Z" fill="white"/>
<path d="M30.1025 24.8813C29.9476 24.8813 29.8701 24.8141 29.8701 24.6792C29.8701 24.5951 29.889 24.5376 29.9252 24.5074C29.9622 24.4771 30.0208 24.462 30.1025 24.462H30.3404C30.3864 24.462 30.4353 24.4572 30.4855 24.4469C30.5357 24.4366 30.586 24.4148 30.6362 24.3809C30.6865 24.347 30.736 24.3011 30.7841 24.2418C30.8323 24.1831 30.8776 24.1032 30.9209 24.0016C31.0095 23.7862 31.1037 23.612 31.2028 23.4789C31.3012 23.3458 31.4023 23.2429 31.5049 23.1709C31.6075 23.0989 31.7121 23.0505 31.8182 23.0269C31.9249 23.0033 32.0303 22.9918 32.1349 22.9918C32.2822 22.9918 32.4175 23.016 32.5417 23.065C32.6659 23.1134 32.7727 23.183 32.8641 23.2719C32.9548 23.3615 33.0266 23.4674 33.079 23.5902C33.1313 23.713 33.1571 23.8503 33.1571 24.0016C33.1571 24.2914 33.0769 24.5213 32.9157 24.6913C32.7545 24.8613 32.5075 24.946 32.1747 24.946C31.9926 24.946 31.8084 24.9194 31.6228 24.8655C31.4372 24.8117 31.2453 24.7209 31.0479 24.5933C30.9976 24.6604 30.946 24.7137 30.8937 24.7518C30.8414 24.7905 30.7862 24.819 30.7283 24.8371C30.6704 24.8559 30.6104 24.8674 30.5483 24.8722C30.4862 24.877 30.4206 24.8795 30.3508 24.8795H30.1011L30.1025 24.8813ZM32.682 23.9895C32.682 23.9157 32.6694 23.8437 32.6443 23.7729C32.6192 23.7021 32.5822 23.6404 32.534 23.5865C32.4859 23.5327 32.4266 23.4904 32.3568 23.4583C32.287 23.4262 32.2054 23.4105 32.1126 23.4105C31.95 23.4105 31.8007 23.4722 31.6654 23.5968C31.5293 23.7209 31.4016 23.9393 31.2816 24.2515C31.4246 24.3319 31.567 24.3967 31.7086 24.4457C31.8496 24.4941 31.994 24.5189 32.1412 24.5189C32.3038 24.5189 32.435 24.4783 32.5333 24.3979C32.6317 24.3174 32.6813 24.1813 32.6813 23.9901L32.682 23.9895Z" fill="white"/>
<path d="M28.2992 9.34678C27.8757 8.71272 27.2952 8.21722 26.5591 7.86086C25.823 7.50511 25.0136 7.32724 24.1296 7.32724C23.2456 7.32724 22.4362 7.50511 21.7001 7.86086C20.964 8.21661 20.3793 8.71212 19.9467 9.34678C19.5135 9.98144 19.2979 10.6972 19.2979 11.494C19.2979 12.2908 19.5141 13.0083 19.9467 13.6466C20.3793 14.2849 20.964 14.7822 21.7001 15.138C21.9625 15.265 22.2346 15.3679 22.5151 15.4496H22.4627L19.6237 17.126L19.6265 19.7095L26.9149 15.4992L26.97 15.4592L25.7183 15.4568C26.0058 15.3745 26.2842 15.2687 26.5514 15.1386C27.2826 14.7828 27.8631 14.2855 28.2915 13.6472C28.7199 13.0089 28.9341 12.2914 28.9341 11.4946C28.9341 10.6978 28.722 9.98204 28.2985 9.34738L28.2992 9.34678ZM25.8362 13.1009C25.4113 13.5032 24.8566 13.6986 24.1373 13.6992C23.4326 13.6992 22.8639 13.499 22.4439 13.1033C22.0232 12.7076 21.8069 12.1619 21.8048 11.4885C21.8027 10.8151 22.0176 10.2712 22.4411 9.87314C22.8646 9.47504 23.4291 9.27538 24.1359 9.27478C24.8427 9.27478 25.4141 9.47504 25.8321 9.87072C26.2507 10.2664 26.4691 10.8121 26.4691 11.4849C26.4691 12.1577 26.2577 12.7022 25.8369 13.1003L25.8362 13.1009Z" fill="#171D35"/>
</svg>
