<svg width="50" height="50" viewBox="0 0 50 50" fill="none" xmlns="http://www.w3.org/2000/svg">
<path d="M25 49.9999C38.8071 49.9999 50 38.807 50 24.9999C50 11.1928 38.8071 -0.00012207 25 -0.00012207C11.1929 -0.00012207 0 11.1928 0 24.9999C0 38.807 11.1929 49.9999 25 49.9999Z" fill="#EAF4FF"/>
<path d="M38.8357 21.1881C38.7688 21.1054 38.6848 21.0385 38.5894 20.9923C38.4941 20.9461 38.3898 20.9217 38.284 20.9207H35.5491C35.0898 19.3145 34.2136 17.8614 33.0114 16.7119C29.5662 14.4292 20.4305 14.4292 16.9853 16.7119C15.7848 17.8628 14.9089 19.3154 14.4476 20.9207H11.7168C11.6103 20.9208 11.5053 20.9448 11.4091 20.9909C11.313 21.0371 11.2283 21.1043 11.1611 21.1876C11.0939 21.271 11.0459 21.3684 11.0206 21.4728C10.9953 21.5772 10.9933 21.6859 11.0148 21.7912L11.4134 23.7605C11.447 23.9234 11.5351 24.0697 11.6629 24.1747C11.7908 24.2797 11.9506 24.3371 12.1154 24.3371H12.9305C12.1764 25.227 11.7638 26.3608 11.7678 27.532C11.7538 28.2036 11.8799 28.8706 12.1379 29.4897C12.396 30.1088 12.7802 30.666 13.2656 31.1253L13.2973 31.1504V33.9135C13.2973 34.2017 13.4107 34.478 13.6124 34.6817C13.8142 34.8854 14.0878 34.9999 14.3731 34.9999H16.8832C17.0245 34.9999 17.1644 34.9718 17.2949 34.9172C17.4254 34.8626 17.544 34.7826 17.6439 34.6817C17.7438 34.5808 17.823 34.4611 17.8771 34.3293C17.9311 34.1975 17.959 34.0562 17.959 33.9135V32.7994H32.0377V33.9135C32.0377 34.2017 32.151 34.478 32.3528 34.6817C32.5545 34.8854 32.8282 34.9999 33.1135 34.9999H35.6263C35.9115 34.9995 36.185 34.8849 36.3866 34.6813C36.5883 34.4776 36.7017 34.2015 36.7021 33.9135V31.2103C37.622 30.3274 38.1683 29.1197 38.2269 27.8396C38.2855 26.5595 37.8518 25.306 37.0166 24.3413H37.8772C38.0434 24.3426 38.2049 24.2853 38.3338 24.1793C38.4627 24.0732 38.5509 23.9252 38.5833 23.7605L38.9874 21.787C39.0071 21.6821 39.0037 21.574 38.9775 21.4706C38.9512 21.3671 38.9029 21.2707 38.8357 21.1881ZM18.1714 18.5252C20.9173 16.7008 29.0876 16.7008 31.8322 18.5252C32.7037 19.5465 33.3354 20.7534 33.6803 22.0558H16.3205C16.6662 20.7532 17.299 19.5463 18.1714 18.5252ZM14.951 27.8092C14.951 27.3867 15.075 26.9737 15.3074 26.6224C15.5398 26.2711 15.8702 25.9972 16.2567 25.8355C16.6432 25.6738 17.0685 25.6314 17.4789 25.7137C17.8892 25.796 18.2662 25.9994 18.5622 26.298C18.8581 26.5967 19.0597 26.9772 19.1415 27.3915C19.2233 27.8059 19.1816 28.2354 19.0217 28.6258C18.8617 29.0162 18.5908 29.35 18.243 29.5849C17.8953 29.8198 17.4864 29.9454 17.068 29.9456C16.7901 29.9458 16.5148 29.8907 16.258 29.7834C16.0011 29.6761 15.7677 29.5188 15.5711 29.3204C15.3745 29.122 15.2186 28.8864 15.1121 28.6271C15.0057 28.3678 14.951 28.0899 14.951 27.8092ZM32.9576 29.9456C32.5392 29.9456 32.1301 29.8203 31.7822 29.5856C31.4343 29.3508 31.1631 29.0172 31.003 28.6268C30.8429 28.2364 30.801 27.8068 30.8826 27.3924C30.9642 26.978 31.1657 26.5973 31.4616 26.2985C31.7575 25.9997 32.1345 25.7962 32.5449 25.7138C32.9553 25.6314 33.3807 25.6737 33.7673 25.8354C34.1538 25.9971 34.4843 26.2709 34.7167 26.6222C34.9492 26.9736 35.0733 27.3866 35.0733 27.8092C35.0733 28.3758 34.8504 28.9192 34.4536 29.3199C34.0569 29.7206 33.5187 29.9456 32.9576 29.9456Z" fill="url(#paint0_linear_578_2860)"/>
<defs>
<linearGradient id="paint0_linear_578_2860" x1="25" y1="34.9999" x2="25" y2="14.9999" gradientUnits="userSpaceOnUse">
<stop stop-color="#5558FF"/>
<stop offset="1" stop-color="#00C0FF"/>
</linearGradient>
</defs>
</svg>
