<?xml version="1.0" encoding="utf-8"?>
<!-- Generator: Adobe Illustrator 26.5.0, SVG Export Plug-In . SVG Version: 6.00 Build 0)  -->
<svg version="1.1" id="Layer_1" xmlns="http://www.w3.org/2000/svg" xmlns:xlink="http://www.w3.org/1999/xlink" x="0px" y="0px"
	 viewBox="0 0 14 14" style="enable-background:new 0 0 14 14;" xml:space="preserve">
<style type="text/css">
	.st0{fill:#45567B;}
</style>
<path class="st0" d="M11.9,2.1C10.6,0.7,8.9,0,7,0C5.1,0,3.4,0.7,2.1,2.1C0.7,3.4,0,5.1,0,7s0.7,3.6,2.1,4.9C3.4,13.3,5.1,14,7,14
	c1.9,0,3.6-0.7,4.9-2.1C13.3,10.6,14,8.9,14,7S13.3,3.4,11.9,2.1z M7,3.2c1.1,0,2,0.9,2,2s-0.9,2-2,2c-1.1,0-2-0.9-2-2
	S5.9,3.2,7,3.2z M7,8.3c1,0,2,0.4,2.7,1.1c0.6,0.6,1,1.4,1.1,2.2C9.8,12.5,8.4,13,7,13s-2.8-0.5-3.8-1.4C3.4,9.7,5,8.3,7,8.3z
	 M8.8,7.7C9.5,7.1,10,6.2,10,5.3c0-1.6-1.3-3-3-3s-3,1.3-3,3c0,0.9,0.4,1.8,1.2,2.4c-0.6,0.2-1.1,0.5-1.5,1C3.1,9.2,2.6,10,2.3,10.8
	C1.5,9.8,1,8.4,1,7c0-3.3,2.7-6,6-6s6,2.7,6,6c0,1.4-0.5,2.8-1.4,3.8C11.4,10,11,9.3,10.4,8.7C9.9,8.3,9.4,7.9,8.8,7.7z"/>
</svg>
