<svg fill="none" height="190" viewBox="0 0 190 190" width="190" xmlns="http://www.w3.org/2000/svg">
  <path
    d="M0.700882 161.701V147.062L14.6497 139.091V154.761L27.6406 162.186V146.789L41.3501 154.624L54.5813 147.063V132.699C54.4611 132.669 54.3481 132.616 54.2491 132.542C54.1502 132.469 54.0672 132.376 54.0052 132.27C53.9431 132.164 53.9034 132.046 53.8882 131.925C53.873 131.803 53.8828 131.679 53.9168 131.561L41.2299 124.311L41.1102 124.242V108.298L54.8197 116.133L68.2898 108.434L81.7604 116.133L94.9911 108.571L94.9911 93.4484L81.2817 85.6126L94.9911 77.7777V62.1062L108.821 70.0111L108.94 70.0794V85.2031L121.267 78.1578C121.233 78.0399 121.224 77.9165 121.239 77.7948C121.254 77.6731 121.294 77.5556 121.356 77.4495C121.418 77.3434 121.501 77.2506 121.6 77.1769C121.699 77.1032 121.812 77.05 121.932 77.0204V47.2582L108.581 39.6281L108.462 39.5603V23.6153L122.293 31.5194L122.412 31.5871V46.9857L135.641 54.5471L148.634 47.1222L135.521 39.6276L135.401 39.5599V23.6153L149.231 31.5194L149.35 31.5871V62.1076L161.678 55.0637C161.643 54.9458 161.633 54.8223 161.648 54.7005C161.663 54.5787 161.703 54.4612 161.765 54.355C161.827 54.2488 161.91 54.156 162.01 54.0824C162.109 54.0087 162.222 53.9556 162.342 53.9263V39.2874L175.573 31.7279L162.582 24.3035L162.342 24.4399V24.1665L162.103 24.0295L162.342 23.893V8.49538L175.147 1.17427C175.098 0.996676 175.103 0.808628 175.162 0.634015C175.221 0.459403 175.331 0.306106 175.478 0.19359C175.626 0.0810738 175.803 0.0144135 175.989 0.00208488C176.175 -0.0102438 176.36 0.0323088 176.521 0.124341C176.682 0.216374 176.812 0.353738 176.894 0.518975C176.976 0.684212 177.007 0.869867 176.982 1.05237C176.957 1.23487 176.878 1.40598 176.755 1.54396C176.632 1.68195 176.47 1.78058 176.29 1.82733V16.1918L190 24.0272L176.53 31.7279L189.641 39.2191L189.761 39.2874V54.6841L190 54.8211L189.761 54.9575V70.3552L176.535 77.9137L189.653 85.4098L189.773 85.4775V101.421L175.942 93.5176L175.822 93.4498V78.3213L175.812 78.327V62.6568L163.248 55.476C163.13 55.5926 162.983 55.6758 162.821 55.7172V70.3524L149.59 77.9133L162.699 85.4083L162.819 85.4761V100.878L175.372 108.053C175.473 107.951 175.597 107.874 175.733 107.827C175.87 107.78 176.015 107.765 176.159 107.783C176.302 107.802 176.439 107.852 176.559 107.931C176.68 108.01 176.78 108.116 176.852 108.24C176.924 108.363 176.967 108.502 176.976 108.645C176.986 108.787 176.962 108.93 176.906 109.062C176.851 109.194 176.765 109.312 176.656 109.405C176.547 109.499 176.418 109.567 176.278 109.603V139.346L189.653 146.99L189.773 147.059V163.004L189.751 162.991V178.127L176.281 185.825V190L176.042 189.863L175.802 189.999V185.825L162.452 178.195L162.332 178.127V162.182L175.374 169.639C175.461 169.551 175.565 169.482 175.679 169.434C175.794 169.387 175.917 169.363 176.041 169.363C176.165 169.363 176.288 169.387 176.402 169.434C176.517 169.482 176.621 169.551 176.708 169.639L189.043 162.587L176.28 155.292V155.307L162.571 147.472L148.863 155.307V139.632L135.521 132.009L135.401 131.941V117.303C135.232 117.258 135.079 117.167 134.959 117.041C134.839 116.915 134.757 116.757 134.723 116.587C134.689 116.417 134.703 116.241 134.765 116.079C134.826 115.916 134.933 115.775 135.072 115.669C135.211 115.563 135.377 115.498 135.551 115.482C135.726 115.465 135.901 115.496 136.058 115.573C136.215 115.65 136.347 115.769 136.44 115.916C136.532 116.064 136.581 116.234 136.581 116.407C136.58 116.489 136.567 116.571 136.544 116.65L149.231 123.901L149.351 123.969V139.087L162.331 131.666V101.14L149.111 93.5849L135.401 101.42V85.75L122.838 78.5701C122.72 78.6866 122.572 78.7698 122.411 78.8114V93.4493L109.606 100.768C109.654 100.926 109.654 101.095 109.606 101.253L122.293 108.504L122.412 108.572V139.348L134.898 146.486C134.985 146.364 135.101 146.265 135.235 146.197C135.369 146.129 135.518 146.094 135.668 146.094C135.819 146.095 135.967 146.132 136.1 146.201C136.234 146.271 136.348 146.371 136.434 146.494C136.52 146.616 136.574 146.757 136.594 146.905C136.613 147.053 136.595 147.203 136.543 147.343C136.491 147.483 136.406 147.609 136.295 147.709C136.183 147.81 136.049 147.882 135.904 147.92V163.004L122.434 155.305V170.429L108.485 178.401V162.455L121.7 154.9L108.701 147.47L96.1339 154.652C96.1572 154.731 96.1696 154.813 96.1708 154.895C96.1715 155.069 96.1229 155.24 96.0306 155.388C95.9382 155.536 95.8057 155.655 95.6481 155.733C95.4906 155.81 95.3143 155.842 95.1393 155.825C94.9643 155.808 94.7976 155.743 94.6581 155.637C94.5186 155.531 94.4119 155.389 94.3501 155.226C94.2884 155.063 94.274 154.886 94.3087 154.715C94.3434 154.545 94.4258 154.387 94.5464 154.26C94.667 154.134 94.8211 154.043 94.9911 153.999V124.242L81.7604 116.679L68.7686 124.105L81.8791 131.598L81.9988 131.666V147.063L82.2382 147.2L81.9988 147.337V162.461L95.3493 170.091L95.4689 170.159V186.102L81.6398 178.199L81.5201 178.131V163.008L68.5292 170.433V170.706L68.2898 170.57L54.5813 178.406V163.493C54.4192 163.452 54.2713 163.369 54.1528 163.252L41.5895 170.431V186.098L28.1194 178.399V178.403L14.2907 170.5L14.171 170.431V155.309L1.84317 162.354C1.86624 162.433 1.87851 162.515 1.87959 162.597C1.88036 162.771 1.83177 162.942 1.73943 163.09C1.64709 163.238 1.51466 163.357 1.35719 163.435C1.19971 163.512 1.02347 163.544 0.848526 163.527C0.673584 163.51 0.506958 163.445 0.367523 163.339C0.228104 163.233 0.121475 163.091 0.0597839 162.928C-0.00190735 162.765 -0.0162048 162.588 0.0185089 162.417C0.0532379 162.247 0.135574 162.089 0.256195 161.963C0.376816 161.836 0.530899 161.746 0.700882 161.701ZM148.872 31.8615L135.88 24.4366V39.2855L148.872 46.7109V31.8615ZM176.301 93.1754L189.293 100.6V85.7514L176.301 78.327V93.1754ZM162.81 163.004V177.853L175.801 185.278V171.187C175.681 171.158 175.568 171.104 175.469 171.031C175.37 170.957 175.287 170.864 175.224 170.758C175.162 170.652 175.123 170.534 175.108 170.413C175.093 170.291 175.103 170.167 175.137 170.049L162.81 163.004ZM176.28 171.187V185.278L189.27 177.852V163.004L176.943 170.049C176.977 170.167 176.987 170.29 176.972 170.412C176.957 170.534 176.917 170.651 176.855 170.757C176.793 170.864 176.71 170.956 176.611 171.03C176.512 171.104 176.399 171.157 176.279 171.186L176.28 171.187ZM28.1194 162.456L41.1107 169.881V155.035L28.1194 147.611V162.456ZM55.06 161.701C55.2217 161.743 55.3693 161.826 55.4876 161.943L67.8111 154.9L55.0596 147.612L55.06 161.701ZM68.0505 139.365V124.515L55.7231 131.561C55.7573 131.679 55.7672 131.802 55.7521 131.924C55.737 132.046 55.6973 132.163 55.6353 132.269C55.5733 132.376 55.4903 132.468 55.3913 132.542C55.2923 132.616 55.1794 132.669 55.0591 132.698V146.789L68.0505 139.365ZM55.0591 130.907C55.2208 130.948 55.3685 131.031 55.4866 131.148L67.8111 124.105L55.0591 116.816V130.907ZM68.2898 139.775L55.2985 147.2L61.2 150.573L68.2898 154.625L81.2812 147.2L75.3796 143.827L68.2898 139.775ZM68.0505 155.309L55.7231 162.355C55.771 162.513 55.771 162.682 55.7231 162.84L68.0505 169.885V155.309ZM41.5885 123.968L54.1523 131.148C54.2709 131.031 54.4186 130.948 54.5803 130.907V116.544L41.5895 109.119L41.5885 123.968ZM108.462 100.115L108.462 86.0239L95.4699 93.4488L95.4699 108.298L107.797 101.252C107.763 101.134 107.753 101.01 107.768 100.889C107.783 100.767 107.823 100.649 107.885 100.543C107.947 100.437 108.03 100.344 108.129 100.27C108.228 100.197 108.341 100.144 108.462 100.115ZM108.462 101.907C108.3 101.866 108.152 101.782 108.034 101.665L95.7102 108.708L108.462 115.996V101.907ZM95.2305 93.0379L108.222 85.6126L101.85 81.971L95.2305 78.1877L82.2392 85.6126L95.2305 93.0379ZM108.462 70.3524L95.4699 62.927V77.7768L108.462 85.2026V70.3524ZM121.932 31.8606L108.94 24.4357V39.2845L121.932 46.7099V31.8606ZM122.411 62.381L126.66 64.8099L135.401 69.8055V54.958L122.411 47.5331V62.381ZM135.88 85.2012L142.376 81.4895L148.872 77.7773V62.9298L142.376 66.642L135.88 70.3543V85.2012ZM148.872 47.5336L135.88 54.958V69.8069L142.376 66.0947L148.872 62.3824V47.5336ZM162.821 53.9253C162.982 53.9664 163.13 54.0495 163.248 54.1661L175.812 46.9857V32.1364L162.821 39.5613V53.9253ZM162.821 8.76694V23.6167L175.812 16.1914V1.82781C175.651 1.78618 175.504 1.70294 175.386 1.58658L162.821 8.76694ZM176.052 16.6023L163.06 24.0272L175.812 31.3156L176.052 31.4525L176.291 31.3156L189.043 24.0272L176.052 16.6023ZM189.282 39.5613L176.291 32.1364V46.9857L189.282 54.4106V39.5613ZM189.282 55.2315L176.291 62.6568V77.5086L189.282 70.0813V55.2315ZM176.051 62.2483L189.043 54.8211L183.142 51.4482L176.053 47.3961L163.486 54.5784C163.534 54.7367 163.534 54.9054 163.486 55.0637L176.051 62.2483ZM162.342 55.7191C162.18 55.6778 162.033 55.5945 161.914 55.4779L149.35 62.6583V77.5067L162.342 70.0803V55.7191ZM162.342 85.7524L149.35 78.3275V93.1759L162.342 100.599V85.7524ZM175.801 109.605C175.601 109.553 175.424 109.437 175.297 109.275C175.17 109.113 175.101 108.914 175.101 108.709C175.102 108.627 175.114 108.545 175.137 108.466L162.81 101.421V116.27L175.801 123.694V109.605ZM162.81 131.666L175.801 139.09V124.242L162.81 116.817V131.666ZM176.301 154.757L189.293 162.182V147.333L176.301 139.907V154.757ZM175.801 139.639L162.81 132.213V147.062L175.801 154.486V139.639ZM148.872 124.243L136.308 117.063C136.19 117.18 136.042 117.263 135.88 117.304V131.667L148.872 139.09V124.243ZM149.342 139.905V154.486L162.331 147.062V132.213L149.35 139.632V139.911L149.342 139.905ZM135.882 100.599L148.872 93.174V78.3261L142.376 82.0378L135.88 85.7505L135.882 100.599ZM135.403 85.2026V70.3547L127.98 66.1117L122.412 62.9298V77.019C122.613 77.071 122.79 77.187 122.917 77.3491C123.043 77.5112 123.112 77.7102 123.113 77.9152C123.112 77.9973 123.099 78.0789 123.076 78.1578L135.403 85.2026ZM121.934 93.1749V78.8114C121.772 78.7701 121.624 78.6868 121.506 78.5701L108.942 85.751L108.942 100.115C109.104 100.156 109.251 100.239 109.369 100.355L121.934 93.1749ZM121.934 108.846L109.367 101.666C109.248 101.782 109.101 101.866 108.939 101.907V116.267L109.178 116.404L121.931 123.692L121.934 108.846ZM121.934 139.638L108.94 132.213V147.062L121.932 154.486L121.934 139.638ZM108.942 131.666L121.934 139.09V124.242L108.942 116.817V131.666ZM135.424 162.182V147.92C135.224 147.868 135.047 147.752 134.92 147.59C134.794 147.428 134.725 147.229 134.724 147.024C134.726 146.995 134.729 146.966 134.733 146.937L122.434 139.907V154.757L135.424 162.182ZM108.963 177.579L121.953 170.154V155.304L108.962 162.729L108.963 177.579ZM95.4699 153.999C95.6316 154.041 95.7791 154.124 95.8974 154.24L108.462 147.061V132.213L95.4699 139.639V153.999ZM108.462 131.666V116.816L95.4699 124.242V139.09L108.462 131.666ZM95.2305 123.831L108.222 116.406L95.2315 108.982L94.9921 109.119L82.2401 116.407L95.2305 123.831ZM68.2898 108.981L55.2985 116.406L68.0505 123.694L68.2898 123.831L68.5292 123.694L81.2807 116.406L68.2898 108.981ZM81.5201 131.94L68.5292 124.515V139.365L81.5201 146.789V131.94ZM81.9988 177.856L94.9902 185.281V170.432L81.9988 163.008V177.856ZM81.5201 162.461V147.611L68.5292 155.036V169.885L81.5201 162.461ZM67.8111 170.296L55.4871 163.252C55.3688 163.369 55.2212 163.452 55.0596 163.493V177.584L67.8111 170.296ZM54.5808 161.701V147.611L41.589 155.035V169.884L53.9163 162.839C53.882 162.721 53.8722 162.597 53.8873 162.476C53.9024 162.354 53.9421 162.236 54.0042 162.13C54.0662 162.024 54.1492 161.931 54.2483 161.858C54.3474 161.784 54.4605 161.731 54.5808 161.701ZM41.1107 185.278V170.431L28.1194 163.007V177.852L41.1107 185.278ZM14.6497 170.16L27.6406 177.584V162.733L14.6497 155.309V170.16ZM14.171 154.764V139.912L1.17964 147.337V161.701C1.34114 161.742 1.48859 161.826 1.60667 161.942L14.171 154.764Z"
    fill="#D1E7FF"/>
</svg>
