<svg fill="none" height="190" viewBox="0 0 191 190" width="191" xmlns="http://www.w3.org/2000/svg">
  <path
    d="M0.704575 161.701V147.062L14.7268 139.091V154.761L27.7861 162.186V146.789L41.5677 154.624L54.8686 147.063V132.699C54.7477 132.669 54.6342 132.616 54.5347 132.542C54.4352 132.469 54.3517 132.376 54.2894 132.27C54.2271 132.164 54.1871 132.046 54.1718 131.925C54.1566 131.803 54.1663 131.679 54.2006 131.561L41.4469 124.311L41.3266 124.242V108.298L55.1082 116.133L68.6493 108.434L82.1907 116.133L95.4911 108.571L95.4911 93.4484L81.7095 85.6126L95.4911 77.7777V62.1062L109.394 70.0111L109.514 70.0794V85.2031L121.906 78.1578C121.871 78.0399 121.862 77.9165 121.877 77.7948C121.892 77.6731 121.932 77.5556 121.994 77.4495C122.057 77.3434 122.14 77.2506 122.24 77.1769C122.339 77.1032 122.453 77.05 122.574 77.0204V47.2582L109.153 39.6281L109.033 39.5603V23.6153L122.936 31.5194L123.057 31.5871V46.9857L136.355 54.5471L149.416 47.1222L136.234 39.6276L136.114 39.5599V23.6153L150.016 31.5194L150.136 31.5871V62.1076L162.529 55.0637C162.494 54.9458 162.484 54.8223 162.499 54.7005C162.514 54.5787 162.554 54.4612 162.617 54.355C162.679 54.2488 162.763 54.156 162.862 54.0824C162.962 54.0087 163.076 53.9556 163.197 53.9263V39.2874L176.497 31.7279L163.437 24.3035L163.197 24.4399V24.1665L162.956 24.0295L163.197 23.893V8.49538L176.069 1.17427C176.019 0.996676 176.025 0.808628 176.084 0.634015C176.143 0.459403 176.254 0.306106 176.402 0.19359C176.55 0.0810738 176.729 0.0144135 176.915 0.00208488C177.102 -0.0102438 177.288 0.0323088 177.45 0.124341C177.612 0.216374 177.742 0.353738 177.825 0.518975C177.907 0.684212 177.938 0.869867 177.913 1.05237C177.888 1.23487 177.809 1.40598 177.685 1.54396C177.561 1.68195 177.399 1.78058 177.218 1.82733V16.1918L191 24.0272L177.459 31.7279L190.639 39.2191L190.759 39.2874V54.6841L191 54.8211L190.759 54.9575V70.3552L177.464 77.9137L190.651 85.4098L190.771 85.4775V101.421L176.868 93.5176L176.748 93.4498V78.3213L176.738 78.327V62.6568L164.108 55.476C163.989 55.5926 163.84 55.6758 163.678 55.7172V70.3524L150.377 77.9133L163.556 85.4083L163.676 85.4761V100.878L176.295 108.053C176.397 107.951 176.521 107.874 176.658 107.827C176.796 107.78 176.942 107.765 177.086 107.783C177.23 107.802 177.368 107.852 177.489 107.931C177.61 108.01 177.71 108.116 177.783 108.24C177.856 108.363 177.898 108.502 177.908 108.645C177.917 108.787 177.893 108.93 177.837 109.062C177.781 109.194 177.695 109.312 177.586 109.405C177.476 109.499 177.346 109.567 177.206 109.603V139.346L190.651 146.99L190.771 147.059V163.004L190.75 162.991V178.127L177.209 185.825V190L176.968 189.863L176.727 189.999V185.825L163.307 178.195L163.186 178.127V162.182L176.297 169.639C176.384 169.551 176.489 169.482 176.604 169.434C176.719 169.387 176.843 169.363 176.967 169.363C177.092 169.363 177.216 169.387 177.331 169.434C177.446 169.482 177.55 169.551 177.638 169.639L190.038 162.587L177.208 155.292V155.307L163.427 147.472L149.647 155.307V139.632L136.234 132.009L136.114 131.941V117.303C135.944 117.258 135.79 117.167 135.669 117.041C135.549 116.915 135.467 116.757 135.432 116.587C135.398 116.417 135.412 116.241 135.474 116.079C135.536 115.916 135.643 115.775 135.783 115.669C135.922 115.563 136.089 115.498 136.265 115.482C136.44 115.465 136.616 115.496 136.774 115.573C136.932 115.65 137.065 115.769 137.158 115.916C137.251 116.064 137.3 116.234 137.299 116.407C137.298 116.489 137.286 116.571 137.263 116.65L150.017 123.901L150.137 123.969V139.087L163.186 131.666V101.14L149.896 93.5849L136.114 101.42V85.75L123.485 78.5701C123.366 78.6866 123.217 78.7698 123.055 78.8114V93.4493L110.183 100.768C110.231 100.926 110.231 101.095 110.183 101.253L122.936 108.504L123.057 108.572V139.348L135.608 146.486C135.696 146.364 135.812 146.265 135.947 146.197C136.081 146.129 136.231 146.094 136.382 146.094C136.534 146.095 136.683 146.132 136.817 146.201C136.951 146.271 137.066 146.371 137.152 146.494C137.238 146.616 137.293 146.757 137.312 146.905C137.332 147.053 137.314 147.203 137.262 147.343C137.21 147.483 137.124 147.609 137.012 147.709C136.9 147.81 136.765 147.882 136.619 147.92V163.004L123.078 155.305V170.429L109.056 178.401V162.455L122.341 154.9L109.273 147.47L96.6399 154.652C96.6633 154.731 96.6757 154.813 96.677 154.895C96.6777 155.069 96.6289 155.24 96.536 155.388C96.4431 155.536 96.3099 155.655 96.1516 155.733C95.9932 155.81 95.816 155.842 95.64 155.825C95.4641 155.808 95.2965 155.743 95.1563 155.637C95.016 155.531 94.9088 155.389 94.8467 155.226C94.7846 155.063 94.7702 154.886 94.8051 154.715C94.84 154.545 94.9227 154.387 95.044 154.26C95.1653 154.134 95.3202 154.043 95.4911 153.999V124.242L82.1907 116.679L69.1305 124.105L82.3101 131.598L82.4304 131.666V147.063L82.671 147.2L82.4304 147.337V162.461L95.8511 170.091L95.9714 170.159V186.102L82.0694 178.199L81.9491 178.131V163.008L68.8899 170.433V170.706L68.6493 170.57L54.8686 178.406V163.493C54.7056 163.452 54.5569 163.369 54.4378 163.252L41.8084 170.431V186.098L28.2674 178.399V178.403L14.3659 170.5L14.2456 170.431V155.309L1.85287 162.354C1.87607 162.433 1.8884 162.515 1.88948 162.597C1.89024 162.771 1.84142 162.942 1.74858 163.09C1.65576 163.238 1.52264 163.357 1.36433 163.435C1.20602 163.512 1.02885 163.544 0.852982 163.527C0.677124 163.51 0.509628 163.445 0.369461 163.339C0.229309 163.233 0.122116 163.091 0.0601044 162.928C-0.00192261 162.765 -0.0162964 162.588 0.0186157 162.417C0.0535126 162.247 0.136292 162.089 0.257553 161.963C0.378799 161.836 0.533691 161.746 0.704575 161.701ZM149.655 31.8615L136.595 24.4366V39.2855L149.655 46.7109V31.8615ZM177.229 93.1754L190.289 100.6V85.7514L177.229 78.327V93.1754ZM163.667 163.004V177.853L176.727 185.278V171.187C176.606 171.158 176.492 171.104 176.392 171.031C176.293 170.957 176.209 170.864 176.147 170.758C176.084 170.652 176.044 170.534 176.029 170.413C176.014 170.291 176.024 170.167 176.059 170.049L163.667 163.004ZM177.208 171.187V185.278L190.266 177.852V163.004L177.874 170.049C177.909 170.167 177.918 170.29 177.903 170.412C177.888 170.534 177.848 170.651 177.786 170.757C177.723 170.864 177.64 170.956 177.54 171.03C177.441 171.104 177.327 171.157 177.206 171.186L177.208 171.187ZM28.2674 162.456L41.3271 169.881V155.035L28.2674 147.611V162.456ZM55.3498 161.701C55.5123 161.743 55.6607 161.826 55.7796 161.943L68.168 154.9L55.3493 147.612L55.3498 161.701ZM68.4086 139.365V124.515L56.0164 131.561C56.0508 131.679 56.0607 131.802 56.0455 131.924C56.0303 132.046 55.9904 132.163 55.9281 132.269C55.8658 132.376 55.7824 132.468 55.6829 132.542C55.5834 132.616 55.4698 132.669 55.3489 132.698V146.789L68.4086 139.365ZM55.3489 130.907C55.5115 130.948 55.6599 131.031 55.7787 131.148L68.168 124.105L55.3489 116.816V130.907ZM68.6493 139.775L55.5895 147.2L61.5221 150.573L68.6493 154.625L81.709 147.2L75.7764 143.827L68.6493 139.775ZM68.4086 155.309L56.0164 162.355C56.0645 162.513 56.0645 162.682 56.0164 162.84L68.4086 169.885V155.309ZM41.8074 123.968L54.4373 131.148C54.5565 131.031 54.705 130.948 54.8676 130.907V116.544L41.8084 109.119L41.8074 123.968ZM109.033 100.115L109.033 86.0239L95.9724 93.4488L95.9724 108.298L108.365 101.252C108.33 101.134 108.32 101.01 108.335 100.889C108.35 100.767 108.39 100.649 108.452 100.543C108.515 100.437 108.598 100.344 108.698 100.27C108.798 100.197 108.912 100.144 109.033 100.115ZM109.033 101.907C108.87 101.866 108.721 101.782 108.602 101.665L96.214 108.708L109.033 115.996V101.907ZM95.7317 93.0379L108.791 85.6126L102.386 81.971L95.7317 78.1877L82.672 85.6126L95.7317 93.0379ZM109.033 70.3524L95.9724 62.927V77.7768L109.033 85.2026V70.3524ZM122.574 31.8606L109.514 24.4357V39.2845L122.574 46.7099V31.8606ZM123.055 62.381L127.327 64.8099L136.114 69.8055V54.958L123.055 47.5331V62.381ZM136.595 85.2012L143.125 81.4895L149.655 77.7773V62.9298L143.125 66.642L136.595 70.3543V85.2012ZM149.655 47.5336L136.595 54.958V69.8069L143.125 66.0947L149.655 62.3824V47.5336ZM163.678 53.9253C163.84 53.9664 163.988 54.0495 164.107 54.1661L176.738 46.9857V32.1364L163.678 39.5613V53.9253ZM163.678 8.76694V23.6167L176.738 16.1914V1.82781C176.576 1.78618 176.428 1.70294 176.309 1.58658L163.678 8.76694ZM176.978 16.6023L163.918 24.0272L176.738 31.3156L176.978 31.4525L177.219 31.3156L190.037 24.0272L176.978 16.6023ZM190.278 39.5613L177.219 32.1364V46.9857L190.278 54.4106V39.5613ZM190.278 55.2315L177.219 62.6568V77.5086L190.278 70.0813V55.2315ZM176.978 62.2483L190.037 54.8211L184.106 51.4482L176.979 47.3961L164.346 54.5784C164.394 54.7367 164.394 54.9054 164.346 55.0637L176.978 62.2483ZM163.197 55.7191C163.034 55.6778 162.885 55.5945 162.766 55.4779L150.136 62.6583V77.5067L163.197 70.0803V55.7191ZM163.197 85.7524L150.136 78.3275V93.1759L163.197 100.599V85.7524ZM176.727 109.605C176.525 109.553 176.347 109.437 176.22 109.275C176.092 109.113 176.023 108.914 176.022 108.709C176.023 108.627 176.036 108.545 176.059 108.466L163.667 101.421V116.27L176.727 123.694V109.605ZM163.667 131.666L176.727 139.09V124.242L163.667 116.817V131.666ZM177.229 154.757L190.289 162.182V147.333L177.229 139.907V154.757ZM176.727 139.639L163.667 132.213V147.062L176.727 154.486V139.639ZM149.655 124.243L137.025 117.063C136.906 117.18 136.758 117.263 136.595 117.304V131.667L149.655 139.09V124.243ZM150.128 139.905V154.486L163.186 147.062V132.213L150.136 139.632V139.911L150.128 139.905ZM136.597 100.599L149.655 93.174V78.3261L143.125 82.0378L136.595 85.7505L136.597 100.599ZM136.116 85.2026V70.3547L128.653 66.1117L123.057 62.9298V77.019C123.258 77.071 123.436 77.187 123.564 77.3491C123.691 77.5112 123.76 77.7102 123.761 77.9152C123.76 77.9973 123.747 78.0789 123.724 78.1578L136.116 85.2026ZM122.576 93.1749V78.8114C122.413 78.7701 122.265 78.6868 122.146 78.5701L109.516 85.751L109.516 100.115C109.678 100.156 109.826 100.239 109.945 100.355L122.576 93.1749ZM122.576 108.846L109.942 101.666C109.823 101.782 109.675 101.866 109.512 101.907V116.267L109.753 116.404L122.573 123.692L122.576 108.846ZM122.576 139.638L109.514 132.213V147.062L122.574 154.486L122.576 139.638ZM109.516 131.666L122.576 139.09V124.242L109.516 116.817V131.666ZM136.137 162.182V147.92C135.936 147.868 135.758 147.752 135.63 147.59C135.503 147.428 135.434 147.229 135.433 147.024C135.435 146.995 135.438 146.966 135.442 146.937L123.078 139.907V154.757L136.137 162.182ZM109.537 177.579L122.595 170.154V155.304L109.535 162.729L109.537 177.579ZM95.9724 153.999C96.1349 154.041 96.2832 154.124 96.4021 154.24L109.033 147.061V132.213L95.9724 139.639V153.999ZM109.033 131.666V116.816L95.9724 124.242V139.09L109.033 131.666ZM95.7317 123.831L108.792 116.406L95.7327 108.982L95.4921 109.119L82.673 116.407L95.7317 123.831ZM68.6493 108.981L55.5895 116.406L68.4086 123.694L68.6493 123.831L68.8899 123.694L81.7085 116.406L68.6493 108.981ZM81.9491 131.94L68.8899 124.515V139.365L81.9491 146.789V131.94ZM82.4304 177.856L95.4901 185.281V170.432L82.4304 163.008V177.856ZM81.9491 162.461V147.611L68.8899 155.036V169.885L81.9491 162.461ZM68.168 170.296L55.7791 163.252C55.6602 163.369 55.5118 163.452 55.3493 163.493V177.584L68.168 170.296ZM54.8681 161.701V147.611L41.8079 155.035V169.884L54.2001 162.839C54.1656 162.721 54.1557 162.597 54.1709 162.476C54.1861 162.354 54.226 162.236 54.2884 162.13C54.3508 162.024 54.4342 161.931 54.5338 161.858C54.6335 161.784 54.7471 161.731 54.8681 161.701ZM41.3271 185.278V170.431L28.2674 163.007V177.852L41.3271 185.278ZM14.7268 170.16L27.7861 177.584V162.733L14.7268 155.309V170.16ZM14.2456 154.764V139.912L1.18585 147.337V161.701C1.34821 161.742 1.49643 161.826 1.61513 161.942L14.2456 154.764Z"
    fill="#FFE3BC"/>
</svg>
