<svg width="20" height="20" viewBox="0 0 20 20" fill="none" xmlns="http://www.w3.org/2000/svg">
<g clip-path="url(#clip0_865_7687)">
<path fill-rule="evenodd" clip-rule="evenodd" d="M13.0962 3.09637C13.0962 2.77277 12.8339 2.51044 12.5103 2.51044H0.585762C0.262157 2.51044 -0.000175476 2.77277 -0.000175476 3.09637C-0.000175476 3.41998 0.262157 3.68231 0.585762 3.68231H12.5103C12.8339 3.68231 13.0962 3.41998 13.0962 3.09637Z" fill="#171D35"/>
<path fill-rule="evenodd" clip-rule="evenodd" d="M13.0962 10C13.0962 9.6764 12.8339 9.41406 12.5103 9.41406H0.585762C0.262157 9.41406 -0.000175476 9.6764 -0.000175476 10C-0.000175476 10.3236 0.262157 10.5859 0.585762 10.5859H12.5103C12.8339 10.5859 13.0962 10.3236 13.0962 10Z" fill="#171D35"/>
<path fill-rule="evenodd" clip-rule="evenodd" d="M13.0962 16.9036C13.0962 16.58 12.8339 16.3177 12.5103 16.3177H0.585762C0.262157 16.3177 -0.000175476 16.58 -0.000175476 16.9036C-0.000175476 17.2272 0.262157 17.4896 0.585762 17.4896H12.5103C12.8339 17.4896 13.0962 17.2272 13.0962 16.9036Z" fill="#171D35"/>
<path fill-rule="evenodd" clip-rule="evenodd" d="M17.5312 1.7995C18.2475 1.7995 18.8281 2.38013 18.8281 3.09637C18.8281 3.81262 18.2475 4.39325 17.5312 4.39325C16.815 4.39325 16.2344 3.81262 16.2344 3.09637C16.2344 2.38013 16.815 1.7995 17.5312 1.7995ZM20 3.09637C20 1.73292 18.8947 0.627625 17.5312 0.627625C16.1678 0.627625 15.0625 1.73292 15.0625 3.09637C15.0625 4.45983 16.1678 5.56512 17.5312 5.56512C18.8947 5.56512 20 4.45983 20 3.09637Z" fill="#171D35"/>
<path fill-rule="evenodd" clip-rule="evenodd" d="M17.5312 8.70312C18.2475 8.70312 18.8281 9.28376 18.8281 10C18.8281 10.7162 18.2475 11.2969 17.5312 11.2969C16.815 11.2969 16.2344 10.7162 16.2344 10C16.2344 9.28376 16.815 8.70312 17.5312 8.70312ZM20 10C20 8.63655 18.8947 7.53125 17.5312 7.53125C16.1678 7.53125 15.0625 8.63655 15.0625 10C15.0625 11.3635 16.1678 12.4688 17.5312 12.4688C18.8947 12.4688 20 11.3635 20 10Z" fill="#171D35"/>
<path fill-rule="evenodd" clip-rule="evenodd" d="M17.5312 15.6068C18.2475 15.6068 18.8281 16.1874 18.8281 16.9036C18.8281 17.6199 18.2475 18.2005 17.5312 18.2005C16.815 18.2005 16.2344 17.6199 16.2344 16.9036C16.2344 16.1874 16.815 15.6068 17.5312 15.6068ZM20 16.9036C20 15.5402 18.8947 14.4349 17.5312 14.4349C16.1678 14.4349 15.0625 15.5402 15.0625 16.9036C15.0625 18.2671 16.1678 19.3724 17.5312 19.3724C18.8947 19.3724 20 18.2671 20 16.9036Z" fill="#171D35"/>
</g>
<defs>
<clipPath id="clip0_865_7687">
<rect width="20" height="20" fill="white" transform="matrix(-1 0 0 1 20 0)"/>
</clipPath>
</defs>
</svg>
