<svg width="20" height="20" viewBox="0 0 20 20" fill="none" xmlns="http://www.w3.org/2000/svg">
<g clip-path="url(#clip0_865_7744)">
<path d="M18.6703 10.2591C18.5898 10.0944 18.5898 9.90558 18.6703 9.74097L19.4162 8.215C19.8315 7.36536 19.5024 6.35267 18.6671 5.90943L17.1667 5.11334C17.0048 5.02748 16.8938 4.87467 16.8622 4.69424L16.5687 3.02124C16.4053 2.08977 15.5437 1.46383 14.6075 1.59629L12.9257 1.83418C12.7442 1.85981 12.5647 1.80145 12.433 1.67406L11.2123 0.493134C10.5326 -0.16444 9.46774 -0.164479 8.78806 0.493134L7.56728 1.67418C7.43556 1.8016 7.25607 1.85985 7.07459 1.8343L5.39284 1.59641C4.45632 1.46387 3.595 2.08988 3.4316 3.02136L3.13817 4.69428C3.10649 4.87475 2.99551 5.02752 2.83368 5.11342L1.3333 5.90951C0.49791 6.35271 0.168849 7.36548 0.584159 8.21512L1.33005 9.74105C1.41052 9.9057 1.41052 10.0945 1.33005 10.2591L0.58412 11.7851C0.16881 12.6347 0.497871 13.6474 1.33326 14.0906L2.83364 14.8867C2.99551 14.9726 3.10649 15.1254 3.13817 15.3058L3.4316 16.9788C3.58035 17.8268 4.30746 18.4215 5.14312 18.4214C5.22542 18.4214 5.30894 18.4156 5.39288 18.4037L7.07463 18.1658C7.256 18.1401 7.4356 18.1986 7.56732 18.326L8.78806 19.5069C9.12798 19.8357 9.56399 20.0001 10.0002 20.0001C10.4362 20 10.8725 19.8356 11.2123 19.5069L12.433 18.326C12.5648 18.1986 12.7443 18.1404 12.9257 18.1658L14.6075 18.4037C15.5441 18.5362 16.4053 17.9103 16.5687 16.9788L16.8622 15.3059C16.8939 15.1254 17.0048 14.9726 17.1667 14.8867L18.6671 14.0906C19.5024 13.6474 19.8315 12.6347 19.4162 11.785L18.6703 10.2591ZM18.1264 13.0716L16.626 13.8677C16.1477 14.1216 15.8196 14.5731 15.726 15.1065L15.4326 16.7794C15.3773 17.0946 15.0859 17.3063 14.769 17.2616L13.0873 17.0237C12.551 16.9477 12.0203 17.1203 11.631 17.4968L10.4102 18.6777C10.1803 18.9001 9.82004 18.9001 9.59004 18.6777L8.36931 17.4968C8.04033 17.1785 7.61025 17.0061 7.16127 17.0061C7.079 17.0061 6.99607 17.0119 6.91303 17.0236L5.23128 17.2615C4.91464 17.3063 4.62304 17.0946 4.56773 16.7794L4.27426 15.1064C4.18066 14.573 3.85262 14.1215 3.37422 13.8677L1.87384 13.0716C1.59118 12.9216 1.47986 12.579 1.62036 12.2915L2.3663 10.7656C2.60411 10.279 2.60411 9.72097 2.3663 9.23441L1.62036 7.70844C1.47986 7.42098 1.59118 7.07837 1.87384 6.92841L3.37422 6.13232C3.85258 5.87845 4.18066 5.42697 4.27422 4.89354L4.56765 3.22058C4.62296 2.90543 4.91429 2.69371 5.2312 2.73847L6.91295 2.97636C7.44908 3.05226 7.97998 2.87972 8.36923 2.5032L9.59 1.32227C9.81993 1.09985 10.1802 1.09985 10.4102 1.32227L11.6309 2.5032C12.0202 2.87976 12.551 3.05226 13.0872 2.97636L14.769 2.73847C15.0856 2.69367 15.3772 2.90543 15.4325 3.22058L15.7259 4.89358C15.8195 5.42701 16.1476 5.87853 16.626 6.13232L18.1264 6.92841C18.409 7.07837 18.5203 7.42098 18.3798 7.70844L17.6339 9.23437C17.3961 9.72089 17.3961 10.279 17.6339 10.7655L18.3798 12.2915C18.5204 12.579 18.4091 12.9217 18.1264 13.0716Z" fill="#171D35"/>
<path d="M14.2141 5.78575C13.9889 5.56051 13.6237 5.56051 13.3984 5.78575L5.78562 13.3986C5.56039 13.6238 5.56039 13.989 5.78562 14.2143C5.89824 14.3269 6.04586 14.3832 6.19343 14.3832C6.34101 14.3832 6.48867 14.3269 6.60124 14.2143L14.2141 6.60144C14.4394 6.37617 14.4394 6.01102 14.2141 5.78575Z" fill="#171D35"/>
<path d="M7.69292 4.8092C6.52683 4.8092 5.57812 5.75791 5.57812 6.924C5.57812 8.09008 6.52683 9.03879 7.69292 9.03879C8.859 9.03879 9.80771 8.09008 9.80771 6.924C9.80771 5.75791 8.859 4.8092 7.69292 4.8092ZM7.69292 7.88524C7.16288 7.88524 6.73167 7.45403 6.73167 6.92396C6.73167 6.39392 7.16288 5.96271 7.69292 5.96271C8.22295 5.96271 8.6542 6.39392 8.6542 6.92396C8.65416 7.45403 8.22295 7.88524 7.69292 7.88524Z" fill="#171D35"/>
<path d="M12.3072 10.9613C11.1411 10.9613 10.1924 11.91 10.1924 13.0761C10.1924 14.2422 11.1411 15.1909 12.3072 15.1909C13.4733 15.1909 14.422 14.2422 14.422 13.0761C14.422 11.91 13.4733 10.9613 12.3072 10.9613ZM12.3072 14.0373C11.7771 14.0373 11.3459 13.6061 11.3459 13.0761C11.3459 12.546 11.7771 12.1148 12.3072 12.1148C12.8372 12.1148 13.2684 12.546 13.2684 13.0761C13.2684 13.6061 12.8372 14.0373 12.3072 14.0373Z" fill="#171D35"/>
</g>
<defs>
<clipPath id="clip0_865_7744">
<rect width="20" height="20" fill="white"/>
</clipPath>
</defs>
</svg>
