<svg width="20" height="20" viewBox="0 0 20 20" fill="none" xmlns="http://www.w3.org/2000/svg">
<path fill-rule="evenodd" clip-rule="evenodd" d="M9.42776 19.4017C9.42776 19.735 9.6946 20 10.0303 20C10.366 20 10.6328 19.735 10.6328 19.4017V0.598291C10.6328 0.264957 10.366 0 10.0303 0C9.6946 0 9.42776 0.264957 9.42776 0.598291V19.4017ZM7.62007 18.0598H3.55724C2.42102 18.0598 1.5 17.1453 1.5 16.0171V3.98292C1.5 2.85472 2.42102 1.94019 3.55724 1.94019H7.61147C7.96438 1.94019 8.25704 2.23078 8.25704 2.58121C8.25704 2.93164 7.96438 3.22224 7.61147 3.22224H3.55724C3.13546 3.22224 2.79115 3.56412 2.79115 3.98292V15.4616L7.12944 10.5727C7.3102 10.3761 7.58564 10.2992 7.84387 10.3932C8.0935 10.4872 8.25704 10.7265 8.25704 10.9915V17.4103C8.25704 17.7607 7.96438 18.0513 7.61147 18.0513L7.62007 18.0598ZM16.443 18.0598H12.3887C12.0358 18.0598 11.7432 17.7692 11.7432 17.4188V11C11.7432 10.7351 11.9067 10.4957 12.1563 10.4017C12.406 10.3077 12.69 10.3761 12.8708 10.5812L17.2091 15.4616V3.98292C17.2091 3.56412 16.8647 3.22224 16.443 3.22224H12.3887C12.0358 3.22224 11.7432 2.93164 11.7432 2.58121C11.7432 2.23078 12.0358 1.94019 12.3887 1.94019H16.443C17.5792 1.94019 18.5002 2.85472 18.5002 3.98292V16.0171C18.5002 17.1453 17.5792 18.0598 16.443 18.0598ZM13.0343 16.7778H16.443C16.5118 16.7778 16.5807 16.7692 16.6409 16.7522L13.0343 12.6923V16.7778Z" fill="#171D35"/>
</svg>
