<svg width="20" height="20" viewBox="0 0 20 20" fill="none" xmlns="http://www.w3.org/2000/svg">
<g clip-path="url(#clip0_872_7833)">
<path fill-rule="evenodd" clip-rule="evenodd" d="M0 8.7084C0 10.0891 1.11928 11.2084 2.5 11.2084H17.5C18.8807 11.2084 20 10.0891 20 8.7084V5.5834C20 5.23823 19.7202 4.9584 19.375 4.9584H0.625C0.279822 4.9584 0 5.23823 0 5.5834V8.7084ZM2.5 9.9584C1.80964 9.9584 1.25 9.39877 1.25 8.7084V6.2084H18.75V8.7084C18.75 9.39877 18.1904 9.9584 17.5 9.9584H2.5Z" fill="#171D35"/>
<path fill-rule="evenodd" clip-rule="evenodd" d="M0.183058 6.02541C0.427136 6.26948 0.822864 6.26948 1.06694 6.02541L4.63388 2.45847H15.3661L18.9331 6.02541C19.1771 6.26948 19.5729 6.26948 19.8169 6.02541C20.061 5.78133 20.061 5.3856 19.8169 5.14152L16.0669 1.39152C15.9497 1.27431 15.7908 1.20847 15.625 1.20847H4.375C4.20924 1.20847 4.05027 1.27431 3.93306 1.39152L0.183058 5.14152C-0.0610194 5.3856 -0.0610194 5.78133 0.183058 6.02541Z" fill="#171D35"/>
<path fill-rule="evenodd" clip-rule="evenodd" d="M1.25049 19.3751C1.25049 19.7203 1.53031 20.0001 1.87549 20.0001H18.1255C18.4707 20.0001 18.7505 19.7203 18.7505 19.3751V10.4767C18.7505 10.1315 18.4707 9.85172 18.1255 9.85172C17.7803 9.85172 17.5005 10.1315 17.5005 10.4767V18.7501H2.50049V10.4767C2.50049 10.1315 2.22067 9.85172 1.87549 9.85172C1.53031 9.85172 1.25049 10.1315 1.25049 10.4767V19.3751Z" fill="#171D35"/>
<path fill-rule="evenodd" clip-rule="evenodd" d="M4.37549 20.0001C4.72067 20.0001 5.00049 19.7203 5.00049 19.3751V13.7084H7.50049V19.3751C7.50049 19.7203 7.78031 20.0001 8.12549 20.0001C8.47067 20.0001 8.75049 19.7203 8.75049 19.3751V13.0834C8.75049 12.7382 8.47067 12.4584 8.12549 12.4584H4.37549C4.03031 12.4584 3.75049 12.7382 3.75049 13.0834V19.3751C3.75049 19.7203 4.03031 20.0001 4.37549 20.0001Z" fill="#171D35"/>
<path fill-rule="evenodd" clip-rule="evenodd" d="M10 15.5833C10 15.9285 10.2798 16.2083 10.625 16.2083H15.625C15.9702 16.2083 16.25 15.9285 16.25 15.5833V13.0833C16.25 12.7382 15.9702 12.4583 15.625 12.4583H10.625C10.2798 12.4583 10 12.7382 10 13.0833V15.5833ZM11.25 14.9583V13.7083H15V14.9583H11.25Z" fill="#171D35"/>
</g>
<defs>
<clipPath id="clip0_872_7833">
<rect width="20" height="20" fill="white"/>
</clipPath>
</defs>
</svg>
