<svg fill="none" height="20" viewBox="0 0 20 20" width="20" xmlns="http://www.w3.org/2000/svg">
  <g clip-path="url(#clip0_1350_1782)">
    <path
      d="M4.05777 2.87415L3.63281 2.99561V8.04688H10.2734V2.99561L9.84848 2.87415C7.95441 2.33292 5.95184 2.33292 4.05777 2.87415ZM9.10156 6.87501H4.80469V3.89024C6.21857 3.55683 7.68768 3.55683 9.10156 3.89024V6.87501Z"
      fill="#171D35"/>
    <path
      d="M7.49734 10.9988L6.40939 10.5637L5.07227 13.9062H7.10352L6.40939 15.6418L7.49734 16.077L8.83447 12.7344H6.80322L7.49734 10.9988Z"
      fill="#171D35"/>
    <path
      d="M19.4141 1.95312V0H18.2422V1.95312H16.6797V0H15.5078V1.95312H14.9219V4.14062C14.9219 5.33905 15.7567 6.34537 16.875 6.61072V14.707C16.875 15.1271 16.5334 15.4688 16.1133 15.4688C15.6932 15.4688 15.3516 15.1271 15.3516 14.707V10.2148C15.3516 9.14871 14.4841 8.28125 13.418 8.28125H13.3789C13.1085 8.28125 12.8511 8.33725 12.6172 8.43796V1.75781C12.6172 0.788574 11.8286 0 10.8594 0H3.04688C2.07764 0 1.28906 0.788574 1.28906 1.75781V18.8281H0V20H13.9062V18.8281H12.6172V10.2148C12.6172 9.79477 12.9588 9.45312 13.3789 9.45312H13.418C13.838 9.45312 14.1797 9.79477 14.1797 10.2148V14.707C14.1797 15.7732 15.0471 16.6406 16.1133 16.6406C17.1794 16.6406 18.0469 15.7732 18.0469 14.707V6.61072C19.1652 6.34537 20 5.33905 20 4.14062V1.95312H19.4141ZM11.4453 18.8281H2.46094V1.75781C2.46094 1.43478 2.72385 1.17188 3.04688 1.17188H10.8594C11.1824 1.17188 11.4453 1.43478 11.4453 1.75781V18.8281ZM18.8281 4.14062C18.8281 4.89456 18.2149 5.50781 17.4609 5.50781C16.707 5.50781 16.0938 4.89456 16.0938 4.14062V3.125H18.8281V4.14062Z"
      fill="#171D35"/>
  </g>
  <defs>
    <clipPath id="clip0_1350_1782">
      <rect fill="white" height="20" width="20"/>
    </clipPath>
  </defs>
</svg>
