<svg width="20" height="20" viewBox="0 0 20 20" fill="none" xmlns="http://www.w3.org/2000/svg">
<path d="M16.6537 10.7877C16.3277 10.7877 16.0636 11.0519 16.0636 11.3778V17.4415H12.8082V11.3778C12.8082 11.0519 12.544 10.7877 12.2181 10.7877H7.78194C7.45596 10.7877 7.19181 11.0519 7.19181 11.3778V17.4415H3.93612V11.3778C3.93612 11.0519 3.67197 10.7877 3.34599 10.7877C3.02 10.7877 2.75586 11.0519 2.75586 11.3778V18.0316C2.75586 18.3575 3.02 18.6218 3.34599 18.6218H7.78194H12.2181H16.6537C16.9797 18.6218 17.2438 18.3575 17.2438 18.0316V11.3778C17.2438 11.0519 16.9796 10.7877 16.6537 10.7877ZM8.37207 17.4415V11.9679H11.6279V17.4415H8.37207Z" fill="#171D35"/>
<path d="M19.8271 10.9605L10.4168 1.55101C10.1865 1.32054 9.81279 1.32062 9.58225 1.55101L0.172849 10.9605C-0.0576162 11.191 -0.0576162 11.5646 0.172849 11.795C0.403392 12.0255 0.776983 12.0255 1.00745 11.795L9.99959 2.80287L18.9926 11.7951C19.1078 11.9103 19.2589 11.9679 19.4099 11.9679C19.5608 11.9679 19.7119 11.9103 19.8272 11.795C20.0576 11.5646 20.0576 11.191 19.8271 10.9605Z" fill="#171D35"/>
</svg>
