<svg width="40" height="40" viewBox="0 0 40 40" fill="none" xmlns="http://www.w3.org/2000/svg">
<circle cx="20" cy="20" r="20" fill="#F6F7F8"/>
<path d="M12.8891 11.0156C11.5142 11.0156 10.6152 11.9184 10.6152 13.1051C10.6152 14.2655 11.4874 15.1941 12.8363 15.1941H12.8624C14.2642 15.1941 15.1366 14.2655 15.1366 13.1051C15.1104 11.9184 14.2642 11.0156 12.8891 11.0156Z" fill="#6A7791"/>
<path d="M10.8528 16.8451H14.8722V28.9376H10.8528V16.8451Z" fill="#6A7791"/>
<path d="M24.738 16.5613C22.5697 16.5613 21.1157 18.5988 21.1157 18.5988V16.8451H17.0962V28.9376H21.1155V22.1847C21.1155 21.8232 21.1417 21.4622 21.2479 21.2037C21.5384 20.4818 22.1997 19.7339 23.3101 19.7339C24.7645 19.7339 25.3462 20.8429 25.3462 22.4685V28.9376H29.3653V22.004C29.3653 18.2897 27.3823 16.5613 24.738 16.5613Z" fill="#6A7791"/>
</svg>
