<svg width="20" height="20" viewBox="0 0 20 20" fill="none" xmlns="http://www.w3.org/2000/svg">
<g clip-path="url(#clip0_865_7701)">
<path d="M15.8594 5.3125C15.8594 5.63614 16.1217 5.89844 16.4453 5.89844C16.769 5.89844 17.0312 5.63614 17.0312 5.3125C17.0312 4.34326 17.8198 3.55469 18.7891 3.55469C19.1127 3.55469 19.375 3.29239 19.375 2.96875C19.375 2.64511 19.1127 2.38281 18.7891 2.38281C17.8362 2.38281 17.0312 1.55991 17.0312 0.585938C17.0312 0.262299 16.769 0 16.4453 0C16.1217 0 15.8594 0.262299 15.8594 0.585938C15.8594 1.55991 15.0545 2.38281 14.1016 2.38281C13.7779 2.38281 13.5156 2.64511 13.5156 2.96875C13.5156 3.29239 13.7779 3.55469 14.1016 3.55469C15.0708 3.55469 15.8594 4.34326 15.8594 5.3125ZM16.4453 2.35901C16.6141 2.58636 16.8166 2.79175 17.041 2.96295C16.8152 3.13126 16.6145 3.3313 16.4453 3.55652C16.2762 3.3313 16.0754 3.13126 15.8496 2.96295C16.0739 2.7919 16.2764 2.58652 16.4453 2.35901Z" fill="#171D35"/>
<path d="M0.625 13.5156V15.8984C0.625 16.6623 1.11481 17.3135 1.79688 17.5555V18.2422C1.79688 19.2114 2.58545 20 3.55469 20C4.52393 20 5.3125 19.2114 5.3125 18.2422V17.6562H13.5156V18.2422C13.5156 19.2114 14.3042 20 15.2734 20C16.2427 20 17.0312 19.2114 17.0312 18.2422V17.5555C17.7133 17.3135 18.2031 16.6623 18.2031 15.8984V13.5156C18.2031 12.0592 17.1346 10.8479 15.7404 10.6236L14.892 7.22992C14.6959 6.44592 13.9948 5.89844 13.1866 5.89844H7.07031C6.10107 5.89844 5.3125 5.10986 5.3125 4.14062C5.3125 3.81699 5.0502 3.55469 4.72656 3.55469C4.40292 3.55469 4.14062 3.81699 4.14062 4.14062C4.14062 5.10986 3.35205 5.89844 2.38281 5.89844C2.05917 5.89844 1.79688 6.16074 1.79688 6.48438C1.79688 6.80801 2.05917 7.07031 2.38281 7.07031C2.96219 7.07031 3.47687 7.35214 3.7973 7.7858L3.08777 10.6236C1.69357 10.8479 0.625 12.0592 0.625 13.5156ZM4.14062 18.2422C4.14062 18.5652 3.87772 18.8281 3.55469 18.8281C3.23166 18.8281 2.96875 18.5652 2.96875 18.2422V17.6562H4.14062V18.2422ZM15.2734 18.8281C14.9504 18.8281 14.6875 18.5652 14.6875 18.2422V17.6562H15.8594V18.2422C15.8594 18.5652 15.5965 18.8281 15.2734 18.8281ZM17.0312 13.5156V15.8984C17.0312 16.2215 16.7683 16.4844 16.4453 16.4844H2.38281C2.05978 16.4844 1.79688 16.2215 1.79688 15.8984V13.5156C1.79688 12.5471 2.58423 11.759 3.55255 11.7578C3.55347 11.7578 3.55423 11.758 3.55515 11.758C3.55621 11.758 3.55728 11.7578 3.55835 11.7578H15.2698C15.2708 11.7578 15.2719 11.758 15.273 11.758C15.2739 11.758 15.2747 11.7578 15.2756 11.7578C16.2439 11.759 17.0312 12.5471 17.0312 13.5156ZM10.1576 10.5859C10.3606 10.2361 10.7391 10 11.1719 10C11.6046 10 11.9832 10.2361 12.1861 10.5859H10.1576ZM7.07031 7.07031H13.1866C13.456 7.07031 13.6897 7.25281 13.755 7.51419L14.523 10.5859H13.4415C13.1805 9.57626 12.262 8.82812 11.1719 8.82812C10.0818 8.82812 9.16306 9.57626 8.90228 10.5859H4.30511L4.60159 9.40033C4.64188 9.40918 4.68369 9.41406 4.72656 9.41406C5.0502 9.41406 5.3125 9.15176 5.3125 8.82812C5.3125 7.85889 6.10107 7.07031 7.07031 7.07031ZM4.72656 5.89661C4.89365 6.11923 5.09186 6.31729 5.31433 6.48438C5.09171 6.65146 4.89365 6.84967 4.72656 7.07214C4.55948 6.84952 4.36127 6.65146 4.13879 6.48438C4.36127 6.31729 4.55948 6.11908 4.72656 5.89661Z" fill="#171D35"/>
<path d="M15.0115 12.9915L12.6678 14.1634C12.3783 14.3082 12.261 14.66 12.4058 14.9495C12.5504 15.2389 12.9025 15.3563 13.1919 15.2115L15.5357 14.0396C15.825 13.895 15.9423 13.5429 15.7977 13.2535C15.6529 12.9642 15.3008 12.8468 15.0115 12.9915Z" fill="#171D35"/>
<path d="M6.16058 14.1634L3.81683 12.9915C3.52752 12.8468 3.1755 12.9642 3.03069 13.2535C2.88604 13.5429 3.00338 13.895 3.29269 14.0396L5.63644 15.2115C5.92651 15.3566 6.27822 15.2383 6.42257 14.9495C6.56738 14.66 6.45004 14.3082 6.16058 14.1634Z" fill="#171D35"/>
<path d="M10.5859 14.1016H8.24219C7.91855 14.1016 7.65625 14.3639 7.65625 14.6875C7.65625 15.0111 7.91855 15.2734 8.24219 15.2734H10.5859C10.9096 15.2734 11.1719 15.0111 11.1719 14.6875C11.1719 14.3639 10.9096 14.1016 10.5859 14.1016Z" fill="#171D35"/>
</g>
<defs>
<clipPath id="clip0_865_7701">
<rect width="20" height="20" fill="white"/>
</clipPath>
</defs>
</svg>
