<svg width="20" height="20" viewBox="0 0 20 20" fill="none" xmlns="http://www.w3.org/2000/svg">
<g clip-path="url(#clip0_872_7846)">
<path fill-rule="evenodd" clip-rule="evenodd" d="M0 16.4063C0 18.0244 1.31155 19.3359 2.92969 19.3359H16.7187C17.0424 19.3359 17.3047 19.0736 17.3047 18.75C17.3047 18.4264 17.0424 18.1641 16.7187 18.1641C15.7478 18.1641 14.9609 17.3772 14.9609 16.4063V1.25C14.9609 0.926399 14.6986 0.664064 14.375 0.664064H0.585937C0.262333 0.664064 0 0.926399 0 1.25V16.4063ZM14.3747 18.1641H2.92969C1.95876 18.1641 1.17187 17.3772 1.17187 16.4063V1.83594H13.7891V16.4063C13.7891 17.0658 14.007 17.6744 14.3747 18.1641Z" fill="#171D35"/>
<path fill-rule="evenodd" clip-rule="evenodd" d="M13.7891 16.4063C13.7891 18.0244 15.1006 19.3359 16.7188 19.3359H17.0703C18.6885 19.3359 20 18.0244 20 16.4063V5.3125C20 4.9889 19.7377 4.72656 19.4141 4.72656H14.375C14.0514 4.72656 13.7891 4.9889 13.7891 5.3125V16.4063ZM16.7188 18.1641C15.7478 18.1641 14.9609 17.3772 14.9609 16.4063V5.89844H18.8281V16.4063C18.8281 17.3772 18.0413 18.1641 17.0703 18.1641H16.7188Z" fill="#171D35"/>
<path fill-rule="evenodd" clip-rule="evenodd" d="M16.1328 18.75C16.1328 19.0736 16.3951 19.3359 16.7187 19.3359H16.9141C17.2377 19.3359 17.5 19.0736 17.5 18.75C17.5 18.4264 17.2377 18.1641 16.9141 18.1641H16.7187C16.3951 18.1641 16.1328 18.4264 16.1328 18.75Z" fill="#171D35"/>
<path fill-rule="evenodd" clip-rule="evenodd" d="M2.53906 4.0625C2.53906 4.3861 2.8014 4.64844 3.125 4.64844H11.875C12.1986 4.64844 12.4609 4.3861 12.4609 4.0625C12.4609 3.7389 12.1986 3.47656 11.875 3.47656H3.125C2.8014 3.47656 2.53906 3.7389 2.53906 4.0625Z" fill="#171D35"/>
<path fill-rule="evenodd" clip-rule="evenodd" d="M2.53906 6.5625C2.53906 6.8861 2.8014 7.14844 3.125 7.14844H11.875C12.1986 7.14844 12.4609 6.8861 12.4609 6.5625C12.4609 6.2389 12.1986 5.97656 11.875 5.97656H3.125C2.8014 5.97656 2.53906 6.2389 2.53906 6.5625Z" fill="#171D35"/>
<path fill-rule="evenodd" clip-rule="evenodd" d="M2.53906 15.9375C2.53906 16.2611 2.8014 16.5234 3.125 16.5234H11.875C12.1986 16.5234 12.4609 16.2611 12.4609 15.9375C12.4609 15.6139 12.1986 15.3516 11.875 15.3516H3.125C2.8014 15.3516 2.53906 15.6139 2.53906 15.9375Z" fill="#171D35"/>
<path fill-rule="evenodd" clip-rule="evenodd" d="M6.91406 13.4375C6.91406 13.7611 7.1764 14.0234 7.5 14.0234H11.875C12.1986 14.0234 12.4609 13.7611 12.4609 13.4375V9.0625C12.4609 8.7389 12.1986 8.47656 11.875 8.47656H7.5C7.1764 8.47656 6.91406 8.7389 6.91406 9.0625V13.4375ZM8.08594 12.8516V9.64844H11.2891V12.8516H8.08594Z" fill="#171D35"/>
<path fill-rule="evenodd" clip-rule="evenodd" d="M2.53906 10C2.53906 10.3236 2.8014 10.5859 3.125 10.5859H5C5.3236 10.5859 5.58594 10.3236 5.58594 10C5.58594 9.6764 5.3236 9.41406 5 9.41406H3.125C2.8014 9.41406 2.53906 9.6764 2.53906 10Z" fill="#171D35"/>
<path fill-rule="evenodd" clip-rule="evenodd" d="M2.53906 12.5C2.53906 12.8236 2.8014 13.0859 3.125 13.0859H5C5.3236 13.0859 5.58594 12.8236 5.58594 12.5C5.58594 12.1764 5.3236 11.9141 5 11.9141H3.125C2.8014 11.9141 2.53906 12.1764 2.53906 12.5Z" fill="#171D35"/>
</g>
<defs>
<clipPath id="clip0_872_7846">
<rect width="20" height="20" fill="white"/>
</clipPath>
</defs>
</svg>
