<svg width="40" height="40" viewBox="0 0 40 40" fill="none" xmlns="http://www.w3.org/2000/svg">
<circle cx="20" cy="20" r="20" fill="#F6F7F8"/>
<path d="M16.5156 27.5086C23.5915 27.5086 27.461 21.6465 27.461 16.5633C27.461 16.3968 27.4575 16.231 27.4501 16.0661C28.2011 15.5231 28.8539 14.8454 29.369 14.0741C28.6797 14.3806 27.9378 14.5866 27.1598 14.6798C27.954 14.2034 28.5638 13.4501 28.8514 12.552C28.1081 12.9927 27.2849 13.3128 26.4087 13.4857C25.7067 12.738 24.7072 12.2704 23.6005 12.2704C21.4763 12.2704 19.7534 13.9931 19.7534 16.1167C19.7534 16.4187 19.7873 16.7123 19.8532 16.9939C16.656 16.833 13.8208 15.3023 11.9237 12.9747C11.5934 13.543 11.4029 14.2035 11.4029 14.9082C11.4029 16.2427 12.082 17.4211 13.1147 18.1103C12.4836 18.0909 11.8908 17.9176 11.3725 17.6292C11.3719 17.6454 11.3719 17.6611 11.3719 17.6783C11.3719 19.5414 12.6979 21.0969 14.4583 21.4494C14.135 21.5374 13.7948 21.5847 13.4439 21.5847C13.1964 21.5847 12.9552 21.5604 12.7208 21.5153C13.2105 23.0438 14.6308 24.1561 16.3145 24.1873C14.9978 25.2192 13.3392 25.834 11.5366 25.834C11.2265 25.834 10.92 25.8162 10.6189 25.7806C12.3214 26.8719 14.343 27.5086 16.5156 27.5086Z" fill="#6A7791"/>
</svg>
