<svg width="20" height="20" viewBox="0 0 20 20" fill="none" xmlns="http://www.w3.org/2000/svg">
<g clip-path="url(#clip0_865_7787)">
<path d="M18.3582 7.97676L18.9255 7.03125H19.4141C19.7377 7.03125 20 6.76891 20 6.44531C20 6.12172 19.7377 5.85938 19.4141 5.85938H18.5938C18.3879 5.85938 18.1972 5.96738 18.0913 6.14387L17.6143 6.93894L16.8275 4.18527C16.5177 3.10102 15.5138 2.34375 14.3861 2.34375H5.61387C4.48625 2.34375 3.4823 3.10102 3.1725 4.18531L2.38574 6.93898L1.90867 6.14391C1.80277 5.96738 1.61207 5.85938 1.40625 5.85938H0.585938C0.262344 5.85938 0 6.12172 0 6.44531C0 6.76891 0.262344 7.03125 0.585938 7.03125H1.07449L1.6418 7.97676C0.683359 8.34008 0 9.2673 0 10.3516V14.7266C0 15.0502 0.262344 15.3125 0.585938 15.3125H1.60156V16.2891C1.60156 17.0429 2.21488 17.6562 2.96875 17.6562H4.53125C5.28512 17.6562 5.89844 17.0429 5.89844 16.2891V15.3125H14.1016V16.2891C14.1016 17.0429 14.7149 17.6562 15.4688 17.6562H17.0312C17.7851 17.6562 18.3984 17.0429 18.3984 16.2891V15.3125H19.4141C19.7377 15.3125 20 15.0502 20 14.7266V10.3516C20 9.2673 19.3166 8.34008 18.3582 7.97676ZM4.2993 4.50723C4.46609 3.9234 5.00668 3.51562 5.61387 3.51562H14.3861C14.9933 3.51562 15.5339 3.9234 15.7007 4.50723L16.6451 7.8125H15.6051C15.3329 6.47687 14.1492 5.46875 12.7344 5.46875C11.3196 5.46875 10.1359 6.47687 9.86363 7.8125H3.35492L4.2993 4.50723ZM11.077 7.8125C11.3188 7.13043 11.9705 6.64062 12.7344 6.64062C13.4983 6.64062 14.15 7.13043 14.3918 7.8125H11.077ZM4.72656 16.2891C4.72656 16.3968 4.63895 16.4844 4.53125 16.4844H2.96875C2.86105 16.4844 2.77344 16.3968 2.77344 16.2891V15.3125H4.72656V16.2891ZM8.24219 14.1406V12.5H11.7578V14.1406H8.24219ZM17.2266 16.2891C17.2266 16.3968 17.1389 16.4844 17.0312 16.4844H15.4688C15.3611 16.4844 15.2734 16.3968 15.2734 16.2891V15.3125H17.2266V16.2891ZM18.8281 14.1406H12.9297V11.9141C12.9297 11.5905 12.6673 11.3281 12.3438 11.3281H7.65625C7.33266 11.3281 7.07031 11.5905 7.07031 11.9141V14.1406H1.17188V10.3516C1.17188 9.5977 1.7852 8.98438 2.53906 8.98438H2.57566C2.57668 8.98438 2.57766 8.98445 2.57867 8.98445C2.57965 8.98445 2.58059 8.98438 2.58156 8.98438H17.4184C17.4194 8.98438 17.4204 8.98445 17.4213 8.98445C17.4223 8.98445 17.4233 8.98438 17.4243 8.98438H17.4609C18.2148 8.98438 18.8281 9.5977 18.8281 10.3516V14.1406Z" fill="#171D35"/>
<path d="M15.8594 9.80469C14.8901 9.80469 14.1016 10.5932 14.1016 11.5625C14.1016 12.5318 14.8901 13.3203 15.8594 13.3203C16.8286 13.3203 17.6172 12.5318 17.6172 11.5625C17.6172 10.5932 16.8286 9.80469 15.8594 9.80469ZM15.8594 12.1484C15.5363 12.1484 15.2734 11.8856 15.2734 11.5625C15.2734 11.2394 15.5363 10.9766 15.8594 10.9766C16.1825 10.9766 16.4453 11.2394 16.4453 11.5625C16.4453 11.8856 16.1825 12.1484 15.8594 12.1484Z" fill="#171D35"/>
<path d="M4.14062 9.80469C3.17137 9.80469 2.38281 10.5932 2.38281 11.5625C2.38281 12.5318 3.17137 13.3203 4.14062 13.3203C5.10988 13.3203 5.89844 12.5318 5.89844 11.5625C5.89844 10.5932 5.10988 9.80469 4.14062 9.80469ZM4.14062 12.1484C3.81754 12.1484 3.55469 11.8856 3.55469 11.5625C3.55469 11.2394 3.81754 10.9766 4.14062 10.9766C4.46371 10.9766 4.72656 11.2394 4.72656 11.5625C4.72656 11.8856 4.46371 12.1484 4.14062 12.1484Z" fill="#171D35"/>
</g>
<defs>
<clipPath id="clip0_865_7787">
<rect width="20" height="20" fill="white"/>
</clipPath>
</defs>
</svg>
